<?xml version="1.0" standalone="no"?>
<!DOCTYPE svg PUBLIC "-//W3C//DTD SVG 1.1//EN" "http://www.w3.org/Graphics/SVG/1.1/DTD/svg11.dtd" >
<svg xmlns="http://www.w3.org/2000/svg">
<metadata></metadata>
<defs>
<font id="legal_modernbold_italic" horiz-adv-x="1210" >
<font-face units-per-em="2048" ascent="1651" descent="-397" />
<missing-glyph horiz-adv-x="847" />
<glyph horiz-adv-x="2048" />
<glyph horiz-adv-x="2048" />
<glyph unicode="&#xd;" horiz-adv-x="2048" />
<glyph unicode=" "  horiz-adv-x="847" />
<glyph unicode="&#x09;" horiz-adv-x="847" />
<glyph unicode="&#xa0;" horiz-adv-x="847" />
<glyph unicode="!" horiz-adv-x="790" d="M281 123q0 72 57 125t123 53q58 0 92.5 -35t34.5 -88q0 -71 -56.5 -124.5t-123.5 -53.5q-55 0 -91 34t-36 89zM461 483v23l110 790q6 41 25.5 72.5t41 47.5t47 25.5t41 12t26.5 2.5q62 0 95.5 -35.5t33.5 -79.5q0 -11 -15 -57l-288 -799q-9 -26 -18 -31t-44 -5h-17 t-15.5 2t-15 5t-7 10t-0.5 17z" />
<glyph unicode="&#x22;" horiz-adv-x="1060" d="M522 864l66 467q6 44 47.5 76.5t89.5 32.5t72.5 -32.5t7.5 -76.5l-168 -467h-115zM854 864l66 467q6 44 47.5 76.5t89.5 32.5t72.5 -32.5t7.5 -76.5l-168 -467h-115z" />
<glyph unicode="#" horiz-adv-x="1933" d="M256 285q0 61 82 61h360l176 334h-421q-82 0 -82 61q0 64 94 64h477l303 571q10 17 14.5 23t17 14t28.5 8q26 0 44.5 -18.5t18.5 -44.5q0 -16 -14 -39l-271 -514h338l303 571q10 17 14.5 23t17 14t28.5 8q26 0 44.5 -18.5t18.5 -44.5q0 -16 -14 -39l-270 -514h276 q94 0 94 -64q0 -61 -82 -61h-356l-176 -334h418q84 0 84 -61q0 -22 -9.5 -36.5t-27.5 -19.5t-30 -6.5t-30 -1.5h-475l-305 -573q-1 -2 -4 -7t-4 -6.5l-4 -6t-4.5 -6.5t-5 -5t-6 -4.5t-6 -4t-7 -3.5t-8.5 -1.5t-10 -0.5q-26 0 -45 18.5t-19 44.5q0 14 15 39l272 516h-338 l-305 -573q-1 -2 -4 -7t-4 -6.5l-4 -6t-4.5 -6.5t-5 -5t-6 -4.5t-6 -4t-7 -3.5t-8.5 -1.5t-10 -0.5q-26 0 -45 18.5t-19 44.5q0 16 14 39l273 516h-279q-94 0 -94 64zM840 346h338l176 334h-338z" />
<glyph unicode="$" horiz-adv-x="1177" d="M215 315q0 16 3.5 37t14.5 51t28 54t49 41.5t73 17.5q14 0 29.5 -4t34 -14.5t29.5 -34t9 -57.5q0 -18 -7.5 -40t-24.5 -47t-53 -42t-85 -17q7 -45 32 -79.5t61 -53.5t74.5 -29t80.5 -12l127 516q-49 10 -78 18t-75.5 34t-83.5 67q-49 54 -66.5 120t-11.5 120 q5 54 25.5 112.5t63 121t100.5 113t145 85t190 39.5l25 104h96l-25 -104q68 -4 125.5 -22t106.5 -52.5t74.5 -94.5t19.5 -139q-7 -82 -48 -136t-118 -54q-41 0 -74.5 26t-29.5 82q5 59 48.5 103.5t117.5 44.5q-36 134 -246 145l-115 -458q157 -30 231 -121q88 -112 76 -258 q-5 -57 -25 -118t-62 -128.5t-100 -122t-146.5 -93t-194.5 -46.5l-27 -105h-96l27 105q-80 7 -140.5 30t-96 54.5t-57 73.5t-27.5 82.5t-3 84.5zM569 1083q-6 -69 44 -118.5t151 -67.5l110 438q-140 -16 -220 -91t-85 -161zM659 88q64 7 117.5 30.5t87.5 55t58.5 69t35.5 70 t13 60.5q3 27 -3 54.5t-24 59t-59 56.5t-101 37z" />
<glyph unicode="%" horiz-adv-x="1933" d="M352 -51q0 17 5 25.5t28 31.5l1219 1276h-2q-96 -31 -203 -31q-32 0 -63.5 3t-56.5 8t-50.5 12.5t-43.5 14t-37 14.5t-28.5 13t-20.5 11t-12 6q3 -21 3 -51q0 -86 -27.5 -183t-76 -185t-127 -145.5t-169.5 -57.5q-27 0 -54.5 5t-63 22.5t-62.5 45.5t-45.5 79.5 t-18.5 119.5q0 95 32 192.5t87 178t138.5 131.5t177.5 51q52 0 85.5 -17t71.5 -53q143 -143 363 -143q122 0 230.5 48t189.5 138q27 27 53 27t44.5 -18.5t18.5 -44.5q0 -28 -26 -54l-1444 -1505l-5.5 -5.5l-5.5 -5.5t-5.5 -5t-6 -5t-5.5 -3t-7.5 -3t-8 -1.5t-9.5 -0.5 q-24 0 -43 16t-19 48zM625 891q0 -50 19 -78.5t52 -28.5q59 0 114 56t90.5 137t57 168t21.5 153q0 15 -2.5 34t-10 52.5t-30 55.5t-55.5 22q-42 0 -87.5 -39.5t-82.5 -144.5q-23 -60 -54.5 -191t-31.5 -196zM1202 158q0 72 19 149t56.5 149t89 129t122 91.5t149.5 34.5 q25 0 50 -5.5t54.5 -22t51.5 -43.5t36.5 -74.5t14.5 -110.5q0 -86 -27.5 -183.5t-76 -184.5t-127 -144.5t-168.5 -57.5q-31 0 -61.5 7t-64.5 26t-59.5 48t-42 79t-16.5 113zM1380 66q0 -52 20 -79.5t52 -27.5q48 0 93 36.5t78.5 94t59.5 126t39 135.5t13 120q0 24 -3.5 48 t-12.5 53t-30.5 47t-52.5 18q-124 0 -202 -287q-37 -134 -54 -284z" />
<glyph unicode="&#x26;" horiz-adv-x="1814" d="M289 371q0 93 50.5 218t139.5 214q-20 54 -20 119q0 70 20 143.5t61 143.5t97.5 125t135 88.5t167.5 33.5q118 0 192 -65t74 -168q0 -88 -48 -132t-101 -44q-38 0 -69.5 21.5t-31.5 72.5q0 49 32.5 90.5t94.5 52.5q-36 98 -143 98q-193 0 -272 -454q84 33 166 33 q77 0 116 -35t39 -97q0 -47 -22 -91.5t-75 -77.5t-126 -33q-86 0 -164 35q-31 -80 -54.5 -178t-23.5 -167q0 -144 100 -211t294 -67q284 0 444 113q63 46 111 110t72 127.5t35 115.5t11 93q0 133 -104 281q-7 -4 -63.5 -33.5t-82.5 -46.5q-47 -34 -67 -67t-25 -77 q20 25 33 35q47 37 94 37q51 0 77 -28t26 -68q0 -56 -41.5 -102t-110.5 -46q-82 0 -137 48.5t-55 123.5q0 42 18 82t42 68.5t68 61.5t76.5 53t87.5 51q49 26 81 47t77.5 64.5t79.5 97.5q-78 23 -78 94q0 59 45 103t103 44q42 0 72 -24.5t30 -71.5q0 -17 -8.5 -49.5 t-31.5 -86.5t-77 -121t-131 -126q36 -54 57 -91.5t41.5 -104t20.5 -136.5q0 -23 -2.5 -52.5t-19 -96.5t-45.5 -127t-89 -130.5t-141 -120.5t-211.5 -84t-290.5 -34q-159 0 -280 31t-194 87t-109.5 128.5t-36.5 159.5zM664 780q29 -80 108 -80q49 0 78 43.5t29 102.5 q0 9 -0.5 13t-4 12t-14 12t-26.5 4q-86 0 -170 -107z" />
<glyph unicode="'" horiz-adv-x="729" d="M522 864l66 467q6 44 47.5 76.5t89.5 32.5t72.5 -32.5t7.5 -76.5l-168 -467h-115z" />
<glyph unicode="(" horiz-adv-x="968" d="M346 152q0 326 142.5 646.5t357.5 532.5q80 73 164 139t114 66q37 0 37 -29q0 -18 -12 -22l-39 -35q-131 -113 -238 -271.5t-171 -314.5t-107.5 -320.5t-60.5 -289.5t-17 -221q0 -290 125 -473q23 -31 23 -41q0 -29 -37 -29t-107 93.5t-108 189.5q-66 166 -66 379z" />
<glyph unicode=")" horiz-adv-x="968" d="M66 -481q0 11 4.5 17t33.5 30q101 86 188 197t147.5 223t109 235t77.5 232.5t48.5 216t27 184.5t7.5 139q0 81 -11.5 156.5t-24 121.5t-36.5 97t-33.5 67t-30.5 48q-12 16 -12 24q0 29 37 29q38 0 102 -86t101 -164q80 -191 80 -412q0 -124 -27.5 -266.5t-85.5 -303.5 t-164.5 -327t-249.5 -303q-52 -52 -138.5 -118t-115.5 -66q-34 0 -34 29z" />
<glyph unicode="*" d="M424 881q0 63 70 91q3 1 7 3l5 2l293 104l-244 105q-41 16 -41 55q0 43 36.5 78t74.5 35q26 0 53 -27l176 -178l27 281q3 30 15 51.5t25 31.5t30 16t24.5 6.5t13.5 0.5q31 0 50.5 -17.5t19.5 -41.5q0 -16 -12 -39l-115 -289l272 182q3 2 10 6.5t10 6t8.5 4t9 3.5t9 2 t11.5 1q27 0 46 -17t19 -55q0 -43 -26.5 -66t-55.5 -30l-293 -105l244 -104q41 -16 41 -55q0 -43 -36.5 -78t-74.5 -35q-26 0 -53 27l-176 178l-27 -281q-3 -30 -15 -51.5t-25 -31.5t-30 -16t-24.5 -6.5t-13.5 -0.5q-31 0 -50.5 17.5t-19.5 41.5q0 14 13 39l114 287 q-79 -50 -105.5 -67t-58.5 -40t-82 -57q-41 -28 -53.5 -33.5t-30.5 -5.5q-27 0 -46 17t-19 55z" />
<glyph unicode="+" horiz-adv-x="1814" d="M313 514q0 61 88 61h586l150 596q0 1 2 7t3 8.5t3.5 9t5 10t6 8.5t8 8.5t10 6.5t12.5 4.5t15 1.5q23 0 42.5 -17t19.5 -47q0 -6 -9 -41l-139 -555h555q88 0 88 -63q0 -61 -88 -61h-586l-149 -598l-4 -9q-3 -10 -4.5 -14.5t-7 -13t-11.5 -13t-15.5 -8.5t-21.5 -4 q-26 0 -44.5 19t-18.5 45q0 9 6 30l141 566h-555q-17 0 -27.5 1t-27 6.5t-25 19.5t-8.5 36z" />
<glyph unicode="," horiz-adv-x="729" d="M182 -356q0 10 4 14.5t31 26.5q46 33 88 73t92 114.5t74 156.5q-8 -8 -35 -18.5t-63 -10.5q-65 0 -95 37t-30 82q0 66 52 124t132 58q64 0 98.5 -45t34.5 -119q0 -76 -31.5 -158t-77 -146.5t-95 -118t-88.5 -82.5t-54 -29q-16 0 -26.5 13t-10.5 28z" />
<glyph unicode="-" horiz-adv-x="847" d="M188 397q0 2 11.5 48.5t11.5 54.5q8 35 18.5 43t53.5 8h444q18 0 24.5 -0.5t19 -3.5t17.5 -11t5 -22q0 -2 -5 -20t-11 -42t-9 -38q-8 -37 -20 -46.5t-56 -9.5h-436q-16 0 -24.5 0.5t-20.5 4t-17.5 12t-5.5 22.5z" />
<glyph unicode="." horiz-adv-x="729" d="M250 121q0 75 57.5 127.5t124.5 52.5q56 0 90.5 -33.5t34.5 -87.5q0 -72 -57 -126t-127 -54q-49 0 -86 31t-37 90z" />
<glyph unicode="/" d="M72 -449q0 17 20 50l1176 1888q10 16 15.5 23.5t18.5 15.5t29 8q26 0 45 -18.5t19 -44.5q0 -15 -21 -50l-1175 -1888q-9 -15 -15.5 -23t-19.5 -16t-29 -8q-26 0 -44.5 18.5t-18.5 44.5z" />
<glyph unicode="0" d="M236 328q0 135 56 352t136 360q185 314 514 314q92 0 160.5 -24.5t106 -60.5t60 -88.5t28.5 -97t6 -98.5q0 -57 -15.5 -153.5t-44.5 -212.5t-81 -237t-115 -202q-174 -215 -449 -215q-94 0 -163.5 25t-106.5 61t-59 89t-27.5 95t-5.5 93zM446 215q0 -83 48.5 -129.5 t119.5 -46.5q30 0 58 7t50 16.5t43.5 27t36.5 31.5t31 37.5t24.5 38t20 39t15.5 34t12 30.5l8 22q46 132 115.5 413t69.5 377q0 73 -48 120.5t-126 47.5t-147.5 -48t-98.5 -102q-59 -114 -145.5 -462t-86.5 -453z" />
<glyph unicode="1" d="M254 37q0 21 5 34t17 18t21.5 6t28.5 1h63q69 0 90 4q32 1 41 7.5t15 29.5l229 916q-62 -29 -128.5 -44.5t-111.5 -15.5q-47 0 -47 39q0 19 5 31.5t15.5 17.5t15 6.5t15.5 2.5q120 9 230 61t219 180q2 2 7 7.5t7 7t6.5 4t9 3.5t11.5 1q18 0 28.5 -8.5t12.5 -15.5t2 -13 q0 -9 -6 -27l-297 -1188q53 -6 121 -6h67q18 0 24.5 -0.5t19 -3.5t17.5 -11t5 -22q0 -21 -6 -34t-17 -18t-19 -6t-20 -1q-54 0 -164.5 3t-167.5 3q-53 0 -160 -3t-159 -3q-27 0 -36 12t-9 25z" />
<glyph unicode="2" d="M186 -6q0 14 10.5 48.5t41.5 95t77.5 122.5t128.5 132.5t183 123.5q92 47 171.5 104.5t143.5 143.5q39 57 64 144t30.5 133t5.5 63q0 94 -51.5 135t-120.5 41q-85 0 -164 -47t-131.5 -115.5t-84 -143.5t-31.5 -134q0 -58 39 -58q54 0 103 48t74 102.5t25 87.5 q0 29 -22 65q-10 10 -10 23q0 17 16 27q8 14 27 14q24 0 43.5 -41.5t19.5 -83.5q0 -37 -21 -89t-56.5 -103.5t-91 -87t-116.5 -35.5q-65 0 -103 42.5t-38 110.5q0 50 24 113.5t71.5 130t110 122t149 91t178.5 35.5q168 0 276.5 -87t108.5 -251q0 -172 -115.5 -292.5 t-429.5 -281.5q-4 -2 -29 -15.5t-39.5 -22t-42 -25.5t-49 -33.5t-48 -37.5t-51 -46.5t-46.5 -52.5q111 0 237 -14q6 0 91.5 -7.5t123.5 -7.5q94 0 157 46.5t89 115.5q8 23 16.5 28t43.5 5q20 0 29.5 -1t18.5 -8t9 -22q0 -19 -15.5 -60.5t-48.5 -96.5t-77 -104.5t-110 -83.5 t-138 -34q-42 0 -87 15t-70.5 29t-70.5 42q-44 29 -67.5 42.5t-61 27.5t-71.5 14q-37 0 -63 -30t-50 -111q-5 -21 -13.5 -25t-38.5 -4h-7h-5q-19 0 -27.5 1t-16 7.5t-7.5 20.5z" />
<glyph unicode="3" d="M221 238q0 48 13 84t30.5 54.5t40.5 29.5t38 13.5t28 2.5q48 0 75 -28t27 -66q0 -42 -31.5 -87.5t-99.5 -56.5q18 -73 75.5 -109t131.5 -36q90 0 160 41t102 104q35 65 60.5 175.5t25.5 152.5q0 125 -143 125h-66q-25 0 -35.5 1t-20 8t-9.5 22q0 10 4 22q3 22 12 31 q2 4 3.5 5.5t4.5 3t8 2t13.5 1t23.5 0.5h58q31 0 54.5 2.5t61 12t71 34t60.5 62.5q34 50 60 151.5t26 149.5q0 135 -153 135q-147 0 -264 -96.5t-117 -208.5q0 -57 39 -57t75.5 32t36.5 74q0 27 -20 59q-12 12 -12 25q0 17 16 27q8 14 27 14q22 0 43.5 -42.5t21.5 -78.5 q0 -71 -59 -127.5t-135 -56.5q-63 0 -104.5 39.5t-41.5 105.5q0 62 37.5 126.5t102 117.5t160.5 87t202 34q159 0 253.5 -71.5t94.5 -203.5q0 -51 -16 -106t-50.5 -113t-98 -108.5t-148.5 -79.5q147 -75 147 -250q0 -92 -41 -175t-113.5 -145.5t-180.5 -99.5t-234 -37 q-150 0 -240 76.5t-90 196.5z" />
<glyph unicode="4" d="M109 55q0 24 29 45.5t48 26.5q6 2 28 17.5t62.5 50.5t86 80.5t102.5 115.5t108 148q181 282 289 688q6 23 11.5 37.5t20 39t41 37.5t62.5 13q10 0 22 -2.5t29 -10.5t28 -27t11 -48q0 -7 -6.5 -39t-27.5 -98.5t-52 -145.5t-87 -182t-126.5 -206t-176.5 -220t-230 -221h41 q46 0 91.5 -8t78.5 -18.5t108 -35.5l62 244q20 75 41 102q35 44 96 45q39 0 65.5 -22.5t26.5 -63.5q0 -16 -8 -47l-74 -301q71 0 138 21q14 6 24 6q18 0 33.5 -22.5t15.5 -33.5q0 -30 -82.5 -48.5t-154.5 -18.5q-6 -29 -29.5 -121t-26.5 -106q-19 -63 -44 -88 q-34 -35 -89 -35q-43 0 -67.5 24.5t-24.5 61.5q0 6 7 33.5t16.5 65t13.5 60.5l37 150q-114 39 -161 49t-122 10q-66 0 -107 -5.5t-51 -10t-32 -16.5q-34 -25 -45 -25q-17 0 -33 21t-16 34z" />
<glyph unicode="5" d="M244 250q0 64 19 109.5t48 65.5t53 28t46 8q43 0 75.5 -26t32.5 -77q0 -52 -37 -101t-116 -56q17 -71 65.5 -109.5t118.5 -38.5q18 0 37.5 2.5t50 13t58 28t57 51t51.5 77.5q33 73 69.5 227t36.5 210q0 42 -24 78t-82 36q-154 0 -277 -121l-9 -9q-16 -16 -21.5 -18.5 t-23.5 -2.5h-3q-49 0 -49 37q0 2 6 32l156 619q8 32 17 37q6 4 15 4q3 0 33 -13q120 -53 273 -53q148 0 307 58q6 4 13.5 5t8.5 1q4 0 6 2q15 0 23 -9.5t8 -19.5q0 -22 -14.5 -40t-46.5 -44q-210 -192 -457 -192q-24 0 -52 2.5t-46 5t-19 2.5l-4 -4l-2.5 -5t-3 -7.5 t-2.5 -10.5l-61 -244q117 62 235 62q69 0 129 -18t109 -54.5t77.5 -99.5t28.5 -146q0 -106 -43 -207t-119.5 -181.5t-193.5 -129.5t-254 -49q-77 0 -137 25t-95 66.5t-53 91t-18 102.5z" />
<glyph unicode="6" d="M270 346q0 46 9.5 119.5t33 179.5t75.5 222.5t124 205.5q125 150 269 215.5t272 65.5q68 0 117 -18.5t72.5 -49t33.5 -60t10 -61.5q0 -89 -44.5 -135.5t-104.5 -46.5q-52 0 -77.5 27.5t-25.5 66.5q0 48 33.5 90.5t91.5 53.5q-30 53 -108 53q-84 0 -165.5 -48t-129.5 -114 q-28 -38 -48 -73t-50 -114t-58 -188q104 131 246 131q80 0 142 -22.5t97.5 -56.5t58.5 -78t30.5 -81.5t7.5 -72.5q0 -82 -23.5 -165t-72 -160t-115.5 -136.5t-160.5 -95t-200.5 -35.5q-173 0 -256.5 101.5t-83.5 279.5zM485 199q0 -23 6 -46.5t20 -47t41 -38t64 -14.5 q158 0 232 180q23 60 62.5 221t39.5 224q0 53 -30.5 85t-94.5 32t-118.5 -38.5t-90 -100.5t-62.5 -132t-41 -139t-21 -116.5t-7 -69.5z" />
<glyph unicode="7" d="M293 909q0 12 14 35l195 377q12 24 21.5 28.5t41.5 4.5q24 0 32 -0.5t17 -7t9 -21.5q0 -16 -27 -61q130 90 272 90q48 0 76 -25t51 -90q20 -54 33 -71t41 -17q111 0 256 176q18 20 26 23.5t38 3.5q22 0 30 -0.5t17.5 -7t9.5 -21.5q0 -10 -25 -41q-187 -251 -295 -483 q-137 -290 -245 -692q0 -1 -4.5 -14t-6.5 -18.5t-8 -20t-12 -22.5t-15 -20.5t-20 -19.5t-24.5 -14.5t-30.5 -11t-37 -3.5q-48 0 -77.5 29t-29.5 72q0 16 14 72.5t63 183t122 262.5q38 74 91.5 160.5t90 139.5t88.5 125t56 78q-39 -10 -76 -10q-57 0 -129 35q-70 27 -107 27 q-111 0 -230 -57t-183 -164q-18 -27 -26.5 -32t-39.5 -5q-41 0 -49 7q-8 8 -8 21z" />
<glyph unicode="8" d="M223 242q0 274 346 436q-20 11 -44 35.5t-48 78.5t-24 117q0 58 18.5 118.5t58.5 119.5t96 105t137.5 74t176.5 28q141 0 233.5 -60.5t92.5 -179.5q0 -73 -25.5 -133.5t-78.5 -107t-81 -66t-84 -50.5q-5 -4 -8 -5q30 -20 50 -35.5t45.5 -42.5t40.5 -54.5t25.5 -68.5 t10.5 -88q0 -66 -22 -134.5t-68.5 -134t-111 -116.5t-157.5 -82t-200 -31q-178 0 -278.5 74t-100.5 203zM401 238q0 -88 54.5 -136.5t158.5 -48.5q80 0 146.5 25t107 65t62.5 87t22 94q0 56 -25.5 87t-101.5 83q-10 8 -78 55t-98 69q-66 -37 -116.5 -88t-78 -103.5 t-40.5 -100t-13 -88.5zM639 1063q0 -42 22 -66.5t97 -78.5l153 -109q102 62 151.5 145t49.5 164t-49.5 118.5t-134.5 37.5q-74 0 -132.5 -21.5t-91 -54.5t-49 -68t-16.5 -67z" />
<glyph unicode="9" d="M256 160q0 89 46.5 132.5t100.5 43.5q52 0 77.5 -27.5t25.5 -66.5q0 -45 -29.5 -85.5t-85.5 -56.5q37 -47 127 -47q81 0 154.5 47t113.5 101q23 32 38.5 59t50 115t67.5 211q-61 -76 -120 -104.5t-126 -28.5q-82 0 -145.5 24.5t-98.5 59.5t-57.5 80.5t-29.5 80.5t-7 66 q0 12 1 31.5t11 71t26.5 100.5t52 111t83.5 110q166 166 408 166q166 0 249 -97.5t83 -275.5q0 -30 -4 -78t-20 -134t-40.5 -170t-72 -183t-109.5 -178q-106 -135 -242 -204t-270 -69q-70 0 -125 17t-94 62.5t-39 115.5zM590 643q0 -44 27.5 -80.5t97.5 -36.5q57 0 107 31.5 t84 80.5t62 112t44.5 124t27.5 117.5t15 91t4 47.5q0 20 -4.5 41.5t-16.5 46t-38 40.5t-62 16q-177 0 -244 -187q-28 -78 -66 -234t-38 -210z" />
<glyph unicode=":" horiz-adv-x="729" d="M250 121q0 75 57.5 127.5t124.5 52.5q56 0 90.5 -33.5t34.5 -87.5q0 -72 -57 -126t-127 -54q-49 0 -86 31t-37 90zM401 729q0 72 57.5 126t127.5 54q49 0 86 -30t37 -93q0 -70 -57.5 -124t-125.5 -54q-56 0 -90.5 33.5t-34.5 87.5z" />
<glyph unicode=";" horiz-adv-x="729" d="M182 -356q0 3 0.5 5.5t1.5 5t2 3.5t3.5 4t4 4t5.5 4.5t6 5.5q180 145 244 340q-1 0 -9.5 -3.5t-13.5 -4.5q-19 -8 -53 -8q-65 0 -95 37t-30 82q0 67 53 124.5t129 57.5q119 0 119 -149q0 -79 -30 -164t-74 -151.5t-91 -120.5t-84 -83.5t-51 -29.5q-16 0 -26.5 13 t-10.5 28zM401 729q0 72 57.5 126t127.5 54q49 0 86 -30t37 -93q0 -70 -57.5 -124t-125.5 -54q-56 0 -90.5 33.5t-34.5 87.5z" />
<glyph unicode="&#x3c;" horiz-adv-x="1830" d="M323.5 489.5q0.5 8.5 2.5 24.5q9 42 67 64l1434 612q24 12 43 12q28 0 40.5 -18t6.5 -43q-9 -41 -68 -66l-1317 -563l1037 -561q44 -25 35 -66q-5 -24 -27.5 -42.5t-50.5 -18.5q-7 0 -13 2q-16 4 -30 12l-1123 611q-12 6 -17.5 10.5t-12.5 13t-6.5 17z" />
<glyph unicode="=" horiz-adv-x="1814" d="M256 285q0 61 82 61h1280q84 0 84 -61q0 -22 -9.5 -36.5t-27 -19.5t-29.5 -6.5t-30 -1.5h-1256q-94 0 -94 64zM371 741q0 64 94 64h1255q95 0 95 -64q0 -61 -82 -61h-1280q-82 0 -82 61z" />
<glyph unicode="&#x3e;" horiz-adv-x="1830" d="M168 -115q9 42 68 66l1318 563l-1038 561q-24 12 -32.5 27t-2.5 39q6 25 29.5 43t48.5 18q18 0 43 -14l1124 -610q43 -24 35 -64q-7 -26 -22 -39t-45 -26l-1436 -613q-24 -12 -41 -12q-28 0 -41 18t-8 43z" />
<glyph unicode="?" d="M438 1004q0 42 23.5 99t70 118.5t108 114t147 86.5t176.5 34q139 0 216.5 -68.5t77.5 -185.5q0 -214 -223 -360l-252 -162q-21 -14 -31.5 -22t-25 -23t-21 -33.5t-6.5 -42.5q0 -37 33 -37q14 0 32.5 5t42.5 16.5t46.5 37t36.5 60.5q4 12 6.5 17.5t11.5 8.5t13.5 3h25.5 q43 0 51 -9q7 -6 7 -20q0 -59 -82 -125.5t-195 -66.5q-15 0 -30.5 2t-37 11t-38 24.5t-28 45t-11.5 68.5q0 154 133 242l295 192q129 84 129 207q0 39 -15.5 67t-35.5 42t-48.5 21.5t-44.5 9t-34 1.5q-102 0 -196.5 -63t-158.5 -170q3 0 10.5 -2t19.5 -9t22.5 -16.5t18 -28 t7.5 -40.5q0 -59 -43.5 -101.5t-99.5 -42.5q-47 0 -75 26.5t-28 68.5zM489 123q0 72 57.5 125t123.5 53q58 0 92.5 -35t34.5 -88q0 -71 -57 -124.5t-124 -53.5q-55 0 -91 34t-36 89z" />
<glyph unicode="@" horiz-adv-x="1814" d="M336 506q0 129 38.5 260.5t117 252t186.5 214t258.5 149.5t320.5 56q171 0 299.5 -57t203.5 -175.5t75 -287.5q0 -44 -8.5 -105.5t-26 -137t-49 -147.5t-72 -133t-100.5 -98t-129 -37q-151 0 -205 88q-135 -88 -268 -88q-96 0 -172 34t-124 109t-48 181q0 76 22.5 156 t69.5 155.5t111.5 134.5t156 95t195.5 36q92 0 167 -41t109 -133h60q23 0 31 -0.5t17 -7t9 -21.5q0 -21 -70 -280q-8 -23 -38.5 -150t-30.5 -151q0 -18 4.5 -28t10 -12.5t13.5 -2.5q63 0 115 79t80 186t42.5 195.5t14.5 129.5q0 111 -36 196.5t-100 138t-147.5 79 t-183.5 26.5q-151 0 -284 -54t-226.5 -142.5t-161.5 -201.5t-101 -233t-33 -235q0 -211 123.5 -326t351.5 -115q275 0 577 117q7 3 12 5t10.5 3.5t8 2t8.5 1t8 0.5h10.5h12.5h41h8q18 0 26.5 -1t15.5 -7.5t7 -19.5q0 -7 -2 -11q-3 -10 -14 -14q-87 -37 -219 -76 q-256 -73 -514 -73q-271 0 -427.5 134t-156.5 388zM842 535q0 -20 2 -40.5t10.5 -51t23 -53.5t43 -39.5t66.5 -16.5q82 0 166 56t96 114l113 457q-22 69 -72.5 97.5t-101.5 28.5q-63 0 -120 -39t-97 -100.5t-70 -136t-44.5 -146.5t-14.5 -130z" />
<glyph unicode="A" horiz-adv-x="1773" d="M150 37q0 21 5 34t15.5 18t18.5 6t24 1q69 0 111 12.5t55.5 26t26.5 37.5l747 1233q15 25 29.5 36t26.5 13t40 2q47 0 58 -9t16 -50l135 -1262q4 -23 8 -27.5t23 -9.5q16 -2 67 -2h27q18 0 24.5 -0.5t19 -3.5t17.5 -11t5 -22q0 -21 -5.5 -34t-16.5 -18t-18 -6t-18 -1 q-46 0 -140 3t-140 3q-50 0 -151 -3t-150 -3q-30 0 -39 18q-6 9 -6 19q0 21 5 34t18 18t23 6t33 1q85 0 134 10l-31 287h-475l-166 -276q33 -13 80 -17q7 -1 21.5 -2t21.5 -2h12t13 -2t14.5 -5.5t9 -11t4.5 -18.5q0 -21 -6.5 -34t-17.5 -18t-17.5 -6t-15.5 -1q-37 0 -116 3 t-120 3q-33 0 -101.5 -3t-99.5 -3q-25 0 -34 18q-4 12 -4 19zM731 489h406l-62 570z" />
<glyph unicode="B" horiz-adv-x="1673" d="M131 37q0 21 5.5 34t18 18t21.5 6t27 1h45q32 0 82 4q29 2 35 6t12 27l293 1172q-50 4 -101 4h-45h-4q-20 0 -30.5 1t-20.5 10t-10 26q0 21 5.5 34t17.5 18t21 6t27 1h779q112 0 198 -28t140.5 -92.5t54.5 -158.5q0 -132 -108 -243t-308 -150q134 -13 220.5 -81 t86.5 -191q0 -58 -22.5 -120.5t-70 -123.5t-113.5 -109.5t-163 -78t-208 -29.5h-819q-18 0 -24.5 0.5t-19 3.5t-17.5 11t-5 22zM627 98q14 -2 47 -2h289q74 0 135 27t100.5 69.5t67 97t39.5 108t12 104.5q0 54 -16 92.5t-35.5 57.5t-50 29t-47 11.5t-38.5 1.5h-356zM793 768 h284q87 0 157.5 35.5t112 92t63.5 120t22 125.5q0 168 -170 168h-269q-47 0 -57 -4.5t-16 -28.5z" />
<glyph unicode="C" horiz-adv-x="1693" d="M334 502q0 109 29.5 220.5t84 216t138.5 195.5t187 159t236.5 107.5t280.5 39.5q206 0 340 -140l176 140h5q19 0 27.5 -1t16 -7.5t7.5 -20.5q-2 -2 -2 -8q0 -1 -1.5 -12t-5.5 -19l-114 -459q-7 -30 -17 -35.5t-49 -5.5q-25 0 -35.5 1t-19 8t-8.5 22q0 1 3 25.5t3 62.5 q0 154 -75.5 253t-221.5 99q-121 0 -249.5 -53t-227.5 -170q-63 -78 -111.5 -189t-73 -214.5t-36 -181.5t-11.5 -121q0 -167 95 -256q104 -97 284 -97q66 0 138 22.5t148 69.5t141 134.5t100 201.5q4 12 16 15.5t39 3.5q22 0 30 -0.5t17.5 -7t9.5 -21.5q0 -7 -5.5 -28.5 t-21.5 -59.5t-39 -78.5t-63.5 -88t-89.5 -85.5q-213 -174 -471 -174q-94 0 -179.5 17.5t-164 58.5t-135.5 101.5t-91 153t-34 206.5z" />
<glyph unicode="D" horiz-adv-x="1794" d="M131 37q0 21 5.5 34t18 18t21.5 6t27 1h45q32 0 82 4q29 2 35 6t12 27l293 1172q-50 4 -101 4h-45h-4q-20 0 -30.5 1t-20.5 10t-10 26q0 21 5.5 34t17.5 18t21 6t27 1h770q79 0 151 -16t138.5 -53.5t115.5 -93t78 -140t29 -189.5q0 -125 -36 -253.5t-110 -247 t-175 -210.5t-241.5 -147t-299.5 -55h-753q-18 0 -24.5 0.5t-19 3.5t-17.5 11t-5 22zM637 98q14 -2 47 -2h213q155 0 278.5 66t202.5 194q65 107 118.5 321.5t53.5 311.5q0 78 -23 137t-58.5 93t-84.5 55t-93 28t-93 7h-194q-47 0 -57.5 -5t-16.5 -28z" />
<glyph unicode="E" horiz-adv-x="1550" d="M131 37q0 21 5.5 34t18 18t21.5 6t27 1h45q32 0 82 4q29 2 35 6t12 27l289 1159q-6 0 -47 2t-54 2h-45q-18 0 -24 0.5t-18 3.5t-16.5 11t-4.5 22q0 21 5 34t17 18.5t21 6.5t26 1h1057q20 0 30.5 -1t21.5 -9.5t14 -24.5l-47 -406q-3 -20 -4.5 -25.5t-7 -14.5t-17 -11 t-31.5 -2q-17 0 -26.5 1t-20 10.5t-10.5 27.5q0 19 6 43q6 51 6 98q0 46 -9 80.5t-21 57.5t-41.5 38.5t-51.5 23.5t-71.5 12t-81.5 4.5t-100 0.5h-7q-149 0 -168 -4l-129 -522h86q62 0 100.5 9.5t64.5 35.5t40.5 58.5t30.5 91.5q8 30 17.5 37.5t43.5 7.5q18 0 26.5 -0.5 t19.5 -9.5t11 -27q0 -6 -6 -27l-114 -463q-10 -34 -21.5 -41.5t-40.5 -7.5q-18 0 -26.5 0.5t-19.5 9.5t-11 27q0 4 2 8q0 1 4 21q14 68 14 92q0 46 -29.5 64t-111.5 18h-104l-144 -576q14 -2 47 -2h205q71 0 129.5 10t102.5 26.5t83 46.5t66 59.5t55.5 77t48 88t46.5 102.5 q17 41 26 48t43 7q18 0 26.5 -0.5t20 -9.5t11.5 -27q0 -17 -11 -35l-194 -454q-10 -25 -21.5 -30t-46.5 -5h-1089q-18 0 -24.5 0.5t-19 3.5t-17.5 11t-5 22z" />
<glyph unicode="F" horiz-adv-x="1488" d="M131 37q0 21 5.5 34t18 18t21.5 6t27 1h45q32 0 82 4q29 2 35 6t12 27l289 1159q-6 0 -47 2t-54 2h-45q-18 0 -24 0.5t-18 3.5t-16.5 11t-4.5 22q0 21 5 34t17 18.5t21 6.5t26 1h1026q20 0 30.5 -1t21.5 -9.5t14 -24.5l-47 -406q-3 -20 -4.5 -25.5t-7 -14.5t-17 -11 t-31.5 -2q-17 0 -26.5 1t-20 10.5t-10.5 27.5v6q0 1 0.5 3.5t1.5 7t2 8.5q8 52 8 120q0 63 -18 104t-41 63t-79 32.5t-96 12t-128 1.5q-137 0 -158 -4l-135 -547h74q62 0 100 9.5t63.5 35.5t39.5 58t30 92q8 30 17.5 37.5t44.5 7.5q18 0 26.5 -0.5t19.5 -9.5t11 -27 q0 -5 -6 -26l-115 -463q-10 -34 -21 -41.5t-40 -7.5q-40 0 -50 11q-8 9 -8 25q0 3 2 14.5t2 14.5q17 56 17 94q0 44 -27.5 62t-111.5 18h-93l-137 -547q49 -6 127 -6h74h4q20 0 30.5 -1t20.5 -10t10 -26q0 -21 -5.5 -34t-17 -18t-19.5 -6t-21 -1q-58 0 -177.5 3t-180.5 3 q-52 0 -159 -3t-159 -3q-45 0 -45 37z" />
<glyph unicode="G" horiz-adv-x="1832" d="M334 500q0 111 29.5 223.5t85 217t139.5 195.5t187.5 158.5t235.5 106.5t277 39q206 0 340 -140l176 140h5q19 0 27.5 -1t16 -7.5t7.5 -20.5q-2 -2 -2 -8q0 -1 -1.5 -12t-5.5 -19l-114 -459q-7 -30 -17 -35.5t-49 -5.5q-25 0 -35.5 1t-19 8t-8.5 22q0 2 3 26.5t3 63.5 q0 70 -17 131t-51 111t-93 79t-136 29q-121 0 -254 -55t-232 -180q-59 -76 -105 -185t-69.5 -210t-35 -178.5t-11.5 -118.5q0 -168 101 -262q45 -40 120 -66.5t164 -26.5q99 0 184 50t109 133q53 203 53 213q0 12 -122 12h-70q-18 0 -24.5 0.5t-19 3.5t-17.5 11t-5 22 q0 21 6 34t17.5 18t19.5 6t21 1q57 0 171 -3t171 -3q45 0 132 3t128 3q22 0 31.5 -11.5t9.5 -25.5q0 -21 -5 -34t-18.5 -18t-24 -6t-34.5 -1q-53 0 -68 -4q-9 -1 -11.5 -2t-6 -7.5t-6.5 -21.5l-96 -391q-4 -16 -6.5 -23t-9.5 -13.5t-19 -6.5q-11 0 -64.5 32t-89.5 64 q-151 -131 -393 -131q-96 0 -183 18.5t-164.5 60t-134 102.5t-89.5 151.5t-33 202.5z" />
<glyph unicode="H" horiz-adv-x="1835" d="M131 37q0 21 5.5 34t18 18t21.5 6t27 1h45q32 0 82 4q29 2 35 6t12 27l293 1172q-50 4 -101 4h-45h-4q-20 0 -30.5 1t-20.5 10t-10 26q0 21 5.5 34t16 18t18 6t19.5 1q52 0 158 -3t158 -3t155 3t152 3q45 0 45 -37q0 -28 -11.5 -41.5t-23.5 -15.5t-35 -2l-127 -2 q-30 -5 -36.5 -9.5t-12.5 -27.5l-121 -492h588l131 527q-50 4 -100 4h-45q-18 0 -24.5 0.5t-19 3.5t-17.5 11t-5 22q0 21 5.5 34t16 18t18 6t19.5 1q52 0 158 -3t158 -3t155 3t152 3q45 0 45 -37q0 -21 -5 -34t-17 -18t-21 -6t-26 -1l-127 -2q-30 -5 -37 -9.5t-13 -27.5 l-290 -1170q6 0 46.5 -2t53.5 -2h45q18 0 24 -0.5t18 -3.5t16.5 -11t4.5 -22q0 -21 -6 -34t-16.5 -18t-17.5 -6t-17 -1q-52 0 -157.5 3t-157.5 3t-156 -3t-154 -3q-45 0 -45 37q0 21 5.5 34t18 18t21.5 6t27 1h45q32 0 82 4q29 2 35 6t12 27l137 549h-587l-146 -582 q6 0 47 -2t54 -2h45q18 0 24 -0.5t18 -3.5t16.5 -11t4.5 -22q0 -21 -6 -34t-16.5 -18t-17.5 -6t-17 -1q-52 0 -158 3t-158 3q-53 0 -156 -3t-153 -3q-45 0 -45 37z" />
<glyph unicode="I" horiz-adv-x="966" d="M121 37q0 21 5 34t17 18t21.5 6t28.5 1h49q61 0 84 2q36 5 42 11q5 7 9 24l291 1172q-13 0 -57.5 2t-47.5 2h-49h-4q-20 0 -30.5 1t-20.5 10t-10 26q0 21 5.5 34t16 18t18 6t19.5 1q53 0 162 -3t164 -3q53 0 160 3t159 3q15 0 25 -4.5t14 -12t5 -12t1 -8.5 q0 -21 -5.5 -34t-18 -18t-21.5 -6t-27 -1h-51q-34 0 -84 -4q-31 -1 -38 -6.5t-13 -28.5l-291 -1170l105 -4h51h4q20 0 30.5 -1t20.5 -10t10 -26q0 -21 -5.5 -34t-17 -18t-19 -6t-19.5 -1q-53 0 -162 3t-164 3q-52 0 -158.5 -3t-158.5 -3q-45 0 -45 37z" />
<glyph unicode="J" horiz-adv-x="1251" d="M147 188q0 64 31 111t71.5 66.5t80.5 19.5q59 0 94 -34.5t35 -84.5q0 -51 -36 -105.5t-106 -72.5q55 -49 146 -49q86 0 154.5 71.5t99.5 194.5l248 998q-49 6 -131 6h-80h-19t-16 2t-16 5.5t-8.5 11t-4.5 18.5q0 21 5.5 34t16.5 18t19 6t21 1q57 0 175 -3t177 -3 q45 0 135.5 3t134.5 3q21 0 31 -12t10 -25q0 -21 -5 -34t-17 -18t-21.5 -6t-28.5 -1h-16q-44 0 -67 -2q-19 -5 -24 -9t-9 -24l-246 -987q-15 -60 -53.5 -115.5t-100 -103t-154 -75.5t-202.5 -28q-142 0 -233 60.5t-91 162.5z" />
<glyph unicode="K" horiz-adv-x="1832" d="M131 37q0 21 5.5 34t18 18t21.5 6t27 1h45q42 0 88 4q6 1 17 2t16 2l301 1201q-50 4 -101 4h-45h-4q-20 0 -30.5 1t-20.5 10t-10 26q0 21 5.5 34t16 18t18 6t19.5 1q52 0 158 -3t158 -3t155 3t152 3q45 0 45 -37q0 -28 -11.5 -41.5t-23.5 -15.5t-35 -2l-127 -2 q-30 -5 -36.5 -9.5t-12.5 -27.5l-147 -592l813 614q-53 14 -66 15q-12 2 -35 2q-53 0 -53 37q0 21 5.5 34t16 18t18 6t19.5 1q44 0 133.5 -3t133.5 -3q29 0 89 3t87 3q37 0 37 -37q0 -59 -54 -59q-87 -4 -134.5 -21t-106.5 -57l-496 -373l320 -723q8 -18 14.5 -24.5 t28 -10.5t69.5 -4q16 0 22 -0.5t18 -3.5t17 -11t5 -22q0 -21 -5.5 -34t-16 -18t-17.5 -6t-17 -1q-40 0 -122 3t-123 3q-49 0 -148 -3t-147 -3q-20 0 -32.5 9.5t-12.5 27.5q0 21 5 34t16.5 18t21 6t28.5 1q65 0 109 15l-256 579l-223 -170l-105 -420q6 0 47 -2t54 -2h45 q18 0 24 -0.5t18 -3.5t16.5 -11t4.5 -22q0 -21 -6 -34t-16.5 -18t-17.5 -6t-17 -1q-52 0 -158 3t-158 3q-53 0 -156 -3t-153 -3q-45 0 -45 37z" />
<glyph unicode="L" horiz-adv-x="1429" d="M131 37q0 21 5.5 34t18 18t21.5 6t27 1h45q32 0 82 4q29 2 35 6t12 27l293 1172q-50 4 -101 4h-45h-4q-20 0 -30.5 1t-20.5 10t-10 26q0 21 5.5 34t16 18t18 6t19.5 1q53 0 162 -3t162 -3q58 0 176 3t176 3q47 0 47 -37q0 -21 -4.5 -34t-16.5 -18t-21 -6t-28 -1h-73 q-48 0 -94 -4q-41 -5 -50.5 -9.5t-13.5 -25.5l-291 -1172q14 -2 47 -2h119q64 0 121 16.5t98.5 39.5t79.5 62.5t61.5 72.5t48.5 82.5t36.5 77.5t28.5 73q2 5 3 8q7 23 18.5 28t39.5 5q12 0 17.5 -0.5t17 -3.5t17 -11t5.5 -22q0 -8 -10 -35l-164 -446q-12 -31 -22.5 -37 t-47.5 -6h-966q-18 0 -24.5 0.5t-19 3.5t-17.5 11t-5 22z" />
<glyph unicode="M" horiz-adv-x="2197" d="M131 37q0 21 5.5 34t18 18t21 6t25.5 1q78 0 116 10q39 10 49.5 18.5t16.5 33.5l287 1147q-50 4 -101 4h-45h-4q-20 0 -30.5 1t-20.5 10t-10 26q0 21 5.5 34t17.5 18t21 6t27 1h396q44 0 56.5 -8.5t18.5 -48.5l170 -1063l709 1073q19 31 37 39t57 8h377q18 0 24.5 -0.5 t19 -3.5t17.5 -11t5 -22q0 -28 -11.5 -41.5t-23.5 -15.5t-35 -2l-127 -2q-30 -5 -36.5 -9.5t-12.5 -27.5l-291 -1170q6 0 46.5 -2t53.5 -2h45h19t16 -2t16 -5.5t8.5 -11t4.5 -18.5q0 -21 -6 -34t-16.5 -18t-17.5 -6t-17 -1q-49 0 -149.5 3t-149.5 3q-48 0 -145.5 -3 t-145.5 -3q-45 0 -45 37q0 21 5.5 34t17.5 18t21 6t27 1h45q32 0 82 4q29 2 35 6t12 27l283 1139l-2 2l-805 -1223q-2 -2 -6.5 -8.5t-6 -8.5t-6 -7.5t-6.5 -7t-6.5 -5.5t-7.5 -5t-8.5 -3.5t-10.5 -3.5t-11.5 -1.5t-14.5 -0.5q-34 0 -45 12.5t-16 46.5l-189 1184h-2 l-280 -1126q51 -21 141 -21h19t16 -2t16 -5.5t8.5 -11t4.5 -18.5q0 -21 -6 -34t-16.5 -18t-17.5 -6t-16 -1q-40 0 -121.5 3t-121.5 3t-119 -3t-117 -3q-23 0 -32 13t-9 24z" />
<glyph unicode="N" horiz-adv-x="1835" d="M131 37q0 21 5.5 34t18 18t21 6t25.5 1q78 0 116 10q39 10 49.5 18.5t16.5 33.5l279 1118q0 2 4 14q2 2 2 8q0 4 -2.5 5.5t-23 3.5t-62.5 2h-56h-4q-20 0 -30.5 1t-20.5 10t-10 26q0 21 5.5 34t17.5 18t21 6t27 1h379q35 0 44.5 -5t23.5 -30l491 -948l218 866 q-47 21 -144 21q-18 0 -24 0.5t-18 3.5t-16.5 11t-4.5 22q0 21 6 34t16.5 18t17.5 6t17 1q40 0 121 -3t121 -3t119 3t116 3q18 0 29.5 -10t11.5 -27q0 -21 -5 -34t-15.5 -18t-18.5 -6t-24 -1q-65 0 -117 -11q-42 -7 -54.5 -16t-15.5 -33l-299 -1200q-10 -35 -21 -42t-48 -7 q-35 0 -43.5 4.5t-20.5 28.5l-602 1163l-268 -1079q51 -21 141 -21h19t16 -2t16 -5.5t8.5 -11t4.5 -18.5q0 -21 -6 -34t-16.5 -18t-17.5 -6t-16 -1q-40 0 -121.5 3t-121.5 3t-119 -3t-117 -3q-23 0 -32 13t-9 24z" />
<glyph unicode="O" horiz-adv-x="1751" d="M328 469q0 89 19 184t58 189.5t94 182.5t131.5 163.5t166 131.5t202.5 88t236 32q88 0 165.5 -17.5t146.5 -57t118.5 -98t78 -145.5t28.5 -194q0 -109 -27 -221.5t-78 -220t-130 -202t-176.5 -165.5t-224.5 -112.5t-268 -41.5q-116 0 -212.5 30t-170.5 90t-115.5 158 t-41.5 226zM608 395q0 -153 68 -248q80 -96 213 -96q225 0 399 252q89 125 151 361t62 362q0 33 -4 65t-14 72t-31 72.5t-51 61.5t-78.5 45t-108.5 16q-46 0 -95 -12.5t-106 -41t-114 -85t-104 -134.5q-78 -130 -132.5 -347t-54.5 -343z" />
<glyph unicode="P" horiz-adv-x="1611" d="M131 37q0 21 5.5 34t18 18t21.5 6t27 1h45q32 0 82 4q29 2 35 6t12 27l293 1172q-50 4 -101 4h-45h-4q-20 0 -30.5 1t-20.5 10t-10 26q0 21 5.5 34t17.5 18t21 6t27 1h744q58 0 112.5 -8t111 -29.5t98 -55t68 -89.5t26.5 -127q0 -126 -77 -235.5t-214.5 -176 t-302.5 -66.5h-318l-129 -518q6 0 47 -2t54 -2h45q18 0 24 -0.5t18 -3.5t16.5 -11t4.5 -22q0 -21 -6 -34t-16.5 -18t-17.5 -6t-17 -1q-52 0 -158 3t-158 3q-53 0 -156 -3t-153 -3q-45 0 -45 37zM786 702h236q68 0 122.5 12t87 31.5t50 35.5t27.5 32q47 64 74.5 180t27.5 166 q0 25 -6 45t-14.5 34.5t-26 26t-32 19t-41 12.5t-44 7.5t-50.5 4t-51.5 1.5h-55.5h-95q-41 0 -50 -4.5t-15 -28.5z" />
<glyph unicode="Q" horiz-adv-x="1751" d="M328 469q0 89 19 184t58 189.5t94 182.5t131.5 163.5t166 131.5t202.5 88t236 32q88 0 165.5 -17.5t146.5 -57t118.5 -98t78 -145.5t28.5 -194q0 -83 -17.5 -176.5t-61.5 -202.5t-109 -205.5t-170.5 -183.5t-235.5 -137q14 -45 30.5 -72.5t36.5 -38t31.5 -12.5t32.5 -2 q9 0 21.5 1t40 7t51 16t47.5 32t36 52l5.5 11t5.5 9t10.5 8.5t15.5 2.5q37 0 37 -37q0 -13 -11.5 -53.5t-39.5 -99.5t-66.5 -113t-100 -92.5t-132.5 -38.5q-185 0 -185 239q0 13 4.5 71t4.5 73q-86 -21 -185 -21q-116 0 -212.5 30t-170.5 90t-115.5 158t-41.5 226zM592 389 q0 -212 129 -295q0 51 17.5 91.5t43.5 64.5t58 39.5t58.5 21.5t47.5 6q82 0 127 -48t74 -134q85 60 153 166t105 212.5t62 218t32.5 179t7.5 99.5q0 159 -71 252q-82 96 -222 96q-46 0 -97 -13.5t-107.5 -43t-113.5 -84t-103 -127.5q-88 -145 -144.5 -366.5t-56.5 -334.5z M795 113q0 -19 7 -32t16 -19.5t24 -10t24 -4t23 -0.5q52 0 99 13t69 24q0 87 -24.5 123.5t-84.5 36.5q-61 0 -107 -39t-46 -92z" />
<glyph unicode="R" horiz-adv-x="1759" d="M131 37q0 21 5.5 34t18 18t21.5 6t27 1h45q32 0 82 4q29 2 35 6t12 27l293 1172q-50 4 -101 4h-45h-4q-20 0 -30.5 1t-20.5 10t-10 26q0 21 5.5 34t17.5 18t21 6t27 1h676q69 0 133.5 -9t129.5 -31t113 -56t78 -89t30 -124q0 -139 -115 -248t-299 -154q166 -74 166 -221 q0 -25 -15 -102q-26 -162 -26 -217q0 -26 2 -42t9 -35t24 -28.5t43 -9.5q44 0 82 42.5t63 117.5q10 30 19 35.5t40 5.5q18 0 26.5 -0.5t20 -9.5t11.5 -27q0 -10 -8.5 -34.5t-29.5 -60t-50.5 -67t-79 -54t-107.5 -22.5q-26 0 -51 2t-71.5 8t-84 21.5t-74.5 39.5t-58 65 t-21 94q0 25 4.5 46t26.5 111q30 109 30 154t-15.5 77.5t-35 48t-48.5 24t-42.5 9.5t-30.5 1h-217l-141 -566q6 0 46.5 -2t53.5 -2h45h19t16 -2t16 -5.5t8.5 -11t4.5 -18.5q0 -21 -6 -34t-17 -18t-18 -6t-17 -1q-50 0 -153 3t-156 3q-50 0 -152 -3t-151 -3q-45 0 -45 37z M797 739h202q189 0 293 86q54 47 84.5 157.5t30.5 166.5q0 33 -11 59t-26 42.5t-44.5 28.5t-52.5 17.5t-64 8.5t-65 3.5t-69 0.5h-92q-34 0 -40.5 -4.5t-12.5 -28.5z" />
<glyph unicode="S" horiz-adv-x="1331" d="M184 -6q2 2 2 8q0 12 2 16l103 410q7 29 16 34t45 5h5q19 0 27.5 -1t16 -7.5t7.5 -20.5v-6q0 -4 -1 -8l-1 -4q-13 -50 -13 -94q0 -76 32 -131t85 -82.5t106 -39.5t111 -12q65 0 120.5 24t90.5 60.5t60 81.5t35.5 85.5t10.5 74.5q0 49 -15 84t-44 54.5t-54.5 29 t-62.5 16.5q-50 12 -131 33q-90 21 -146 47.5t-99 83.5q-64 88 -64 199q0 59 20 125.5t63 134.5t103.5 122.5t150 89t193.5 34.5q178 0 285 -101q3 -3 5 -4t3 -2l2 -2l107 90q6 4 11 8t7 5.5t5.5 3t7 2t10.5 0.5q39 0 39 -31q0 -1 -8 -37l-99 -393q-7 -30 -16 -35.5 t-45 -5.5q-21 0 -30.5 1t-18.5 8t-9 22q0 1 2 17t4.5 39t2.5 42q0 146 -73 215.5t-196 69.5q-64 0 -117.5 -21t-87.5 -53.5t-58 -72.5t-34 -76t-10 -66q0 -44 16.5 -77.5t42 -50.5t45 -25t37.5 -11l140 -35q115 -29 163.5 -50t94.5 -73q76 -92 76 -227q0 -69 -21 -143 t-66.5 -146.5t-107.5 -130.5t-153 -93.5t-195 -35.5q-233 0 -346 113q-59 -52 -77 -69q-2 -2 -5 -4q-11 -7 -29 -21q-2 -2 -6.5 -6t-5.5 -5t-4.5 -3t-4.5 -2.5t-4.5 -1.5t-7 -1h-8.5q-37 0 -37 29z" />
<glyph unicode="T" horiz-adv-x="1630" d="M371 37q0 21 5.5 34t17.5 18t21 6t27 1h93q127 0 167 10l293 1178q-33 2 -86 2q-68 0 -116.5 -6t-88.5 -24.5t-66.5 -41.5t-53 -67t-46 -91t-46.5 -124q-10 -30 -20 -36.5t-42 -6.5q-18 0 -26.5 0.5t-19.5 9.5t-11 27q0 14 39 123l102 294q10 28 20.5 33.5t47.5 5.5h1138 q16 0 24.5 -0.5t20 -4t16.5 -12t5 -22.5v-6q0 -1 -0.5 -4t-1.5 -8.5t-2 -11.5l-58 -371q-3 -20 -6.5 -31t-13 -16t-16 -5.5t-25.5 -0.5q-17 0 -26.5 1t-20 10.5t-10.5 27.5v6q0 1 0.5 3.5l1.5 7.5t2 11q16 53 16 164q0 98 -49 132t-197 34h-71q-24 -2 -29.5 -6t-11.5 -27 l-287 -1151q41 -6 145 -6h91h4q20 0 30.5 -1t20.5 -10t10 -26q0 -21 -5 -34t-15.5 -18t-18.5 -6t-24 -1l-404 6l-395 -6q-49 0 -49 37z" />
<glyph unicode="U" horiz-adv-x="1804" d="M446 354q0 84 15 119l209 832q-50 4 -101 4h-45h-4q-20 0 -30.5 1t-20.5 10t-10 26q0 21 5.5 34t16 18t18 6t19.5 1q52 0 158 -3t158 -3t155 3t152 3q45 0 45 -37q0 -28 -11.5 -41.5t-23.5 -15.5t-35 -2l-127 -2q-30 -5 -36.5 -9.5t-12.5 -27.5l-207 -830q-1 -6 -6 -28 t-6.5 -28t-4.5 -23.5t-4 -28t-2 -26.5t-1 -34q0 -107 65 -161q67 -50 174 -50q178 0 317 105.5t189 310.5l203 811q-47 21 -144 21q-18 0 -24 0.5t-18 3.5t-16.5 11t-4.5 22q0 21 6 34t16.5 18t17 6t15.5 1q40 0 122 -3t122 -3q41 0 118.5 3t114.5 3q18 0 29.5 -10t11.5 -27 q0 -21 -5 -34t-15.5 -18t-18.5 -6t-24 -1q-65 0 -117 -11q-42 -7 -54 -16t-15 -33l-199 -798q-15 -65 -47.5 -129.5t-88 -129.5t-125.5 -115t-168 -81t-208 -31q-227 0 -359.5 102.5t-132.5 286.5z" />
<glyph unicode="V" horiz-adv-x="1773" d="M446 1346q0 21 6 34t17 18t18 6t17 2q44 0 135.5 -3.5t136.5 -3.5q50 0 151 3t150 4q45 0 45 -38q0 -28 -11.5 -41.5t-24 -15.5t-39.5 -2q-80 0 -134 -11l134 -964l608 954q-57 21 -119 21q-15 0 -23 0.5t-19 9.5t-11 27q0 21 6 34t16.5 18t17 6t15.5 2q38 0 117 -3.5 t119 -3.5q32 0 96.5 3t95.5 4q19 0 29 -12t10 -26q0 -21 -5.5 -34t-16.5 -18t-19 -6t-22 -1q-131 0 -168 -54q-2 -1 -19 -24l-780 -1219q-22 -33 -39 -40t-57 -7q-49 0 -59.5 10t-16.5 54l-172 1243q-4 23 -8 26.5t-25 8.5q-23 2 -63 2h-23q-18 0 -24.5 0.5t-19 3.5 t-17.5 11t-5 22z" />
<glyph unicode="W" horiz-adv-x="2375" d="M444 1346q0 21 6 34t17 18t18 6t17 2q42 0 130 -3.5t132 -3.5q49 0 149 3t148 4q45 0 45 -38q0 -21 -5 -34t-18 -18t-23.5 -6t-33.5 -1q-79 0 -133 -11l84 -919l424 719l-19 207q-54 4 -84 4h-14h-4q-20 0 -30.5 1t-20.5 10t-10 26q0 21 6 34t16.5 18t17.5 6t17 2 q42 0 129 -3.5t131 -3.5q49 0 149.5 3t149.5 4q23 0 37 -20q6 -9 6 -18q0 -21 -5 -34t-18 -18t-23.5 -6t-33.5 -1q-61 0 -133 -11l84 -919l537 905v2q-66 23 -148 23q-51 0 -51 37q0 21 6 34t16.5 18t17.5 6t17 2q40 0 122.5 -3.5t123.5 -3.5q30 0 91 3t89 4 q18 0 28.5 -12.5t10.5 -25.5q0 -20 -5.5 -33t-16 -18t-19.5 -6.5t-24 -1.5q-80 -4 -114.5 -22t-53.5 -54l-717 -1215q-22 -35 -39.5 -44t-52.5 -9q-38 0 -51 10t-17 50l-82 895l-534 -906q-21 -34 -38.5 -41.5t-51.5 -7.5q-42 0 -51.5 11t-14.5 53l-117 1276q-26 4 -86 4 h-14q-18 0 -24.5 0.5t-19 3.5t-17.5 11t-5 22z" />
<glyph unicode="X" horiz-adv-x="1773" d="M135 37q0 21 5.5 34t18 18t22 6t28.5 1q99 1 153.5 20t92.5 58l475 516l-238 586q-7 18 -13 22t-30 9q-18 2 -67 2h-25h-4q-20 0 -30.5 1t-20.5 10t-10 26q0 21 6 34t16.5 18t17.5 6t17 1q45 0 137.5 -3t138.5 -3q50 0 152.5 3t152.5 3q46 0 46 -37q0 -21 -5 -34t-15 -18 t-17 -6t-19 -1q-52 0 -129 -15l152 -374l338 366q-33 10 -72.5 16.5t-50.5 6.5q-53 0 -53 37q0 21 6 34t16.5 18t17.5 6t17 1q44 0 134 -3t134 -3q38 0 114.5 3t113.5 3q40 0 40 -37q0 -21 -4.5 -34t-16 -18t-20.5 -6t-28 -1q-98 0 -155.5 -18t-94.5 -60l-391 -424l274 -678 q7 -18 13 -22t30 -9q18 -2 68 -2h24q18 0 24.5 -0.5t19 -3.5t17.5 -11t5 -22q0 -21 -5.5 -34t-16 -18t-17.5 -6t-18 -1q-45 0 -138 3t-139 3q-50 0 -152.5 -3t-152.5 -3q-27 0 -36 12t-9 25q0 59 55 59q62 0 129 15l-188 464l-420 -456q55 -23 129 -23q45 0 45 -37 q0 -21 -5.5 -34t-16 -18t-17.5 -6t-18 -1q-44 0 -134.5 3t-134.5 3q-38 0 -114 -3t-113 -3q-23 0 -32 12.5t-9 24.5z" />
<glyph unicode="Y" horiz-adv-x="1773" d="M434 1346q0 21 6 34t17 18t18 6t17 1q46 0 140 -3t142 -3q52 0 156 3t153 3q45 0 45 -37q0 -21 -5.5 -34t-16.5 -18t-19 -6t-22 -1q-51 0 -125 -9l211 -581l494 573q-40 17 -103 17h-12t-13 2t-14.5 5.5t-9 11t-4.5 18.5q0 21 6 34t16.5 18t17.5 6t17 1q38 0 117 -3 t119 -3q33 0 99 3t97 3q19 0 29 -11.5t10 -25.5q0 -21 -5.5 -34t-16.5 -18t-18.5 -6t-20.5 -1q-54 0 -91 -6t-62.5 -21t-35.5 -24t-30 -31l-576 -666l-114 -461q50 -4 100 -4h45h4q20 0 30.5 -1t20.5 -10t10 -26q0 -21 -5.5 -34t-16 -18t-18 -6t-19.5 -1q-50 0 -153 3 t-156 3q-50 0 -152 -3t-151 -3q-45 0 -45 37q0 21 5.5 34t17.5 18t21 6t27 1h45q59 0 82 2q30 5 36.5 9.5t12.5 27.5l107 426l-262 715q-7 19 -12.5 22.5t-28.5 8.5q-18 2 -68 2h-24q-18 0 -24.5 0.5t-19 3.5t-17.5 11t-5 22z" />
<glyph unicode="Z" horiz-adv-x="1452" d="M193 29q0 18 6 33.5t10.5 21t15.5 18.5l1053 1207h-227q-191 0 -304.5 -82.5t-173.5 -263.5q-13 -37 -21 -44.5t-42 -7.5q-18 0 -26.5 0.5t-19.5 9.5t-11 27l4 17q5 19 6 20l112 379q10 29 22.5 35t47.5 6h909h5q19 0 27.5 -1t16 -7.5t7.5 -20.5q0 -37 -27 -67 l-1053 -1205h242q77 0 141.5 13.5t110.5 33t86 55t64.5 66.5t49 81.5t38 85t32.5 91.5q13 37 21.5 44.5t42.5 7.5q18 0 26.5 -0.5t19.5 -9.5t11 -27q0 -13 -6 -31l-149 -471q-10 -30 -22 -36.5t-48 -6.5h-940h-6q-20 0 -28.5 1t-15.5 7.5t-7 20.5z" />
<glyph unicode="[" horiz-adv-x="729" d="M182 -475q0 3 6 33l484 1931q10 34 21 40.5t48 6.5h187h4q20 0 30.5 -1t20.5 -10t10 -26q0 -8 -7 -35.5t-11 -31.5q-6 -15 -16.5 -18t-35.5 -3h-8h-135l-450 -1798h116q18 0 24.5 -0.5t19 -3.5t17.5 -11t5 -22q0 -11 -6 -37t-10 -33q-7 -12 -19.5 -15t-42.5 -3h-186 q-18 0 -24.5 0.5t-19 3.5t-17.5 11t-5 22z" />
<glyph unicode="\" horiz-adv-x="1177" d="M496 1459.5q0 1.5 0.5 4t1.5 4.5t2 5q7 29 30 46t48 17q15 0 24.5 -3.5t15 -15t7 -17.5t4.5 -25l301 -1883q1 -4 2.5 -9.5t2 -8t1 -5.5t0.5 -4.5t-0.5 -4t-1.5 -4.5t-2 -5q-7 -29 -29 -46t-47 -17q-15 0 -25 4.5t-15.5 15.5t-7.5 17.5t-5 23.5l-301 1883q-1 4 -2.5 9.5 t-2 8t-1 5.5t-0.5 4.5z" />
<glyph unicode="]" horiz-adv-x="729" d="M-8 -475q0 8 7 35.5t11 31.5q6 15 16.5 18t35.5 3h8h135l450 1798h-116q-18 0 -24.5 0.5t-19 3.5t-17.5 11t-5 22q0 11 6 37t10 33q7 12 19 15t43 3h186q18 0 24.5 -0.5t19 -3.5t17.5 -11t5 -22q0 -3 -6 -33l-484 -1931q-10 -34 -21 -40.5t-48 -6.5h-187h-4 q-20 0 -30.5 1t-20.5 10t-10 26z" />
<glyph unicode="^" horiz-adv-x="1138" d="M289 1196l661 328l498 -328l-35 -45l-495 252l-617 -252z" />
<glyph unicode="_" horiz-adv-x="1773" d="M-121 -256q6 24 27 40.5t45 16.5h1771q24 0 36.5 -16.5t6.5 -40.5t-26.5 -40.5t-44.5 -16.5h-1772q-24 0 -36.5 16.5t-6.5 40.5z" />
<glyph unicode="`" d="M657 1333q23 42 65 70.5t81 28.5q8 0 14.5 -0.5t12 -3t9.5 -4t9 -6.5t7.5 -7t7 -9.5t6 -9.5t7 -11.5t7.5 -12.5l133 -233q15 -18 6 -39q-8 -14 -39.5 -41t-52.5 -27q-11 0 -27 12l-221 183q-61 42 -25 110z" />
<glyph unicode="a" d="M197 311q0 83 23.5 169t70.5 166t111 142.5t153.5 100t189.5 37.5q123 0 199 -78q43 43 96 43q42 0 67.5 -25t25.5 -61q0 -8 -9 -43l-137 -553q-12 -50 -12 -88q0 -64 39 -64q71 0 123 222q11 38 19.5 45.5t45.5 7.5h5q19 0 27.5 -1t17 -7.5t8.5 -20.5q0 -6 -8.5 -37.5 t-28 -82t-43.5 -89.5q-72 -110 -174 -110q-65 0 -124 26.5t-87 77.5q-131 -104 -271 -104q-62 0 -117.5 17.5t-104 54t-77 102t-28.5 153.5zM416 203q0 -79 35 -112.5t81 -33.5q127 0 238 148q4 32 6 37l121 483q-17 61 -57 94t-95 33q-19 0 -39 -4.5t-47 -19.5t-51.5 -39 t-50.5 -67t-47 -99q-24 -61 -59 -203.5t-35 -216.5z" />
<glyph unicode="b" horiz-adv-x="1089" d="M229 307q0 70 19 148l211 850q-50 4 -86 4q-16 0 -24 0.5t-20 9.5t-12 27q0 61 64 61l252 12q17 1 31 1h1q14 0 23 -9q10 -9 10 -27q0 -2 -6 -32l-121 -484q31 22 85 40t116 18t117.5 -17.5t104.5 -54.5t77.5 -102.5t28.5 -153.5q0 -82 -23 -167.5t-70.5 -165.5 t-112 -142.5t-154.5 -100.5t-191 -38q-47 0 -91 9.5t-86.5 33t-73.5 59.5t-50 92.5t-19 128.5zM426 219q0 -14 1 -27.5t8 -40.5t19 -45.5t38 -33.5t61 -15q20 0 43.5 7t58 28t69.5 71t62 124q23 58 59 202t36 218q0 79 -35.5 112t-81.5 33q-57 0 -113 -32.5t-100 -84.5 q-6 -6 -10 -11t-6.5 -8.5t-4.5 -10.5t-3.5 -11.5t-5 -17t-5.5 -21.5q-6 -28 -21 -88t-24 -100q-27 -105 -36 -151t-9 -97z" />
<glyph unicode="c" horiz-adv-x="1089" d="M219 328q0 81 25 164.5t76.5 161t122.5 138.5t170 97.5t212 36.5q123 0 191.5 -54.5t68.5 -134.5q0 -67 -41 -113t-106 -46q-39 0 -64 18t-31.5 37t-6.5 39q0 5 1 12.5t6.5 26.5t15.5 35.5t31 34.5t50 28q-41 43 -117 43q-26 0 -56.5 -7.5t-68.5 -25.5t-76 -55.5 t-67 -89.5q-39 -78 -76 -224.5t-37 -211.5q0 -88 45 -134.5t131 -46.5q27 0 56.5 3.5t90 17t125.5 52t118 97.5q15 15 28 15q14 0 38 -26.5t24 -39.5q0 -22 -58 -69.5t-133 -77.5q-124 -45 -291 -45q-109 0 -189 29t-124 80t-64 109t-20 126z" />
<glyph unicode="d" d="M217 311q0 105 38 212t106 197.5t174.5 148t230.5 57.5q110 0 186 -66l109 445q-50 4 -86 4q-12 0 -17 0.5t-16.5 3.5t-16.5 11t-5 22q0 61 63 61l252 12q17 1 31 1h1q14 0 23 -9q10 -9 10 -27q0 -2 -6 -32l-286 -1143q-13 -54 -13 -88q0 -64 39 -64q71 0 123 222 q10 38 19.5 45.5t46.5 7.5q22 0 30 -0.5t17.5 -7t9.5 -21.5q0 -6 -8.5 -37.5t-28 -82t-43.5 -89.5q-72 -110 -174 -110q-65 0 -124 26.5t-87 77.5q-131 -104 -270 -104q-62 0 -117.5 17.5t-104.5 54t-77.5 102t-28.5 153.5zM436 203q0 -79 35.5 -112.5t81.5 -33.5 q127 0 238 148q4 32 6 37l121 483q-17 61 -57 94t-95 33q-25 0 -51 -9t-59.5 -31t-67 -71t-58.5 -118q-24 -61 -59 -203.5t-35 -216.5z" />
<glyph unicode="e" horiz-adv-x="1089" d="M225 342q0 157 75 290t213.5 213.5t309.5 80.5q118 0 192.5 -53t74.5 -144q0 -283 -529 -283h-82q-33 -132 -33 -200q0 -92 44.5 -140.5t130.5 -48.5q19 0 37.5 1t66 10t90 25.5t96.5 51t97 82.5q15 15 28 15q14 0 38 -26.5t24 -39.5q0 -22 -58 -69.5t-133 -77.5 q-120 -45 -289 -45q-190 0 -291.5 95t-101.5 263zM498 520q40 0 66 0.5t78.5 4.5t89 11.5t82.5 23t74 37t48 56.5t20 78q0 52 -35 86.5t-98 34.5q-59 0 -118 -25.5t-99 -76.5q-41 -46 -63 -96t-45 -134z" />
<glyph unicode="f" horiz-adv-x="819" d="M-39 -252q0 66 44 110t101 44q47 0 75 -26.5t28 -68.5q0 -33 -19.5 -70.5t-64.5 -60.5q23 -11 41 -14q6 -2 20 -2q30 0 54.5 29.5t35 59t13.5 50.5q12 46 19 76.5t15.5 76t16.5 81.5l143 780h-176h-4q-20 0 -30.5 1t-20.5 10t-10 26q0 21 5.5 34t17.5 18t21 6t27 1h189 l37 201q6 38 16 74.5t35 85t59 83.5t91.5 60t129.5 25q103 0 167.5 -45t64.5 -117q0 -67 -44 -110.5t-102 -43.5q-47 0 -74.5 26.5t-27.5 68.5t23 77t59 54q-35 16 -66 16q-22 0 -41.5 -15t-27.5 -36q-18 -30 -80 -404h213h4q20 0 30.5 -1t20.5 -10t10 -26q0 -21 -5.5 -34 t-17.5 -18t-21 -6t-27 -1h-226l-122 -663q-20 -115 -54 -218q-28 -86 -66 -151.5t-74.5 -101.5t-77 -58t-69 -28.5t-55.5 -6.5q-95 0 -159 44.5t-64 117.5z" />
<glyph unicode="g" horiz-adv-x="1089" d="M121 -270q0 66 43.5 108.5t101.5 42.5q46 0 74.5 -27.5t28.5 -66.5q0 -25 -14.5 -58t-43.5 -57q50 -12 127 -12q93 0 168 59t109 191l35 145q-102 -55 -199 -55q-146 0 -239 83.5t-93 240.5q0 80 23 163.5t70 162t111 140t153 99t190 37.5q117 0 199 -76q41 41 96 41 q42 0 67 -25t25 -61q-2 -2 -2 -12q0 -2 -1 -15t-5 -22l-221 -887q-32 -131 -167 -207t-323 -76q-66 0 -115 5t-97.5 19t-74.5 44.5t-26 75.5zM440 219q0 -22 3.5 -42.5t14.5 -46t37 -41t64 -15.5q71 0 148.5 55t89.5 111l121 489q-18 63 -59 93t-93 30q-23 0 -48.5 -8 t-57.5 -27.5t-64 -62t-55 -103.5q-29 -73 -65 -214t-36 -218z" />
<glyph unicode="h" d="M156 72q0 14 8 45l295 1188q-50 4 -86 4q-16 0 -24 0.5t-20 9.5t-12 27q0 61 64 61l252 12q17 1 31 1h1q14 0 23 -9q10 -9 10 -27q0 -2 -6 -32l-133 -531q128 105 275 105q130 0 206 -55.5t76 -176.5q0 -33 -9 -80t-26.5 -103t-30.5 -96t-32.5 -93.5t-22.5 -61.5 q-47 -125 -47 -166q0 -18 6 -27t10.5 -9.5t12.5 -0.5q113 0 188 248q6 19 16 23t42 4q22 0 30 -0.5t17.5 -7t9.5 -21.5t-11.5 -49.5t-37.5 -81t-61 -88.5t-89 -71t-114 -29q-87 0 -151 50t-64 132q0 34 24 102q43 105 87 246t44 221q0 19 -0.5 28.5t-5 29.5t-12.5 30.5 t-26 19.5t-44 9q-66 0 -125.5 -30.5t-97.5 -74t-61.5 -81.5t-30.5 -64l-127 -510q-12 -45 -39.5 -71t-47.5 -31.5t-40 -5.5q-41 0 -67.5 25t-26.5 63z" />
<glyph unicode="i" horiz-adv-x="729" d="M158 606q0 12 8.5 38.5t25 63t43.5 74.5t60 70.5t79 53t97 20.5q87 0 151 -50t64 -133q0 -37 -18 -79l-185 -488q-16 -48 -16 -82q0 -18 6 -27t10.5 -9.5t12.5 -0.5q113 0 188 248q6 19 15.5 23t41.5 4h5q19 0 27.5 -1t17 -7.5t8.5 -20.5q0 -15 -11.5 -49.5t-38 -81 t-61.5 -88.5t-89 -71t-114 -29q-87 0 -151 50t-64 132q0 35 19 80l184 487q16 48 16 82q0 14 -2.5 22t-8 11t-8.5 3.5t-9 0.5q-114 0 -189 -248q-3 -10 -6 -15.5t-11.5 -8t-14.5 -2.5h-25q-41 0 -49 7q-8 8 -8 21zM518 1202q0 67 56.5 122.5t125.5 55.5q59 0 93 -38t34 -85 q0 -67 -55.5 -122.5t-126.5 -55.5q-58 0 -92.5 35.5t-34.5 87.5z" />
<glyph unicode="j" horiz-adv-x="729" d="M-59 -266q0 58 43 102.5t102 44.5q46 0 74 -27t28 -67q0 -32 -19 -68t-50 -55q2 -2 10 -2q4 -2 21 -2q42 0 79 28.5t61.5 73t38 78t21.5 64.5l199 796q12 50 12 88q0 29 -8 44t-15.5 17.5t-19.5 2.5q-24 0 -49 -9.5t-57 -33.5t-67 -74.5t-66 -122.5q-12 -25 -20.5 -29.5 t-43.5 -4.5q-41 0 -49 7q-8 8 -8 21q0 12 15.5 46.5t47.5 81.5t74 89.5t104.5 72.5t128.5 30q98 0 169 -53.5t71 -145.5q0 -26 -8 -59l-193 -774q-31 -131 -156 -219.5t-261 -88.5q-92 0 -150.5 40t-58.5 108zM518 1202q0 67 56.5 122.5t125.5 55.5q59 0 93 -38t34 -85 q0 -67 -55.5 -122.5t-126.5 -55.5q-58 0 -92.5 35.5t-34.5 87.5z" />
<glyph unicode="k" horiz-adv-x="1089" d="M156 72q0 14 8 45l295 1188q-50 4 -86 4q-16 0 -24 0.5t-20 9.5t-12 27q0 61 64 61l252 12q17 1 31 1h1q14 0 23 -9q10 -9 10 -27q0 -2 -6 -32l-198 -791q31 21 47 33.5t47.5 42t70.5 70.5q106 113 185.5 166t161.5 53q33 0 59.5 -11t42 -28t26 -39.5t14 -43t3.5 -40.5 q0 -48 -15 -84.5t-39 -55.5t-48.5 -28.5t-47.5 -9.5q-46 0 -74 27t-28 67q0 53 38 96.5t99 50.5q-6 25 -37 25q-62 0 -133 -46.5t-172 -160.5l-22 -21q-21 -21 -57.5 -54t-67.5 -56q323 -35 323 -219q0 -31 -8 -62q-10 -41 -14 -77q-2 -10 -2 -29q0 -30 8.5 -47t16.5 -20 t20 -3q51 0 85 57.5t60 161.5q10 41 19.5 48.5t46.5 7.5q22 0 30 -0.5t17.5 -7t9.5 -21.5q0 -6 -6.5 -29.5t-19.5 -60t-36.5 -76t-52 -74t-72 -57t-91.5 -22.5q-100 0 -171 59t-71 150q0 33 6 51q6 23 6 43q0 32 -14.5 57.5t-33.5 40.5t-48.5 27t-48 16.5t-43.5 9.5 l-92 -370q-16 -40 -51 -62t-70 -22q-41 0 -67.5 25t-26.5 63z" />
<glyph unicode="l" horiz-adv-x="608" d="M186 182q0 23 9 60l264 1063q-50 4 -86 4q-16 0 -24 0.5t-20 9.5t-12 27q0 61 64 61l252 12q17 1 31 1h1q14 0 23 -9q10 -9 10 -27q0 -2 -6 -32l-286 -1143q-13 -54 -13 -88q0 -64 39 -64q71 0 123 222q10 38 19.5 45.5t46.5 7.5q22 0 30 -0.5t17.5 -7t9.5 -21.5 q0 -6 -8.5 -37.5t-28 -82t-43.5 -89.5q-72 -110 -174 -110q-95 0 -166.5 52.5t-71.5 145.5z" />
<glyph unicode="m" horiz-adv-x="1933" d="M158 606q0 6 8.5 37t28 82.5t43.5 89.5q41 55 68 76q47 35 106 35q29 0 59 -6.5t64 -21t62.5 -44t43.5 -70.5q138 142 313 142q230 0 275 -156q34 34 59 55t66.5 48t92 40t109.5 13q130 0 206.5 -55.5t76.5 -176.5q0 -33 -9 -80t-26.5 -103t-30.5 -96t-32.5 -93.5 t-22.5 -61.5q-47 -125 -47 -166q0 -18 6 -27t10.5 -9.5t12.5 -0.5q113 0 188 248q6 19 16 23t42 4q22 0 30 -0.5t17.5 -7t9.5 -21.5t-11.5 -49.5t-37.5 -81t-61 -88.5t-89 -71t-114 -29q-87 0 -151 50t-64 132q0 34 24 102q43 105 87 246t44 221q0 19 -0.5 28.5t-5 29.5 t-12.5 30.5t-26 19.5t-44 9q-53 0 -102.5 -20.5t-84.5 -50.5t-63.5 -65.5t-44 -64.5t-20.5 -49l-125 -504q-12 -47 -41 -75t-50 -33.5t-40 -5.5q-37 0 -64.5 22t-27.5 66q0 7 5.5 31.5t14 59.5t12.5 54l86 344q31 119 31 174q0 19 -0.5 28.5t-5 29.5t-12.5 30.5t-26 19.5 t-44 9q-53 0 -103 -20.5t-85 -50.5t-63 -65.5t-43.5 -64.5t-20.5 -49l-127 -508q-9 -37 -28.5 -61.5t-42 -33.5t-35.5 -12t-23 -3q-37 0 -65 22t-28 66q0 10 9 45l145 583q12 50 12 88q0 64 -39 64q-70 0 -122 -221q-10 -38 -19.5 -45.5t-46.5 -7.5q-41 0 -49 7q-8 8 -8 21z " />
<glyph unicode="n" horiz-adv-x="1331" d="M158 606q0 6 8.5 37t28 82.5t43.5 89.5q41 55 68 76q47 35 106 35q29 0 59 -6.5t64 -21t62.5 -44t43.5 -70.5q138 142 313 142q130 0 206.5 -55.5t76.5 -176.5q0 -33 -9 -80t-26.5 -103t-30.5 -96t-32.5 -93.5t-22.5 -61.5q-47 -125 -47 -166q0 -18 6 -27t10.5 -9.5 t12.5 -0.5q113 0 188 248q6 19 15.5 23t41.5 4h5q19 0 27.5 -1t17 -7.5t8.5 -20.5q0 -15 -11.5 -49.5t-38 -81t-61.5 -88.5t-89 -71t-114 -29q-87 0 -151 50t-64 132q0 31 25 102q43 105 87 246t44 221q0 19 -0.5 28.5t-5 29.5t-12.5 30.5t-26 19.5t-44 9q-53 0 -103 -20.5 t-85 -50.5t-63 -65.5t-43.5 -64.5t-20.5 -49l-127 -508q-9 -37 -28.5 -61.5t-42 -33.5t-35.5 -12t-23 -3q-37 0 -65 22t-28 66q0 10 9 45l145 583q12 50 12 88q0 64 -39 64q-70 0 -122 -221q-10 -38 -19.5 -45.5t-46.5 -7.5q-41 0 -49 7q-8 8 -8 21z" />
<glyph unicode="o" d="M219 328q0 78 24 160.5t74.5 161t121 140t172 99t218.5 37.5q184 0 287 -92t103 -252q0 -78 -24.5 -160.5t-75.5 -161t-122 -140t-172 -99t-217 -37.5q-184 0 -286.5 91.5t-102.5 252.5zM442 238q0 -52 16 -89t42.5 -56t54 -27.5t57.5 -8.5q82 0 159.5 51.5t119.5 145.5 q37 83 70.5 219t33.5 199q0 52 -16 89t-42.5 56t-54 27t-57.5 8q-82 0 -159 -51.5t-119 -145.5q-38 -83 -71.5 -218.5t-33.5 -198.5z" />
<glyph unicode="p" d="M51 -360q0 21 5.5 34t17 18t19.5 6t24 1q44 0 54.5 5t16.5 28l242 968q12 50 12 88q0 64 -39 64q-70 0 -122 -221q-10 -38 -19.5 -45.5t-46.5 -7.5q-41 0 -49 7q-8 8 -8 21q0 6 8.5 37t28 82.5t43.5 89.5q41 55 68 76q47 35 106 35q65 0 124 -27t87 -78q132 105 270 105 q62 0 117.5 -17.5t104.5 -54.5t77.5 -102.5t28.5 -153.5q0 -83 -24 -169t-71.5 -165.5t-112 -142t-153.5 -100t-188 -37.5q-112 0 -187 65l-86 -348q27 -2 88 -2q56 0 56 -37q0 -21 -6 -34t-16.5 -18t-17.5 -6t-16 -1q-36 0 -107.5 3t-107.5 3q-30 0 -92 -3t-90 -3 q-15 0 -27 10t-12 27zM520 184q17 -61 57 -94t95 -33q24 0 50.5 9t59.5 31.5t66.5 71t58.5 118.5q23 57 58.5 201.5t35.5 218.5q0 79 -35 112t-81 33q-127 0 -238 -147q-4 -32 -6 -37z" />
<glyph unicode="q" horiz-adv-x="1089" d="M217 311q0 105 38 212t106 197.5t174.5 148t230.5 57.5q123 0 199 -78q41 33 108 57q11 3 32.5 10.5t33.5 10.5q20 0 28.5 -13t8.5 -24q0 -4 -5 -29l-290 -1159q27 -2 88 -2q55 0 55 -37q0 -21 -6 -34t-16.5 -18t-17 -6t-15.5 -1q-36 0 -110 3t-111 3q-36 0 -106.5 -3 t-106.5 -3q-23 0 -32 12.5t-9 24.5q0 21 5 34t17.5 18t22 6t28.5 1h25q31 0 45 2q19 2 24 6t9 27l75 307q-31 -22 -84.5 -39.5t-115.5 -17.5t-117.5 17.5t-104.5 54t-77.5 102t-28.5 153.5zM436 203q0 -79 35.5 -112.5t81.5 -33.5q73 0 150.5 56t89.5 112l125 500 q-17 61 -57 94t-95 33q-25 0 -51 -9t-59.5 -31t-67 -71t-58.5 -118q-24 -61 -59 -203.5t-35 -216.5z" />
<glyph unicode="r" horiz-adv-x="1028" d="M158 606q0 6 8.5 37t28 82.5t43.5 89.5q41 55 68 76q47 35 106 35q73 0 131.5 -31t85.5 -80q111 111 262 111q113 0 186.5 -51t73.5 -132q0 -68 -43 -112.5t-104 -44.5q-46 0 -74.5 27.5t-28.5 66.5q0 5 1 13.5t6.5 26t15 33.5t28.5 34t45 30q-43 35 -112 35 q-49 0 -96 -24.5t-78 -59t-50.5 -66t-23.5 -51.5l-139 -557q-9 -37 -28.5 -61.5t-42 -33.5t-35.5 -12t-23 -3q-37 0 -65 22t-28 66q0 10 9 45l145 583q12 50 12 88q0 64 -39 64q-70 0 -122 -221q-10 -38 -19.5 -45.5t-46.5 -7.5q-41 0 -49 7q-8 8 -8 21z" />
<glyph unicode="s" horiz-adv-x="997" d="M174 186q0 72 44 116t104 44q35 0 67.5 -22t32.5 -72q0 -32 -13 -59t-32 -43.5t-32 -24.5t-23 -12q67 -56 190 -56q179 0 250 99q32 47 35 98q0 25 -11.5 45t-28.5 32.5t-45.5 23.5t-52 16.5t-58.5 13.5q-13 3 -19 4q-26 4 -50 10t-61 22.5t-63.5 39t-46 61.5t-19.5 88 q0 53 30.5 119.5t78.5 110.5q97 86 268 86q125 0 200.5 -48t75.5 -133q0 -68 -40.5 -104.5t-86.5 -36.5q-39 0 -64.5 23t-25.5 61q0 5 0.5 11t4.5 21.5t11.5 29t23.5 29t38 24.5q-49 49 -141 49q-136 0 -191 -80q-23 -42 -26 -80q0 -22 10 -39t23.5 -27.5t35.5 -18.5 t37.5 -11.5t38.5 -7.5q11 -2 37.5 -7.5t35 -7.5t28.5 -6.5t28 -7.5t23 -8.5t24 -11t20.5 -13t22.5 -16.5q90 -70 90 -174q0 -62 -37 -141t-110 -132q-112 -79 -299 -79q-152 0 -242 53t-90 149z" />
<glyph unicode="t" horiz-adv-x="788" d="M186 850q0 21 5 34t17 18t21.5 6t28.5 2h166l74 298q10 44 39 71t50.5 32.5t39.5 5.5q42 0 67 -25t25 -61q0 -12 -12.5 -67.5t-24.5 -92.5l-39 -161h145h19t16 -2.5t16 -6t8.5 -11t4.5 -18.5q0 -28 -11.5 -41.5t-23.5 -15.5t-35 -2h-164l-151 -604q-12 -49 -12 -88 q0 -29 8 -44t15.5 -17.5t19.5 -2.5q24 0 49 9.5t57 33.5t67 74.5t66 122.5q12 25 20.5 30t43.5 5q22 0 30 -0.5t17.5 -7t9.5 -21.5q0 -12 -15.5 -46.5t-48 -81t-74.5 -89t-104.5 -72.5t-128.5 -30q-98 0 -168.5 53t-70.5 145q0 27 8 60l143 571h-147q-18 0 -24.5 0.5 t-19 3.5t-17.5 11t-5 22z" />
<glyph unicode="u" horiz-adv-x="1271" d="M158 606q0 12 8.5 38.5t25 63t43.5 74.5t60 70.5t79 53t97 20.5q87 0 151 -50t64 -133q0 -9 -1 -17.5t-2.5 -15t-4.5 -17t-5 -16.5t-7.5 -21t-8.5 -23q-35 -91 -54.5 -147.5t-41.5 -143t-22 -143.5q0 -19 1 -32.5t6.5 -36t16 -37t31.5 -25.5t51 -11q72 0 141 60 q40 40 50 55.5t18 46.5l141 576q8 36 26 61t39.5 35.5t37 14t28.5 3.5q37 0 65 -22t28 -66q0 -10 -9 -45l-141 -567q-12 -50 -12 -88q0 -64 39 -64q71 0 123 222q11 38 19.5 45.5t45.5 7.5q22 0 30 -0.5t17.5 -7t9.5 -21.5q0 -7 -8 -38t-27.5 -81.5t-43.5 -89.5 q-72 -110 -175 -110q-65 0 -123.5 26.5t-86.5 77.5q-111 -104 -244 -104q-137 0 -220 63t-83 195q0 50 17 121t35.5 124t57.5 158q9 23 13 35q36 80 36 135q0 14 -2.5 22t-8 11t-8.5 3.5t-9 0.5q-114 0 -189 -248q-3 -10 -6 -15.5t-11.5 -8t-14.5 -2.5h-25q-41 0 -49 7 q-8 8 -8 21z" />
<glyph unicode="v" horiz-adv-x="1089" d="M158 606q0 12 8.5 38.5t25 63t43.5 74.5t60 70.5t79 53t97 20.5q87 0 151 -50t64 -133q0 -44 -29 -108q-3 -8 -21.5 -59t-23.5 -67t-20.5 -60.5t-21 -67.5t-14.5 -58t-12 -61.5t-3 -50.5q0 -154 131 -154q64 0 120 52t90.5 123t59.5 148t35 125.5t10 55.5q0 73 -80 133 q-49 34 -49 86q0 55 47 101.5t101 46.5q18 0 37.5 -7.5t42 -25t37 -56t14.5 -91.5q0 -26 -7 -76t-24.5 -122t-42.5 -147.5t-64.5 -151t-86.5 -134.5t-113.5 -96t-141.5 -37q-36 0 -68.5 4t-71.5 13.5t-70.5 29t-58 47.5t-41.5 72t-15 100q0 73 27.5 166t93.5 264 q36 80 36 135q0 14 -2.5 22t-8 11t-8.5 3.5t-9 0.5q-114 0 -189 -248q-3 -10 -6 -15.5t-11.5 -8t-14.5 -2.5h-25q-41 0 -49 7q-8 8 -8 21z" />
<glyph unicode="w" horiz-adv-x="1572" d="M158 606q0 12 8.5 38.5t25 63t43.5 74.5t60 70.5t79 53t97 20.5q87 0 151 -50t64 -133q0 -36 -24 -96q-82 -223 -100 -298q-19 -75 -19 -132q0 -160 145 -160q96 0 160 144q-4 12 -4 49q0 54 49 250l70 278q3 18 10 37.5t21.5 42t41 37t60.5 14.5q37 0 64.5 -22t27.5 -66 q0 -20 -31 -137q-29 -111 -41 -159t-30.5 -125t-25.5 -120t-7 -69q0 -154 131 -154q117 0 190 170q33 74 64.5 190t31.5 144q0 73 -79 133q-15 10 -24 18.5t-17.5 26.5t-8.5 41q0 55 47 101.5t101 46.5q18 0 37.5 -7.5t42 -25t37 -56t14.5 -91.5q0 -75 -40.5 -232 t-86.5 -266q-117 -266 -322 -266q-193 0 -278 104q-86 -104 -217 -104q-47 0 -90.5 6t-91 24t-82.5 46.5t-57.5 78.5t-22.5 115q0 72 27.5 162t93.5 264q36 80 36 135q0 14 -2.5 22t-8 11t-8.5 3.5t-9 0.5q-114 0 -189 -248q-3 -10 -6 -15.5t-11.5 -8t-14.5 -2.5h-25 q-41 0 -49 7q-8 8 -8 21z" />
<glyph unicode="x" horiz-adv-x="1148" d="M139 164q0 70 43 115t105 45q46 0 74 -27.5t28 -67.5q0 -7 -0.5 -14.5t-6 -26.5t-15.5 -35t-31.5 -34t-50.5 -29q31 -33 82 -33q108 0 163 205l66 266q4 18 17.5 75.5t20.5 93.5t7 55q0 15 -2 26.5t-10.5 31t-32 31t-59.5 11.5q-71 0 -148 -62.5t-115 -183.5 q-7 -22 -15.5 -25t-43.5 -3q-41 0 -49 7q-8 8 -8 21q0 21 15.5 58.5t48.5 83t77 85t110 66.5t138 27q180 0 258 -109q93 109 209 109q94 0 158.5 -51.5t64.5 -129.5q0 -70 -44 -114.5t-103 -44.5q-46 0 -74.5 27.5t-28.5 66.5q0 6 0.5 14t6.5 27t16 35t31.5 34t50.5 29 q-33 33 -84 33q-56 0 -100 -58t-58 -124l-111 -455q-6 -25 -6 -57q0 -101 105 -101q74 0 150.5 63t113.5 183q4 12 7 17.5t12 8.5t14 3h26h5q19 0 27.5 -1t17 -7.5t8.5 -20.5q0 -21 -16 -58.5t-49.5 -82.5t-78 -84.5t-110.5 -66.5t-138 -27q-185 0 -256 108 q-91 -108 -209 -108q-95 0 -159 50.5t-64 129.5z" />
<glyph unicode="y" horiz-adv-x="1150" d="M158 606q0 12 8.5 38.5t25 63t43.5 74.5t60 70.5t79 53t97 20.5q87 0 151 -50t64 -133q0 -9 -1 -17.5t-2.5 -15t-4.5 -17t-5 -16.5t-7.5 -21t-8.5 -23q-35 -91 -54.5 -147.5t-41.5 -143t-22 -143.5q0 -19 1 -32.5t6.5 -36t16 -37t31.5 -25.5t51 -11q73 0 129 49 q29 24 46.5 46t21.5 32.5t8 28.5l147 586q8 31 23 53.5t30 32.5t33.5 16t26.5 7t16 1q37 0 65 -22t28 -66q0 -10 -9 -45l-196 -790q-25 -99 -101.5 -190.5t-193 -150.5t-240.5 -59q-116 0 -188 48.5t-72 129.5q0 66 43 111t105 45q38 0 69 -21.5t31 -72.5q0 -52 -29.5 -86 t-62.5 -49q41 -31 106 -31q111 0 202.5 113t121.5 260q-66 -49 -172 -49q-137 0 -220 63t-83 195q0 50 17 121t35.5 124t57.5 158q9 23 13 35q36 80 36 135q0 14 -2.5 22t-8 11t-8.5 3.5t-9 0.5q-114 0 -189 -248q-3 -10 -6 -15.5t-11.5 -8t-14.5 -2.5h-25q-41 0 -49 7 q-8 8 -8 21z" />
<glyph unicode="z" horiz-adv-x="1005" d="M131 12q0 26 71.5 112.5t153.5 168.5q50 50 240 203q201 172 240 217h-43q-15 0 -71 -2t-71 -2h-145q-49 -4 -67.5 -11.5t-26.5 -21.5q-10 -18 -18 -21.5t-40 -3.5q-16 0 -21 0.5t-16.5 2.5t-15.5 8.5t-4 17.5q0 25 21 64.5t57 81t93.5 71t119.5 29.5q71 0 162 -68 q31 -25 45 -36t41 -23.5t51 -12.5q12 0 27.5 14t26.5 29.5t28 41t22 32.5q10 17 18.5 20t39.5 3q23 0 31 -0.5t17 -7t9 -21.5q0 -25 -66.5 -107t-158.5 -174q-45 -45 -240 -202q-201 -172 -240 -217h99l139 4q61 0 96.5 1.5t78 7.5t67.5 18t47 34t35 55q7 16 17.5 19.5 t39.5 3.5q20 0 29.5 -1t18.5 -8t9 -22q0 -23 -16 -61.5t-49 -84t-75.5 -85.5t-103.5 -67t-126 -27q-51 0 -88.5 18.5t-86.5 58.5q-59 45 -86 54q-21 8 -43 8q-78 0 -159 -119q-11 -14 -18.5 -17t-37.5 -3h-8q-18 0 -26.5 1t-15.5 7.5t-7 19.5z" />
<glyph unicode="{" horiz-adv-x="1177" d="M289 512q4 17 11.5 25t15 9.5t26.5 2.5q132 9 221 76q59 43 78 81.5t47 147.5l107 422q29 118 177 189t365 71q46 0 53 -7t1 -30q-4 -17 -12 -25t-15 -9.5t-27 -2.5q-111 -6 -202 -57q-34 -21 -57.5 -43t-36 -45.5t-17.5 -38t-10 -37.5l-109 -430q-7 -28 -11 -43 t-16 -44.5t-25.5 -48.5t-38 -46t-54 -45.5t-74 -38t-98.5 -33.5q115 -34 156.5 -98.5t27.5 -139.5l-123 -485q-12 -52 -10 -72q5 -63 60 -105.5t173 -49.5q34 -3 25 -37q-2 -12 -6.5 -19t-7.5 -11t-15.5 -5.5t-17 -1.5h-25.5q-52 0 -102.5 4.5t-118 21.5t-112.5 46t-69 84 t-5 129l108 430q5 25 10 44.5t7 26.5t3 13t1 12q0 66 -55.5 117.5t-178.5 58.5q-33 3 -24 37z" />
<glyph unicode="|" horiz-adv-x="653" d="M153.5 -477q-1.5 15 0.5 29t6 26l467 1868q17 90 86 90q21 0 32.5 -9t12 -27t-0.5 -27.5t-5 -26.5l-467 -1868q0 -1 -5 -16.5t-7 -21t-9 -18.5t-14.5 -18.5t-21 -10.5t-29.5 -5q-21 0 -32.5 10t-13 25z" />
<glyph unicode="}" horiz-adv-x="1177" d="M41 -475q4 17 12 25t15.5 9.5t27.5 2.5q111 6 209 61q60 42 84 79t33 81l106 430q6 26 11 42.5t17 45t26 48.5t39 46t55 45.5t74.5 38.5t97.5 33q-114 34 -157.5 100t-26.5 138l120 485q13 57 13 72q-5 65 -62.5 107t-173.5 48q-35 3 -26 37q5 19 15.5 27t20 9t37.5 1 q27 0 53.5 -1t59 -4.5t61 -8.5t60.5 -13.5t57 -20.5t50 -28t39.5 -36.5t26.5 -46t10.5 -57t-9.5 -69.5l-109 -430q-20 -87 -18 -100q4 -82 65.5 -124.5t163.5 -47.5q36 -3 27 -37q-5 -17 -13 -25t-15.5 -9.5t-26.5 -2.5q-127 -7 -218 -74q-62 -46 -81 -83.5t-46 -147.5 l-106 -422q-30 -116 -173.5 -188t-369.5 -72h-6q-24 0 -33 1.5t-14.5 9.5t-1.5 26z" />
<glyph unicode="~" horiz-adv-x="1138" d="M106 430l134 90q15 11 33.5 21.5t31.5 17t36.5 17.5t33.5 16q82 37 160 37q38 0 74.5 -11.5t57.5 -23.5t54 -35q45 -29 63 -40t55.5 -23.5t75.5 -12.5q137 0 351 146l18 -35l-133 -90q-14 -11 -32.5 -21.5t-30.5 -17t-36.5 -17.5t-33.5 -16q-82 -37 -160 -37 q-55 0 -97 18.5t-89 51.5q-44 29 -63 40t-56.5 23.5t-75.5 12.5q-136 0 -350 -146z" />
<glyph unicode="&#xa0;" />
<glyph unicode="&#xa1;" horiz-adv-x="790" d="M168 -317q0 14 14 57l289 799q7 26 16 31t45 5h16.5t14 -1t11 -3.5t8.5 -6.5t5.5 -10t2 -15t-1.5 -21l-111 -790q-6 -41 -25 -72.5t-40.5 -47.5t-47 -25.5t-41 -12t-26.5 -2.5q-62 0 -95.5 35.5t-33.5 79.5zM461 846q0 71 56.5 124.5t123.5 53.5q55 0 91 -34t36 -89 q0 -72 -57 -125t-123 -53q-58 0 -92.5 35t-34.5 88z" />
<glyph unicode="&#xa2;" horiz-adv-x="1089" d="M219 328q0 77 23.5 157t71 156t113.5 136.5t158 100t197 46.5l21 84q4 22 22 35.5t39 13.5t31 -13t6 -36l-22 -86q99 -12 152.5 -63t53.5 -122q0 -67 -41 -113t-106 -46q-39 0 -64 18t-31.5 37t-6.5 39q0 5 1 12.5t6.5 26.5t15.5 35.5t31 34.5t50 28q-30 30 -80 41 l-196 -791q34 3 71 11t85 25.5t97.5 51.5t90.5 80q15 15 28 15q14 0 38 -26.5t24 -39.5q0 -22 -58 -69.5t-133 -77.5q-110 -40 -262 -45l-20 -82q-6 -20 -24 -34.5t-38 -14.5q-23 0 -33 14t-4 35l21 86q-89 8 -154.5 40.5t-102 81t-54 103t-17.5 115.5zM442 238 q0 -151 123 -175l197 781q-135 -33 -207 -170q-39 -78 -76 -224.5t-37 -211.5z" />
<glyph unicode="&#xa3;" horiz-adv-x="1779" d="M207 82q0 74 84.5 138.5t222.5 64.5q21 0 33 -2q54 -5 76 -9l100 390h-94q-43 0 -52 8q-8 6 -8 20q0 6 6 26t11 27q6 10 16 12.5t35 2.5h108l80 319q17 69 57.5 133.5t101 117.5t147.5 84.5t186 31.5q72 0 129.5 -25.5t92 -67.5t52 -92.5t17.5 -105.5q0 -96 -39 -152.5 t-115 -56.5q-46 0 -74 27t-28 67q0 46 33.5 92.5t107.5 53.5q-6 85 -51.5 135.5t-124.5 50.5q-54 0 -99 -22.5t-72 -53t-49 -72.5t-30.5 -69t-15.5 -55q-3 -12 -4.5 -16.5t-2.5 -9.5t-2.5 -12t-6.5 -28t-12.5 -51t-22.5 -88.5t-35 -134.5h155q22 0 31.5 -1t18 -8t8.5 -22 q0 -5 -5.5 -25.5t-9.5 -27.5q-1 -2 -2.5 -4t-3.5 -3t-3.5 -2t-4.5 -1.5t-5 -1t-6.5 -0.5h-7.5h-9.5h-10.5h-168l-84 -330q-6 -43 -53 -119q62 -28 101.5 -44t104.5 -33t119 -17q10 0 22 1t42 5t57 15.5t57.5 29t55.5 49t39 72.5q1 4 3.5 7.5t4 5.5t5 3.5t5.5 2t8 1t8.5 0.5 h10.5h12q42 0 50 -7t8 -21q0 -26 -18 -63t-56.5 -78.5t-90 -77t-127 -59t-159.5 -23.5q-56 0 -111 12t-97 27.5t-167 64.5q-130 -104 -319 -104q-87 0 -126.5 27.5t-39.5 70.5zM340 84q0 -27 39 -27q15 0 34.5 2.5t61 22t72.5 53.5q-11 3 -18.5 5t-15 3.5t-11.5 2t-12 1 t-10.5 0.5h-13.5h-15q-47 0 -79 -18.5t-32 -44.5z" />
<glyph unicode="&#xa4;" horiz-adv-x="1814" d="M397 2q-49 32 31 96l147 117q-67 127 -26 297q47 170 174 297l-92 125q-7 7 -12 18t-1.5 29t23.5 33q20 16 47 20.5t55 -10.5q14 -14 23 -29l72 -96q152 98 319 98q165 0 270 -100l123 98q1 1 10 7t13 9t14 9t16.5 8t17 5t18.5 2.5t17.5 -3t18.5 -8.5q17 -12 19 -26.5 t-8.5 -28.5t-20 -22.5t-20.5 -16.5l-152 -121q71 -136 27 -297q-39 -163 -172 -293l96 -127q1 -1 4.5 -7.5t5.5 -10.5t4 -12t0.5 -15t-7.5 -16t-17 -17q-23 -18 -54 -21t-51 11q-4 1 -16 21l-78 102q-156 -100 -322 -100q-165 0 -270 100l-121 -96q-16 -13 -26 -19.5 t-28.5 -15.5t-36 -7.5t-34.5 13.5zM672 512q-37 -151 42 -256.5t230 -105.5q150 0 283 106t170 256q37 151 -42 256.5t-229 105.5t-283.5 -106t-170.5 -256z" />
<glyph unicode="&#xa5;" horiz-adv-x="1773" d="M385 350q6 24 27 41t45 17h399l39 153l-21 55h-366q-24 0 -36.5 17t-6.5 41q6 23 27.5 40t44.5 17h297l-201 545q-7 19 -12.5 22.5t-28.5 8.5q-18 2 -68 2h-24q-18 0 -24.5 0.5t-19 3.5t-17.5 11t-5 22q0 21 6 34t17 18t18 6t17 1q46 0 140 -3t142 -3q52 0 156 3t153 3 q45 0 45 -37q0 -21 -5.5 -34t-16.5 -18t-19 -6t-22 -1q-51 0 -125 -9l207 -569h14l484 561q-40 17 -103 17h-12t-13 2t-14.5 5.5t-9 11t-4.5 18.5q0 21 6 34t16.5 18t17.5 6t17 1q38 0 117 -3t119 -3q33 0 99 3t97 3q19 0 29 -11.5t10 -25.5q0 -21 -5.5 -34t-16.5 -18 t-18.5 -6t-20.5 -1q-54 0 -91 -6t-62.5 -21t-35.5 -24t-30 -31l-428 -496h290q24 0 36.5 -16.5t6.5 -40.5q-6 -25 -26 -41.5t-45 -16.5h-363l-47 -55l-39 -153h398q25 0 37 -16.5t6 -41.5q-6 -24 -27 -40.5t-45 -16.5h-397l-47 -193q50 -4 100 -4h45h4q20 0 30.5 -1 t20.5 -10t10 -26q0 -21 -5.5 -34t-16 -18t-18 -6t-19.5 -1q-50 0 -153 3t-156 3q-50 0 -152 -3t-151 -3q-45 0 -45 37q0 21 5.5 34t17.5 18t21 6t27 1h45q59 0 82 2q30 5 36.5 9.5t12.5 27.5l39 158h-399q-23 0 -36 17t-7 40z" />
<glyph unicode="&#xa6;" horiz-adv-x="653" d="M153.5 -477q-1.5 15 0.5 29t6 26l186 748q4 22 26 35.5t48 13.5t40.5 -13t10.5 -36l-186 -748q0 -1 -5 -16.5t-7 -21t-9 -18.5t-14.5 -18.5t-21 -10.5t-29.5 -5q-21 0 -32.5 10t-13 25zM438 698l189 748q17 90 86 90q21 0 32.5 -9t12 -27t-0.5 -27.5t-5 -26.5l-189 -748 q-4 -22 -26 -35.5t-48 -13.5t-40.5 13t-10.5 36z" />
<glyph unicode="&#xa7;" horiz-adv-x="1402" d="M256 614q24 94 98 166.5t176 108.5q-41 90 -14 198q39 161 203 268t350 107q111 0 195 -45.5t122 -129.5t11 -187q-12 -49 -55 -84t-93 -35q-49 0 -75.5 34.5t-14.5 84.5q10 38 40 69t67 43q-30 43 -94 67t-144 24q-108 0 -201.5 -61t-117.5 -155q-10 -40 1.5 -71.5 t44 -53.5t64 -36t78.5 -29l233 -76q150 -49 230 -157.5t45 -253.5q-24 -95 -98.5 -167.5t-176.5 -109.5q41 -90 15 -196q-39 -161 -203 -268t-350 -107q-111 0 -195 45.5t-122 129.5t-11 187q12 49 55 84t93 35q49 0 75.5 -34.5t14.5 -84.5q-10 -38 -40 -69t-67 -43 q30 -43 94 -67t144 -24q106 0 200.5 61t118.5 155q10 40 -1.5 71.5t-44 53.5t-64 36t-78.5 29l-234 76q-150 47 -229.5 156t-44.5 255zM469 614q-35 -134 174 -202l236 -76q114 -39 184 -107q46 24 80.5 73.5t48.5 107.5q35 134 -174 202l-236 76q-104 33 -184 107 q-46 -24 -80.5 -73.5t-48.5 -107.5z" />
<glyph unicode="&#xa8;" d="M522 1206q0 61 51.5 110.5t114.5 49.5q53 0 83 -34t30 -77q0 -62 -49 -110.5t-113 -48.5q-52 0 -83.5 32t-33.5 78zM1024 1206q0 61 51.5 110.5t114.5 49.5q53 0 83 -34t30 -77q0 -62 -49 -110.5t-113 -48.5q-52 0 -83.5 32t-33.5 78z" />
<glyph unicode="&#xa9;" horiz-adv-x="1404" d="M0 702q0 190 94 352t256 256.5t352 94.5t352 -94.5t256.5 -256.5t94.5 -352t-94.5 -352t-256.5 -256t-352 -94q-114 0 -221 35.5t-193.5 100.5t-151.5 151.5t-100.5 193.5t-35.5 221zM123 702q0 -117 46 -224.5t123.5 -185t185 -123.5t224.5 -46q157 0 290.5 77.5 t211.5 211t78 290.5t-78 290.5t-211.5 211.5t-290.5 78t-290.5 -78t-211 -211.5t-77.5 -290.5zM344 608q0 78 31 155.5t86.5 141.5t142.5 104t189 40q100 0 159 -66l84 66q25 0 25 -15v-4q0 -1 -0.5 -2.5t-1.5 -5t-2 -6.5l-53 -215q-5 -14 -9 -16.5t-22 -2.5q-29 0 -29 15 q0 2 0.5 6t1 12.5t0.5 22.5q0 72 -35.5 119t-103.5 47q-57 0 -117 -25t-106 -80q-56 -66 -82.5 -171.5t-26.5 -160.5q0 -80 43 -121q50 -45 133 -45q71 0 142.5 49t105.5 152q3 8 27 8h5q19 -3 21 -12q0 -8 -8 -31t-33 -62t-61 -67q-106 -82 -221 -82q-56 0 -104.5 13.5 t-90 42t-66 79t-24.5 117.5z" />
<glyph unicode="&#xaa;" horiz-adv-x="1114" d="M322 684q9 35 57 35h715q21 0 33 -9t8 -26q-5 -14 -21.5 -23.5t-36.5 -9.5h-715q-20 0 -32 10t-8 23zM369 1010q-4 73 25 148.5t83.5 138.5t142 103t189.5 40q105 0 170 -54q37 29 80 29q35 0 56.5 -17t23.5 -42q0 -8 -6 -31l-97 -387q-8 -31 -6 -61q3 -46 35 -46 q25 0 47 30.5t32 62t17 63.5q8 27 14.5 32t36.5 5h9h8.5h7.5t7 -0.5t5.5 -1.5t5.5 -2.5t4 -3.5t2.5 -5t0.5 -7q0 -5 -5.5 -26t-20.5 -57.5t-34 -62.5q-16 -21 -29.5 -35t-44 -28.5t-67.5 -14.5q-55 0 -104.5 19t-77.5 55q-107 -74 -224 -74q-52 0 -99 12.5t-89 38.5t-68 72 t-30 107zM557 934q4 -56 34 -79.5t68 -23.5q103 0 195 105q1 5 2 12.5t2 12.5l86 339q-36 89 -133 89q-20 0 -41.5 -6.5t-49.5 -22t-54 -49.5t-43 -82q-21 -56 -45.5 -150t-20.5 -145z" />
<glyph unicode="&#xab;" horiz-adv-x="1331" d="M418 483q0 16 10 23q235 181 397 446q6 15 25 15h16q11 0 20 -8.5t9 -20.5q0 -6 -4 -10q-103 -241 -254 -451q47 -220 29 -450q0 -27 -29 -27h-16q-27 0 -27 27q-27 249 -170 440q-6 6 -6 16zM786 483q0 16 11 23q235 181 397 446q6 15 25 15h16q11 0 20 -8.5t9 -20.5 q0 -6 -4 -10q-103 -241 -254 -451q46 -216 28 -450q0 -27 -28 -27h-17q-26 0 -26 27q-27 249 -170 440q-7 7 -7 16z" />
<glyph unicode="&#xac;" horiz-adv-x="1814" d="M369 743q6 26 28.5 44t48.5 18h1326q26 0 39.5 -18t7.5 -44l-117 -460q-6 -26 -28.5 -44t-47.5 -18q-26 0 -39.5 18t-7.5 44l100 399h-1263q-26 0 -39.5 17.5t-7.5 43.5z" />
<glyph unicode="&#xad;" horiz-adv-x="847" d="M188 397q0 2 11.5 48.5t11.5 54.5q8 35 18.5 43t53.5 8h444q18 0 24.5 -0.5t19 -3.5t17.5 -11t5 -22q0 -2 -5 -20t-11 -42t-9 -38q-8 -37 -20 -46.5t-56 -9.5h-436q-16 0 -24.5 0.5t-20.5 4t-17.5 12t-5.5 22.5z" />
<glyph unicode="&#xae;" horiz-adv-x="1404" d="M0 702q0 190 94 352t256 256.5t352 94.5t352 -94.5t256.5 -256.5t94.5 -352t-94.5 -352t-256.5 -256t-352 -94q-114 0 -221 35.5t-193.5 100.5t-151.5 151.5t-100.5 193.5t-35.5 221zM123 702q0 -117 46 -224.5t123.5 -185t185 -123.5t224.5 -46q157 0 290.5 77.5 t211.5 211t78 290.5t-78 290.5t-211.5 211.5t-290.5 78t-290.5 -78t-211 -211.5t-77.5 -290.5zM365 399q0 13 5.5 19t10.5 7t16 1h23q4 0 18 1t21 1q14 2 16 8q1 1 2 4l2 4l137 549q-4 0 -22 1t-25 1h-20q-31 0 -31 17q0 5 0.5 9t2 7l2.5 5t4 3.5t4.5 2t5.5 1t5 0.5h5.5h5.5 h315q42 0 79.5 -7t72.5 -22.5t55.5 -45.5t20.5 -70q0 -65 -53.5 -114.5t-141.5 -73.5q78 -34 78 -103q0 -10 -6 -49q-12 -94 -12 -102q0 -16 1.5 -25.5t10 -19t24.5 -9.5q47 0 68 76q4 13 9.5 16t19.5 3q26 0 26 -17q0 -7 -7 -23.5t-20.5 -37.5t-40.5 -36t-61 -15 q-21 0 -42 2.5t-54 12t-53.5 33.5t-20.5 60q0 19 15 74q14 44 14 71q0 76 -80 76h-102l-66 -266q2 0 22 -1t25 -1h21q30 0 30 -16q0 -14 -5.5 -21t-9.5 -7.5t-11 -0.5q-24 0 -73 2t-73 2t-72 -2t-71 -2q-20 0 -20 18zM676 727h96q85 0 137 41q25 21 39.5 73.5t14.5 78.5 q0 18 -5.5 31.5t-19 21.5t-24.5 13t-33.5 6.5t-34.5 2t-39 0.5h-43h-8t-5.5 -0.5t-4 -1t-2.5 -2t-1.5 -3l-1.5 -4.5t-2 -5z" />
<glyph unicode="&#xaf;" d="M520 1217q0 24 5 38t17.5 19.5t21 6.5t28.5 1h649q18 0 24.5 -0.5t19 -3.5t17.5 -11t5 -22q0 -24 -5 -38t-17.5 -19.5t-21 -6.5t-28.5 -1h-649q-18 0 -24.5 0.5t-19 3.5t-17.5 11t-5 22z" />
<glyph unicode="&#xb0;" horiz-adv-x="907" d="M428 1104q29 124 141 212.5t236 88.5q126 0 191 -87.5t36 -213.5q-34 -125 -143.5 -213t-233.5 -88q-126 0 -193.5 88.5t-33.5 212.5zM551 1104q-19 -74 20.5 -126t114.5 -52q74 0 138.5 52t84.5 126q19 73 -21 125.5t-114 52.5q-73 0 -139.5 -52.5t-83.5 -125.5z" />
<glyph unicode="&#xb1;" horiz-adv-x="1814" d="M201 63q0 62 88 62h585l132 522h-555q-23 0 -38.5 2t-33 17.5t-17.5 44.5q0 61 89 61h585l148 584q0 1 2 7t3 8.5t3.5 9t5 9.5t6 8.5t8 8.5t10 6t12.5 4.5t15 1.5q23 0 42.5 -16.5t19.5 -46.5q0 -10 -8 -41l-138 -543h555q88 0 88 -63q0 -62 -88 -62h-585l-131 -522h555 q88 0 88 -64q0 -61 -88 -61h-1270q-17 0 -27.5 1t-27 6.5t-25 19.5t-8.5 36z" />
<glyph unicode="&#xb2;" horiz-adv-x="915" d="M291 625q0 9 6.5 29.5t27 56.5t51.5 73t88 79.5t128 74.5q50 24 75.5 36.5t70.5 44t75 66.5q26 34 41.5 87t17.5 78t2 40q-4 56 -41.5 81.5t-87.5 25.5q-80 0 -149 -48t-102.5 -108.5t-30.5 -107.5q0 -16 6 -24.5t10.5 -9.5t12.5 -1q57 0 98 52.5t41 88.5q0 19 -19 41 q-8 8 -8 12q0 10 10 17q11 8 21 8q17 0 32 -24.5t17 -49.5q0 -32 -21.5 -74.5t-69 -79t-106.5 -36.5q-46 0 -73.5 25t-32.5 67q-2 37 24 86.5t71.5 96.5t119 79.5t154.5 32.5q122 0 201.5 -52t86.5 -151q4 -104 -73.5 -174t-300.5 -170q-135 -50 -213 -139q75 0 170 -9 q4 0 66 -5t89 -5q68 0 112.5 28.5t59.5 70.5q4 13 10 15.5t33 2.5q15 0 21.5 -0.5t13 -5t6.5 -12.5q0 -16 -16.5 -50.5t-46.5 -75.5t-85 -71.5t-120 -30.5q-31 0 -64 9.5t-49 17t-53 26.5q-35 18 -51 25.5t-44 16t-52 8.5q-27 0 -45 -18.5t-31 -65.5q-4 -13 -11.5 -16 t-31.5 -3q-14 0 -21 1t-13 5t-7 13z" />
<glyph unicode="&#xb3;" horiz-adv-x="849" d="M309 770q-2 35 9.5 59t31 34.5t34.5 14t28 3.5q34 0 53.5 -17t21.5 -39q2 -26 -19.5 -53.5t-70.5 -32.5q16 -45 58 -66.5t96 -21.5q65 0 114 24.5t70 63.5q22 41 36.5 104.5t14.5 92.5q0 74 -106 74h-47q-13 0 -19 0.5t-14 2t-11 5.5t-3 10q0 8 2 14q3 14 8 19l1 1 q14 5 36 5h41q34 0 56.5 2t59.5 18.5t60 47.5q24 30 38.5 88t14.5 92q-7 82 -115 82q-104 0 -187.5 -59t-78.5 -126q4 -34 31 -34q29 0 54 19t24 46q0 14 -17 35q-10 3 -10 14q0 10 10 17q11 8 21 8q17 0 33 -25.5t16 -46.5q2 -43 -38 -76.5t-95 -33.5q-45 0 -76 23t-35 63 q-5 78 98.5 148.5t254.5 70.5q114 0 184 -42t74 -122q5 -67 -48 -139.5t-165 -106.5q109 -43 112 -149q5 -114 -104 -194.5t-291 -80.5q-109 0 -175 45.5t-71 118.5z" />
<glyph unicode="&#xb4;" d="M737 1096q0 21 25 39l250 233q27 26 38 35.5t31.5 19t42.5 9.5q39 0 68 -28.5t29 -70.5q0 -69 -80 -110l-314 -183q-20 -12 -32 -12q-21 0 -39.5 27.5t-18.5 40.5z" />
<glyph unicode="&#xb5;" d="M49 -342q0 16 8 37l281 1124q15 60 54 86.5t77 26.5q41 0 66.5 -24.5t25.5 -61.5q0 -7 -5.5 -30t-13.5 -56t-12 -49l-86 -344q-24 -84 -24 -160q0 -20 1 -33.5t8 -39t19.5 -41.5t39.5 -29t65 -13q41 0 80.5 16.5t67 39.5t48.5 47.5t31.5 41t10.5 19.5l131 524 q17 82 32 109q14 25 45.5 43t65.5 18q39 0 65.5 -22t26.5 -66q0 -6 -16 -78l-76 -307l-49 -194q-23 -101 -23 -129q0 -22 3.5 -36t11 -19t12 -6t12.5 -1q24 0 46.5 24.5t37 61.5t23.5 68t14 57q3 11 5.5 21t4 15t2.5 10t2 7t1.5 3.5t2.5 3.5q13 10 52 10q22 0 30 -0.5 t17.5 -7t9.5 -21.5q0 -17 -25 -90t-57 -125q-73 -111 -174 -111q-18 0 -41 4t-57.5 14.5t-66.5 36t-50 62.5q-68 -62 -131.5 -89.5t-138.5 -27.5q-69 0 -131 15q-8 3 -26.5 8t-27.5 8l-73 -297q-8 -33 -15.5 -53.5t-22.5 -46.5t-41 -39.5t-61 -13.5q-39 0 -65.5 22t-26.5 66 q-3 3 0 12z" />
<glyph unicode="&#xb6;" horiz-adv-x="1439" d="M365 936q35 138 145.5 250.5t260 173.5t304.5 61h561h13.5t14.5 -1t15 -2.5t13.5 -4.5t11 -7.5t8 -11t3.5 -15.5t-3 -21q-17 -62 -108 -62h-105l-399 -1603q0 -1 -5 -16.5t-7 -21t-9 -18.5t-14.5 -18.5t-21 -10.5t-29.5 -5q-21 0 -32.5 10t-13 25t0.5 29t6 26l399 1603 h-164l-399 -1603q0 -1 -5 -16.5t-7 -21t-9 -18.5t-14.5 -18.5t-21 -10.5t-29.5 -5q-21 0 -32.5 10t-13 25t0.5 29t6 26l188 758q-278 17 -418 149.5t-91 335.5z" />
<glyph unicode="&#xb7;" horiz-adv-x="1814" d="M930 674q0 75 57.5 127.5t124.5 52.5q56 0 90.5 -33.5t34.5 -87.5q0 -72 -57 -126t-127 -54q-49 0 -86 31t-37 90z" />
<glyph unicode="&#xb8;" horiz-adv-x="1089" d="M186 -352q6 23 27.5 40t44.5 17q65 0 102 0.5t90.5 4t81 12t31.5 22.5q2 13 -12.5 21t-47.5 11.5t-57.5 4t-70.5 0.5l57 229h230l-29 -114q87 0 138.5 -41.5t37.5 -110.5q-7 -28 -25 -51t-50 -39t-61 -27.5t-80 -18t-84 -10.5t-95.5 -5.5t-91 -2t-93.5 -0.5 q-23 0 -35.5 17t-7.5 41z" />
<glyph unicode="&#xb9;" horiz-adv-x="876" d="M338 649q-1 14 2.5 22t13 11t15 3.5t20.5 0.5h45q43 0 66 2q22 1 28 5t11 18l137 549q-88 -35 -172 -35q-35 0 -35 22q0 7 1 12.5t3.5 9t5 5.5t7 3.5t7 2.5t6.5 1.5t5 0.5q88 5 165 36t152 109q17 13 29 13q18 0 24.5 -7.5t6.5 -15.5v-4q0 -1 -1 -5t-1 -5l-179 -713 q26 -4 86 -4h50q13 0 18 -0.5t13.5 -2t12 -6.5t3.5 -13q1 -16 -7 -24.5t-15 -9.5t-19 -1l-240 2l-229 -2q-14 0 -22.5 4.5t-9.5 7t-3 8.5z" />
<glyph unicode="&#xba;" horiz-adv-x="1015" d="M322 684q9 35 57 35h618q21 0 32 -9t7 -26q-5 -14 -21 -23.5t-36 -9.5h-617q-20 0 -32 10t-8 23zM371 1022q-3 55 14.5 112.5t57.5 112.5t97 98t140.5 69t181.5 26q153 0 243.5 -64.5t96.5 -175.5q2 -56 -16 -113.5t-57.5 -113t-96.5 -98.5t-141 -69t-182 -26 q-152 0 -242 65.5t-96 176.5zM561 958q2 -37 17 -63.5t38.5 -39.5t46.5 -18.5t48 -5.5q69 0 131 36.5t96 103.5q28 56 52 153t20 138q-4 70 -47.5 98.5t-100.5 28.5q-68 0 -130.5 -36.5t-96.5 -101.5q-28 -54 -51 -150.5t-23 -142.5z" />
<glyph unicode="&#xbb;" horiz-adv-x="1331" d="M311 29q0 6 4 10q102 238 254 450q-45 209 -30 451q3 27 28 27h17q28 0 28 -25q28 -258 170 -440q6 -9 6 -19q0 -12 -10 -22q-234 -181 -397 -447q-8 -14 -25 -14h-16q-11 0 -20 8.5t-9 20.5zM680 29q0 6 4 10q102 238 254 450q-46 213 -31 451q3 27 29 27h16 q29 0 29 -25q28 -258 170 -440q6 -9 6 -19q0 -12 -10 -22q-234 -181 -397 -447q-8 -14 -25 -14h-16q-11 0 -20 8.5t-9 20.5z" />
<glyph unicode="&#xbc;" horiz-adv-x="1978" d="M338 649q0 14 3.5 22t13 11t14.5 3.5t20 0.5h45q43 0 66 2q22 1 28 5t11 18l137 549q-88 -35 -170 -35q-37 0 -37 22q0 6 1 11t2 8t4.5 6t5 4t6.5 2.5t6 2t6 1.5h6q188 12 313 145q22 13 31 13q14 0 22 -4.5t9 -9.5t0 -9q5 -5 -4 -14l-179 -713q27 -4 88 -4h50 q13 0 18 -0.5t13.5 -2t12 -6.5t3.5 -13q3 -16 -5 -24.5t-16 -9.5t-20 -1l-240 2l-229 -2q-14 0 -22.5 4.5t-9.5 7t-3 8.5zM553 41q3 20 20 37l1299 1323q27 24 55 24q26 0 39.5 -17.5t7.5 -43.5q-7 -24 -20 -37l-1301 -1323q-24 -24 -55 -24q-25 0 -38.5 17.5t-6.5 43.5z M1096 33q0 9 7 17t14 11.5t19 9t13 5.5q7 3 20.5 11.5t43 30t60 48t70 69t74.5 89.5q126 178 187 411q4 15 7 23t13 23.5t28 23.5t44 8q11 0 23.5 -3t27.5 -16t18 -34q0 -9 -8 -43t-38.5 -107.5t-78.5 -152.5t-140.5 -179.5t-211.5 -185.5h29q72 0 205 -37q32 130 37 146 q4 19 8.5 31.5t14 27.5t27.5 23t44 8q28 0 47 -14t20 -39q0 -15 -4 -27l-43 -182q49 0 96 12q9 4 19 4q15 0 26 -13t11 -20q0 -17 -61 -29t-107 -12q-3 -14 -9 -38t-14.5 -54t-11.5 -43q-4 -12 -5 -16t-8.5 -18t-16 -20.5t-25 -13t-37.5 -6.5q-30 0 -49 15.5t-21 36.5 q0 3 4.5 20t10 39.5t8.5 36.5l22 88q-77 24 -112.5 30.5t-92.5 6.5q-47 0 -75.5 -3t-38.5 -7t-21 -11q-23 -14 -32 -14q-12 0 -24.5 13.5t-12.5 19.5z" />
<glyph unicode="&#xbd;" horiz-adv-x="1978" d="M338 649q0 14 3.5 22t13 11t14.5 3.5t20 0.5h45q43 0 66 2q22 1 28 5t11 18l137 549q-88 -35 -170 -35q-37 0 -37 22q0 6 1 11t2 8t4.5 6t5 4t6.5 2.5t6 2t6 1.5h6q188 12 313 145q22 13 31 13q14 0 22 -4.5t9 -9.5t0 -9q5 -5 -4 -14l-179 -713q27 -4 88 -4h50 q13 0 18 -0.5t13.5 -2t12 -6.5t3.5 -13q3 -16 -5 -24.5t-16 -9.5t-20 -1l-240 2l-229 -2q-14 0 -22.5 4.5t-9.5 7t-3 8.5zM375 41q3 20 20 37l1299 1323q27 24 57 24q25 0 38 -17.5t7 -43.5q-7 -24 -20 -37l-1301 -1323q-24 -24 -55 -24q-25 0 -38 17.5t-7 43.5zM1133 -4 q0 9 6 29t26 56.5t50.5 73.5t87.5 79.5t129 74.5q52 25 76 36.5t69.5 44t75.5 69.5q37 46 53 129q8 33 8 74q-4 56 -41.5 81t-87.5 25q-79 0 -148 -48t-103 -108.5t-31 -107.5q2 -35 28 -35q55 0 97 53.5t42 89.5q-3 21 -18 39q-4 2 -8 15q0 11 10 14q10 10 19 10 q17 0 33 -25t18 -51q0 -32 -21.5 -74t-69 -78t-106.5 -36q-46 0 -73.5 25t-32.5 67q-2 37 23.5 86.5t71.5 96.5t119 79.5t154 32.5q122 0 202 -52t87 -151q4 -104 -75.5 -177t-299.5 -167q-131 -50 -215 -141q84 0 172 -8q4 0 66.5 -4t89.5 -4q68 0 112.5 28t59.5 68 q5 14 11.5 17t31.5 3q15 0 21.5 -0.5t13 -5t6.5 -12.5q0 -12 -9.5 -36.5t-31 -57.5t-51.5 -62.5t-76.5 -50t-99.5 -20.5q-66 0 -166 51q-93 51 -148 51q-26 0 -42.5 -18t-33.5 -68q-4 -12 -10.5 -14t-32.5 -2q-14 0 -20.5 0.5t-12 4t-5.5 11.5z" />
<glyph unicode="&#xbe;" horiz-adv-x="1978" d="M420 770q-2 35 9.5 59t30.5 34.5t34 14t28 3.5q34 0 54 -17t22 -39q2 -25 -20 -53t-70 -33q16 -44 59 -66t95 -22q64 0 111.5 24.5t72.5 63.5q22 41 36.5 104.5t14.5 92.5q-6 74 -106 74h-48q-15 0 -21 0.5t-13.5 2t-10 5t-2.5 10.5q0 8 2 14q2 12 9 19q1 4 6 5t30 1h41 q33 0 55.5 2t60.5 18.5t61 47.5q24 30 38.5 88t14.5 92q-7 82 -115 82q-104 0 -187.5 -59t-78.5 -126q0 -34 31 -34q28 0 52.5 18.5t24.5 46.5q-3 20 -18 35q-8 8 -8 14q0 10 10 17q8 8 20 8q16 0 32 -25t18 -47q2 -43 -38 -76.5t-95 -33.5q-45 0 -76 23t-35 63 q-5 78 98 148.5t252 70.5q116 0 186 -42t74 -122q5 -67 -48 -139.5t-165 -106.5q110 -44 113 -149q5 -114 -104.5 -194.5t-292.5 -80.5q-107 0 -173 45.5t-71 118.5zM553 41q3 20 20 37l1299 1323q27 24 55 24q26 0 39.5 -17.5t7.5 -43.5q-7 -24 -20 -37l-1301 -1323 q-24 -24 -55 -24q-25 0 -38.5 17.5t-6.5 43.5zM1096 33q0 9 7 17t14 11.5t19 9t13 5.5q7 3 20.5 11.5t43 30t60 48t70 69t74.5 89.5q126 178 187 411q4 15 7 23t13 23.5t28 23.5t44 8q11 0 23.5 -3t27.5 -16t18 -34q0 -9 -8 -43t-38.5 -107.5t-78.5 -152.5t-140.5 -179.5 t-211.5 -185.5h29q72 0 205 -37q32 130 37 146q4 19 8.5 31.5t14 27.5t27.5 23t44 8q28 0 47 -14t20 -39q0 -15 -4 -27l-43 -182q49 0 96 12q9 4 19 4q15 0 26 -13t11 -20q0 -17 -61 -29t-107 -12q-3 -14 -9 -38t-14.5 -54t-11.5 -43q-4 -12 -5 -16t-8.5 -18t-16 -20.5 t-25 -13t-37.5 -6.5q-30 0 -49 15.5t-21 36.5q0 3 4.5 20t10 39.5t8.5 36.5l22 88q-77 24 -112.5 30.5t-92.5 6.5q-47 0 -75.5 -3t-38.5 -7t-21 -11q-23 -14 -32 -14q-12 0 -24.5 13.5t-12.5 19.5z" />
<glyph unicode="&#xbf;" d="M209 -178q0 214 223 360l252 162q21 14 31.5 22t25 23t21 33.5t6.5 42.5q0 37 -33 37q-21 0 -46.5 -8t-59 -36.5t-51.5 -74.5q-7 -21 -15 -25t-36 -4h-7q-22 0 -31.5 1t-17.5 8t-8 22q0 23 20 54.5t54 62.5t88 52t114 21q15 0 30.5 -2t37.5 -11t38 -24.5t28 -45t12 -68.5 q0 -127 -88 -209q-27 -24 -206 -137q-14 -9 -21.5 -14t-20.5 -13.5t-25 -15.5q-49 -32 -75.5 -51.5t-59 -51.5t-47 -68.5t-14.5 -80.5q0 -39 15.5 -67t35.5 -42t48.5 -21.5t44.5 -9t34 -1.5q102 0 196 63t158 170q-3 0 -10.5 2t-19.5 9t-22.5 16.5t-18 28t-7.5 40.5 q0 59 43.5 101.5t100.5 42.5q47 0 74.5 -26.5t27.5 -68.5t-23 -99.5t-70 -119t-108 -114t-146.5 -86t-176.5 -33.5q-139 0 -217 68.5t-78 185.5zM670 846q0 71 56.5 124.5t123.5 53.5q55 0 91 -34t36 -89q0 -72 -57 -125t-123 -53q-58 0 -92.5 35t-34.5 88z" />
<glyph unicode="&#xc0;" horiz-adv-x="1773" d="M150 37q0 21 5 34t15.5 18t18.5 6t24 1q69 0 111 12.5t55.5 26t26.5 37.5l747 1233q15 25 29.5 36t26.5 13t40 2q47 0 58 -9t16 -50l135 -1262q4 -23 8 -27.5t23 -9.5q16 -2 67 -2h27q18 0 24.5 -0.5t19 -3.5t17.5 -11t5 -22q0 -21 -5.5 -34t-16.5 -18t-18 -6t-18 -1 q-46 0 -140 3t-140 3q-50 0 -151 -3t-150 -3q-30 0 -39 18q-6 9 -6 19q0 21 5 34t18 18t23 6t33 1q85 0 134 10l-31 287h-475l-166 -276q33 -13 80 -17q7 -1 21.5 -2t21.5 -2h12t13 -2t14.5 -5.5t9 -11t4.5 -18.5q0 -21 -6.5 -34t-17.5 -18t-17.5 -6t-15.5 -1q-37 0 -116 3 t-120 3q-33 0 -101.5 -3t-99.5 -3q-25 0 -34 18q-4 12 -4 19zM731 489h406l-62 570zM1008 1763q17 50 61 83.5t94 33.5q24 0 39.5 -10t40.5 -35l195 -186q19 -19 12 -35q-8 -16 -33.5 -44t-48.5 -32q-18 0 -33 6l-276 125q-69 26 -51 94z" />
<glyph unicode="&#xc1;" horiz-adv-x="1773" d="M150 37q0 21 5 34t15.5 18t18.5 6t24 1q69 0 111 12.5t55.5 26t26.5 37.5l747 1233q15 25 29.5 36t26.5 13t40 2q47 0 58 -9t16 -50l135 -1262q4 -23 8 -27.5t23 -9.5q16 -2 67 -2h27q18 0 24.5 -0.5t19 -3.5t17.5 -11t5 -22q0 -21 -5.5 -34t-16.5 -18t-18 -6t-18 -1 q-46 0 -140 3t-140 3q-50 0 -151 -3t-150 -3q-30 0 -39 18q-6 9 -6 19q0 21 5 34t18 18t23 6t33 1q85 0 134 10l-31 287h-475l-166 -276q33 -13 80 -17q7 -1 21.5 -2t21.5 -2h12t13 -2t14.5 -5.5t9 -11t4.5 -18.5q0 -21 -6.5 -34t-17.5 -18t-17.5 -6t-15.5 -1q-37 0 -116 3 t-120 3q-33 0 -101.5 -3t-99.5 -3q-25 0 -34 18q-4 12 -4 19zM731 489h406l-62 570zM1130 1614q3 19 31 35l287 186q2 1 11.5 7.5t11.5 7.5t10 6.5t10.5 6.5t9 4.5t10 4.5t9.5 3t10.5 3t10 1.5t11.5 0.5q49 0 77 -33.5t20 -83.5q-10 -63 -99 -94l-340 -125q-18 -6 -34 -6 q-22 4 -35 32.5t-11 43.5z" />
<glyph unicode="&#xc2;" horiz-adv-x="1773" d="M150 37q0 21 5 34t15.5 18t18.5 6t24 1q69 0 111 12.5t55.5 26t26.5 37.5l747 1233q15 25 29.5 36t26.5 13t40 2q47 0 58 -9t16 -50l135 -1262q4 -23 8 -27.5t23 -9.5q16 -2 67 -2h27q18 0 24.5 -0.5t19 -3.5t17.5 -11t5 -22q0 -21 -5.5 -34t-16.5 -18t-18 -6t-18 -1 q-46 0 -140 3t-140 3q-50 0 -151 -3t-150 -3q-30 0 -39 18q-6 9 -6 19q0 21 5 34t18 18t23 6t33 1q85 0 134 10l-31 287h-475l-166 -276q33 -13 80 -17q7 -1 21.5 -2t21.5 -2h12t13 -2t14.5 -5.5t9 -11t4.5 -18.5q0 -21 -6.5 -34t-17.5 -18t-17.5 -6t-15.5 -1q-37 0 -116 3 t-120 3q-33 0 -101.5 -3t-99.5 -3q-25 0 -34 18q-4 12 -4 19zM731 489h406l-62 570zM922 1569l405 284l309 -284l-39 -51l-309 114l-346 -114z" />
<glyph unicode="&#xc3;" horiz-adv-x="1773" d="M150 37q0 21 5 34t15.5 18t18.5 6t24 1q69 0 111 12.5t55.5 26t26.5 37.5l747 1233q15 25 29.5 36t26.5 13t40 2q47 0 58 -9t16 -50l135 -1262q4 -23 8 -27.5t23 -9.5q16 -2 67 -2h27q18 0 24.5 -0.5t19 -3.5t17.5 -11t5 -22q0 -21 -5.5 -34t-16.5 -18t-18 -6t-18 -1 q-46 0 -140 3t-140 3q-50 0 -151 -3t-150 -3q-30 0 -39 18q-6 9 -6 19q0 21 5 34t18 18t23 6t33 1q85 0 134 10l-31 287h-475l-166 -276q33 -13 80 -17q7 -1 21.5 -2t21.5 -2h12t13 -2t14.5 -5.5t9 -11t4.5 -18.5q0 -21 -6.5 -34t-17.5 -18t-17.5 -6t-15.5 -1q-37 0 -116 3 t-120 3q-33 0 -101.5 -3t-99.5 -3q-25 0 -34 18q-4 12 -4 19zM731 489h406l-62 570zM913 1554q0 6 4.5 14t13 17.5t17.5 18.5t22 20t22 18.5t21.5 17.5t16.5 13q1 1 25.5 18.5t36.5 25t35.5 20.5t45 18.5t41.5 5.5q68 0 125 -65q29 -35 47 -47.5t39 -12.5q12 0 25.5 4 t29.5 12t28 15t29 19.5t24.5 18.5l22.5 18l15 12q26 26 43 26q37 0 37 -37q0 -8 -9.5 -21t-25.5 -28.5t-31 -28.5t-34 -28t-25 -21q-98 -79 -176 -79q-35 0 -65.5 15t-73.5 64q-33 45 -72 45q-65 0 -180 -104q-20 -20 -37 -20q-18 0 -27.5 11.5t-9.5 24.5z" />
<glyph unicode="&#xc4;" horiz-adv-x="1773" d="M150 37q0 21 5 34t15.5 18t18.5 6t24 1q69 0 111 12.5t55.5 26t26.5 37.5l747 1233q15 25 29.5 36t26.5 13t40 2q47 0 58 -9t16 -50l135 -1262q4 -23 8 -27.5t23 -9.5q16 -2 67 -2h27q18 0 24.5 -0.5t19 -3.5t17.5 -11t5 -22q0 -21 -5.5 -34t-16.5 -18t-18 -6t-18 -1 q-46 0 -140 3t-140 3q-50 0 -151 -3t-150 -3q-30 0 -39 18q-6 9 -6 19q0 21 5 34t18 18t23 6t33 1q85 0 134 10l-31 287h-475l-166 -276q33 -13 80 -17q7 -1 21.5 -2t21.5 -2h12t13 -2t14.5 -5.5t9 -11t4.5 -18.5q0 -21 -6.5 -34t-17.5 -18t-17.5 -6t-15.5 -1q-37 0 -116 3 t-120 3q-33 0 -101.5 -3t-99.5 -3q-25 0 -34 18q-4 12 -4 19zM731 489h406l-62 570zM862 1628q0 61 50.5 110.5t113.5 49.5q53 0 84 -34.5t31 -76.5q0 -62 -49.5 -110.5t-114.5 -48.5q-52 0 -82.5 31.5t-32.5 78.5zM1458 1628q0 61 50.5 110.5t113.5 49.5q53 0 84 -34.5 t31 -76.5q0 -62 -49.5 -110.5t-114.5 -48.5q-52 0 -82.5 31.5t-32.5 78.5z" />
<glyph unicode="&#xc5;" horiz-adv-x="1773" d="M150 37q0 21 5 34t15.5 18t18.5 6t24 1q69 0 111 12.5t55.5 26t26.5 37.5l747 1233q15 25 29.5 36t26.5 13t40 2q47 0 58 -9t16 -50l135 -1262q4 -23 8 -27.5t23 -9.5q16 -2 67 -2h27q18 0 24.5 -0.5t19 -3.5t17.5 -11t5 -22q0 -21 -5.5 -34t-16.5 -18t-18 -6t-18 -1 q-46 0 -140 3t-140 3q-50 0 -151 -3t-150 -3q-30 0 -39 18q-6 9 -6 19q0 21 5 34t18 18t23 6t33 1q85 0 134 10l-31 287h-475l-166 -276q33 -13 80 -17q7 -1 21.5 -2t21.5 -2h12t13 -2t14.5 -5.5t9 -11t4.5 -18.5q0 -21 -6.5 -34t-17.5 -18t-17.5 -6t-15.5 -1q-37 0 -116 3 t-120 3q-33 0 -101.5 -3t-99.5 -3q-25 0 -34 18q-4 12 -4 19zM731 489h406l-62 570zM1051 1591q0 81 77 145t209 64q97 0 149 -36t52 -99q0 -78 -76 -143.5t-211 -65.5q-95 0 -147.5 35t-52.5 100zM1178 1589q0 -17 7.5 -27.5t23.5 -15t29.5 -5.5t35.5 -1q81 0 106 31 q15 20 23 50t8 46q0 17 -7.5 27.5t-23 15t-29 5.5t-36.5 1q-26 0 -39 -0.5t-34.5 -8t-33.5 -21.5q-15 -17 -22.5 -49.5t-7.5 -47.5z" />
<glyph unicode="&#xc6;" horiz-adv-x="2095" d="M150 37q0 21 6 34t16.5 18t17.5 6t17 1q55 0 92 5.5t58.5 18.5t31 23.5t21.5 30.5l708 1135h-82h-4q-20 0 -30.5 1t-20.5 10t-10 26q0 21 5.5 34t17.5 18t21 6t27 1h1088h16.5t14 -1t12.5 -2.5t9 -4.5t7 -8t4 -12t1.5 -16.5t-1.5 -21.5l-43 -372q-5 -36 -14.5 -46 t-44.5 -10q-14 0 -21 1t-17 4.5t-14.5 13t-4.5 24.5q0 20 6 50q6 39 6 98q0 30 -3 55t-11 44.5t-16.5 34.5t-24.5 26.5t-29.5 19t-38 13t-43 8.5t-51 4t-56 1.5t-63.5 0.5h-92q-36 0 -44.5 -4.5t-14.5 -28.5l-138 -553h103q114 0 160.5 39.5t76.5 152.5q11 33 20 40.5 t42 7.5q18 0 26.5 -0.5t19.5 -9.5t11 -27q0 -3 -6 -33l-115 -459q-10 -33 -21 -40t-40 -7q-18 0 -26.5 0.5t-20 9.5t-11.5 27q0 12 5 27q5 12 10.5 42t5.5 52q0 48 -29 65t-114 17h-121l-131 -529q14 -2 47 -2h164q52 0 97 6.5t81 17t69 30.5t57 38t48.5 49.5t41.5 56 t37.5 65t33.5 70t34 77.5q17 41 26.5 48t43.5 7q18 0 26.5 -0.5t19.5 -9.5t11 -27t-10 -35l-195 -454q-10 -25 -21 -30t-46 -5h-946q-18 0 -24.5 0.5t-19 3.5t-17.5 11t-5 22q0 21 5.5 34t18 18t21.5 6t27 1h16q50 0 66 2q4 1 9.5 2t7 1t5 1.5t4.5 1.5t3 2.5t2.5 3.5t2 5 t2 7l1.5 9l123 496h-308l-317 -510q56 -21 121 -21q15 0 23 -0.5t19 -9.5t11 -27q0 -21 -5.5 -34t-16 -18t-17 -6t-16.5 -1q-40 0 -119 3t-119 3q-33 0 -100.5 -3t-100.5 -3q-19 0 -28.5 11.5t-9.5 25.5zM885 723h272l143 580q-14 2 -53 2z" />
<glyph unicode="&#xc7;" horiz-adv-x="1693" d="M334 502q0 109 29.5 220.5t84 216t138.5 195.5t187 159t236.5 107.5t280.5 39.5q206 0 340 -140l176 140h5q19 0 27.5 -1t16 -7.5t7.5 -20.5q-2 -2 -2 -8q0 -1 -1.5 -12t-5.5 -19l-114 -459q-7 -30 -17 -35.5t-49 -5.5q-25 0 -35.5 1t-19 8t-8.5 22q0 1 3 25.5t3 62.5 q0 154 -75.5 253t-221.5 99q-121 0 -249.5 -53t-227.5 -170q-63 -78 -111.5 -189t-73 -214.5t-36 -181.5t-11.5 -121q0 -167 95 -256q104 -97 284 -97q66 0 138 22.5t148 69.5t141 134.5t100 201.5q4 12 16 15.5t39 3.5q22 0 30 -0.5t17.5 -7t9.5 -21.5q0 -7 -5.5 -28.5 t-21.5 -59.5t-39 -78.5t-63.5 -88t-89.5 -85.5q-177 -141 -371 -166l-18 -77q87 0 138 -41t36 -111q-7 -28 -24.5 -50.5t-48 -38.5t-60 -27.5t-77.5 -18.5t-82.5 -11t-93 -5.5t-90.5 -2t-93 -0.5h-9q-23 0 -36 17.5t-7 40.5t27.5 40t44.5 17q64 0 100.5 0.5t90 4t81 12 t31.5 22.5q2 9 -4 15.5t-22.5 10.5t-31.5 6.5t-42 3.5t-42.5 1h-43.5l49 192q-79 12 -147.5 37t-130 68.5t-105 102t-69 140.5t-25.5 181z" />
<glyph unicode="&#xc8;" horiz-adv-x="1550" d="M131 37q0 21 5.5 34t18 18t21.5 6t27 1h45q32 0 82 4q29 2 35 6t12 27l289 1159q-6 0 -47 2t-54 2h-45q-18 0 -24 0.5t-18 3.5t-16.5 11t-4.5 22q0 21 5 34t17 18.5t21 6.5t26 1h1057q20 0 30.5 -1t21.5 -9.5t14 -24.5l-47 -406q-3 -20 -4.5 -25.5t-7 -14.5t-17 -11 t-31.5 -2q-17 0 -26.5 1t-20 10.5t-10.5 27.5q0 19 6 43q6 51 6 98q0 46 -9 80.5t-21 57.5t-41.5 38.5t-51.5 23.5t-71.5 12t-81.5 4.5t-100 0.5h-7q-149 0 -168 -4l-129 -522h86q62 0 100.5 9.5t64.5 35.5t40.5 58.5t30.5 91.5q8 30 17.5 37.5t43.5 7.5q18 0 26.5 -0.5 t19.5 -9.5t11 -27q0 -6 -6 -27l-114 -463q-10 -34 -21.5 -41.5t-40.5 -7.5q-18 0 -26.5 0.5t-19.5 9.5t-11 27q0 4 2 8q0 1 4 21q14 68 14 92q0 46 -29.5 64t-111.5 18h-104l-144 -576q14 -2 47 -2h205q71 0 129.5 10t102.5 26.5t83 46.5t66 59.5t55.5 77t48 88t46.5 102.5 q17 41 26 48t43 7q18 0 26.5 -0.5t20 -9.5t11.5 -27q0 -17 -11 -35l-194 -454q-10 -25 -21.5 -30t-46.5 -5h-1089q-18 0 -24.5 0.5t-19 3.5t-17.5 11t-5 22zM895 1763q17 50 61.5 83.5t94.5 33.5q17 0 31 -6.5t22 -13.5t26 -25l195 -186q19 -19 12 -35q-8 -16 -33.5 -44 t-48.5 -32q-17 0 -32 6l-277 125q-69 26 -51 94z" />
<glyph unicode="&#xc9;" horiz-adv-x="1550" d="M131 37q0 21 5.5 34t18 18t21.5 6t27 1h45q32 0 82 4q29 2 35 6t12 27l289 1159q-6 0 -47 2t-54 2h-45q-18 0 -24 0.5t-18 3.5t-16.5 11t-4.5 22q0 21 5 34t17 18.5t21 6.5t26 1h1057q20 0 30.5 -1t21.5 -9.5t14 -24.5l-47 -406q-3 -20 -4.5 -25.5t-7 -14.5t-17 -11 t-31.5 -2q-17 0 -26.5 1t-20 10.5t-10.5 27.5q0 19 6 43q6 51 6 98q0 46 -9 80.5t-21 57.5t-41.5 38.5t-51.5 23.5t-71.5 12t-81.5 4.5t-100 0.5h-7q-149 0 -168 -4l-129 -522h86q62 0 100.5 9.5t64.5 35.5t40.5 58.5t30.5 91.5q8 30 17.5 37.5t43.5 7.5q18 0 26.5 -0.5 t19.5 -9.5t11 -27q0 -6 -6 -27l-114 -463q-10 -34 -21.5 -41.5t-40.5 -7.5q-18 0 -26.5 0.5t-19.5 9.5t-11 27q0 4 2 8q0 1 4 21q14 68 14 92q0 46 -29.5 64t-111.5 18h-104l-144 -576q14 -2 47 -2h205q71 0 129.5 10t102.5 26.5t83 46.5t66 59.5t55.5 77t48 88t46.5 102.5 q17 41 26 48t43 7q18 0 26.5 -0.5t20 -9.5t11.5 -27q0 -17 -11 -35l-194 -454q-10 -25 -21.5 -30t-46.5 -5h-1089q-18 0 -24.5 0.5t-19 3.5t-17.5 11t-5 22zM1018 1614q3 19 31 35l286 186q28 19 38.5 25t29.5 13t37 7q49 0 76.5 -33.5t19.5 -83.5q-10 -64 -98 -94 l-340 -125q-18 -6 -35 -6q-22 4 -34.5 32.5t-10.5 43.5z" />
<glyph unicode="&#xca;" horiz-adv-x="1550" d="M131 37q0 21 5.5 34t18 18t21.5 6t27 1h45q32 0 82 4q29 2 35 6t12 27l289 1159q-6 0 -47 2t-54 2h-45q-18 0 -24 0.5t-18 3.5t-16.5 11t-4.5 22q0 21 5 34t17 18.5t21 6.5t26 1h1057q20 0 30.5 -1t21.5 -9.5t14 -24.5l-47 -406q-3 -20 -4.5 -25.5t-7 -14.5t-17 -11 t-31.5 -2q-17 0 -26.5 1t-20 10.5t-10.5 27.5q0 19 6 43q6 51 6 98q0 46 -9 80.5t-21 57.5t-41.5 38.5t-51.5 23.5t-71.5 12t-81.5 4.5t-100 0.5h-7q-149 0 -168 -4l-129 -522h86q62 0 100.5 9.5t64.5 35.5t40.5 58.5t30.5 91.5q8 30 17.5 37.5t43.5 7.5q18 0 26.5 -0.5 t19.5 -9.5t11 -27q0 -6 -6 -27l-114 -463q-10 -34 -21.5 -41.5t-40.5 -7.5q-18 0 -26.5 0.5t-19.5 9.5t-11 27q0 4 2 8q0 1 4 21q14 68 14 92q0 46 -29.5 64t-111.5 18h-104l-144 -576q14 -2 47 -2h205q71 0 129.5 10t102.5 26.5t83 46.5t66 59.5t55.5 77t48 88t46.5 102.5 q17 41 26 48t43 7q18 0 26.5 -0.5t20 -9.5t11.5 -27q0 -17 -11 -35l-194 -454q-10 -25 -21.5 -30t-46.5 -5h-1089q-18 0 -24.5 0.5t-19 3.5t-17.5 11t-5 22zM809 1569l405 284l310 -284l-39 -51l-309 114l-347 -114z" />
<glyph unicode="&#xcb;" horiz-adv-x="1550" d="M131 37q0 21 5.5 34t18 18t21.5 6t27 1h45q32 0 82 4q29 2 35 6t12 27l289 1159q-6 0 -47 2t-54 2h-45q-18 0 -24 0.5t-18 3.5t-16.5 11t-4.5 22q0 21 5 34t17 18.5t21 6.5t26 1h1057q20 0 30.5 -1t21.5 -9.5t14 -24.5l-47 -406q-3 -20 -4.5 -25.5t-7 -14.5t-17 -11 t-31.5 -2q-17 0 -26.5 1t-20 10.5t-10.5 27.5q0 19 6 43q6 51 6 98q0 46 -9 80.5t-21 57.5t-41.5 38.5t-51.5 23.5t-71.5 12t-81.5 4.5t-100 0.5h-7q-149 0 -168 -4l-129 -522h86q62 0 100.5 9.5t64.5 35.5t40.5 58.5t30.5 91.5q8 30 17.5 37.5t43.5 7.5q18 0 26.5 -0.5 t19.5 -9.5t11 -27q0 -6 -6 -27l-114 -463q-10 -34 -21.5 -41.5t-40.5 -7.5q-18 0 -26.5 0.5t-19.5 9.5t-11 27q0 4 2 8q0 1 4 21q14 68 14 92q0 46 -29.5 64t-111.5 18h-104l-144 -576q14 -2 47 -2h205q71 0 129.5 10t102.5 26.5t83 46.5t66 59.5t55.5 77t48 88t46.5 102.5 q17 41 26 48t43 7q18 0 26.5 -0.5t20 -9.5t11.5 -27q0 -17 -11 -35l-194 -454q-10 -25 -21.5 -30t-46.5 -5h-1089q-18 0 -24.5 0.5t-19 3.5t-17.5 11t-5 22zM750 1628q0 62 50 111t113 49q53 0 84 -34.5t31 -76.5q0 -62 -49.5 -110.5t-114.5 -48.5q-52 0 -82 31.5t-32 78.5z M1346 1628q0 62 50 111t113 49q53 0 84 -34.5t31 -76.5q0 -62 -49.5 -110.5t-114.5 -48.5q-52 0 -82 31.5t-32 78.5z" />
<glyph unicode="&#xcc;" horiz-adv-x="966" d="M121 37q0 21 5 34t17 18t21.5 6t28.5 1h49q61 0 84 2q36 5 42 11q5 7 9 24l291 1172q-13 0 -57.5 2t-47.5 2h-49h-4q-20 0 -30.5 1t-20.5 10t-10 26q0 21 5.5 34t16 18t18 6t19.5 1q53 0 162 -3t164 -3q53 0 160 3t159 3q15 0 25 -4.5t14 -12t5 -12t1 -8.5 q0 -21 -5.5 -34t-18 -18t-21.5 -6t-27 -1h-51q-34 0 -84 -4q-31 -1 -38 -6.5t-13 -28.5l-291 -1170l105 -4h51h4q20 0 30.5 -1t20.5 -10t10 -26q0 -21 -5.5 -34t-17 -18t-19 -6t-19.5 -1q-53 0 -162 3t-164 3q-52 0 -158.5 -3t-158.5 -3q-45 0 -45 37zM604 1763 q17 50 61.5 83.5t94.5 33.5q24 0 39.5 -10t40.5 -35l194 -186q20 -20 13 -35q-8 -16 -33.5 -44t-48.5 -32q-18 0 -33 6l-277 125q-69 26 -51 94z" />
<glyph unicode="&#xcd;" horiz-adv-x="966" d="M121 37q0 21 5 34t17 18t21.5 6t28.5 1h49q61 0 84 2q36 5 42 11q5 7 9 24l291 1172q-13 0 -57.5 2t-47.5 2h-49h-4q-20 0 -30.5 1t-20.5 10t-10 26q0 21 5.5 34t16 18t18 6t19.5 1q53 0 162 -3t164 -3q53 0 160 3t159 3q15 0 25 -4.5t14 -12t5 -12t1 -8.5 q0 -21 -5.5 -34t-18 -18t-21.5 -6t-27 -1h-51q-34 0 -84 -4q-31 -1 -38 -6.5t-13 -28.5l-291 -1170l105 -4h51h4q20 0 30.5 -1t20.5 -10t10 -26q0 -21 -5.5 -34t-17 -18t-19 -6t-19.5 -1q-53 0 -162 3t-164 3q-52 0 -158.5 -3t-158.5 -3q-45 0 -45 37zM727 1614q3 19 31 35 l286 186q28 19 38.5 25t29.5 13t37 7q49 0 76.5 -33.5t19.5 -83.5q-10 -64 -98 -94l-340 -125q-18 -6 -35 -6q-22 4 -34.5 32.5t-10.5 43.5z" />
<glyph unicode="&#xce;" horiz-adv-x="966" d="M121 37q0 21 5 34t17 18t21.5 6t28.5 1h49q61 0 84 2q36 5 42 11q5 7 9 24l291 1172q-13 0 -57.5 2t-47.5 2h-49h-4q-20 0 -30.5 1t-20.5 10t-10 26q0 21 5.5 34t16 18t18 6t19.5 1q53 0 162 -3t164 -3q53 0 160 3t159 3q15 0 25 -4.5t14 -12t5 -12t1 -8.5 q0 -21 -5.5 -34t-18 -18t-21.5 -6t-27 -1h-51q-34 0 -84 -4q-31 -1 -38 -6.5t-13 -28.5l-291 -1170l105 -4h51h4q20 0 30.5 -1t20.5 -10t10 -26q0 -21 -5.5 -34t-17 -18t-19 -6t-19.5 -1q-53 0 -162 3t-164 3q-52 0 -158.5 -3t-158.5 -3q-45 0 -45 37zM518 1569l406 284 l309 -284l-39 -51l-309 114l-346 -114z" />
<glyph unicode="&#xcf;" horiz-adv-x="966" d="M121 37q0 21 5 34t17 18t21.5 6t28.5 1h49q61 0 84 2q36 5 42 11q5 7 9 24l291 1172q-13 0 -57.5 2t-47.5 2h-49h-4q-20 0 -30.5 1t-20.5 10t-10 26q0 21 5.5 34t16 18t18 6t19.5 1q53 0 162 -3t164 -3q53 0 160 3t159 3q15 0 25 -4.5t14 -12t5 -12t1 -8.5 q0 -21 -5.5 -34t-18 -18t-21.5 -6t-27 -1h-51q-34 0 -84 -4q-31 -1 -38 -6.5t-13 -28.5l-291 -1170l105 -4h51h4q20 0 30.5 -1t20.5 -10t10 -26q0 -21 -5.5 -34t-17 -18t-19 -6t-19.5 -1q-53 0 -162 3t-164 3q-52 0 -158.5 -3t-158.5 -3q-45 0 -45 37zM459 1628 q0 61 50.5 110.5t113.5 49.5q53 0 83.5 -34t30.5 -77q0 -62 -49.5 -110.5t-114.5 -48.5q-52 0 -82 31.5t-32 78.5zM1055 1628q0 61 50.5 110.5t113.5 49.5q53 0 83.5 -34t30.5 -77q0 -62 -49.5 -110.5t-114.5 -48.5q-52 0 -82 31.5t-32 78.5z" />
<glyph unicode="&#xd0;" horiz-adv-x="1794" d="M131 37q0 21 5.5 34t18 18t21.5 6t27 1h45q32 0 82 4q29 2 35 6t12 27l129 520h-223q-20 0 -31 14.5t-6 34.5t23 35t38 15h225l138 553q-50 4 -101 4h-45h-4q-20 0 -30.5 1t-20.5 10t-10 26q0 21 5.5 34t17.5 18t21 6t27 1h770q79 0 151 -16t138.5 -53.5t115.5 -93 t78 -140t29 -189.5q0 -125 -36 -253.5t-110 -247t-175 -210.5t-241.5 -147t-299.5 -55h-753q-18 0 -24.5 0.5t-19 3.5t-17.5 11t-5 22zM637 98q14 -2 47 -2h213q155 0 278.5 66t202.5 194q65 107 118.5 321.5t53.5 311.5q0 78 -23 137t-58.5 93t-84.5 55t-93 28t-93 7h-194 q-47 0 -57.5 -5t-16.5 -28l-131 -524h286q20 0 31 -15t6 -35q-6 -21 -23.5 -35t-37.5 -14h-287z" />
<glyph unicode="&#xd1;" horiz-adv-x="1835" d="M131 37q0 21 5.5 34t18 18t21 6t25.5 1q78 0 116 10q39 10 49.5 18.5t16.5 33.5l279 1118q0 2 4 14q2 2 2 8q0 4 -2.5 5.5t-23 3.5t-62.5 2h-56h-4q-20 0 -30.5 1t-20.5 10t-10 26q0 21 5.5 34t17.5 18t21 6t27 1h379q35 0 44.5 -5t23.5 -30l491 -948l218 866 q-47 21 -144 21q-18 0 -24 0.5t-18 3.5t-16.5 11t-4.5 22q0 21 6 34t16.5 18t17.5 6t17 1q40 0 121 -3t121 -3t119 3t116 3q18 0 29.5 -10t11.5 -27q0 -21 -5 -34t-15.5 -18t-18.5 -6t-24 -1q-65 0 -117 -11q-42 -7 -54.5 -16t-15.5 -33l-299 -1200q-10 -35 -21 -42t-48 -7 q-35 0 -43.5 4.5t-20.5 28.5l-602 1163l-268 -1079q51 -21 141 -21h19t16 -2t16 -5.5t8.5 -11t4.5 -18.5q0 -21 -6 -34t-16.5 -18t-17.5 -6t-16 -1q-40 0 -121.5 3t-121.5 3t-119 -3t-117 -3q-23 0 -32 13t-9 24zM944 1554q0 6 4.5 14t13 17.5t17.5 18.5t22 20t22 18.5 t21.5 17.5t16.5 13q1 1 25.5 18.5t36.5 25t35.5 20.5t45 18.5t41.5 5.5q68 0 125 -65q29 -35 47 -47.5t39 -12.5q12 0 25.5 4t29.5 12t28 15t29 19.5t24.5 18.5l22.5 18l15 12q26 26 43 26q37 0 37 -37q0 -8 -9.5 -21t-25.5 -28.5t-31 -28.5t-34 -28t-25 -21 q-98 -79 -176 -79q-35 0 -65.5 15t-73.5 64q-33 45 -72 45q-65 0 -180 -104q-20 -20 -37 -20q-18 0 -27.5 11.5t-9.5 24.5z" />
<glyph unicode="&#xd2;" horiz-adv-x="1751" d="M328 469q0 89 19 184t58 189.5t94 182.5t131.5 163.5t166 131.5t202.5 88t236 32q88 0 165.5 -17.5t146.5 -57t118.5 -98t78 -145.5t28.5 -194q0 -109 -27 -221.5t-78 -220t-130 -202t-176.5 -165.5t-224.5 -112.5t-268 -41.5q-116 0 -212.5 30t-170.5 90t-115.5 158 t-41.5 226zM608 395q0 -153 68 -248q80 -96 213 -96q225 0 399 252q89 125 151 361t62 362q0 33 -4 65t-14 72t-31 72.5t-51 61.5t-78.5 45t-108.5 16q-46 0 -95 -12.5t-106 -41t-114 -85t-104 -134.5q-78 -130 -132.5 -347t-54.5 -343zM995 1763q17 50 61.5 83.5t94.5 33.5 q24 0 39.5 -10t40.5 -35l194 -186q20 -20 13 -35q-8 -16 -33.5 -44t-48.5 -32q-18 0 -33 6l-276 125q-70 26 -52 94z" />
<glyph unicode="&#xd3;" horiz-adv-x="1751" d="M328 469q0 89 19 184t58 189.5t94 182.5t131.5 163.5t166 131.5t202.5 88t236 32q88 0 165.5 -17.5t146.5 -57t118.5 -98t78 -145.5t28.5 -194q0 -109 -27 -221.5t-78 -220t-130 -202t-176.5 -165.5t-224.5 -112.5t-268 -41.5q-116 0 -212.5 30t-170.5 90t-115.5 158 t-41.5 226zM608 395q0 -153 68 -248q80 -96 213 -96q225 0 399 252q89 125 151 361t62 362q0 33 -4 65t-14 72t-31 72.5t-51 61.5t-78.5 45t-108.5 16q-46 0 -95 -12.5t-106 -41t-114 -85t-104 -134.5q-78 -130 -132.5 -347t-54.5 -343zM1118 1614q3 19 31 35l287 186 q2 1 11.5 7.5t11.5 7.5t10 6.5t10.5 6.5t9 4.5t10 4.5t9.5 3t10.5 3t10 1.5t11.5 0.5q49 0 76.5 -33.5t19.5 -83.5q-10 -64 -98 -94l-340 -125q-18 -6 -35 -6q-22 4 -34.5 32.5t-10.5 43.5z" />
<glyph unicode="&#xd4;" horiz-adv-x="1751" d="M328 469q0 89 19 184t58 189.5t94 182.5t131.5 163.5t166 131.5t202.5 88t236 32q88 0 165.5 -17.5t146.5 -57t118.5 -98t78 -145.5t28.5 -194q0 -109 -27 -221.5t-78 -220t-130 -202t-176.5 -165.5t-224.5 -112.5t-268 -41.5q-116 0 -212.5 30t-170.5 90t-115.5 158 t-41.5 226zM608 395q0 -153 68 -248q80 -96 213 -96q225 0 399 252q89 125 151 361t62 362q0 33 -4 65t-14 72t-31 72.5t-51 61.5t-78.5 45t-108.5 16q-46 0 -95 -12.5t-106 -41t-114 -85t-104 -134.5q-78 -130 -132.5 -347t-54.5 -343zM909 1569l406 284l309 -284l-39 -51 l-309 114l-346 -114z" />
<glyph unicode="&#xd5;" horiz-adv-x="1751" d="M328 469q0 89 19 184t58 189.5t94 182.5t131.5 163.5t166 131.5t202.5 88t236 32q88 0 165.5 -17.5t146.5 -57t118.5 -98t78 -145.5t28.5 -194q0 -109 -27 -221.5t-78 -220t-130 -202t-176.5 -165.5t-224.5 -112.5t-268 -41.5q-116 0 -212.5 30t-170.5 90t-115.5 158 t-41.5 226zM608 395q0 -153 68 -248q80 -96 213 -96q225 0 399 252q89 125 151 361t62 362q0 33 -4 65t-14 72t-31 72.5t-51 61.5t-78.5 45t-108.5 16q-46 0 -95 -12.5t-106 -41t-114 -85t-104 -134.5q-78 -130 -132.5 -347t-54.5 -343zM901 1554q0 6 4.5 14t13 17.5 t17.5 18.5t22 20t22 18.5t21.5 17.5t16.5 13q1 1 25.5 18.5t36.5 25t35.5 20.5t45 18.5t41.5 5.5q68 0 125 -65q29 -35 47 -47.5t39 -12.5q12 0 25.5 4t29.5 12t28 15t29 19.5t24.5 18.5l22.5 18l15 12q26 26 43 26q37 0 37 -37q0 -8 -9.5 -21t-25.5 -28.5t-31 -28.5 t-34 -28t-25 -21q-98 -79 -176 -79q-35 0 -65.5 15t-73.5 64q-33 45 -72 45q-65 0 -180 -104q-20 -20 -37 -20q-18 0 -27.5 11.5t-9.5 24.5z" />
<glyph unicode="&#xd6;" horiz-adv-x="1751" d="M328 469q0 89 19 184t58 189.5t94 182.5t131.5 163.5t166 131.5t202.5 88t236 32q88 0 165.5 -17.5t146.5 -57t118.5 -98t78 -145.5t28.5 -194q0 -109 -27 -221.5t-78 -220t-130 -202t-176.5 -165.5t-224.5 -112.5t-268 -41.5q-116 0 -212.5 30t-170.5 90t-115.5 158 t-41.5 226zM608 395q0 -153 68 -248q80 -96 213 -96q225 0 399 252q89 125 151 361t62 362q0 33 -4 65t-14 72t-31 72.5t-51 61.5t-78.5 45t-108.5 16q-46 0 -95 -12.5t-106 -41t-114 -85t-104 -134.5q-78 -130 -132.5 -347t-54.5 -343zM850 1628q0 61 50.5 110.5 t113.5 49.5q53 0 83.5 -34t30.5 -77q0 -62 -49 -110.5t-114 -48.5q-52 0 -82.5 31.5t-32.5 78.5zM1446 1628q0 61 50.5 110.5t113.5 49.5q53 0 83.5 -34t30.5 -77q0 -62 -49 -110.5t-114 -48.5q-52 0 -82.5 31.5t-32.5 78.5z" />
<glyph unicode="&#xd7;" horiz-adv-x="1814" d="M397 2q-49 32 31 96l518 414l-315 422q-7 7 -12 18t-1.5 29t23.5 33q20 16 47 20.5t55 -10.5q14 -14 23 -29l295 -393l489 393q1 1 10 7t13 9t14 9t16.5 8t17 5t18.5 2.5t17.5 -3t18.5 -8.5q17 -12 19 -26.5t-8.5 -28.5t-20 -22.5t-20.5 -16.5l-519 -416l318 -422 q1 -1 4.5 -7.5t5.5 -10.5t4 -12t0.5 -15t-7.5 -16t-17 -17q-23 -18 -54 -21t-51 11q-4 1 -16 21l-301 399l-490 -393q-16 -13 -26 -19.5t-28.5 -15.5t-36 -7.5t-34.5 13.5z" />
<glyph unicode="&#xd8;" horiz-adv-x="1814" d="M330 479q0 104 27.5 214t79 217.5t133 203t182 168.5t234 115.5t282.5 42.5q191 0 342 -82l137 158q23 28 43 28q14 0 28.5 -12t14.5 -29v-7.5t-1.5 -6.5t-5.5 -9.5t-11 -12t-19 -19.5q-22 -27 -65 -75t-56 -62q1 -1 10 -9.5t15.5 -15t18.5 -21t21.5 -27.5t22 -33.5 t21.5 -41t19 -48.5t16 -57t10 -64.5t4 -73.5q0 -110 -28 -223t-80.5 -219.5t-134 -199.5t-182 -162.5t-232 -110t-277.5 -40.5q-193 0 -342 80q-47 -50 -86.5 -96.5t-50.5 -57.5q-23 -23 -28.5 -26.5t-16.5 -3.5q-17 0 -30 13.5t-13 27.5q0 13 30 47q2 2 3.5 4t3.5 4 l120 137q-23 21 -35.5 33.5t-39.5 49.5t-42.5 74t-28.5 98t-13 130zM582 373q0 -86 24 -146l910 1026q-35 45 -102.5 79t-166.5 34q-105 0 -220.5 -50.5t-207.5 -168.5q-57 -76 -105.5 -199t-75.5 -239t-41.5 -206.5t-14.5 -129.5zM649 150q37 -50 106.5 -80.5t162.5 -30.5 q50 0 102 10.5t117 37t130 83.5t117 139q72 115 134.5 356.5t62.5 360.5q0 92 -22 152z" />
<glyph unicode="&#xd9;" horiz-adv-x="1804" d="M446 354q0 84 15 119l209 832q-50 4 -101 4h-45h-4q-20 0 -30.5 1t-20.5 10t-10 26q0 21 5.5 34t16 18t18 6t19.5 1q52 0 158 -3t158 -3t155 3t152 3q45 0 45 -37q0 -28 -11.5 -41.5t-23.5 -15.5t-35 -2l-127 -2q-30 -5 -36.5 -9.5t-12.5 -27.5l-207 -830q-1 -6 -6 -28 t-6.5 -28t-4.5 -23.5t-4 -28t-2 -26.5t-1 -34q0 -107 65 -161q67 -50 174 -50q178 0 317 105.5t189 310.5l203 811q-47 21 -144 21q-18 0 -24 0.5t-18 3.5t-16.5 11t-4.5 22q0 21 6 34t16.5 18t17 6t15.5 1q40 0 122 -3t122 -3q41 0 118.5 3t114.5 3q18 0 29.5 -10t11.5 -27 q0 -21 -5 -34t-15.5 -18t-18.5 -6t-24 -1q-65 0 -117 -11q-42 -7 -54 -16t-15 -33l-199 -798q-15 -65 -47.5 -129.5t-88 -129.5t-125.5 -115t-168 -81t-208 -31q-227 0 -359.5 102.5t-132.5 286.5zM1077 1763q17 50 61.5 83.5t94.5 33.5q24 0 39.5 -10t40.5 -35l194 -186 q20 -20 13 -35q-8 -16 -33.5 -44t-48.5 -32q-18 0 -33 6l-277 125q-69 26 -51 94z" />
<glyph unicode="&#xda;" horiz-adv-x="1804" d="M446 354q0 84 15 119l209 832q-50 4 -101 4h-45h-4q-20 0 -30.5 1t-20.5 10t-10 26q0 21 5.5 34t16 18t18 6t19.5 1q52 0 158 -3t158 -3t155 3t152 3q45 0 45 -37q0 -28 -11.5 -41.5t-23.5 -15.5t-35 -2l-127 -2q-30 -5 -36.5 -9.5t-12.5 -27.5l-207 -830q-1 -6 -6 -28 t-6.5 -28t-4.5 -23.5t-4 -28t-2 -26.5t-1 -34q0 -107 65 -161q67 -50 174 -50q178 0 317 105.5t189 310.5l203 811q-47 21 -144 21q-18 0 -24 0.5t-18 3.5t-16.5 11t-4.5 22q0 21 6 34t16.5 18t17 6t15.5 1q40 0 122 -3t122 -3q41 0 118.5 3t114.5 3q18 0 29.5 -10t11.5 -27 q0 -21 -5 -34t-15.5 -18t-18.5 -6t-24 -1q-65 0 -117 -11q-42 -7 -54 -16t-15 -33l-199 -798q-15 -65 -47.5 -129.5t-88 -129.5t-125.5 -115t-168 -81t-208 -31q-227 0 -359.5 102.5t-132.5 286.5zM1200 1614q3 19 31 35l287 186q2 1 11.5 7.5t11.5 7.5t10 6.5t10.5 6.5 t9 4.5t10 4.5t9.5 3t10.5 3t10 1.5t11.5 0.5q49 0 76.5 -33.5t19.5 -83.5q-10 -64 -98 -94l-340 -125q-18 -6 -35 -6q-22 4 -34.5 32.5t-10.5 43.5z" />
<glyph unicode="&#xdb;" horiz-adv-x="1804" d="M446 354q0 84 15 119l209 832q-50 4 -101 4h-45h-4q-20 0 -30.5 1t-20.5 10t-10 26q0 21 5.5 34t16 18t18 6t19.5 1q52 0 158 -3t158 -3t155 3t152 3q45 0 45 -37q0 -28 -11.5 -41.5t-23.5 -15.5t-35 -2l-127 -2q-30 -5 -36.5 -9.5t-12.5 -27.5l-207 -830q-1 -6 -6 -28 t-6.5 -28t-4.5 -23.5t-4 -28t-2 -26.5t-1 -34q0 -107 65 -161q67 -50 174 -50q178 0 317 105.5t189 310.5l203 811q-47 21 -144 21q-18 0 -24 0.5t-18 3.5t-16.5 11t-4.5 22q0 21 6 34t16.5 18t17 6t15.5 1q40 0 122 -3t122 -3q41 0 118.5 3t114.5 3q18 0 29.5 -10t11.5 -27 q0 -21 -5 -34t-15.5 -18t-18.5 -6t-24 -1q-65 0 -117 -11q-42 -7 -54 -16t-15 -33l-199 -798q-15 -65 -47.5 -129.5t-88 -129.5t-125.5 -115t-168 -81t-208 -31q-227 0 -359.5 102.5t-132.5 286.5zM991 1569l406 284l309 -284l-39 -51l-309 114l-346 -114z" />
<glyph unicode="&#xdc;" horiz-adv-x="1804" d="M446 354q0 84 15 119l209 832q-50 4 -101 4h-45h-4q-20 0 -30.5 1t-20.5 10t-10 26q0 21 5.5 34t16 18t18 6t19.5 1q52 0 158 -3t158 -3t155 3t152 3q45 0 45 -37q0 -28 -11.5 -41.5t-23.5 -15.5t-35 -2l-127 -2q-30 -5 -36.5 -9.5t-12.5 -27.5l-207 -830q-1 -6 -6 -28 t-6.5 -28t-4.5 -23.5t-4 -28t-2 -26.5t-1 -34q0 -107 65 -161q67 -50 174 -50q178 0 317 105.5t189 310.5l203 811q-47 21 -144 21q-18 0 -24 0.5t-18 3.5t-16.5 11t-4.5 22q0 21 6 34t16.5 18t17 6t15.5 1q40 0 122 -3t122 -3q41 0 118.5 3t114.5 3q18 0 29.5 -10t11.5 -27 q0 -21 -5 -34t-15.5 -18t-18.5 -6t-24 -1q-65 0 -117 -11q-42 -7 -54 -16t-15 -33l-199 -798q-15 -65 -47.5 -129.5t-88 -129.5t-125.5 -115t-168 -81t-208 -31q-227 0 -359.5 102.5t-132.5 286.5zM932 1628q0 61 50.5 110.5t113.5 49.5q53 0 83.5 -34t30.5 -77 q0 -62 -49 -110.5t-114 -48.5q-52 0 -82.5 31.5t-32.5 78.5zM1528 1628q0 61 50.5 110.5t113.5 49.5q53 0 83.5 -34t30.5 -77q0 -62 -49.5 -110.5t-114.5 -48.5q-52 0 -82 31.5t-32 78.5z" />
<glyph unicode="&#xdd;" horiz-adv-x="1773" d="M434 1346q0 21 6 34t17 18t18 6t17 1q46 0 140 -3t142 -3q52 0 156 3t153 3q45 0 45 -37q0 -21 -5.5 -34t-16.5 -18t-19 -6t-22 -1q-51 0 -125 -9l211 -581l494 573q-40 17 -103 17h-12t-13 2t-14.5 5.5t-9 11t-4.5 18.5q0 21 6 34t16.5 18t17.5 6t17 1q38 0 117 -3 t119 -3q33 0 99 3t97 3q19 0 29 -11.5t10 -25.5q0 -21 -5.5 -34t-16.5 -18t-18.5 -6t-20.5 -1q-54 0 -91 -6t-62.5 -21t-35.5 -24t-30 -31l-576 -666l-114 -461q50 -4 100 -4h45h4q20 0 30.5 -1t20.5 -10t10 -26q0 -21 -5.5 -34t-16 -18t-18 -6t-19.5 -1q-50 0 -153 3 t-156 3q-50 0 -152 -3t-151 -3q-45 0 -45 37q0 21 5.5 34t17.5 18t21 6t27 1h45q59 0 82 2q30 5 36.5 9.5t12.5 27.5l107 426l-262 715q-7 19 -12.5 22.5t-28.5 8.5q-18 2 -68 2h-24q-18 0 -24.5 0.5t-19 3.5t-17.5 11t-5 22zM1130 1614q3 19 31 35l287 186q2 1 11.5 7.5 t11.5 7.5t10 6.5t10.5 6.5t9 4.5t10 4.5t9.5 3t10.5 3t10 1.5t11.5 0.5q49 0 77 -33.5t20 -83.5q-10 -63 -99 -94l-340 -125q-18 -6 -34 -6q-22 4 -35 32.5t-11 43.5z" />
<glyph unicode="&#xde;" horiz-adv-x="1490" d="M131 37q0 21 6 34t18.5 18t21.5 6t26 1h55q60 0 74 2q31 5 36 11q4 5 9 24l293 1172l-53 2q-53 2 -93 2h-4q-20 0 -30.5 1t-20.5 10t-10 26q0 21 6.5 34t18 18t18 6t16.5 1l305 -6l295 6q20 0 32.5 -9.5t12.5 -27.5q0 -21 -5.5 -34t-17.5 -18t-21 -6t-27 -1h-45 q-43 0 -89 -4q-4 -1 -15 -2.5t-17 -2.5l-35 -145h260q69 0 130 -15.5t113.5 -48t83.5 -91.5t31 -138q0 -60 -19 -125t-63 -132t-108.5 -120t-164.5 -86.5t-220 -33.5h-242l-65 -265q46 -4 143 -4q16 0 24.5 -0.5t20 -4t16.5 -12t5 -22.5q0 -57 -58 -57l-305 6l-297 -6 q-30 0 -39 18q-6 9 -6 19zM717 461h172q60 0 111 19.5t85 51t60.5 73t42 81.5t25 81.5t13 69.5t3.5 48q0 49 -13 84t-29.5 52t-41.5 26t-38.5 10.5t-31.5 1.5h-209z" />
<glyph unicode="&#xdf;" horiz-adv-x="1361" d="M-27 -254q0 69 45 112.5t101 43.5q47 0 74.5 -26.5t27.5 -68.5q0 -43 -26.5 -81.5t-69.5 -55.5q4 -3 8.5 -4.5t9.5 -2t7 -1.5q4 -2 12 -2q26 0 48.5 15.5t40 48.5t30.5 64.5t26 86t19.5 87.5t17.5 93l139 758h-176h-4q-20 0 -30.5 1t-20.5 10t-10 26q0 21 5.5 34t17.5 18 t21 6t27 1h189l28 158q11 60 30.5 110t41.5 86t54 64.5t59.5 46.5t65.5 31t65 19t65.5 9.5t58.5 4t52 0.5q202 0 297.5 -63.5t95.5 -162.5q0 -23 -4 -41t-29.5 -65.5t-74.5 -114.5l-148 -198q-47 -68 -47 -95q0 -41 96 -137q109 -112 109 -223q0 -89 -58.5 -171.5 t-155.5 -132.5t-202 -50t-171 48t-66 126q0 57 33 94t83 37q40 0 61 -23t21 -53q0 -16 -6 -31q-14 -41 -37 -57l-24 -19q39 -49 106 -49q43 0 78.5 39t54 90t28 88t9.5 45q0 25 -11 50t-19 35t-29 34q-64 69 -64 178q0 46 6.5 80t28 69t36.5 54t56 66q27 27 44 57t40 102 q0 1 20.5 75t20.5 100q0 18 -5.5 38t-21.5 46.5t-54 43.5t-93 17q-51 0 -88.5 -6t-65 -20.5t-45 -32.5t-31 -50t-21.5 -63t-17 -82l-183 -979q-22 -111 -57 -213q-29 -87 -72.5 -152.5t-83.5 -98.5t-85.5 -52.5t-70.5 -24t-46 -4.5q-81 0 -134 44.5t-53 115.5z" />
<glyph unicode="&#xe0;" d="M197 311q0 83 23.5 169t70.5 166t111 142.5t153.5 100t189.5 37.5q123 0 199 -78q43 43 96 43q42 0 67.5 -25t25.5 -61q0 -8 -9 -43l-137 -553q-12 -50 -12 -88q0 -64 39 -64q71 0 123 222q11 38 19.5 45.5t45.5 7.5h5q19 0 27.5 -1t17 -7.5t8.5 -20.5q0 -6 -8.5 -37.5 t-28 -82t-43.5 -89.5q-72 -110 -174 -110q-65 0 -124 26.5t-87 77.5q-131 -104 -271 -104q-62 0 -117.5 17.5t-104 54t-77 102t-28.5 153.5zM416 203q0 -79 35 -112.5t81 -33.5q127 0 238 148q4 32 6 37l121 483q-17 61 -57 94t-95 33q-19 0 -39 -4.5t-47 -19.5t-51.5 -39 t-50.5 -67t-47 -99q-24 -61 -59 -203.5t-35 -216.5zM657 1333q23 42 65 70.5t81 28.5q8 0 14.5 -0.5t12 -3t9.5 -4t9 -6.5t7.5 -7t7 -9.5t6 -9.5t7 -11.5t7.5 -12.5l133 -233q15 -18 6 -39q-8 -14 -39.5 -41t-52.5 -27q-11 0 -27 12l-221 183q-61 42 -25 110z" />
<glyph unicode="&#xe1;" d="M197 311q0 83 23.5 169t70.5 166t111 142.5t153.5 100t189.5 37.5q123 0 199 -78q43 43 96 43q42 0 67.5 -25t25.5 -61q0 -8 -9 -43l-137 -553q-12 -50 -12 -88q0 -64 39 -64q71 0 123 222q11 38 19.5 45.5t45.5 7.5h5q19 0 27.5 -1t17 -7.5t8.5 -20.5q0 -6 -8.5 -37.5 t-28 -82t-43.5 -89.5q-72 -110 -174 -110q-65 0 -124 26.5t-87 77.5q-131 -104 -271 -104q-62 0 -117.5 17.5t-104 54t-77 102t-28.5 153.5zM416 203q0 -79 35 -112.5t81 -33.5q127 0 238 148q4 32 6 37l121 483q-17 61 -57 94t-95 33q-19 0 -39 -4.5t-47 -19.5t-51.5 -39 t-50.5 -67t-47 -99q-24 -61 -59 -203.5t-35 -216.5zM737 1096q0 21 25 39l250 233q27 26 38 35.5t31.5 19t42.5 9.5q39 0 68 -28.5t29 -70.5q0 -69 -80 -110l-314 -183q-20 -12 -32 -12q-21 0 -39.5 27.5t-18.5 40.5z" />
<glyph unicode="&#xe2;" d="M197 311q0 83 23.5 169t70.5 166t111 142.5t153.5 100t189.5 37.5q123 0 199 -78q43 43 96 43q42 0 67.5 -25t25.5 -61q0 -8 -9 -43l-137 -553q-12 -50 -12 -88q0 -64 39 -64q71 0 123 222q11 38 19.5 45.5t45.5 7.5h5q19 0 27.5 -1t17 -7.5t8.5 -20.5q0 -6 -8.5 -37.5 t-28 -82t-43.5 -89.5q-72 -110 -174 -110q-65 0 -124 26.5t-87 77.5q-131 -104 -271 -104q-62 0 -117.5 17.5t-104 54t-77 102t-28.5 153.5zM416 203q0 -79 35 -112.5t81 -33.5q127 0 238 148q4 32 6 37l121 483q-17 61 -57 94t-95 33q-19 0 -39 -4.5t-47 -19.5t-51.5 -39 t-50.5 -67t-47 -99q-24 -61 -59 -203.5t-35 -216.5zM512 1063l424 379l299 -379l-47 -45l-289 203l-356 -203z" />
<glyph unicode="&#xe3;" d="M197 311q0 83 23.5 169t70.5 166t111 142.5t153.5 100t189.5 37.5q123 0 199 -78q43 43 96 43q42 0 67.5 -25t25.5 -61q0 -8 -9 -43l-137 -553q-12 -50 -12 -88q0 -64 39 -64q71 0 123 222q11 38 19.5 45.5t45.5 7.5h5q19 0 27.5 -1t17 -7.5t8.5 -20.5q0 -6 -8.5 -37.5 t-28 -82t-43.5 -89.5q-72 -110 -174 -110q-65 0 -124 26.5t-87 77.5q-131 -104 -271 -104q-62 0 -117.5 17.5t-104 54t-77 102t-28.5 153.5zM416 203q0 -79 35 -112.5t81 -33.5q127 0 238 148q4 32 6 37l121 483q-17 61 -57 94t-95 33q-19 0 -39 -4.5t-47 -19.5t-51.5 -39 t-50.5 -67t-47 -99q-24 -61 -59 -203.5t-35 -216.5zM530 1145q0 6 4.5 14t13 17.5t17.5 18.5t22 20t22 18.5t21.5 17.5t16.5 13q1 1 25.5 18.5t36.5 25t35.5 20.5t45 18.5t41.5 5.5q67 0 125 -66q29 -34 47 -46.5t39 -12.5q9 0 19.5 2.5t22.5 7.5t22 10t23 13.5t21.5 14 t21.5 15.5t17.5 13.5t16.5 12.5l11 9q27 27 43 27q36 0 36 -37q0 -8 -9.5 -21t-25.5 -28.5t-31 -28.5t-34 -28t-25 -21q-100 -80 -176 -80q-35 0 -65.5 15.5t-73.5 64.5q-33 45 -72 45q-64 0 -180 -105q-20 -20 -37 -20q-18 0 -27.5 12t-9.5 25z" />
<glyph unicode="&#xe4;" d="M197 311q0 83 23.5 169t70.5 166t111 142.5t153.5 100t189.5 37.5q123 0 199 -78q43 43 96 43q42 0 67.5 -25t25.5 -61q0 -8 -9 -43l-137 -553q-12 -50 -12 -88q0 -64 39 -64q71 0 123 222q11 38 19.5 45.5t45.5 7.5h5q19 0 27.5 -1t17 -7.5t8.5 -20.5q0 -6 -8.5 -37.5 t-28 -82t-43.5 -89.5q-72 -110 -174 -110q-65 0 -124 26.5t-87 77.5q-131 -104 -271 -104q-62 0 -117.5 17.5t-104 54t-77 102t-28.5 153.5zM416 203q0 -79 35 -112.5t81 -33.5q127 0 238 148q4 32 6 37l121 483q-17 61 -57 94t-95 33q-19 0 -39 -4.5t-47 -19.5t-51.5 -39 t-50.5 -67t-47 -99q-24 -61 -59 -203.5t-35 -216.5zM522 1206q0 61 51.5 110.5t114.5 49.5q53 0 83 -34t30 -77q0 -62 -49 -110.5t-113 -48.5q-52 0 -83.5 32t-33.5 78zM1024 1206q0 61 51.5 110.5t114.5 49.5q53 0 83 -34t30 -77q0 -62 -49 -110.5t-113 -48.5 q-52 0 -83.5 32t-33.5 78z" />
<glyph unicode="&#xe5;" d="M197 311q0 83 23.5 169t70.5 166t111 142.5t153.5 100t189.5 37.5q123 0 199 -78q43 43 96 43q42 0 67.5 -25t25.5 -61q0 -8 -9 -43l-137 -553q-12 -50 -12 -88q0 -64 39 -64q71 0 123 222q11 38 19.5 45.5t45.5 7.5h5q19 0 27.5 -1t17 -7.5t8.5 -20.5q0 -6 -8.5 -37.5 t-28 -82t-43.5 -89.5q-72 -110 -174 -110q-65 0 -124 26.5t-87 77.5q-131 -104 -271 -104q-62 0 -117.5 17.5t-104 54t-77 102t-28.5 153.5zM416 203q0 -79 35 -112.5t81 -33.5q127 0 238 148q4 32 6 37l121 483q-17 61 -57 94t-95 33q-19 0 -39 -4.5t-47 -19.5t-51.5 -39 t-50.5 -67t-47 -99q-24 -61 -59 -203.5t-35 -216.5zM678 1229q0 81 77.5 145t209.5 64q97 0 148.5 -36t51.5 -99q0 -79 -75.5 -144t-210.5 -65q-95 0 -148 35t-53 100zM805 1227q0 -17 7.5 -27.5t23.5 -15t29.5 -5.5t35.5 -1q83 0 107 30q15 20 22.5 50.5t7.5 46.5 q0 17 -7.5 27.5t-23 15t-29 5.5t-36.5 1q-79 0 -106 -31q-15 -17 -23 -49.5t-8 -46.5z" />
<glyph unicode="&#xe6;" horiz-adv-x="1693" d="M182 217q0 16 4 38.5t19 65t39.5 85t72.5 95.5t111 99q187 132 533 238q10 35 34 56t42 26.5t34 5.5q66 0 84 -68q126 68 275 68q111 0 187.5 -53.5t76.5 -143.5q0 -283 -545 -283h-92q-27 -113 -27 -180q0 -110 53 -159.5t136 -49.5q26 0 55 5t75.5 19.5t99.5 51 t101 90.5q15 21 31 21q15 0 39.5 -26t24.5 -40q0 -9 -16.5 -30.5t-52.5 -49.5t-84 -53.5t-121 -43t-154 -17.5q-156 0 -256 82q-9 -26 -25.5 -44.5t-34.5 -25.5t-29.5 -9.5t-19.5 -2.5q-75 0 -82 73q-102 -73 -231 -73q-166 0 -261.5 62t-95.5 171zM414 156q0 -99 137 -99 q90 0 169 67t93 126l125 500q-106 -40 -200.5 -103.5t-157.5 -134.5q-46 -50 -80 -105.5t-49.5 -95t-25 -79t-10.5 -53.5t-1 -23zM1075 520h43h45.5t55.5 2t65 5.5t65 11t65 17.5t56.5 26.5t48 37t30.5 49t12 62.5q0 48 -34.5 84.5t-101.5 36.5q-50 0 -113 -22.5t-118 -77.5 q-81 -87 -119 -232z" />
<glyph unicode="&#xe7;" horiz-adv-x="1089" d="M219 328q0 81 25 164.5t76.5 161t122.5 138.5t170 97.5t212 36.5q123 0 191.5 -54.5t68.5 -134.5q0 -67 -41 -113t-106 -46q-39 0 -64 18t-31.5 37t-6.5 39q0 5 1 12.5t6.5 26.5t15.5 35.5t31 34.5t50 28q-41 43 -117 43q-26 0 -56.5 -7.5t-68.5 -25.5t-76 -55.5 t-67 -89.5q-39 -78 -76 -224.5t-37 -211.5q0 -88 45 -134.5t131 -46.5q27 0 56.5 3.5t90 17t125.5 52t118 97.5q15 15 28 15q14 0 38 -26.5t24 -39.5q0 -22 -58 -69.5t-133 -77.5q-76 -29 -196 -41l-23 -92q87 0 138 -41t36 -111q-7 -28 -24.5 -50.5t-48 -38.5t-59.5 -27.5 t-77 -18.5t-82.5 -11t-93 -5.5t-90.5 -2t-93 -0.5h-9q-23 0 -36 17.5t-7 40.5t27 40t44 17q64 0 100.5 0.5t90 4t81 12t31.5 22.5q2 9 -4 15.5t-22.5 10.5t-31.5 6.5t-42 3.5t-42.5 1h-43.5l53 217q-94 20 -155 73.5t-85 117.5t-24 139z" />
<glyph unicode="&#xe8;" horiz-adv-x="1089" d="M225 342q0 157 75 290t213.5 213.5t309.5 80.5q118 0 192.5 -53t74.5 -144q0 -283 -529 -283h-82q-33 -132 -33 -200q0 -92 44.5 -140.5t130.5 -48.5q19 0 37.5 1t66 10t90 25.5t96.5 51t97 82.5q15 15 28 15q14 0 38 -26.5t24 -39.5q0 -22 -58 -69.5t-133 -77.5 q-120 -45 -289 -45q-190 0 -291.5 95t-101.5 263zM498 520q40 0 66 0.5t78.5 4.5t89 11.5t82.5 23t74 37t48 56.5t20 78q0 52 -35 86.5t-98 34.5q-59 0 -118 -25.5t-99 -76.5q-41 -46 -63 -96t-45 -134zM598 1333q23 42 64.5 70.5t80.5 28.5q8 0 14.5 -0.5t12 -3t9.5 -4 t9 -6.5t7.5 -7t7 -9.5t6 -9.5t7 -11.5t7.5 -12.5l133 -233q16 -19 7 -39q-8 -14 -40 -41t-53 -27q-10 0 -26 12l-221 183q-61 42 -25 110z" />
<glyph unicode="&#xe9;" horiz-adv-x="1089" d="M225 342q0 157 75 290t213.5 213.5t309.5 80.5q118 0 192.5 -53t74.5 -144q0 -283 -529 -283h-82q-33 -132 -33 -200q0 -92 44.5 -140.5t130.5 -48.5q19 0 37.5 1t66 10t90 25.5t96.5 51t97 82.5q15 15 28 15q14 0 38 -26.5t24 -39.5q0 -22 -58 -69.5t-133 -77.5 q-120 -45 -289 -45q-190 0 -291.5 95t-101.5 263zM498 520q40 0 66 0.5t78.5 4.5t89 11.5t82.5 23t74 37t48 56.5t20 78q0 52 -35 86.5t-98 34.5q-59 0 -118 -25.5t-99 -76.5q-41 -46 -63 -96t-45 -134zM678 1096q0 22 24 39l250 233q27 25 38.5 35t32 19.5t42.5 9.5 q39 0 67.5 -28.5t28.5 -70.5q0 -69 -80 -110l-313 -183q-20 -12 -33 -12q-21 0 -39 27.5t-18 40.5z" />
<glyph unicode="&#xea;" horiz-adv-x="1089" d="M225 342q0 157 75 290t213.5 213.5t309.5 80.5q118 0 192.5 -53t74.5 -144q0 -283 -529 -283h-82q-33 -132 -33 -200q0 -92 44.5 -140.5t130.5 -48.5q19 0 37.5 1t66 10t90 25.5t96.5 51t97 82.5q15 15 28 15q14 0 38 -26.5t24 -39.5q0 -22 -58 -69.5t-133 -77.5 q-120 -45 -289 -45q-190 0 -291.5 95t-101.5 263zM453 1063l424 379l299 -379l-48 -45l-288 203l-357 -203zM498 520q40 0 66 0.5t78.5 4.5t89 11.5t82.5 23t74 37t48 56.5t20 78q0 52 -35 86.5t-98 34.5q-59 0 -118 -25.5t-99 -76.5q-41 -46 -63 -96t-45 -134z" />
<glyph unicode="&#xeb;" horiz-adv-x="1089" d="M225 342q0 157 75 290t213.5 213.5t309.5 80.5q118 0 192.5 -53t74.5 -144q0 -283 -529 -283h-82q-33 -132 -33 -200q0 -92 44.5 -140.5t130.5 -48.5q19 0 37.5 1t66 10t90 25.5t96.5 51t97 82.5q15 15 28 15q14 0 38 -26.5t24 -39.5q0 -22 -58 -69.5t-133 -77.5 q-120 -45 -289 -45q-190 0 -291.5 95t-101.5 263zM463 1206q0 61 51.5 110.5t114.5 49.5q53 0 82.5 -34t29.5 -77q0 -62 -48.5 -110.5t-112.5 -48.5q-52 0 -83.5 32t-33.5 78zM498 520q40 0 66 0.5t78.5 4.5t89 11.5t82.5 23t74 37t48 56.5t20 78q0 52 -35 86.5t-98 34.5 q-59 0 -118 -25.5t-99 -76.5q-41 -46 -63 -96t-45 -134zM965 1206q0 61 51 110.5t114 49.5q53 0 83 -34t30 -77q0 -62 -49 -110.5t-113 -48.5q-52 0 -83 32t-33 78z" />
<glyph unicode="&#xec;" horiz-adv-x="729" d="M158 606q0 12 8.5 38.5t25 63t43.5 74.5t60 70.5t79 53t97 20.5q87 0 151 -50t64 -133q0 -37 -18 -79l-185 -488q-16 -48 -16 -82q0 -18 6 -27t10.5 -9.5t12.5 -0.5q113 0 188 248q6 19 15.5 23t41.5 4h5q19 0 27.5 -1t17 -7.5t8.5 -20.5q0 -15 -11.5 -49.5t-38 -81 t-61.5 -88.5t-89 -71t-114 -29q-87 0 -151 50t-64 132q0 35 19 80l184 487q16 48 16 82q0 14 -2.5 22t-8 11t-8.5 3.5t-9 0.5q-114 0 -189 -248q-3 -10 -6 -15.5t-11.5 -8t-14.5 -2.5h-25q-41 0 -49 7q-8 8 -8 21zM416 1333q23 42 64.5 70.5t80.5 28.5q8 0 14.5 -0.5t12 -3 t9.5 -4t9 -6.5t7.5 -7t7 -9.5t6 -9.5t7 -11.5t7.5 -12.5l133 -233q15 -18 6 -39q-8 -14 -39.5 -41t-52.5 -27q-10 0 -26 12l-222 183q-60 42 -24 110z" />
<glyph unicode="&#xed;" horiz-adv-x="729" d="M158 606q0 12 8.5 38.5t25 63t43.5 74.5t60 70.5t79 53t97 20.5q87 0 151 -50t64 -133q0 -37 -18 -79l-185 -488q-16 -48 -16 -82q0 -18 6 -27t10.5 -9.5t12.5 -0.5q113 0 188 248q6 19 15.5 23t41.5 4h5q19 0 27.5 -1t17 -7.5t8.5 -20.5q0 -15 -11.5 -49.5t-38 -81 t-61.5 -88.5t-89 -71t-114 -29q-87 0 -151 50t-64 132q0 35 19 80l184 487q16 48 16 82q0 14 -2.5 22t-8 11t-8.5 3.5t-9 0.5q-114 0 -189 -248q-3 -10 -6 -15.5t-11.5 -8t-14.5 -2.5h-25q-41 0 -49 7q-8 8 -8 21zM496 1096q0 22 24 39l250 233q27 25 38.5 35t32 19.5 t42.5 9.5q39 0 67.5 -28.5t28.5 -70.5q0 -69 -80 -110l-313 -183q-20 -12 -33 -12q-21 0 -39 27.5t-18 40.5z" />
<glyph unicode="&#xee;" horiz-adv-x="729" d="M158 606q0 12 8.5 38.5t25 63t43.5 74.5t60 70.5t79 53t97 20.5q87 0 151 -50t64 -133q0 -37 -18 -79l-185 -488q-16 -48 -16 -82q0 -18 6 -27t10.5 -9.5t12.5 -0.5q113 0 188 248q6 19 15.5 23t41.5 4h5q19 0 27.5 -1t17 -7.5t8.5 -20.5q0 -15 -11.5 -49.5t-38 -81 t-61.5 -88.5t-89 -71t-114 -29q-87 0 -151 50t-64 132q0 35 19 80l184 487q16 48 16 82q0 14 -2.5 22t-8 11t-8.5 3.5t-9 0.5q-114 0 -189 -248q-3 -10 -6 -15.5t-11.5 -8t-14.5 -2.5h-25q-41 0 -49 7q-8 8 -8 21zM270 1063l424 379l299 -379l-47 -45l-289 203l-356 -203z " />
<glyph unicode="&#xef;" horiz-adv-x="729" d="M158 606q0 12 8.5 38.5t25 63t43.5 74.5t60 70.5t79 53t97 20.5q87 0 151 -50t64 -133q0 -37 -18 -79l-185 -488q-16 -48 -16 -82q0 -18 6 -27t10.5 -9.5t12.5 -0.5q113 0 188 248q6 19 15.5 23t41.5 4h5q19 0 27.5 -1t17 -7.5t8.5 -20.5q0 -15 -11.5 -49.5t-38 -81 t-61.5 -88.5t-89 -71t-114 -29q-87 0 -151 50t-64 132q0 35 19 80l184 487q16 48 16 82q0 14 -2.5 22t-8 11t-8.5 3.5t-9 0.5q-114 0 -189 -248q-3 -10 -6 -15.5t-11.5 -8t-14.5 -2.5h-25q-41 0 -49 7q-8 8 -8 21zM281 1206q0 61 51 110.5t114 49.5q53 0 83 -34t30 -77 q0 -62 -49 -110.5t-113 -48.5q-52 0 -83 32t-33 78zM782 1206q0 61 51.5 110.5t114.5 49.5q53 0 83 -34t30 -77q0 -62 -49 -110.5t-113 -48.5q-52 0 -83.5 32t-33.5 78z" />
<glyph unicode="&#xf0;" d="M217 313q0 82 26 169t79 169.5t125.5 148t173.5 105t215 39.5q96 0 161 -51q-24 144 -106 260l-164 -92q-23 -10 -31 -10q-17 0 -28 12t-11 29q0 32 35 53l139 76q-79 79 -194 125q-19 6 -19 24q0 20 17 36.5t39 12.5q172 -24 307 -114l180 100q17 10 31 10 q17 0 27 -11.5t10 -29.5q0 -32 -35 -53l-135 -76q196 -183 196 -465q0 -80 -11 -139.5t-44 -189.5q-39 -155 -134.5 -264.5t-214.5 -159.5t-251 -50q-171 0 -277 84t-106 252zM444 229q0 -51 16.5 -86.5t44.5 -52.5t56 -24t60 -7q23 0 49.5 5t70 22t85 61t67.5 109 q33 83 65.5 212.5t32.5 199.5q0 95 -43 148.5t-127 53.5q-30 0 -60.5 -7t-68 -24t-73 -52.5t-60.5 -86.5q-34 -65 -74.5 -228.5t-40.5 -242.5z" />
<glyph unicode="&#xf1;" horiz-adv-x="1331" d="M158 606q0 6 8.5 37t28 82.5t43.5 89.5q41 55 68 76q47 35 106 35q29 0 59 -6.5t64 -21t62.5 -44t43.5 -70.5q138 142 313 142q130 0 206.5 -55.5t76.5 -176.5q0 -33 -9 -80t-26.5 -103t-30.5 -96t-32.5 -93.5t-22.5 -61.5q-47 -125 -47 -166q0 -18 6 -27t10.5 -9.5 t12.5 -0.5q113 0 188 248q6 19 15.5 23t41.5 4h5q19 0 27.5 -1t17 -7.5t8.5 -20.5q0 -15 -11.5 -49.5t-38 -81t-61.5 -88.5t-89 -71t-114 -29q-87 0 -151 50t-64 132q0 31 25 102q43 105 87 246t44 221q0 19 -0.5 28.5t-5 29.5t-12.5 30.5t-26 19.5t-44 9q-53 0 -103 -20.5 t-85 -50.5t-63 -65.5t-43.5 -64.5t-20.5 -49l-127 -508q-9 -37 -28.5 -61.5t-42 -33.5t-35.5 -12t-23 -3q-37 0 -65 22t-28 66q0 10 9 45l145 583q12 50 12 88q0 64 -39 64q-70 0 -122 -221q-10 -38 -19.5 -45.5t-46.5 -7.5q-41 0 -49 7q-8 8 -8 21zM590 1145q0 6 4.5 14 t13 17.5t17.5 18.5t22 20t22 18.5t21.5 17.5t16.5 13q1 1 25.5 18.5t36.5 25t35.5 20.5t45 18.5t41.5 5.5q67 0 125 -66q29 -34 47 -46.5t39 -12.5q10 0 23 3.5t24 8t26 13.5t24.5 15t24.5 17t20.5 15.5t18.5 14.5l13 11q27 27 43 27q37 0 37 -37q0 -8 -9.5 -21t-25.5 -28.5 t-31 -28.5t-34 -28t-25 -21q-100 -80 -176 -80q-35 0 -66 15.5t-74 64.5q-18 25 -33.5 35t-37.5 10q-64 0 -180 -105q-20 -20 -37 -20q-18 0 -27.5 12t-9.5 25z" />
<glyph unicode="&#xf2;" d="M219 328q0 78 24 160.5t74.5 161t121 140t172 99t218.5 37.5q184 0 287 -92t103 -252q0 -78 -24.5 -160.5t-75.5 -161t-122 -140t-172 -99t-217 -37.5q-184 0 -286.5 91.5t-102.5 252.5zM442 238q0 -52 16 -89t42.5 -56t54 -27.5t57.5 -8.5q82 0 159.5 51.5t119.5 145.5 q37 83 70.5 219t33.5 199q0 52 -16 89t-42.5 56t-54 27t-57.5 8q-82 0 -159 -51.5t-119 -145.5q-38 -83 -71.5 -218.5t-33.5 -198.5zM657 1333q23 42 65 70.5t81 28.5q8 0 14.5 -0.5t12 -3t9.5 -4t9 -6.5t7.5 -7t7 -9.5t6 -9.5t7 -11.5t7.5 -12.5l133 -233q15 -18 6 -39 q-8 -14 -39.5 -41t-52.5 -27q-11 0 -27 12l-221 183q-61 42 -25 110z" />
<glyph unicode="&#xf3;" d="M219 328q0 78 24 160.5t74.5 161t121 140t172 99t218.5 37.5q184 0 287 -92t103 -252q0 -78 -24.5 -160.5t-75.5 -161t-122 -140t-172 -99t-217 -37.5q-184 0 -286.5 91.5t-102.5 252.5zM442 238q0 -52 16 -89t42.5 -56t54 -27.5t57.5 -8.5q82 0 159.5 51.5t119.5 145.5 q37 83 70.5 219t33.5 199q0 52 -16 89t-42.5 56t-54 27t-57.5 8q-82 0 -159 -51.5t-119 -145.5q-38 -83 -71.5 -218.5t-33.5 -198.5zM737 1096q0 21 25 39l250 233q27 26 38 35.5t31.5 19t42.5 9.5q39 0 68 -28.5t29 -70.5q0 -69 -80 -110l-314 -183q-20 -12 -32 -12 q-21 0 -39.5 27.5t-18.5 40.5z" />
<glyph unicode="&#xf4;" d="M219 328q0 78 24 160.5t74.5 161t121 140t172 99t218.5 37.5q184 0 287 -92t103 -252q0 -78 -24.5 -160.5t-75.5 -161t-122 -140t-172 -99t-217 -37.5q-184 0 -286.5 91.5t-102.5 252.5zM442 238q0 -52 16 -89t42.5 -56t54 -27.5t57.5 -8.5q82 0 159.5 51.5t119.5 145.5 q37 83 70.5 219t33.5 199q0 52 -16 89t-42.5 56t-54 27t-57.5 8q-82 0 -159 -51.5t-119 -145.5q-38 -83 -71.5 -218.5t-33.5 -198.5zM512 1063l424 379l299 -379l-47 -45l-289 203l-356 -203z" />
<glyph unicode="&#xf5;" d="M219 328q0 78 24 160.5t74.5 161t121 140t172 99t218.5 37.5q184 0 287 -92t103 -252q0 -78 -24.5 -160.5t-75.5 -161t-122 -140t-172 -99t-217 -37.5q-184 0 -286.5 91.5t-102.5 252.5zM442 238q0 -52 16 -89t42.5 -56t54 -27.5t57.5 -8.5q82 0 159.5 51.5t119.5 145.5 q37 83 70.5 219t33.5 199q0 52 -16 89t-42.5 56t-54 27t-57.5 8q-82 0 -159 -51.5t-119 -145.5q-38 -83 -71.5 -218.5t-33.5 -198.5zM530 1145q0 6 4.5 14t13 17.5t17.5 18.5t22 20t22 18.5t21.5 17.5t16.5 13q1 1 25.5 18.5t36.5 25t35.5 20.5t45 18.5t41.5 5.5 q67 0 125 -66q29 -34 47 -46.5t39 -12.5q9 0 19.5 2.5t22.5 7.5t22 10t23 13.5t21.5 14t21.5 15.5t17.5 13.5t16.5 12.5l11 9q27 27 43 27q36 0 36 -37q0 -8 -9.5 -21t-25.5 -28.5t-31 -28.5t-34 -28t-25 -21q-100 -80 -176 -80q-35 0 -65.5 15.5t-73.5 64.5q-33 45 -72 45 q-64 0 -180 -105q-20 -20 -37 -20q-18 0 -27.5 12t-9.5 25z" />
<glyph unicode="&#xf6;" d="M219 328q0 78 24 160.5t74.5 161t121 140t172 99t218.5 37.5q184 0 287 -92t103 -252q0 -78 -24.5 -160.5t-75.5 -161t-122 -140t-172 -99t-217 -37.5q-184 0 -286.5 91.5t-102.5 252.5zM442 238q0 -52 16 -89t42.5 -56t54 -27.5t57.5 -8.5q82 0 159.5 51.5t119.5 145.5 q37 83 70.5 219t33.5 199q0 52 -16 89t-42.5 56t-54 27t-57.5 8q-82 0 -159 -51.5t-119 -145.5q-38 -83 -71.5 -218.5t-33.5 -198.5zM522 1206q0 61 51.5 110.5t114.5 49.5q53 0 83 -34t30 -77q0 -62 -49 -110.5t-113 -48.5q-52 0 -83.5 32t-33.5 78zM1024 1206 q0 61 51.5 110.5t114.5 49.5q53 0 83 -34t30 -77q0 -62 -49 -110.5t-113 -48.5q-52 0 -83.5 32t-33.5 78z" />
<glyph unicode="&#xf7;" horiz-adv-x="1814" d="M313 512q0 22 9.5 36t27.5 19.5t29 6.5t29 1h1255q17 0 28.5 -1t29 -6.5t27 -19.5t9.5 -36q0 -61 -82 -61h-1280q-82 0 -82 61zM762 4q0 75 57.5 127.5t124.5 52.5q56 0 90.5 -33.5t34.5 -87.5q0 -72 -57 -126t-127 -54q-49 0 -86 31t-37 90zM1001 963q0 75 58 127.5 t125 52.5q56 0 90.5 -33.5t34.5 -87.5q0 -72 -57.5 -126t-127.5 -54q-49 0 -86 31t-37 90z" />
<glyph unicode="&#xf8;" d="M158 -199q0 7 0.5 9t3.5 9t10.5 16.5t22.5 27.5l153 188q-117 103 -117 271q0 83 24.5 168t75.5 165t121 142t168.5 99.5t210.5 37.5q122 0 195 -39l176 221q15 19 22.5 25t18.5 6q13 0 25 -9.5t12 -27.5q0 -9 -2.5 -14t-12.5 -19q-5 -6 -8 -10l-167 -211 q116 -91 116 -268q0 -83 -24.5 -168.5t-75.5 -165t-121 -142t-168.5 -100t-210.5 -37.5q-121 0 -194 39q-137 -174 -164 -207q-5 -5 -12 -13q-33 -29 -41 -30q-14 0 -25.5 10.5t-11.5 26.5zM430 244q0 -53 10 -76l516 643q-47 49 -129 49q-86 0 -166.5 -54t-128.5 -153 q-39 -81 -70.5 -214t-31.5 -195zM481 100q47 -51 129 -51q86 0 166.5 54t128.5 153q39 81 71 214.5t32 195.5q0 49 -11 75z" />
<glyph unicode="&#xf9;" horiz-adv-x="1271" d="M158 606q0 12 8.5 38.5t25 63t43.5 74.5t60 70.5t79 53t97 20.5q87 0 151 -50t64 -133q0 -9 -1 -17.5t-2.5 -15t-4.5 -17t-5 -16.5t-7.5 -21t-8.5 -23q-35 -91 -54.5 -147.5t-41.5 -143t-22 -143.5q0 -19 1 -32.5t6.5 -36t16 -37t31.5 -25.5t51 -11q72 0 141 60 q40 40 50 55.5t18 46.5l141 576q8 36 26 61t39.5 35.5t37 14t28.5 3.5q37 0 65 -22t28 -66q0 -10 -9 -45l-141 -567q-12 -50 -12 -88q0 -64 39 -64q71 0 123 222q11 38 19.5 45.5t45.5 7.5q22 0 30 -0.5t17.5 -7t9.5 -21.5q0 -7 -8 -38t-27.5 -81.5t-43.5 -89.5 q-72 -110 -175 -110q-65 0 -123.5 26.5t-86.5 77.5q-111 -104 -244 -104q-137 0 -220 63t-83 195q0 50 17 121t35.5 124t57.5 158q9 23 13 35q36 80 36 135q0 14 -2.5 22t-8 11t-8.5 3.5t-9 0.5q-114 0 -189 -248q-3 -10 -6 -15.5t-11.5 -8t-14.5 -2.5h-25q-41 0 -49 7 q-8 8 -8 21zM688 1333q23 42 65 70.5t81 28.5q9 0 16.5 -1.5t12.5 -3t10.5 -6t8.5 -6.5t8.5 -9.5t7 -10.5t7.5 -13.5t8 -13.5l134 -233q15 -18 6 -39q-8 -14 -39.5 -41t-52.5 -27q-11 0 -27 12l-221 183q-61 42 -25 110z" />
<glyph unicode="&#xfa;" horiz-adv-x="1271" d="M158 606q0 12 8.5 38.5t25 63t43.5 74.5t60 70.5t79 53t97 20.5q87 0 151 -50t64 -133q0 -9 -1 -17.5t-2.5 -15t-4.5 -17t-5 -16.5t-7.5 -21t-8.5 -23q-35 -91 -54.5 -147.5t-41.5 -143t-22 -143.5q0 -19 1 -32.5t6.5 -36t16 -37t31.5 -25.5t51 -11q72 0 141 60 q40 40 50 55.5t18 46.5l141 576q8 36 26 61t39.5 35.5t37 14t28.5 3.5q37 0 65 -22t28 -66q0 -10 -9 -45l-141 -567q-12 -50 -12 -88q0 -64 39 -64q71 0 123 222q11 38 19.5 45.5t45.5 7.5q22 0 30 -0.5t17.5 -7t9.5 -21.5q0 -7 -8 -38t-27.5 -81.5t-43.5 -89.5 q-72 -110 -175 -110q-65 0 -123.5 26.5t-86.5 77.5q-111 -104 -244 -104q-137 0 -220 63t-83 195q0 50 17 121t35.5 124t57.5 158q9 23 13 35q36 80 36 135q0 14 -2.5 22t-8 11t-8.5 3.5t-9 0.5q-114 0 -189 -248q-3 -10 -6 -15.5t-11.5 -8t-14.5 -2.5h-25q-41 0 -49 7 q-8 8 -8 21zM768 1096q0 21 25 39l249 233q27 25 38.5 35t32 19.5t42.5 9.5q39 0 67.5 -28.5t28.5 -70.5q0 -69 -80 -110l-313 -183q-20 -12 -33 -12q-21 0 -39 27.5t-18 40.5z" />
<glyph unicode="&#xfb;" horiz-adv-x="1271" d="M158 606q0 12 8.5 38.5t25 63t43.5 74.5t60 70.5t79 53t97 20.5q87 0 151 -50t64 -133q0 -9 -1 -17.5t-2.5 -15t-4.5 -17t-5 -16.5t-7.5 -21t-8.5 -23q-35 -91 -54.5 -147.5t-41.5 -143t-22 -143.5q0 -19 1 -32.5t6.5 -36t16 -37t31.5 -25.5t51 -11q72 0 141 60 q40 40 50 55.5t18 46.5l141 576q8 36 26 61t39.5 35.5t37 14t28.5 3.5q37 0 65 -22t28 -66q0 -10 -9 -45l-141 -567q-12 -50 -12 -88q0 -64 39 -64q71 0 123 222q11 38 19.5 45.5t45.5 7.5q22 0 30 -0.5t17.5 -7t9.5 -21.5q0 -7 -8 -38t-27.5 -81.5t-43.5 -89.5 q-72 -110 -175 -110q-65 0 -123.5 26.5t-86.5 77.5q-111 -104 -244 -104q-137 0 -220 63t-83 195q0 50 17 121t35.5 124t57.5 158q9 23 13 35q36 80 36 135q0 14 -2.5 22t-8 11t-8.5 3.5t-9 0.5q-114 0 -189 -248q-3 -10 -6 -15.5t-11.5 -8t-14.5 -2.5h-25q-41 0 -49 7 q-8 8 -8 21zM543 1063l424 379l299 -379l-47 -45l-289 203l-357 -203z" />
<glyph unicode="&#xfc;" horiz-adv-x="1271" d="M158 606q0 12 8.5 38.5t25 63t43.5 74.5t60 70.5t79 53t97 20.5q87 0 151 -50t64 -133q0 -9 -1 -17.5t-2.5 -15t-4.5 -17t-5 -16.5t-7.5 -21t-8.5 -23q-35 -91 -54.5 -147.5t-41.5 -143t-22 -143.5q0 -19 1 -32.5t6.5 -36t16 -37t31.5 -25.5t51 -11q72 0 141 60 q40 40 50 55.5t18 46.5l141 576q8 36 26 61t39.5 35.5t37 14t28.5 3.5q37 0 65 -22t28 -66q0 -10 -9 -45l-141 -567q-12 -50 -12 -88q0 -64 39 -64q71 0 123 222q11 38 19.5 45.5t45.5 7.5q22 0 30 -0.5t17.5 -7t9.5 -21.5q0 -7 -8 -38t-27.5 -81.5t-43.5 -89.5 q-72 -110 -175 -110q-65 0 -123.5 26.5t-86.5 77.5q-111 -104 -244 -104q-137 0 -220 63t-83 195q0 50 17 121t35.5 124t57.5 158q9 23 13 35q36 80 36 135q0 14 -2.5 22t-8 11t-8.5 3.5t-9 0.5q-114 0 -189 -248q-3 -10 -6 -15.5t-11.5 -8t-14.5 -2.5h-25q-41 0 -49 7 q-8 8 -8 21zM553 1206q0 61 51.5 110.5t114.5 49.5q53 0 82.5 -34t29.5 -77q0 -62 -48.5 -110.5t-112.5 -48.5q-52 0 -83.5 32t-33.5 78zM1055 1206q0 61 51.5 110.5t114.5 49.5q53 0 82.5 -34t29.5 -77q0 -62 -49 -110.5t-113 -48.5q-52 0 -83 32t-33 78z" />
<glyph unicode="&#xfd;" horiz-adv-x="1150" d="M158 606q0 12 8.5 38.5t25 63t43.5 74.5t60 70.5t79 53t97 20.5q87 0 151 -50t64 -133q0 -9 -1 -17.5t-2.5 -15t-4.5 -17t-5 -16.5t-7.5 -21t-8.5 -23q-35 -91 -54.5 -147.5t-41.5 -143t-22 -143.5q0 -19 1 -32.5t6.5 -36t16 -37t31.5 -25.5t51 -11q73 0 129 49 q29 24 46.5 46t21.5 32.5t8 28.5l147 586q8 31 23 53.5t30 32.5t33.5 16t26.5 7t16 1q37 0 65 -22t28 -66q0 -10 -9 -45l-196 -790q-25 -99 -101.5 -190.5t-193 -150.5t-240.5 -59q-116 0 -188 48.5t-72 129.5q0 66 43 111t105 45q38 0 69 -21.5t31 -72.5q0 -52 -29.5 -86 t-62.5 -49q41 -31 106 -31q111 0 202.5 113t121.5 260q-66 -49 -172 -49q-137 0 -220 63t-83 195q0 50 17 121t35.5 124t57.5 158q9 23 13 35q36 80 36 135q0 14 -2.5 22t-8 11t-8.5 3.5t-9 0.5q-114 0 -189 -248q-3 -10 -6 -15.5t-11.5 -8t-14.5 -2.5h-25q-41 0 -49 7 q-8 8 -8 21zM707 1096q0 22 24 39l250 233q27 25 38.5 35t32 19.5t42.5 9.5q39 0 67.5 -28.5t28.5 -70.5q0 -69 -80 -110l-313 -183q-20 -12 -33 -12q-21 0 -39 27.5t-18 40.5z" />
<glyph unicode="&#xfe;" d="M51 -360q0 21 5.5 34t17 18t19.5 6t24 1q44 0 54.5 5t16.5 28l392 1573q-50 4 -86 4q-16 0 -24 0.5t-20 9.5t-12 27q0 61 64 61l252 12q16 0 30.5 0.5t24.5 -8.5t10 -27q0 -2 -6 -32l-121 -484q31 22 85 40t116 18t117.5 -17.5t104.5 -54.5t77.5 -102.5t28.5 -153.5 q0 -83 -24 -169t-71.5 -165.5t-112 -142t-153.5 -100t-188 -37.5q-112 0 -187 65l-86 -348q27 -2 88 -2q56 0 56 -37q0 -21 -6 -34t-16.5 -18t-17.5 -6t-16 -1q-36 0 -107.5 3t-107.5 3q-30 0 -92 -3t-90 -3q-15 0 -27 10t-12 27zM520 184q17 -61 57 -94t95 -33q24 0 50.5 9 t59.5 31.5t66.5 71t58.5 118.5q23 57 58.5 201.5t35.5 218.5q0 79 -35 112t-81 33q-127 0 -238 -147q-4 -32 -6 -37z" />
<glyph unicode="&#xff;" horiz-adv-x="1150" d="M158 606q0 12 8.5 38.5t25 63t43.5 74.5t60 70.5t79 53t97 20.5q87 0 151 -50t64 -133q0 -9 -1 -17.5t-2.5 -15t-4.5 -17t-5 -16.5t-7.5 -21t-8.5 -23q-35 -91 -54.5 -147.5t-41.5 -143t-22 -143.5q0 -19 1 -32.5t6.5 -36t16 -37t31.5 -25.5t51 -11q73 0 129 49 q29 24 46.5 46t21.5 32.5t8 28.5l147 586q8 31 23 53.5t30 32.5t33.5 16t26.5 7t16 1q37 0 65 -22t28 -66q0 -10 -9 -45l-196 -790q-25 -99 -101.5 -190.5t-193 -150.5t-240.5 -59q-116 0 -188 48.5t-72 129.5q0 66 43 111t105 45q38 0 69 -21.5t31 -72.5q0 -52 -29.5 -86 t-62.5 -49q41 -31 106 -31q111 0 202.5 113t121.5 260q-66 -49 -172 -49q-137 0 -220 63t-83 195q0 50 17 121t35.5 124t57.5 158q9 23 13 35q36 80 36 135q0 14 -2.5 22t-8 11t-8.5 3.5t-9 0.5q-114 0 -189 -248q-3 -10 -6 -15.5t-11.5 -8t-14.5 -2.5h-25q-41 0 -49 7 q-8 8 -8 21zM492 1206q0 61 51 110.5t114 49.5q53 0 83 -34t30 -77q0 -62 -49 -110.5t-113 -48.5q-52 0 -83 32t-33 78zM993 1206q0 61 51.5 110.5t114.5 49.5q53 0 83 -34t30 -77q0 -62 -49 -110.5t-113 -48.5q-52 0 -83.5 32t-33.5 78z" />
<glyph unicode="&#x152;" horiz-adv-x="2336" d="M369 479q0 106 28 217t80.5 218.5t134 202.5t182 167t232.5 114t277 42q59 0 188 -19q115 -16 170 -16h711h16.5t14 -1t12.5 -2.5t9 -4.5t7 -8t4 -12t1.5 -16.5t-1.5 -21.5l-43 -372q-5 -36 -14.5 -46t-44.5 -10q-18 0 -28 1.5t-20 11.5t-10 30q0 2 5.5 49.5t5.5 90.5 q0 46 -8.5 79.5t-19.5 57t-39.5 38.5t-49.5 23t-69.5 12t-79.5 4.5t-99 0.5h-102q-41 0 -50.5 -5t-15.5 -28l-123 -498h156q123 0 175.5 37.5t84.5 151.5q8 34 18 42.5t45 8.5q18 0 26.5 -0.5t20 -9.5t11.5 -27q0 -6 -6 -27l-115 -462q-10 -34 -21 -42t-40 -8 q-18 0 -26.5 0.5t-20 9.5t-11.5 27q2 2 2 6q0 13 2 15q13 54 13 90q0 50 -30.5 71t-133.5 21h-174l-146 -584q14 -2 47 -2h195q49 0 91.5 4t78.5 15t65.5 22t57 32.5t47.5 38t42 47.5t36 52.5t34 61.5t31.5 65t32.5 72q17 41 26.5 48t43.5 7q18 0 26.5 -0.5t19.5 -9.5 t11 -27t-10 -35l-195 -454q-10 -25 -21 -30t-46 -5h-762q-84 0 -185 -16q-119 -19 -192 -19q-85 0 -162.5 15.5t-152.5 53.5t-129.5 95t-87.5 147t-33 203zM647 440q0 -195 83.5 -298t232.5 -103q47 0 79 5t68.5 23.5t63.5 52.5t54.5 94t49.5 146l170 684q27 100 27 183 q0 32 -6 54t-24 43t-56.5 31.5t-96.5 10.5q-101 0 -193 -43t-161 -116t-125.5 -167t-92 -198t-54.5 -206.5t-19 -195.5z" />
<glyph unicode="&#x153;" horiz-adv-x="1693" d="M217 307q0 85 23.5 173t71.5 169t113 145t155.5 102t191.5 38q187 0 277 -141q159 133 381 133q111 0 187.5 -53.5t76.5 -143.5q0 -283 -535 -283h-90q-29 -114 -29 -188q0 -19 1 -35.5t11 -49.5t27 -56t53.5 -41.5t86.5 -18.5q26 0 55 5t75.5 19.5t99.5 51t101 90.5 q15 21 31 21q15 0 39.5 -26t24.5 -40q0 -9 -16.5 -30.5t-52.5 -49.5t-84.5 -53.5t-122.5 -43t-155 -17.5q-120 0 -199.5 42t-115.5 101q-165 -152 -352 -152q-47 0 -91 9.5t-88.5 33.5t-77 60.5t-53 95.5t-20.5 133zM434 197q0 -68 30.5 -108t88.5 -40q21 0 46 8t60.5 28 t71 66t62.5 111q32 77 67 220t35 214q0 86 -36 125t-91 39q-68 0 -132 -57t-110 -185q-22 -64 -57 -207.5t-35 -213.5zM1087 520q46 0 74 0.5t83.5 4.5t92 11.5t83 23t74.5 37.5t47.5 56t19.5 78q0 48 -34.5 84.5t-101.5 36.5q-62 0 -120 -26.5t-97 -65.5q-23 -26 -39 -48 t-40 -73.5t-42 -118.5z" />
<glyph unicode="&#x178;" horiz-adv-x="1773" d="M434 1346q0 21 6 34t17 18t18 6t17 1q46 0 140 -3t142 -3q52 0 156 3t153 3q45 0 45 -37q0 -21 -5.5 -34t-16.5 -18t-19 -6t-22 -1q-51 0 -125 -9l211 -581l494 573q-40 17 -103 17h-12t-13 2t-14.5 5.5t-9 11t-4.5 18.5q0 21 6 34t16.5 18t17.5 6t17 1q38 0 117 -3 t119 -3q33 0 99 3t97 3q19 0 29 -11.5t10 -25.5q0 -21 -5.5 -34t-16.5 -18t-18.5 -6t-20.5 -1q-54 0 -91 -6t-62.5 -21t-35.5 -24t-30 -31l-576 -666l-114 -461q50 -4 100 -4h45h4q20 0 30.5 -1t20.5 -10t10 -26q0 -21 -5.5 -34t-16 -18t-18 -6t-19.5 -1q-50 0 -153 3 t-156 3q-50 0 -152 -3t-151 -3q-45 0 -45 37q0 21 5.5 34t17.5 18t21 6t27 1h45q59 0 82 2q30 5 36.5 9.5t12.5 27.5l107 426l-262 715q-7 19 -12.5 22.5t-28.5 8.5q-18 2 -68 2h-24q-18 0 -24.5 0.5t-19 3.5t-17.5 11t-5 22zM862 1628q0 61 50.5 110.5t113.5 49.5 q53 0 84 -34.5t31 -76.5q0 -62 -49.5 -110.5t-114.5 -48.5q-52 0 -82.5 31.5t-32.5 78.5zM1458 1628q0 61 50.5 110.5t113.5 49.5q53 0 84 -34.5t31 -76.5q0 -62 -49.5 -110.5t-114.5 -48.5q-52 0 -82.5 31.5t-32.5 78.5z" />
<glyph unicode="&#x2c6;" d="M512 1063l424 379l299 -379l-47 -45l-289 203l-356 -203z" />
<glyph unicode="&#x2dc;" d="M530 1145q0 6 4.5 14t13 17.5t17.5 18.5t22 20t22 18.5t21.5 17.5t16.5 13q1 1 25.5 18.5t36.5 25t35.5 20.5t45 18.5t41.5 5.5q67 0 125 -66q29 -34 47 -46.5t39 -12.5q9 0 19.5 2.5t22.5 7.5t22 10t23 13.5t21.5 14t21.5 15.5t17.5 13.5t16.5 12.5l11 9q27 27 43 27 q36 0 36 -37q0 -8 -9.5 -21t-25.5 -28.5t-31 -28.5t-34 -28t-25 -21q-100 -80 -176 -80q-35 0 -65.5 15.5t-73.5 64.5q-33 45 -72 45q-64 0 -180 -105q-20 -20 -37 -20q-18 0 -27.5 12t-9.5 25z" />
<glyph unicode="&#x2000;" horiz-adv-x="940" />
<glyph unicode="&#x2001;" horiz-adv-x="1880" />
<glyph unicode="&#x2002;" horiz-adv-x="940" />
<glyph unicode="&#x2003;" horiz-adv-x="1880" />
<glyph unicode="&#x2004;" horiz-adv-x="626" />
<glyph unicode="&#x2005;" horiz-adv-x="470" />
<glyph unicode="&#x2006;" horiz-adv-x="313" />
<glyph unicode="&#x2007;" horiz-adv-x="313" />
<glyph unicode="&#x2008;" horiz-adv-x="235" />
<glyph unicode="&#x2009;" horiz-adv-x="376" />
<glyph unicode="&#x200a;" horiz-adv-x="104" />
<glyph unicode="&#x2010;" horiz-adv-x="847" d="M188 397q0 2 11.5 48.5t11.5 54.5q8 35 18.5 43t53.5 8h444q18 0 24.5 -0.5t19 -3.5t17.5 -11t5 -22q0 -2 -5 -20t-11 -42t-9 -38q-8 -37 -20 -46.5t-56 -9.5h-436q-16 0 -24.5 0.5t-20.5 4t-17.5 12t-5.5 22.5z" />
<glyph unicode="&#x2011;" horiz-adv-x="847" d="M188 397q0 2 11.5 48.5t11.5 54.5q8 35 18.5 43t53.5 8h444q18 0 24.5 -0.5t19 -3.5t17.5 -11t5 -22q0 -2 -5 -20t-11 -42t-9 -38q-8 -37 -20 -46.5t-56 -9.5h-436q-16 0 -24.5 0.5t-20.5 4t-17.5 12t-5.5 22.5z" />
<glyph unicode="&#x2012;" horiz-adv-x="847" d="M188 397q0 2 11.5 48.5t11.5 54.5q8 35 18.5 43t53.5 8h444q18 0 24.5 -0.5t19 -3.5t17.5 -11t5 -22q0 -2 -5 -20t-11 -42t-9 -38q-8 -37 -20 -46.5t-56 -9.5h-436q-16 0 -24.5 0.5t-20.5 4t-17.5 12t-5.5 22.5z" />
<glyph unicode="&#x2013;" d="M205 561q0 14 4.5 22t16.5 11t18 3.5t24 0.5h955q18 0 24 -0.5t18 -3.5t16.5 -11t4.5 -22t-4.5 -22t-16.5 -11t-18 -3.5t-24 -0.5h-955q-18 0 -24 0.5t-18 3.5t-16.5 11t-4.5 22z" />
<glyph unicode="&#x2014;" horiz-adv-x="2420" d="M268 561q0 11 4.5 18.5t8.5 11t16 5.5t16 2h19h2038q18 0 24 -0.5t18 -3.5t16.5 -11t4.5 -22t-4.5 -22t-16.5 -11t-18 -3.5t-24 -0.5h-2038h-19t-16 2t-16 5.5t-8.5 11t-4.5 18.5z" />
<glyph unicode="&#x2018;" horiz-adv-x="729" d="M416 891q0 75 31.5 156t78 145.5t96.5 117.5t90 82t56 29t26.5 -13t10.5 -28q0 -4 -0.5 -6l-1 -4t-3 -4l-5 -4t-8 -6.5t-11.5 -9.5q-196 -135 -268 -355q44 33 106 33q65 0 95 -37t30 -82q0 -66 -52 -124t-132 -58q-51 0 -84 28t-44 63.5t-11 76.5z" />
<glyph unicode="&#x2019;" horiz-adv-x="729" d="M463 764q0 16 24 31q208 145 273 360q-35 -35 -107 -35q-59 0 -92 33t-33 86q0 67 52.5 124.5t132.5 57.5q56 0 96.5 -40t40.5 -130q0 -76 -31.5 -157.5t-78 -145t-96.5 -116t-89.5 -81t-54.5 -28.5q-17 0 -27 14t-10 27z" />
<glyph unicode="&#x201a;" horiz-adv-x="729" d="M164 -362q0 15 24 30q207 144 273 361q-35 -35 -107 -35q-58 0 -91.5 33t-33.5 86q0 67 52.5 124.5t132.5 57.5q56 0 96.5 -40t40.5 -130q0 -76 -31.5 -157.5t-78 -145t-96.5 -116t-89.5 -81t-54.5 -28.5q-17 0 -27 14t-10 27z" />
<glyph unicode="&#x201c;" horiz-adv-x="1208" d="M416 891q0 75 31.5 156t78 145.5t96.5 117.5t90 82t56 29t26.5 -13t10.5 -28q0 -4 -0.5 -6l-1 -4t-3 -4l-5 -4t-8 -6.5t-11.5 -9.5q-196 -135 -268 -355q44 33 106 33q65 0 95 -37t30 -82q0 -66 -52 -124t-132 -58q-51 0 -84 28t-44 63.5t-11 76.5zM897 891 q0 75 31.5 156t78 145.5t96.5 117.5t90 82t56 29t26.5 -13t10.5 -28q0 -4 -0.5 -6l-1 -4t-3 -4l-5 -4t-8 -6.5t-11.5 -9.5q-196 -135 -268 -355q44 33 107 33q65 0 95 -37t30 -82q0 -66 -52.5 -124t-132.5 -58q-51 0 -84 28t-44 63.5t-11 76.5z" />
<glyph unicode="&#x201d;" horiz-adv-x="1208" d="M461 764q0 16 24 31q208 145 273 360q-35 -35 -107 -35q-59 0 -92 33t-33 86q0 67 52.5 124.5t132.5 57.5q56 0 96.5 -40t40.5 -130q0 -76 -31.5 -157.5t-78 -145t-96.5 -116t-89.5 -81t-54.5 -28.5q-17 0 -27 14t-10 27zM942 764q0 15 25 31q207 144 272 360 q-35 -35 -106 -35q-59 0 -92 33t-33 86q0 67 52 124.5t132 57.5q56 0 96.5 -40t40.5 -130q0 -76 -31.5 -157.5t-78 -145t-96.5 -116t-89.5 -81t-54.5 -28.5q-17 0 -27 14t-10 27z" />
<glyph unicode="&#x201e;" horiz-adv-x="1208" d="M178 -362q0 14 25 30q206 143 272 361q-35 -35 -106 -35q-59 0 -92 33t-33 86q0 67 52 124.5t132 57.5q56 0 96.5 -40t40.5 -130q0 -76 -31.5 -157.5t-78 -145t-96.5 -116t-89.5 -81t-54.5 -28.5q-17 0 -27 14t-10 27zM659 -362q0 14 25 30q206 143 272 361 q-35 -35 -106 -35q-58 0 -91.5 33t-33.5 86q0 67 52 124.5t132 57.5q56 0 97 -40t41 -130q0 -76 -32 -157.5t-78.5 -145t-96.5 -116t-89.5 -81t-54.5 -28.5q-17 0 -27 14t-10 27z" />
<glyph unicode="&#x2022;" horiz-adv-x="1814" d="M696 406q0 105 60.5 195.5t149.5 140t179 49.5q119 0 194 -71.5t75 -187.5q0 -100 -57.5 -189.5t-149.5 -142.5t-189 -53q-49 0 -94 15.5t-83.5 46t-61.5 81.5t-23 116z" />
<glyph unicode="&#x2026;" horiz-adv-x="1724" d="M248 121q0 75 57.5 127.5t124.5 52.5q56 0 90.5 -33.5t34.5 -87.5q0 -72 -57 -126t-127 -54q-49 0 -86 31t-37 90zM745 121q0 75 58 127.5t125 52.5q56 0 90.5 -33.5t34.5 -87.5q0 -72 -57.5 -126t-127.5 -54q-49 0 -86 31t-37 90zM1243 121q0 75 57.5 127.5t124.5 52.5 q56 0 90.5 -33.5t34.5 -87.5q0 -72 -57 -126t-127 -54q-49 0 -86 31t-37 90z" />
<glyph unicode="&#x202f;" horiz-adv-x="376" />
<glyph unicode="&#x2039;" horiz-adv-x="837" d="M354 483q0 16 11 23q235 181 397 446q6 15 24 15h17q11 0 19.5 -8.5t8.5 -20.5q0 -6 -4 -10q-103 -241 -254 -451q47 -220 29 -450q0 -27 -29 -27h-16q-27 0 -27 27q-27 249 -170 440q-6 6 -6 16z" />
<glyph unicode="&#x203a;" horiz-adv-x="837" d="M248 29q0 6 4 10q102 238 254 450q-46 213 -31 451q3 27 29 27h16q29 0 29 -25q28 -258 170 -440q6 -9 6 -19q0 -12 -10 -22q-236 -182 -398 -447q-8 -14 -24 -14h-17q-11 0 -19.5 8.5t-8.5 20.5z" />
<glyph unicode="&#x205f;" horiz-adv-x="470" />
<glyph unicode="&#x20ac;" horiz-adv-x="1359" d="M253.5 530q-5.5 12 0.5 25l22 41q9 20 33 20h90q5 34 19 86q8 41 24 86h-102q-13 0 -18.5 12t0.5 25l22 41q9 21 33 21h102q91 213 240 350q109 99 240.5 151t263.5 52q124 0 207 -68l102 62q6 6 18 6h21q26 0 20 -29l-71 -293q-9 -28 -37 -28h-70q-25 0 -22 24 q13 95 -29 161t-125 66q-88 0 -175.5 -44t-150.5 -119q-93 -113 -149 -291h532q14 0 21.5 -8.5t1.5 -20.5l-25 -49q-9 -21 -32 -21h-527l-20 -86l-23 -86h461q14 0 20 -8t0 -20l-24 -49q-9 -21 -33 -21h-444q-32 -188 4 -291q26 -76 91.5 -120t152.5 -44q82 0 158.5 67 t109.5 161q6 24 35 24h69q27 0 21 -28l-74 -293q-10 -29 -35 -29h-20q-11 0 -17 6l-69 64q-116 -70 -242 -70q-132 0 -237 52t-164 151q-82 140 -66 350h-115q-13 0 -18.5 12z" />
<glyph unicode="&#x2122;" horiz-adv-x="2295" d="M367 598q0 16 7 24.5t14 9.5t22 1h55q26 0 49.5 1.5t36.5 3t14 1.5l176 707q-23 2 -51 2q-116 0 -163 -41t-89 -172q-6 -18 -11.5 -21.5t-25.5 -3.5h-4.5h-5.5h-5t-5 0.5t-4.5 1.5t-4 2.5t-3 3.5t-2 5t-0.5 7t4 16t10.5 30.5t9.5 27.5l62 178q6 17 11.5 20t29.5 3h682 q14 0 20.5 -1t12 -6t5.5 -16v-4q0 -3 -1 -7t-1 -7l-34 -223q-4 -22 -11 -26.5t-26 -4.5q-33 0 -33 23v4q0 8 2 12q10 70 10 98q0 61 -28.5 81t-118.5 20h-43q-13 -1 -16.5 -4t-8.5 -17l-172 -690q50 -4 86 -4h55h4q11 0 17 -0.5t12 -5.5t6 -15q0 -14 -3 -22t-10.5 -11 t-11 -3.5t-14.5 -0.5l-241 5l-238 -5q-28 0 -28 23zM1116 598q0 16 7 24.5t14 9.5t22 1q28 0 70 6q23 6 28.5 11t10.5 20l172 688q-28 4 -60 4h-28h-7.5h-8t-7 0.5t-7 2t-4.5 3.5t-4 5.5t-1 8.5q0 14 3 22t11 11t12 3.5t17 0.5h237q26 0 33.5 -5.5t11.5 -29.5l103 -636 l426 643q11 19 20.5 23.5t34.5 4.5h227q13 0 19 -0.5t13 -5.5t7 -16q0 -16 -7 -24.5t-14 -9.5t-22 -1l-75 -2q-16 -1 -20 -4.5t-9 -18.5l-174 -700q2 0 26.5 -2t32.5 -2h27h4q11 0 17 -0.5t12 -5.5t6 -15q0 -18 -8 -27t-13 -9.5t-14 -0.5q-29 0 -90 2.5t-90 2.5t-87 -2.5 t-87 -2.5q-27 0 -27 23q0 16 7 24.5t14 9.5t22 1h27q21 0 49 4h13t7.5 3.5t4 5t3.5 9.5l170 684h-2l-483 -733q-2 -3 -6 -8.5t-6 -7.5l-6 -6t-7.5 -5.5t-9.5 -2.5t-14 -1q-19 0 -25.5 7.5t-11.5 29.5l-113 709h-2l-168 -676q27 -12 84 -12h4q11 0 17 -0.5t12 -5.5t6 -15 q0 -18 -7.5 -27t-12 -9.5t-12.5 -0.5q-23 0 -73 2.5t-75 2.5q-24 0 -71 -2.5t-70 -2.5q-25 0 -25 23z" />
<glyph unicode="&#xe000;" horiz-adv-x="921" d="M0 0v922h922v-922h-922z" />
<glyph unicode="&#xfb01;" horiz-adv-x="1380" d="M-39 -252q0 66 44 110t101 44q47 0 75 -26.5t28 -68.5q0 -39 -23 -76.5t-65 -56.5q13 -8 35 -12q6 -2 18 -2q10 0 19 3t16.5 10.5l13.5 13.5t11.5 19t9 19.5t8.5 22.5t6.5 20t5.5 20l4 17q1 4 49 236l142 772h-176q-18 0 -24.5 0.5t-19 3.5t-17.5 11t-5 22q0 21 5.5 34 t18 18t21.5 6t27 1h188q11 61 17 92.5t17.5 81.5t23.5 80t30 66.5t42.5 64.5t54.5 52q40 32 85.5 52t100.5 28t94 10t102 2q38 0 63 -0.5t70 -4t76 -10t68.5 -19t60 -30.5t38.5 -46t16 -64q0 -73 -45.5 -115.5t-100.5 -42.5q-47 0 -74.5 26t-27.5 68t23 77t59 54 q-74 33 -223 33q-42 0 -73 -1t-59.5 -8.5t-47.5 -12t-38.5 -24t-30.5 -31t-24.5 -46t-20.5 -56.5t-18.5 -75.5t-18 -89.5t-20.5 -111h590q41 0 49 -7q8 -8 8 -21q0 -11 -4 -27l-161 -643q-13 -50 -13 -90q0 -64 39 -64q71 0 123 222q10 38 19.5 45.5t46.5 7.5q22 0 30 -0.5 t17.5 -7t9.5 -21.5q0 -6 -8.5 -37.5t-28 -82t-43.5 -89.5q-72 -110 -174 -110q-95 0 -166.5 52.5t-71.5 145.5q0 23 9 60l143 571h-432l-119 -647q-47 -216 -84 -311q-48 -125 -132.5 -197t-172.5 -72q-85 0 -147 45t-62 117z" />
<glyph unicode="&#xfb02;" horiz-adv-x="1441" d="M-39 -252q0 67 43.5 110.5t101.5 43.5q47 0 75 -26.5t28 -68.5q0 -55 -31.5 -90.5t-56.5 -44.5q12 -12 53 -12q61 0 94 143q31 131 45 213l148 797h-178h-19t-16 2t-16 5.5t-8.5 11t-4.5 18.5q0 28 11.5 41.5t23.5 15.5t35 2h188l31 164q14 73 39.5 131.5t55 96 t70.5 64.5t75.5 41t80.5 21.5t75 9t69 1.5q146 0 226.5 -37t84.5 -125h2l23 88q11 41 19.5 49t45.5 8h103q41 0 49 -7q8 -8 8 -21q-2 0 -2 -7q0 -1 -1 -11.5t-5 -18.5l-287 -1147q-12 -49 -12 -88q0 -64 39 -64q71 0 123 222q11 38 19.5 45.5t45.5 7.5q22 0 30 -0.5t17.5 -7 t9.5 -21.5q0 -7 -8 -38t-27.5 -81.5t-43.5 -89.5q-72 -110 -175 -110q-95 0 -166 52.5t-71 145.5q0 27 8 60l143 571h-493l-119 -649q-17 -80 -49 -203q-26 -95 -63.5 -166t-73.5 -109.5t-77 -62.5t-70 -30.5t-56 -6.5q-85 0 -147 45t-62 117zM696 909h500l70 285h-2 q-5 -10 -18 -24.5t-43.5 -31t-63.5 -16.5q-47 0 -75 26.5t-28 68.5q0 78 72 124q-51 23 -129 23q-50 0 -87.5 -9t-58 -19.5t-36 -30.5t-20 -31.5t-11.5 -32.5q-40 -147 -70 -332z" />
<glyph unicode="&#xfb03;" horiz-adv-x="2140" d="M-39 -252q0 66 44 110t101 44q47 0 75 -26.5t28 -68.5q0 -39 -23 -76.5t-65 -56.5q13 -8 35 -12q6 -2 18 -2q10 0 19 3t16.5 10.5t13.5 14t11.5 19t9 20t8.5 22.5t6.5 21t5.5 20.5t4 16.5q29 129 45 213l146 793h-176q-18 0 -24.5 0.5t-19 3.5t-17.5 11t-5 22 q0 21 5.5 34t18 18t21.5 6t27 1h188l29 158q14 71 37.5 128t51 95.5t64.5 66t71.5 43t78.5 24.5t79 11.5t79 2.5q309 0 309 -162q0 -67 -44 -110.5t-102 -43.5q-47 0 -74.5 26.5t-27.5 68.5q0 14 3 30.5t21 45.5t50 48q-51 23 -127 23q-45 0 -79.5 -6t-58 -21.5t-38 -29 t-26 -42.5t-16.5 -46.5t-14 -55.5l-47 -254h510l27 142q15 80 45 143t62.5 103t83 68.5t88.5 42t98.5 21t92.5 8.5t89 1q43 0 72 -0.5t75 -4t77.5 -10t68 -19.5t58.5 -31t37 -46t15 -63q0 -73 -45 -115.5t-100 -42.5q-47 0 -74.5 26t-27.5 68t23 77t59 54q-79 33 -238 33 q-155 0 -214.5 -33.5t-91.5 -130.5q-21 -65 -61 -291h621q41 0 49 -7q8 -8 8 -21q0 -11 -4 -27l-162 -643q-12 -46 -12 -90q0 -64 39 -64q71 0 123 222q11 38 19.5 45.5t45.5 7.5h5q19 0 27.5 -1t17 -7.5t8.5 -20.5q0 -6 -8.5 -37.5t-28 -82t-43.5 -89.5q-72 -110 -174 -110 q-95 0 -166.5 52.5t-71.5 145.5q0 27 8 60l144 571h-461l-127 -676q-18 -104 -63 -227q-28 -78 -72.5 -138.5t-90 -94.5t-98 -55.5t-91.5 -28.5t-74 -7q-102 0 -177 41.5t-75 122.5q0 63 42.5 107.5t102.5 44.5q47 0 74.5 -26.5t27.5 -68.5q0 -38 -21 -73.5t-56 -55.5 q21 -11 57 -16q10 -2 29 -2q60 0 115 50t75 102q37 102 72 292l131 709h-512l-117 -637q0 -12 -16 -86t-51.5 -180t-73.5 -162q-16 -23 -36.5 -46.5t-53 -52t-74.5 -46t-86 -17.5q-88 0 -148.5 45t-60.5 117z" />
<glyph unicode="&#xfb04;" horiz-adv-x="2168" d="M-39 -252q0 66 44 110t101 44q47 0 75 -26.5t28 -68.5q0 -39 -23 -76.5t-65 -56.5q23 -14 53 -14q21 0 38 15.5t29 46.5t16 46t11 44l45 213l146 788h-176q-18 0 -24.5 0.5t-19 3.5t-17.5 11t-5 22q0 28 11.5 41.5t23.5 15.5t35 2h190l31 172q19 106 59.5 178.5 t100 110.5t124 53t148.5 15q143 0 210 -47.5t67 -116.5q0 -62 -44 -107t-102 -45q-47 0 -74.5 26.5t-27.5 68.5q0 35 18.5 69.5t56.5 56.5q-37 21 -98 21q-102 0 -153 -55q-17 -17 -32.5 -71t-21.5 -95l-45 -234h512q36 202 66 282q54 144 172 200q98 47 256 47 q145 0 226 -37.5t85 -124.5h2l23 88q11 41 19.5 49t45.5 8h103q41 0 49 -7q8 -8 8 -21q-2 0 -2 -7q0 -1 -1 -11.5t-5 -18.5l-287 -1147q-12 -49 -12 -88q0 -64 39 -64q71 0 123 222q11 38 19.5 45.5t45.5 7.5q22 0 30 -0.5t17.5 -7t9.5 -21.5q0 -7 -8 -38t-27.5 -81.5 t-43.5 -89.5q-72 -110 -174 -110q-95 0 -166.5 52.5t-71.5 145.5q0 27 8 60l143 571h-491l-123 -663q0 -14 -16.5 -82.5t-55.5 -168t-86 -153.5q-22 -22 -31 -30.5t-47 -38.5t-70 -45.5t-83.5 -30.5t-103.5 -15q-102 0 -177 41.5t-75 122.5q0 63 42.5 107.5t102.5 44.5 q47 0 74.5 -26.5t27.5 -68.5q0 -38 -21 -73.5t-56 -55.5q37 -18 86 -18q70 0 133 68q34 34 49 61t29 88q22 83 53 232l129 704h-510l-115 -623q-14 -76 -37 -167q-21 -84 -53 -173q-53 -128 -136.5 -196t-166.5 -68q-85 0 -147 45t-62 117zM1425 909h498l70 285h-2 q-5 -10 -18 -24.5t-43.5 -31t-63.5 -16.5q-47 0 -75 26.5t-28 68.5q0 78 72 124q-51 23 -129 23q-173 0 -205 -104q-8 -19 -14 -38t-13.5 -54.5t-12 -59t-16.5 -90.5t-20 -109z" />
</font>
</defs>
</svg>
