<?xml version="1.0" standalone="no"?>
<!DOCTYPE svg PUBLIC "-//W3C//DTD SVG 1.1//EN" "http://www.w3.org/Graphics/SVG/1.1/DTD/svg11.dtd" >
<svg xmlns="http://www.w3.org/2000/svg">
<metadata></metadata>
<defs>
<font id="legal_modernitalic" horiz-adv-x="1024" >
<font-face units-per-em="2048" ascent="1651" descent="-397" />
<missing-glyph horiz-adv-x="716" />
<glyph horiz-adv-x="2048" />
<glyph horiz-adv-x="2048" />
<glyph unicode="&#xd;" horiz-adv-x="2048" />
<glyph unicode=" "  horiz-adv-x="716" />
<glyph unicode="&#x09;" horiz-adv-x="716" />
<glyph unicode="&#xa0;" horiz-adv-x="716" />
<glyph unicode="!" horiz-adv-x="614" d="M229 82q0 45 37 81t84 36q34 0 58 -21t24 -61q0 -47 -36.5 -82t-84.5 -35q-32 0 -57 21.5t-25 60.5zM375 391v6q0 1 4 21l166 934q6 38 24 63t41 34.5t36 12t22 2.5q31 0 56.5 -18t25.5 -60q0 -11 -11 -45l-301 -940q-7 -21 -14 -26.5t-21 -5.5q-28 0 -28 22z" />
<glyph unicode="&#x22;" horiz-adv-x="794" d="M496 866l96 514q4 26 26.5 44t49.5 18t40.5 -18t6.5 -44l-162 -514h-57zM676 866l96 514q4 26 26.5 44t49.5 18t40.5 -18t6.5 -44l-162 -514h-57z" />
<glyph unicode="#" horiz-adv-x="1638" d="M233 322q0 17 11 25.5t21 9.5t29 1h5h319l148 306h-371h-20t-17 2t-15.5 5.5t-8.5 11.5t-4 19t4.5 18.5t8.5 11t16 5.5t16.5 2h19.5h412l315 645q16 37 41 37q16 0 27.5 -12.5t11.5 -26.5q0 -9 -14 -34l-297 -609h338l315 645q16 37 41 37q16 0 27.5 -12.5t11.5 -26.5 q0 -9 -14 -34l-297 -609h280q14 0 22 -0.5t19.5 -4t17 -12t5.5 -22.5q0 -17 -11 -25.5t-20.5 -9.5t-27.5 -1h-5h-319l-150 -306h373q16 0 24 -0.5t19.5 -4t17 -12t5.5 -22.5q0 -17 -10 -25.5t-20 -9.5t-30 -1h-6h-412l-315 -643q-16 -37 -41 -37q-16 0 -27.5 12.5 t-11.5 26.5q0 7 15 34l296 607h-337l-316 -643q-16 -37 -41 -37q-16 0 -27.5 12.5t-11.5 26.5q0 7 15 34l297 607h-281q-16 0 -24 0.5t-19.5 4t-17 12t-5.5 22.5zM702 358h338l148 306h-336z" />
<glyph unicode="$" horiz-adv-x="1003" d="M190 293q10 80 27 111q28 55 90 55q74 0 70 -72q-4 -43 -36 -70.5t-69 -27.5q-23 0 -36 8q-4 -68 15 -118.5t55 -79.5t79.5 -43.5t95.5 -16.5l156 623q-62 18 -84.5 25t-59.5 28.5t-63 52.5l-8 10q-7 10 -9 13.5t-10.5 17t-11.5 20.5t-11 24.5t-9 28.5t-6.5 32.5t-3.5 37 t1 41.5q12 164 153 300.5t316 148.5l23 94h59l-22 -94q147 -10 220.5 -89t62.5 -206q-12 -82 -36 -116q-31 -39 -81 -40q-36 0 -54 20t-16 52q4 42 35.5 70t69.5 28q10 0 34 -6q0 15 -0.5 25t-5 35t-13.5 43t-27.5 42t-44.5 40t-67.5 28t-93.5 14l-139 -567q35 -8 55.5 -14 t50 -18t53.5 -31.5t44 -46.5q81 -105 63 -238q-5 -57 -25.5 -117t-59.5 -121t-92 -111t-129 -87t-163 -49q-4 -2 -6 -6t-8 -27l-16 -64h-60l23 95q-55 2 -104.5 21t-91 54.5t-63.5 97t-16 140.5zM475 1065q-5 -50 10.5 -91t37 -64t56.5 -41.5t54 -24.5t45 -13l137 549 q-70 -8 -133.5 -40t-106.5 -77t-69.5 -97t-30.5 -101zM541 41q140 17 240 124.5t108 229.5q2 30 -1 57.5t-9.5 48t-18 38.5t-22.5 30.5t-27.5 24t-28 18.5t-28.5 13.5t-25.5 9t-22.5 6t-16 4.5z" />
<glyph unicode="%" horiz-adv-x="1638" d="M289 -76q0 14 18 37l1172 1378v2q-114 -63 -256 -63q-148 0 -265 86q9 -27 9 -82q0 -126 -52 -259t-137.5 -222.5t-173.5 -89.5q-82 0 -135 69t-53 199q0 133 58.5 264t148.5 212t178 81q33 0 59 -13t35.5 -23.5t28.5 -35.5q41 -59 101.5 -94t106.5 -44t93 -9 q120 0 226.5 56t162.5 122q22 27 30 34t21 7q16 0 27.5 -12.5t11.5 -26.5q0 -13 -23 -39l-1316 -1546q-14 -18 -20.5 -22.5t-18.5 -4.5t-24.5 8.5t-12.5 30.5zM514 915q0 -70 22 -116.5t72 -46.5q64 0 135 81t118.5 208t47.5 249q0 87 -27 146t-81 59q-63 0 -120 -70 t-91.5 -167.5t-55 -191t-20.5 -151.5zM1028 154q0 132 57 262.5t147 212.5t181 82q58 0 97 -39.5t54 -94t15 -120.5q0 -127 -51.5 -260t-137 -222.5t-173.5 -89.5q-85 0 -137 73.5t-52 195.5zM1126 90q0 -26 3.5 -50.5t13 -52t29.5 -44.5t49 -17q67 0 138.5 84.5t118 211.5 t46.5 243q0 10 -1 25.5t-7 49.5t-16.5 60.5t-33 48t-53.5 21.5q-54 0 -109 -59t-90 -140q-29 -69 -58.5 -189t-29.5 -192z" />
<glyph unicode="&#x26;" horiz-adv-x="1536" d="M254 358q0 91 53.5 219t143.5 220q-23 62 -23 135q0 129 63.5 253.5t163.5 201.5t201 77q100 0 155.5 -66.5t55.5 -162.5q0 -158 -100 -158q-7 0 -14 1.5t-20 6t-21.5 18.5t-8.5 34q0 11 3 22.5t12.5 28.5t33 28t58.5 11q0 48 -11 84.5t-27 57t-38 33.5t-40.5 17t-37.5 4 q-70 0 -131 -58t-99.5 -144.5t-61.5 -178.5t-25 -168q2 1 18 10.5t27.5 15.5t32 15.5t38 15.5t40.5 10.5t44 4.5q64 0 96.5 -36.5t32.5 -84.5q0 -68 -57.5 -127t-138.5 -59q-96 0 -166 70q-41 -76 -75 -194t-34 -193q0 -87 33 -152.5t88.5 -101.5t118 -53t131.5 -17 q106 0 197.5 25.5t156 67.5t116.5 98.5t84 115.5t53 121.5t29.5 113.5t8.5 95q0 151 -106 287q-66 -41 -100.5 -64t-72.5 -53t-55 -54t-28 -54.5t-11 -67.5q0 -23 11 -49q11 34 36 48.5t48 14.5q61 0 61 -59q0 -36 -26 -62t-64 -26q-49 0 -85 35.5t-36 105.5q0 53 19 96.5 t61 83t75.5 63t96.5 62.5q213 127 295 332q-42 0 -59 29q-9 12 -9 28q0 34 26.5 62t63.5 28q36 0 50 -19t14 -38q0 -16 -13.5 -56.5t-40.5 -100t-82.5 -129t-125.5 -122.5q117 -147 117 -315q0 -49 -9.5 -105t-34 -123.5t-60 -130.5t-93 -122.5t-128.5 -104t-171 -71.5 t-215 -27q-120 0 -218 33.5t-160.5 89.5t-96 127.5t-33.5 150.5zM551 782q13 -44 45.5 -73t79.5 -29q56 0 95.5 46t39.5 108q0 38 -20.5 54.5t-49.5 16.5t-57 -11t-57.5 -36.5t-39 -35.5t-36.5 -40z" />
<glyph unicode="'" horiz-adv-x="614" d="M496 866l96 514q4 26 26.5 44t49.5 18t40.5 -18t6.5 -44l-162 -514h-57z" />
<glyph unicode="(" horiz-adv-x="819" d="M303 84q0 118 24 262.5t76 316.5t151.5 351.5t233.5 322.5q76 79 146.5 139t87.5 60q15 0 18 -8q2 -2 2 -8q0 -7 -22 -29q-114 -97 -209 -222.5t-157.5 -248.5t-111 -258t-75 -247.5t-43.5 -220t-22 -172t-5 -108.5q0 -99 13.5 -184t39.5 -149t38.5 -88.5t35.5 -63.5 q9 -15 11 -21q2 -2 2 -6q0 -16 -19 -16q-24 0 -76 82t-88 182q-51 145 -51 334z" />
<glyph unicode=")" horiz-adv-x="819" d="M31 -498q0 7 26 33q111 96 204 220t155.5 246t111 255.5t75.5 245.5t44.5 219.5t23 174.5t5.5 112q0 281 -125 481q-7 9 -12 24q-2 2 -2 7q0 16 28 16q203 -208 203 -600q0 -138 -28.5 -296.5t-85.5 -327t-154.5 -336.5t-223.5 -300q-60 -65 -133 -127.5t-94 -62.5 q-13 0 -16 8q-2 2 -2 8z" />
<glyph unicode="*" d="M393 891q0 35 49 57l306 148l-228 141q-31 18 -31 39t19.5 41t44.5 20q17 0 39 -22l182 -180l57 333q0 1 3 11t5 15t7 14.5t11 14.5t16 9t22 4q39 0 39 -35q0 -1 -8 -33l-111 -335l287 192q16 12 35 12q21 0 30 -12t9 -27q0 -35 -50 -57l-305 -147l226 -142 q19 -11 25.5 -18.5t6.5 -20.5q0 -23 -19 -42t-42 -19h-9.5t-7.5 2t-10 6.5t-14 13.5l-182 183l-58 -338q-1 -9 -4 -18t-9 -21t-19 -19.5t-31 -7.5q-37 0 -37 35q0 8 10 39l107 330l-310 -205q-51 0 -51 39z" />
<glyph unicode="+" horiz-adv-x="1536" d="M283 512q0 14 5.5 22t18 11t18.5 3.5t21 0.5h518l131 526q10 51 43 51q18 0 28.5 -12t10.5 -27q0 -3 -2.5 -11t-3.5 -15l-127 -512h498q16 0 24.5 -0.5t19.5 -4t16 -12t5 -22.5q0 -11 -4.5 -18.5t-8.5 -11t-16 -5.5t-16.5 -2h-19.5h-518l-131 -530q-10 -47 -43 -47 q-14 0 -25.5 10.5t-11.5 27.5q0 8 8 39l125 500h-500q-14 0 -22 0.5t-19 4t-16.5 12t-5.5 22.5z" />
<glyph unicode="," horiz-adv-x="614" d="M143 -375q0 6 27 33q175 149 221 373q-2 -2 -22 -17q-22 -14 -58 -14q-33 0 -57.5 19.5t-24.5 58.5q0 48 36 84.5t85 36.5q50 0 69 -34.5t19 -78.5q0 -82 -38 -173.5t-87 -156.5t-92.5 -108t-58.5 -43q-7 0 -13 7t-6 13z" />
<glyph unicode="-" horiz-adv-x="716" d="M174 410q0 26 16 63q4 17 12 20t40 3h389h7q17 0 24 -0.5t12.5 -5.5t5.5 -15q0 -26 -16 -63q-4 -17 -12 -20t-40 -3h-389h-7q-17 0 -24 0.5t-12.5 5.5t-5.5 15z" />
<glyph unicode="." horiz-adv-x="614" d="M229 80q0 46 38.5 82.5t82.5 36.5q32 0 57 -18.5t25 -61.5q0 -49 -38.5 -84t-82.5 -35q-37 0 -59.5 22.5t-22.5 57.5z" />
<glyph unicode="/" d="M35 -473q0 12 14 35l1114 1939q8 19 16.5 27t24.5 8t27.5 -12.5t11.5 -26.5q0 -12 -14 -35l-1114 -1939q-8 -19 -16.5 -27t-24.5 -8t-27.5 12.5t-11.5 26.5z" />
<glyph unicode="0" d="M238 297q0 37 8.5 105.5t29.5 169.5t51.5 206t80.5 211t111 188t147.5 133.5t185.5 51.5q53 0 96 -16.5t69.5 -41t46 -61t28.5 -65.5t14 -67.5t5.5 -55t0.5 -37.5q0 -137 -55 -355.5t-109 -334.5q-90 -187 -204 -279t-242 -92q-55 0 -99 16t-71.5 45t-47 62.5t-29 74 t-13.5 74t-4 68.5zM358 199q0 -95 42 -148t110 -53q29 0 56.5 8.5t49.5 20.5t44 33.5t38 39.5t33 47.5t27 48t23.5 50t18.5 44.5t15.5 41t11.5 31q24 60 96 350t72 410q0 60 -16 102t-41.5 61.5t-49 27.5t-48.5 8q-61 0 -125.5 -42t-116.5 -132q-64 -112 -152 -467.5 t-88 -480.5z" />
<glyph unicode="1" d="M238 20q0 19 6.5 27.5t16 10t32.5 1.5h16q112 0 145.5 16.5t45.5 71.5l243 977q-60 -42 -120.5 -64t-106.5 -22q-29 0 -29 23q0 9 1.5 15t3 9.5t7 6t7.5 3.5t10.5 2.5t11.5 2.5q190 20 349 235q14 19 18.5 23t11.5 4q10 0 15.5 -7t5.5 -14q0 -8 -4 -28l-293 -1166 q-8 -21 -8 -34q-3 -8 0 -11q0 -16 5 -23t38 -13.5t102 -6.5h16h4q20 0 27.5 -1t13 -5.5t5.5 -15.5q0 -14 -3 -22t-11 -11t-12 -3.5t-15 -0.5l-265 4l-258 -4h-5h-6t-5.5 0.5t-5 1t-4 2t-3.5 3.5t-2 5.5t-1 7.5z" />
<glyph unicode="2" d="M170 -25q0 9 9.5 41.5t37 91t67.5 120t110.5 130t156.5 119.5q218 131 315 260q36 51 60.5 110.5t33.5 111.5t12 81t3 52q0 114 -53 171.5t-129 57.5q-72 0 -138 -41.5t-112.5 -104t-82 -135t-52.5 -136.5t-17 -107q0 -68 45 -68t85.5 36t64 85t37.5 93.5t14 68.5 q0 32 -16 67q-7 7 -7 13v6q0 9 7.5 14.5t15.5 5.5q16 0 28.5 -35.5t12.5 -70.5q0 -30 -16 -81.5t-44.5 -107t-77.5 -95.5t-106 -40q-51 0 -74.5 34.5t-23.5 90.5q0 42 18.5 108t58.5 143t92.5 143t130.5 110.5t163 44.5q136 0 223.5 -96t87.5 -244q0 -90 -31.5 -166.5 t-80.5 -131.5t-126 -114q-70 -50 -149 -98l-156 -88q-41 -24 -94 -70q-110 -94 -174 -209q19 7 53 7q72 0 193 -33q108 -31 182 -31q85 0 150 70.5t94 160.5q6 24 10.5 28.5t22.5 4.5q26 0 26 -18q0 -6 -8 -33.5t-24 -71t-43.5 -90t-61 -88t-82.5 -68t-104 -26.5 q-81 0 -185 74q-42 29 -60.5 41t-52.5 25.5t-65 13.5q-78 0 -113 -127q-6 -18 -11 -22.5t-21 -4.5q-29 0 -29 18z" />
<glyph unicode="3" d="M193 215q0 19 2.5 37.5t10.5 49.5t30.5 50t56.5 19q21 0 42 -14.5t21 -47.5q-2 -17 -14 -45q-27 -45 -92 -45q0 -107 60.5 -164t146.5 -57q65 0 138.5 37t125.5 106q53 75 79.5 183t26.5 157t-15 84t-33.5 52t-45 26t-40 10.5t-27.5 1.5h-56q-40 0 -45 6q-4 5 -4 15 q0 19 6.5 27.5t15 10t29.5 1.5h45q70 0 127 22t93 55.5t63.5 79t41.5 86t22 82.5t10 63.5t2 33.5q0 96 -50.5 140t-123.5 44q-96 0 -186.5 -56.5t-143.5 -139t-53 -160.5q0 -80 55 -80q45 0 85 39t40 92q0 26 -16 61q-9 12 -9 15q-3 3 0 6q0 9 7.5 14.5t15.5 5.5 q16 0 29.5 -33.5t13.5 -66.5q0 -72 -53.5 -123t-114.5 -51q-46 0 -77.5 31t-31.5 98q0 65 36.5 134.5t95.5 125.5t142 92.5t169 36.5q131 0 209 -78t78 -192q0 -74 -35.5 -153.5t-114 -154t-184.5 -110.5q50 -21 84.5 -54.5t50.5 -72t22.5 -70t6.5 -61.5q0 -117 -73 -224 t-190.5 -171t-242.5 -64q-123 0 -193.5 74t-70.5 184z" />
<glyph unicode="4" d="M88 35q0 13 18 32.5t39 30.5q69 36 184 167.5t199 275.5q107 183 173.5 361t119.5 378q15 82 78 82q27 0 40 -14.5t13 -34.5q0 -19 -27 -115t-98 -269.5t-161 -320.5q-54 -88 -106 -161t-108 -137t-82.5 -91.5t-84.5 -85.5q18 2 57 2q32 0 46 -0.5t43 -6t63 -17.5 q8 -2 124 -45q89 366 101 393q19 37 63 37q23 0 38.5 -14.5t15.5 -37.5q0 -2 -9 -36l-94 -375q10 -2 37 -2q71 0 131 24q14 6 19 6q9 0 18.5 -13.5t9.5 -20.5q0 -19 -67 -37.5t-119 -18.5q-29 0 -43 2l-74 -299q-17 -71 -76 -71q-27 0 -40 14.5t-13 34.5q0 19 19 78l67 276 q-33 12 -53 19.5t-25.5 10.5t-9.5 4.5t-9.5 3.5t-21.5 7q-49 17 -77 21t-70 4q-125 0 -156 -31q-47 -43 -63 -43q-9 0 -19 13.5t-10 19.5z" />
<glyph unicode="5" d="M215 238q0 18 1 34t7 45.5t16.5 50t32.5 36.5t52 16q7 0 14.5 -1.5t21.5 -6.5t22.5 -20t8.5 -38q0 -37 -32.5 -69t-84.5 -25q-8 -98 47 -173t154 -75q72 0 149.5 49.5t135.5 155.5q39 70 72.5 206t33.5 208q0 27 -4.5 53.5t-16.5 59t-40 53t-68 20.5q-53 0 -102.5 -16.5 t-85 -43.5t-55.5 -45.5t-35 -37.5q-12 -17 -27 -17q-10 0 -15.5 4.5t-6 8t-0.5 8.5q0 9 4 29l155 620q5 21 9 27t14 6q5 0 24 -8q95 -56 228 -56q128 0 258 58q3 1 9 3.5t9 2.5h6q17 0 17 -17q0 -9 -19 -30t-55.5 -48t-82.5 -51.5t-109 -41.5t-125 -17q-90 0 -162 31 l-105 -426q1 1 17 12.5t38 25t52 27.5t69.5 23.5t79.5 9.5q122 0 190 -90t68 -223q0 -112 -46.5 -221t-120 -189t-169.5 -129t-190 -49q-119 0 -188.5 80t-69.5 201z" />
<glyph unicode="6" d="M242 319q0 48 10 122.5t31.5 175.5t67 213.5t106.5 199.5q66 96 137.5 164.5t135.5 103t117.5 49.5t102.5 15q35 0 66 -7t61.5 -23t48 -48.5t17.5 -77.5q0 -35 -9.5 -61t-21 -38t-27.5 -19t-23.5 -8t-14.5 -1q-27 0 -45.5 16t-18.5 44q3 24 12 45q27 45 88 47 q-21 82 -137 82q-19 0 -41 -3.5t-60 -18.5t-75 -40t-81.5 -73t-83.5 -112t-78 -162.5t-68 -219.5q50 80 121 134t163 54q65 0 116 -25.5t80 -62t48 -82.5t25 -81.5t6 -63.5q0 -145 -72 -284.5t-191.5 -227.5t-246.5 -88q-65 0 -115 25.5t-78 63t-45 89t-22.5 95t-5.5 89.5z M367 205q0 -80 36.5 -136.5t110.5 -56.5q54 0 103 25.5t81 62.5t48.5 62t23.5 41q36 82 73.5 232.5t37.5 211.5q0 16 -1 30.5t-9 45t-22 52t-44.5 39t-71.5 17.5q-75 0 -139 -48t-104.5 -120.5t-69.5 -159.5t-41 -163.5t-12 -134.5z" />
<glyph unicode="7" d="M297 883q0 4 2 6q5 15 8 22l193 420q10 22 16 26.5t21 4.5q28 0 28 -19l-51 -116q135 135 277 135q24 0 41.5 -8.5t26.5 -18t14.5 -32t7.5 -35.5t4 -43q5 -61 15.5 -82t43.5 -21q35 0 69.5 18.5t67 54t53.5 62.5t48 68q20 27 27 32t20 5q26 0 26 -16q0 -12 -32 -58 q-321 -490 -504 -1182q-20 -84 -40 -116.5t-71 -32.5q-37 0 -52 19t-15 42q0 16 19.5 88t77 224t136.5 309q90 185 266 469q-54 -27 -98 -27q-40 0 -60.5 20.5t-37.5 59.5q-18 33 -26 44t-20.5 18.5t-31.5 7.5q-61 0 -128.5 -31.5t-143.5 -109.5t-132 -191 q-14 -23 -19.5 -28t-18.5 -5q-27 0 -27 17z" />
<glyph unicode="8" d="M197 233q0 131 102 254t285 207q-48 41 -69 60.5t-45.5 51.5t-33 66t-8.5 80q0 101 60 196.5t158 154.5t202 59q110 0 188 -63.5t78 -176.5q0 -57 -22 -110t-52.5 -91.5t-78 -77t-84.5 -61.5t-86 -49q37 -30 51 -42t42 -37t38.5 -39t27 -38t22.5 -44.5t11.5 -48.5 t5.5 -60q0 -84 -40.5 -169t-106.5 -150.5t-155.5 -106.5t-182.5 -41q-131 0 -219 75.5t-88 200.5zM291 231q0 -95 59.5 -157t161.5 -62q135 0 250 102.5t115 229.5q0 63 -24 100.5t-89 92.5l-146 125q-137 -63 -232 -185.5t-95 -245.5zM532 1036q0 -80 58 -125l166 -145 q128 67 200 164t72 196q0 89 -52.5 138t-133.5 49q-73 0 -145 -38t-118.5 -103t-46.5 -136z" />
<glyph unicode="9" d="M209 115q0 35 9 60t20.5 37t27 19t23.5 8t16 1q27 0 45.5 -16t18.5 -44q0 -32 -24 -61t-73 -33q36 -74 156 -74q24 0 50 5.5t62.5 22.5t71.5 44.5t75.5 76t75.5 112t69.5 157.5t60.5 207q-117 -188 -285 -188q-64 0 -115 25.5t-80 62t-47.5 82.5t-25 81.5t-6.5 63.5 q0 147 74.5 286.5t195.5 225.5t250 86q53 0 95 -17.5t68 -42.5t45 -62.5t28 -68t14 -70.5t5.5 -57.5t0.5 -39.5q0 -63 -12 -147.5t-37.5 -191t-77.5 -222t-121 -207.5q-219 -279 -438 -279q-25 0 -50 3t-56 13.5t-54 26.5t-39 46t-16 69zM471 672q0 -15 1 -29t9 -44.5 t21.5 -52.5t44 -39.5t71.5 -17.5q80 0 146 52t106.5 128.5t68.5 168t39 164.5t11 124q0 20 -4 44.5t-16.5 60t-43 59t-75.5 23.5q-92 0 -163 -63t-118 -160q-24 -51 -61 -201.5t-37 -216.5z" />
<glyph unicode=":" horiz-adv-x="614" d="M229 80q0 46 38.5 82.5t82.5 36.5q32 0 57 -18.5t25 -61.5q0 -49 -38.5 -84t-82.5 -35q-37 0 -59.5 22.5t-22.5 57.5zM399 764q0 44 37.5 81.5t85.5 37.5q37 0 59.5 -23.5t22.5 -56.5q0 -43 -37 -81t-86 -38q-39 0 -60.5 24t-21.5 56z" />
<glyph unicode=";" horiz-adv-x="614" d="M143 -375l4 6q2 2 8.5 10.5t14.5 16.5q165 165 203 358l-15 -6q-13 -6 -30 -8q-2 -2 -4 -2h-13q-33 0 -57.5 19.5t-24.5 58.5q0 48 36 84.5t85 36.5q44 0 61 -29.5t17 -67.5q0 -66 -24 -140.5t-59 -135.5t-73 -112.5t-68 -80t-42 -28.5q-7 0 -13 7t-6 13zM399 764 q0 44 37.5 81.5t85.5 37.5q37 0 59.5 -23.5t22.5 -56.5q0 -43 -37 -81t-86 -38q-39 0 -60.5 24t-21.5 56z" />
<glyph unicode="&#x3c;" horiz-adv-x="1560" d="M297 512q3 24 51 43l1235 510l39 14q38 0 29 -39q-3 -24 -52 -43l-1177 -487l934 -485q34 -16 30 -43q-9 -39 -49 -39q-4 0 -6 2q-9 3 -24 12l-981 510q-40 20 -29 45z" />
<glyph unicode="=" horiz-adv-x="1536" d="M233 322q0 17 11 25.5t21 9.5t29 1h5h1096q16 0 24 -0.5t19.5 -4t16.5 -12t5 -22.5q0 -17 -10 -25.5t-19.5 -9.5t-29.5 -1h-6h-1096q-16 0 -24 0.5t-19.5 4t-17 12t-5.5 22.5zM330 702q0 11 4.5 18.5t8.5 11t16 5.5t16.5 2h19.5h1096q14 0 22 -0.5t19 -4t16.5 -12 t5.5 -22.5q0 -17 -10.5 -25.5t-20 -9.5t-27.5 -1h-5h-1096h-20t-17 2t-15.5 5.5t-8.5 11.5t-4 19z" />
<glyph unicode="&#x3e;" horiz-adv-x="1560" d="M164 -20q1 9 3.5 14t14 14t33.5 17l1178 487l-932 485q-17 9 -22 12.5t-9.5 12t-1.5 20.5q5 14 18.5 25.5t30.5 11.5q4 0 6 -2l25 -12l981 -510q35 -17 31 -43q-4 -9 -7 -14t-15 -14t-32 -17l-1235 -510l-38 -14q-18 0 -26 12t-3 25z" />
<glyph unicode="?" d="M391 942q0 22 14 66.5t40 104t68 120.5t92.5 113t120 85t144.5 33q109 0 174.5 -71t65.5 -181q0 -83 -42 -172.5t-128 -162.5l-205 -168q-93 -71 -141 -119q-16 -22 -26.5 -54t-10.5 -53q0 -27 12 -50t43 -23q40 0 88 36t74 113q0 1 1 3q4 13 8.5 16.5t21.5 3.5 q26 0 26 -19q0 -18 -16 -49t-43.5 -64t-71.5 -57t-92 -24q-51 0 -83.5 38t-32.5 103q0 54 27 112t79 103l272 223q31 26 45 38t43.5 44t44.5 58.5t28 67t13 83.5q0 84 -47.5 134t-126.5 50q-119 0 -225.5 -104.5t-169.5 -284.5q72 0 72 -59q0 -37 -27.5 -64.5t-64.5 -27.5 q-28 0 -46 15.5t-18 43.5zM434 82q0 45 37 81t84 36q34 0 58 -21t24 -61q0 -47 -36.5 -82t-84.5 -35q-32 0 -57 21.5t-25 60.5z" />
<glyph unicode="@" horiz-adv-x="1536" d="M305 506q0 173 72 345.5t186 301.5t263 209t296 80q208 0 335.5 -147.5t127.5 -376.5q0 -81 -20 -183q-58 -255 -126 -363t-179 -108q-20 0 -41.5 5t-47 18.5t-41.5 43.5t-16 72q-139 -139 -278 -139q-112 0 -193.5 84t-81.5 238q0 140 72 273.5t186 215.5t232 82 q77 0 137 -43t88 -131h51q15 0 21.5 -0.5t14 -2t9.5 -5t2 -10.5q0 -9 -4 -29l-133 -537q-1 -2 -2 -7t-2 -7q-2 -8 -2 -29q0 -23 7 -35t13.5 -14t16.5 -2q51 0 96.5 55t74 134t50 168t30.5 157t9 101q0 213 -113 347t-295 134q-135 0 -273.5 -77.5t-244.5 -201.5t-173 -289.5 t-67 -330.5q0 -98 26.5 -184.5t77 -153t130.5 -105.5t180 -39q251 0 527 123q24 11 32.5 13t30.5 2q28 0 37.5 -3t9.5 -14q0 -20 -112 -59.5t-177 -54.5q-179 -47 -348 -47q-146 0 -254.5 70.5t-162.5 188.5t-54 267zM678 553q0 -25 3.5 -53.5t14.5 -64.5t28 -64t47.5 -47 t70.5 -19q95 0 196 90q91 83 109 154l84 332q6 16 6 30t-8.5 43t-27 68t-58 66.5t-92.5 27.5q-87 0 -175 -87t-143 -218.5t-55 -257.5z" />
<glyph unicode="A" horiz-adv-x="1488" d="M115 20q0 24 9 30.5t30 8.5q77 7 126 45t97 125l682 1196q1 1 4 6.5t3.5 7t3 5.5t3.5 5l4 4t4.5 3.5t4.5 2t6 2t7 1t9 0.5q22 0 26.5 -7.5t6.5 -41.5l90 -1286q3 -30 10.5 -43t30.5 -19t74 -6q17 0 23 -0.5t11.5 -5.5t5.5 -16q0 -18 -7 -27t-12.5 -9.5t-16.5 -0.5 q-33 0 -101 2t-102 2q-37 0 -107 -2t-104 -2h-4h-5.5t-5 0.5t-5.5 2t-4.5 3.5t-3.5 5.5t-1 8.5q0 19 6 27.5t14 10t27 1.5q26 0 46.5 4t33 8t21.5 14.5t12.5 15t5.5 18.5t2 15.5v15.5l-22 329h-475l-150 -264q-3 -5 -10.5 -18.5t-10 -18.5t-7 -15.5t-6 -18.5t-1.5 -17 q0 -62 78 -68q29 0 29 -20q0 -18 -7 -27.5t-13.5 -10.5t-16.5 -1q-27 0 -84 2t-84 2q-26 0 -79 -2t-77 -2q-8 0 -12 2q-12 3 -12 18zM612 539h437l-48 682z" />
<glyph unicode="B" horiz-adv-x="1409" d="M141 20q0 19 7 27.5t16 10t33 1.5q91 0 117 16t38 72l281 1129q4 9 4 31q0 12 -8.5 19t-28.5 9.5t-32 3t-40 0.5q-42 0 -48 6q-5 4 -5 15q0 19 6.5 27.5t16 10t32.5 1.5h609q157 0 246.5 -82t89.5 -195q0 -133 -117 -245.5t-283 -145.5q127 -18 204 -90.5t77 -189.5 q0 -108 -69.5 -212t-190 -171.5t-256.5 -67.5h-650h-9.5h-8.5h-7t-6.5 0.5t-5.5 1t-4.5 1.5t-3 2.5t-2.5 3.5t-1.5 5t-0.5 6zM481 84q0 -17 9 -21t53 -4h252q107 0 198 59t143 154.5t52 202.5q0 42 -10 80.5t-32 74t-64 56.5t-99 21h-350l-144 -582q-8 -31 -8 -41zM645 748 h268q85 0 161 35t126.5 90t79.5 123.5t29 136.5q0 36 -8.5 69t-28.5 65.5t-61 52t-99 19.5h-240q-54 0 -71.5 -11t-28.5 -66z" />
<glyph unicode="C" horiz-adv-x="1433" d="M303 498q0 177 75 351.5t193.5 303.5t273 209t306.5 80q204 0 303 -182l133 163q11 14 19 17q2 2 8 2t8 -2q10 -7 10 -17q-2 -2 -2 -10q0 -3 -1 -9t-1 -7l-125 -500q-6 -25 -11 -30t-22 -5q-26 0 -26 19v18q10 52 10 109q0 36 -4.5 74.5t-22 95t-46.5 99.5t-85 74 t-131 31q-133 0 -264 -80t-215 -194q-68 -95 -116.5 -211t-68.5 -215.5t-28 -161t-8 -94.5q0 -101 28.5 -181t78 -129t112.5 -74.5t135 -25.5q74 0 150.5 30.5t147.5 88t130.5 149.5t93.5 205q7 21 31 21q29 0 29 -18q-12 -57 -39 -115q-62 -136 -172 -246q-10 -10 -26 -24 t-57.5 -43t-85 -50.5t-107 -39t-126.5 -17.5q-99 0 -186.5 36t-154 103t-105.5 171t-39 231z" />
<glyph unicode="D" horiz-adv-x="1511" d="M137 20q0 19 7 27.5t16 10t33 1.5q91 0 117 16t38 72l281 1129q4 9 4 31q0 12 -8.5 19t-28.5 9.5t-32 3t-40 0.5q-42 0 -48 6q-5 4 -5 15q0 19 6.5 27.5t16 10t32.5 1.5h611q189 0 303 -135.5t114 -362.5q0 -170 -67 -337t-173.5 -289.5t-246.5 -198.5t-279 -76h-602 h-9.5h-8.5h-7t-6.5 0.5t-5.5 1t-4.5 1.5t-3 2.5t-2.5 3.5t-1.5 5t-0.5 6zM483 84q0 -17 9 -21t53 -4h211q137 0 256.5 74.5t201.5 198.5q88 131 137.5 330t49.5 315q0 158 -83 260t-243 102h-201q-56 0 -72.5 -10.5t-27.5 -66.5l-282 -1131q-9 -21 -9 -47z" />
<glyph unicode="E" horiz-adv-x="1357" d="M135 20q0 19 6.5 27.5t16 10t32.5 1.5q91 0 117.5 16t38.5 72l277 1113q8 31 8 38q0 13 -4 19t-30 12t-79 6h-7q-17 0 -24 0.5t-12.5 5.5t-5.5 15q0 19 7 27.5t16 10t30 1.5h924q21 0 29.5 -1t15 -6t6.5 -16q0 -3 -2 -14.5t-2 -14.5l-49 -362q-5 -31 -9 -37t-22 -6 q-29 0 -29 23q0 5 2.5 20t2.5 20q10 66 10 125q0 42 -4 69.5t-19.5 56.5t-44 45.5t-79 27t-122.5 10.5h-256q-53 0 -69 -10.5t-29 -62.5l-127 -508h170q64 0 103.5 9t66.5 35t42.5 61t33.5 99q5 24 10 29.5t23 5.5q26 0 26 -20q0 -9 -4 -29l-114 -455q-5 -22 -10 -28t-23 -6 h-4h-5.5t-5 0.5t-5.5 2t-4.5 3.5t-3.5 5.5t-1 8.5q0 10 2 12q0 5 2 7q19 51 19 110q0 48 -29 69t-125 21h-178l-141 -569q-9 -35 -9 -41q0 -17 9 -21t53 -4h250q77 0 135.5 9.5t105.5 32t81 50.5t66.5 77t56.5 98t56 125q28 64 31 67q6 6 23 6q26 0 26 -20q-2 -2 -2 -6 l-1 -7q-1 -7 -5 -12l-180 -446q-11 -24 -18 -28.5t-37 -4.5h-951h-9.5h-8.5h-7t-6.5 0.5t-5.5 1t-4.5 1.5t-3 2.5t-2.5 3.5t-1.5 5t-0.5 6z" />
<glyph unicode="F" horiz-adv-x="1306" d="M135 20q0 19 6.5 27.5t16 10t32.5 1.5q91 0 117.5 16t38.5 72l277 1113q8 31 8 38q0 13 -4 19t-30 12t-79 6h-7q-17 0 -24 0.5t-12.5 5.5t-5.5 15q0 19 7 27.5t16 10t30 1.5h897q21 0 29.5 -1t15 -6t6.5 -16q0 -3 -2 -14.5t-2 -14.5l-49 -362q-5 -31 -9 -37t-22 -6 q-28 0 -28 23q0 17 4 38q12 94 12 136q0 73 -21 114t-79 63.5t-164 22.5h-236q-53 0 -69 -10.5t-29 -62.5l-133 -535h162q83 0 129.5 21t69 61t43.5 123q6 24 11 29.5t23 5.5q27 0 27 -21l-119 -483q-4 -23 -10 -29t-23 -6q-28 0 -28 23l4 18q18 69 18 111q0 47 -29 67.5 t-120 20.5h-172l-131 -527q-9 -35 -9 -41q0 -28 34 -34.5t110 -6.5h12h9.5h8.5h7t6.5 -0.5t5.5 -1t4.5 -1.5t3 -2.5t2.5 -3.5t1.5 -5t0.5 -6q0 -14 -3.5 -22.5t-10.5 -12t-12.5 -4t-14.5 -0.5q-41 0 -126.5 2t-127.5 2q-41 0 -119 -2t-116 -2h-4h-5.5t-5 0.5t-5.5 2 t-4.5 3.5t-3.5 5.5t-1 8.5z" />
<glyph unicode="G" horiz-adv-x="1550" d="M303 498q0 177 75 351.5t193.5 303.5t273 209t306.5 80q204 0 303 -182l133 163q11 14 19 17q2 2 8 2t8 -2q10 -7 10 -17q-2 -2 -2 -10q0 -3 -1 -9t-1 -7l-125 -500q-6 -25 -11 -30t-22 -5q-26 0 -26 19v18q10 52 10 109q0 36 -4.5 74.5t-22 95t-46.5 99.5t-85 74 t-131 31q-112 0 -234 -63.5t-226 -188.5q-79 -97 -136 -237t-79.5 -256.5t-22.5 -206.5q0 -93 23.5 -166.5t60.5 -119t86 -75.5t96.5 -41.5t95.5 -11.5q105 0 199.5 50t136.5 124q15 24 33 89t28.5 117.5t10.5 58.5q0 15 -10 23.5t-35 12.5t-44 4.5t-58 0.5h-15h-9.5h-8.5 h-7t-6.5 0.5t-5.5 1t-4.5 1.5t-3 2.5t-2.5 3.5t-1.5 5t-0.5 6q0 14 3.5 22.5t10.5 12t12.5 4t14.5 0.5q40 0 121 -2t121 -2q34 0 102.5 2t101.5 2q25 0 25 -20q0 -39 -29 -39t-45 -0.5t-31 -6t-21 -9.5t-14.5 -20.5t-12 -29.5t-11.5 -45l-94 -377l-4 -4q-2 -2 -10 -2 q-15 0 -40.5 43t-37.5 86q-42 -52 -98 -88.5t-112.5 -54t-101.5 -24.5t-85 -7q-101 0 -190 37t-155.5 105t-104.5 171t-38 228z" />
<glyph unicode="H" horiz-adv-x="1488" d="M135 20q0 19 6.5 27.5t16 10t32.5 1.5q91 0 117.5 16t38.5 72l281 1129q4 9 4 31q0 12 -8.5 19t-28.5 9.5t-32 3t-40 0.5q-42 0 -48 6q-5 4 -5 15q0 18 7.5 27.5t14 10.5t17.5 1q37 0 113 -2t114 -2q37 0 111 2t110 2q29 0 29 -23q0 -14 -2.5 -22t-12 -11t-15 -3.5 t-23.5 -0.5q-91 0 -118.5 -16t-39.5 -70l-123 -495h563l129 518q5 12 5 31q0 12 -8.5 19t-28.5 9.5t-32 3t-40 0.5q-42 0 -48 6q-5 4 -5 15q0 18 7.5 27.5t14 10.5t17.5 1q37 0 113 -2t114 -2q37 0 111 2t110 2q29 0 29 -23q0 -14 -2.5 -22t-12 -11t-15 -3.5t-23.5 -0.5 q-91 0 -118.5 -16t-39.5 -70l-283 -1128q-4 -12 -4 -31q0 -12 4 -18t30.5 -11.5t80.5 -5.5h9.5h9h7.5t6.5 -0.5t5 -1.5t4.5 -2.5t2.5 -3.5t2 -5t0.5 -7q0 -18 -7.5 -27.5t-14 -10.5t-17.5 -1q-36 0 -112 2t-113 2t-111 -2t-110 -2h-4h-5.5t-5 0.5t-5.5 2t-4.5 3.5t-3.5 5.5 t-1 8.5q0 19 6.5 27.5t16 10t32.5 1.5q91 0 117.5 16t38.5 72l137 551h-563l-145 -573l-5 -31q0 -12 4 -18t30.5 -11.5t80.5 -5.5h9.5h9h7.5t6.5 -0.5t5 -1.5t4.5 -2.5t2.5 -3.5t2 -5t0.5 -7q0 -18 -7.5 -27.5t-14 -10.5t-17.5 -1q-36 0 -112 2t-113 2t-111 -2t-110 -2h-4 h-5.5t-5 0.5t-5.5 2t-4.5 3.5t-3.5 5.5t-1 8.5z" />
<glyph unicode="I" horiz-adv-x="772" d="M127 20q0 19 6.5 27.5t15 10t27.5 1.5q101 0 129.5 15.5t40.5 72.5l277 1106q4 9 5 22t1 15q0 11 2 13q0 14 -4.5 20t-31.5 11t-85 5q-21 0 -29 1t-14 6t-6 16q0 18 7.5 27t13 9.5t18.5 0.5q38 0 115 -2t118 -2q38 0 116 2t116 2q28 0 28 -21q0 -15 -2.5 -23t-11.5 -11.5 t-17 -4t-28 -0.5q-92 0 -120 -15t-40 -69l-280 -1126q-5 -15 -5 -35q0 -12 9 -20t29.5 -11t35 -3.5t43.5 -0.5h12q18 0 25 -0.5t11.5 -5t4.5 -14.5q0 -18 -7 -27.5t-13.5 -10.5t-17.5 -1q-37 0 -116 2t-120 2q-38 0 -115 -2t-114 -2h-4h-5.5t-5 0.5t-5.5 2t-4.5 3.5 t-3.5 5.5t-1 8.5z" />
<glyph unicode="J" horiz-adv-x="1050" d="M205 174q0 42 11.5 73t26 45t33.5 22t27.5 9t15.5 1q33 0 54.5 -20t21.5 -52q0 -39 -31 -74t-79 -35q-21 0 -25 2q10 -70 57.5 -108.5t110.5 -38.5q82 0 160 92.5t104 204.5l242 969q6 24 6 32q0 29 -35.5 36t-113.5 7h-17q-21 0 -29 1t-14 6t-6 16q0 14 3 22t11 11 t12 3.5t15 0.5q40 0 122.5 -2t123.5 -2q34 0 104 2t103 2q26 0 26 -23q0 -14 -3 -22t-11 -11t-12.5 -3.5t-18.5 -0.5q-65 0 -86 -13.5t-33 -61.5l-241 -975q-33 -132 -152 -232t-256 -100q-96 0 -161.5 58t-65.5 159z" />
<glyph unicode="K" horiz-adv-x="1540" d="M135 20q0 19 6.5 27.5t16 10t32.5 1.5q91 0 117.5 16t38.5 72l281 1129q4 9 4 31q0 12 -8.5 19t-28.5 9.5t-32 3t-40 0.5q-42 0 -48 6q-5 4 -5 15q0 18 7.5 27.5t14 10.5t17.5 1q37 0 113 -2t114 -2q37 0 111 2t110 2q29 0 29 -23q0 -14 -2.5 -22t-12 -11t-15 -3.5 t-23.5 -0.5q-91 0 -118.5 -16t-39.5 -70l-166 -663l729 610q13 13 19 17q3 9 12 12q1 1 7.5 7t9 9t8 10t8 12.5t4.5 14.5t2 18q0 36 -47 39q-25 0 -25 21q0 18 7.5 27.5t14 10.5t17.5 1q29 0 92 -2t95 -2q23 0 72 2t73 2q23 0 23 -21q0 -16 -6 -25t-12 -11t-17 -3 q-28 -3 -50.5 -8.5t-60 -21.5t-87.5 -49.5t-112 -85.5l-380 -320l262 -711q18 -49 42 -65.5t72 -18.5q21 0 30 -3.5t9 -16.5q0 -18 -6.5 -27.5t-12.5 -10.5t-16 -1q-1 0 -6.5 0.5t-18 1t-31 1t-51 1t-73.5 0.5q-34 0 -102 -2t-101 -2h-3.5h-4t-4.5 0.5t-5 1t-4.5 2t-3.5 3.5 t-2 5.5t-1 7.5q0 18 6.5 27.5t12.5 10.5t16 1q13 0 26.5 2.5t31 8.5t29 20t11.5 35q0 18 -10 43l-215 584l-293 -248q-22 -90 -41.5 -168t-29.5 -116.5t-17.5 -68.5t-10 -41t-2.5 -16q0 -12 4 -18t30.5 -11.5t80.5 -5.5h9.5h9h7.5t6.5 -0.5t5 -1.5t4.5 -2.5t2.5 -3.5t2 -5 t0.5 -7q0 -18 -7.5 -27.5t-14 -10.5t-17.5 -1q-36 0 -112 2t-113 2t-111 -2t-110 -2h-4h-5.5t-5 0.5t-5.5 2t-4.5 3.5t-3.5 5.5t-1 8.5z" />
<glyph unicode="L" horiz-adv-x="1255" d="M135 20q0 19 6.5 27.5t16 10t32.5 1.5q91 0 117.5 16t38.5 72l281 1129q4 9 4 31q0 12 -8.5 19t-28.5 9.5t-32 3t-40 0.5q-42 0 -48 6q-5 4 -5 15q0 18 7.5 27.5t14 10.5t17.5 1q40 0 120 -2t120 -2q41 0 124.5 2t124.5 2q11 0 16.5 -1t11 -6t5.5 -16q0 -14 -3 -22 t-12.5 -11t-15 -3.5t-24.5 -0.5h-14q-80 0 -116 -8t-50 -26t-23 -60l-278 -1114q-9 -21 -9 -47q0 -17 9 -21t53 -4h168q65 0 122 15t97.5 36.5t77 58.5t59.5 68.5t46.5 79.5t35 77.5t27.5 76.5q13 38 19.5 45.5t23.5 7.5q26 0 26 -20q0 -7 -6 -25l-156 -444 q-10 -26 -17.5 -30.5t-39.5 -4.5h-846h-9.5h-8.5h-7t-6.5 0.5t-5.5 1t-4.5 1.5t-3 2.5t-2.5 3.5t-1.5 5t-0.5 6z" />
<glyph unicode="M" horiz-adv-x="1796" d="M143 20q0 18 6.5 27.5t11.5 10.5t13 1q72 7 102 21q71 32 93 125l266 1071q4 9 4 31q0 12 -8.5 19t-28.5 9.5t-32 3t-40 0.5q-42 0 -48 6q-5 4 -5 15q0 19 6.5 27.5t16 10t32.5 1.5h248q36 0 43.5 -7t12.5 -40l110 -1159l696 1173q17 24 27 28.5t43 4.5h240q21 0 29 -1 t14 -6t6 -16q0 -14 -2.5 -22t-12 -11t-15 -3.5t-23.5 -0.5q-91 0 -118.5 -16t-39.5 -70l-283 -1128q-4 -12 -4 -31q0 -12 4 -18t30.5 -11.5t80.5 -5.5h9.5h9h7.5t6.5 -0.5t5 -1.5t4.5 -2.5t2.5 -3.5t2 -5t0.5 -7q0 -18 -7 -27.5t-13.5 -10.5t-16.5 -1q-36 0 -110 2t-111 2 q-36 0 -107.5 -2t-107.5 -2q-27 0 -27 20q0 19 7 27.5t16 10t33 1.5q91 0 117 16t38 72l291 1168h-2l-760 -1278q-13 -23 -21.5 -30t-25.5 -7q-18 0 -23 7.5t-10 37.5l-118 1258h-2l-277 -1108q-1 -3 -2 -9.5t-2 -9.5q-4 -28 -4 -31q0 -49 31.5 -66.5t87.5 -19.5 q28 0 28 -20q0 -18 -6.5 -27.5t-12.5 -10.5t-16 -1q-29 0 -90.5 2t-93.5 2q-30 0 -91 -2t-89 -2q-25 0 -25 20z" />
<glyph unicode="N" horiz-adv-x="1488" d="M135 20q0 18 6.5 27.5t11.5 10.5t13 1q72 7 101 20q71 32 93 126l281 1122q-40 12 -119 12q-42 0 -48 6q-5 4 -5 15q0 19 6.5 27.5t16 10t32.5 1.5h234q32 0 39.5 -5t15.5 -28l373 -1085l229 917q1 4 3 15.5t3.5 21.5t1.5 18q0 46 -28.5 65t-87.5 21q-31 0 -31 21 q0 18 7 27.5t13.5 10.5t16.5 1q29 0 90.5 -2t93.5 -2q30 0 90 2t88 2q27 0 27 -23q0 -37 -31 -37q-37 -3 -60 -8t-52.5 -19t-49.5 -43.5t-32 -74.5l-289 -1157q-6 -25 -12.5 -31t-24.5 -6t-23.5 5.5t-11.5 25.5l-426 1243l-270 -1079q-1 -3 -2 -9.5t-2 -9.5q-4 -28 -4 -31 q0 -49 31 -66.5t87 -19.5q29 0 29 -20q0 -18 -6.5 -27.5t-12.5 -10.5t-16 -1q-29 0 -90.5 2t-93.5 2q-30 0 -91 -2t-89 -2q-25 0 -25 20z" />
<glyph unicode="O" horiz-adv-x="1536" d="M299 481q0 173 72 349t186.5 309.5t266 218t302.5 84.5q138 0 243 -70.5t159.5 -190t54.5 -268.5q0 -176 -72.5 -351.5t-187.5 -307.5t-265.5 -214.5t-299.5 -82.5q-209 0 -334 148t-125 376zM467 422q0 -189 82.5 -303.5t218.5 -114.5q90 0 177 45.5t158 122t131.5 177 t101.5 210t64 222t23 212.5q0 193 -87.5 298.5t-221.5 105.5q-105 0 -220 -70t-214 -209q-75 -108 -126.5 -257t-69 -257t-17.5 -182z" />
<glyph unicode="P" horiz-adv-x="1357" d="M137 20q0 19 7 27.5t16 10t33 1.5q91 0 117 16t38 72l281 1129q4 9 4 31q0 12 -8.5 19t-28.5 9.5t-32 3t-40 0.5q-42 0 -48 6q-5 4 -5 15q0 19 6.5 27.5t16 10t32.5 1.5h586q162 0 258 -84t96 -215q0 -117 -78 -222t-199.5 -166t-248.5 -61h-313l-133 -526l-5 -31 q0 -12 4 -18t30.5 -11.5t80.5 -5.5h9.5h9h7.5t6.5 -0.5t5 -1.5t4.5 -2.5t2.5 -3.5t2 -5t0.5 -7q0 -18 -7.5 -27.5t-14 -10.5t-17.5 -1q-36 0 -112 2t-113 2t-111 -2t-110 -2h-4h-5.5t-5 0.5t-5.5 2t-4.5 3.5t-3.5 5.5t-1 8.5zM635 700h258q44 0 85 7.5t69.5 18.5t54 24.5 t39.5 24.5t25 20.5t12 9.5q47 53 77 133.5t37.5 130.5t7.5 80q0 190 -247 190h-179q-54 0 -71.5 -11t-28.5 -66z" />
<glyph unicode="Q" horiz-adv-x="1536" d="M299 481q0 173 72 349t186.5 309.5t266 218t302.5 84.5q138 0 243 -70.5t159.5 -190t54.5 -268.5q0 -91 -22 -190.5t-69 -203.5t-114.5 -197.5t-165 -175.5t-213.5 -134q0 -133 27 -183t96 -50q71 0 133.5 59.5t92.5 149.5q9 30 22 30q21 0 21 -20q0 -7 -11 -46.5 t-36.5 -102.5t-55.5 -107q-91 -139 -215 -139q-32 0 -57.5 8t-41 19t-27 30t-16.5 32.5t-8 35.5t-3 31v26q0 19 1.5 37t3.5 33.5t7 54.5l10 78q-91 -31 -184 -31q-209 0 -334 148t-125 376zM459 414q0 -86 18 -160t64 -137.5t116 -91.5q-12 27 -12 63q0 74 58 143.5 t137 69.5q38 0 66.5 -14t44.5 -34.5t26.5 -52.5t14 -58t5.5 -62q95 59 172 155.5t123 198t77 211t42.5 193t11.5 145.5q0 186 -83.5 300t-223.5 114q-118 0 -236.5 -82t-197.5 -199q-66 -95 -114 -208t-69.5 -212t-30.5 -167.5t-9 -114.5zM686 88q0 -31 9.5 -50.5t26 -26 t25 -8t21.5 -1.5q88 0 182 49q4 46 4 66q0 67 -23.5 105t-90.5 38q-62 0 -108 -56t-46 -116z" />
<glyph unicode="R" horiz-adv-x="1460" d="M137 20q0 19 7 27.5t16 10t33 1.5q91 0 117 16t38 72l281 1129q4 9 4 31q0 12 -8.5 19t-28.5 9.5t-32 3t-40 0.5q-42 0 -48 6q-5 4 -5 15q0 19 6.5 27.5t16 10t32.5 1.5h514q182 0 292 -87t110 -214q0 -130 -118.5 -243.5t-307.5 -158.5q176 -75 176 -239q0 -6 -1 -17 t-2.5 -26t-2.5 -23q-1 -7 -2 -21.5t-2 -21.5q-23 -145 -23 -233q0 -36 3 -57.5t19.5 -40.5t47.5 -19q50 0 90.5 48t66.5 130q6 23 11 28t22 5q29 0 29 -21q0 -11 -13 -44.5t-37.5 -77t-71 -76.5t-103.5 -33q-44 0 -84.5 11t-76.5 34t-57.5 66t-21.5 100q0 40 33 174 q31 113 31 154q0 25 -4.5 48t-18 48.5t-35 44.5t-57.5 31t-82 12h-221l-140 -555l-4 -31q0 -12 4 -18t30.5 -11.5t80.5 -5.5h9.5h9h7.5t6.5 -0.5t5 -1.5t4.5 -2.5t2.5 -3.5t2 -5t0.5 -7q0 -18 -7.5 -27.5t-14 -10.5t-17.5 -1q-36 0 -111 2t-112 2q-36 0 -109.5 -2t-109.5 -2 h-4h-5.5t-5 0.5t-5.5 2t-4.5 3.5t-3.5 5.5t-1 8.5zM639 721h209q85 0 154 22t112.5 54.5t75.5 78.5t47.5 85t24.5 82.5t10.5 64t1.5 35.5q0 41 -13 73t-31 52t-50 34.5t-56.5 21.5t-65 10.5t-61.5 4t-59 0.5q-106 0 -115 -4q-11 -1 -17.5 -5t-15 -20.5t-16.5 -47.5z" />
<glyph unicode="S" horiz-adv-x="1126" d="M147 -25q0 8 7 29l106 426q6 24 11.5 29.5t23.5 5.5q27 0 27 -19l-3 -16q-16 -56 -16 -125q0 -76 25 -133t68.5 -90.5t96 -49.5t113.5 -16q90 0 171 60.5t128 152.5t47 185q0 157 -123 200l-124 37q-106 28 -149 47t-73 52q-77 83 -77 208q0 121 65.5 233.5t173.5 181.5 t225 69q188 0 265 -146l92 123q16 23 28 23q7 0 11 -2q10 -7 10 -17t-6 -28l-107 -426q-6 -24 -11.5 -29.5t-23.5 -5.5h-5h-5.5t-4.5 0.5t-4.5 1t-3.5 2t-3 3.5t-1.5 5.5t-0.5 7.5v4q0 1 0.5 3t1.5 5.5t2 6.5q8 59 8 121q0 292 -246 292q-84 0 -162 -52t-125 -134t-47 -168 q0 -44 11 -78t26.5 -54t39.5 -35t42 -21.5t43 -12.5l199 -59q83 -26 133.5 -98t50.5 -189q0 -132 -67 -254.5t-178 -198t-232 -75.5q-211 0 -309 149l-92 -122q-4 -4 -8 -8.5t-5.5 -6.5t-4 -4.5l-3.5 -3.5t-2.5 -2t-2.5 -1.5t-2 -0.5h-3q-8 0 -10 2q-11 4 -11 16z" />
<glyph unicode="T" horiz-adv-x="1433" d="M356 952q0 9 6 27l125 377q7 24 16 28.5t42 4.5h1028q21 0 29 -1t14 -6t6 -16v-4q0 -1 -4 -21l-62 -370q-5 -26 -9.5 -32.5t-22.5 -6.5q-29 0 -29 22l4 23q23 119 23 199q0 42 -11 70t-29 44.5t-53.5 25t-72 11t-96.5 2.5q-102 0 -111 -4q-14 -5 -23.5 -19t-19.5 -53 l-279 -1114q-4 -15 -4 -35q0 -6 1 -11t2.5 -8t5.5 -6l6 -4.5t9 -3t10 -2t12.5 -1.5t13.5 -2q58 -7 100 -7h25q22 0 29.5 -0.5t13.5 -5.5t6 -16q0 -14 -3 -22t-11 -11t-12 -3.5t-17 -0.5l-297 4l-291 -4h-5.5h-5.5h-5t-5 0.5t-4.5 1.5t-4 2.5t-3 3.5t-2 5t-0.5 7 q0 19 6.5 27.5t16 10t32.5 1.5h25q86 0 128 9.5t57 27.5t24 60l276 1108q9 27 9 43q0 9 -1.5 12.5t-12.5 6.5t-33 3h-70q-74 0 -122 -4.5t-90 -20.5t-67.5 -37t-52.5 -65.5t-46 -93.5t-48 -133q-12 -32 -17 -37.5t-22 -5.5q-27 0 -27 20z" />
<glyph unicode="U" horiz-adv-x="1488" d="M410 334q0 69 16 135l201 807q4 9 4 31q0 12 -8.5 19t-28.5 9.5t-32 3t-40 0.5q-42 0 -48 6q-5 4 -5 15q0 18 7.5 27.5t14 10.5t17.5 1q37 0 113 -2t114 -2q37 0 111 2t110 2q29 0 29 -23q0 -14 -2.5 -22t-12 -11t-15 -3.5t-23.5 -0.5q-91 0 -118.5 -16t-39.5 -70 l-205 -821q-20 -67 -20 -158q0 -125 62.5 -191.5t156.5 -66.5q152 0 289 134t182 315l182 733q9 21 9 55q0 46 -28.5 65t-88.5 21q-31 0 -31 21q0 18 7 27.5t13.5 10.5t16.5 1q12 -2 45 -2q31 -2 135 -2q29 0 89 2t87 2t27 -23q0 -37 -31 -37q-30 -2 -47 -4.5t-44 -11.5 t-43.5 -23t-33 -41t-26.5 -65l-185 -741q-22 -90 -73.5 -178t-121 -159t-158.5 -115t-179 -44q-147 0 -248.5 101.5t-101.5 275.5z" />
<glyph unicode="V" horiz-adv-x="1488" d="M426 1360q0 18 6.5 27.5t12.5 10.5t16 1q31 0 98 -2t100 -2q37 0 106 2t103 2q29 0 29 -23q0 -19 -7 -27t-14 -9t-28 -1q-44 0 -72 -9.5t-36 -23.5t-11 -30.5t2 -30.5l107 -1065l614 1030q23 38 23 64t-18 42t-33 19.5t-25 3.5q-27 0 -27 21q0 18 6.5 27.5t12.5 10.5 t16 1q27 0 84 -2t84 -2q23 0 73 2t74 2q9 0 13 -2q12 -3 12 -19q0 -24 -8.5 -30.5t-28.5 -8.5q-79 -10 -125.5 -49t-95.5 -121l-709 -1179q-13 -22 -20.5 -27.5t-26.5 -5.5q-20 0 -25 7.5t-10 37.5l-123 1264q-3 33 -10 46t-29 20t-71 7h-5q-13 0 -18.5 0.5t-10.5 5.5t-5 15 z" />
<glyph unicode="W" horiz-adv-x="2000" d="M424 1362q0 18 8 27t13 9.5t14 1.5q12 -2 45 -3q31 -2 147 -2q34 0 103 2t102 3q29 0 29 -24q0 -11 -2.5 -18.5t-5 -11.5t-10 -5.5t-10 -1.5h-13.5q-114 0 -128 -54q-3 -11 -3 -42l41 -1024l491 905q1 2 3.5 8t4.5 11t2 8l-4 139q-5 29 -20.5 39t-69.5 10h-6 q-14 0 -20.5 0.5t-11.5 5.5t-5 15q0 18 6.5 27.5t12.5 10.5t16 2q10 -2 43 -3q31 -2 147 -2q34 0 103.5 2t103.5 3q29 0 29 -22q0 -14 -3 -22.5t-10 -12t-12 -4t-14 -0.5q-29 0 -51.5 -3.5t-37 -7.5t-24 -14t-14 -15t-6.5 -19t-2 -17v-18l43 -1026l530 983q21 42 21 62 q0 30 -22.5 48.5t-42 22.5t-33.5 4q-9 0 -13.5 1t-9 6t-4.5 16q0 18 7.5 27t13 9.5l16.5 1.5q29 0 88 -2.5t88 -2.5q36 0 64 0.5t42.5 1t23.5 1t13 1t6 1.5q23 0 23 -22q0 -16 -6 -25t-11.5 -11t-15.5 -3q-27 -4 -41 -7.5t-44.5 -18.5t-59.5 -49.5t-58 -87.5l-639 -1186 q-18 -33 -47 -33q-22 0 -26 7t-6 38l-43 1042l-572 -1050q-13 -24 -20.5 -30.5t-26.5 -6.5q-22 0 -26.5 7t-6.5 38l-53 1272q0 40 -15 52.5t-77 12.5q-17 0 -23.5 1t-12 6t-5.5 16z" />
<glyph unicode="X" horiz-adv-x="1488" d="M98 23q0 17 6 24.5t11.5 9t21.5 2.5q2 0 8 1q157 19 271 149l432 491l-215 576q-14 34 -25 43q-24 20 -100 20q-39 0 -45 6q-4 5 -4 15q0 18 7 27.5t13.5 10.5t16.5 1q31 0 99 -2t101 -2q36 0 106.5 2t106.5 2q29 0 29 -21q0 -16 -6 -25t-12 -11t-17 -3q-75 -10 -104 -59 l166 -446l317 360q45 45 45 88q0 21 -14.5 37t-44.5 20q-1 0 -6.5 0.5t-7 1t-5 2t-5 3.5t-2.5 6t-1 10q0 18 7.5 27t13 9.5t16.5 0.5l188 -4q28 0 85 2t85 2q25 0 25 -21q0 -36 -23 -39q-34 -3 -50.5 -5t-52 -11.5t-63 -25.5t-67 -47.5t-78.5 -75.5l-342 -394l246 -659 q8 -21 12 -28t17.5 -17.5t38 -13.5t65.5 -3h7h7h6t6 -0.5t4.5 -1.5t3.5 -2.5t2.5 -3.5t2 -5t0.5 -7q0 -18 -6.5 -27.5t-12.5 -10.5t-16 -1q-33 0 -101.5 2t-101.5 2q-37 0 -107 -2t-104 -2h-3.5h-4t-4.5 0.5t-5 1t-4.5 2t-3.5 3.5t-2 5.5t-1 7.5q0 37 26 39q41 5 67.5 18.5 t34 25t7.5 18.5q0 6 -6 24l-189 502l-389 -444q-45 -51 -45 -84q0 -23 14 -37.5t27.5 -18.5t24.5 -4q1 -1 4.5 -2t5.5 -2q10 -7 10 -16q0 -18 -7 -27.5t-13.5 -10.5t-16.5 -1q-29 0 -92.5 2t-95.5 2q-27 0 -85 -2t-85 -2q-25 0 -25 23z" />
<glyph unicode="Y" horiz-adv-x="1488" d="M412 1360q0 18 7 27.5t13.5 10.5t16.5 1q31 0 99 -2t101 -2q36 0 106.5 2t106.5 2q10 0 15 -0.5t10.5 -6t5.5 -16.5q0 -14 -3 -22t-11 -11t-12 -3.5t-15 -0.5q-104 0 -104 -49q0 -6 2 -10q1 -2 1.5 -5.5t1 -5.5t1.5 -3l200 -631l461 563q51 60 51 96q0 40 -59 45 q-23 0 -23 21q0 18 6.5 27.5t12.5 10.5t16 1q27 0 84 -2t84 -2q25 0 76 2t74 2q8 0 12 -2q12 -3 12 -19q0 -24 -8.5 -30.5t-28.5 -8.5q-74 -8 -131.5 -42t-132.5 -126l-487 -593q-11 -13 -15 -21.5t-12 -36.5q-22 -93 -32 -130.5t-31 -125.5q-39 -139 -39 -170q0 -14 4 -20 t29 -10.5t79 -4.5h10q16 0 23 -0.5t12 -5t5 -14.5q0 -18 -7.5 -27.5t-14 -10.5t-17.5 -1q-36 0 -111.5 2t-112.5 2q-36 0 -109.5 -2t-109.5 -2h-3.5h-4t-4.5 0.5t-5 1t-4.5 2t-3.5 3.5t-2 5.5t-1 7.5q0 19 6.5 27.5t14 10t24.5 1.5q92 0 120.5 13.5t40.5 58.5 q0 4 53.5 213.5t53.5 214.5q0 4 -1.5 9.5t-3.5 12t-3 9.5l-219 686q-12 38 -37 50.5t-94 12.5h-5q-13 0 -18.5 0.5t-10.5 5.5t-5 15z" />
<glyph unicode="Z" horiz-adv-x="1228" d="M160 16q0 11 2 17q2 13 20 37l1055 1269h-289q-89 0 -158.5 -18t-116.5 -47t-84 -77t-59.5 -97t-44.5 -117q-2 -5 -4 -11.5t-3 -9.5t-3 -7l-2.5 -5t-2.5 -3.5t-3.5 -2.5t-4.5 -1t-5.5 -1h-7.5q-27 0 -27 21q0 6 2 8q0 1 0.5 3t1.5 6.5t2 8.5l113 375q8 25 15.5 30t39.5 5 h776q27 0 36 -3t9 -14q0 -25 -20 -45l-1055 -1274h305q70 0 128.5 10.5t102 28t79.5 47.5t61.5 61t48.5 76.5t38.5 86t33.5 98.5q21 61 24 64q6 6 23 6q26 0 26 -21v-6q0 -3 -2.5 -9t-3.5 -11l-141 -457q-11 -27 -18 -32t-37 -5h-805q-15 0 -21.5 0.5t-13 1.5t-8.5 4.5 t-2 9.5z" />
<glyph unicode="[" horiz-adv-x="614" d="M145 -492q0 6 7 27l491 1966q6 25 13 30t42 5h154h9.5h8.5h7t6.5 -0.5t5.5 -1t4.5 -1.5t3 -2.5t2.5 -3.5t1.5 -5t0.5 -6q0 -20 -4 -32t-13 -17t-17.5 -6t-24.5 -1h-133l-473 -1896h122q21 0 29.5 -1t14.5 -6t6 -16q0 -20 -3.5 -31.5t-14 -16t-17.5 -5t-25 -0.5h-153h-10 q-16 0 -23 0.5t-12 5t-5 14.5z" />
<glyph unicode="\" d="M487 1487q0 6 2 8q4 17 19.5 29t32.5 12q5 0 9 -0.5t7 -2.5t5.5 -3.5t4 -5t2.5 -5t2 -7t1 -6.5t0.5 -7.5t0.5 -7.5l215 -1925q3 -21 3 -29v-8q-4 -17 -19.5 -29t-32.5 -12q-14 0 -22 7.5t-9.5 14.5t-2.5 23l-216 1925q-2 14 -2 29z" />
<glyph unicode="]" horiz-adv-x="614" d="M-33 -492q0 20 4 32t13.5 17t18 6t24.5 1h133l473 1896h-123q-21 0 -29 1t-14 6t-6 16q0 20 3.5 31.5t14 16t17 5t24.5 0.5h154h9.5h8.5h7t6.5 -0.5t5.5 -1t4.5 -1.5t3 -2.5t2.5 -3.5t1.5 -5t0.5 -6q0 -9 -6 -27l-492 -1966q-6 -25 -13 -30t-42 -5h-154h-9.5h-8.5h-7 t-6.5 0.5t-5.5 1t-4.5 1.5t-3 2.5t-2.5 3.5t-1.5 5t-0.5 6z" />
<glyph unicode="^" horiz-adv-x="1138" d="M289 1196l661 328l498 -328l-35 -45l-495 252l-617 -252z" />
<glyph unicode="_" horiz-adv-x="1488" d="M-92 -256q11 29 35 29h1489q28 0 22 -29q-10 -29 -37 -29h-1489q-11 0 -17.5 8.5t-2.5 20.5z" />
<glyph unicode="`" d="M623 1370q10 23 34.5 39t47.5 16q13 0 32 -14q2 -3 6 -7.5t5 -6.5l143 -301q12 -19 4 -27q-6 -11 -20.5 -21t-22.5 -10q-18 0 -21 13l-198 258q-27 27 -10 61z" />
<glyph unicode="a" d="M201 291q0 147 67.5 290t174.5 232.5t216 89.5q115 0 164 -121l2 2q2 13 15 39q25 41 65 41q27 0 40 -14.5t13 -34.5v-8q0 -3 -2.5 -12t-3.5 -13l-143 -571q-16 -62 -16 -109q0 -82 55 -82q43 0 74.5 56.5t62.5 185.5q11 36 16 42.5t23 6.5q27 0 27 -18q0 -4 -7.5 -36 t-22.5 -79.5t-30 -79.5q-54 -118 -147 -118q-16 0 -32.5 3t-38 12.5t-38.5 24.5t-31.5 42t-21.5 63q-126 -145 -246 -145q-104 0 -169.5 87t-65.5 224zM328 205q0 -19 2.5 -41t12 -59t34.5 -61t63 -24q55 0 115 46.5t96.5 98.5t42.5 83l97 389l6 29q0 12 -5 37.5t-17.5 64.5 t-43 66.5t-72.5 27.5q-63 0 -126 -66t-107 -165q-29 -74 -63.5 -214.5t-34.5 -211.5z" />
<glyph unicode="b" horiz-adv-x="921" d="M233 287q0 71 19 149l207 830q6 30 6 34q0 14 -4 21t-27.5 12.5t-71.5 5.5q-35 0 -41 6q-4 6 -4 15q0 19 6.5 27.5t14 10.5t27.5 3l204 18q9 1 17 1q14 0 20 -2q10 -4 10 -17q0 -6 -6 -27l-145 -586q115 115 219 115t170 -88.5t66 -222.5q0 -144 -67 -286.5t-175 -234 t-219 -91.5q-100 0 -163 81.5t-63 225.5zM340 217q0 -49 10.5 -91t39 -74t71.5 -32q52 0 110 49.5t109 151.5q33 75 72 225.5t39 231.5q0 84 -29.5 134t-83.5 50q-75 0 -154.5 -83t-99.5 -154q-3 -11 -8 -30.5t-8 -31.5q-10 -44 -27.5 -117t-23.5 -99t-11.5 -63.5 t-5.5 -66.5z" />
<glyph unicode="c" horiz-adv-x="921" d="M225 311q0 148 74 286t192 222t242 84q92 0 151.5 -49.5t59.5 -122.5q0 -38 -11.5 -64t-29.5 -36.5t-31 -14.5t-24 -4q-21 0 -42.5 14.5t-21.5 47.5q0 36 29 62t68 28q-9 33 -32 55.5t-50.5 30t-42 10t-25.5 2.5q-67 0 -136 -50.5t-122 -141.5q-46 -81 -81.5 -221 t-35.5 -216q0 -95 42 -154t118 -59q88 0 189.5 51.5t177.5 153.5q19 21 24 21q10 0 19.5 -10t9.5 -21q0 -10 -19 -35.5t-57.5 -59.5t-87.5 -65.5t-118 -53t-140 -21.5q-126 0 -207.5 89.5t-81.5 241.5z" />
<glyph unicode="d" d="M221 291q0 147 67.5 290t175 232.5t216.5 89.5t168 -125l121 488q6 24 6 34q0 14 -4 21t-27.5 12.5t-71.5 5.5q-35 0 -41 6q-4 5 -4 15q0 14 2.5 22.5t10 12t13.5 4.5t21 2l205 18q9 1 17 1q14 0 20 -2q10 -4 10 -17q0 -3 -2.5 -11.5t-3.5 -15.5l-291 -1161 q-16 -72 -16 -111q0 -82 55 -82q43 0 75 56.5t63 185.5q11 37 15.5 43t22.5 6q27 0 28 -18q0 -4 -8 -35.5t-22.5 -79.5t-29.5 -80q-54 -118 -148 -118q-16 0 -32.5 3t-38 12.5t-38.5 24.5t-31.5 42t-21.5 63q-126 -145 -245 -145q-104 0 -170 87t-66 224zM348 205 q0 -19 3 -41t12.5 -59t34.5 -61t63 -24q42 0 88 28t80 67.5t57.5 76.5t30.5 60l94 385l6 29q0 6 -2 23t-10.5 48.5t-22 58t-40.5 46.5t-62 20q-63 0 -126.5 -66t-107.5 -165q-29 -74 -63.5 -214.5t-34.5 -211.5z" />
<glyph unicode="e" horiz-adv-x="921" d="M233 334q0 104 31.5 197t83 159.5t116.5 115.5t133.5 73t133.5 24q89 0 143 -49t54 -121q0 -53 -22.5 -95.5t-54.5 -68.5t-81 -45.5t-88 -28.5t-89.5 -14t-72.5 -5.5t-49 -0.5h-74q-35 -122 -35 -227q0 -24 3 -49.5t12.5 -59t25.5 -58.5t45.5 -43t67.5 -18 q88 0 189.5 51.5t177.5 153.5q19 21 24 21q10 0 19.5 -10t9.5 -21q0 -10 -19 -35.5t-57.5 -59.5t-87.5 -65.5t-118 -53t-140 -21.5q-129 0 -205 99t-76 255zM410 516h43q24 0 44 0.5t64.5 5t79.5 12t78 23.5t71 38.5t48 58.5t20 81q0 56 -34.5 91.5t-94.5 35.5q-18 0 -40 -4 t-64 -24.5t-78.5 -54.5t-75 -102.5t-61.5 -160.5z" />
<glyph unicode="f" horiz-adv-x="614" d="M-55 -291q0 48 28 76.5t66 28.5q27 0 45 -16t18 -44q0 -9 -3 -20t-10.5 -26t-25.5 -27.5t-45 -18.5q27 -39 86 -39q21 0 39 11.5t29 26t22 43.5t16.5 47t14.5 54q24 90 62 267l145 751h-121h-7q-17 0 -24 0.5t-12.5 5.5t-5.5 15q0 19 7 27.5t16 10t30 1.5h129l43 223 q28 121 56 181q75 154 207 155q66 0 114.5 -34.5t48.5 -92.5q0 -48 -28 -76.5t-66 -28.5q-27 0 -45 16t-18 44q0 26 18 53.5t64 38.5q-31 39 -88 39q-27 0 -47.5 -16.5t-34 -47.5t-21 -59.5t-14.5 -69.5l-66 -325h156q21 0 29 -1t14 -6t6 -16q0 -14 -3 -22t-12.5 -11 t-15 -3.5t-24.5 -0.5h-160l-127 -653q-27 -133 -56 -232.5t-68 -183.5t-90 -128t-112 -44q-66 0 -112.5 34.5t-46.5 92.5z" />
<glyph unicode="g" horiz-adv-x="921" d="M106 -307q0 46 29 73t64 27q32 0 48.5 -18t16.5 -41q0 -27 -15 -51.5t-48 -36.5q60 -25 145 -25q57 0 107 25t81 63t50 71t28 62l66 267q-109 -109 -215 -109q-104 0 -171 84t-67 223q0 109 41 219t105 192t146.5 133.5t162.5 51.5q111 0 166 -117h2q5 31 25.5 54.5 t52.5 23.5q27 0 40 -14.5t13 -34.5v-8q0 -3 -2.5 -12t-3.5 -13l-225 -905q-34 -127 -142.5 -211t-261.5 -84q-121 0 -179.5 26t-58.5 85zM352 223q0 -19 3 -41t12.5 -59t35.5 -60.5t64 -23.5q74 0 156 83t96 144l94 375q1 4 2 12t2 11q0 8 2 10q0 7 -2.5 24.5t-11.5 47.5 t-23 55t-40.5 44t-61.5 19q-66 0 -131 -67t-103 -166q-28 -65 -61 -202t-33 -206z" />
<glyph unicode="h" d="M152 31q0 1 8 37l299 1196q6 24 6 36q0 14 -4 21t-27.5 12.5t-71.5 5.5q-35 0 -41 6q-4 6 -4 15q0 19 6.5 27.5t14 10.5t27.5 3l204 18q9 1 17 1q14 0 20 -2q10 -4 10 -17q0 -9 -6 -27l-153 -616q115 145 274 145q109 0 157 -58.5t48 -150.5q0 -55 -21.5 -143t-43 -151.5 t-58.5 -163.5q-39 -100 -39 -154q0 -34 11.5 -48t35.5 -14q40 0 74.5 28.5t57 72.5t36.5 81.5t21 71.5q6 25 11 31t23 6q27 0 27 -18q0 -6 -8 -36t-28 -77.5t-47.5 -91.5t-73.5 -76t-99 -32q-64 0 -105.5 43.5t-41.5 115.5q0 40 22 102q1 3 2 5.5t2 5.5q3 8 25 72.5 t34.5 104.5t30 101t26.5 110.5t9 84.5q0 137 -94 137q-55 0 -106.5 -27.5t-87.5 -66.5t-64.5 -84t-42.5 -78t-18 -51l-127 -508l-3 -10l-6 -15t-8 -14.5t-13 -14.5t-18.5 -9t-25.5 -4q-25 0 -39 15t-14 36z" />
<glyph unicode="i" horiz-adv-x="614" d="M170 590q0 6 8 36.5t28.5 78t48 91.5t73 75.5t98.5 31.5q63 0 105 -42.5t42 -117.5q0 -42 -22 -104l-121 -332q-65 -167 -65 -227t47 -60q40 0 75 28.5t57 73t35 81.5t21 71q6 25 11.5 31t23.5 6q27 0 27 -18q0 -6 -8 -36t-28 -77.5t-47 -91.5t-72.5 -76t-98.5 -32 q-60 0 -104 39t-44 122q0 43 16 90l164 445q27 75 27 125q0 18 -1 27.5t-11.5 21.5t-32.5 12q-42 0 -77 -28.5t-57.5 -76.5t-34 -81t-20.5 -70q-6 -24 -11 -29.5t-23 -5.5q-29 0 -29 19zM514 1214q0 45 37 81t84 36q34 0 58 -21t24 -61q0 -47 -36.5 -81.5t-84.5 -34.5 q-32 0 -57 21t-25 60z" />
<glyph unicode="j" horiz-adv-x="614" d="M-74 -305q0 43 27.5 70.5t64.5 27.5q33 0 49.5 -18t16.5 -41q0 -66 -70 -88q39 -23 88 -23q40 0 75.5 23t58 54t41 71t26.5 64.5t12 43.5l199 797q14 47 14 102q0 42 -11 63t-46 21q-71 0 -131.5 -71.5t-101.5 -180.5q-10 -29 -15.5 -34t-23.5 -5q-29 0 -29 19 q0 6 11.5 37t37.5 78t60.5 91t86.5 75.5t109 31.5q81 0 124.5 -51.5t43.5 -128.5q0 -5 -6 -47q-1 -4 -2 -12.5t-2 -12.5l-193 -770q-15 -54 -46 -106.5t-73.5 -96t-100.5 -70t-120 -26.5q-67 0 -120.5 27t-53.5 86zM514 1214q0 45 37 81t84 36q34 0 58 -21t24 -61 q0 -47 -36.5 -81.5t-84.5 -34.5q-32 0 -57 21t-25 60z" />
<glyph unicode="k" horiz-adv-x="921" d="M152 31q0 1 8 37l299 1196q6 24 6 36q0 14 -4 21t-27.5 12.5t-71.5 5.5q-35 0 -41 6q-4 6 -4 15q0 19 6.5 27.5t14 10.5t27.5 3l204 18q9 1 17 1q14 0 20 -2q10 -4 10 -17q0 -9 -6 -27l-211 -844q26 11 42 21t57 47.5t94 101.5q4 5 24 27.5t26.5 29.5t25.5 27t27.5 27.5 t27 24t30 23t29.5 17.5t32.5 15.5t32.5 8t36 3.5q63 0 96 -34.5t33 -80.5q0 -47 -28 -75.5t-66 -28.5q-26 0 -45 14.5t-19 44.5q0 31 19 58.5t67 34.5q-1 4 -7 9.5t-20.5 11t-33.5 5.5q-65 0 -123 -46t-127 -130q-69 -81 -105.5 -117t-77.5 -59q269 -47 269 -213 q0 -31 -10 -70q-3 -15 -8 -36t-6 -26.5t-3 -17t-2 -19.5v-22q0 -86 62 -86q31 0 56.5 20t44 59t30 74.5t24.5 88.5q11 36 16 42.5t23 6.5q27 0 27 -18q0 -6 -8.5 -38t-24.5 -78.5t-33 -78.5q-63 -118 -160 -118q-66 0 -115.5 47t-49.5 147q0 39 10 80q4 15 4 41 q0 39 -17.5 70.5t-41 49.5t-55 31t-53 18t-40.5 7l-106 -424l-3 -10l-6 -15t-8 -14.5t-13 -14.5t-18.5 -9t-25.5 -4q-25 0 -39 15t-14 36z" />
<glyph unicode="l" horiz-adv-x="512" d="M190 160q0 38 11 71l258 1033q6 24 6 36q0 14 -4 21t-27.5 12.5t-71.5 5.5q-35 0 -41 6q-4 6 -4 15q0 19 6.5 27.5t14 10.5t27.5 3l204 18q9 1 17 1q14 0 20 -2q10 -4 10 -17q0 -3 -2.5 -11.5t-3.5 -15.5l-291 -1161q-16 -72 -16 -111q0 -82 55 -82q24 0 43.5 18t34.5 51 t26 65.5t23 74.5q3 10 4 15q3 10 10 31.5t7 23.5q5 12 26 12h4h4.5t4.5 -0.5t4.5 -1t3.5 -2t3 -3.5t2 -5.5t1 -7.5t-8 -40t-24 -87.5t-33 -79.5q-27 -50 -59 -77t-81 -27q-73 0 -118.5 49.5t-45.5 130.5z" />
<glyph unicode="m" horiz-adv-x="1638" d="M170 592l18 74q3 9 12.5 39.5t17.5 51t18 38.5q53 108 143 108q70 0 114.5 -47.5t49.5 -118.5q118 166 293 166q52 0 94.5 -16.5t74.5 -60t37 -109.5q120 186 304 186q109 0 156.5 -58.5t47.5 -150.5q0 -55 -21.5 -143t-43 -151.5t-58.5 -163.5q-38 -97 -38 -154 q0 -34 11.5 -48t35.5 -14q40 0 74.5 28.5t57 72.5t35.5 81.5t21 71.5q6 25 11.5 31t23.5 6q27 0 27 -18q0 -6 -8 -36t-28 -77.5t-47.5 -91.5t-73.5 -76t-99 -32q-64 0 -106 43.5t-42 115.5q0 9 0.5 16.5t2 16t2.5 13.5t4 15t4.5 14.5t6.5 18t7 19.5q3 8 25 72.5t34.5 104.5 t30 101t26.5 110.5t9 84.5q0 137 -95 137q-55 0 -106.5 -27.5t-87.5 -66.5t-64.5 -84t-42.5 -78t-18 -51l-125 -504q-16 -71 -76 -71q-27 0 -40 14.5t-13 34.5v8q0 6 6 24l135 541q17 83 17 123q0 137 -95 137q-54 0 -104.5 -26t-86 -63.5t-64.5 -83t-45 -81t-23 -61.5 q-5 -23 -16.5 -66t-16.5 -67l-94 -379q-19 -55 -72 -55q-27 0 -40 14t-13 35q0 8 8 39l150 598q16 62 16 112q0 84 -53 84q-17 0 -32.5 -8.5t-28.5 -27.5t-23 -38t-20.5 -50.5t-17.5 -55t-17 -61.5q-11 -37 -15.5 -43.5t-21.5 -6.5q-29 0 -29 21z" />
<glyph unicode="n" horiz-adv-x="1126" d="M170 592l18 74q3 9 12.5 39.5t17.5 51t18 38.5q53 108 143 108q70 0 114.5 -47.5t49.5 -118.5q123 166 291 166q109 0 156.5 -58.5t47.5 -150.5q0 -55 -21.5 -143t-43 -151.5t-58.5 -163.5q-38 -97 -38 -154q0 -34 11.5 -48t35.5 -14q40 0 74.5 28.5t57 72.5t35.5 81.5 t21 71.5q6 25 11.5 31t23.5 6q27 0 27 -18q0 -6 -8 -36t-28 -77.5t-47.5 -91.5t-73.5 -76t-99 -32q-64 0 -106 43.5t-42 115.5q0 9 0.5 16.5t2 16t2.5 13.5t4 15t4.5 14.5t6.5 18t7 19.5q3 8 25 72.5t34.5 104.5t30 101t26.5 110.5t9 84.5q0 137 -95 137q-55 0 -107 -28 t-87 -67.5t-64 -85t-43 -78t-18 -48.5l-125 -504q-16 -71 -76 -71q-27 0 -40 14t-13 35q0 8 8 39l150 598q16 62 16 112q0 84 -53 84q-17 0 -32.5 -8.5t-28.5 -27.5t-23 -38t-20.5 -50.5t-17.5 -55t-17 -61.5q-11 -37 -15.5 -43.5t-21.5 -6.5q-29 0 -29 21z" />
<glyph unicode="o" d="M225 311q0 148 74 286t192 222t242 84q122 0 203.5 -89t81.5 -243q0 -110 -44.5 -219t-115 -190t-163.5 -131.5t-185 -50.5q-118 0 -201.5 87t-83.5 244zM356 233q0 -101 43.5 -157t112.5 -56q62 0 132 47.5t128 149.5q46 79 80.5 218.5t34.5 213.5q0 92 -41.5 152.5 t-116.5 60.5q-61 0 -131.5 -49.5t-124.5 -142.5q-46 -81 -81.5 -221t-35.5 -216z" />
<glyph unicode="p" d="M29 -377q0 14 3 22.5t10.5 12t13 4t16.5 0.5q56 0 76 14t32 62l232 928q16 62 16 112q0 84 -53 84q-17 0 -32.5 -8.5t-28.5 -27.5t-23 -38t-20.5 -50.5t-17.5 -55t-17 -61.5q-11 -37 -15.5 -43.5t-21.5 -6.5q-29 0 -29 21l18 74q3 9 12.5 39.5t17.5 51t18 38.5 q53 108 143 108q58 0 103.5 -37t58.5 -108q8 11 25.5 29.5t50.5 47.5t78.5 48.5t90.5 19.5q104 0 170 -88.5t66 -222.5q0 -108 -40.5 -219.5t-105 -197.5t-148.5 -140.5t-165 -54.5q-111 0 -168 122q-98 -375 -98 -409q0 -11 7.5 -18t24.5 -9.5t29.5 -3t36.5 -0.5t31.5 -0.5 t12.5 -5.5t5 -16q0 -18 -7 -27t-12.5 -9.5t-16.5 -0.5q-29 0 -92 2t-95 2q-27 0 -84 -2t-84 -2q-24 0 -24 20zM424 215q5 -50 22 -98q36 -97 117 -97q52 0 110 49.5t109 151.5q33 75 72 225.5t39 231.5q0 84 -29.5 134t-83.5 50q-76 0 -157.5 -85.5t-96.5 -145.5l-96 -387 q-6 -24 -6 -29z" />
<glyph unicode="q" horiz-adv-x="921" d="M221 291q0 147 67.5 290t175 232.5t216.5 89.5q66 0 108 -40t64 -95q23 44 67 88.5t58 44.5q18 0 18 -18q0 -9 -4 -29l-282 -1126q-4 -12 -4 -35q0 -11 7.5 -18t24.5 -9.5t29.5 -3t36.5 -0.5t31.5 -0.5t12.5 -5.5t5 -16q0 -18 -7.5 -27t-13 -9.5t-16.5 -0.5 q-31 0 -98.5 2t-100.5 2q-32 0 -97 -2t-97 -2h-4h-5.5t-5 0.5t-5.5 2t-4.5 3.5t-3.5 5.5t-1 8.5q0 19 6.5 27.5t14 10t24.5 1.5q36 0 55 0.5t37.5 6t26 10.5t16.5 21.5t13 31.5t12 47l78 311l-2 2q-112 -112 -217 -112q-104 0 -170 87t-66 224zM348 205q0 -19 3 -41 t12.5 -59t34.5 -61t63 -24q42 0 88 28t80 67.5t57.5 76.5t30.5 60l94 385l6 29q0 6 -2 23t-10.5 48.5t-22 58t-40.5 46.5t-62 20q-63 0 -126.5 -66t-107.5 -165q-29 -74 -63.5 -214.5t-34.5 -211.5z" />
<glyph unicode="r" horiz-adv-x="845" d="M170 592l18 74q3 9 12.5 39.5t17.5 51t18 38.5q53 108 143 108q32 0 63.5 -11.5t61.5 -47.5t37 -92q57 79 116 115t131 36q27 0 55.5 -4.5t63 -15.5t56.5 -37t22 -62q0 -50 -28.5 -75t-63.5 -25q-26 0 -45 14.5t-19 44.5q0 35 21.5 59.5t48.5 31.5q-42 28 -113 28 q-49 0 -94 -26.5t-74.5 -63t-53.5 -79t-34.5 -69t-13.5 -38.5l-133 -535q-17 -71 -76 -71q-27 0 -40 14t-13 35q0 8 8 39l150 598q16 62 16 112q0 84 -53 84q-17 0 -32.5 -8.5t-28.5 -27.5t-23 -38t-20.5 -50.5t-17.5 -55t-17 -61.5q-11 -37 -15.5 -43.5t-21.5 -6.5 q-29 0 -29 21z" />
<glyph unicode="s" horiz-adv-x="819" d="M152 176q0 39 12 66t30.5 37.5t31 14t22.5 3.5q24 0 43.5 -15t19.5 -44q-3 -24 -12 -45q-28 -46 -86 -48q14 -65 73 -95t126 -30q63 0 113.5 19.5t79.5 47t48.5 62t26 61t6.5 46.5q0 40 -16 69t-45.5 44.5t-48 21.5t-46.5 12q-104 27 -129 41q-17 9 -32 23 q-1 1 -8.5 10.5t-11 14.5t-10.5 15.5t-11 19.5t-8.5 22t-6.5 27t-2 30q0 29 9 64.5t32.5 77.5t58 76t91.5 56.5t127 22.5q96 0 154.5 -49t58.5 -123q0 -52 -22.5 -79t-59.5 -27q-28 0 -41.5 15.5t-13.5 35.5q0 7 2 15.5t8.5 23t23.5 25.5t43 14q-11 50 -52.5 79t-104.5 29 q-58 0 -102 -21.5t-66 -54.5t-32.5 -62.5t-10.5 -53.5q0 -32 11.5 -55t33 -36t40.5 -19t44 -11q30 -7 45 -11t45 -14t47.5 -20.5t40 -28.5t35 -39t21.5 -52t9 -67t-11 -78t-39 -88.5t-69 -84t-108 -62t-149 -24.5q-110 0 -184 52.5t-74 143.5z" />
<glyph unicode="t" horiz-adv-x="665" d="M184 844q0 19 7 27.5t16 10t33 2.5h174l80 320q20 76 77 76q26 0 40 -16t14 -33q-2 -4 -2 -12q0 -3 -1 -9l-1 -6l-82 -320h161q21 0 29.5 -1.5t14.5 -6.5t6 -16q0 -19 -8 -27t-16.5 -9t-31.5 -1h-170l-153 -612q-17 -66 -17 -109q0 -82 60 -82q36 0 70 20.5t57 46.5 t46.5 66.5t34.5 64t24 55.5q3 8 5 12q8 18 13 22t22 4q27 0 27 -18q0 -5 -11.5 -36t-37.5 -78.5t-60 -91.5t-86 -75.5t-108 -31.5q-81 0 -124.5 51.5t-43.5 128.5q0 32 10 73l147 590h-166h-7q-17 0 -24 0.5t-12.5 5.5t-5.5 15z" />
<glyph unicode="u" horiz-adv-x="1075" d="M170 590q0 6 8 36.5t28.5 78t48 91.5t73 75.5t98.5 31.5q71 0 110 -47t39 -113q0 -38 -26 -114q-119 -318 -119 -449q0 -29 4.5 -54.5t16 -50.5t34.5 -40t56 -15q69 0 123.5 44t87.5 114q4 12 4 21v12l147 592q15 80 80 80q21 0 36 -13.5t15 -35.5q0 -10 -8 -41 l-145 -582q-17 -66 -17 -109q0 -82 56 -82q43 0 74.5 56.5t62.5 185.5q11 36 16 42.5t23 6.5q26 0 26 -18q0 -4 -7.5 -35.5t-22 -79.5t-29.5 -80q-54 -118 -148 -118q-55 0 -97.5 31.5t-59.5 90.5q-98 -122 -223 -122q-41 0 -77.5 11t-70.5 35.5t-54 72.5t-20 114 q0 111 93 367q4 11 11 31q47 131 51 172l1 20q0 59 -47 59q-120 0 -189 -256q-6 -24 -11 -29.5t-23 -5.5q-29 0 -29 19z" />
<glyph unicode="v" horiz-adv-x="921" d="M170 590q0 6 8 36.5t28.5 78t48 91.5t73 75.5t98.5 31.5q71 0 110 -47t39 -113q0 -36 -26 -116q-117 -303 -117 -434q0 -72 31 -122.5t102 -50.5q67 0 125.5 56t95.5 134.5t63.5 165t38 147t11.5 81.5q0 102 -53 164q-23 29 -23 49q0 34 29.5 60t60.5 26q78 0 78 -131 q0 -15 -6 -60.5t-21 -119.5t-37 -154t-57.5 -162.5t-78.5 -148t-104 -106.5t-130 -41q-40 0 -76 9t-76.5 32.5t-65 74.5t-24.5 125q0 52 17.5 127t73.5 232q4 11 11 31q47 131 51 172l1 20q0 59 -47 59q-120 0 -189 -256q-6 -24 -11 -29.5t-23 -5.5q-29 0 -29 19z" />
<glyph unicode="w" horiz-adv-x="1331" d="M170 590q0 6 8 36.5t28.5 78t48 91.5t73 75.5t98.5 31.5q71 0 110 -47t39 -113q0 -31 -7 -58t-31 -87q-103 -285 -103 -399q0 -31 5.5 -58.5t19.5 -56.5t43.5 -46.5t72.5 -17.5q39 0 74 27t55.5 63.5t33 67.5t12.5 43q0 55 16 127l113 455q6 22 11.5 36t23.5 29t44 15 q21 0 36.5 -13.5t15.5 -35.5q0 -3 -6.5 -30t-15.5 -64.5t-13 -57.5l-68 -270q-41 -161 -41 -219q0 -72 31 -122.5t102 -50.5q131 0 213 209q28 67 62.5 193.5t34.5 181.5q0 101 -54 164q-22 28 -22 49q0 34 29.5 60t60.5 26q78 0 78 -131q0 -83 -43 -257.5t-74 -250.5 q-23 -61 -48 -107.5t-59.5 -88.5t-81.5 -65t-102 -23q-26 0 -52.5 4.5t-62.5 16.5t-65.5 41.5t-44.5 72.5q-27 -45 -54.5 -73.5t-53.5 -41t-45.5 -16.5t-43.5 -4q-44 0 -84.5 10.5t-81.5 36t-65.5 76.5t-24.5 122q0 56 20.5 134.5t70.5 220.5q4 11 11 31q47 131 51 172l1 20 q0 59 -47 59q-120 0 -189 -256q-6 -24 -11 -29.5t-23 -5.5q-29 0 -29 19z" />
<glyph unicode="x" horiz-adv-x="921" d="M104 98q0 42 27 71.5t68 29.5q27 0 45 -16t18 -44q0 -25 -17.5 -52t-56.5 -38q36 -29 93 -29q60 0 103 56.5t62 124.5l84 338q37 146 37 192q0 68 -27 99.5t-67 31.5q-73 0 -139 -69t-101 -185q-8 -26 -12.5 -31.5t-21.5 -5.5q-29 0 -29 19q0 11 9 37.5t25 62t43 72.5 t59 69t77 52t94 20q72 0 120.5 -40.5t68.5 -98.5q83 139 196 139q25 0 52 -5.5t55.5 -17.5t46.5 -37t18 -59q0 -50 -28.5 -75t-63.5 -25q-26 0 -44.5 14.5t-18.5 44.5q0 32 18.5 56.5t52.5 34.5q-35 28 -90 28q-36 0 -65 -19t-48 -44.5t-37.5 -74t-28 -82.5t-24.5 -95 l-47 -187q-41 -164 -41 -208q0 -18 3.5 -37t12.5 -42.5t30.5 -38t52.5 -14.5q73 0 139.5 72.5t99.5 179.5q8 28 12.5 33.5t22.5 5.5q27 0 28 -18q0 -14 -12.5 -48t-38.5 -79.5t-60.5 -87t-86 -70t-108.5 -28.5q-43 0 -79 14.5t-58.5 38t-35.5 45t-20 43.5 q-75 -141 -195 -141q-69 0 -120.5 30.5t-51.5 87.5z" />
<glyph unicode="y" horiz-adv-x="972" d="M170 590q0 6 8 36.5t28.5 78t48 91.5t73 75.5t98.5 31.5q71 0 110 -47t39 -113q0 -38 -26 -114q-119 -318 -119 -449q0 -29 4.5 -54.5t16 -50.5t34.5 -40t56 -15q77 0 138 60t75 119l149 604q4 15 8 26t13 25t24 21.5t35 7.5q21 0 36 -13.5t15 -35.5q0 -10 -8 -41 l-199 -799q-25 -100 -87 -193t-156.5 -156t-196.5 -63q-79 0 -131.5 47.5t-52.5 124.5q0 42 12 69.5t31.5 37.5t30.5 13t22 3q29 0 46 -17t17 -42q-2 -17 -14 -45q-27 -45 -86 -47q10 -53 45.5 -78t81.5 -25q114 0 211 135q13 19 25 40t20.5 37t17.5 40.5t13.5 36t12.5 39.5 l10 35t9.5 38t8.5 33q-77 -77 -182 -77q-41 0 -77.5 11t-70.5 35.5t-54 72.5t-20 114q0 111 93 367q4 11 11 31q47 131 51 172l1 20q0 59 -47 59q-120 0 -189 -256q-6 -24 -11 -29.5t-23 -5.5q-29 0 -29 19z" />
<glyph unicode="z" horiz-adv-x="819" d="M125 -4q0 9 27 53t84 117.5t120 136.5l291 291q36 36 105 115q-27 0 -38.5 1t-38.5 10.5t-65 29.5q-66 30 -104 30q-47 0 -91 -27.5t-61 -72.5q-6 -18 -10.5 -21.5t-21.5 -3.5q-27 0 -27 19q0 17 16 52.5t43.5 76t74 70.5t97.5 30q31 0 56 -14t37 -28.5t34 -45.5 q30 -39 48 -52t42 -13q31 0 58.5 26.5t68.5 97.5q11 21 15.5 25t21.5 4q27 0 27 -16q0 -32 -118 -180.5t-253 -268.5t-258 -268q9 4 43 4q49 0 115 -33q79 -39 121 -39q32 0 71.5 15t84 58.5t67.5 107.5q5 15 10 19.5t21 4.5q28 0 28 -20q0 -16 -13 -50.5t-39.5 -78.5 t-61.5 -84t-85 -67t-104 -27q-43 0 -69.5 21t-57.5 67q-22 31 -40.5 46t-27 17t-24.5 2q-25 0 -48.5 -11.5t-44.5 -34.5t-33.5 -39t-29.5 -42q-2 -3 -4.5 -8t-3.5 -6.5t-2.5 -4.5t-3 -3.5t-3 -1.5t-4.5 -1.5t-5.5 -0.5h-7.5q-29 0 -29 16z" />
<glyph unicode="{" d="M276 495q-3 5 0 17q3 11 8.5 16t10.5 6t14 1q60 4 112.5 22t74.5 32.5t51 37.5q46 37 63.5 77t48.5 161q2 9 3.5 14.5t3.5 14t4 15.5l94 375q29 108 163 180t292 72q16 0 22 -1t10.5 -6t1.5 -16q-6 -19 -24 -22q-68 -5 -120 -21.5t-76.5 -32t-53.5 -40.5 q-44 -34 -61.5 -77t-49.5 -167l-92 -369q-8 -28 -13.5 -44t-28 -54t-52 -64.5t-86 -58t-129.5 -51.5q191 -59 184 -211q0 -22 -43 -186l-76 -308q-20 -79 -18 -98q0 -65 50.5 -117t160.5 -59q3 0 8 -0.5t7 -0.5t5 -0.5t4.5 -1.5t3 -2.5t1.5 -3.5t-0.5 -5.5t-1.5 -7.5 q-4 -16 -13.5 -19.5t-31.5 -3.5q-62 0 -140 18.5t-127 59.5q-58 50 -63.5 111t19.5 139q1 3 1 5t1 4.5t1 4.5l103 406q12 44 8.5 78.5t-11.5 60.5t-27.5 45t-38.5 31.5t-44 20.5t-45 12t-41 5q-25 2 -27 6z" />
<glyph unicode="|" horiz-adv-x="569" d="M127 -489.5q-1 11.5 0.5 21t5.5 24.5l477 1912q5 20 10 32t18 24t32 12q27 0 29.5 -22.5t-7.5 -45.5l-477 -1912q-4 -17 -6.5 -24.5t-9 -20t-16.5 -18t-25 -5.5t-22.5 5.5t-8.5 17z" />
<glyph unicode="}" d="M25 -489q6 19 24 22q67 4 120 20.5t77 32t55 41.5q10 8 17.5 16t14 14.5t12.5 17.5t10 17t9.5 21.5t8.5 22.5t8.5 27.5t8 30t9.5 37t11 40.5l92 369q6 22 8.5 30t14 35.5t24 43.5t37 43t54 45.5t74.5 39t99 35.5q-193 57 -186 211q0 22 43 186l78 308q18 81 18 98 q0 65 -52 117t-161 59q-3 0 -8 0.5t-7 0.5t-5 0.5t-4.5 1.5t-3 2.5t-1.5 3.5t0.5 5.5t1.5 7.5q3 11 10.5 16t14.5 6t22 1q60 0 137.5 -19.5t127.5 -58.5q58 -50 63.5 -111t-19.5 -139q-2 -9 -3 -14l-103 -406q-12 -44 -9 -78.5t11.5 -60.5t27.5 -45t38 -31.5t44.5 -20.5 t45.5 -12t41 -5q3 0 7.5 -0.5t6.5 -0.5t5 -0.5t4.5 -1t3.5 -2t2.5 -3t1 -3.5t0 -5t-1.5 -7q-6 -23 -35 -23q-142 -9 -236 -92q-50 -45 -68.5 -88t-56.5 -194l-94 -375q-32 -108 -164 -180t-289 -72q-15 0 -21.5 1t-12 6t-2.5 16z" />
<glyph unicode="~" horiz-adv-x="1138" d="M106 430l134 90q15 11 33.5 21.5t31.5 17t36.5 17.5t33.5 16q82 37 160 37q38 0 74.5 -11.5t57.5 -23.5t54 -35q45 -29 63 -40t55.5 -23.5t75.5 -12.5q137 0 351 146l18 -35l-133 -90q-14 -11 -32.5 -21.5t-30.5 -17t-36.5 -17.5t-33.5 -16q-82 -37 -160 -37 q-55 0 -97 18.5t-89 51.5q-44 29 -63 40t-56.5 23.5t-75.5 12.5q-136 0 -350 -146z" />
<glyph unicode="&#xa0;" />
<glyph unicode="&#xa1;" horiz-adv-x="614" d="M119 -362q0 14 10 45l301 940q7 21 14 26.5t21 5.5q29 0 29 -22v-6q0 -3 -2 -10t-3 -11l-165 -934q-6 -38 -24 -63t-41 -34.5t-36 -12t-22 -2.5q-31 0 -56.5 18t-25.5 60zM436 907q0 47 36.5 82t84.5 35q32 0 57 -21.5t25 -60.5q0 -45 -37 -81t-84 -36q-34 0 -58 21 t-24 61z" />
<glyph unicode="&#xa2;" horiz-adv-x="921" d="M225 311q0 106 41.5 211t108.5 185t154 133t176 61l8 39q5 11 15.5 20t21.5 9t17.5 -9.5t2.5 -19.5l-8 -39q81 -7 131.5 -55t50.5 -115q0 -38 -11.5 -64t-29.5 -36.5t-31 -14.5t-24 -4q-21 0 -42.5 14.5t-21.5 47.5q0 36 29 62t68 28q-24 80 -129 98l-211 -839 q87 7 179.5 56.5t162.5 145.5q19 21 24 21q10 0 19.5 -10t9.5 -21q0 -9 -18 -33.5t-54.5 -58.5t-83.5 -65t-114 -53.5t-136 -24.5l-8 -37q-10 -29 -37 -29q-14 0 -19 8t-1 21l8 39q-111 14 -179.5 101.5t-68.5 227.5zM356 233q0 -83 33.5 -139.5t93.5 -68.5l209 833 q-60 -12 -117.5 -61t-101.5 -127q-46 -81 -81.5 -221t-35.5 -216z" />
<glyph unicode="&#xa3;" horiz-adv-x="1546" d="M176 78q0 72 78.5 139.5t185.5 67.5q30 0 52 -3.5t31 -7t36 -14.5q20 63 57 209l54 213h-107q-28 0 -36.5 2.5t-8.5 15.5q0 28 11 34.5t42 6.5h113l82 330q38 148 156.5 261.5t253.5 113.5q105 0 167 -72t62 -198q0 -185 -105 -185q-26 0 -44.5 15t-18.5 45q0 5 1 12 t7 22t16.5 26.5t32.5 20.5t52 9l2 43q0 104 -46 162.5t-126 58.5q-83 0 -164.5 -83.5t-116.5 -231.5l-86 -349h158q29 0 38 -2.5t9 -15.5q0 -29 -10 -35t-43 -6h-168l-82 -336q-17 -61 -60 -141q136 -100 181 -124t108 -24q84 0 161 60.5t111 161.5q4 17 8.5 19.5t22.5 2.5 q27 0 27 -18q0 -19 -15.5 -54t-47 -78t-73.5 -81t-103 -64t-126 -26q-77 0 -133 29.5t-174 121.5q-29 -29 -52.5 -49t-62 -46.5t-83 -41t-91.5 -14.5q-58 0 -95.5 26t-37.5 72zM246 78q0 -26 17 -42t46 -16q59 0 118.5 47t94.5 109q-57 31 -116 31q-67 0 -113.5 -43.5 t-46.5 -85.5z" />
<glyph unicode="&#xa4;" horiz-adv-x="1536" d="M352 78q-31 23 29 65l160 127q-62 105 -25 242q34 135 141 238l-98 131q-14 20 -15 30.5t15 26.5q16 12 35.5 13.5t28.5 -5.5q2 -2 14 -18l92 -121q125 86 262 86q139 0 219 -86l140 111q3 2 12.5 9.5t13 10t12 7.5t13 6t11.5 2t13.5 -1.5t12.5 -7.5q9 -7 11 -14.5 t-5 -17t-11 -13t-18 -15.5q-5 -5 -8 -7l-156 -123q62 -105 25 -242q-35 -140 -146 -242l101 -133q27 -34 -2 -55q-11 -11 -29.5 -13.5t-32.5 7.5q-1 1 -4.5 3.5t-7.5 7.5t-10 15l-84 113q-122 -84 -260 -84q-139 0 -219 86l-144 -115q-1 0 -7 -5.5t-7.5 -6.5t-8 -5.5 t-9 -5.5t-8.5 -4t-9 -3.5t-8.5 -1.5t-10 0t-9 3t-9.5 5zM590 512q-32 -128 35 -217.5t194 -89.5q130 0 240.5 89.5t142.5 217.5t-35 217.5t-194 89.5q-128 0 -241 -90t-142 -217z" />
<glyph unicode="&#xa5;" horiz-adv-x="1488" d="M362 375q4 12 14 20t21 8h375q37 132 37 156q0 4 -1.5 9.5t-3.5 12t-3 9.5l-10 31h-338q-11 0 -19 8.5t-4 19.5q5 11 16 20t21 9h305l-190 598q-12 38 -37 50.5t-94 12.5h-5q-13 0 -18.5 0.5t-10.5 5.5t-5 15q0 18 7 27.5t13.5 10.5t16.5 1q31 0 99 -2t101 -2 q36 0 106.5 2t106.5 2q10 0 15 -0.5t10.5 -6t5.5 -16.5q0 -14 -3 -22t-11 -11t-12 -3.5t-15 -0.5q-104 0 -104 -49q0 -6 2 -10q1 -2 1.5 -5.5t1 -5.5t1.5 -3l186 -588h49l426 520q51 60 51 96q0 40 -59 45q-23 0 -23 21q0 18 6.5 27.5t12.5 10.5t16 1q27 0 84 -2t84 -2 q25 0 76 2t74 2q8 0 12 -2q12 -3 12 -19q0 -24 -8.5 -30.5t-28.5 -8.5q-74 -8 -131.5 -42t-132.5 -126l-405 -493h305q12 0 18.5 -9t1.5 -20q-9 -28 -34 -28h-338l-35 -43q-11 -13 -15 -21.5t-12 -36.5l-28 -117h372q29 0 23 -28q-5 -11 -15.5 -20t-21.5 -9h-373l-20 -82 q-39 -139 -39 -170q0 -14 4 -20t29 -10.5t79 -4.5h10q16 0 23 -0.5t12 -5t5 -14.5q0 -18 -7.5 -27.5t-14 -10.5t-17.5 -1q-36 0 -111.5 2t-112.5 2q-36 0 -109.5 -2t-109.5 -2h-3.5h-4t-4.5 0.5t-5 1t-4.5 2t-3.5 3.5t-2 5.5t-1 7.5q0 19 6.5 27.5t14 10t24.5 1.5 q92 0 120.5 13.5t40.5 58.5l56 215h-375q-11 0 -18 9.5t-3 19.5z" />
<glyph unicode="&#xa6;" horiz-adv-x="569" d="M127 -489.5q-1 11.5 0.5 21t5.5 24.5l191 766q9 28 49 28q18 0 27.5 -7.5t5.5 -20.5l-191 -766q-4 -17 -6.5 -24.5t-9 -20t-16.5 -18t-25 -5.5t-22.5 5.5t-8.5 17zM420 702l190 766q5 20 10 32t18 24t32 12q27 0 29.5 -22.5t-7.5 -45.5l-190 -766q-9 -28 -49 -28 q-18 0 -27.5 7.5t-5.5 20.5z" />
<glyph unicode="&#xa7;" horiz-adv-x="987" d="M161 -199.5q-7 67.5 13 140.5q7 31 35 53t59 22t48 -22t10 -53t-36.5 -53.5t-60.5 -22.5h-10q0 -94 49.5 -152.5t139.5 -58.5q96 0 179.5 80.5t108.5 187.5q23 79 -17 145t-116 113l-164 99q-103 58 -153.5 147.5t-24.5 200.5q22 81 87.5 144.5t156.5 102.5 q-58 109 -25 228q37 145 158 249.5t260 104.5q66 0 116.5 -31t75.5 -82.5t32 -119t-13 -140.5q-7 -31 -35 -53t-59 -22t-47.5 22t-9.5 53t36 53.5t60 22.5h10q0 94 -49 152.5t-139 58.5q-96 0 -180 -80.5t-109 -187.5q-23 -80 17 -146.5t116 -111.5l164 -99 q228 -145 178 -348q-22 -81 -87.5 -144.5t-156.5 -102.5q58 -109 25 -228q-37 -145 -158 -249.5t-260 -104.5q-66 0 -116.5 31t-75.5 82.5t-32 119zM356 627q-35 -143 125 -240l164 -98q60 -36 107 -96q91 52 135 204q35 143 -125 240l-164 98q-58 34 -106 94 q-93 -53 -136 -202z" />
<glyph unicode="&#xa8;" d="M565 1217q0 41 33.5 72.5t75.5 31.5q32 0 53 -17.5t21 -56.5q0 -41 -33.5 -72.5t-75.5 -31.5q-29 0 -51.5 20t-22.5 54zM893 1217q0 41 33 72.5t75 31.5q32 0 53 -17.5t21 -56.5q0 -41 -33 -72.5t-75 -31.5q-29 0 -51.5 20t-22.5 54z" />
<glyph unicode="&#xa9;" horiz-adv-x="1398" d="M0 700q0 142 55.5 271.5t149.5 223t223.5 149t271.5 55.5t271.5 -55.5t223 -149t149 -223t55.5 -271.5t-55.5 -271.5t-149 -223.5t-223 -149.5t-271.5 -55.5t-271.5 55.5t-223.5 149.5t-149.5 223.5t-55.5 271.5zM74 700q0 -127 49.5 -243t133.5 -200t200 -133.5 t243 -49.5t242.5 49.5t199.5 133.5t133.5 200t49.5 243q0 169 -84 313t-228 228t-313 84q-127 0 -243 -49.5t-200 -133.5t-133.5 -199.5t-49.5 -242.5zM297 573q0 110 47 219.5t121 190.5t170.5 131.5t191.5 50.5q130 0 191 -114l82 102q4 7 12 10q2 2 6 2q2 0 4 -2 q6 -6 6 -10v-6q0 -3 -1 -6t-1 -4l-77 -314q-4 -17 -7 -19.5t-14 -2.5q-16 0 -16 12v12q6 54 6 68q0 22 -2.5 46t-13.5 59.5t-29.5 62t-53.5 46t-81 19.5q-84 0 -165.5 -49.5t-135.5 -120.5q-43 -60 -74 -132.5t-43.5 -134.5t-17.5 -100t-5 -61q0 -124 65 -190t159 -66 q97 0 190 78.5t135 218.5q3 13 21 13q16 0 16 -13q-6 -24 -25 -71q-35 -83 -106 -154q-9 -9 -25 -21.5t-50 -34.5t-81.5 -37t-95.5 -15q-128 0 -215.5 90.5t-87.5 246.5z" />
<glyph unicode="&#xaa;" horiz-adv-x="948" d="M315 715q9 20 35 20h617q11 0 18.5 -6.5t3.5 -13.5q-3 -21 -33 -21h-616q-28 0 -25 21zM379 1014q-5 101 46.5 201t138 163.5t177.5 63.5q96 0 144 -84v2q3 14 12 26q21 29 53 29q22 0 33.5 -10.5t11.5 -24.5v-6q0 -10 -2 -16l-100 -400q-12 -48 -10 -75q0 -58 49 -58 q35 0 59 38t47 130q6 25 10 30t21 5q23 0 23 -12q0 -4 -4.5 -25.5t-15 -55.5t-23.5 -56q-21 -38 -47.5 -60t-71.5 -22q-19 0 -37 3.5t-40 13t-39.5 31t-25.5 52.5q-100 -100 -200 -100q-90 0 -147 60t-62 157zM487 954q0 -11 4 -28.5t13.5 -42t32 -41.5t53.5 -17 q67 0 131 59.5t74 98.5l67 272l4 21q0 7 -5.5 25.5t-17.5 45.5t-38.5 46.5t-61.5 19.5q-54 0 -105 -46t-83 -116q-23 -49 -47.5 -148t-20.5 -149z" />
<glyph unicode="&#xab;" horiz-adv-x="1126" d="M379 496q0 6 6 12q234 209 383 473q3 8 14 8h9q16 0 16 -16q0 -4 -2 -6q-131 -272 -301 -475q72 -217 63 -476q0 -16 -16 -16h-8q-17 0 -17 16q-15 260 -143 469q-1 3 -3 6zM686 496q0 6 6 12q234 209 383 473q3 8 15 8h8q16 0 16 -16q0 -4 -2 -6q-131 -272 -301 -475 q72 -217 63 -476q0 -16 -16 -16h-8q-16 0 -16 16q-15 259 -144 469q-1 3 -3 6z" />
<glyph unicode="&#xac;" horiz-adv-x="1536" d="M328 702q10 37 47 37h1153q17 0 24.5 -10t3.5 -27l-96 -383q-9 -36 -45 -36q-38 0 -29 36l87 347h-1117q-37 0 -28 36z" />
<glyph unicode="&#xad;" horiz-adv-x="716" d="M174 410q0 26 16 63q4 17 12 20t40 3h389h7q17 0 24 -0.5t12.5 -5.5t5.5 -15q0 -26 -16 -63q-4 -17 -12 -20t-40 -3h-389h-7q-17 0 -24 0.5t-12.5 5.5t-5.5 15z" />
<glyph unicode="&#xae;" horiz-adv-x="1398" d="M0 700q0 142 55.5 271.5t149.5 223t223.5 149t271.5 55.5t271.5 -55.5t223 -149t149 -223t55.5 -271.5t-55.5 -271.5t-149 -223.5t-223 -149.5t-271.5 -55.5t-271.5 55.5t-223.5 149.5t-149.5 223.5t-55.5 271.5zM74 700q0 -127 49.5 -243t133.5 -200t200 -133.5 t243 -49.5t242.5 49.5t199.5 133.5t133.5 200t49.5 243q0 169 -84 313t-228 228t-313 84q-127 0 -243 -49.5t-200 -133.5t-133.5 -199.5t-49.5 -242.5zM305 289q0 7 2 12t3.5 7.5t7.5 3.5t9 1h13q56 0 72.5 10t25.5 46l174 704q4 12 4 21q0 4 -1 7t-4 5t-5.5 3.5t-7.5 2.5 t-8.5 1.5t-9.5 0.5h-9.5h-11h-10.5h-8q-16 0 -21.5 1.5t-5.5 10.5q0 17 7.5 21t27.5 4h321q115 0 183.5 -53.5t68.5 -134.5q0 -82 -74 -152.5t-192 -99.5q111 -45 111 -150q0 -13 -4 -41q-1 -5 -2.5 -14t-2.5 -12q-12 -78 -12 -146q0 -24 2 -37.5t12 -25t29 -11.5 q59 0 98 111q5 14 8 17.5t13 3.5q18 0 18 -13q0 -7 -8 -28t-23.5 -48.5t-45 -48t-64.5 -20.5q-61 0 -105 32.5t-44 100.5q0 38 20 108q18 74 18 97q0 45 -27.5 79.5t-94.5 34.5h-140l-86 -346l-2 -20q0 -7 2.5 -10.5t19.5 -7t50 -3.5q16 0 22.5 -2t6.5 -12q0 -23 -25 -23 l-139 3l-137 -3q-19 0 -19 13zM621 727h129q73 0 127 26t80 59t41 76t17.5 65t2.5 38q0 25 -8 45t-19.5 33t-31 22t-35 13.5t-41 6.5t-39 2.5t-37.5 0.5q-64 0 -72 -2q-11 -2 -17 -10t-13 -37z" />
<glyph unicode="&#xaf;" d="M489 1227q0 24 11.5 29.5t42.5 5.5h561h7q17 0 24 -0.5t12.5 -5.5t5.5 -15q0 -15 -2 -22.5t-11 -10.5t-14.5 -3.5t-25.5 -0.5h-561q-21 0 -29.5 1t-14.5 6t-6 16z" />
<glyph unicode="&#xb0;" horiz-adv-x="768" d="M414 1143q25 104 120 180t199 76q105 0 161.5 -75.5t31.5 -180.5q-25 -104 -120 -180t-200 -76q-107 0 -162 75t-30 181zM487 1143q-19 -75 22 -128.5t116 -53.5q74 0 139.5 53t87.5 129q19 75 -21.5 128.5t-115.5 53.5q-73 0 -142 -54t-86 -128z" />
<glyph unicode="&#xb1;" horiz-adv-x="1536" d="M164 39q0 14 5.5 22t18 11t18.5 3.5t21 0.5h518l3 2l124 500h-499q-15 0 -22 0.5t-19 3.5t-17.5 11.5t-5.5 22.5q0 18 12.5 27t22 9.5t29.5 0.5h518l131 527q10 51 43 51q18 0 28.5 -12t10.5 -27q0 -3 -2.5 -11.5t-3.5 -15.5l-127 -512h497q16 0 24.5 -0.5t20 -4 t16.5 -12t5 -22.5q0 -17 -10 -25.5t-20 -9.5t-30 -1h-6h-518l-125 -502h498q17 0 25 -0.5t19.5 -4t16.5 -12t5 -22.5t-5 -22t-17.5 -11t-19 -3.5t-24.5 -0.5h-1096q-14 0 -22 0.5t-19 4t-16.5 12t-5.5 22.5z" />
<glyph unicode="&#xb2;" horiz-adv-x="772" d="M279 610q0 7 6 26t24 54t45 71t76 77.5t109 72.5q47 20 112.5 62t106.5 94q67 84 67 213q-4 69 -43 103t-94 34q-51 0 -97.5 -24.5t-78.5 -62t-55.5 -81t-34 -81.5t-8.5 -64q1 -15 3 -22t9.5 -13t22.5 -6q42 0 75 36.5t46.5 74t13.5 59.5q0 18 -13 41q-6 3 -6 8v2 q0 12 17 12q10 0 20 -21.5t12 -41.5q0 -19 -10 -49t-28.5 -64t-52 -58t-74.5 -24q-36 0 -55 21.5t-19 54.5q-2 25 9 64.5t37 85.5t62 85.5t90.5 66t116.5 26.5q98 0 164.5 -57.5t71.5 -145.5q1 -79 -39 -136.5t-121 -111.5q-56 -37 -104 -59l-109 -51q-24 -11 -68 -41 q-75 -60 -118 -127q9 4 39 4q44 0 139 -21q9 -1 38 -6.5t51.5 -8.5t43.5 -3q61 0 106 42.5t62 96.5q1 3 2.5 7t2 5.5t2 4t3 3t4.5 1t8 0.5q19 0 21 -13q0 -5 -6.5 -27t-24 -56.5t-41 -65.5t-64 -53.5t-87.5 -22.5q-59 0 -136 43q-31 18 -44 25t-38 15.5t-47 8.5 q-58 0 -77 -76q-5 -11 -8 -13.5t-15 -2.5q-19 0 -22 10z" />
<glyph unicode="&#xb3;" horiz-adv-x="718" d="M289 754v6v10t0.5 11t1.5 13t3.5 13t6 13t8.5 10.5t11.5 9t15.5 6t20 2.5q9 0 18 -2.5t18.5 -11.5t10.5 -23q0 -19 -8 -27q-14 -26 -65 -26q4 -66 47.5 -99.5t107.5 -33.5q47 0 99 22t88 64q35 46 50 107t15 95q-6 105 -121 105h-41h-9q-22 0 -24 6q-1 2 -1 6q-1 17 6 21 t28 4h33q50 0 91 13.5t66 33t43 48t26.5 51.5t13.5 49.5t5.5 37t0.5 19.5q-4 58 -42 84t-89 26q-69 0 -133 -34t-100 -83.5t-33 -95.5q4 -47 43 -47q33 0 60 22.5t26 55.5q0 20 -15 37q-6 6 -6 8v4q0 12 17 12q10 0 21 -20t11 -39q4 -43 -33 -73.5t-81 -30.5q-34 0 -57.5 18 t-24.5 57q-3 53 37.5 107t113.5 90.5t156 36.5q95 0 152.5 -46.5t62.5 -115.5q5 -70 -56 -142.5t-173 -107.5q69 -25 98 -69t29 -87q4 -108 -104.5 -191t-246.5 -83q-89 0 -141 44t-57 110z" />
<glyph unicode="&#xb4;" d="M664 1069q0 11 18 27l293 301q12 8 18 14q23 14 39 14q23 0 39 -16t16 -39q0 -32 -40 -61l-328 -258q-13 -13 -27 -13q-8 0 -18 10t-10 21z" />
<glyph unicode="&#xb5;" d="M47 -391q0 14 8 45l295 1177q18 70 76 70q22 0 36.5 -12.5t14.5 -36.5q0 -6 -7 -33t-16.5 -64.5t-13.5 -60.5l-86 -344q-24 -87 -24 -157q0 -77 31.5 -125t101.5 -48q35 0 68 12.5t54 27t43.5 39.5t30 36t19.5 29q17 25 21.5 34t11.5 38l145 577q6 27 22 43.5t28.5 20.5 t23.5 4q27 0 40 -15t13 -35q0 -4 -3 -16.5t-8 -31.5t-7 -29q-14 -62 -31.5 -128t-30.5 -124l-57 -221q-33 -129 -33 -179q0 -82 55 -82q46 0 77 60t61 178q2 8 3.5 15t2.5 11t2 7.5t1.5 5l1 3t1.5 2.5t2 1q6 6 24 6q27 0 27 -16q0 -14 -20 -86.5t-43 -120.5 q-55 -106 -144 -106q-58 0 -101.5 36.5t-60.5 102.5q-107 -139 -245 -139q-118 0 -181 63q-100 -412 -110 -438q-6 -16 -24 -30.5t-44 -14.5q-20 0 -35.5 12.5t-15.5 36.5z" />
<glyph unicode="&#xb6;" horiz-adv-x="1251" d="M345.5 776q-19.5 76 6.5 172q50 194 233.5 333.5t397.5 139.5h498h15.5t15.5 -1.5t13 -4t9.5 -7t5 -11.5t-1.5 -17q-4 -15 -11.5 -24t-20.5 -12t-21.5 -4t-24.5 -1h-102l-418 -1669q-6 -22 -9.5 -32.5t-16 -22.5t-31.5 -12q-15 0 -22.5 5.5t-8.5 17t0.5 20.5t5.5 24 l418 1669h-143l-418 -1669q-4 -16 -7 -24.5t-9.5 -20t-16.5 -17t-25 -5.5q-27 0 -30.5 22t6.5 45l201 801q-81 3 -158 22.5t-147.5 57t-117 93.5t-66 132z" />
<glyph unicode="&#xb7;" horiz-adv-x="1536" d="M842 680q0 46 38.5 82.5t82.5 36.5q32 0 56.5 -18.5t24.5 -61.5q0 -49 -38 -84t-82 -35q-37 0 -59.5 22.5t-22.5 57.5z" />
<glyph unicode="&#xb8;" horiz-adv-x="921" d="M205 -373q0 18 12 21q14 2 68 2q18 0 32.5 0.5t43 3t50.5 7t48.5 14t44 22.5t29.5 33.5t12 46.5q0 32 -23 51.5t-43 24t-35 4.5q-24 0 -24 20q0 6 13.5 60.5t17.5 66.5q3 5 4 6.5t6.5 3t13.5 2t25 0.5h22q43 0 48 -5q2 -3 3 -7q-4 -16 -14 -58.5t-14 -58.5q1 0 10 -2.5 t15 -4t17 -5t19 -8t18 -10.5t17 -14t13.5 -17.5t10 -22t3.5 -26.5q0 -31 -11 -56t-35 -42.5t-48.5 -30t-64 -20t-68 -12.5t-74.5 -6.5t-70.5 -2t-67.5 -0.5q-24 0 -24 20z" />
<glyph unicode="&#xb9;" horiz-adv-x="753" d="M328 637q-1 17 6.5 21t30.5 4h12q82 0 104.5 9.5t30.5 43.5l145 585q-75 -51 -159 -51q-23 0 -23 13q0 8 2.5 12.5t5 5.5t10 3t11.5 3q137 10 244 141q15 15 20 15q16 0 16 -12q0 -3 -1 -8.5t-1 -8.5l-176 -698q-4 -20 -4 -21v-8q0 -9 4 -13t28 -7.5t73 -3.5h12 q21 0 29 -2.5t8 -12.5q0 -11 -5 -16t-9.5 -5.5t-14.5 -0.5l-190 4l-187 -4h-3q-19 0 -19 12z" />
<glyph unicode="&#xba;" horiz-adv-x="858" d="M317 715q3 20 33 20h524q28 0 25 -20q-3 -21 -33 -21h-526q-14 0 -20 5.5t-3 15.5zM381 1028q-5 104 53 200.5t154 155t198 58.5t173.5 -61.5t78.5 -170.5q4 -76 -30 -152t-90.5 -133t-133 -92.5t-153.5 -35.5q-99 0 -172.5 60.5t-77.5 170.5zM494 973q4 -70 43 -109 t96 -39q51 0 108 33t103 105q34 54 58 151.5t24 151.5q-5 64 -42 105.5t-100 41.5q-51 0 -108.5 -34.5t-97.5 -98.5q-38 -57 -63.5 -155.5t-20.5 -151.5z" />
<glyph unicode="&#xbb;" horiz-adv-x="1126" d="M260 16q0 5 2 7q116 252 299 475q-70 224 -61 477q0 14 16 14h8q17 0 17 -14q15 -259 143 -471q2 -2 2 -8q0 -9 -4 -13q-232 -207 -383 -475q-3 -8 -14 -8h-9q-16 0 -16 16zM567 16q0 5 2 7q116 252 299 475q-70 224 -61 477q0 14 16 14h8q17 0 17 -14q15 -259 143 -471 q2 -2 2 -8q0 -9 -4 -13q-232 -207 -383 -475q-3 -8 -14 -8h-8q-17 0 -17 16z" />
<glyph unicode="&#xbc;" horiz-adv-x="1615" d="M328 637q-1 17 7 21t32 4h12q80 0 102.5 9.5t30.5 43.5l147 585q-82 -51 -161 -51q-20 0 -23 13q0 8 2.5 12.5t5.5 6t10 2.5t11 3q141 11 244 141q15 15 20 15q16 0 16 -12q0 -3 -1 -8.5t-1 -8.5l-176 -698q-4 -20 -4 -21v-8q0 -9 4.5 -13t29 -7.5t73.5 -3.5h12 q21 0 28 -2.5t7 -12.5q0 -11 -5 -16t-9.5 -5.5t-14.5 -0.5l-190 4l-187 -4h-3q-19 0 -19 12zM453 41q3 11 10 18l1149 1319q14 17 35 17q17 0 24.5 -10t3.5 -27q-9 -17 -10 -19l-1149 -1316q-13 -19 -35 -19q-17 0 -24.5 10t-3.5 27zM844 20q-1 10 10.5 21t26.5 18 q51 25 127.5 101.5t136.5 163.5q120 189 188 444l2 7q2 7 3 8.5t3.5 7.5t5 8.5l6.5 6.5t8.5 6t11 3.5t13.5 1.5q39 0 39 -29q0 -13 -15.5 -69.5t-61.5 -161t-107 -192.5q-116 -167 -260 -285q14 2 41 2q56 0 111 -16q12 -3 46.5 -13.5t45.5 -13.5q3 11 16 70t25.5 108.5 t17.5 56.5q13 23 43 23q17 0 29 -8.5t14 -22.5l-6 -22l-55 -224q6 -2 24 -2q31 0 94 15l7.5 2.5t7.5 1.5q7 0 13.5 -8t6.5 -13q0 -11 -47 -21.5t-86 -10.5h-31l-45 -179q-9 -43 -51 -43q-19 0 -29 8.5t-10 20.5q-4 12 11 47l40 166q-24 7 -39 12t-18.5 6l-7 2l-7 2t-16.5 5 q-51 14 -106 14q-82 0 -113 -18q-29 -25 -43 -25q-7 0 -14.5 6.5t-5.5 11.5z" />
<glyph unicode="&#xbd;" horiz-adv-x="1615" d="M307 41q3 11 10 18l1149 1319q14 17 35 17q17 0 25 -10t4 -27q-8 -17 -10 -19l-1149 -1316q-16 -19 -35 -19q-17 0 -25 10t-4 27zM328 637q-1 17 7 21t32 4h12q80 0 102.5 9.5t30.5 43.5l147 585q-82 -51 -161 -51q-20 0 -23 13q0 8 2.5 12.5t5.5 6t10 2.5t11 3 q141 11 244 141q15 15 20 15q16 0 16 -12q0 -3 -1 -8.5t-1 -8.5l-176 -698q-4 -20 -4 -21v-8q0 -9 4.5 -13t29 -7.5t73.5 -3.5h12q21 0 28 -2.5t7 -12.5q0 -11 -5 -16t-9.5 -5.5t-14.5 -0.5l-190 4l-187 -4h-3q-19 0 -19 12zM899 -14q0 6 6 25.5t23.5 54.5t44.5 71.5 t76 77.5t110 72q27 12 59.5 29t81 53t78.5 73q68 85 68 213q-4 68 -44 103t-95 35q-63 0 -118 -37.5t-87.5 -90.5t-51 -103.5t-18.5 -84.5q1 -13 3.5 -20.5t10.5 -13t23 -5.5q42 0 75 36.5t46.5 73.5t13.5 58q0 23 -14 41q-4 4 -4 8v4q-1 4 4 8.5t10 4.5q11 0 21 -22t12 -44 q3 -25 -13 -68.5t-57 -83.5t-94 -40q-36 0 -55 20t-21 53q-2 26 9.5 66t38 86t63 85.5t91 66t116.5 26.5q98 0 163.5 -57t69.5 -148q4 -80 -35.5 -134.5t-122.5 -110.5q-62 -41 -104 -60l-111 -53q-10 -5 -21 -12t-24.5 -15.5t-21.5 -13.5q-80 -64 -117 -125q10 2 37 2 q60 0 141 -18q83 -19 133 -19q61 0 106 43t62 97q6 16 11 17q4 1 12 1q18 0 20 -10q0 -5 -6.5 -27.5t-24 -57t-41 -66t-64 -54.5t-87.5 -23q-51 0 -135 45q-3 2 -19 10.5t-20 10.5t-17 8t-19 8t-17 5.5t-20 4.5t-19 1q-57 0 -76 -76q-5 -11 -8.5 -14t-15.5 -3q-21 0 -21 13z " />
<glyph unicode="&#xbe;" horiz-adv-x="1615" d="M381 754v3v18.5t3.5 22.5t10.5 24.5t21.5 17.5t34.5 8q9 0 18 -2.5t18 -11.5t9 -23q0 -18 -9 -27q-15 -26 -63 -26q1 -65 45 -99t109 -34q47 0 99 22t87 64q35 46 51 108t16 94q-10 105 -122 105h-41q-30 0 -33 4q-2 3 -2 8q0 17 7 21t30 4h30q51 0 91.5 13.5t65.5 33 t43.5 48t27 51t13 50t5 37t0.5 19.5q-4 58 -40.5 84t-90.5 26q-105 0 -187 -70.5t-77 -142.5q0 -47 41 -47q33 0 60.5 22t27.5 56l-2 7q-1 8 -4.5 15.5t-9.5 14.5q-5 5 -5 8v4q0 12 15 12q10 0 21.5 -20t13.5 -39q4 -43 -34 -73.5t-83 -30.5q-77 0 -80 75q-8 82 86.5 158 t218.5 76q95 0 153 -47t60 -115q5 -70 -54 -142.5t-171 -107.5q68 -25 96.5 -69t28.5 -87q4 -108 -104 -191t-246 -83q-89 0 -141.5 44t-57.5 110zM453 41q3 11 10 18l1149 1319q14 17 35 17q17 0 24.5 -10t3.5 -27q-9 -17 -10 -19l-1149 -1316q-13 -19 -35 -19 q-17 0 -24.5 10t-3.5 27zM844 20q-1 10 10.5 21t26.5 18q51 25 127.5 101.5t136.5 163.5q120 189 188 444l2 7q2 7 3 8.5t3.5 7.5t5 8.5l6.5 6.5t8.5 6t11 3.5t13.5 1.5q39 0 39 -29q0 -13 -15.5 -69.5t-61.5 -161t-107 -192.5q-116 -167 -260 -285q14 2 41 2q56 0 111 -16 q12 -3 46.5 -13.5t45.5 -13.5q3 11 16 70t25.5 108.5t17.5 56.5q13 23 43 23q17 0 29 -8.5t14 -22.5l-6 -22l-55 -224q6 -2 24 -2q31 0 94 15l7.5 2.5t7.5 1.5q7 0 13.5 -8t6.5 -13q0 -11 -47 -21.5t-86 -10.5h-31l-45 -179q-9 -43 -51 -43q-19 0 -29 8.5t-10 20.5 q-4 12 11 47l40 166q-24 7 -39 12t-18.5 6l-7 2l-7 2t-16.5 5q-51 14 -106 14q-82 0 -113 -18q-29 -25 -43 -25q-7 0 -14.5 6.5t-5.5 11.5z" />
<glyph unicode="&#xbf;" d="M168 -188q0 83 42 172.5t128 162.5l205 168q108 86 141 119q16 22 26.5 54t10.5 53q0 27 -12 50t-43 23q-40 0 -88 -36t-74 -113q0 -1 -1 -3q-4 -13 -8.5 -16.5t-21.5 -3.5q-27 0 -27 19q0 18 16.5 49t43.5 64t71.5 57t92.5 24q51 0 83.5 -38t32.5 -103q0 -54 -27 -112 t-79 -103l-272 -223q-31 -26 -44.5 -38t-44 -44t-45.5 -58.5t-28 -67t-13 -83.5q0 -84 48 -134t127 -50q119 0 225.5 104.5t169.5 284.5q-72 0 -72 59q0 37 27.5 64.5t64.5 27.5q28 0 46 -15.5t18 -43.5q0 -22 -14 -66.5t-40 -104t-68 -120.5t-92.5 -113t-120 -85 t-144.5 -33q-109 0 -174.5 71t-65.5 181zM641 907q0 47 36.5 82t84.5 35q32 0 57 -21.5t25 -60.5q0 -45 -37 -81t-84 -36q-34 0 -58 21t-24 61z" />
<glyph unicode="&#xc0;" horiz-adv-x="1488" d="M115 20q0 24 9 30.5t30 8.5q77 7 126 45t97 125l682 1196q1 1 4 6.5t3.5 7t3 5.5t3.5 5l4 4t4.5 3.5t4.5 2t6 2t7 1t9 0.5q22 0 26.5 -7.5t6.5 -41.5l90 -1286q3 -30 10.5 -43t30.5 -19t74 -6q17 0 23 -0.5t11.5 -5.5t5.5 -16q0 -18 -7 -27t-12.5 -9.5t-16.5 -0.5 q-33 0 -101 2t-102 2q-37 0 -107 -2t-104 -2h-4h-5.5t-5 0.5t-5.5 2t-4.5 3.5t-3.5 5.5t-1 8.5q0 19 6 27.5t14 10t27 1.5q26 0 46.5 4t33 8t21.5 14.5t12.5 15t5.5 18.5t2 15.5v15.5l-22 329h-475l-150 -264q-3 -5 -10.5 -18.5t-10 -18.5t-7 -15.5t-6 -18.5t-1.5 -17 q0 -62 78 -68q29 0 29 -20q0 -18 -7 -27.5t-13.5 -10.5t-16.5 -1q-27 0 -84 2t-84 2q-26 0 -79 -2t-77 -2q-8 0 -12 2q-12 3 -12 18zM612 539h437l-48 682zM915 1782q7 29 30.5 46t53.5 17q20 0 33 -10q6 -2 12 -8l218 -246q11 -11 12.5 -14t-2.5 -8q-4 -11 -17.5 -22 t-21.5 -13q-15 -3 -27 6l-266 199q-41 18 -25 53z" />
<glyph unicode="&#xc1;" horiz-adv-x="1488" d="M115 20q0 24 9 30.5t30 8.5q77 7 126 45t97 125l682 1196q1 1 4 6.5t3.5 7t3 5.5t3.5 5l4 4t4.5 3.5t4.5 2t6 2t7 1t9 0.5q22 0 26.5 -7.5t6.5 -41.5l90 -1286q3 -30 10.5 -43t30.5 -19t74 -6q17 0 23 -0.5t11.5 -5.5t5.5 -16q0 -18 -7 -27t-12.5 -9.5t-16.5 -0.5 q-33 0 -101 2t-102 2q-37 0 -107 -2t-104 -2h-4h-5.5t-5 0.5t-5.5 2t-4.5 3.5t-3.5 5.5t-1 8.5q0 19 6 27.5t14 10t27 1.5q26 0 46.5 4t33 8t21.5 14.5t12.5 15t5.5 18.5t2 15.5v15.5l-22 329h-475l-150 -264q-3 -5 -10.5 -18.5t-10 -18.5t-7 -15.5t-6 -18.5t-1.5 -17 q0 -62 78 -68q29 0 29 -20q0 -18 -7 -27.5t-13.5 -10.5t-16.5 -1q-27 0 -84 2t-84 2q-26 0 -79 -2t-77 -2q-8 0 -12 2q-12 3 -12 18zM612 539h437l-48 682zM997 1559q0 4 1 5.5t6 5.5t16 11l340 246q3 1 8 4t8 4q17 10 37 10q29 0 43.5 -17t9.5 -46q-7 -37 -51 -53 l-366 -199q-13 -10 -29 -6q-9 2 -18 13t-5 22z" />
<glyph unicode="&#xc2;" horiz-adv-x="1488" d="M115 20q0 24 9 30.5t30 8.5q77 7 126 45t97 125l682 1196q1 1 4 6.5t3.5 7t3 5.5t3.5 5l4 4t4.5 3.5t4.5 2t6 2t7 1t9 0.5q22 0 26.5 -7.5t6.5 -41.5l90 -1286q3 -30 10.5 -43t30.5 -19t74 -6q17 0 23 -0.5t11.5 -5.5t5.5 -16q0 -18 -7 -27t-12.5 -9.5t-16.5 -0.5 q-33 0 -101 2t-102 2q-37 0 -107 -2t-104 -2h-4h-5.5t-5 0.5t-5.5 2t-4.5 3.5t-3.5 5.5t-1 8.5q0 19 6 27.5t14 10t27 1.5q26 0 46.5 4t33 8t21.5 14.5t12.5 15t5.5 18.5t2 15.5v15.5l-22 329h-475l-150 -264q-3 -5 -10.5 -18.5t-10 -18.5t-7 -15.5t-6 -18.5t-1.5 -17 q0 -62 78 -68q29 0 29 -20q0 -18 -7 -27.5t-13.5 -10.5t-16.5 -1q-27 0 -84 2t-84 2q-26 0 -79 -2t-77 -2q-8 0 -12 2q-12 3 -12 18zM612 539h437l-48 682zM838 1514q-5 17 14 28l315 201q19 6 25 0l219 -201q7 -8 4 -18t-14.5 -17t-22.5 -2l-227 113l-289 -113 q-18 -7 -24 9z" />
<glyph unicode="&#xc3;" horiz-adv-x="1488" d="M115 20q0 24 9 30.5t30 8.5q77 7 126 45t97 125l682 1196q1 1 4 6.5t3.5 7t3 5.5t3.5 5l4 4t4.5 3.5t4.5 2t6 2t7 1t9 0.5q22 0 26.5 -7.5t6.5 -41.5l90 -1286q3 -30 10.5 -43t30.5 -19t74 -6q17 0 23 -0.5t11.5 -5.5t5.5 -16q0 -18 -7 -27t-12.5 -9.5t-16.5 -0.5 q-33 0 -101 2t-102 2q-37 0 -107 -2t-104 -2h-4h-5.5t-5 0.5t-5.5 2t-4.5 3.5t-3.5 5.5t-1 8.5q0 19 6 27.5t14 10t27 1.5q26 0 46.5 4t33 8t21.5 14.5t12.5 15t5.5 18.5t2 15.5v15.5l-22 329h-475l-150 -264q-3 -5 -10.5 -18.5t-10 -18.5t-7 -15.5t-6 -18.5t-1.5 -17 q0 -62 78 -68q29 0 29 -20q0 -18 -7 -27.5t-13.5 -10.5t-16.5 -1q-27 0 -84 2t-84 2q-26 0 -79 -2t-77 -2q-8 0 -12 2q-12 3 -12 18zM612 539h437l-48 682zM821 1524q0 7 27 35t65 60t84 57.5t78 25.5q60 0 101 -76q20 -31 34 -43t33 -12q43 0 109 51q27 19 61 53 q25 25 37 25q1 -1 4.5 -2t5.5 -2q10 -7 10 -15q0 -10 -43 -52.5t-105.5 -84t-104.5 -41.5q-25 0 -47 14t-31 25.5t-21 30.5q-23 37 -37 49t-34 12q-23 0 -60.5 -22t-54.5 -36t-53 -44q-27 -27 -39 -27q-9 0 -14 6.5t-5 12.5z" />
<glyph unicode="&#xc4;" horiz-adv-x="1488" d="M115 20q0 24 9 30.5t30 8.5q77 7 126 45t97 125l682 1196q1 1 4 6.5t3.5 7t3 5.5t3.5 5l4 4t4.5 3.5t4.5 2t6 2t7 1t9 0.5q22 0 26.5 -7.5t6.5 -41.5l90 -1286q3 -30 10.5 -43t30.5 -19t74 -6q17 0 23 -0.5t11.5 -5.5t5.5 -16q0 -18 -7 -27t-12.5 -9.5t-16.5 -0.5 q-33 0 -101 2t-102 2q-37 0 -107 -2t-104 -2h-4h-5.5t-5 0.5t-5.5 2t-4.5 3.5t-3.5 5.5t-1 8.5q0 19 6 27.5t14 10t27 1.5q26 0 46.5 4t33 8t21.5 14.5t12.5 15t5.5 18.5t2 15.5v15.5l-22 329h-475l-150 -264q-3 -5 -10.5 -18.5t-10 -18.5t-7 -15.5t-6 -18.5t-1.5 -17 q0 -62 78 -68q29 0 29 -20q0 -18 -7 -27.5t-13.5 -10.5t-16.5 -1q-27 0 -84 2t-84 2q-26 0 -79 -2t-77 -2q-8 0 -12 2q-12 3 -12 18zM612 539h437l-48 682zM856 1577q0 41 33.5 72.5t75.5 31.5q33 0 53.5 -17.5t19.5 -55.5q0 -41 -33 -73t-75 -32q-29 0 -51.5 20t-22.5 54z M1245 1577q0 41 33.5 72.5t75.5 31.5q33 0 53.5 -17.5t19.5 -55.5q0 -41 -33 -73t-75 -32q-29 0 -51.5 20t-22.5 54z" />
<glyph unicode="&#xc5;" horiz-adv-x="1488" d="M115 20q0 24 9 30.5t30 8.5q77 7 126 45t97 125l682 1196q1 1 4 6.5t3.5 7t3 5.5t3.5 5l4 4t4.5 3.5t4.5 2t6 2t7 1t9 0.5q22 0 26.5 -7.5t6.5 -41.5l90 -1286q3 -30 10.5 -43t30.5 -19t74 -6q17 0 23 -0.5t11.5 -5.5t5.5 -16q0 -18 -7 -27t-12.5 -9.5t-16.5 -0.5 q-33 0 -101 2t-102 2q-37 0 -107 -2t-104 -2h-4h-5.5t-5 0.5t-5.5 2t-4.5 3.5t-3.5 5.5t-1 8.5q0 19 6 27.5t14 10t27 1.5q26 0 46.5 4t33 8t21.5 14.5t12.5 15t5.5 18.5t2 15.5v15.5l-22 329h-475l-150 -264q-3 -5 -10.5 -18.5t-10 -18.5t-7 -15.5t-6 -18.5t-1.5 -17 q0 -62 78 -68q29 0 29 -20q0 -18 -7 -27.5t-13.5 -10.5t-16.5 -1q-27 0 -84 2t-84 2q-26 0 -79 -2t-77 -2q-8 0 -12 2q-12 3 -12 18zM612 539h437l-48 682zM967 1599q0 84 73 154t160 70q67 0 105 -39t38 -98q0 -87 -72.5 -155.5t-158.5 -68.5q-69 0 -107 39t-38 98z M1034 1595q0 -75 92 -75q42 0 74 21.5t47 52t22 55.5t7 41q0 75 -90 75q-95 0 -131 -86q-18 -37 -21 -84z" />
<glyph unicode="&#xc6;" horiz-adv-x="1767" d="M117 20q0 24 8.5 30.5t28.5 8.5q31 3 54 9.5t52.5 23t59 50.5t59.5 85l641 1110q-16 2 -59 2h-35h-7q-17 0 -24 0.5t-12.5 5.5t-5.5 15q0 19 6.5 27.5t16 10t32.5 1.5h926q35 0 43 -7.5t4 -43.5l-50 -361q-6 -36 -12 -41q-5 -4 -20 -4q-27 0 -27 21q0 3 2 24t2 27 q12 94 12 135q0 49 -8.5 80t-33.5 58t-76 39.5t-131 12.5h-187q-54 0 -71.5 -11t-28.5 -66l-139 -560h161q63 0 101.5 9.5t65 36t41 61.5t30.5 98q6 24 11.5 29.5t23.5 5.5q26 0 26 -20l-118 -484q-4 -23 -10 -29t-23 -6q-29 0 -29 23v4q2 6 4 16q19 81 19 111q0 46 -29 66 t-119 20h-170l-129 -518q-8 -31 -8 -41q0 -17 9 -21t53 -4h190q62 0 113 9t89.5 22.5t72 41.5t57.5 54.5t50 73.5t44 86.5t45 104.5q28 64 31 67q6 6 22 6q27 0 27 -20q-2 -2 -2 -6l-1 -7q-1 -7 -5 -12l-181 -446q-11 -24 -18 -28.5t-37 -4.5h-805h-9.5h-8.5h-7t-6.5 0.5 t-5.5 1t-4.5 1.5t-3 2.5t-2.5 3.5t-1.5 5t-0.5 6q0 19 6.5 27.5t15 10t27.5 1.5q61 0 82 15.5t33 64.5l125 504h-301l-252 -432q-7 -7 -19 -35.5t-12 -48.5q0 -56 78 -68q10 0 14 -0.5t8.5 -5.5t4.5 -16q0 -18 -7.5 -27t-13 -9.5t-16.5 -0.5q-27 0 -84 2t-84 2q-33 0 -73 -1 t-48 -1q-14 -2 -35 -2q-22 0 -22 20zM711 702h284l135 547q9 35 9 41q0 43 -62 43z" />
<glyph unicode="&#xc7;" horiz-adv-x="1433" d="M303 498q0 177 75 351.5t193.5 303.5t273 209t306.5 80q204 0 303 -182l133 163q11 14 19 17q2 2 8 2t8 -2q10 -7 10 -17q-2 -2 -2 -10q0 -3 -1 -9t-1 -7l-125 -500q-6 -25 -11 -30t-22 -5q-26 0 -26 19v18q10 52 10 109q0 36 -4.5 74.5t-22 95t-46.5 99.5t-85 74 t-131 31q-133 0 -264 -80t-215 -194q-68 -95 -116.5 -211t-68.5 -215.5t-28 -161t-8 -94.5q0 -101 28.5 -181t78 -129t112.5 -74.5t135 -25.5q74 0 150.5 30.5t147.5 88t130.5 149.5t93.5 205q7 21 31 21q29 0 29 -18q-12 -57 -39 -115q-62 -136 -172 -246q-10 -10 -26 -24 t-57.5 -43t-85 -50.5t-107 -39t-126.5 -17.5h-20q-2 -7 -7.5 -34t-8.5 -36q1 0 10 -2.5t14.5 -4t17 -5t19 -8t18 -10.5t17.5 -14t13.5 -17.5t9.5 -22t3 -26.5q0 -31 -11 -56t-35 -42.5t-48 -30t-63.5 -20t-68 -12.5t-74.5 -6.5t-70.5 -2t-67.5 -0.5q-24 0 -24 20q0 18 12 21 q14 2 68 2q18 0 32.5 0.5t43 3t50.5 7t48.5 14t44 22.5t29.5 33.5t12 46.5q0 32 -23 51.5t-43 24t-35 4.5q-24 0 -24 20q0 21 22 98q-154 43 -250 180.5t-96 342.5z" />
<glyph unicode="&#xc8;" horiz-adv-x="1357" d="M135 20q0 19 6.5 27.5t16 10t32.5 1.5q91 0 117.5 16t38.5 72l277 1113q8 31 8 38q0 13 -4 19t-30 12t-79 6h-7q-17 0 -24 0.5t-12.5 5.5t-5.5 15q0 19 7 27.5t16 10t30 1.5h924q21 0 29.5 -1t15 -6t6.5 -16q0 -3 -2 -14.5t-2 -14.5l-49 -362q-5 -31 -9 -37t-22 -6 q-29 0 -29 23q0 5 2.5 20t2.5 20q10 66 10 125q0 42 -4 69.5t-19.5 56.5t-44 45.5t-79 27t-122.5 10.5h-256q-53 0 -69 -10.5t-29 -62.5l-127 -508h170q64 0 103.5 9t66.5 35t42.5 61t33.5 99q5 24 10 29.5t23 5.5q26 0 26 -20q0 -9 -4 -29l-114 -455q-5 -22 -10 -28t-23 -6 h-4h-5.5t-5 0.5t-5.5 2t-4.5 3.5t-3.5 5.5t-1 8.5q0 10 2 12q0 5 2 7q19 51 19 110q0 48 -29 69t-125 21h-178l-141 -569q-9 -35 -9 -41q0 -17 9 -21t53 -4h250q77 0 135.5 9.5t105.5 32t81 50.5t66.5 77t56.5 98t56 125q28 64 31 67q6 6 23 6q26 0 26 -20q-2 -2 -2 -6 l-1 -7q-1 -7 -5 -12l-180 -446q-11 -24 -18 -28.5t-37 -4.5h-951h-9.5h-8.5h-7t-6.5 0.5t-5.5 1t-4.5 1.5t-3 2.5t-2.5 3.5t-1.5 5t-0.5 6zM850 1782q7 29 30.5 46t53.5 17q20 0 33 -10q6 -2 12 -8l217 -246q11 -11 12.5 -14t-2.5 -8q-4 -11 -17.5 -22t-21.5 -13 q-14 -3 -26 6l-267 199q-40 17 -24 53z" />
<glyph unicode="&#xc9;" horiz-adv-x="1357" d="M135 20q0 19 6.5 27.5t16 10t32.5 1.5q91 0 117.5 16t38.5 72l277 1113q8 31 8 38q0 13 -4 19t-30 12t-79 6h-7q-17 0 -24 0.5t-12.5 5.5t-5.5 15q0 19 7 27.5t16 10t30 1.5h924q21 0 29.5 -1t15 -6t6.5 -16q0 -3 -2 -14.5t-2 -14.5l-49 -362q-5 -31 -9 -37t-22 -6 q-29 0 -29 23q0 5 2.5 20t2.5 20q10 66 10 125q0 42 -4 69.5t-19.5 56.5t-44 45.5t-79 27t-122.5 10.5h-256q-53 0 -69 -10.5t-29 -62.5l-127 -508h170q64 0 103.5 9t66.5 35t42.5 61t33.5 99q5 24 10 29.5t23 5.5q26 0 26 -20q0 -9 -4 -29l-114 -455q-5 -22 -10 -28t-23 -6 h-4h-5.5t-5 0.5t-5.5 2t-4.5 3.5t-3.5 5.5t-1 8.5q0 10 2 12q0 5 2 7q19 51 19 110q0 48 -29 69t-125 21h-178l-141 -569q-9 -35 -9 -41q0 -17 9 -21t53 -4h250q77 0 135.5 9.5t105.5 32t81 50.5t66.5 77t56.5 98t56 125q28 64 31 67q6 6 23 6q26 0 26 -20q-2 -2 -2 -6 l-1 -7q-1 -7 -5 -12l-180 -446q-11 -24 -18 -28.5t-37 -4.5h-951h-9.5h-8.5h-7t-6.5 0.5t-5.5 1t-4.5 1.5t-3 2.5t-2.5 3.5t-1.5 5t-0.5 6zM932 1559q0 9 22 22l340 246q3 1 8.5 4t8.5 4q17 10 37 10q29 0 43.5 -17t9.5 -46q-7 -37 -51 -53l-367 -199q-13 -10 -29 -6 q-9 2 -17.5 13t-4.5 22z" />
<glyph unicode="&#xca;" horiz-adv-x="1357" d="M135 20q0 19 6.5 27.5t16 10t32.5 1.5q91 0 117.5 16t38.5 72l277 1113q8 31 8 38q0 13 -4 19t-30 12t-79 6h-7q-17 0 -24 0.5t-12.5 5.5t-5.5 15q0 19 7 27.5t16 10t30 1.5h924q21 0 29.5 -1t15 -6t6.5 -16q0 -3 -2 -14.5t-2 -14.5l-49 -362q-5 -31 -9 -37t-22 -6 q-29 0 -29 23q0 5 2.5 20t2.5 20q10 66 10 125q0 42 -4 69.5t-19.5 56.5t-44 45.5t-79 27t-122.5 10.5h-256q-53 0 -69 -10.5t-29 -62.5l-127 -508h170q64 0 103.5 9t66.5 35t42.5 61t33.5 99q5 24 10 29.5t23 5.5q26 0 26 -20q0 -9 -4 -29l-114 -455q-5 -22 -10 -28t-23 -6 h-4h-5.5t-5 0.5t-5.5 2t-4.5 3.5t-3.5 5.5t-1 8.5q0 10 2 12q0 5 2 7q19 51 19 110q0 48 -29 69t-125 21h-178l-141 -569q-9 -35 -9 -41q0 -17 9 -21t53 -4h250q77 0 135.5 9.5t105.5 32t81 50.5t66.5 77t56.5 98t56 125q28 64 31 67q6 6 23 6q26 0 26 -20q-2 -2 -2 -6 l-1 -7q-1 -7 -5 -12l-180 -446q-11 -24 -18 -28.5t-37 -4.5h-951h-9.5h-8.5h-7t-6.5 0.5t-5.5 1t-4.5 1.5t-3 2.5t-2.5 3.5t-1.5 5t-0.5 6zM772 1524q2 11 14 18l316 201q18 6 24 0l220 -201q7 -8 4 -18t-14.5 -17t-22.5 -2l-228 113l-288 -113q-12 -5 -19.5 1.5t-5.5 17.5z " />
<glyph unicode="&#xcb;" horiz-adv-x="1357" d="M135 20q0 19 6.5 27.5t16 10t32.5 1.5q91 0 117.5 16t38.5 72l277 1113q8 31 8 38q0 13 -4 19t-30 12t-79 6h-7q-17 0 -24 0.5t-12.5 5.5t-5.5 15q0 19 7 27.5t16 10t30 1.5h924q21 0 29.5 -1t15 -6t6.5 -16q0 -3 -2 -14.5t-2 -14.5l-49 -362q-5 -31 -9 -37t-22 -6 q-29 0 -29 23q0 5 2.5 20t2.5 20q10 66 10 125q0 42 -4 69.5t-19.5 56.5t-44 45.5t-79 27t-122.5 10.5h-256q-53 0 -69 -10.5t-29 -62.5l-127 -508h170q64 0 103.5 9t66.5 35t42.5 61t33.5 99q5 24 10 29.5t23 5.5q26 0 26 -20q0 -9 -4 -29l-114 -455q-5 -22 -10 -28t-23 -6 h-4h-5.5t-5 0.5t-5.5 2t-4.5 3.5t-3.5 5.5t-1 8.5q0 10 2 12q0 5 2 7q19 51 19 110q0 48 -29 69t-125 21h-178l-141 -569q-9 -35 -9 -41q0 -17 9 -21t53 -4h250q77 0 135.5 9.5t105.5 32t81 50.5t66.5 77t56.5 98t56 125q28 64 31 67q6 6 23 6q26 0 26 -20q-2 -2 -2 -6 l-1 -7q-1 -7 -5 -12l-180 -446q-11 -24 -18 -28.5t-37 -4.5h-951h-9.5h-8.5h-7t-6.5 0.5t-5.5 1t-4.5 1.5t-3 2.5t-2.5 3.5t-1.5 5t-0.5 6zM791 1577q0 41 33 72.5t75 31.5q33 0 54 -17.5t20 -55.5q0 -41 -33.5 -73t-75.5 -32q-29 0 -51 19.5t-22 54.5zM1180 1577 q0 41 33 72.5t75 31.5q33 0 54 -17.5t20 -55.5q0 -41 -33.5 -73t-75.5 -32q-29 0 -51 19.5t-22 54.5z" />
<glyph unicode="&#xcc;" horiz-adv-x="772" d="M127 20q0 19 6.5 27.5t15 10t27.5 1.5q101 0 129.5 15.5t40.5 72.5l277 1106q4 9 5 22t1 15q0 11 2 13q0 14 -4.5 20t-31.5 11t-85 5q-21 0 -29 1t-14 6t-6 16q0 18 7.5 27t13 9.5t18.5 0.5q38 0 115 -2t118 -2q38 0 116 2t116 2q28 0 28 -21q0 -15 -2.5 -23t-11.5 -11.5 t-17 -4t-28 -0.5q-92 0 -120 -15t-40 -69l-280 -1126q-5 -15 -5 -35q0 -12 9 -20t29.5 -11t35 -3.5t43.5 -0.5h12q18 0 25 -0.5t11.5 -5t4.5 -14.5q0 -18 -7 -27.5t-13.5 -10.5t-17.5 -1q-37 0 -116 2t-120 2q-38 0 -115 -2t-114 -2h-4h-5.5t-5 0.5t-5.5 2t-4.5 3.5 t-3.5 5.5t-1 8.5zM557 1782q7 29 30.5 46t53.5 17q20 0 33 -10q6 -2 12 -8l217 -246q11 -11 12.5 -14t-2.5 -8q-4 -11 -17.5 -22t-21.5 -13q-14 -3 -26 6l-266 199q-41 18 -25 53z" />
<glyph unicode="&#xcd;" horiz-adv-x="772" d="M127 20q0 19 6.5 27.5t15 10t27.5 1.5q101 0 129.5 15.5t40.5 72.5l277 1106q4 9 5 22t1 15q0 11 2 13q0 14 -4.5 20t-31.5 11t-85 5q-21 0 -29 1t-14 6t-6 16q0 18 7.5 27t13 9.5t18.5 0.5q38 0 115 -2t118 -2q38 0 116 2t116 2q28 0 28 -21q0 -15 -2.5 -23t-11.5 -11.5 t-17 -4t-28 -0.5q-92 0 -120 -15t-40 -69l-280 -1126q-5 -15 -5 -35q0 -12 9 -20t29.5 -11t35 -3.5t43.5 -0.5h12q18 0 25 -0.5t11.5 -5t4.5 -14.5q0 -18 -7 -27.5t-13.5 -10.5t-17.5 -1q-37 0 -116 2t-120 2q-38 0 -115 -2t-114 -2h-4h-5.5t-5 0.5t-5.5 2t-4.5 3.5 t-3.5 5.5t-1 8.5zM639 1559q0 4 1 5.5t6 5.5t16 11l339 246q3 1 8.5 4t8.5 4q17 10 37 10q29 0 43.5 -17t9.5 -46q-7 -37 -51 -53l-367 -199q-13 -10 -28 -6q-9 2 -18 13t-5 22z" />
<glyph unicode="&#xce;" horiz-adv-x="772" d="M127 20q0 19 6.5 27.5t15 10t27.5 1.5q101 0 129.5 15.5t40.5 72.5l277 1106q4 9 5 22t1 15q0 11 2 13q0 14 -4.5 20t-31.5 11t-85 5q-21 0 -29 1t-14 6t-6 16q0 18 7.5 27t13 9.5t18.5 0.5q38 0 115 -2t118 -2q38 0 116 2t116 2q28 0 28 -21q0 -15 -2.5 -23t-11.5 -11.5 t-17 -4t-28 -0.5q-92 0 -120 -15t-40 -69l-280 -1126q-5 -15 -5 -35q0 -12 9 -20t29.5 -11t35 -3.5t43.5 -0.5h12q18 0 25 -0.5t11.5 -5t4.5 -14.5q0 -18 -7 -27.5t-13.5 -10.5t-17.5 -1q-37 0 -116 2t-120 2q-38 0 -115 -2t-114 -2h-4h-5.5t-5 0.5t-5.5 2t-4.5 3.5 t-3.5 5.5t-1 8.5zM480 1514q-5 17 14 28l315 201q19 6 25 0l219 -201q7 -8 4 -18t-14.5 -17t-22.5 -2l-227 113l-289 -113q-18 -7 -24 9z" />
<glyph unicode="&#xcf;" horiz-adv-x="772" d="M127 20q0 19 6.5 27.5t15 10t27.5 1.5q101 0 129.5 15.5t40.5 72.5l277 1106q4 9 5 22t1 15q0 11 2 13q0 14 -4.5 20t-31.5 11t-85 5q-21 0 -29 1t-14 6t-6 16q0 18 7.5 27t13 9.5t18.5 0.5q38 0 115 -2t118 -2q38 0 116 2t116 2q28 0 28 -21q0 -15 -2.5 -23t-11.5 -11.5 t-17 -4t-28 -0.5q-92 0 -120 -15t-40 -69l-280 -1126q-5 -15 -5 -35q0 -12 9 -20t29.5 -11t35 -3.5t43.5 -0.5h12q18 0 25 -0.5t11.5 -5t4.5 -14.5q0 -18 -7 -27.5t-13.5 -10.5t-17.5 -1q-37 0 -116 2t-120 2q-38 0 -115 -2t-114 -2h-4h-5.5t-5 0.5t-5.5 2t-4.5 3.5 t-3.5 5.5t-1 8.5zM498 1577q0 41 33 72.5t75 31.5q33 0 54 -17.5t20 -55.5q0 -41 -33.5 -73t-75.5 -32q-29 0 -51 19.5t-22 54.5zM887 1577q0 41 33 72.5t75 31.5q33 0 54 -17.5t20 -55.5q0 -41 -33 -73t-75 -32q-29 0 -51.5 20t-22.5 54z" />
<glyph unicode="&#xd0;" horiz-adv-x="1511" d="M137 20q0 19 7 27.5t16 10t33 1.5q91 0 117 16t38 72l131 525h-182q-30 0 -21 28q2 11 12.5 20t22.5 9h183l135 547q4 9 4 31q0 12 -8.5 19t-28.5 9.5t-32 3t-40 0.5q-42 0 -48 6q-5 4 -5 15q0 19 6.5 27.5t16 10t32.5 1.5h611q189 0 303 -135.5t114 -362.5 q0 -170 -67 -337t-173.5 -289.5t-246.5 -198.5t-279 -76h-602h-9.5h-8.5h-7t-6.5 0.5t-5.5 1t-4.5 1.5t-3 2.5t-2.5 3.5t-1.5 5t-0.5 6zM483 84q0 -17 9 -21t53 -4h211q137 0 256.5 74.5t201.5 198.5q88 131 137.5 330t49.5 315q0 158 -83 260t-243 102h-201 q-56 0 -72.5 -10.5t-27.5 -66.5l-133 -533h297q12 0 19.5 -9.5t3.5 -19.5q-9 -28 -37 -28h-297l-135 -541q-9 -21 -9 -47z" />
<glyph unicode="&#xd1;" horiz-adv-x="1488" d="M135 20q0 18 6.5 27.5t11.5 10.5t13 1q72 7 101 20q71 32 93 126l281 1122q-40 12 -119 12q-42 0 -48 6q-5 4 -5 15q0 19 6.5 27.5t16 10t32.5 1.5h234q32 0 39.5 -5t15.5 -28l373 -1085l229 917q1 4 3 15.5t3.5 21.5t1.5 18q0 46 -28.5 65t-87.5 21q-31 0 -31 21 q0 18 7 27.5t13.5 10.5t16.5 1q29 0 90.5 -2t93.5 -2q30 0 90 2t88 2q27 0 27 -23q0 -37 -31 -37q-37 -3 -60 -8t-52.5 -19t-49.5 -43.5t-32 -74.5l-289 -1157q-6 -25 -12.5 -31t-24.5 -6t-23.5 5.5t-11.5 25.5l-426 1243l-270 -1079q-1 -3 -2 -9.5t-2 -9.5q-4 -28 -4 -31 q0 -49 31 -66.5t87 -19.5q29 0 29 -20q0 -18 -6.5 -27.5t-12.5 -10.5t-16 -1q-29 0 -90.5 2t-93.5 2q-30 0 -91 -2t-89 -2q-25 0 -25 20zM821 1524q0 7 27 35t65 60t84 57.5t78 25.5q60 0 101 -76q20 -31 34 -43t33 -12q43 0 109 51q27 19 61 53q25 25 37 25q1 -1 4.5 -2 t5.5 -2q10 -7 10 -15q0 -10 -43 -52.5t-105.5 -84t-104.5 -41.5q-25 0 -47 14t-31 25.5t-21 30.5q-23 37 -37 49t-34 12q-23 0 -60.5 -22t-54.5 -36t-53 -44q-27 -27 -39 -27q-9 0 -14 6.5t-5 12.5z" />
<glyph unicode="&#xd2;" horiz-adv-x="1536" d="M299 481q0 173 72 349t186.5 309.5t266 218t302.5 84.5q138 0 243 -70.5t159.5 -190t54.5 -268.5q0 -176 -72.5 -351.5t-187.5 -307.5t-265.5 -214.5t-299.5 -82.5q-209 0 -334 148t-125 376zM467 422q0 -189 82.5 -303.5t218.5 -114.5q90 0 177 45.5t158 122t131.5 177 t101.5 210t64 222t23 212.5q0 193 -87.5 298.5t-221.5 105.5q-105 0 -220 -70t-214 -209q-75 -108 -126.5 -257t-69 -257t-17.5 -182zM938 1782q7 29 30.5 46t53.5 17q20 0 33 -10q6 -2 12 -8l217 -246q11 -11 12.5 -14t-2.5 -8q-4 -11 -17.5 -22t-21.5 -13q-14 -3 -26 6 l-266 199q-41 18 -25 53z" />
<glyph unicode="&#xd3;" horiz-adv-x="1536" d="M299 481q0 173 72 349t186.5 309.5t266 218t302.5 84.5q138 0 243 -70.5t159.5 -190t54.5 -268.5q0 -176 -72.5 -351.5t-187.5 -307.5t-265.5 -214.5t-299.5 -82.5q-209 0 -334 148t-125 376zM467 422q0 -189 82.5 -303.5t218.5 -114.5q90 0 177 45.5t158 122t131.5 177 t101.5 210t64 222t23 212.5q0 193 -87.5 298.5t-221.5 105.5q-105 0 -220 -70t-214 -209q-75 -108 -126.5 -257t-69 -257t-17.5 -182zM1020 1559q0 9 22 22l340 246q3 1 8.5 4t8.5 4q17 10 37 10q29 0 43.5 -17t9.5 -46q-7 -37 -51 -53l-367 -199q-13 -10 -29 -6 q-9 2 -17.5 13t-4.5 22z" />
<glyph unicode="&#xd4;" horiz-adv-x="1536" d="M299 481q0 173 72 349t186.5 309.5t266 218t302.5 84.5q138 0 243 -70.5t159.5 -190t54.5 -268.5q0 -176 -72.5 -351.5t-187.5 -307.5t-265.5 -214.5t-299.5 -82.5q-209 0 -334 148t-125 376zM467 422q0 -189 82.5 -303.5t218.5 -114.5q90 0 177 45.5t158 122t131.5 177 t101.5 210t64 222t23 212.5q0 193 -87.5 298.5t-221.5 105.5q-105 0 -220 -70t-214 -209q-75 -108 -126.5 -257t-69 -257t-17.5 -182zM860 1524q2 11 14 18l316 201q18 6 24 0l220 -201q7 -8 4 -18t-14.5 -17t-22.5 -2l-227 113l-289 -113q-12 -5 -19.5 1.5t-5.5 17.5z" />
<glyph unicode="&#xd5;" horiz-adv-x="1536" d="M299 481q0 173 72 349t186.5 309.5t266 218t302.5 84.5q138 0 243 -70.5t159.5 -190t54.5 -268.5q0 -176 -72.5 -351.5t-187.5 -307.5t-265.5 -214.5t-299.5 -82.5q-209 0 -334 148t-125 376zM467 422q0 -189 82.5 -303.5t218.5 -114.5q90 0 177 45.5t158 122t131.5 177 t101.5 210t64 222t23 212.5q0 193 -87.5 298.5t-221.5 105.5q-105 0 -220 -70t-214 -209q-75 -108 -126.5 -257t-69 -257t-17.5 -182zM844 1524q0 7 27 35t65 60t84 57.5t78 25.5q59 0 100 -76q20 -31 34 -43t34 -12q42 0 108 51q30 21 62 53q25 25 37 25q1 -1 4.5 -2 t5.5 -2q10 -7 10 -15q0 -7 -27 -35t-65 -60t-84 -57.5t-78 -25.5q-25 0 -47 14t-30 25t-21 31q-23 37 -37.5 49t-34.5 12q-23 0 -60.5 -22t-54.5 -36t-53 -44q-27 -27 -39 -27q-18 0 -18 19z" />
<glyph unicode="&#xd6;" horiz-adv-x="1536" d="M299 481q0 173 72 349t186.5 309.5t266 218t302.5 84.5q138 0 243 -70.5t159.5 -190t54.5 -268.5q0 -176 -72.5 -351.5t-187.5 -307.5t-265.5 -214.5t-299.5 -82.5q-209 0 -334 148t-125 376zM467 422q0 -189 82.5 -303.5t218.5 -114.5q90 0 177 45.5t158 122t131.5 177 t101.5 210t64 222t23 212.5q0 193 -87.5 298.5t-221.5 105.5q-105 0 -220 -70t-214 -209q-75 -108 -126.5 -257t-69 -257t-17.5 -182zM879 1577q0 41 33 72.5t75 31.5q33 0 54 -17.5t20 -55.5q0 -41 -33.5 -73t-75.5 -32q-29 0 -51 19.5t-22 54.5zM1268 1577q0 41 33 72.5 t75 31.5q33 0 54 -17.5t20 -55.5q0 -41 -33.5 -73t-75.5 -32q-29 0 -51 19.5t-22 54.5z" />
<glyph unicode="&#xd7;" horiz-adv-x="1536" d="M352 78q-31 23 29 65l459 367l-281 371q-14 20 -15 30.5t15 26.5q16 12 35.5 13.5t28.5 -5.5q2 -2 14 -18l272 -363l441 353q3 2 12.5 9.5t13 10t12 7.5t13 6t11.5 2t13.5 -1.5t12.5 -7.5q9 -7 11 -14.5t-5 -17t-11 -13t-18 -15.5q-5 -5 -8 -7l-459 -365l283 -375 q27 -34 -2 -55q-11 -11 -29.5 -13.5t-32.5 7.5q-1 1 -4.5 3.5t-7.5 7.5t-10 15l-264 355l-443 -355q-1 0 -7 -5.5t-7.5 -6.5t-8 -5.5t-9 -5.5t-8.5 -4t-9 -3.5t-8.5 -1.5t-10 0t-9 3t-9.5 5z" />
<glyph unicode="&#xd8;" horiz-adv-x="1536" d="M225 -98q0 7 30 43.5t56 62.5l99 115q-111 147 -111 358q0 173 72 349t186.5 309.5t266 218t302.5 84.5q107 0 187 -39t131 -94l166 192q15 19 26 19t17 -8.5t6 -14.5q0 -8 -17 -27l-169 -196q45 -57 77.5 -150t32.5 -211q0 -176 -72.5 -351.5t-187.5 -307.5 t-265.5 -214.5t-299.5 -82.5q-61 0 -114 13t-95.5 38t-62 39.5t-48.5 40.5l-166 -190l-6 -6l-4.5 -4.5l-3 -3t-3 -2l-3 -1t-4.5 -0.5q-23 0 -23 21zM436 401q0 -124 37 -204l916 1050q-97 154 -273 154q-56 0 -117 -19t-125.5 -57t-130 -105t-120.5 -155 q-82 -131 -134.5 -327.5t-52.5 -336.5zM496 152q90 -154 272 -154q128 0 263.5 87.5t230.5 246.5q85 142 134.5 335t49.5 326q0 117 -35 209z" />
<glyph unicode="&#xd9;" horiz-adv-x="1488" d="M410 334q0 69 16 135l201 807q4 9 4 31q0 12 -8.5 19t-28.5 9.5t-32 3t-40 0.5q-42 0 -48 6q-5 4 -5 15q0 18 7.5 27.5t14 10.5t17.5 1q37 0 113 -2t114 -2q37 0 111 2t110 2q29 0 29 -23q0 -14 -2.5 -22t-12 -11t-15 -3.5t-23.5 -0.5q-91 0 -118.5 -16t-39.5 -70 l-205 -821q-20 -67 -20 -158q0 -125 62.5 -191.5t156.5 -66.5q152 0 289 134t182 315l182 733q9 21 9 55q0 46 -28.5 65t-88.5 21q-31 0 -31 21q0 18 7 27.5t13.5 10.5t16.5 1q12 -2 45 -2q31 -2 135 -2q29 0 89 2t87 2t27 -23q0 -37 -31 -37q-30 -2 -47 -4.5t-44 -11.5 t-43.5 -23t-33 -41t-26.5 -65l-185 -741q-22 -90 -73.5 -178t-121 -159t-158.5 -115t-179 -44q-147 0 -248.5 101.5t-101.5 275.5zM958 1782q7 29 30.5 46t53.5 17q20 0 33 -10q6 -2 12 -8l218 -246q11 -11 12.5 -14t-2.5 -8q-4 -11 -17.5 -22t-21.5 -13q-15 -3 -27 6 l-266 199q-41 18 -25 53z" />
<glyph unicode="&#xda;" horiz-adv-x="1488" d="M410 334q0 69 16 135l201 807q4 9 4 31q0 12 -8.5 19t-28.5 9.5t-32 3t-40 0.5q-42 0 -48 6q-5 4 -5 15q0 18 7.5 27.5t14 10.5t17.5 1q37 0 113 -2t114 -2q37 0 111 2t110 2q29 0 29 -23q0 -14 -2.5 -22t-12 -11t-15 -3.5t-23.5 -0.5q-91 0 -118.5 -16t-39.5 -70 l-205 -821q-20 -67 -20 -158q0 -125 62.5 -191.5t156.5 -66.5q152 0 289 134t182 315l182 733q9 21 9 55q0 46 -28.5 65t-88.5 21q-31 0 -31 21q0 18 7 27.5t13.5 10.5t16.5 1q12 -2 45 -2q31 -2 135 -2q29 0 89 2t87 2t27 -23q0 -37 -31 -37q-30 -2 -47 -4.5t-44 -11.5 t-43.5 -23t-33 -41t-26.5 -65l-185 -741q-22 -90 -73.5 -178t-121 -159t-158.5 -115t-179 -44q-147 0 -248.5 101.5t-101.5 275.5zM1040 1559q0 4 1 5.5t6 5.5t16 11l340 246q3 1 8 4t8 4q17 10 37 10q29 0 43.5 -17t9.5 -46q-7 -37 -51 -53l-366 -199q-13 -10 -29 -6 q-9 2 -18 13t-5 22z" />
<glyph unicode="&#xdb;" horiz-adv-x="1488" d="M410 334q0 69 16 135l201 807q4 9 4 31q0 12 -8.5 19t-28.5 9.5t-32 3t-40 0.5q-42 0 -48 6q-5 4 -5 15q0 18 7.5 27.5t14 10.5t17.5 1q37 0 113 -2t114 -2q37 0 111 2t110 2q29 0 29 -23q0 -14 -2.5 -22t-12 -11t-15 -3.5t-23.5 -0.5q-91 0 -118.5 -16t-39.5 -70 l-205 -821q-20 -67 -20 -158q0 -125 62.5 -191.5t156.5 -66.5q152 0 289 134t182 315l182 733q9 21 9 55q0 46 -28.5 65t-88.5 21q-31 0 -31 21q0 18 7 27.5t13.5 10.5t16.5 1q12 -2 45 -2q31 -2 135 -2q29 0 89 2t87 2t27 -23q0 -37 -31 -37q-30 -2 -47 -4.5t-44 -11.5 t-43.5 -23t-33 -41t-26.5 -65l-185 -741q-22 -90 -73.5 -178t-121 -159t-158.5 -115t-179 -44q-147 0 -248.5 101.5t-101.5 275.5zM881 1514q-5 17 14 28l315 201q19 6 25 0l219 -201q7 -8 4 -18t-14.5 -17t-22.5 -2l-227 113l-289 -113q-18 -7 -24 9z" />
<glyph unicode="&#xdc;" horiz-adv-x="1488" d="M410 334q0 69 16 135l201 807q4 9 4 31q0 12 -8.5 19t-28.5 9.5t-32 3t-40 0.5q-42 0 -48 6q-5 4 -5 15q0 18 7.5 27.5t14 10.5t17.5 1q37 0 113 -2t114 -2q37 0 111 2t110 2q29 0 29 -23q0 -14 -2.5 -22t-12 -11t-15 -3.5t-23.5 -0.5q-91 0 -118.5 -16t-39.5 -70 l-205 -821q-20 -67 -20 -158q0 -125 62.5 -191.5t156.5 -66.5q152 0 289 134t182 315l182 733q9 21 9 55q0 46 -28.5 65t-88.5 21q-31 0 -31 21q0 18 7 27.5t13.5 10.5t16.5 1q12 -2 45 -2q31 -2 135 -2q29 0 89 2t87 2t27 -23q0 -37 -31 -37q-30 -2 -47 -4.5t-44 -11.5 t-43.5 -23t-33 -41t-26.5 -65l-185 -741q-22 -90 -73.5 -178t-121 -159t-158.5 -115t-179 -44q-147 0 -248.5 101.5t-101.5 275.5zM899 1577q0 41 33.5 72.5t75.5 31.5q33 0 53.5 -17.5t19.5 -55.5q0 -41 -33 -73t-75 -32q-29 0 -51.5 20t-22.5 54zM1288 1577 q0 41 33.5 72.5t75.5 31.5q33 0 53.5 -17.5t19.5 -55.5q0 -41 -33 -73t-75 -32q-29 0 -51.5 20t-22.5 54z" />
<glyph unicode="&#xdd;" horiz-adv-x="1488" d="M412 1360q0 18 7 27.5t13.5 10.5t16.5 1q31 0 99 -2t101 -2q36 0 106.5 2t106.5 2q10 0 15 -0.5t10.5 -6t5.5 -16.5q0 -14 -3 -22t-11 -11t-12 -3.5t-15 -0.5q-104 0 -104 -49q0 -6 2 -10q1 -2 1.5 -5.5t1 -5.5t1.5 -3l200 -631l461 563q51 60 51 96q0 40 -59 45 q-23 0 -23 21q0 18 6.5 27.5t12.5 10.5t16 1q27 0 84 -2t84 -2q25 0 76 2t74 2q8 0 12 -2q12 -3 12 -19q0 -24 -8.5 -30.5t-28.5 -8.5q-74 -8 -131.5 -42t-132.5 -126l-487 -593q-11 -13 -15 -21.5t-12 -36.5q-22 -93 -32 -130.5t-31 -125.5q-39 -139 -39 -170q0 -14 4 -20 t29 -10.5t79 -4.5h10q16 0 23 -0.5t12 -5t5 -14.5q0 -18 -7.5 -27.5t-14 -10.5t-17.5 -1q-36 0 -111.5 2t-112.5 2q-36 0 -109.5 -2t-109.5 -2h-3.5h-4t-4.5 0.5t-5 1t-4.5 2t-3.5 3.5t-2 5.5t-1 7.5q0 19 6.5 27.5t14 10t24.5 1.5q92 0 120.5 13.5t40.5 58.5 q0 4 53.5 213.5t53.5 214.5q0 4 -1.5 9.5t-3.5 12t-3 9.5l-219 686q-12 38 -37 50.5t-94 12.5h-5q-13 0 -18.5 0.5t-10.5 5.5t-5 15zM997 1559q0 4 1 5.5t6 5.5t16 11l340 246q3 1 8 4t8 4q17 10 37 10q29 0 43.5 -17t9.5 -46q-7 -37 -51 -53l-366 -199q-13 -10 -29 -6 q-9 2 -18 13t-5 22z" />
<glyph unicode="&#xde;" horiz-adv-x="1255" d="M139 23q0 25 11 30.5t41 5.5h8q63 0 93 9.5t39.5 26t18.5 57.5l281 1116q4 16 4 39q0 11 -8 18t-26 10t-32 3.5t-40 0.5h-5q-39 0 -45 7q-4 5 -4 14q0 18 7.5 27.5t12.5 10.5t17 3q111 -6 221 -6q109 0 217 6l8 -1q7 -1 10 -2.5t7 -6.5t4 -13q0 -15 -2.5 -23t-12.5 -11.5 t-18.5 -4t-30.5 -0.5q-76 0 -101.5 -11t-33.5 -38q-3 -4 -10 -32t-16.5 -67t-16.5 -61h240q79 0 140 -22.5t94 -54.5t54 -74.5t27 -75t6 -63.5q0 -85 -40 -171t-106 -153t-158 -109t-189 -42h-258q-33 -127 -33 -134q-33 -124 -33 -137q0 -14 5 -20t30 -10.5t78 -4.5h9.5h9 h7.5t7 -0.5t5.5 -1.5t5 -2.5t3 -3.5t2 -5t0.5 -7q0 -18 -7.5 -27.5t-12.5 -10.5t-17 -3q-111 6 -221 6q-109 0 -217 -6l-5 1q-5 1 -7 1.5t-6 2t-6 4t-3.5 6.5t-1.5 10zM561 424h199q102 0 188.5 65.5t133 163.5t46.5 199q0 107 -49 160q-17 21 -35.5 34t-40.5 18t-35.5 6 t-37.5 1h-207z" />
<glyph unicode="&#xdf;" horiz-adv-x="1075" d="M-45 -295q0 55 30.5 82t63.5 27q27 0 45.5 -16t18.5 -44q0 -5 -0.5 -11t-5.5 -20.5t-13.5 -25.5t-27 -21.5t-43.5 -13.5q18 -39 63 -39q35 0 63 26.5t51.5 86t42 132.5t40.5 187l149 768h-121h-7q-17 0 -24 0.5t-12.5 5.5t-5.5 15q0 19 7 27.5t16 10t30 1.5h129l41 211 q33 173 130 260.5t276 87.5q126 0 199 -64.5t73 -165.5q0 -154 -182 -370q-29 -35 -44.5 -54.5t-31.5 -50t-16 -53.5q0 -48 69 -139q25 -29 40.5 -51t33 -66t17.5 -88q0 -58 -28.5 -121.5t-75.5 -116.5t-115.5 -87.5t-141.5 -34.5q-78 0 -137 37.5t-59 107.5q0 46 21.5 67 t47.5 21q49 0 49 -47q0 -22 -14 -41.5t-43 -24.5q11 -28 32 -46t44.5 -24.5t35.5 -8t23 -1.5q44 0 82.5 29.5t61.5 71t39.5 88t23 79t6.5 44.5q0 18 -3.5 35t-10.5 32.5t-12.5 25t-14.5 23t-10 15.5q-53 68 -53 162q0 55 14.5 96t36 68t70.5 79q53 53 88.5 182t35.5 179 q0 77 -38 124.5t-113 47.5q-76 0 -130.5 -26t-78.5 -56q-39 -60 -70 -215l-180 -924q-9 -48 -18 -91.5t-26 -107t-36 -115t-47 -106.5t-59.5 -92.5t-73.5 -61.5t-88 -24q-54 0 -91.5 33t-37.5 90z" />
<glyph unicode="&#xe0;" d="M201 291q0 147 67.5 290t174.5 232.5t216 89.5q115 0 164 -121l2 2q2 13 15 39q25 41 65 41q27 0 40 -14.5t13 -34.5v-8q0 -3 -2.5 -12t-3.5 -13l-143 -571q-16 -62 -16 -109q0 -82 55 -82q43 0 74.5 56.5t62.5 185.5q11 36 16 42.5t23 6.5q27 0 27 -18q0 -4 -7.5 -36 t-22.5 -79.5t-30 -79.5q-54 -118 -147 -118q-16 0 -32.5 3t-38 12.5t-38.5 24.5t-31.5 42t-21.5 63q-126 -145 -246 -145q-104 0 -169.5 87t-65.5 224zM328 205q0 -19 2.5 -41t12 -59t34.5 -61t63 -24q55 0 115 46.5t96.5 98.5t42.5 83l97 389l6 29q0 12 -5 37.5t-17.5 64.5 t-43 66.5t-72.5 27.5q-63 0 -126 -66t-107 -165q-29 -74 -63.5 -214.5t-34.5 -211.5zM623 1370q10 23 34.5 39t47.5 16q13 0 32 -14q2 -3 6 -7.5t5 -6.5l143 -301q12 -19 4 -27q-6 -11 -20.5 -21t-22.5 -10q-18 0 -21 13l-198 258q-27 27 -10 61z" />
<glyph unicode="&#xe1;" d="M201 291q0 147 67.5 290t174.5 232.5t216 89.5q115 0 164 -121l2 2q2 13 15 39q25 41 65 41q27 0 40 -14.5t13 -34.5v-8q0 -3 -2.5 -12t-3.5 -13l-143 -571q-16 -62 -16 -109q0 -82 55 -82q43 0 74.5 56.5t62.5 185.5q11 36 16 42.5t23 6.5q27 0 27 -18q0 -4 -7.5 -36 t-22.5 -79.5t-30 -79.5q-54 -118 -147 -118q-16 0 -32.5 3t-38 12.5t-38.5 24.5t-31.5 42t-21.5 63q-126 -145 -246 -145q-104 0 -169.5 87t-65.5 224zM328 205q0 -19 2.5 -41t12 -59t34.5 -61t63 -24q55 0 115 46.5t96.5 98.5t42.5 83l97 389l6 29q0 12 -5 37.5t-17.5 64.5 t-43 66.5t-72.5 27.5q-63 0 -126 -66t-107 -165q-29 -74 -63.5 -214.5t-34.5 -211.5zM664 1069q0 11 18 27l293 301q12 8 18 14q23 14 39 14q23 0 39 -16t16 -39q0 -32 -40 -61l-328 -258q-13 -13 -27 -13q-8 0 -18 10t-10 21z" />
<glyph unicode="&#xe2;" d="M201 291q0 147 67.5 290t174.5 232.5t216 89.5q115 0 164 -121l2 2q2 13 15 39q25 41 65 41q27 0 40 -14.5t13 -34.5v-8q0 -3 -2.5 -12t-3.5 -13l-143 -571q-16 -62 -16 -109q0 -82 55 -82q43 0 74.5 56.5t62.5 185.5q11 36 16 42.5t23 6.5q27 0 27 -18q0 -4 -7.5 -36 t-22.5 -79.5t-30 -79.5q-54 -118 -147 -118q-16 0 -32.5 3t-38 12.5t-38.5 24.5t-31.5 42t-21.5 63q-126 -145 -246 -145q-104 0 -169.5 87t-65.5 224zM328 205q0 -19 2.5 -41t12 -59t34.5 -61t63 -24q55 0 115 46.5t96.5 98.5t42.5 83l97 389l6 29q0 12 -5 37.5t-17.5 64.5 t-43 66.5t-72.5 27.5q-63 0 -126 -66t-107 -165q-29 -74 -63.5 -214.5t-34.5 -211.5zM497 1069q-10 14 7 31l340 295q18 15 30 0l193 -295q12 -15 -5.5 -31t-31.5 -2l-199 203l-305 -203q-19 -12 -29 2z" />
<glyph unicode="&#xe3;" d="M201 291q0 147 67.5 290t174.5 232.5t216 89.5q115 0 164 -121l2 2q2 13 15 39q25 41 65 41q27 0 40 -14.5t13 -34.5v-8q0 -3 -2.5 -12t-3.5 -13l-143 -571q-16 -62 -16 -109q0 -82 55 -82q43 0 74.5 56.5t62.5 185.5q11 36 16 42.5t23 6.5q27 0 27 -18q0 -4 -7.5 -36 t-22.5 -79.5t-30 -79.5q-54 -118 -147 -118q-16 0 -32.5 3t-38 12.5t-38.5 24.5t-31.5 42t-21.5 63q-126 -145 -246 -145q-104 0 -169.5 87t-65.5 224zM328 205q0 -19 2.5 -41t12 -59t34.5 -61t63 -24q55 0 115 46.5t96.5 98.5t42.5 83l97 389l6 29q0 12 -5 37.5t-17.5 64.5 t-43 66.5t-72.5 27.5q-63 0 -126 -66t-107 -165q-29 -74 -63.5 -214.5t-34.5 -211.5zM496 1153q0 7 27 35t65 60t84 57.5t78 25.5q59 0 100 -76q20 -31 34 -43t34 -12q42 0 108 51q23 16 61 54q24 24 37 24q1 -1 5 -2t6 -2q10 -7 10 -14t-27 -35t-65 -60t-84 -57.5 t-78 -25.5q-25 0 -47 14t-30.5 25t-20.5 30q-24 37 -38 49.5t-34 12.5q-8 0 -17.5 -2t-20.5 -7.5t-19.5 -9.5t-21.5 -13.5t-19.5 -14t-20.5 -15.5t-17.5 -14l-17.5 -15l-14 -12q-26 -26 -39 -26q-18 0 -18 18z" />
<glyph unicode="&#xe4;" d="M201 291q0 147 67.5 290t174.5 232.5t216 89.5q115 0 164 -121l2 2q2 13 15 39q25 41 65 41q27 0 40 -14.5t13 -34.5v-8q0 -3 -2.5 -12t-3.5 -13l-143 -571q-16 -62 -16 -109q0 -82 55 -82q43 0 74.5 56.5t62.5 185.5q11 36 16 42.5t23 6.5q27 0 27 -18q0 -4 -7.5 -36 t-22.5 -79.5t-30 -79.5q-54 -118 -147 -118q-16 0 -32.5 3t-38 12.5t-38.5 24.5t-31.5 42t-21.5 63q-126 -145 -246 -145q-104 0 -169.5 87t-65.5 224zM328 205q0 -19 2.5 -41t12 -59t34.5 -61t63 -24q55 0 115 46.5t96.5 98.5t42.5 83l97 389l6 29q0 12 -5 37.5t-17.5 64.5 t-43 66.5t-72.5 27.5q-63 0 -126 -66t-107 -165q-29 -74 -63.5 -214.5t-34.5 -211.5zM565 1217q0 41 33.5 72.5t75.5 31.5q32 0 53 -17.5t21 -56.5q0 -41 -33.5 -72.5t-75.5 -31.5q-29 0 -51.5 20t-22.5 54zM893 1217q0 41 33 72.5t75 31.5q32 0 53 -17.5t21 -56.5 q0 -41 -33 -72.5t-75 -31.5q-29 0 -51.5 20t-22.5 54z" />
<glyph unicode="&#xe5;" d="M201 291q0 147 67.5 290t174.5 232.5t216 89.5q115 0 164 -121l2 2q2 13 15 39q25 41 65 41q27 0 40 -14.5t13 -34.5v-8q0 -3 -2.5 -12t-3.5 -13l-143 -571q-16 -62 -16 -109q0 -82 55 -82q43 0 74.5 56.5t62.5 185.5q11 36 16 42.5t23 6.5q27 0 27 -18q0 -4 -7.5 -36 t-22.5 -79.5t-30 -79.5q-54 -118 -147 -118q-16 0 -32.5 3t-38 12.5t-38.5 24.5t-31.5 42t-21.5 63q-126 -145 -246 -145q-104 0 -169.5 87t-65.5 224zM328 205q0 -19 2.5 -41t12 -59t34.5 -61t63 -24q55 0 115 46.5t96.5 98.5t42.5 83l97 389l6 29q0 12 -5 37.5t-17.5 64.5 t-43 66.5t-72.5 27.5q-63 0 -126 -66t-107 -165q-29 -74 -63.5 -214.5t-34.5 -211.5zM639 1217q0 84 73 153.5t160 69.5q67 0 105.5 -39t38.5 -98q0 -86 -73 -155t-159 -69q-69 0 -107 39.5t-38 98.5zM707 1212q0 -75 92 -75q42 0 73.5 21.5t46.5 52t22 55.5t7 41 q0 75 -90 75q-95 0 -131 -86q-17 -35 -20 -84z" />
<glyph unicode="&#xe6;" horiz-adv-x="1433" d="M188 203q0 13 1.5 29.5t15 63t37.5 91t75.5 107t121.5 119.5t183.5 121t254.5 118q8 34 34 45q12 6 27 6q45 0 45 -45q0 -34 -14 -67q49 44 123 78t151 34q89 0 143 -49t54 -121q0 -53 -22 -95.5t-53.5 -68.5t-80 -45.5t-87.5 -28.5t-90 -14t-74 -5.5t-52 -0.5h-92 q-29 -117 -29 -205q0 -63 15 -116.5t54 -93.5t97 -40q77 0 163.5 51t156.5 156q2 3 4.5 5.5l4 4t2.5 3.5t2 2.5t2 1.5t2 1.5t2 0.5h3q10 0 19.5 -10t9.5 -21q0 -12 -28.5 -48.5t-75 -79t-120 -75t-149.5 -32.5q-83 0 -139.5 45.5t-81.5 103.5l-25 -96q-17 -53 -61 -53 q-23 0 -35 13.5t-12 29.5q0 3 3.5 20t9 40.5t7.5 35.5q-23 -25 -31 -34t-36.5 -34t-49.5 -37t-53.5 -23t-64.5 -11q-112 0 -189.5 61.5t-77.5 161.5zM326 152q0 -68 41.5 -100t93.5 -32q48 0 98.5 35.5t87 83.5t61 91t29.5 65l125 506q-132 -56 -238.5 -142t-169 -176 t-95.5 -175.5t-33 -155.5zM901 516h57q40 0 77 2.5t87.5 9.5t91.5 22.5t78 38.5t57.5 60.5t20.5 85.5q0 56 -34.5 91.5t-94.5 35.5q-43 0 -91.5 -20t-97 -60t-89.5 -109t-62 -157z" />
<glyph unicode="&#xe7;" horiz-adv-x="921" d="M156 -373q0 18 12 21q14 2 68 2q18 0 32.5 0.5t43 3t50.5 7t48.5 14t44 22.5t29.5 33.5t12 46.5q0 32 -23 51.5t-43 24t-35 4.5q-24 0 -24 20q0 3 12 57t16 68q-80 33 -127 113t-47 196q0 148 74 286t192 222t242 84q92 0 151.5 -49.5t59.5 -122.5q0 -38 -11.5 -64 t-29.5 -36.5t-31 -14.5t-24 -4q-21 0 -42.5 14.5t-21.5 47.5q0 36 29 62t68 28q-9 33 -32 55.5t-50.5 30t-42 10t-25.5 2.5q-67 0 -136 -50.5t-122 -141.5q-46 -81 -81.5 -221t-35.5 -216q0 -95 42 -154t118 -59q88 0 189.5 51.5t177.5 153.5q19 21 24 21q10 0 19.5 -10 t9.5 -21q0 -9 -18.5 -34.5t-56.5 -60t-86.5 -65.5t-117.5 -53t-141 -22q-12 -63 -20 -93q1 0 10 -2.5t14.5 -4t17 -5t19 -8t18 -10.5t17.5 -14t13.5 -17.5t9.5 -22t3 -26.5q0 -31 -11 -56t-35 -42.5t-48 -30t-63.5 -20t-68 -12.5t-74.5 -6.5t-70.5 -2t-67.5 -0.5 q-24 0 -24 20z" />
<glyph unicode="&#xe8;" horiz-adv-x="921" d="M233 334q0 104 31.5 197t83 159.5t116.5 115.5t133.5 73t133.5 24q89 0 143 -49t54 -121q0 -53 -22.5 -95.5t-54.5 -68.5t-81 -45.5t-88 -28.5t-89.5 -14t-72.5 -5.5t-49 -0.5h-74q-35 -122 -35 -227q0 -24 3 -49.5t12.5 -59t25.5 -58.5t45.5 -43t67.5 -18 q88 0 189.5 51.5t177.5 153.5q19 21 24 21q10 0 19.5 -10t9.5 -21q0 -10 -19 -35.5t-57.5 -59.5t-87.5 -65.5t-118 -53t-140 -21.5q-129 0 -205 99t-76 255zM410 516h43q24 0 44 0.5t64.5 5t79.5 12t78 23.5t71 38.5t48 58.5t20 81q0 56 -34.5 91.5t-94.5 35.5q-18 0 -40 -4 t-64 -24.5t-78.5 -54.5t-75 -102.5t-61.5 -160.5zM571 1370q10 23 34.5 39t47.5 16q14 0 33 -14q2 -2 5.5 -7t4.5 -7l144 -301q12 -19 4 -27q-6 -11 -20.5 -21t-22.5 -10q-18 0 -21 13l-198 258q-28 28 -11 61z" />
<glyph unicode="&#xe9;" horiz-adv-x="921" d="M233 334q0 104 31.5 197t83 159.5t116.5 115.5t133.5 73t133.5 24q89 0 143 -49t54 -121q0 -53 -22.5 -95.5t-54.5 -68.5t-81 -45.5t-88 -28.5t-89.5 -14t-72.5 -5.5t-49 -0.5h-74q-35 -122 -35 -227q0 -24 3 -49.5t12.5 -59t25.5 -58.5t45.5 -43t67.5 -18 q88 0 189.5 51.5t177.5 153.5q19 21 24 21q10 0 19.5 -10t9.5 -21q0 -10 -19 -35.5t-57.5 -59.5t-87.5 -65.5t-118 -53t-140 -21.5q-129 0 -205 99t-76 255zM410 516h43q24 0 44 0.5t64.5 5t79.5 12t78 23.5t71 38.5t48 58.5t20 81q0 56 -34.5 91.5t-94.5 35.5q-18 0 -40 -4 t-64 -24.5t-78.5 -54.5t-75 -102.5t-61.5 -160.5zM612 1069q0 10 19 27l293 301q12 8 18 14q23 14 39 14q23 0 39 -16t16 -39q0 -32 -41 -61l-327 -258q-13 -13 -27 -13q-8 0 -18.5 10t-10.5 21z" />
<glyph unicode="&#xea;" horiz-adv-x="921" d="M233 334q0 104 31.5 197t83 159.5t116.5 115.5t133.5 73t133.5 24q89 0 143 -49t54 -121q0 -53 -22.5 -95.5t-54.5 -68.5t-81 -45.5t-88 -28.5t-89.5 -14t-72.5 -5.5t-49 -0.5h-74q-35 -122 -35 -227q0 -24 3 -49.5t12.5 -59t25.5 -58.5t45.5 -43t67.5 -18 q88 0 189.5 51.5t177.5 153.5q19 21 24 21q10 0 19.5 -10t9.5 -21q0 -10 -19 -35.5t-57.5 -59.5t-87.5 -65.5t-118 -53t-140 -21.5q-129 0 -205 99t-76 255zM410 516h43q24 0 44 0.5t64.5 5t79.5 12t78 23.5t71 38.5t48 58.5t20 81q0 56 -34.5 91.5t-94.5 35.5q-18 0 -40 -4 t-64 -24.5t-78.5 -54.5t-75 -102.5t-61.5 -160.5zM446 1069q-10 14 7 31l340 295q18 15 30 0l193 -295q12 -15 -5.5 -31t-31.5 -2l-199 203l-305 -203q-19 -12 -29 2z" />
<glyph unicode="&#xeb;" horiz-adv-x="921" d="M233 334q0 104 31.5 197t83 159.5t116.5 115.5t133.5 73t133.5 24q89 0 143 -49t54 -121q0 -53 -22.5 -95.5t-54.5 -68.5t-81 -45.5t-88 -28.5t-89.5 -14t-72.5 -5.5t-49 -0.5h-74q-35 -122 -35 -227q0 -24 3 -49.5t12.5 -59t25.5 -58.5t45.5 -43t67.5 -18 q88 0 189.5 51.5t177.5 153.5q19 21 24 21q10 0 19.5 -10t9.5 -21q0 -10 -19 -35.5t-57.5 -59.5t-87.5 -65.5t-118 -53t-140 -21.5q-129 0 -205 99t-76 255zM410 516h43q24 0 44 0.5t64.5 5t79.5 12t78 23.5t71 38.5t48 58.5t20 81q0 56 -34.5 91.5t-94.5 35.5q-18 0 -40 -4 t-64 -24.5t-78.5 -54.5t-75 -102.5t-61.5 -160.5zM514 1217q0 41 33.5 72.5t75.5 31.5q32 0 52.5 -17.5t20.5 -56.5q0 -41 -33 -72.5t-75 -31.5q-29 0 -51.5 20t-22.5 54zM842 1217q0 41 33 72.5t75 31.5q32 0 53 -17.5t21 -56.5q0 -41 -33.5 -72.5t-75.5 -31.5 q-29 0 -51 19.5t-22 54.5z" />
<glyph unicode="&#xec;" horiz-adv-x="614" d="M170 590q0 6 8 36.5t28.5 78t48 91.5t73 75.5t98.5 31.5q63 0 105 -42.5t42 -117.5q0 -42 -22 -104l-121 -332q-65 -167 -65 -227t47 -60q40 0 75 28.5t57 73t35 81.5t21 71q6 25 11.5 31t23.5 6q27 0 27 -18q0 -6 -8 -36t-28 -77.5t-47 -91.5t-72.5 -76t-98.5 -32 q-60 0 -104 39t-44 122q0 43 16 90l164 445q27 75 27 125q0 18 -1 27.5t-11.5 21.5t-32.5 12q-42 0 -77 -28.5t-57.5 -76.5t-34 -81t-20.5 -70q-6 -24 -11 -29.5t-23 -5.5q-29 0 -29 19zM418 1370q10 23 34.5 39t47.5 16q13 0 32 -14q2 -3 6 -7.5t5 -6.5l143 -301 q12 -19 4 -27q-6 -11 -20.5 -21t-22.5 -10q-17 0 -20 13l-199 258q-27 27 -10 61z" />
<glyph unicode="&#xed;" horiz-adv-x="614" d="M170 590q0 6 8 36.5t28.5 78t48 91.5t73 75.5t98.5 31.5q63 0 105 -42.5t42 -117.5q0 -42 -22 -104l-121 -332q-65 -167 -65 -227t47 -60q40 0 75 28.5t57 73t35 81.5t21 71q6 25 11.5 31t23.5 6q27 0 27 -18q0 -6 -8 -36t-28 -77.5t-47 -91.5t-72.5 -76t-98.5 -32 q-60 0 -104 39t-44 122q0 43 16 90l164 445q27 75 27 125q0 18 -1 27.5t-11.5 21.5t-32.5 12q-42 0 -77 -28.5t-57.5 -76.5t-34 -81t-20.5 -70q-6 -24 -11 -29.5t-23 -5.5q-29 0 -29 19zM459 1069q0 11 18 27l293 301q12 8 18 14q23 14 39 14q23 0 39.5 -16t16.5 -39 q0 -32 -41 -61l-328 -258q-13 -13 -27 -13q-8 0 -18 10t-10 21z" />
<glyph unicode="&#xee;" horiz-adv-x="614" d="M170 590q0 6 8 36.5t28.5 78t48 91.5t73 75.5t98.5 31.5q63 0 105 -42.5t42 -117.5q0 -42 -22 -104l-121 -332q-65 -167 -65 -227t47 -60q40 0 75 28.5t57 73t35 81.5t21 71q6 25 11.5 31t23.5 6q27 0 27 -18q0 -6 -8 -36t-28 -77.5t-47 -91.5t-72.5 -76t-98.5 -32 q-60 0 -104 39t-44 122q0 43 16 90l164 445q27 75 27 125q0 18 -1 27.5t-11.5 21.5t-32.5 12q-42 0 -77 -28.5t-57.5 -76.5t-34 -81t-20.5 -70q-6 -24 -11 -29.5t-23 -5.5q-29 0 -29 19zM292.5 1069q-10.5 14 6.5 31l340 295q19 15 31 0l192 -295q12 -15 -5.5 -31t-31.5 -2 l-198 203l-305 -203q-19 -12 -29.5 2z" />
<glyph unicode="&#xef;" horiz-adv-x="614" d="M170 590q0 6 8 36.5t28.5 78t48 91.5t73 75.5t98.5 31.5q63 0 105 -42.5t42 -117.5q0 -42 -22 -104l-121 -332q-65 -167 -65 -227t47 -60q40 0 75 28.5t57 73t35 81.5t21 71q6 25 11.5 31t23.5 6q27 0 27 -18q0 -6 -8 -36t-28 -77.5t-47 -91.5t-72.5 -76t-98.5 -32 q-60 0 -104 39t-44 122q0 43 16 90l164 445q27 75 27 125q0 18 -1 27.5t-11.5 21.5t-32.5 12q-42 0 -77 -28.5t-57.5 -76.5t-34 -81t-20.5 -70q-6 -24 -11 -29.5t-23 -5.5q-29 0 -29 19zM360 1217q0 41 33.5 72.5t75.5 31.5q32 0 53 -17.5t21 -56.5q0 -41 -33.5 -72.5 t-75.5 -31.5q-29 0 -51.5 20t-22.5 54zM688 1217q0 41 33.5 72.5t75.5 31.5q32 0 52.5 -17.5t20.5 -56.5q0 -41 -33 -72.5t-75 -31.5q-29 0 -51.5 20t-22.5 54z" />
<glyph unicode="&#xf0;" d="M197 313q0 141 77.5 280.5t203.5 228.5t257 89q122 0 183 -114q-18 253 -173 434l-190 -96q-3 -1 -6 -3t-4 -2h-6q-25 0 -25 25q0 20 23 33l168 84q-50 50 -138 100q-12 6 -12 19q0 12 11.5 23t21.5 7q102 -33 205 -104l186 94q1 0 4 1t6 1q4 0 6 2q11 0 18 -7t7 -17 q0 -23 -25 -35l-155 -78q111 -100 170 -242t59 -311q0 -36 -4.5 -83t-16.5 -120t-42 -151.5t-74 -141.5q-79 -115 -194 -182t-232 -67q-138 0 -223.5 93.5t-85.5 239.5zM332 246q0 -60 17 -105t45 -69t59 -35.5t65 -11.5q26 0 56 7.5t69 26.5t80 59.5t76 98.5 q41 75 74.5 201t33.5 209q0 101 -45 172t-135 71q-82 0 -165.5 -60.5t-135.5 -168.5q-34 -72 -64 -195.5t-30 -199.5z" />
<glyph unicode="&#xf1;" horiz-adv-x="1126" d="M170 592l18 74q3 9 12.5 39.5t17.5 51t18 38.5q53 108 143 108q70 0 114.5 -47.5t49.5 -118.5q123 166 291 166q109 0 156.5 -58.5t47.5 -150.5q0 -55 -21.5 -143t-43 -151.5t-58.5 -163.5q-38 -97 -38 -154q0 -34 11.5 -48t35.5 -14q40 0 74.5 28.5t57 72.5t35.5 81.5 t21 71.5q6 25 11.5 31t23.5 6q27 0 27 -18q0 -6 -8 -36t-28 -77.5t-47.5 -91.5t-73.5 -76t-99 -32q-64 0 -106 43.5t-42 115.5q0 9 0.5 16.5t2 16t2.5 13.5t4 15t4.5 14.5t6.5 18t7 19.5q3 8 25 72.5t34.5 104.5t30 101t26.5 110.5t9 84.5q0 137 -95 137q-55 0 -107 -28 t-87 -67.5t-64 -85t-43 -78t-18 -48.5l-125 -504q-16 -71 -76 -71q-27 0 -40 14t-13 35q0 8 8 39l150 598q16 62 16 112q0 84 -53 84q-17 0 -32.5 -8.5t-28.5 -27.5t-23 -38t-20.5 -50.5t-17.5 -55t-17 -61.5q-11 -37 -15.5 -43.5t-21.5 -6.5q-29 0 -29 21zM547 1153 q0 7 27 35t65 60t84 57.5t78 25.5q59 0 100 -76q20 -31 34 -43t34 -12q42 0 108 51q27 19 62 54q24 24 37 24q1 -1 4.5 -2t5.5 -2q10 -7 10 -14t-27 -35t-65 -60t-84 -57.5t-78 -25.5q-25 0 -47 14t-30.5 25t-20.5 30q-24 37 -38 49.5t-34 12.5q-8 0 -17.5 -2t-20.5 -7.5 t-19.5 -9.5t-21.5 -13.5t-19.5 -14t-20.5 -15.5t-17.5 -14l-17.5 -15l-14 -12q-26 -26 -39 -26q-18 0 -18 18z" />
<glyph unicode="&#xf2;" d="M225 311q0 148 74 286t192 222t242 84q122 0 203.5 -89t81.5 -243q0 -110 -44.5 -219t-115 -190t-163.5 -131.5t-185 -50.5q-118 0 -201.5 87t-83.5 244zM356 233q0 -101 43.5 -157t112.5 -56q62 0 132 47.5t128 149.5q46 79 80.5 218.5t34.5 213.5q0 92 -41.5 152.5 t-116.5 60.5q-61 0 -131.5 -49.5t-124.5 -142.5q-46 -81 -81.5 -221t-35.5 -216zM623 1370q10 23 34.5 39t47.5 16q13 0 32 -14q2 -3 6 -7.5t5 -6.5l143 -301q12 -19 4 -27q-6 -11 -20.5 -21t-22.5 -10q-18 0 -21 13l-198 258q-27 27 -10 61z" />
<glyph unicode="&#xf3;" d="M225 311q0 148 74 286t192 222t242 84q122 0 203.5 -89t81.5 -243q0 -110 -44.5 -219t-115 -190t-163.5 -131.5t-185 -50.5q-118 0 -201.5 87t-83.5 244zM356 233q0 -101 43.5 -157t112.5 -56q62 0 132 47.5t128 149.5q46 79 80.5 218.5t34.5 213.5q0 92 -41.5 152.5 t-116.5 60.5q-61 0 -131.5 -49.5t-124.5 -142.5q-46 -81 -81.5 -221t-35.5 -216zM664 1069q0 11 18 27l293 301q12 8 18 14q23 14 39 14q23 0 39 -16t16 -39q0 -32 -40 -61l-328 -258q-13 -13 -27 -13q-8 0 -18 10t-10 21z" />
<glyph unicode="&#xf4;" d="M225 311q0 148 74 286t192 222t242 84q122 0 203.5 -89t81.5 -243q0 -110 -44.5 -219t-115 -190t-163.5 -131.5t-185 -50.5q-118 0 -201.5 87t-83.5 244zM356 233q0 -101 43.5 -157t112.5 -56q62 0 132 47.5t128 149.5q46 79 80.5 218.5t34.5 213.5q0 92 -41.5 152.5 t-116.5 60.5q-61 0 -131.5 -49.5t-124.5 -142.5q-46 -81 -81.5 -221t-35.5 -216zM497 1069q-10 14 7 31l340 295q18 15 30 0l193 -295q12 -15 -5.5 -31t-31.5 -2l-199 203l-305 -203q-19 -12 -29 2z" />
<glyph unicode="&#xf5;" d="M225 311q0 148 74 286t192 222t242 84q122 0 203.5 -89t81.5 -243q0 -110 -44.5 -219t-115 -190t-163.5 -131.5t-185 -50.5q-118 0 -201.5 87t-83.5 244zM356 233q0 -101 43.5 -157t112.5 -56q62 0 132 47.5t128 149.5q46 79 80.5 218.5t34.5 213.5q0 92 -41.5 152.5 t-116.5 60.5q-61 0 -131.5 -49.5t-124.5 -142.5q-46 -81 -81.5 -221t-35.5 -216zM496 1153q0 7 27 35t65 60t84 57.5t78 25.5q59 0 100 -76q20 -31 34 -43t34 -12q42 0 108 51q23 16 61 54q24 24 37 24q1 -1 5 -2t6 -2q10 -7 10 -14t-27 -35t-65 -60t-84 -57.5t-78 -25.5 q-25 0 -47 14t-30.5 25t-20.5 30q-24 37 -38 49.5t-34 12.5q-8 0 -17.5 -2t-20.5 -7.5t-19.5 -9.5t-21.5 -13.5t-19.5 -14t-20.5 -15.5t-17.5 -14l-17.5 -15l-14 -12q-26 -26 -39 -26q-18 0 -18 18z" />
<glyph unicode="&#xf6;" d="M225 311q0 148 74 286t192 222t242 84q122 0 203.5 -89t81.5 -243q0 -110 -44.5 -219t-115 -190t-163.5 -131.5t-185 -50.5q-118 0 -201.5 87t-83.5 244zM356 233q0 -101 43.5 -157t112.5 -56q62 0 132 47.5t128 149.5q46 79 80.5 218.5t34.5 213.5q0 92 -41.5 152.5 t-116.5 60.5q-61 0 -131.5 -49.5t-124.5 -142.5q-46 -81 -81.5 -221t-35.5 -216zM565 1217q0 41 33.5 72.5t75.5 31.5q32 0 53 -17.5t21 -56.5q0 -41 -33.5 -72.5t-75.5 -31.5q-29 0 -51.5 20t-22.5 54zM893 1217q0 41 33 72.5t75 31.5q32 0 53 -17.5t21 -56.5 q0 -41 -33 -72.5t-75 -31.5q-29 0 -51.5 20t-22.5 54z" />
<glyph unicode="&#xf7;" horiz-adv-x="1536" d="M283 514q0 11 4.5 18.5t8.5 11t16 5.5t16.5 2h19.5h1096q14 0 22 -0.5t19 -4t16.5 -12t5.5 -22.5t-5.5 -22t-18 -11t-18.5 -3.5t-21 -0.5h-1096q-16 0 -24.5 0.5t-19.5 4t-16 12t-5 22.5zM721 201q0 46 38.5 82t82.5 36q33 0 57.5 -18t24.5 -61q0 -49 -38.5 -84 t-82.5 -35q-37 0 -59.5 22.5t-22.5 57.5zM866 786q0 46 38.5 82.5t82.5 36.5q32 0 57 -18.5t25 -61.5q0 -49 -38.5 -83.5t-82.5 -34.5q-37 0 -59.5 22t-22.5 57z" />
<glyph unicode="&#xf8;" d="M137 -197q0 5 2 7q2 6 13 20l165 229q-81 95 -81 244q0 147 72.5 288t188.5 228.5t236 87.5q93 0 162 -55l164 225q4 4 8 10t6 8t5.5 3.5t8.5 1.5q6 0 12.5 -5t6.5 -14q0 -4 -2 -6q-4 -11 -14 -24l-164 -228q82 -95 82 -243q0 -109 -43.5 -219.5t-112.5 -195t-160 -137.5 t-182 -53t-162 56l-147 -201q-25 -33 -32 -40t-13 -7q-2 1 -6 2t-5 2q-8 3 -8 16zM346 244q0 -25 2 -39q3 -39 19 -78l489 672q-52 67 -125 67q-70 0 -134 -44.5t-108.5 -114.5t-77.5 -154t-49 -164t-16 -145zM387 84q47 -68 125 -68q84 0 158.5 64.5t122 160.5t75 202 t27.5 194q0 70 -18 119z" />
<glyph unicode="&#xf9;" horiz-adv-x="1075" d="M170 590q0 6 8 36.5t28.5 78t48 91.5t73 75.5t98.5 31.5q71 0 110 -47t39 -113q0 -38 -26 -114q-119 -318 -119 -449q0 -29 4.5 -54.5t16 -50.5t34.5 -40t56 -15q69 0 123.5 44t87.5 114q4 12 4 21v12l147 592q15 80 80 80q21 0 36 -13.5t15 -35.5q0 -10 -8 -41 l-145 -582q-17 -66 -17 -109q0 -82 56 -82q43 0 74.5 56.5t62.5 185.5q11 36 16 42.5t23 6.5q26 0 26 -18q0 -4 -7.5 -35.5t-22 -79.5t-29.5 -80q-54 -118 -148 -118q-55 0 -97.5 31.5t-59.5 90.5q-98 -122 -223 -122q-41 0 -77.5 11t-70.5 35.5t-54 72.5t-20 114 q0 111 93 367q4 11 11 31q47 131 51 172l1 20q0 59 -47 59q-120 0 -189 -256q-6 -24 -11 -29.5t-23 -5.5q-29 0 -29 19zM649 1370q10 23 34.5 39t47.5 16q14 0 33 -14q2 -2 5.5 -7t4.5 -7l144 -301q12 -19 4 -27q-6 -11 -20.5 -21t-22.5 -10q-18 0 -21 13l-199 258 q-27 27 -10 61z" />
<glyph unicode="&#xfa;" horiz-adv-x="1075" d="M170 590q0 6 8 36.5t28.5 78t48 91.5t73 75.5t98.5 31.5q71 0 110 -47t39 -113q0 -38 -26 -114q-119 -318 -119 -449q0 -29 4.5 -54.5t16 -50.5t34.5 -40t56 -15q69 0 123.5 44t87.5 114q4 12 4 21v12l147 592q15 80 80 80q21 0 36 -13.5t15 -35.5q0 -10 -8 -41 l-145 -582q-17 -66 -17 -109q0 -82 56 -82q43 0 74.5 56.5t62.5 185.5q11 36 16 42.5t23 6.5q26 0 26 -18q0 -4 -7.5 -35.5t-22 -79.5t-29.5 -80q-54 -118 -148 -118q-55 0 -97.5 31.5t-59.5 90.5q-98 -122 -223 -122q-41 0 -77.5 11t-70.5 35.5t-54 72.5t-20 114 q0 111 93 367q4 11 11 31q47 131 51 172l1 20q0 59 -47 59q-120 0 -189 -256q-6 -24 -11 -29.5t-23 -5.5q-29 0 -29 19zM690 1069q0 10 19 27l292 301q15 10 19 14q23 14 39 14q23 0 39 -16t16 -39q0 -32 -41 -61l-328 -258q-13 -13 -26 -13q-8 0 -18.5 10t-10.5 21z" />
<glyph unicode="&#xfb;" horiz-adv-x="1075" d="M170 590q0 6 8 36.5t28.5 78t48 91.5t73 75.5t98.5 31.5q71 0 110 -47t39 -113q0 -38 -26 -114q-119 -318 -119 -449q0 -29 4.5 -54.5t16 -50.5t34.5 -40t56 -15q69 0 123.5 44t87.5 114q4 12 4 21v12l147 592q15 80 80 80q21 0 36 -13.5t15 -35.5q0 -10 -8 -41 l-145 -582q-17 -66 -17 -109q0 -82 56 -82q43 0 74.5 56.5t62.5 185.5q11 36 16 42.5t23 6.5q26 0 26 -18q0 -4 -7.5 -35.5t-22 -79.5t-29.5 -80q-54 -118 -148 -118q-55 0 -97.5 31.5t-59.5 90.5q-98 -122 -223 -122q-41 0 -77.5 11t-70.5 35.5t-54 72.5t-20 114 q0 111 93 367q4 11 11 31q47 131 51 172l1 20q0 59 -47 59q-120 0 -189 -256q-6 -24 -11 -29.5t-23 -5.5q-29 0 -29 19zM523.5 1069q-10.5 14 6.5 31l340 295q19 15 31 0l193 -295q12 -15 -5.5 -31t-31.5 -2l-199 203l-305 -203q-19 -12 -29.5 2z" />
<glyph unicode="&#xfc;" horiz-adv-x="1075" d="M170 590q0 6 8 36.5t28.5 78t48 91.5t73 75.5t98.5 31.5q71 0 110 -47t39 -113q0 -38 -26 -114q-119 -318 -119 -449q0 -29 4.5 -54.5t16 -50.5t34.5 -40t56 -15q69 0 123.5 44t87.5 114q4 12 4 21v12l147 592q15 80 80 80q21 0 36 -13.5t15 -35.5q0 -10 -8 -41 l-145 -582q-17 -66 -17 -109q0 -82 56 -82q43 0 74.5 56.5t62.5 185.5q11 36 16 42.5t23 6.5q26 0 26 -18q0 -4 -7.5 -35.5t-22 -79.5t-29.5 -80q-54 -118 -148 -118q-55 0 -97.5 31.5t-59.5 90.5q-98 -122 -223 -122q-41 0 -77.5 11t-70.5 35.5t-54 72.5t-20 114 q0 111 93 367q4 11 11 31q47 131 51 172l1 20q0 59 -47 59q-120 0 -189 -256q-6 -24 -11 -29.5t-23 -5.5q-29 0 -29 19zM592 1217q0 41 33 72.5t75 31.5q32 0 53 -17.5t21 -56.5q0 -41 -33 -72.5t-75 -31.5q-29 0 -51.5 20t-22.5 54zM920 1217q0 41 33 72.5t75 31.5 q32 0 53 -17.5t21 -56.5q0 -41 -33.5 -72.5t-75.5 -31.5q-29 0 -51 19.5t-22 54.5z" />
<glyph unicode="&#xfd;" horiz-adv-x="972" d="M170 590q0 6 8 36.5t28.5 78t48 91.5t73 75.5t98.5 31.5q71 0 110 -47t39 -113q0 -38 -26 -114q-119 -318 -119 -449q0 -29 4.5 -54.5t16 -50.5t34.5 -40t56 -15q77 0 138 60t75 119l149 604q4 15 8 26t13 25t24 21.5t35 7.5q21 0 36 -13.5t15 -35.5q0 -10 -8 -41 l-199 -799q-25 -100 -87 -193t-156.5 -156t-196.5 -63q-79 0 -131.5 47.5t-52.5 124.5q0 42 12 69.5t31.5 37.5t30.5 13t22 3q29 0 46 -17t17 -42q-2 -17 -14 -45q-27 -45 -86 -47q10 -53 45.5 -78t81.5 -25q114 0 211 135q13 19 25 40t20.5 37t17.5 40.5t13.5 36t12.5 39.5 l10 35t9.5 38t8.5 33q-77 -77 -182 -77q-41 0 -77.5 11t-70.5 35.5t-54 72.5t-20 114q0 111 93 367q4 11 11 31q47 131 51 172l1 20q0 59 -47 59q-120 0 -189 -256q-6 -24 -11 -29.5t-23 -5.5q-29 0 -29 19zM639 1069q0 11 18 27l293 301q15 10 19 14q23 14 39 14 q23 0 39 -16t16 -39q0 -32 -41 -61l-328 -258q-13 -13 -26 -13q-8 0 -18.5 10t-10.5 21z" />
<glyph unicode="&#xfe;" d="M29 -377q0 14 3 22.5t10.5 12t13 4t16.5 0.5q56 0 76 14t32 62l174 698l207 830q6 30 6 34q0 11 -2 16t-10.5 11.5t-30.5 9t-59 2.5q-35 0 -41 6q-4 6 -4 15q0 14 2.5 22.5t10 12t13.5 4.5t21 2l205 18q26 2 36.5 -1.5t10.5 -16.5q0 -6 -6 -27l-146 -586q115 115 219 115 t170 -88.5t66 -222.5q0 -108 -40.5 -219.5t-105 -197.5t-148.5 -140.5t-165 -54.5q-111 0 -168 122q-98 -375 -98 -409q0 -11 7.5 -18t24.5 -9.5t29.5 -3t36.5 -0.5t31.5 -0.5t12.5 -5.5t5 -16q0 -18 -7 -27t-12.5 -9.5t-16.5 -0.5q-29 0 -92 2t-95 2q-27 0 -84 -2t-84 -2 q-24 0 -24 20zM424 215q5 -50 22 -98q36 -97 117 -97q52 0 110 49.5t109 151.5q33 75 72 225.5t39 231.5q0 84 -29.5 134t-83.5 50q-76 0 -157.5 -85.5t-96.5 -145.5l-96 -387q-6 -24 -6 -29z" />
<glyph unicode="&#xff;" horiz-adv-x="972" d="M170 590q0 6 8 36.5t28.5 78t48 91.5t73 75.5t98.5 31.5q71 0 110 -47t39 -113q0 -38 -26 -114q-119 -318 -119 -449q0 -29 4.5 -54.5t16 -50.5t34.5 -40t56 -15q77 0 138 60t75 119l149 604q4 15 8 26t13 25t24 21.5t35 7.5q21 0 36 -13.5t15 -35.5q0 -10 -8 -41 l-199 -799q-25 -100 -87 -193t-156.5 -156t-196.5 -63q-79 0 -131.5 47.5t-52.5 124.5q0 42 12 69.5t31.5 37.5t30.5 13t22 3q29 0 46 -17t17 -42q-2 -17 -14 -45q-27 -45 -86 -47q10 -53 45.5 -78t81.5 -25q114 0 211 135q13 19 25 40t20.5 37t17.5 40.5t13.5 36t12.5 39.5 l10 35t9.5 38t8.5 33q-77 -77 -182 -77q-41 0 -77.5 11t-70.5 35.5t-54 72.5t-20 114q0 111 93 367q4 11 11 31q47 131 51 172l1 20q0 59 -47 59q-120 0 -189 -256q-6 -24 -11 -29.5t-23 -5.5q-29 0 -29 19zM541 1217q0 41 33 72.5t75 31.5q32 0 53 -17.5t21 -56.5 q0 -41 -33.5 -72.5t-75.5 -31.5q-29 0 -51 19.5t-22 54.5zM868 1217q0 41 33.5 72.5t75.5 31.5q32 0 53 -17.5t21 -56.5q0 -41 -33.5 -72.5t-75.5 -31.5q-29 0 -51.5 20t-22.5 54z" />
<glyph unicode="&#x152;" horiz-adv-x="1972" d="M326 481q0 116 33 235.5t90.5 225t137 198t170 159t193 105t201.5 38.5q42 0 117 -19q96 -24 159 -24h635q35 0 43 -7.5t4 -43.5l-49 -361q-6 -36 -12 -41q-5 -4 -20 -4q-27 0 -27 21q0 18 4 34q10 80 10 144q0 33 -2 52.5t-9 45.5t-24 41.5t-44 30.5t-71 21.5t-104 6.5 h-213q-54 0 -71.5 -11t-28.5 -66l-125 -506h201q68 0 110.5 9.5t71 37t43.5 61.5t33 97q5 16 7.5 21.5t8.5 9t17 3.5h3.5h4t4.5 -0.5t5 -1t4.5 -2t3.5 -3.5t2 -5.5t1 -7.5q0 -6 -6 -27l-113 -454q-4 -19 -9 -27t-9 -9t-16 -1q-27 0 -27 20q0 3 2 14.5t2 14.5q16 62 16 98 q0 51 -34 71.5t-131 20.5h-211l-142 -571q-8 -31 -8 -41q0 -17 9 -21t53 -4h215q55 0 101 5.5t84 19.5t68 29.5t57 43.5t47.5 54.5t42.5 68.5t39 78.5t40 92.5q28 64 31 67q6 6 22 6q27 0 27 -20q-2 -2 -2 -6l-1 -7q-1 -7 -5 -12l-181 -446q-11 -24 -18 -28.5t-37 -4.5h-672 h-16.5h-16.5t-14.5 -0.5t-18.5 -2t-20 -3.5t-27.5 -5.5t-33.5 -8.5q-105 -23 -150 -23q-200 0 -327 146.5t-127 377.5zM498 451q0 -206 81 -329.5t216 -123.5q75 0 123.5 27.5t89.5 105t79 223.5l166 666q41 146 41 252q0 20 -0.5 30t-8.5 32t-22.5 34t-45 22.5t-74.5 10.5 q-87 0 -180 -50.5t-175 -142t-147.5 -208t-104 -261t-38.5 -288.5z" />
<glyph unicode="&#x153;" horiz-adv-x="1433" d="M221 289q0 148 68.5 292.5t176.5 235t216 90.5q152 0 213 -184q48 54 99.5 92t98 55.5t82 25t68.5 7.5q89 0 143 -49t54 -121q0 -53 -22 -95.5t-54 -68.5t-81 -45.5t-88 -28.5t-90 -14t-73.5 -5.5t-50.5 -0.5h-84q-13 -54 -17 -73t-9 -59t-5 -81q0 -65 15.5 -117.5 t52.5 -88.5t92 -36q77 0 163.5 51t156.5 156q2 3 4.5 5.5l4 4t2.5 3.5t2 2.5t2 1.5t2 1.5t2 0.5h3q10 0 19.5 -10t9.5 -21q0 -12 -28.5 -48.5t-75 -79t-120 -75t-149.5 -32.5q-49 0 -89.5 16t-65.5 38.5t-44.5 52t-29 50.5t-16.5 40q-2 7 -3 9q-57 -80 -119 -129.5 t-108 -65.5t-90 -16q-106 0 -172 86.5t-66 227.5zM348 201q0 -22 4 -48t14.5 -59.5t35 -55.5t59.5 -22q75 0 142 75t108.5 182t65.5 214t24 181q0 101 -34.5 149.5t-84.5 48.5q-64 0 -129.5 -67.5t-106.5 -167.5q-28 -62 -63 -208t-35 -222zM909 516h52q23 0 39.5 0.5t55 3 t68 8.5t69 15.5t68.5 26t55 38.5t40 54.5t14 72.5q0 56 -34.5 91.5t-94.5 35.5q-19 0 -45 -5.5t-68.5 -27t-80 -56t-76.5 -102t-62 -155.5z" />
<glyph unicode="&#x178;" horiz-adv-x="1488" d="M412 1360q0 18 7 27.5t13.5 10.5t16.5 1q31 0 99 -2t101 -2q36 0 106.5 2t106.5 2q10 0 15 -0.5t10.5 -6t5.5 -16.5q0 -14 -3 -22t-11 -11t-12 -3.5t-15 -0.5q-104 0 -104 -49q0 -6 2 -10q1 -2 1.5 -5.5t1 -5.5t1.5 -3l200 -631l461 563q51 60 51 96q0 40 -59 45 q-23 0 -23 21q0 18 6.5 27.5t12.5 10.5t16 1q27 0 84 -2t84 -2q25 0 76 2t74 2q8 0 12 -2q12 -3 12 -19q0 -24 -8.5 -30.5t-28.5 -8.5q-74 -8 -131.5 -42t-132.5 -126l-487 -593q-11 -13 -15 -21.5t-12 -36.5q-22 -93 -32 -130.5t-31 -125.5q-39 -139 -39 -170q0 -14 4 -20 t29 -10.5t79 -4.5h10q16 0 23 -0.5t12 -5t5 -14.5q0 -18 -7.5 -27.5t-14 -10.5t-17.5 -1q-36 0 -111.5 2t-112.5 2q-36 0 -109.5 -2t-109.5 -2h-3.5h-4t-4.5 0.5t-5 1t-4.5 2t-3.5 3.5t-2 5.5t-1 7.5q0 19 6.5 27.5t14 10t24.5 1.5q92 0 120.5 13.5t40.5 58.5 q0 4 53.5 213.5t53.5 214.5q0 4 -1.5 9.5t-3.5 12t-3 9.5l-219 686q-12 38 -37 50.5t-94 12.5h-5q-13 0 -18.5 0.5t-10.5 5.5t-5 15zM856 1577q0 41 33.5 72.5t75.5 31.5q33 0 53.5 -17.5t19.5 -55.5q0 -41 -33 -73t-75 -32q-29 0 -51.5 20t-22.5 54zM1245 1577 q0 41 33.5 72.5t75.5 31.5q33 0 53.5 -17.5t19.5 -55.5q0 -41 -33 -73t-75 -32q-29 0 -51.5 20t-22.5 54z" />
<glyph unicode="&#x2c6;" d="M497 1069q-10 14 7 31l340 295q18 15 30 0l193 -295q12 -15 -5.5 -31t-31.5 -2l-199 203l-305 -203q-19 -12 -29 2z" />
<glyph unicode="&#x2dc;" d="M496 1153q0 7 27 35t65 60t84 57.5t78 25.5q59 0 100 -76q20 -31 34 -43t34 -12q42 0 108 51q23 16 61 54q24 24 37 24q1 -1 5 -2t6 -2q10 -7 10 -14t-27 -35t-65 -60t-84 -57.5t-78 -25.5q-25 0 -47 14t-30.5 25t-20.5 30q-24 37 -38 49.5t-34 12.5q-8 0 -17.5 -2 t-20.5 -7.5t-19.5 -9.5t-21.5 -13.5t-19.5 -14t-20.5 -15.5t-17.5 -14l-17.5 -15l-14 -12q-26 -26 -39 -26q-18 0 -18 18z" />
<glyph unicode="&#x2000;" horiz-adv-x="922" />
<glyph unicode="&#x2001;" horiz-adv-x="1845" />
<glyph unicode="&#x2002;" horiz-adv-x="922" />
<glyph unicode="&#x2003;" horiz-adv-x="1845" />
<glyph unicode="&#x2004;" horiz-adv-x="615" />
<glyph unicode="&#x2005;" horiz-adv-x="461" />
<glyph unicode="&#x2006;" horiz-adv-x="307" />
<glyph unicode="&#x2007;" horiz-adv-x="307" />
<glyph unicode="&#x2008;" horiz-adv-x="230" />
<glyph unicode="&#x2009;" horiz-adv-x="369" />
<glyph unicode="&#x200a;" horiz-adv-x="102" />
<glyph unicode="&#x2010;" horiz-adv-x="716" d="M174 410q0 26 16 63q4 17 12 20t40 3h389h7q17 0 24 -0.5t12.5 -5.5t5.5 -15q0 -26 -16 -63q-4 -17 -12 -20t-40 -3h-389h-7q-17 0 -24 0.5t-12.5 5.5t-5.5 15z" />
<glyph unicode="&#x2011;" horiz-adv-x="716" d="M174 410q0 26 16 63q4 17 12 20t40 3h389h7q17 0 24 -0.5t12.5 -5.5t5.5 -15q0 -26 -16 -63q-4 -17 -12 -20t-40 -3h-389h-7q-17 0 -24 0.5t-12.5 5.5t-5.5 15z" />
<glyph unicode="&#x2012;" horiz-adv-x="716" d="M174 410q0 26 16 63q4 17 12 20t40 3h389h7q17 0 24 -0.5t12.5 -5.5t5.5 -15q0 -26 -16 -63q-4 -17 -12 -20t-40 -3h-389h-7q-17 0 -24 0.5t-12.5 5.5t-5.5 15z" />
<glyph unicode="&#x2013;" d="M188 545q0 4 0.5 7t2.5 5t3 3.5t4.5 2.5t5.5 1.5t7 0.5h8h9.5h9.5h819h9.5h8.5h7t6.5 -0.5t5.5 -1t4.5 -1.5t3 -2.5t2.5 -3.5t1.5 -5t0.5 -6q0 -15 -9 -18t-33 -3h-7h-819h-7q-18 0 -25 0.5t-12.5 5.5t-5.5 15z" />
<glyph unicode="&#x2014;" horiz-adv-x="2048" d="M240 545q0 4 0.5 7t2 5t3 3.5t5 2.5t5.5 1.5t7 0.5h7.5h9h9.5h1741h9.5h8.5h7t6.5 -0.5t5.5 -1t4.5 -1.5t3 -2.5t2.5 -3.5t1.5 -5t0.5 -6q0 -15 -9 -18t-33 -3h-7h-1741h-7q-17 0 -24 0.5t-12.5 5.5t-5.5 15z" />
<glyph unicode="&#x2018;" horiz-adv-x="614" d="M426 946q0 67 25.5 139.5t63.5 129.5t78 104.5t71.5 73.5t42.5 26q7 0 12.5 -6.5t5.5 -13.5q0 -5 -15 -19l-18 -18q-27 -23 -55.5 -53.5t-63.5 -77.5t-62.5 -110.5t-39.5 -131.5q12 12 17 16.5t24.5 11.5t44.5 7q33 0 57.5 -19.5t24.5 -58.5q0 -48 -36 -84.5t-85 -36.5 q-92 0 -92 121z" />
<glyph unicode="&#x2019;" horiz-adv-x="614" d="M449 848q0 9 22 26q30 25 59.5 56t65 79t64 112.5t42.5 135.5q-9 -11 -16.5 -16.5t-25.5 -11.5t-44 -6q-81 0 -81 77q0 45 34 83t88 38q91 0 91 -118q0 -68 -26.5 -141.5t-64.5 -131t-78 -105t-70.5 -73t-39.5 -25.5q-20 0 -20 21z" />
<glyph unicode="&#x201a;" horiz-adv-x="614" d="M131 -375q0 9 23 27q30 25 59.5 56t65 79t64 112.5t42.5 135.5q-10 -11 -17 -17t-25 -12t-44 -6q-40 0 -61 21t-21 57q0 45 34.5 83t88.5 38q90 0 90 -119q0 -68 -26 -141.5t-64 -131t-78.5 -104.5t-70.5 -72.5t-39 -25.5q-21 0 -21 20z" />
<glyph unicode="&#x201c;" horiz-adv-x="972" d="M426 946q0 67 25.5 139.5t63.5 129.5t78 104.5t71.5 73.5t42.5 26q7 0 12.5 -6.5t5.5 -13.5q0 -5 -15 -19l-18 -18q-27 -23 -55.5 -53.5t-63.5 -77.5t-62.5 -110.5t-39.5 -131.5q12 12 17 16.5t24.5 11.5t44.5 7q33 0 57.5 -19.5t24.5 -58.5q0 -48 -36 -84.5t-85 -36.5 q-92 0 -92 121zM784 946q0 67 25.5 139.5t63.5 129.5t78 104.5t71.5 73.5t42.5 26q7 0 12.5 -6.5t5.5 -13.5q0 -5 -32 -37q-28 -23 -56 -53.5t-63.5 -77.5t-63 -110.5t-39.5 -131.5q12 12 17 16.5t24.5 11.5t44.5 7q33 0 57.5 -19.5t24.5 -58.5q0 -48 -35.5 -84.5 t-84.5 -36.5q-28 0 -48 12t-29 31.5t-12.5 38t-3.5 39.5z" />
<glyph unicode="&#x201d;" horiz-adv-x="972" d="M451 848q0 9 22 26q188 157 232 383q-30 -34 -87 -34q-81 0 -81 77q0 45 34 83t88 38q91 0 91 -118q0 -68 -26.5 -141.5t-64.5 -131t-78 -105t-70.5 -73t-39.5 -25.5q-20 0 -20 21zM809 848q0 9 22 26q188 157 232 383q-9 -11 -16.5 -16.5t-25.5 -11.5t-44 -6 q-40 0 -61 20.5t-21 56.5q0 45 34.5 83t88.5 38q90 0 90 -118q0 -68 -26.5 -141.5t-64.5 -131t-78 -105t-70.5 -73t-39.5 -25.5q-20 0 -20 21z" />
<glyph unicode="&#x201e;" horiz-adv-x="972" d="M145 -375q0 9 23 27q30 25 59.5 56t65 79t64 112.5t42.5 135.5q-10 -11 -17 -17t-25 -12t-44 -6q-40 0 -61 21t-21 57q0 45 34.5 83t88.5 38q90 0 90 -119q0 -68 -26 -141.5t-64 -131t-78.5 -104.5t-70.5 -72.5t-39 -25.5q-21 0 -21 20zM504 -375q0 10 22 27 q188 157 232 383q-10 -11 -17 -17t-25 -12t-44 -6q-40 0 -61 21t-21 57q0 45 34.5 83t88.5 38q90 0 90 -119q0 -68 -26.5 -141.5t-64.5 -131t-78 -104.5t-70.5 -72.5t-39.5 -25.5q-20 0 -20 20z" />
<glyph unicode="&#x2022;" horiz-adv-x="1536" d="M590 430q0 90 53.5 172t136 130t166.5 48q42 0 81.5 -12t77 -37.5t60.5 -73.5t23 -112q0 -95 -55.5 -177.5t-137 -127.5t-164.5 -45q-107 0 -174 67t-67 168z" />
<glyph unicode="&#x2026;" horiz-adv-x="1347" d="M231 80q0 46 38.5 82.5t82.5 36.5q32 0 57 -18.5t25 -61.5q0 -49 -38.5 -84t-82.5 -35q-37 0 -59.5 22.5t-22.5 57.5zM598 80q0 46 38.5 82.5t82.5 36.5q32 0 57 -18.5t25 -61.5q0 -49 -38.5 -84t-82.5 -35q-37 0 -59.5 22.5t-22.5 57.5zM965 80q0 46 38 82.5t82 36.5 q32 0 57 -18.5t25 -61.5q0 -49 -38 -84t-82 -35q-37 0 -59.5 22.5t-22.5 57.5z" />
<glyph unicode="&#x202f;" horiz-adv-x="369" />
<glyph unicode="&#x2039;" horiz-adv-x="716" d="M328 496q0 6 6 12q234 209 383 473q3 8 14 8h8q17 0 17 -16q0 -4 -2 -6q-131 -272 -301 -475q72 -217 63 -476q0 -16 -16 -16h-8q-17 0 -17 16q-15 260 -143 469q-1 3 -3 6z" />
<glyph unicode="&#x203a;" horiz-adv-x="716" d="M209 16q0 5 2 7q116 252 299 475q-70 224 -61 477q0 14 16 14h8q16 0 16 -14q15 -257 144 -471q2 -2 2 -8q0 -9 -4 -13q-232 -207 -383 -475q-3 -8 -15 -8h-8q-16 0 -16 16z" />
<glyph unicode="&#x205f;" horiz-adv-x="461" />
<glyph unicode="&#x20ac;" horiz-adv-x="1155" d="M245 567.5q-3 6.5 1 14.5l12 24q9 12 18 12h86q9 39 17 82q22 74 24 82h-92q-8 0 -11 7t1 14l12 24q10 13 19 13h92q78 212 240 383q97 101 208 160t224 59q125 0 188 -96l92 90q6 6 15 6h6q15 0 12 -17l-80 -323q-10 -17 -20 -17h-21q-14 0 -14 15q18 119 -27 201.5 t-145 82.5q-88 0 -172.5 -53t-155.5 -141q-112 -135 -180 -350h553q22 0 12 -17l-14 -28q-7 -13 -19 -13h-548l-23 -82l-18 -82h497q23 0 13 -16l-15 -29q-6 -12 -20 -12h-488q-41 -217 4 -352q26 -88 85 -141.5t147 -53.5q99 0 187.5 84.5t127.5 200.5q3 14 19 14h20 q15 0 12 -16l-79 -324q-3 -16 -21 -16h-6q-9 0 -12 6l-45 90q-117 -96 -240 -96q-112 0 -193.5 59.5t-128.5 159.5q-72 163 -47 385h-98q-8 0 -11 6.5z" />
<glyph unicode="&#x2122;" horiz-adv-x="1937" d="M356 1139l2 14l76 227q4 13 9.5 16t25.5 3h616h4q12 0 16 -0.5t6.5 -3t2.5 -9.5v-2l-1 -4q-1 -4 -1 -8l-37 -223q-1 -3 -2 -8q-3 -11 -5 -13t-11 -2q-19 0 -19 13l2 14q15 45 15 119q0 59 -35 75.5t-123 16.5q-58 0 -66 -2q-17 -3 -26 -43l-166 -670q-4 -9 -4 -20 q0 -13 8 -17t29 -6q36 -4 59 -4h14q19 0 25 -2t6 -12q0 -11 -4.5 -15.5t-7.5 -5t-14 -0.5l-179 2l-174 -2h-7.5t-5.5 1t-5.5 4t-1.5 8q0 16 6.5 19t26.5 3h14q75 0 96 11t29 46l166 666q6 6 6 25q0 7 -0.5 8.5t-7 3.5t-21.5 2h-41q-54 0 -86.5 -5t-58.5 -16t-44 -37.5 t-33 -60.5t-34 -94q-7 -19 -10 -22t-14 -3q-7 0 -9 2q-6 3 -6 11zM1016 580q0 10 4 15.5t6.5 6t7.5 0.5q92 0 117 88l160 641q2 6 2 19q0 4 -1 7t-3.5 5t-5 3.5t-7 2.5t-8 1.5t-9.5 0.5h-9.5h-10.5h-10h-8q-15 0 -19.5 1.5t-4.5 10.5q0 16 6.5 19.5t25.5 3.5h150 q23 0 27 -3.5t6 -23.5l65 -696l418 704q11 14 17 16.5t26 2.5h143q25 0 27 -4q2 -2 2 -8q0 -16 -6 -19.5t-25 -3.5q-55 0 -70.5 -9.5t-23.5 -41.5l-170 -678q-2 -2 -2 -18q0 -7 2 -10.5t18 -7t48 -3.5h6q9 0 12.5 -0.5t6.5 -3t3 -8.5q0 -11 -4.5 -16.5t-8 -6t-9.5 -0.5 l-133 2q-22 0 -65 -1t-64 -1q-7 0 -9 2q-6 3 -6 11q0 16 6.5 19t26.5 3q54 0 69 9.5t23 43.5l176 701h-2l-456 -768q-12 -21 -27 -21q-12 0 -16 4.5t-5 22.5l-71 754l-166 -664q-1 -1 -2 -4.5t-2 -5.5q-2 -4 -2 -21q0 -28 18.5 -38.5t52.5 -12.5q17 0 17 -12q0 -11 -4 -16.5 t-7.5 -6t-9.5 -0.5q-17 0 -53.5 1t-56.5 1q-17 0 -54 -1t-55 -1q-14 0 -14 13z" />
<glyph unicode="&#xe000;" horiz-adv-x="901" d="M0 0v901h901v-901h-901z" />
<glyph unicode="&#xfb01;" horiz-adv-x="1126" d="M-55 -291q0 48 28 76.5t66 28.5q27 0 45 -16t18 -44q0 -9 -3 -20t-10.5 -26t-25.5 -27.5t-45 -18.5q27 -39 86 -39q25 0 45.5 15t34 44t20.5 50t15 53q33 109 64 274l149 764h-121h-7q-17 0 -24 0.5t-12.5 5.5t-5.5 15q0 19 7 27.5t16 10t30 1.5h129l39 200 q38 198 144 278.5t291 80.5q17 0 31.5 -0.5t45.5 -3.5t55 -8t53.5 -16t49.5 -25.5t33.5 -38.5t13.5 -54q0 -48 -28 -77t-66 -29q-33 0 -49.5 18t-16.5 41q0 27 21 56t63 36q-48 60 -204 60q-52 0 -93 -8.5t-70 -21t-52.5 -38.5t-37.5 -47.5t-26.5 -62t-19.5 -69.5t-17 -81 q-10 -57 -37 -190h482q27 0 36 -3t9 -16l-162 -653q-17 -74 -17 -109q0 -82 56 -82q43 0 74.5 56.5t62.5 185.5q11 36 16 42.5t23 6.5q27 0 27 -18q0 -4 -7.5 -36t-22.5 -79.5t-30 -79.5q-54 -118 -147 -118q-73 0 -118.5 49.5t-45.5 130.5q0 32 10 73l148 590h-404 l-127 -653q-27 -133 -56 -232.5t-68 -183.5t-90 -128t-112 -44q-66 0 -112.5 34.5t-46.5 92.5z" />
<glyph unicode="&#xfb02;" horiz-adv-x="1177" d="M-55 -291q0 48 28 76.5t66 28.5q27 0 45 -16t18 -44q0 -9 -3 -20t-10.5 -26t-25.5 -27.5t-45 -18.5q27 -39 86 -39q25 0 45.5 15t34 44t20.5 50t15 53q33 109 64 274l149 764h-121h-7q-17 0 -24 0.5t-12.5 5.5t-5.5 15q0 19 7 27.5t16 10t30 1.5h129l41 211 q33 176 127.5 262t274.5 86q233 0 246 -125h2l16 65q7 29 14.5 34t38.5 5h31q19 0 26.5 -0.5t13 -4.5t5.5 -13l-4 -27l-293 -1165q-16 -62 -16 -109q0 -82 55 -82q43 0 74.5 56.5t62.5 185.5q11 36 16 42.5t23 6.5q27 0 27 -18q0 -4 -7.5 -36t-22.5 -79.5t-30 -79.5 q-54 -118 -147 -118q-73 0 -118.5 49.5t-45.5 130.5q0 32 10 73l148 590h-455l-127 -653q-27 -133 -56 -232.5t-68 -183.5t-90 -128t-112 -44q-66 0 -112.5 34.5t-46.5 92.5zM567 883h459l92 368h-2q-31 -41 -78 -41q-27 0 -45 16t-18 44q0 34 22 59t54 33q-55 39 -164 39 q-33 0 -62 -5t-50.5 -11.5t-40 -20t-31 -24t-24.5 -30.5t-18 -32t-14 -36.5t-11 -35.5t-9 -37q-11 -45 -29.5 -143t-30.5 -143z" />
<glyph unicode="&#xfb03;" horiz-adv-x="1767" d="M-55 -291q0 48 28 76.5t66 28.5q27 0 45 -16t18 -44q0 -9 -3 -20t-10.5 -26t-25.5 -27.5t-45 -18.5q30 -39 88 -39q17 0 32 7t26.5 23t20 29.5t17 38.5t12.5 38.5t11 39.5q43 167 66 297l141 727h-121h-7q-17 0 -24 0.5t-12.5 5.5t-5.5 15q0 19 7 27.5t16 10t30 1.5h129 l45 225q9 36 16.5 62.5t23 64t34 64t48.5 55.5t66.5 47t88 29.5t113.5 11.5q42 0 80 -5.5t76 -19t60.5 -40t22.5 -64.5q0 -44 -27.5 -73.5t-66.5 -29.5q-27 0 -45 16t-18 44q0 34 21.5 59t53.5 33q-55 39 -155 39q-27 0 -53.5 -4t-62 -16t-64.5 -39.5t-44 -67.5 q-7 -18 -15 -45.5t-14 -51.5t-15 -68t-14 -68t-15.5 -80t-14.5 -78h490l39 198q17 90 50 156t73 105t95 62t108 30.5t120 7.5q24 0 43.5 -1t59 -4.5t69 -13t60.5 -24.5t48 -41t17 -60q0 -52 -29 -80t-65 -28q-33 0 -49.5 18t-16.5 41q0 27 21 56t63 36q-56 60 -217 60 q-41 0 -74 -2.5t-61.5 -13.5t-49.5 -18.5t-40 -32t-31.5 -39.5t-26.5 -55.5t-22 -65t-20 -83t-18.5 -94.5t-20.5 -114h506q27 0 36 -3t9 -16l-162 -653q-17 -74 -17 -109q0 -82 56 -82q43 0 74.5 56.5t62.5 185.5q11 36 16 42.5t23 6.5q27 0 27 -18q0 -4 -7.5 -36 t-22.5 -79.5t-30 -79.5q-54 -118 -147 -118q-73 0 -118.5 49.5t-45.5 130.5q0 32 10 73l148 590h-431l-141 -719q-18 -93 -57 -208q-27 -78 -66.5 -137.5t-78 -92t-81.5 -52.5t-73 -26t-56 -6q-50 0 -93 11t-76 41.5t-33 76.5q0 44 27.5 73.5t66.5 29.5q27 0 45 -16t18 -44 q0 -5 -0.5 -10.5t-4.5 -19t-11 -24t-23 -21.5t-38 -15q43 -41 125 -41q15 0 30.5 3.5t29 9t27 14.5t24 17.5t21.5 19t18.5 19t15.5 19t12 16t9 12.5l5 7q9 19 18 41t17 50.5t14 50t14 57t11.5 52t11.5 55.5t10 49l138 708h-490l-127 -655q-17 -82 -33 -145.5t-38 -135 t-47 -122.5t-56 -94.5t-69.5 -66t-82.5 -22.5q-65 0 -112 34.5t-47 92.5z" />
<glyph unicode="&#xfb04;" horiz-adv-x="1792" d="M-55 -291q0 48 28 76.5t66 28.5q27 0 45 -16t18 -44q0 -9 -3 -20t-10.5 -26t-25.5 -27.5t-45 -18.5q27 -39 86 -39q21 0 39 11.5t29 26t22 43.5t16.5 47t14.5 54q24 90 62 267l145 751h-121h-7q-17 0 -24 0.5t-12.5 5.5t-5.5 15q0 19 7 27.5t16 10t30 1.5h129l41 211 q9 51 22 93.5t41 92t65.5 83t99 56.5t139.5 23q97 0 156 -34t59 -95q0 -44 -27.5 -73.5t-66.5 -29.5q-27 0 -45.5 16t-18.5 44q0 32 19.5 57t58.5 35q-48 39 -135 39q-73 0 -143 -49q-12 -11 -14.5 -13t-11 -12t-12.5 -18t-10.5 -23t-13.5 -35q-20 -58 -49 -209t-31 -159 h492l41 211q33 176 127.5 262t273.5 86q233 0 246 -125h2l16 65q7 29 15 34t39 5h30q19 0 26.5 -0.5t13 -4.5t5.5 -13l-4 -27l-293 -1165q-16 -62 -16 -109q0 -82 55 -82q43 0 75 56.5t63 185.5q11 37 15.5 43t22.5 6q27 0 27 -18q0 -4 -7.5 -35.5t-22 -79.5t-29.5 -80 q-54 -118 -148 -118q-73 0 -118.5 49.5t-45.5 130.5q0 28 11 73l147 590h-455l-122 -633q-69 -332 -150 -446q-54 -72 -127 -117t-154 -45t-141.5 32.5t-60.5 96.5q0 44 27.5 73.5t66.5 29.5q27 0 45 -16t18 -44q0 -5 -0.5 -10.5t-4.5 -19t-11 -24t-23 -21.5t-38 -15 q43 -41 122 -41q69 0 129 57.5t76 106.5q39 99 88 340l136 696h-490l-127 -653q-27 -133 -56 -232.5t-68 -183.5t-90 -128t-112 -44q-66 0 -112.5 34.5t-46.5 92.5zM1182 883h458l93 368h-2q-31 -41 -78 -41q-27 0 -45.5 16t-18.5 44q0 34 22 59t54 33q-55 39 -164 39 q-33 0 -62 -5t-50.5 -11.5t-40 -20t-31 -24t-24.5 -30.5t-18 -32t-14 -36.5t-11 -35.5t-9 -37q-11 -45 -29.5 -143t-29.5 -143z" />
</font>
</defs>
</svg>
