<?xml version="1.0" standalone="no"?>
<!DOCTYPE svg PUBLIC "-//W3C//DTD SVG 1.1//EN" "http://www.w3.org/Graphics/SVG/1.1/DTD/svg11.dtd" >
<svg xmlns="http://www.w3.org/2000/svg">
<metadata></metadata>
<defs>
<font id="legal_modernregular" horiz-adv-x="1003" >
<font-face units-per-em="2048" ascent="1651" descent="-397" />
<missing-glyph horiz-adv-x="667" />
<glyph horiz-adv-x="2048" />
<glyph horiz-adv-x="2048" />
<glyph unicode="&#xd;" horiz-adv-x="2048" />
<glyph unicode=" "  horiz-adv-x="667" />
<glyph unicode="&#x09;" horiz-adv-x="667" />
<glyph unicode="&#xa0;" horiz-adv-x="667" />
<glyph unicode="!" horiz-adv-x="557" d="M178 98q0 42 29.5 71.5t71.5 29.5q41 0 69.5 -29t28.5 -70q0 -42 -29.5 -71t-71.5 -29q-41 0 -69.5 28.5t-28.5 69.5zM178 1350q-4 57 28.5 85.5t72.5 28.5q37 0 67.5 -25t30.5 -71l-74 -956q-2 -29 -6 -36t-21 -7q-13 0 -17.5 8.5t-6.5 34.5z" />
<glyph unicode="&#x22;" horiz-adv-x="733" d="M213 1376q-1 29 17.5 47.5t48.5 18.5q29 0 47.5 -18.5t17.5 -47.5l-43 -510h-45zM389 1376q-1 29 17.5 47.5t48.5 18.5q29 0 47.5 -18.5t17.5 -47.5l-43 -510h-45z" />
<glyph unicode="#" horiz-adv-x="1671" d="M111 322q0 33 38 36h27h348l80 306h-428q-17 0 -24.5 0.5t-19 3.5t-16.5 11.5t-5 22.5q0 11 4.5 18.5t8.5 11t16 5.5t16.5 2h19.5h449l168 635q9 35 21 42q9 5 20 5q38 0 38 -39q-2 -2 -2 -8q0 -1 -1 -10.5t-5 -17.5l-159 -607h382l168 635q9 35 21 42q9 5 20 5 q39 0 39 -39q-2 -2 -2 -8q0 -1 -1 -10.5t-5 -17.5l-160 -607h326q16 0 24 -0.5t19.5 -4t17 -12t5.5 -22.5q0 -17 -10 -25.5t-20 -9.5t-30 -1h-6h-348l-80 -306h428q16 0 24 -0.5t19.5 -4t17 -12t5.5 -22.5q0 -17 -10 -25.5t-20 -9.5t-30 -1h-6h-449l-167 -633 q-9 -35 -21 -42q-9 -5 -20 -5q-39 0 -39 39q-3 3 0 8q0 9 8 28l160 605h-383l-168 -633q-9 -35 -21 -42q-8 -5 -20 -5q-39 0 -39 39q-3 3 0 8q0 9 8 28l160 605h-326q-16 0 -24 0.5t-19.5 4t-16.5 12t-5 22.5zM602 358h385l80 306h-385z" />
<glyph unicode="$" d="M111 365q0 51 25 72.5t61 21.5q37 0 60.5 -23.5t23.5 -60.5q0 -43 -26.5 -64.5t-57.5 -21.5q-15 0 -33 6q11 -62 40 -109t61.5 -73t74.5 -43.5t71.5 -23t59.5 -7.5v623q-56 15 -75 20t-56 19t-62 31.5t-51 43.5q-116 116 -116 279q0 148 101 260.5t259 124.5v96h59v-94 q88 -4 158.5 -35t114 -81.5t66 -112t22.5 -128.5q0 -51 -25 -72.5t-61 -21.5t-60 23t-24 61q0 41 26.5 63.5t59.5 22.5q17 0 29 -4q-22 105 -105 162t-201 63v-565q3 -1 24.5 -7t26 -7t24.5 -7.5t26.5 -9.5t24 -9.5t26.5 -12t24 -14t25.5 -17t23 -20t23.5 -23.5 q113 -126 113 -293q0 -159 -100 -278.5t-261 -136.5v-97h-59v95q-90 6 -161 40.5t-113.5 88.5t-64 119t-21.5 137zM207 1108q0 -18 1.5 -35t15.5 -57t39.5 -71t79.5 -63.5t128 -47.5v546q-81 -8 -143 -50.5t-91.5 -101t-29.5 -120.5zM530 41q118 12 191.5 100t73.5 201 q0 15 -2.5 33.5t-10 51.5t-26 64t-45.5 62.5t-74 55.5t-107 36v-604z" />
<glyph unicode="%" horiz-adv-x="1671" d="M111 1124q0 175 89.5 293.5t205.5 118.5q78 0 141 -63q166 -160 381 -160q238 0 383 192q10 15 13.5 19t11 8t18.5 4q14 0 25.5 -10t11.5 -29q0 -8 -17 -35l-1018 -1548q-21 -29 -39 -29q-17 0 -27.5 11t-10.5 28q0 9 16 35l913 1389l-2 2q-125 -78 -276 -78 q-161 0 -307 88q45 -114 45 -238q0 -171 -76 -291t-186 -120q-116 0 -205.5 116.5t-89.5 296.5zM229 1122q0 -100 16.5 -174t37.5 -110t50 -57t45 -25t30 -4q85 0 150 106.5t65 265.5q0 156 -63.5 263.5t-151.5 107.5q-15 0 -31 -3.5t-45 -24.5t-50 -57.5t-37 -111 t-16 -176.5zM1001 299q0 175 89.5 293.5t205.5 118.5q110 0 186.5 -119t76.5 -295q0 -171 -76.5 -291.5t-186.5 -120.5q-116 0 -205.5 117t-89.5 297zM1120 297q0 -73 8.5 -132t21.5 -96.5t31 -66t34.5 -42.5t35 -22.5t28.5 -10t19 -1.5q85 0 150 107t65 266 q0 156 -63.5 263.5t-151.5 107.5q-15 0 -31 -3.5t-44.5 -24.5t-49.5 -57.5t-37 -111t-16 -176.5z" />
<glyph unicode="&#x26;" horiz-adv-x="1560" d="M84 262q0 104 76 189l235 256q15 15 15 20l-11 35q-69 191 -69 377q0 77 24 141t63 103t86 60t95 21q34 0 62 -13.5t45.5 -33.5t30 -48.5t18.5 -52t9.5 -50.5t4 -39t0.5 -21q0 -52 -29 -118.5t-73.5 -126.5t-78.5 -100.5t-61 -67.5q87 -232 338 -555q85 106 146 206 q99 163 147 252q8 16 8 37q0 42 -38.5 66t-104.5 24v60q33 -4 233 -4l203 4v-60q-52 0 -92.5 -10t-66.5 -23.5t-52.5 -44.5t-41 -54t-40.5 -70q-20 -33 -71.5 -119.5t-71.5 -118.5t-57 -86t-72 -96q78 -88 143.5 -136.5t134.5 -48.5q54 0 104.5 24.5t87.5 79t40 128.5h45 q-4 -129 -85 -210t-200 -81q-180 0 -352 158q-168 -158 -365 -158q-146 0 -254 87.5t-108 217.5zM240 326q0 -51 12 -102t36.5 -99.5t70.5 -78.5t106 -30q173 0 311 134q-103 115 -196 255.5t-152 276.5q-14 -14 -69.5 -76t-55.5 -65q-63 -87 -63 -215zM451 1186 q0 -176 61 -348q126 143 173 237q38 74 38 129q0 25 -3.5 53.5t-14 70t-37.5 68.5t-66 27q-62 0 -106.5 -60.5t-44.5 -176.5z" />
<glyph unicode="'" horiz-adv-x="557" d="M213 1376q-1 29 17.5 47.5t48.5 18.5q29 0 47.5 -18.5t17.5 -47.5l-43 -510h-45z" />
<glyph unicode="(" horiz-adv-x="780" d="M201 510q0 377 151 678q34 70 83 138t92 112t76.5 71t43.5 27q19 0 19 -16q0 -13 -21 -29q-334 -342 -334 -981q0 -313 82.5 -560t237.5 -403q35 -35 35 -45q0 -16 -19 -16q-8 0 -29.5 15.5t-55.5 48t-71 75.5t-79 106.5t-76 133.5q-135 269 -135 645z" />
<glyph unicode=")" horiz-adv-x="780" d="M113 -498q0 13 20 29q334 337 334 981q0 313 -82.5 560t-237.5 403q-34 34 -34 45q0 16 18 16q8 0 29.5 -15.5t55.5 -48t71 -75.5t79 -106.5t76 -133.5q136 -284 136 -647q0 -368 -152 -676q-34 -70 -83 -138t-92 -112t-76.5 -71t-43.5 -27q-18 0 -18 16z" />
<glyph unicode="*" d="M131 903q0 7 1 12t3.5 9.5t4 7t7.5 6.5l7.5 5t9.5 5.5t10 5.5l287 142l-291 141q-1 1 -6.5 4t-7.5 4t-6.5 4t-6 5t-4.5 5.5t-4.5 7t-2.5 8.5t-1 11q0 25 15 40t38 15q10 0 15.5 -3t25.5 -17l254 -188l-28 331v21q-4 20 11.5 35.5t39.5 15.5q54 0 49 -72l-29 -331l254 190 q25 18 41 18q23 0 38 -15t15 -40q0 -7 -1 -12t-3.5 -9.5t-4 -7t-7.5 -6.5l-7.5 -5t-9.5 -5.5t-10 -5.5l-286 -141l290 -142q1 -1 6.5 -4t7.5 -4t6.5 -4t6 -5t4.5 -5.5t4.5 -7t2.5 -8.5t1 -11q0 -25 -15 -40t-38 -15q-10 0 -15.5 3t-25.5 17l-254 189l29 -332q5 -72 -49 -72 q-24 0 -39.5 15.5t-11.5 38.5v10l28 340l-254 -191q-25 -18 -41 -18q-23 0 -38 15t-15 40z" />
<glyph unicode="+" horiz-adv-x="1560" d="M111 512q0 11 4.5 18.5t8.5 11t16 5.5t16.5 2h19.5h565v565q0 16 0.5 24t4 19.5t12 17t22.5 5.5t22 -5t11 -17.5t3.5 -19t0.5 -24.5v-565h565q16 0 24 -0.5t19.5 -4t17 -12t5.5 -22.5t-5 -22t-17.5 -11t-19 -3.5t-24.5 -0.5h-565v-565q0 -16 -0.5 -24t-4 -19.5t-12 -17 t-22.5 -5.5t-22 5t-11 17.5t-3.5 19t-0.5 24.5v565h-565q-16 0 -24 0.5t-19.5 4t-16.5 12t-5 22.5z" />
<glyph unicode="," horiz-adv-x="557" d="M178 100q0 42 27.5 70.5t70.5 28.5q59 0 91 -54.5t32 -152.5q0 -66 -16.5 -130t-40 -108.5t-48.5 -79.5t-44 -52t-25 -17q-20 0 -20 20q0 9 10 19q143 153 143 348q0 3 -1 10.5t-1 11.5q-2 6 -2 17h-2q-2 0 -8 -6q-35 -25 -65 -25q-46 0 -73.5 28.5t-27.5 71.5z" />
<glyph unicode="-" horiz-adv-x="667" d="M23 387v111h532v-111h-532z" />
<glyph unicode="." horiz-adv-x="557" d="M178 100q0 39 29 69t72 30q39 0 68.5 -29t29.5 -70q0 -42 -29.5 -71t-71.5 -29q-38 0 -68 27.5t-30 72.5z" />
<glyph unicode="/" d="M111 -473q0 4 2 8l2 9q2 10 6 18l690 1929q6 18 9.5 25t12 13.5t21.5 6.5q14 0 25.5 -10t11.5 -29q0 -4 -2 -8l-2 -9q-2 -10 -6 -18l-691 -1931q-11 -32 -22 -39q-7 -4 -18 -4q-39 0 -39 39z" />
<glyph unicode="0" d="M84 655q0 168 17 275.5t61 202.5q36 81 95 134t119.5 74t125.5 21q41 0 83 -10t88.5 -32.5t89 -67t71.5 -105.5q51 -107 67.5 -223t16.5 -269q0 -304 -78 -473q-110 -225 -340 -225q-58 0 -114 17.5t-115.5 65.5t-98.5 122q-52 103 -70 216t-18 277zM240 680 q0 -304 22 -422q14 -79 43.5 -134t66.5 -80.5t67.5 -35.5t60.5 -10q32 0 63.5 10.5t67.5 36.5t65 82t43 135q23 125 23 418q0 301 -27 418q-14 62 -42 108t-62.5 69.5t-67 34.5t-63.5 11q-71 0 -138 -52.5t-90 -148.5q-15 -58 -22.5 -138t-8.5 -133t-1 -169z" />
<glyph unicode="1" d="M186 1171v60q246 0 363 131q30 0 35.5 -6.5t5.5 -42.5v-1155q0 -43 8.5 -60.5t48.5 -28t129 -10.5h64v-59q-37 4 -320 4q-286 0 -321 -4v59h63q89 0 129 10.5t49 28.5t9 60v1067q-113 -54 -263 -54z" />
<glyph unicode="2" d="M100 0v49l414 463q217 243 217 457q0 145 -76 239.5t-204 94.5q-99 0 -176.5 -64.5t-106.5 -169.5q4 2 29 2q43 0 69.5 -26.5t26.5 -69.5q0 -46 -29.5 -71t-66.5 -25q-6 0 -13 0.5t-23.5 6t-28.5 15.5t-22 31.5t-10 50.5q0 66 26 132.5t72.5 122t119.5 90t159 34.5 q181 0 302.5 -109.5t121.5 -283.5q0 -50 -8.5 -92.5t-34.5 -89.5t-51.5 -83t-84 -96t-106 -104.5t-141.5 -130.5q-26 -23 -115.5 -113t-117.5 -115h379q173 0 192 19q6 9 11.5 26.5t10.5 41.5t8.5 42t7.5 42.5t5 27.5h45l-53 -344h-748z" />
<glyph unicode="3" d="M84 289q0 55 30 80.5t72 25.5q43 0 72 -28t29 -72q0 -54 -36.5 -81t-88.5 -19q27 -64 88.5 -107.5t121.5 -59.5t115 -16q32 0 63.5 9.5t64 33.5t57 61t40 98t15.5 138q0 154 -64 247t-188 93h-94q-39 0 -43 5q-4 4 -4 16q0 13 8 16.5t35 5.5l61 6q124 0 187 99 q65 94 65 241q0 57 -14.5 101t-36 68t-50.5 39t-52.5 19.5t-47.5 4.5q-11 0 -26 -1t-53.5 -8.5t-71.5 -20.5t-70 -41.5t-59 -67.5q4 2 22 2q39 0 67 -24.5t28 -70.5q0 -44 -28.5 -68t-64.5 -24q-33 0 -63.5 22t-30.5 76q0 114 102.5 194.5t254.5 80.5q150 0 258 -80.5 t108 -200.5q0 -121 -81 -222.5t-212 -137.5q150 -25 249.5 -129t99.5 -242q0 -157 -122.5 -275t-301.5 -118q-171 0 -290.5 98t-119.5 234z" />
<glyph unicode="4" d="M55 342v59l617 957q8 12 14.5 17.5t10.5 6t14 0.5q20 0 24 -7t4 -33v-9v-932h207v-59h-207v-186q0 -43 8 -60.5t40.5 -27t105.5 -9.5h41v-59q-31 4 -268 4q-234 0 -267 -4v59h41q57 0 87.5 3.5t45.5 17t18 28.5t3 48v186h-539zM106 401h498v773z" />
<glyph unicode="5" d="M100 330q0 54 26.5 76t63.5 22q39 0 65 -24t26 -66q0 -48 -28.5 -69t-62.5 -21q-17 0 -32 6q29 -110 114.5 -176t190.5 -66q66 0 122.5 34t92.5 91q26 42 39.5 100.5t15.5 94t2 92.5q0 173 -37 258q-9 18 -15 28.5t-23.5 33.5t-34.5 36.5t-45.5 25t-59.5 11.5 q-78 0 -145.5 -35t-110.5 -98q-29 -26 -33 -27q-17 0 -20.5 8.5t-3.5 37.5v4v608q0 15 0.5 21.5t1.5 13t4.5 8.5t9.5 2h4q3 0 8 -2.5t9 -3.5q141 -58 270 -58q135 0 266 56q5 4 12.5 5t8.5 1q4 0 6 2q16 0 16 -19q0 -10 -16.5 -32t-50.5 -50.5t-78 -54t-106.5 -43.5 t-127.5 -18q-94 0 -182 31v-424q104 108 260 108q105 0 192.5 -60.5t137 -162.5t49.5 -223q0 -127 -60 -232t-159.5 -164t-214.5 -59q-82 0 -152.5 33.5t-116.5 87.5t-72 120t-26 132z" />
<glyph unicode="6" d="M84 647q0 163 46 301t121.5 226.5t169 138t191.5 49.5q125 0 190.5 -62t65.5 -149q0 -43 -23.5 -66.5t-62.5 -23.5q-40 0 -62 23.5t-22 60.5q0 84 103 84q-52 84 -187 84q-27 0 -55.5 -6t-65 -23t-69 -44t-65 -74t-55.5 -107.5t-37.5 -149.5t-14.5 -196v-56q11 26 20 45 t32.5 54t50.5 57.5t71 40.5t96 18q77 0 148.5 -33t126.5 -91.5t88 -144.5t33 -185q0 -196 -122 -328.5t-292 -132.5q-57 0 -111 17t-111.5 64.5t-100 121.5t-70 199.5t-27.5 287.5zM256 467q0 -178 39 -297q8 -20 22.5 -43.5t39 -51t63.5 -45.5t84 -18q138 0 207 133 q18 38 27 87.5t10.5 84.5t1.5 103q0 60 -1 94.5t-9 85.5t-23 86q-68 145 -203 145q-67 0 -118.5 -33.5t-81 -88t-44 -116t-14.5 -126.5z" />
<glyph unicode="7" d="M111 975l63 409h45q4 -24 16 -35.5t70 -20.5t174 -9h494v-47l-297 -426q-146 -211 -146 -680v-103q0 -106 -86 -106q-84 0 -84 104q0 109 23 224t53 199.5t71.5 171t66 127.5t49.5 79l217 312h-434q-180 0 -199 -13q-24 -18 -51 -186h-45z" />
<glyph unicode="8" d="M84 309q0 114 77 212.5t224 166.5q-111 77 -132.5 93.5t-35.5 35.5q-78 99 -78 209q0 140 105 238t258 98q146 0 253 -85t107 -216q0 -61 -23.5 -114t-65 -92.5t-78.5 -65t-85 -50.5q44 -27 67.5 -42.5t62 -43t59 -48t47 -52t40 -61.5t23 -69.5t9.5 -82.5 q0 -160 -123 -271.5t-295 -111.5q-105 0 -199 41.5t-155.5 124t-61.5 186.5zM178 309q0 -126 95.5 -211.5t228.5 -85.5q128 0 224.5 74.5t96.5 187.5q0 136 -147 224l-248 161q-107 -49 -178.5 -142.5t-71.5 -207.5zM223 1096q0 -34 12.5 -65t32 -52.5t35 -34t29.5 -20.5 l237 -156q96 52 152.5 126.5t56.5 164.5q0 107 -83 180.5t-195 73.5q-110 0 -193.5 -60.5t-83.5 -156.5z" />
<glyph unicode="9" d="M84 903q0 99 35 185.5t93.5 146t135.5 93.5t160 34q58 0 112 -18t109.5 -66t96 -123t66.5 -198.5t26 -282.5q0 -161 -43 -298.5t-114 -227.5t-161 -140.5t-186 -50.5q-133 0 -207 57.5t-74 155.5q0 41 22.5 64.5t63.5 23.5q40 0 62 -23.5t22 -60.5q0 -49 -34 -70t-54 -14 h-12q53 -78 209 -78q41 0 82.5 13.5t89 53.5t83.5 102t59.5 169.5t23.5 245.5v68q-19 -44 -40.5 -78t-53.5 -67.5t-77 -51.5t-100 -18q-77 0 -148.5 33.5t-126 92t-87.5 144.5t-33 184zM252 901q0 -62 1 -96t9 -84.5t23 -87.5q6 -15 14.5 -30.5t26.5 -37t39 -37.5t53 -27.5 t69 -11.5q65 0 116 33t81 87.5t45.5 118t15.5 130.5q0 202 -40 305q-70 150 -197 150q-53 0 -95 -19t-63 -40.5t-45 -55.5q-26 -39 -38 -93.5t-13.5 -89.5t-1.5 -114z" />
<glyph unicode=":" horiz-adv-x="557" d="M178 100q0 39 29 69t72 30q39 0 68.5 -29t29.5 -70q0 -42 -29.5 -71t-71.5 -29q-38 0 -68 27.5t-30 72.5zM178 784q0 39 29 69t72 30q39 0 68.5 -29t29.5 -70q0 -42 -29.5 -71t-71.5 -29q-38 0 -68 27.5t-30 72.5z" />
<glyph unicode=";" horiz-adv-x="557" d="M178 100q0 42 27.5 70.5t70.5 28.5q107 0 107 -203q0 -68 -15 -132.5t-36.5 -109.5t-45 -80t-40 -52t-21.5 -17q-20 0 -20 20q0 4 2 6q3 10 10 19q44 54 72 110t38 109t12.5 82t2.5 69q-25 -20 -63 -20q-46 0 -73.5 28.5t-27.5 71.5zM178 784q0 39 29 69t72 30 q39 0 68.5 -29t29.5 -70q0 -42 -29.5 -71t-71.5 -29q-38 0 -68 27.5t-30 72.5z" />
<glyph unicode="&#x3c;" horiz-adv-x="1560" d="M168 512q0 9 2 14.5t11.5 13t27.5 15.5l1108 510q25 11 29 12q2 2 6 2q39 0 39 -39q0 -9 -2 -14.5t-11.5 -13t-27.5 -15.5l-1055 -487l1055 -485q18 -8 27.5 -15.5t11.5 -13t2 -14.5q0 -39 -39 -39q-5 0 -9 2q-12 6 -26 12l-1108 510q-18 8 -27.5 16.5t-11.5 14t-2 14.5z " />
<glyph unicode="=" horiz-adv-x="1560" d="M111 322q0 33 38 36h27h1206q16 0 24 -0.5t19.5 -4t17 -12t5.5 -22.5q0 -17 -10 -25.5t-20 -9.5t-30 -1h-6h-1206q-16 0 -24 0.5t-19.5 4t-16.5 12t-5 22.5zM111 702q0 11 4.5 18.5t8.5 11t16 5.5t16.5 2h19.5h1206q16 0 24 -0.5t19.5 -4t17 -12t5.5 -22.5 q0 -17 -10 -25.5t-20 -9.5t-30 -1h-6h-1206q-17 0 -24.5 0.5t-19 3.5t-16.5 11.5t-5 22.5z" />
<glyph unicode="&#x3e;" horiz-adv-x="1560" d="M168 -20q0 9 1.5 14t11 14t28.5 17l1055 487l-1053 485q-33 17 -39 26q-4 8 -4 19q0 13 11 25t28 12q4 0 8 -2q3 -1 12 -5t15 -7l1108 -510q18 -8 27.5 -15.5t11.5 -13t2 -14.5t-2 -14.5t-11.5 -14t-27.5 -16.5l-1108 -510q-24 -10 -29 -12l-6 -2q-17 0 -28 12t-11 25z " />
<glyph unicode="?" horiz-adv-x="946" d="M111 1167q0 107 93 191t249 84q85 0 152.5 -17t109.5 -45t69.5 -65t38.5 -74.5t11 -77.5q0 -129 -111 -213q-74 -54 -127 -117t-79.5 -123.5t-38 -112.5t-11.5 -101v-76q0 -23 -1 -31.5t-6 -14t-16 -5.5q-16 0 -19 7t-3 38v98q0 110 44 238t140 227q23 23 35.5 40.5 t24.5 59t12 97.5q0 22 -0.5 37t-5.5 41t-13 44t-25.5 39.5t-41.5 34.5t-61.5 22t-84.5 9q-87 0 -162.5 -40t-109.5 -116q2 2 21 2q38 0 62 -24t24 -60q0 -43 -26.5 -64.5t-57.5 -21.5q-32 0 -59 20.5t-27 69.5zM344 100q0 39 27.5 69t72.5 30q41 0 70 -29t29 -70 q0 -42 -29.5 -71t-71.5 -29q-39 0 -68.5 27.5t-29.5 72.5z" />
<glyph unicode="@" horiz-adv-x="1560" d="M111 711q0 151 53.5 287t143 233t213 154t259.5 57q95 0 189.5 -30.5t181 -93.5t152.5 -150.5t105.5 -212t39.5 -267.5q0 -93 -7.5 -161t-28 -132t-63 -97.5t-106.5 -33.5q-68 0 -128 37.5t-71 112.5q-42 -63 -111.5 -106.5t-154.5 -43.5q-162 0 -280.5 129.5 t-118.5 317.5t118.5 317t280.5 129q27 0 55.5 -6t68.5 -22.5t82 -54t77 -91.5h69q36 0 43 -6t7 -41v-494q0 -137 73 -137q40 0 68.5 22.5t44 55.5t24 86t11 99t2.5 110q0 145 -39 268t-102.5 205t-146 140t-168 84t-169.5 26q-124 0 -238 -53.5t-198.5 -144.5t-135 -220 t-50.5 -272q0 -137 47.5 -263t129.5 -220.5t201 -151t254 -56.5q121 0 262.5 29.5t272.5 91.5q23 12 33 14.5t33 2.5h12q27 0 36 -3t9 -14q0 -21 -113.5 -61.5t-187.5 -56.5q-181 -43 -354 -43q-147 0 -275 60t-216 160.5t-138.5 233.5t-50.5 277zM512 711q0 -110 35 -203 t97.5 -148t137.5 -55q64 0 128 38.5t108 105.5q22 33 25.5 45t3.5 43v348q0 30 -3.5 40t-25.5 44q-44 73 -109 110t-127 37q-75 0 -137.5 -54.5t-97.5 -147.5t-35 -203z" />
<glyph unicode="A" horiz-adv-x="1503" d="M63 0v59q93 1 143 36.5t75 103.5l428 1224q8 26 14.5 32.5t28.5 6.5q15 0 23 -5t10.5 -10t7.5 -22l446 -1282q20 -59 55.5 -71.5t143.5 -12.5v-59q-31 4 -252 4q-233 0 -266 -4v59q155 0 155 62q0 10 -10 35l-113 321h-516l-94 -272q-10 -27 -10 -43q0 -44 36.5 -73 t100.5 -30v-59q-35 4 -209 4zM457 537h475l-238 682z" />
<glyph unicode="B" horiz-adv-x="1419" d="M88 0v59h41q73 0 105.5 9.5t40.5 27t8 60.5v1087q0 33 -3 48t-19 28t-46 16.5t-86 3.5h-41v60h715q98 0 183 -29.5t141.5 -78t89 -111t32.5 -127.5q0 -115 -94.5 -204.5t-241.5 -117.5q177 -20 285.5 -123.5t108.5 -232.5q0 -152 -128 -263.5t-321 -111.5h-770zM438 141 q0 -54 14.5 -68t79.5 -14h263q146 0 235.5 94.5t89.5 223.5q0 81 -32.5 154.5t-102.5 124.5t-164 51h-383v-566zM438 748h297q81 0 147 28t105.5 73.5t60.5 98t21 105.5q0 44 -15.5 91t-46 92t-87 74t-129.5 29h-259q-65 0 -79.5 -14t-14.5 -68v-509z" />
<glyph unicode="C" horiz-adv-x="1447" d="M111 700q0 153 56.5 291.5t151.5 237t223 156t267 57.5q109 0 209 -50t170 -137l100 162q2 3 4 7t3 5.5t3 4t2.5 3.5t2 2t2.5 1.5t2.5 1t3 0.5h4.5q15 0 17.5 -6t2.5 -29v-12v-486q0 -37 -5 -42q-6 -5 -23 -5q-5 0 -8.5 0.5t-6 1t-4 2t-3 2.5t-2.5 4.5t-1.5 5t-1.5 7 t-2 8.5q-32 224 -155.5 356.5t-288.5 132.5q-36 0 -76 -6.5t-93.5 -25.5t-102.5 -49.5t-97.5 -84t-84 -122t-57.5 -170.5t-22 -224q0 -123 22.5 -225.5t58 -172t84.5 -122.5t98 -83.5t103 -49.5t93.5 -25t75.5 -6q61 0 121.5 17t118.5 54.5t104 91t75.5 133t34.5 173.5 q0 9 1 13t6 8t16 4q16 0 19 -7t3 -28q0 -68 -22 -140t-67 -139.5t-106.5 -121t-147.5 -85.5t-183 -32q-137 0 -264.5 57t-223 154.5t-153 237t-57.5 294.5z" />
<glyph unicode="D" horiz-adv-x="1531" d="M86 0v59h41q73 0 105.5 9.5t40.5 27t8 60.5v1087q0 33 -3 48t-19 28t-46 16.5t-86 3.5h-41v60h717q125 0 239 -56.5t196.5 -151.5t131.5 -227.5t49 -277.5q0 -186 -82 -343.5t-224 -250t-310 -92.5h-717zM442 141q0 -53 15 -67.5t80 -14.5h215q120 0 212.5 48t149.5 122 q41 54 67 117.5t36 130t13 110t3 101.5q0 289 -92 434q-64 104 -163 160.5t-226 56.5h-215q-65 0 -80 -14.5t-15 -67.5v-1116z" />
<glyph unicode="E" horiz-adv-x="1363" d="M84 0v59h41q73 0 105.5 9.5t40.5 27t8 60.5v1083q0 33 -3 48t-19 28t-46 16.5t-86 3.5h-41v60h1114l53 -457h-45q-9 79 -19.5 132.5t-30 101t-46.5 76t-69 49.5t-97.5 29.5t-132.5 8.5h-272q-65 0 -80 -14.5t-15 -67.5v-499h187q74 0 117.5 11.5t66 43t29 71.5t6.5 113 h45v-538h-45q0 73 -6.5 113t-29 71.5t-66 43t-117.5 11.5h-187v-553q0 -53 15 -67.5t80 -14.5h278q74 0 130.5 9.5t99 26t74.5 47.5t53.5 64t38 86.5t27 104.5t22.5 127h45l-82 -524h-1141z" />
<glyph unicode="F" horiz-adv-x="1308" d="M84 0v59h41q73 0 105.5 9.5t40.5 27t8 60.5v1083q0 33 -3 48t-19 28t-46 16.5t-86 3.5h-41v60h1085l54 -457h-45q-9 92 -22.5 153t-39.5 111t-67.5 77t-103.5 41.5t-150 14.5h-256q-65 0 -80 -14.5t-15 -67.5v-526h181q48 0 82.5 5.5t58.5 19t38 30.5t21.5 47t10 60.5 t2.5 77.5h45v-539h-45q0 47 -2.5 77.5t-10 60.5t-21.5 47t-38 30.5t-58.5 19t-82.5 5.5h-181v-510q0 -27 2 -39.5t10.5 -27t28.5 -19.5t54 -9t88 -4h61v-59q-39 4 -311 4q-262 0 -293 -4z" />
<glyph unicode="G" horiz-adv-x="1572" d="M111 700q0 154 57 292.5t151.5 236.5t222.5 155.5t265 57.5q221 0 379 -187l100 162q2 3 4 7t3 5.5t3 4t2.5 3.5t2 2t2.5 1.5t2.5 1t3 0.5h4.5q15 0 17.5 -6t2.5 -29v-12v-486q0 -37 -5 -42q-6 -5 -23 -5h-9t-7 1.5t-4 2.5t-3 4.5t-2 4.5t-1.5 7t-2.5 9 q-16 105 -50.5 189.5t-78.5 140t-98.5 92.5t-108 53t-109.5 16q-35 0 -74 -6.5t-92 -25.5t-102 -49.5t-97.5 -84t-84 -122t-58 -170.5t-22.5 -224q0 -121 22 -222t57 -170t84 -123t98.5 -85t104 -50.5t97.5 -26.5t82 -7q19 0 42.5 2.5t63.5 9.5t75 24.5t68 43.5t52.5 70 t19.5 100v131q0 43 -8.5 60.5t-48.5 28t-129 10.5h-63v59q35 -4 299 -4q221 0 256 4v-59q-42 0 -65 -2t-40 -6t-23.5 -16t-9 -25.5t-2.5 -40.5v-359q0 -15 -0.5 -21.5t-1.5 -13t-4.5 -8.5t-9.5 -2q-13 0 -53 43t-68 90q-53 -92 -159 -135t-228 -43q-138 0 -266 57t-223 155 t-152 237t-57 294z" />
<glyph unicode="H" horiz-adv-x="1503" d="M84 0v59h41q73 0 105.5 9.5t40.5 27t8 60.5v1087q0 33 -3 48t-19 28t-46 16.5t-86 3.5h-41v60q31 -4 278 -4q244 0 277 4v-60h-41q-56 0 -86 -3.5t-46 -16.5t-19 -28t-3 -48v-485h613v485q0 33 -3 48t-19 28t-46 16.5t-86 3.5h-41v60q31 -4 279 -4q243 0 276 4v-60h-41 q-56 0 -86 -3.5t-45.5 -16.5t-18.5 -28t-3 -48v-1087q0 -43 7.5 -60.5t40 -27t105.5 -9.5h41v-59q-31 4 -278 4q-244 0 -277 -4v59h41q73 0 105.5 9.5t40.5 27t8 60.5v542h-613v-542q0 -43 8 -60.5t40.5 -27t105.5 -9.5h41v-59q-31 4 -279 4q-243 0 -276 -4z" />
<glyph unicode="I" horiz-adv-x="722" d="M74 0v59h45q59 0 91 3.5t47.5 17t18.5 28.5t3 48v1087q0 27 -2 39.5t-9.5 26.5t-25 19t-46.5 8t-77 3h-45v60q33 -4 288 -4q254 0 287 4v-60h-45q-48 0 -77 -3t-46.5 -8t-25 -19t-9.5 -26.5t-2 -39.5v-1087q0 -33 3 -48t18.5 -28.5t47.5 -17t91 -3.5h45v-59q-33 4 -289 4 q-253 0 -286 -4z" />
<glyph unicode="J" horiz-adv-x="1030" d="M104 229q0 53 30.5 79t70.5 26q50 0 76 -30t26 -71q0 -53 -37 -81q-28 -21 -64 -21q-11 0 -22 2q21 -42 53 -71.5t67 -42t60 -17t46 -4.5q86 0 146 85t60 218v940q0 26 -2.5 39t-12 27t-30 19.5t-55 9t-88.5 3.5h-63v60q35 -4 301 -4q224 0 258 4v-60q-55 0 -82 -2 t-43 -13.5t-18.5 -26t-2.5 -48.5v-944q0 -81 -32 -148.5t-84.5 -110t-116 -66t-129.5 -23.5q-132 0 -222 80.5t-90 191.5z" />
<glyph unicode="K" horiz-adv-x="1558" d="M84 0v59q133 0 164 14.5t31 86.5v1079q0 26 -1.5 41.5t-11.5 28t-19 17.5t-36.5 8.5t-51.5 4t-75 0.5v60q31 -4 278 -4q244 0 277 4v-60q-51 0 -75 -0.5t-51.5 -4t-36.5 -8.5t-19 -17.5t-11.5 -28t-1.5 -41.5v-661l625 604q35 32 47 50.5t12 41.5q0 61 -79 65v60 q31 -4 221 -4q135 0 176 4v-60q-50 -2 -87.5 -11.5t-73 -27t-83 -58t-97.5 -88t-137 -133.5l-24 -24q-16 -16 -71 -69t-72 -70l461 -690q48 -71 86.5 -90t124.5 -19v-59q-48 4 -228 4q-227 0 -258 -4v59q107 0 107 58q0 16 -7 30q-8 20 -20 37l-379 568l-244 -236v-356 q0 -72 31 -86.5t164 -14.5v-59q-31 4 -279 4q-243 0 -276 -4z" />
<glyph unicode="L" horiz-adv-x="1253" d="M84 0v59h41q73 0 105.5 9.5t40.5 27t8 60.5v1087q0 33 -3 48t-19 28t-46 16.5t-86 3.5h-41v60q31 -4 293 -4q272 0 311 4v-60h-61q-54 0 -88 -3.5t-54 -9t-28.5 -19.5t-10.5 -26.5t-2 -39.5v-1100q0 -53 15 -67.5t80 -14.5h178q73 0 132 15t98.5 39t69.5 61t47 74.5 t28.5 85.5t17.5 88.5t11 89.5q1 8 1 12h45l-53 -524h-1030z" />
<glyph unicode="M" horiz-adv-x="1837" d="M90 0v59q56 0 95 11.5t58 25.5t29 38.5t11.5 38.5t1.5 38v1032q0 33 -3 48t-19 28t-46 16.5t-86 3.5h-41v60h318q36 0 44.5 -5t18.5 -34l447 -1167l446 1165q12 30 20 35.5t43 5.5h318v-60h-41q-56 0 -86 -3.5t-46 -16.5t-19 -28t-3 -48v-1087q0 -43 8 -60.5t40.5 -27 t105.5 -9.5h41v-59q-33 4 -270 4q-238 0 -271 -4v59h41q73 0 105.5 9.5t40.5 27t8 60.5v1183h-2l-498 -1298q-16 -35 -23 -39q-5 -2 -12 -2q-11 0 -18 6t-9 11.5t-8 21.5l-493 1290h-2v-1118q0 -24 1 -38t11 -38.5t29 -38.5t58 -25.5t95 -11.5v-59q-35 4 -219 4 q-182 0 -219 -4z" />
<glyph unicode="N" horiz-adv-x="1503" d="M84 0v59q56 0 95 11.5t58 26t29 40t11.5 40t1.5 38.5v1110q-55 14 -195 14v60h313q34 0 43 -4t23 -25l711 -1081v895q0 24 -1.5 38.5t-11.5 39.5t-29 39.5t-58 26t-95 11.5v60q37 -4 219 -4q184 0 219 4v-60q-47 0 -82 -7t-55 -21t-33 -27.5t-17.5 -35t-5.5 -33t-1 -31.5 v-1172q-4 -12 -25 -12q-10 0 -15 4t-22 27l-799 1216q-28 39 -34 45v-1077q0 -18 0.5 -27.5t4 -28t10.5 -30t21 -26.5t34 -23.5t52 -14.5t72 -6v-59q-35 4 -219 4q-182 0 -219 -4z" />
<glyph unicode="O" horiz-adv-x="1560" d="M111 694q0 154 53.5 293.5t143.5 238.5t213 157.5t259 58.5q131 0 253.5 -58t213.5 -156.5t146 -238.5t55 -295q0 -202 -90.5 -372t-244.5 -267.5t-335 -97.5q-177 0 -330 96t-245 266.5t-92 374.5zM301 725q0 -151 30 -275.5t78.5 -205.5t112 -136.5t128.5 -79.5 t130 -24q62 0 125.5 23t127.5 78t113 135.5t80 206t31 278.5q0 143 -30.5 260t-79 192t-112.5 126t-128 72.5t-129 21.5q-61 0 -124 -21t-127 -72t-113.5 -125.5t-81 -192t-31.5 -261.5z" />
<glyph unicode="P" horiz-adv-x="1363" d="M86 0v59h41q73 0 105.5 9.5t40.5 27t8 60.5v1087q0 33 -3 48t-19 28t-46 16.5t-86 3.5h-41v60h690q202 0 338.5 -113.5t136.5 -265.5q0 -101 -64 -186.5t-169.5 -134t-224.5 -48.5h-347v-495q0 -43 8 -60.5t40.5 -27t105.5 -9.5h41v-59q-31 4 -279 4q-243 0 -276 -4z M442 700h285q69 0 123.5 14t89 33.5t59 52t36.5 58t18 62.5t7 54.5t1 45.5q0 29 -0.5 46t-7 54.5t-18 62.5t-36 57.5t-58.5 51.5t-88.5 33t-123.5 14h-192q-65 0 -80 -14.5t-15 -67.5v-557z" />
<glyph unicode="Q" horiz-adv-x="1560" d="M111 694q0 154 53.5 293.5t143.5 238.5t213 157.5t259 58.5q131 0 253.5 -58t213.5 -156.5t146 -238.5t55 -295q0 -120 -34 -231.5t-92 -197.5t-132.5 -151t-157.5 -102q39 -116 83 -167.5t118 -51.5q65 0 120 48t66 149q1 10 2 14t5.5 9t11.5 5q4 0 7.5 -1t5.5 -1.5 t3.5 -3.5t2 -4.5t1 -5.5t0.5 -6v-8v-8q0 -12 -0.5 -27.5t-5.5 -55t-13 -74t-26.5 -77t-43 -72.5t-64 -50.5t-88.5 -20.5q-53 0 -92.5 20.5t-63 52t-40.5 83.5t-26.5 101t-20.5 119q-1 6 -1 9q-95 -31 -193 -31q-135 0 -259 57.5t-213.5 156t-143 235t-53.5 288.5zM297 696 q0 -127 23 -234t58.5 -178.5t84 -126.5t94.5 -85t96 -47q-8 8 -20 38t-12 66q0 66 44.5 119t116.5 53q154 0 226 -223q254 178 254 618q0 145 -30 265t-78.5 199t-112.5 134t-130 79t-133 24q-64 0 -129 -23t-129 -77.5t-113 -133t-79.5 -199.5t-30.5 -268zM662 131 q0 -46 29.5 -87.5t88.5 -41.5q93 0 183 47q-20 99 -61 155t-120 56q-56 0 -88 -40t-32 -89z" />
<glyph unicode="R" horiz-adv-x="1476" d="M86 0v59h41q73 0 105.5 9.5t40.5 27t8 60.5v1087q0 33 -3 48t-19 28t-46 16.5t-86 3.5h-41v60h612q144 0 266 -50.5t191.5 -135.5t69.5 -183q0 -116 -101.5 -206t-259.5 -128q112 -31 189 -108q23 -23 37.5 -46t23.5 -57.5t12.5 -55t10.5 -73.5l20 -153q7 -48 14.5 -79.5 t22 -63t38 -47t56.5 -15.5q53 0 90.5 45t44.5 133q0 2 0.5 7t0.5 6.5t0.5 5t1 5t2 3.5t3 2.5t3.5 1.5t5 1.5t7 0.5q11 0 16 -5.5t5.5 -10.5t0.5 -15q0 -16 -4 -39.5t-16.5 -56.5t-31.5 -60t-54 -46t-80 -19q-78 0 -140 24.5t-91 53.5q-34 32 -52.5 58.5t-27 68t-9.5 71 t-1 105.5q0 119 -10 164t-60 98q-77 80 -211 80h-238v-524q0 -43 8 -60.5t40.5 -27t105.5 -9.5h41v-59q-33 4 -277 4q-243 0 -274 -4zM442 721h230q189 0 275.5 83t86.5 226q0 50 -10 92t-24.5 72t-40.5 53.5t-49 38.5t-59 25.5t-60.5 16t-65 8t-61 3t-58.5 0.5 q-103 0 -121 -2q-21 -4 -30.5 -15.5t-11 -23.5t-1.5 -41v-536z" />
<glyph unicode="S" horiz-adv-x="1114" d="M111 4v414q0 39 6 44q5 3 16 3q6 0 10 -2q9 -3 13 -14q0 -211 129 -322q126 -111 319 -111q123 0 201 89t78 210q0 87 -44 162.5t-116 110.5q-65 24 -213 57q-143 38 -183 56q-61 28 -106 79q-110 119 -110 271q0 159 113 275t280 116q83 0 170 -34t153 -118l68 125 q14 27 29 27t17.5 -6t2.5 -29v-12v-414q0 -39 -6 -44q-6 -3 -16 -3q-7 0 -11 0.5t-6 4t-3 5.5t-2.5 10t-2.5 13q-3 27 -7 51.5t-17 69.5t-30 81.5t-47.5 78.5t-69 71t-96 48t-126.5 19q-116 0 -195.5 -82t-79.5 -190q0 -95 57.5 -167t139.5 -93l225 -57q104 -29 145 -51 q59 -31 103 -84q102 -126 102 -285q0 -112 -50.5 -208t-141.5 -154t-203 -58q-125 0 -221.5 42.5t-157.5 109.5l-67 -123q-14 -26 -20 -28q-3 -1 -9 -1q-15 0 -17.5 6t-2.5 29v12z" />
<glyph unicode="T" horiz-adv-x="1447" d="M72 932l37 457h1228l37 -457h-45q-6 70 -10.5 110.5t-13.5 87.5t-20 71t-30.5 50.5t-44 38t-62 22.5t-82.5 14t-108 3q-103 0 -114 -4q-24 -6 -30.5 -21.5t-6.5 -56.5v-1089q0 -20 0.5 -28.5t4 -22.5t11 -19t21 -12.5t35.5 -10t53.5 -4.5t75.5 -2h73v-59q-45 4 -358 4 q-312 0 -356 -4v59h73q44 0 75.5 2t53.5 4.5t35.5 10t21 12.5t11 19t4 22.5t0.5 28.5v1089q0 28 -2 41t-11.5 23.5t-29.5 13.5q-11 4 -111 4q-50 0 -88.5 -2t-72 -8.5t-57.5 -13.5t-44.5 -23t-34 -29.5t-25 -41t-18 -50.5t-12.5 -63.5t-9.5 -75t-8.5 -90.5h-45z" />
<glyph unicode="U" horiz-adv-x="1503" d="M84 1339v60q31 -4 278 -4q244 0 277 4v-60h-41q-56 0 -86 -3.5t-46 -16.5t-19 -28t-3 -48v-786q0 -102 23.5 -182.5t59 -128t82.5 -78t88.5 -41.5t82.5 -11q72 0 141 31.5t124 88t88.5 144t33.5 191.5v717q0 17 -0.5 26t-4 27.5t-10.5 29.5t-21 25.5t-34 22.5t-52 14 t-72 6v60q35 -4 223 -4q186 0 221 4v-60q-194 0 -194 -125v-774q0 -62 -18.5 -128.5t-57 -130t-90.5 -113.5t-125.5 -80.5t-155.5 -30.5q-130 0 -243.5 65t-183.5 184t-70 263v774q0 33 -3 48t-19 28t-46 16.5t-86 3.5h-41z" />
<glyph unicode="V" horiz-adv-x="1503" d="M37 1339v60q34 -4 246 -4q233 0 264 4v-60q-29 0 -47.5 -1t-47 -6t-44 -18t-15.5 -34q0 -4 2 -6q1 -2 1.5 -6.5t2 -9.5t4.5 -9l404 -1065l383 1010q12 27 12 45q0 38 -32 68.5t-103 31.5v60q34 -4 209 -4l188 4v-60q-56 0 -97.5 -14.5t-64 -40t-33 -44.5t-18.5 -44 l-456 -1198q-13 -32 -20 -36.5t-25 -4.5q-22 0 -28.5 7t-14.5 32l-480 1261q-23 58 -55 70t-135 12z" />
<glyph unicode="W" horiz-adv-x="2060" d="M35 1339v60q35 -4 237 -4q227 0 260 4v-60q-157 0 -157 -61q0 -8 10 -39l328 -1020l293 914q-11 30 -22.5 67t-19.5 60.5t-14 35.5q-17 28 -45.5 35.5t-113.5 7.5v60q35 -4 237 -4q226 0 260 4v-60q-158 0 -158 -61q0 -8 7 -29l331 -1030l312 971q10 23 10 41 q0 39 -39.5 73.5t-122.5 34.5v60q33 -4 213 -4q123 0 182 4v-60q-78 -2 -123.5 -35t-70.5 -106l-385 -1202q-7 -23 -15 -31t-22 -8q-13 0 -21.5 7.5t-15.5 29.5l-342 1063l-340 -1063q-7 -22 -15.5 -29.5t-21.5 -7.5q-14 0 -22 8t-15 31l-405 1266q-17 53 -50 65t-124 12z " />
<glyph unicode="X" horiz-adv-x="1503" d="M45 0v59q65 0 116 13.5t84.5 37.5t50.5 42t34 43l344 501l-383 568q-23 35 -43 49.5t-56.5 20t-117.5 5.5v60q33 -4 250 -4q237 0 270 4v-60q-53 0 -85 -18t-32 -43q0 -13 15 -33l276 -409l246 360q20 26 20 53q0 32 -26.5 59t-83.5 31v60q33 -4 233 -4q156 0 215 4v-60 q-56 0 -102.5 -11t-74 -24t-53 -36t-35 -35.5t-24.5 -34.5l-282 -412l438 -655q34 -49 75 -60.5t142 -11.5v-59q-33 4 -252 4q-235 0 -268 -4v59q55 1 86 20.5t31 41.5q0 10 -15 29l-331 495l-301 -440q-23 -30 -23 -55q0 -32 26.5 -59.5t86.5 -31.5v-59q-31 4 -236 4 q-156 0 -215 -4z" />
<glyph unicode="Y" horiz-adv-x="1503" d="M20 1339v60q34 -4 252 -4q240 0 271 4v-60q-64 0 -95.5 -9.5t-31.5 -39.5q0 -13 16 -39l381 -616l346 563q17 25 21 35.5t4 30.5q0 36 -28.5 55.5t-74.5 19.5v60q34 -4 209 -4l191 4v-60q-167 0 -250 -133l-400 -645v-409q0 -41 7 -57.5t39.5 -26t107.5 -9.5h41v-59 q-33 4 -276 4q-244 0 -275 -4v59h41q73 0 105.5 9.5t40.5 27t8 60.5v403l-432 701q-33 54 -69.5 66.5t-148.5 12.5z" />
<glyph unicode="Z" horiz-adv-x="1224" d="M111 49l811 1290h-328q-82 0 -145 -13t-106.5 -39.5t-73 -59t-46.5 -80.5t-26 -95t-13 -110h-45l23 457h901q38 0 43 -6q6 -7 6 -23t-16 -43l-795 -1264h346q79 0 140.5 12t105 31.5t75 54t51 70t31.5 90t17.5 102.5t9.5 118h45l-32 -541h-930q-35 0 -42 7t-7 42z" />
<glyph unicode="[" horiz-adv-x="557" d="M238 -512v2048h274v-76h-199v-1896h199v-76h-274z" />
<glyph unicode="\" horiz-adv-x="1024" d="M115 1495q0 17 12 29t29 12q14 0 23.5 -7.5t12.5 -14t9 -23.5l696 -1925q4 -8 6 -18t2 -11q2 -4 2 -8q0 -17 -12 -29t-29 -12q-14 0 -23.5 7.5t-12.5 14t-9 23.5l-696 1925q-4 8 -6 18t-2 11q-2 4 -2 8z" />
<glyph unicode="]" horiz-adv-x="557" d="M43 -436h199v1896h-199v76h274v-2048h-274v76z" />
<glyph unicode="^" horiz-adv-x="1138" d="M-10 1196l579 328l580 -328l-25 -45l-557 252l-555 -252z" />
<glyph unicode="_" horiz-adv-x="1503" d="M0 -233h1503v-46h-1503v46z" />
<glyph unicode="`" d="M256 1360q0 28 21.5 47.5t48.5 19.5q15 0 25.5 -5t16 -11t15.5 -20l244 -312q-12 -15 -33 -32l-305 253q-33 27 -33 60z" />
<glyph unicode="a" d="M70 193q0 61 31.5 117.5t96 105.5t178 79.5t261.5 32.5v82q0 66 -20.5 118t-53 82.5t-69 46t-72.5 15.5q-68 0 -131 -30t-96 -92q18 0 30.5 -1.5t32 -8.5t30.5 -26t11 -48q0 -37 -23.5 -60.5t-60.5 -23.5t-61.5 23t-24.5 65q0 101 85.5 172t211.5 71q151 0 254 -94 q42 -40 62.5 -85.5t24 -81.5t3.5 -105v-359q0 -139 78 -139q12 0 23.5 5t25 17.5t21.5 41t8 69.5v115h45v-115q0 -47 -13 -83t-31.5 -56t-42 -32.5t-41.5 -16.5t-34 -4q-65 0 -109.5 48.5t-50.5 121.5q-31 -79 -100 -129.5t-166 -50.5q-51 0 -101.5 11t-100 33.5t-80.5 66.5 t-31 102zM215 193q0 -73 54 -123t130 -50q36 0 74.5 14t76.5 43.5t62.5 84.5t24.5 127v203l-34.5 -3t-48 -6t-60.5 -11t-63 -18t-65 -27t-57 -38t-50 -50t-31.5 -64.5t-12.5 -81.5z" />
<glyph unicode="b" horiz-adv-x="1114" d="M57 1339v60l285 22v-655q112 137 279 137q172 0 295.5 -134t123.5 -327q0 -97 -36 -183.5t-96.5 -147t-141.5 -96t-168 -35.5q-91 0 -158.5 44t-107.5 109l-74 -133h-45v1225q0 52 -10.5 74t-42 31t-103.5 9zM346 233q0 -28 4 -41.5t23 -44.5q30 -51 86 -89t131 -38 q72 0 131 37t94 90q37 56 53.5 125t16.5 172q0 111 -24 193.5t-56 124t-75 66t-70 29.5t-52 5q-72 0 -136.5 -37.5t-102.5 -95.5q-17 -24 -20 -34t-3 -40v-422z" />
<glyph unicode="c" horiz-adv-x="890" d="M72 442q0 194 126 332.5t304 138.5q127 0 218 -67t91 -168q0 -42 -24.5 -65t-61.5 -23t-60.5 23.5t-23.5 60.5q0 84 100 84q-32 55 -100 82.5t-137 27.5q-34 0 -69 -11t-73.5 -41t-67.5 -76t-48 -122.5t-19 -173.5q0 -111 27.5 -196t72 -131.5t93 -69t98.5 -22.5 q91 0 161.5 50.5t104.5 155.5q5 20 9.5 25.5t17.5 5.5q20 0 20 -18q0 -9 -8 -34.5t-32 -66t-58.5 -76t-96 -61.5t-136.5 -26q-174 0 -301 134t-127 328z" />
<glyph unicode="d" horiz-adv-x="1114" d="M72 440q0 194 130.5 328.5t311.5 134.5q85 0 151 -39t105 -92v453q0 52 -10.5 74t-42 31t-103.5 9v60l285 22v-1247q0 -75 26.5 -95t129.5 -20v-59l-289 -20v141q-13 -19 -33.5 -39t-54 -45t-82.5 -41t-104 -16q-111 0 -207.5 60t-154.5 166.5t-58 233.5zM227 438 q0 -82 13 -148.5t32 -109t46.5 -74t52.5 -47.5t53.5 -25.5t45 -11.5t32.5 -2q74 0 134.5 37t100.5 95q21 35 25 46.5t4 41.5v422q0 30 -3 39.5t-22 35.5q-87 125 -219 125q-72 0 -131 -37t-94 -90q-36 -53 -53 -121.5t-17 -175.5z" />
<glyph unicode="e" horiz-adv-x="890" d="M61 449q0 192 119.5 328t294.5 136q89 0 159.5 -33t113 -90t64.5 -127t22 -149q0 -29 -7 -34t-43 -5h-567v-39q0 -101 22.5 -178.5t55.5 -120t75.5 -69.5t75.5 -35t64 -8q36 0 73.5 10.5t77 34t73 68.5t52.5 106q1 1 3 4.5t3 5t3 4t4 3.5t5 2t7 1q23 0 23 -20 q0 -15 -11 -44t-37.5 -67.5t-63.5 -72t-96 -57t-128 -23.5q-85 0 -164.5 35.5t-140 97t-96.5 149.5t-36 187zM219 514h488q0 24 -2.5 52t-9.5 72t-23.5 82.5t-41 74t-65 56.5t-92.5 21q-17 0 -37.5 -4.5t-49.5 -17t-55.5 -38.5t-51 -63t-40.5 -98t-20 -137z" />
<glyph unicode="f" horiz-adv-x="612" d="M63 823v60h160v239q0 75 27.5 137.5t72 101.5t98 60t107.5 21q73 0 122.5 -39t49.5 -96q0 -37 -22.5 -59.5t-59.5 -22.5q-35 0 -57 22.5t-22 57.5q0 25 13.5 44.5t26.5 27t19 7.5q-30 17 -72 17q-68 0 -123 -74.5t-55 -204.5v-239h236v-60h-232v-667q0 -43 7 -60t40 -27 t107 -10h41v-59q-31 4 -248 4q-194 0 -231 -4v59h45.5t34.5 1.5t28 3.5t19 7t14.5 11t7.5 16.5t5 23t1 30.5v671h-160z" />
<glyph unicode="g" d="M55 -162q0 74 56 129t133 78q-15 10 -31 24.5t-36.5 58t-20.5 97.5q0 94 61 170q-27 19 -59.5 77.5t-32.5 133.5q0 119 93 208t228 89q116 0 211 -74q30 34 88 65.5t127 31.5q49 0 75 -30t26 -65q0 -31 -17.5 -43t-35.5 -12q-24 0 -39 15t-15 38q0 40 31 52q-5 4 -27 4 q-104 0 -186 -82q82 -82 82 -199q0 -119 -93.5 -208t-228.5 -89q-102 0 -200 64q-33 -44 -33 -99q0 -63 39 -102q28 -28 53.5 -33.5t122.5 -5.5q152 0 232 -9t151 -44q43 -23 72 -56t42 -68t18 -61t5 -51q0 -75 -60.5 -135.5t-162.5 -93.5t-223 -33q-187 0 -316 75.5 t-129 182.5zM156 -160q0 -89 100 -153t246 -64q142 0 243 63.5t101 153.5q0 37 -14.5 66t-34.5 47.5t-57 31.5t-65.5 19t-77.5 9.5t-76 4t-77 0.5q-114 0 -144 -3.5t-62 -24.5q-34 -25 -54.5 -60.5t-24 -55t-3.5 -34.5zM266 604q0 -17 0.5 -30t4 -41.5t9.5 -49.5t19.5 -47.5 t32 -44t48 -29.5t66.5 -12t77 19.5t67 60.5q35 58 35 176q0 17 -0.5 30t-4 41t-10 50t-20 48t-32 43.5t-48 29.5t-66.5 12t-76.5 -19.5t-66.5 -60.5q-35 -58 -35 -176z" />
<glyph unicode="h" horiz-adv-x="1114" d="M66 0v59h45.5t34.5 1.5t28 3.5t19 7t14.5 11t7.5 16.5t5 23t1 30.5v1073q0 40 -4 60t-21.5 33.5t-46 17t-83.5 3.5v60l284 22v-714h2q12 29 32.5 59t54.5 63t86.5 53.5t113.5 20.5q157 0 225 -92q34 -44 40.5 -98t6.5 -215v-377q1 -45 43 -55q25 -7 113 -7v-59 q-35 4 -223 4q-184 0 -221 -4v59h45.5t34.5 1.5t28 3.5t19 7t14.5 11t7.5 16.5t5 23t1 30.5v481q0 51 -6.5 89.5t-23 71.5t-48 50.5t-77.5 17.5q-49 0 -96 -22t-86 -62t-63 -104.5t-24 -141.5v-380q0 -66 26 -79.5t130 -13.5v-59q-35 4 -223 4q-184 0 -221 -4z" />
<glyph unicode="i" horiz-adv-x="557" d="M68 0v59h45.5t34.5 1.5t28 3.5t19 7t14.5 11t7.5 16.5t5 23t1 30.5v557q0 75 -25 93.5t-124 18.5v60l278 22v-753q0 -44 8.5 -60.5t36.5 -23.5t97 -7v-59q-47 4 -211 4q-177 0 -215 -4zM180 1237q0 41 29 70.5t72 29.5q39 0 68.5 -27.5t29.5 -72.5q0 -39 -27.5 -68.5 t-72.5 -29.5q-41 0 -70 28.5t-29 69.5z" />
<glyph unicode="j" horiz-adv-x="612" d="M-70 -266q0 37 24 61.5t62 24.5q36 0 60 -24t24 -60q0 -71 -69 -84q16 -10 75 -25q28 -4 39 -4q142 0 142 264v820q0 52 -11.5 74t-46 31t-114.5 9v60l301 22v-1007q0 -137 -78.5 -225.5t-190.5 -88.5q-87 0 -152 41t-65 111zM219 1237q0 42 29 71t71 29q39 0 69 -27.5 t30 -72.5q0 -39 -28 -68.5t-73 -29.5q-41 0 -69.5 28.5t-28.5 69.5z" />
<glyph unicode="k" horiz-adv-x="1058" d="M57 0v59q40 0 58.5 0.5t40.5 3.5t29.5 8t16 16t10 26t1.5 39v1073q0 52 -10.5 74t-42 31t-103.5 9v60l285 22v-987l293 258q6 5 20 23q23 32 23 55q0 24 -16.5 37.5t-43.5 15.5v60q33 -4 205 -4q129 0 156 4v-60q-124 0 -274 -127q-6 -6 -43.5 -39t-70 -62.5t-32.5 -31.5 l14 -20l275 -400q20 -30 42 -48.5t47.5 -25.5t42 -8.5t44.5 -1.5v-59q-60 4 -180 4q-173 0 -207 -4v59q36 0 54 10t18 37q0 22 -9.5 40.5t-35.5 54.5l-197 282l-131 -114v-217q0 -66 26 -79.5t130 -13.5v-59q-38 4 -218 4q-179 0 -217 -4z" />
<glyph unicode="l" horiz-adv-x="557" d="M68 0v59h45.5t34.5 1.5t28 3.5t19 7t14.5 11t7.5 16.5t5 23t1 30.5v1073q0 40 -4 60t-21.5 33.5t-46 17t-83.5 3.5v60l284 22v-1269q0 -66 26 -79.5t130 -13.5v-59q-38 4 -221 4q-105 0 -219 -4z" />
<glyph unicode="m" horiz-adv-x="1671" d="M66 0v59h45.5t34.5 1.5t28 3.5t19 7t14.5 11t7.5 16.5t5 23t1 30.5v555q0 40 -4 60t-21.5 33.5t-46 17t-83.5 3.5v60l278 22v-211h2q7 18 17.5 38t35.5 53.5t55.5 58t79.5 43t105 18.5q233 0 268 -203q14 34 36.5 66t56.5 64.5t85 52.5t111 20q157 0 225 -92 q34 -44 40.5 -98t6.5 -215v-377q1 -45 43 -55q26 -7 113 -7v-59q-35 4 -223 4q-184 0 -221 -4v59h45.5t34.5 1.5t28 3.5t19 7t14.5 11t7.5 16.5t5 23t1 30.5v481q0 51 -6.5 89.5t-23 71.5t-48 50.5t-77.5 17.5q-49 0 -96 -22t-86 -62t-63 -104.5t-24 -141.5v-380 q0 -66 26 -79.5t130 -13.5v-59q-35 4 -223 4q-184 0 -221 -4v59h45.5t34.5 1.5t28 3.5t19 7t14.5 11t7.5 16.5t5 23t1 30.5v481q0 51 -6.5 89.5t-23 71.5t-48 50.5t-77.5 17.5q-49 0 -96 -22t-86 -62t-63 -104.5t-24 -141.5v-380q0 -66 26 -79.5t130 -13.5v-59q-35 4 -223 4 q-184 0 -221 -4z" />
<glyph unicode="n" horiz-adv-x="1114" d="M66 0v59h45.5t34.5 1.5t28 3.5t19 7t14.5 11t7.5 16.5t5 23t1 30.5v555q0 40 -4 60t-21.5 33.5t-46 17t-83.5 3.5v60l278 22v-211h2q7 18 17.5 38t35.5 53.5t55.5 58t79.5 43t105 18.5q157 0 225 -92q34 -44 40.5 -98t6.5 -215v-377q1 -45 43 -55q25 -7 113 -7v-59 q-35 4 -223 4q-184 0 -221 -4v59h45.5t34.5 1.5t28 3.5t19 7t14.5 11t7.5 16.5t5 23t1 30.5v481q0 51 -6.5 89.5t-23 71.5t-48 50.5t-77.5 17.5q-49 0 -96 -22t-86 -62t-63 -104.5t-24 -141.5v-380q0 -66 26 -79.5t130 -13.5v-59q-35 4 -223 4q-184 0 -221 -4z" />
<glyph unicode="o" d="M61 438q0 195 129 335t312 140q179 0 308.5 -139t129.5 -336q0 -191 -129.5 -324.5t-310.5 -133.5q-178 0 -308.5 132.5t-130.5 325.5zM217 457q0 -59 2.5 -99t16 -98.5t38.5 -101.5q41 -70 102.5 -101.5t125.5 -31.5q65 0 127 34t102 103q53 96 53 295q0 47 -1 68.5 t-5.5 70.5t-19 88.5t-37.5 71.5q-40 58 -99 87t-122 29q-60 0 -119.5 -29.5t-99.5 -90.5q-29 -42 -44 -102.5t-17.5 -98t-2.5 -94.5z" />
<glyph unicode="p" horiz-adv-x="1114" d="M57 -338q41 0 58.5 0.5t40.5 3t30 7.5t15.5 16t10 26t1.5 39v963q0 37 -4 55t-21 30.5t-45.5 15.5t-85.5 3v60l285 22v-137l7 8q7 8 15 17t23 22t31 24.5t39.5 24t48 21.5t55.5 14.5t64 5.5q169 0 292 -134t123 -327q0 -97 -36 -183.5t-96.5 -147t-141.5 -96t-168 -35.5 q-152 0 -252 131v-357q0 -24 1.5 -39t10.5 -26t16 -16t30 -7.5t40 -3t58 -0.5v-59q-35 4 -223 4q-185 0 -222 -4v59zM346 231q0 -40 19.5 -73t58.5 -72q69 -66 164 -66q120 0 208.5 121.5t88.5 300.5q0 172 -81 294t-196 122q-65 0 -129.5 -33t-109.5 -98q-17 -24 -20 -34 t-3 -40v-422z" />
<glyph unicode="q" horiz-adv-x="1058" d="M72 440q0 98 37 185t98 147.5t140.5 95.5t162.5 35q177 0 272 -190l76 190h41v-1149q0 -66 25.5 -79t130.5 -13v-59q-35 4 -224 4q-184 0 -221 -4v59q106 0 131 13t25 79v379q-111 -153 -274 -153q-170 0 -295 134t-125 326zM227 440q0 -172 80.5 -296t196.5 -124 q102 0 182 82q84 84 84 172v301q0 41 -16.5 88.5t-46 91.5t-78.5 73.5t-107 29.5q-119 0 -207 -119t-88 -299z" />
<glyph unicode="r" horiz-adv-x="780" d="M57 0v59q40 0 58.5 0.5t40.5 3.5t29.5 8t16 16t10 26t1.5 39v555q0 52 -10.5 74t-42 31t-103.5 9v60l275 22v-227h2q6 21 13 40.5t28 56.5t46 63t67 46.5t92 20.5q64 0 103.5 -35t39.5 -84q0 -39 -24.5 -60.5t-57.5 -21.5q-30 0 -55 21t-25 61q0 25 10.5 42.5t17.5 22 t21 11.5q-6 2 -28 2q-76 0 -131.5 -55.5t-82 -141.5t-26.5 -188v-321q0 -43 7 -60t40 -27t107 -10h41v-59q-31 4 -248 4q-195 0 -232 -4z" />
<glyph unicode="s" horiz-adv-x="790" d="M68 15v12v278q0 39 6 44q5 3 16 3q16 0 19 -8l2 -6q1 -1 8 -35q34 -149 103 -216t175 -67q65 0 112 16t72 44t36.5 59.5t11.5 67.5q0 82 -64 133q-38 29 -70.5 41t-119.5 29q-86 16 -135.5 33.5t-94.5 56.5q-77 73 -77 166q0 46 16 87.5t51 78.5t100 59t154 22 q115 0 193 -63q49 63 69 63q15 0 18 -6.5t3 -31.5v-3v-3v-3v-213q0 -23 -1 -30.5t-5.5 -12t-16.5 -4.5q-20 0 -22 17q-10 102 -41 155q-59 99 -199 99q-66 0 -113.5 -15t-70.5 -40t-33 -50t-10 -53q0 -34 17 -62.5t39.5 -45t55 -29.5t54 -18t45.5 -9q9 -2 25 -5 q100 -20 145 -36t94 -59q86 -86 86 -195q0 -127 -82.5 -203.5t-239.5 -76.5q-149 0 -223 96q-19 -20 -41 -51q-26 -32 -33 -38.5t-14 -6.5q-15 0 -17.5 6t-2.5 29z" />
<glyph unicode="t" horiz-adv-x="780" d="M37 823v41q88 3 149 63t87 145.5t26 187.5h45v-377h289v-60h-289v-573q0 -15 1 -28.5t4 -43.5t12.5 -53.5t23.5 -48t39.5 -38t58.5 -13.5q62 0 101 62.5t39 170.5v113h45v-117q0 -117 -51.5 -195.5t-145.5 -78.5q-36 0 -69 6.5t-69 25t-62 47.5t-43 79.5t-17 115.5v569 h-174z" />
<glyph unicode="u" horiz-adv-x="1114" d="M66 821v60l288 22v-678q0 -40 2 -64t12 -54t28 -47t52.5 -28.5t83.5 -11.5q113 0 179.5 92t66.5 228v367q0 40 -4 60t-21.5 33.5t-46 17t-83.5 3.5v60l288 22v-729q0 -75 26.5 -95t129.5 -20v-59l-285 -20v184q-12 -28 -24 -45q-36 -56 -68 -80q-72 -59 -170 -59 q-168 0 -237 77q-41 45 -51.5 102t-10.5 167v307v49.5t-1.5 39t-2.5 32t-6 23t-9 18.5t-14 11t-19.5 8.5t-27 3.5t-33 3h-42.5z" />
<glyph unicode="v" horiz-adv-x="1058" d="M37 823v60l196 -4q179 0 213 4v-60q-22 0 -35.5 -1t-35 -5.5t-32.5 -16t-11 -30.5q0 -2 12 -39l229 -577l209 528q15 38 15 53q0 12 -3.5 24t-12.5 26.5t-30 25t-51 12.5v60l168 -4q113 0 152 4v-60q-37 0 -67.5 -10t-49 -24t-33.5 -34.5t-21.5 -34.5t-12.5 -32 l-267 -670q-15 -38 -41 -38q-18 0 -24.5 7t-14.5 31l-292 734q-20 47 -47 59t-113 12z" />
<glyph unicode="w" horiz-adv-x="1447" d="M37 823v60l190 -4q176 0 209 4v-60q-119 0 -119 -55q0 -9 11 -39l196 -557l174 500q-5 13 -16 44t-19.5 51.5t-13.5 25.5q-17 20 -40.5 25t-86.5 5v60l185 -4q162 0 200 4v-60q-24 0 -38 -1t-36 -6t-33.5 -17.5t-11.5 -32.5q0 -8 11 -35l205 -579l188 536q4 6 5 16t1 11 q0 8 2 10q0 36 -27.5 65t-89.5 33v60l174 -4q118 0 152 4v-60q-125 0 -170 -135l-235 -672q-7 -20 -14 -28t-23 -8q-15 0 -23.5 7.5t-15.5 30.5l-205 584l-205 -584q-7 -23 -15.5 -30.5t-23.5 -7.5q-16 0 -23 8t-14 28l-258 734q-17 49 -42.5 61t-104.5 12z" />
<glyph unicode="x" horiz-adv-x="1058" d="M20 0v59q77 2 142 30t127 106q7 10 53.5 69t86.5 110.5t40 53.5q0 11 -12 23l-240 313q-32 39 -67 49t-119 10v60l196 -4q178 0 211 4v-60q-29 -1 -46 -11.5t-21 -20t-4 -19.5q0 -17 18 -41l160 -211l131 166q31 35 31 74q0 31 -16.5 44t-43.5 19v60l184 -4q116 0 173 4 v-60q-147 0 -246 -108q-50 -58 -185 -232l269 -354q35 -47 70.5 -58.5t123.5 -11.5v-59l-194 4q-176 0 -211 -4v59q36 1 53.5 18t17.5 34q0 11 -4.5 19t-29.5 42l-168 219l-148 -190q-20 -23 -27.5 -38t-7.5 -38q0 -59 58 -66v-59l-185 4q-118 0 -170 -4z" />
<glyph unicode="y" horiz-adv-x="1058" d="M37 823v60l199 -4q173 0 210 4v-60q-22 0 -36 -1t-34.5 -5.5t-31 -16t-10.5 -30.5q0 -6 2 -10q6 -23 10 -33l227 -557l209 516q13 37 13 49q0 81 -95 88v60l166 -4q115 0 154 4v-60q-135 0 -191 -139l-354 -872q-97 -230 -252 -230q-79 0 -131.5 46t-52.5 108 q0 41 23.5 60.5t54.5 19.5t53.5 -20.5t22.5 -55.5q0 -47 -37 -68q-14 -9 -35 -12q6 -6 26 -18q34 -19 76 -19q105 0 183 139q22 59 98 238l-305 750q-14 34 -28.5 48t-43 19.5t-90.5 5.5z" />
<glyph unicode="z" horiz-adv-x="890" d="M55 37l586 805h-238q-83 0 -134.5 -14.5t-81.5 -51t-42 -86.5t-16 -133h-45l22 326h644q21 0 29 -1t14 -6t6 -16t-19 -35l-565 -780h248q73 0 123 13t82 36t51 66.5t27.5 91.5t13.5 125h45l-33 -377h-668q-36 0 -42.5 4.5t-6.5 32.5z" />
<glyph unicode="{" horiz-adv-x="1024" d="M147 512q0 11 5 16t10 6t14 1q59 4 106.5 22t65.5 32.5t41 37.5q38 38 45.5 84.5t7.5 197.5v375q4 108 119 180t273 72q16 0 22.5 -1t12 -6t5.5 -16q0 -19 -18 -22q-51 -4 -89 -12.5t-65 -24.5t-40 -26.5t-33 -30.5q-34 -34 -41.5 -78.5t-7.5 -165.5v-369 q0 -17 -0.5 -29.5t-5.5 -36.5t-13.5 -42.5t-26.5 -43.5t-43 -45t-64.5 -40t-88.5 -35q206 -58 237 -211q5 -19 5 -186v-308q0 -75 6 -98q14 -64 79 -116.5t177 -59.5q3 0 9 -0.5t7.5 -0.5t5.5 -1t5 -2.5t2.5 -3.5t2 -5.5t0.5 -8.5q0 -16 -9 -19.5t-31 -3.5q-63 0 -144 18.5 t-141 59.5q-73 52 -90 105t-17 159v406q0 72 -27.5 124t-72 78t-83.5 37t-79 14q-2 0 -7 0.5t-6.5 0.5t-5 0.5t-5 1t-3.5 2t-2.5 3t-1.5 3.5t-1.5 5t-0.5 7z" />
<glyph unicode="|" horiz-adv-x="569" d="M244 -444v1912q0 16 1 24.5t4 20.5t12 17.5t24 5.5t24 -5.5t12 -17.5t4 -20.5t1 -24.5v-1912q0 -16 -1 -24.5t-4 -20.5t-12 -17.5t-24 -5.5t-24 5.5t-12 17.5t-4 20.5t-1 24.5z" />
<glyph unicode="}" horiz-adv-x="1024" d="M147 -489q0 19 19 22q65 3 114.5 20.5t67.5 32t45 41.5q34 34 41.5 78.5t7.5 165.5v369q0 17 0.5 29.5t5.5 36.5t13.5 42.5t26.5 43.5t43 45t64.5 40t88.5 35q-207 58 -238 211q-4 15 -4 186v308q0 75 -6 98q-14 64 -79 116.5t-177 59.5q-3 0 -7 0.5t-6.5 0.5t-5.5 0.5 t-4.5 1t-3.5 1.5t-2.5 2.5t-1.5 3.5t-1.5 5t-0.5 7q0 11 6.5 16t13 6t21.5 1q61 0 144 -19t141 -59q72 -54 89.5 -106.5t17.5 -157.5v-406q0 -72 27.5 -124t72 -78t83.5 -37t79 -14q2 0 6 -0.5t6 -0.5t5 -0.5t4 -1t3.5 -1t3 -2t2 -3t1.5 -3.5t0.5 -5t0.5 -6q0 -11 -4.5 -16 t-9.5 -6t-14 -1q-131 -10 -213 -92q-38 -41 -45.5 -86t-7.5 -196v-375q-4 -108 -119.5 -180t-272.5 -72q-15 0 -21.5 1t-13 6t-6.5 16z" />
<glyph unicode="~" horiz-adv-x="1138" d="M0 430l111 90q12 11 28 21.5t27 17t31.5 17.5t29.5 16q76 37 150 37q38 0 77.5 -11.5t65 -24t62.5 -34.5q49 -28 72 -39.5t63 -24t78 -12.5q139 0 313 146l29 -35l-111 -90q-12 -11 -28 -21.5t-27.5 -17t-31.5 -17.5t-30 -16q-76 -37 -149 -37q-38 0 -77.5 11.5t-65 24 t-62.5 34.5q-49 28 -72 39.5t-63 24t-78 12.5q-139 0 -313 -146z" />
<glyph unicode="&#xa0;" />
<glyph unicode="&#xa1;" horiz-adv-x="557" d="M178 -344l74 956q2 29 6 36t21 7q13 0 17.5 -8.5t6.5 -34.5l74 -938q4 -58 -28.5 -86t-72.5 -28q-37 0 -67.5 25t-30.5 71zM178 924q0 43 30 71.5t68 28.5q42 0 71.5 -29t29.5 -71q0 -41 -28.5 -70t-69.5 -29q-43 0 -72 30.5t-29 68.5z" />
<glyph unicode="&#xa2;" horiz-adv-x="890" d="M72 442q0 183 111.5 317.5t277.5 151.5v29q0 11 9 20t19 9q12 0 20.5 -9t8.5 -20v-27q121 -5 207 -71t86 -164q0 -42 -24.5 -65t-61.5 -23t-60.5 23.5t-23.5 60.5q0 84 100 84q-60 98 -223 110v-843q91 0 161.5 50.5t104.5 155.5q5 20 9.5 25.5t17.5 5.5q20 0 20 -18 q0 -8 -7.5 -32.5t-30 -64t-55 -75t-91 -62.5t-129.5 -30v-37q0 -29 -29 -29q-11 0 -19.5 8.5t-8.5 20.5v39q-163 18 -276 147.5t-113 312.5zM227 444q0 -184 68.5 -286t165.5 -125v831q-33 -8 -63 -24t-62 -48.5t-55.5 -77.5t-38.5 -115t-15 -155z" />
<glyph unicode="&#xa3;" horiz-adv-x="1503" d="M127 164q0 94 86 151.5t201 57.5q99 0 196 -64q-5 73 -25.5 208t-23.5 155h-323v57h315q-10 85 -10 154q0 134 40 249t124.5 191t197.5 76q131 0 225.5 -88t94.5 -215q0 -35 -25.5 -60.5t-60.5 -25.5t-60.5 25.5t-25.5 60.5t25.5 60.5t60.5 25.5q6 0 26 -4 q-26 79 -97.5 127.5t-162.5 48.5q-231 0 -231 -471q0 -86 8 -154h307v-57h-299q5 -46 19.5 -144.5t22 -173.5t7.5 -145q55 -46 83 -68t76.5 -53.5t95 -45t96.5 -13.5q101 0 171 79t70 187h45q0 -70 -11.5 -132.5t-35 -116t-66 -85t-98.5 -31.5q-31 0 -63 6.5t-57 14.5 t-57.5 26.5t-51 30.5t-52.5 39t-48 39.5t-50.5 45t-48.5 42.5q-8 -56 -47 -99t-97.5 -68t-126 -37.5t-140.5 -12.5q-83 0 -141 61t-58 146zM172 164q0 -67 44.5 -114.5t109.5 -47.5q116 0 201 65.5t85 168.5v30q-94 62 -198 62q-99 0 -170.5 -43.5t-71.5 -120.5z" />
<glyph unicode="&#xa4;" horiz-adv-x="1560" d="M294 58q-2 9 4 19t11 16t17 18l155 155q-88 109 -88 246q0 138 88 244l-155 155q-13 13 -17 17.5t-10.5 15.5t-4 20.5t12.5 20.5q10 9 19 11t19 -3.5t16.5 -11t17.5 -16.5l156 -156q106 88 245 88q141 0 244 -86l156 154q13 13 17.5 17t15 10t20 3.5t20.5 -12.5 q9 -10 11 -19t-3.5 -19t-11 -16.5t-16.5 -17.5l-156 -155q88 -106 88 -244q0 -137 -88 -246l156 -155q12 -12 16.5 -17.5t10.5 -16t3.5 -20t-12.5 -20.5q-10 -9 -19 -11t-19 3.5t-15.5 10.5t-17.5 17l-156 156q-106 -86 -244 -86q-139 0 -245 86l-156 -156 q-12 -12 -17.5 -16.5t-16 -10.5t-20 -3.5t-20.5 12.5q-9 10 -11 19zM467 512q0 -129 92 -220t221 -91t220.5 91t91.5 220t-91.5 220t-220.5 91t-221 -91t-92 -220z" />
<glyph unicode="&#xa5;" horiz-adv-x="1503" d="M20 1339v60q34 -4 252 -4q240 0 271 4v-60q-64 0 -95.5 -9.5t-31.5 -39.5q0 -13 16 -39l346 -561h70l311 508q17 25 21 35.5t4 30.5q0 36 -28.5 55.5t-74.5 19.5v60q34 -4 209 -4l191 4v-60q-167 0 -250 -133l-320 -516h291v-57h-325l-46 -72v-170h371v-57h-371v-182 q0 -41 7 -57.5t39.5 -26t107.5 -9.5h41v-59q-33 4 -276 4q-244 0 -275 -4v59h41q73 0 105.5 9.5t40.5 27t8 60.5v178h-369v57h369v168l-45 74h-324v57h289l-352 570q-33 54 -69.5 66.5t-148.5 12.5z" />
<glyph unicode="&#xa6;" horiz-adv-x="569" d="M244 322q0 13 11.5 20.5t29.5 7.5t29.5 -7.5t11.5 -20.5v-766q0 -16 -1 -24.5t-4 -20.5t-12 -17.5t-24 -5.5t-24 5.5t-12 17.5t-4 20.5t-1 24.5v766zM244 702v766q0 16 1 24.5t4 20.5t12 17.5t24 5.5t24 -5.5t12 -17.5t4 -20.5t1 -24.5v-766q0 -13 -11.5 -20.5 t-29.5 -7.5t-29.5 7.5t-11.5 20.5z" />
<glyph unicode="&#xa7;" horiz-adv-x="972" d="M74 627q0 142 170 239q-84 112 -84 240q0 145 93.5 249.5t231.5 104.5q130 0 211.5 -112t81.5 -265q0 -35 -25.5 -60.5t-60.5 -25.5t-60.5 25.5t-25.5 60.5t25.5 60.5t60.5 25.5q18 0 33 -6q-24 96 -87.5 155.5t-152.5 59.5q-95 0 -155 -81t-60 -191q0 -152 193 -258 l180 -103q114 -63 184 -151t70 -197q0 -144 -170 -241q84 -112 84 -238q0 -145 -94 -249.5t-232 -104.5q-130 0 -211 112t-81 265q0 35 25.5 60.5t60.5 25.5t60.5 -25.5t25.5 -60.5t-25.5 -60.5t-60.5 -25.5q-18 0 -33 6q24 -96 87 -155.5t152 -59.5q95 0 155 81t60 191 q0 153 -192 258l-180 103q-114 63 -184 151t-70 197zM217 627q0 -131 176 -236l180 -102q73 -46 121 -94q60 60 60 202q0 131 -176 236l-181 102q-65 35 -121 94q-59 -59 -59 -202z" />
<glyph unicode="&#xa8;" d="M250 1237q0 37 26 63.5t64 26.5q36 0 62 -25t26 -65q0 -34 -25.5 -61t-64.5 -27q-35 0 -61.5 26.5t-26.5 61.5zM578 1237q0 37 26 63.5t64 26.5q36 0 62 -25t26 -65q0 -34 -25.5 -61t-64.5 -27q-35 0 -61.5 26.5t-26.5 61.5z" />
<glyph unicode="&#xa9;" horiz-adv-x="1398" d="M0 700q0 142 55.5 271.5t149.5 223t223.5 149t271.5 55.5t271.5 -55.5t223 -149t149 -223t55.5 -271.5t-55.5 -271.5t-149 -223.5t-223 -149.5t-271.5 -55.5t-271.5 55.5t-223.5 149.5t-149.5 223.5t-55.5 271.5zM74 700q0 -127 49.5 -243t133.5 -200t200 -133.5 t243 -49.5t242.5 49.5t199.5 133.5t133.5 200t49.5 243q0 169 -84 313t-228 228t-313 84q-127 0 -243 -49.5t-200 -133.5t-133.5 -199.5t-49.5 -242.5zM305 700q0 179 119.5 303.5t284.5 124.5q62 0 119.5 -29t99.5 -79l57 94q8 14 14 14q10 0 11.5 -4.5t1.5 -23.5v-279 q0 -19 -2.5 -23.5t-14.5 -4.5q-10 0 -12 3t-4 15q-18 132 -89.5 207.5t-166.5 75.5q-32 0 -66.5 -7.5t-79.5 -33t-79 -66.5t-58 -115.5t-24 -171.5q0 -98 24.5 -173t59.5 -115.5t80 -66t79 -33t64 -7.5q61 0 117 27.5t98 91t47 151.5q0 15 14 15q10 0 11.5 -3.5t1.5 -15.5 q0 -68 -35 -135.5t-106.5 -115.5t-161.5 -48q-106 0 -198.5 55.5t-149 154.5t-56.5 218z" />
<glyph unicode="&#xaa;" horiz-adv-x="909" d="M76 938q0 44 27 83.5t81 73.5t149.5 55.5t219.5 23.5v57q0 89 -56.5 135.5t-125.5 46.5q-57 0 -109.5 -21t-81.5 -65q88 0 88 -57q0 -26 -19 -43t-50 -17q-32 0 -53 16t-21 46q0 72 72 121t178 49q130 0 213 -66q36 -26 53.5 -58.5t20 -56.5t2.5 -75v-250q0 -98 65 -98 q66 0 66 92v82h39v-82q0 -40 -15.5 -68.5t-40 -41.5t-44.5 -18t-38 -5q-55 0 -91.5 33t-41.5 85q-26 -57 -84 -92t-141 -35q-43 0 -85.5 7.5t-84 24t-67 47t-25.5 71.5zM104 707q0 20 29 20h643q29 0 29 -20q0 -7 -9 -13t-20 -6h-643q-29 0 -29 19zM199 938q0 -53 44.5 -87 t108.5 -34q30 0 62.5 10t64.5 31t53 59.5t21 88.5v141q-20 0 -48.5 -3t-71 -10t-81.5 -22t-74.5 -37t-57 -57.5t-21.5 -79.5z" />
<glyph unicode="&#xab;" horiz-adv-x="1114" d="M223 496q0 6 4 10q207 216 291 473q7 10 17 10h6q16 0 16 -16v-4q-63 -262 -201 -473q137 -209 201 -476v-4q0 -16 -16 -16h-6q-10 0 -17 10q-87 266 -291 473q-4 12 -4 13zM557 496q0 6 4 10q207 216 291 473q7 10 16 10h6q17 0 17 -16v-4q-63 -262 -201 -473 q137 -209 201 -476v-4q0 -16 -17 -16h-6q-9 0 -16 10q-87 266 -291 473q-4 12 -4 13z" />
<glyph unicode="&#xac;" horiz-adv-x="1560" d="M111 702q0 37 36 37h1264q37 0 37 -37v-383q0 -36 -37 -36t-37 36v347h-1227q-36 0 -36 36z" />
<glyph unicode="&#xad;" horiz-adv-x="667" d="M23 387v111h532v-111h-532z" />
<glyph unicode="&#xae;" horiz-adv-x="1398" d="M0 700q0 142 55.5 271.5t149.5 223t223.5 149t271.5 55.5t271.5 -55.5t223 -149t149 -223t55.5 -271.5t-55.5 -271.5t-149 -223.5t-223 -149.5t-271.5 -55.5t-271.5 55.5t-223.5 149.5t-149.5 223.5t-55.5 271.5zM74 700q0 -127 49.5 -243t133.5 -200t200 -133.5 t243 -49.5t242.5 49.5t199.5 133.5t133.5 200t49.5 243q0 169 -84 313t-228 228t-313 84q-127 0 -243 -49.5t-200 -133.5t-133.5 -199.5t-49.5 -242.5zM332 309v35h24q61 0 74.5 9t13.5 46v627q0 35 -14 45t-74 10h-24v35h352q127 0 216 -63t89 -150q0 -67 -59 -119 t-150 -73q62 -17 109 -64q24 -27 33 -54.5t16 -78.5l12 -88q7 -59 22 -89t52 -30q31 0 53.5 26t26.5 77q0 17 4 19q3 1 8 1q12 0 12 -18q0 -13 -4.5 -31t-14.5 -41t-33 -39t-54 -16q-46 0 -82 14.5t-51 30.5q-37 33 -45 64.5t-8 109.5q0 68 -6 93.5t-33 57.5q-45 45 -123 45 h-137v-301q0 -36 14 -45.5t76 -9.5h22v-35q-13 0 -77 1t-83 1q-17 0 -80 -1t-77 -1zM537 725h133q209 0 209 178q0 32 -6.5 58.5t-19.5 44.5t-27 31.5t-36 21.5t-38 12.5t-42 6.5t-39.5 2.5t-37.5 0.5q-60 0 -70 -2q-13 -3 -18.5 -9.5t-6.5 -12.5t-1 -23v-309z" />
<glyph unicode="&#xaf;" d="M139 1208v60h723v-60h-723z" />
<glyph unicode="&#xb0;" horiz-adv-x="751" d="M98 1120q0 117 81 198t198 81t197.5 -81t80.5 -198t-80.5 -197.5t-197.5 -80.5t-198 80.5t-81 197.5zM172 1120q0 -85 59 -145t146 -60q86 0 145.5 59.5t59.5 145.5q0 85 -60 145t-145 60q-87 0 -146 -60t-59 -145z" />
<glyph unicode="&#xb1;" horiz-adv-x="1560" d="M111 39q0 11 4.5 18.5t8.5 11t16 5.5t16.5 2h19.5h565v555h-565q-16 0 -24 0.5t-19.5 4t-16.5 12t-5 22.5q0 11 4.5 18.5t8.5 11t16 5.5t16.5 2h19.5h565v565q0 16 0.5 24t4 19.5t12 16.5t22.5 5q11 0 18.5 -4.5t11 -8.5t5.5 -16t2 -16.5v-19.5v-565h565q16 0 24 -0.5 t19.5 -4t17 -12t5.5 -22.5t-5 -22t-17.5 -11t-19 -3.5t-24.5 -0.5h-565v-555h565q16 0 24 -0.5t19.5 -4t17 -12t5.5 -22.5t-5 -22t-17.5 -11t-19 -3.5t-24.5 -0.5h-1206q-16 0 -24 0.5t-19.5 4t-16.5 12t-5 22.5z" />
<glyph unicode="&#xb2;" horiz-adv-x="720" d="M72 625v30l299 277q155 148 155 274q0 89 -54 145t-148 56q-71 0 -125 -38t-78 -101h20q31 0 50.5 -16t19.5 -42q0 -27 -22 -42t-48 -15q-6 0 -14 1.5t-22 6.5t-23.5 19t-9.5 34q0 86 75 157t197 71q129 0 217 -66.5t88 -169.5q0 -36 -12 -68t-30 -58.5t-62.5 -66.5 t-83.5 -71t-119 -92q-142 -119 -168 -137h272q130 0 140 10q6 10 12 30.5t11.5 46.5t6.5 31h33l-39 -206h-538z" />
<glyph unicode="&#xb3;" horiz-adv-x="720" d="M61 799q0 63 74 63q31 0 51.5 -16.5t20.5 -42.5q0 -34 -26.5 -50.5t-63.5 -11.5q29 -54 99 -81t134 -27q31 0 59 10t55 31.5t43.5 63.5t16.5 100q0 92 -46 147t-136 55h-68h-5q-13 0 -18 0.5t-8 3t-3 9.5q0 9 3 10.5t17 2.5q2 0 3.5 0.5t3 0.5h3.5l45 4q27 0 44.5 2.5 t43.5 15.5t48 39q47 63 47 146q0 34 -10.5 60.5t-26.5 41t-37 23.5t-38 11.5t-34 2.5q-12 0 -29 -1.5t-52.5 -8.5t-68.5 -26t-52 -48q4 2 16 2q27 0 47 -15t20 -42t-19.5 -41t-45.5 -14q-24 0 -46 13.5t-22 45.5q0 68 73.5 116t182.5 48q108 0 186.5 -48t78.5 -120 q0 -73 -57 -132.5t-154 -82.5q109 -18 180.5 -79t71.5 -144q0 -95 -89.5 -165.5t-216.5 -70.5q-124 0 -209.5 58.5t-85.5 140.5z" />
<glyph unicode="&#xb4;" d="M377 1079l244 312q10 14 15.5 20t16 11t25.5 5q27 0 48.5 -19.5t21.5 -47.5q0 -33 -33 -60l-305 -253q-21 17 -33 32z" />
<glyph unicode="&#xb5;" horiz-adv-x="1114" d="M66 -338h8q102 0 124.5 13t22.5 83v942q0 56 -9.5 78.5t-40.5 31.5t-105 9v60l288 22v-672q0 -40 2 -64.5t12 -55.5t28 -48t52.5 -29t83.5 -12q110 0 178 90.5t68 233.5v356q0 56 -9.5 78.5t-40.5 31.5t-105 9v60l288 22v-723q0 -43 3.5 -63t21 -34.5t46 -18t85.5 -3.5 v-59l-285 -20v176l-2 2q-2 -6 -11 -23t-30.5 -46t-46.5 -50q-72 -59 -170 -59t-168 28v-250q0 -25 1 -40.5t9 -27t14.5 -16.5t28.5 -8t38.5 -3.5t56.5 -0.5h8v-59q-35 4 -223 4q-184 0 -221 -4v59z" />
<glyph unicode="&#xb6;" horiz-adv-x="1251" d="M115 948q0 126 67.5 235t185.5 173.5t259 64.5h497q16 0 24.5 -1t20.5 -4t17.5 -12t5.5 -24t-5.5 -24t-17.5 -12t-20.5 -4t-24.5 -1h-102v-1669q0 -21 -1.5 -32.5t-11 -23t-28.5 -11.5t-28.5 11.5t-11 23t-1.5 32.5v1669h-143v-1669q0 -21 -1.5 -32.5t-11 -23 t-28.5 -11.5t-28.5 11.5t-11 23t-1.5 32.5v801q-81 3 -163 22t-161.5 58t-140 92.5t-98 132.5t-37.5 172z" />
<glyph unicode="&#xb7;" horiz-adv-x="1560" d="M680 700q0 40 28.5 69.5t71.5 29.5q39 0 69 -29t30 -70q0 -42 -29.5 -71t-71.5 -29q-38 0 -68 27.5t-30 72.5z" />
<glyph unicode="&#xb8;" horiz-adv-x="890" d="M178 -365h23q198 0 269 19q87 22 87 78q0 46 -46.5 70t-109.5 24v182h91v-137q90 0 155.5 -36t65.5 -103q0 -26 -11 -46.5t-35.5 -35t-50 -25.5t-67.5 -17t-74 -10t-84 -5.5t-83 -2t-85 -0.5h-45v45z" />
<glyph unicode="&#xb9;" horiz-adv-x="739" d="M135 1329v35q177 0 260 78q23 0 26 -3t3 -26v-692q0 -25 6.5 -35.5t36 -17t92.5 -6.5h45v-37q-26 4 -229 4q-207 0 -232 -4v37h45q64 0 93.5 6.5t36 17t6.5 35.5v639q-82 -31 -189 -31z" />
<glyph unicode="&#xba;" horiz-adv-x="841" d="M51 1110q0 136 108.5 234t262.5 98q151 0 260 -97t109 -235q0 -134 -109 -228t-262 -94q-150 0 -259.5 93t-109.5 229zM80 707q0 20 29 20h624q29 0 29 -20q0 -7 -9 -13t-20 -6h-624q-29 0 -29 19zM182 1122q0 -140 49 -209q63 -92 191 -92q54 0 105.5 23t86.5 71 q21 31 32 76t12 67.5t1 63.5q0 143 -53 209q-68 82 -186 82q-50 0 -100 -20t-84 -64q-54 -64 -54 -207z" />
<glyph unicode="&#xbb;" horiz-adv-x="1114" d="M223 16v4q64 267 201 476q-138 211 -201 473v4q0 16 17 16h6q9 0 16 -10q84 -257 291 -473q4 -4 4 -10q0 -1 -4 -13q-204 -207 -291 -473q-7 -10 -16 -10h-6q-17 0 -17 16zM557 16v4q64 267 201 476q-138 211 -201 473v4q0 16 16 16h7q9 0 16 -10q84 -257 291 -473 q4 -4 4 -10q0 -1 -4 -13q-204 -207 -291 -473q-7 -10 -16 -10h-7q-16 0 -16 16z" />
<glyph unicode="&#xbc;" horiz-adv-x="1654" d="M135 1329v35q177 0 260 78q23 0 26 -3t3 -26v-692q0 -25 6.5 -35.5t36 -17t92.5 -6.5h45v-37q-26 4 -229 4q-207 0 -232 -4v37h45q64 0 93.5 6.5t36 17t6.5 35.5v639q-82 -31 -189 -31zM471 41q0 12 6 18l803 1319q10 17 31 17q37 0 37 -37q0 -8 -7 -19l-800 -1316 q-9 -19 -33 -19q-37 0 -37 37zM877 205v37l444 573q10 10 14 12t15 2q14 0 17 -3.5t3 -17.5v-7v-559h148v-37h-148v-111q0 -26 5.5 -37t29 -16.5t76.5 -5.5h28v-35q-15 0 -93 1t-99 1t-98.5 -1t-94.5 -1v35h31q53 0 76.5 5.5t29 16.5t5.5 37v111h-389zM913 242h359v463z" />
<glyph unicode="&#xbd;" horiz-adv-x="1654" d="M135 1329v35q177 0 260 78q23 0 26 -3t3 -26v-692q0 -25 6.5 -35.5t36 -17t92.5 -6.5h45v-37q-26 4 -229 4q-207 0 -232 -4v37h45q64 0 93.5 6.5t36 17t6.5 35.5v639q-82 -31 -189 -31zM389 41q0 12 6 18l801 1319q10 17 33 17q37 0 37 -37q0 -10 -6 -19l-803 -1316 q-9 -19 -31 -19q-37 0 -37 37zM942 0v29l297 278q158 150 158 275q0 88 -55.5 144t-147.5 56q-72 0 -127.5 -39t-75.5 -102q2 2 21 2q31 0 50 -16t19 -41q0 -28 -21.5 -44t-47.5 -16q-6 0 -14 1.5t-22.5 6.5t-24 19.5t-9.5 36.5q0 86 75 156.5t195 70.5q131 0 218.5 -66 t87.5 -169q0 -36 -11.5 -68.5t-30 -60.5t-61 -66.5t-84 -71.5t-119.5 -92q-17 -12 -82 -66t-86 -69h273q129 0 139 10q6 10 12 30.5t12 47.5t7 31h31l-37 -207h-539z" />
<glyph unicode="&#xbe;" horiz-adv-x="1654" d="M121 799q0 32 22 47.5t52 15.5q31 0 51 -16.5t20 -42.5q0 -34 -26.5 -50.5t-63.5 -11.5q29 -54 100 -81t136 -27q30 0 58.5 10t55 31.5t42.5 63.5t16 100q0 92 -45.5 147t-135.5 55h-69h-5q-13 0 -18 0.5t-7.5 3t-2.5 9.5q0 12 21 13q2 0 3 0.5t3 0.5h4l45 4 q26 0 43.5 2.5t43.5 16t46 38.5q47 60 47 146q0 43 -15 72.5t-39 43t-45.5 18.5t-43.5 5q-13 0 -30 -1.5t-53 -8.5t-68.5 -26t-51.5 -48q2 2 16 2q27 0 47.5 -15t20.5 -42t-20 -41t-46 -14q-25 0 -47 13.5t-22 45.5q0 68 74.5 116t183.5 48q108 0 186 -48t78 -120 q0 -73 -57.5 -132.5t-153.5 -82.5q109 -18 179.5 -78.5t70.5 -144.5q0 -96 -87.5 -166t-217.5 -70q-124 0 -209.5 58.5t-85.5 140.5zM471 41q0 12 6 18l803 1319q10 17 31 17q37 0 37 -37q0 -8 -7 -19l-800 -1316q-9 -19 -33 -19q-37 0 -37 37zM877 205v37l444 573 q10 10 14 12t15 2q14 0 17 -3.5t3 -17.5v-7v-559h148v-37h-148v-111q0 -26 5.5 -37t29 -16.5t76.5 -5.5h28v-35q-15 0 -93 1t-99 1t-98.5 -1t-94.5 -1v35h31q53 0 76.5 5.5t29 16.5t5.5 37v111h-389zM913 242h359v463z" />
<glyph unicode="&#xbf;" horiz-adv-x="946" d="M111 -139q0 133 92 209q63 53 107.5 117.5t65.5 114t32.5 112.5t12.5 90.5t1 70.5v35q0 23 1 30t5 11t16 4q23 0 23 -24v-47q0 -160 -29.5 -286t-115.5 -249q-20 -30 -30 -49.5t-18 -58.5t-8 -95q0 -31 1 -50.5t6 -49.5t17 -48.5t31.5 -37.5t52 -28t75.5 -9q38 0 79 7 t88.5 23t89 48.5t64.5 77.5q-2 -2 -20 -2q-38 0 -62 24t-24 60q0 43 26.5 64.5t57.5 21.5q32 0 59 -20.5t27 -69.5q0 -118 -113.5 -196.5t-278.5 -78.5q-89 0 -155 23.5t-103.5 64t-55 88.5t-17.5 103zM344 926q0 41 28.5 69.5t69.5 28.5q42 0 71.5 -29t29.5 -71 q0 -41 -29 -70t-70 -29q-42 0 -71 29.5t-29 71.5z" />
<glyph unicode="&#xc0;" horiz-adv-x="1503" d="M63 0v59q93 1 143 36.5t75 103.5l428 1224q8 26 14.5 32.5t28.5 6.5q15 0 23 -5t10.5 -10t7.5 -22l446 -1282q20 -59 55.5 -71.5t143.5 -12.5v-59q-31 4 -252 4q-233 0 -266 -4v59q155 0 155 62q0 10 -10 35l-113 321h-516l-94 -272q-10 -27 -10 -43q0 -44 36.5 -73 t100.5 -30v-59q-35 4 -209 4zM457 537h475l-238 682zM477 1774q-4 32 17.5 55.5t52.5 23.5q6 0 11 -1.5t8 -2t8.5 -4.5t7 -5t8.5 -7.5t8 -7.5l293 -264q-5 -8 -15 -21t-12 -16l-344 196q-37 22 -43 54z" />
<glyph unicode="&#xc1;" horiz-adv-x="1503" d="M63 0v59q93 1 143 36.5t75 103.5l428 1224q8 26 14.5 32.5t28.5 6.5q15 0 23 -5t10.5 -10t7.5 -22l446 -1282q20 -59 55.5 -71.5t143.5 -12.5v-59q-31 4 -252 4q-233 0 -266 -4v59q155 0 155 62q0 10 -10 35l-113 321h-516l-94 -272q-10 -27 -10 -43q0 -44 36.5 -73 t100.5 -30v-59q-35 4 -209 4zM457 537h475l-238 682zM612 1561l293 264l4.5 4.5l4.5 4.5l4 4t4.5 4l4.5 3t4.5 2.5t4.5 2t5.5 2t6 1t6.5 0.5q33 0 54.5 -23.5t17.5 -55.5q-6 -32 -43 -54l-344 -196q-2 3 -12 16t-15 21z" />
<glyph unicode="&#xc2;" horiz-adv-x="1503" d="M63 0v59q93 1 143 36.5t75 103.5l428 1224q8 26 14.5 32.5t28.5 6.5q15 0 23 -5t10.5 -10t7.5 -22l446 -1282q20 -59 55.5 -71.5t143.5 -12.5v-59q-31 4 -252 4q-233 0 -266 -4v59q155 0 155 62q0 10 -10 35l-113 321h-516l-94 -272q-10 -27 -10 -43q0 -44 36.5 -73 t100.5 -30v-59q-35 4 -209 4zM442 1536l310 240l309 -240l-25 -33l-286 135l-287 -135zM457 537h475l-238 682z" />
<glyph unicode="&#xc3;" horiz-adv-x="1503" d="M63 0v59q93 1 143 36.5t75 103.5l428 1224q8 26 14.5 32.5t28.5 6.5q15 0 23 -5t10.5 -10t7.5 -22l446 -1282q20 -59 55.5 -71.5t143.5 -12.5v-59q-31 4 -252 4q-233 0 -266 -4v59q155 0 155 62q0 10 -10 35l-113 321h-516l-94 -272q-10 -27 -10 -43q0 -44 36.5 -73 t100.5 -30v-59q-35 4 -209 4zM418 1532q13 14 38.5 41t35 36.5t28.5 27.5t29 24t25.5 15t29.5 11.5t31 2.5q22 0 47.5 -9.5t38 -16.5t43.5 -26q72 -49 123 -49q45 0 79.5 23.5t88.5 77.5l28 -29q-39 -43 -53.5 -58.5t-41.5 -41.5t-42 -34.5t-36.5 -16t-43.5 -7.5t-47 9 t-39 16.5t-43 25.5q-73 50 -123 50q-45 0 -79.5 -23.5t-88.5 -77.5zM457 537h475l-238 682z" />
<glyph unicode="&#xc4;" horiz-adv-x="1503" d="M63 0v59q93 1 143 36.5t75 103.5l428 1224q8 26 14.5 32.5t28.5 6.5q15 0 23 -5t10.5 -10t7.5 -22l446 -1282q20 -59 55.5 -71.5t143.5 -12.5v-59q-31 4 -252 4q-233 0 -266 -4v59q155 0 155 62q0 10 -10 35l-113 321h-516l-94 -272q-10 -27 -10 -43q0 -44 36.5 -73 t100.5 -30v-59q-35 4 -209 4zM457 537h475l-238 682zM471 1591q0 37 26 63.5t64 26.5q36 0 62 -25t26 -65q0 -34 -25.5 -61t-64.5 -27q-35 0 -61.5 26.5t-26.5 61.5zM856 1591q0 37 26 63.5t64 26.5q36 0 62 -25t26 -65q0 -34 -25.5 -61t-64.5 -27q-35 0 -61.5 26.5 t-26.5 61.5z" />
<glyph unicode="&#xc5;" horiz-adv-x="1503" d="M63 0v59q93 1 143 36.5t75 103.5l428 1224q8 26 14.5 32.5t28.5 6.5q15 0 23 -5t10.5 -10t7.5 -22l446 -1282q20 -59 55.5 -71.5t143.5 -12.5v-59q-31 4 -252 4q-233 0 -266 -4v59q155 0 155 62q0 10 -10 35l-113 321h-516l-94 -272q-10 -27 -10 -43q0 -44 36.5 -73 t100.5 -30v-59q-35 4 -209 4zM457 537h475l-238 682zM561 1645q0 72 54.5 125t138.5 53q75 0 131.5 -52.5t56.5 -130.5q0 -72 -54 -125t-138 -53q-76 0 -132.5 52.5t-56.5 130.5zM623 1642q0 -54 30.5 -88t98.5 -34q59 0 94 29t35 93q0 55 -31 89t-98 34q-58 0 -93.5 -29.5 t-35.5 -93.5z" />
<glyph unicode="&#xc6;" horiz-adv-x="1810" d="M63 0v59q165 0 218 136l409 1142q-25 2 -78 2h-84v60h1117l53 -457h-45q-11 116 -28.5 184.5t-57 120t-105 72t-170.5 20.5h-211q-65 0 -79.5 -14t-14.5 -68v-555h180q59 0 97.5 9.5t61.5 25t34.5 48.5t14.5 66t3 91h45v-539h-45q0 58 -3 91t-14.5 66t-34.5 48.5 t-61.5 25t-97.5 9.5h-180v-502q0 -54 14.5 -68t79.5 -14h209q50 0 91 4t75 14.5t61 22t49.5 33t38.5 40.5t30 51.5t23.5 59.5t19 71t15.5 79t15 90h45l-82 -524h-983v59q72 0 101 7t37 23.5t8 60.5v493h-334l-156 -438q-10 -27 -10 -43q0 -42 34 -72t103 -31v-59 q-33 4 -211 4zM522 702h312v537q0 15 -0.5 23t-4.5 24t-12.5 24t-26 15.5t-42.5 7.5z" />
<glyph unicode="&#xc7;" horiz-adv-x="1447" d="M111 700q0 153 56.5 291.5t151.5 237t223 156t267 57.5q109 0 209 -50t170 -137l100 162q2 3 4 7t3 5.5t3 4t2.5 3.5t2 2t2.5 1.5t2.5 1t3 0.5h4.5q15 0 17.5 -6t2.5 -29v-12v-486q0 -37 -5 -42q-6 -5 -23 -5q-5 0 -8.5 0.5t-6 1t-4 2t-3 2.5t-2.5 4.5t-1.5 5t-1.5 7 t-2 8.5q-32 224 -155.5 356.5t-288.5 132.5q-36 0 -76 -6.5t-93.5 -25.5t-102.5 -49.5t-97.5 -84t-84 -122t-57.5 -170.5t-22 -224q0 -123 22.5 -225.5t58 -172t84.5 -122.5t98 -83.5t103 -49.5t93.5 -25t75.5 -6q61 0 121.5 17t118.5 54.5t104 91t75.5 133t34.5 173.5 q0 9 1 13t6 8t16 4q16 0 19 -7t3 -28q0 -83 -33.5 -170.5t-94 -163.5t-156.5 -127t-209 -57v-86q90 0 155.5 -36t65.5 -103q0 -26 -11 -46.5t-35.5 -35t-49.5 -25.5t-67 -17t-74 -10t-84.5 -5.5t-83 -2t-85.5 -0.5h-45v45h23q197 0 268 18q88 23 88 79q0 47 -44.5 70.5 t-110.5 23.5v133q-129 12 -246 73.5t-204.5 157.5t-139 229t-51.5 281z" />
<glyph unicode="&#xc8;" horiz-adv-x="1363" d="M84 0v59h41q73 0 105.5 9.5t40.5 27t8 60.5v1083q0 33 -3 48t-19 28t-46 16.5t-86 3.5h-41v60h1114l53 -457h-45q-9 79 -19.5 132.5t-30 101t-46.5 76t-69 49.5t-97.5 29.5t-132.5 8.5h-272q-65 0 -80 -14.5t-15 -67.5v-499h187q74 0 117.5 11.5t66 43t29 71.5t6.5 113 h45v-538h-45q0 73 -6.5 113t-29 71.5t-66 43t-117.5 11.5h-187v-553q0 -53 15 -67.5t80 -14.5h278q74 0 130.5 9.5t99 26t74.5 47.5t53.5 64t38 86.5t27 104.5t22.5 127h45l-82 -524h-1141zM408 1774q-4 32 17 55.5t52 23.5q6 0 11 -1.5t8 -2t8.5 -4.5t7 -5t8.5 -7.5t8 -7.5 l293 -264q-2 -3 -26 -37l-344 196q-37 22 -43 54z" />
<glyph unicode="&#xc9;" horiz-adv-x="1363" d="M84 0v59h41q73 0 105.5 9.5t40.5 27t8 60.5v1083q0 33 -3 48t-19 28t-46 16.5t-86 3.5h-41v60h1114l53 -457h-45q-9 79 -19.5 132.5t-30 101t-46.5 76t-69 49.5t-97.5 29.5t-132.5 8.5h-272q-65 0 -80 -14.5t-15 -67.5v-499h187q74 0 117.5 11.5t66 43t29 71.5t6.5 113 h45v-538h-45q0 73 -6.5 113t-29 71.5t-66 43t-117.5 11.5h-187v-553q0 -53 15 -67.5t80 -14.5h278q74 0 130.5 9.5t99 26t74.5 47.5t53.5 64t38 86.5t27 104.5t22.5 127h45l-82 -524h-1141zM543 1561l293 264l4.5 4.5l4.5 4.5l4 4t4.5 4l4.5 3t4.5 2.5t4.5 2t5.5 2t6 1 t6.5 0.5q33 0 54 -23.5t17 -55.5q-6 -32 -43 -54l-344 -196q-24 34 -26 37z" />
<glyph unicode="&#xca;" horiz-adv-x="1363" d="M84 0v59h41q73 0 105.5 9.5t40.5 27t8 60.5v1083q0 33 -3 48t-19 28t-46 16.5t-86 3.5h-41v60h1114l53 -457h-45q-9 79 -19.5 132.5t-30 101t-46.5 76t-69 49.5t-97.5 29.5t-132.5 8.5h-272q-65 0 -80 -14.5t-15 -67.5v-499h187q74 0 117.5 11.5t66 43t29 71.5t6.5 113 h45v-538h-45q0 73 -6.5 113t-29 71.5t-66 43t-117.5 11.5h-187v-553q0 -53 15 -67.5t80 -14.5h278q74 0 130.5 9.5t99 26t74.5 47.5t53.5 64t38 86.5t27 104.5t22.5 127h45l-82 -524h-1141zM373 1536l309 240l309 -240l-24 -33l-287 135l-287 -135z" />
<glyph unicode="&#xcb;" horiz-adv-x="1363" d="M84 0v59h41q73 0 105.5 9.5t40.5 27t8 60.5v1083q0 33 -3 48t-19 28t-46 16.5t-86 3.5h-41v60h1114l53 -457h-45q-9 79 -19.5 132.5t-30 101t-46.5 76t-69 49.5t-97.5 29.5t-132.5 8.5h-272q-65 0 -80 -14.5t-15 -67.5v-499h187q74 0 117.5 11.5t66 43t29 71.5t6.5 113 h45v-538h-45q0 73 -6.5 113t-29 71.5t-66 43t-117.5 11.5h-187v-553q0 -53 15 -67.5t80 -14.5h278q74 0 130.5 9.5t99 26t74.5 47.5t53.5 64t38 86.5t27 104.5t22.5 127h45l-82 -524h-1141zM401 1591q0 37 26.5 63.5t64.5 26.5q36 0 62 -25t26 -65q0 -34 -25.5 -61 t-65.5 -27q-35 0 -61.5 26.5t-26.5 61.5zM786 1591q0 37 26.5 63.5t64.5 26.5q36 0 62 -25t26 -65q0 -34 -25.5 -61t-65.5 -27q-35 0 -61.5 26.5t-26.5 61.5z" />
<glyph unicode="&#xcc;" horiz-adv-x="722" d="M74 0v59h45q59 0 91 3.5t47.5 17t18.5 28.5t3 48v1087q0 27 -2 39.5t-9.5 26.5t-25 19t-46.5 8t-77 3h-45v60q33 -4 288 -4q254 0 287 4v-60h-45q-48 0 -77 -3t-46.5 -8t-25 -19t-9.5 -26.5t-2 -39.5v-1087q0 -33 3 -48t18.5 -28.5t47.5 -17t91 -3.5h45v-59q-33 4 -289 4 q-253 0 -286 -4zM88 1774q-4 32 17.5 55.5t52.5 23.5q6 0 11 -1.5t8 -2t8.5 -4.5t7 -5t8.5 -7.5t8 -7.5l293 -264q-5 -8 -15 -21t-12 -16l-344 196q-37 22 -43 54z" />
<glyph unicode="&#xcd;" horiz-adv-x="722" d="M74 0v59h45q59 0 91 3.5t47.5 17t18.5 28.5t3 48v1087q0 27 -2 39.5t-9.5 26.5t-25 19t-46.5 8t-77 3h-45v60q33 -4 288 -4q254 0 287 4v-60h-45q-48 0 -77 -3t-46.5 -8t-25 -19t-9.5 -26.5t-2 -39.5v-1087q0 -33 3 -48t18.5 -28.5t47.5 -17t91 -3.5h45v-59q-33 4 -289 4 q-253 0 -286 -4zM223 1561l293 264l4.5 4.5l4.5 4.5l4 4t4.5 4l4.5 3t4.5 2.5t4.5 2t5.5 2t6 1t6.5 0.5q33 0 54.5 -23.5t17.5 -55.5q-6 -32 -43 -54l-344 -196q-2 3 -12 16t-15 21z" />
<glyph unicode="&#xce;" horiz-adv-x="722" d="M53 1536l309 240l310 -240l-25 -33l-287 135l-286 -135zM74 0v59h45q59 0 91 3.5t47.5 17t18.5 28.5t3 48v1087q0 27 -2 39.5t-9.5 26.5t-25 19t-46.5 8t-77 3h-45v60q33 -4 288 -4q254 0 287 4v-60h-45q-48 0 -77 -3t-46.5 -8t-25 -19t-9.5 -26.5t-2 -39.5v-1087 q0 -33 3 -48t18.5 -28.5t47.5 -17t91 -3.5h45v-59q-33 4 -289 4q-253 0 -286 -4z" />
<glyph unicode="&#xcf;" horiz-adv-x="722" d="M74 0v59h45q59 0 91 3.5t47.5 17t18.5 28.5t3 48v1087q0 27 -2 39.5t-9.5 26.5t-25 19t-46.5 8t-77 3h-45v60q33 -4 288 -4q254 0 287 4v-60h-45q-48 0 -77 -3t-46.5 -8t-25 -19t-9.5 -26.5t-2 -39.5v-1087q0 -33 3 -48t18.5 -28.5t47.5 -17t91 -3.5h45v-59q-33 4 -289 4 q-253 0 -286 -4zM82 1591q0 37 26 63.5t64 26.5q36 0 62 -25t26 -65q0 -34 -25.5 -61t-64.5 -27q-35 0 -61.5 26.5t-26.5 61.5zM467 1591q0 37 26 63.5t64 26.5q36 0 62 -25t26 -65q0 -34 -25.5 -61t-64.5 -27q-35 0 -61.5 26.5t-26.5 61.5z" />
<glyph unicode="&#xd0;" horiz-adv-x="1531" d="M86 0v59h41q73 0 105.5 9.5t40.5 27t8 60.5v516h-195v57h195v514q0 33 -3 48t-19 28t-46 16.5t-86 3.5h-41v60h717q125 0 239 -56.5t196.5 -151.5t131.5 -227.5t49 -277.5q0 -186 -82 -343.5t-224 -250t-310 -92.5h-717zM442 141q0 -53 15 -67.5t80 -14.5h215 q120 0 212.5 48t149.5 122q41 54 67 117.5t36 130t13 110t3 101.5q0 289 -92 434q-64 104 -163 160.5t-226 56.5h-215q-65 0 -80 -14.5t-15 -67.5v-528h324v-57h-324v-531z" />
<glyph unicode="&#xd1;" horiz-adv-x="1503" d="M84 0v59q56 0 95 11.5t58 26t29 40t11.5 40t1.5 38.5v1110q-55 14 -195 14v60h313q34 0 43 -4t23 -25l711 -1081v895q0 24 -1.5 38.5t-11.5 39.5t-29 39.5t-58 26t-95 11.5v60q37 -4 219 -4q184 0 219 4v-60q-47 0 -82 -7t-55 -21t-33 -27.5t-17.5 -35t-5.5 -33t-1 -31.5 v-1172q-4 -12 -25 -12q-10 0 -15 4t-22 27l-799 1216q-28 39 -34 45v-1077q0 -18 0.5 -27.5t4 -28t10.5 -30t21 -26.5t34 -23.5t52 -14.5t72 -6v-59q-35 4 -219 4q-182 0 -219 -4zM418 1532q13 14 38.5 41t35 36.5t28.5 27.5t29 24t25.5 15t29.5 11.5t31 2.5q22 0 47.5 -9.5 t38 -16.5t43.5 -26q72 -49 123 -49q45 0 79.5 23.5t88.5 77.5l28 -29q-39 -43 -53.5 -58.5t-41.5 -41.5t-42 -34.5t-36.5 -16t-43.5 -7.5t-47 9t-39 16.5t-43 25.5q-73 50 -123 50q-45 0 -79.5 -23.5t-88.5 -77.5z" />
<glyph unicode="&#xd2;" horiz-adv-x="1560" d="M111 694q0 154 53.5 293.5t143.5 238.5t213 157.5t259 58.5q131 0 253.5 -58t213.5 -156.5t146 -238.5t55 -295q0 -202 -90.5 -372t-244.5 -267.5t-335 -97.5q-177 0 -330 96t-245 266.5t-92 374.5zM301 725q0 -151 30 -275.5t78.5 -205.5t112 -136.5t128.5 -79.5 t130 -24q62 0 125.5 23t127.5 78t113 135.5t80 206t31 278.5q0 143 -30.5 260t-79 192t-112.5 126t-128 72.5t-129 21.5q-61 0 -124 -21t-127 -72t-113.5 -125.5t-81 -192t-31.5 -261.5zM506 1774q-4 32 17 55.5t52 23.5q11 0 21 -5t13.5 -7.5t17.5 -15.5l293 -264 q-5 -8 -15 -21t-12 -16l-344 196q-37 22 -43 54z" />
<glyph unicode="&#xd3;" horiz-adv-x="1560" d="M111 694q0 154 53.5 293.5t143.5 238.5t213 157.5t259 58.5q131 0 253.5 -58t213.5 -156.5t146 -238.5t55 -295q0 -202 -90.5 -372t-244.5 -267.5t-335 -97.5q-177 0 -330 96t-245 266.5t-92 374.5zM301 725q0 -151 30 -275.5t78.5 -205.5t112 -136.5t128.5 -79.5 t130 -24q62 0 125.5 23t127.5 78t113 135.5t80 206t31 278.5q0 143 -30.5 260t-79 192t-112.5 126t-128 72.5t-129 21.5q-61 0 -124 -21t-127 -72t-113.5 -125.5t-81 -192t-31.5 -261.5zM641 1561l293 264l4.5 4.5l4.5 4.5l4 4t4.5 4l4.5 3t4.5 2.5t4.5 2t5.5 2t6 1t6.5 0.5 q33 0 54.5 -23.5t17.5 -55.5q-6 -32 -43 -54l-344 -196q-2 3 -12 16t-15 21z" />
<glyph unicode="&#xd4;" horiz-adv-x="1560" d="M111 694q0 154 53.5 293.5t143.5 238.5t213 157.5t259 58.5q131 0 253.5 -58t213.5 -156.5t146 -238.5t55 -295q0 -202 -90.5 -372t-244.5 -267.5t-335 -97.5q-177 0 -330 96t-245 266.5t-92 374.5zM301 725q0 -151 30 -275.5t78.5 -205.5t112 -136.5t128.5 -79.5 t130 -24q62 0 125.5 23t127.5 78t113 135.5t80 206t31 278.5q0 143 -30.5 260t-79 192t-112.5 126t-128 72.5t-129 21.5q-61 0 -124 -21t-127 -72t-113.5 -125.5t-81 -192t-31.5 -261.5zM471 1536l309 240l310 -240l-25 -33l-287 135l-286 -135z" />
<glyph unicode="&#xd5;" horiz-adv-x="1560" d="M111 694q0 154 53.5 293.5t143.5 238.5t213 157.5t259 58.5q131 0 253.5 -58t213.5 -156.5t146 -238.5t55 -295q0 -202 -90.5 -372t-244.5 -267.5t-335 -97.5q-177 0 -330 96t-245 266.5t-92 374.5zM301 725q0 -151 30 -275.5t78.5 -205.5t112 -136.5t128.5 -79.5 t130 -24q62 0 125.5 23t127.5 78t113 135.5t80 206t31 278.5q0 143 -30.5 260t-79 192t-112.5 126t-128 72.5t-129 21.5q-61 0 -124 -21t-127 -72t-113.5 -125.5t-81 -192t-31.5 -261.5zM446 1532q12 12 39 40.5t35.5 37t28 27.5t29 24.5t25.5 14.5t30 11.5t31 2.5 q22 0 47.5 -9.5t38 -16.5t43.5 -26q72 -49 122 -49q45 0 79.5 23.5t88.5 77.5l29 -29q-39 -43 -53.5 -58.5t-41.5 -41.5t-42 -34.5t-36.5 -16t-43.5 -7.5t-47 9t-39 16.5t-43 25.5q-73 50 -123 50q-45 0 -79.5 -23.5t-88.5 -77.5z" />
<glyph unicode="&#xd6;" horiz-adv-x="1560" d="M111 694q0 154 53.5 293.5t143.5 238.5t213 157.5t259 58.5q131 0 253.5 -58t213.5 -156.5t146 -238.5t55 -295q0 -202 -90.5 -372t-244.5 -267.5t-335 -97.5q-177 0 -330 96t-245 266.5t-92 374.5zM301 725q0 -151 30 -275.5t78.5 -205.5t112 -136.5t128.5 -79.5 t130 -24q62 0 125.5 23t127.5 78t113 135.5t80 206t31 278.5q0 143 -30.5 260t-79 192t-112.5 126t-128 72.5t-129 21.5q-61 0 -124 -21t-127 -72t-113.5 -125.5t-81 -192t-31.5 -261.5zM500 1591q0 37 26 63.5t64 26.5q36 0 62 -25t26 -65q0 -34 -25.5 -61t-64.5 -27 q-35 0 -61.5 26.5t-26.5 61.5zM885 1591q0 37 26 63.5t64 26.5q36 0 62 -25t26 -65q0 -34 -25.5 -61t-64.5 -27q-35 0 -61.5 26.5t-26.5 61.5z" />
<glyph unicode="&#xd7;" horiz-adv-x="1560" d="M294 58q-2 9 4 19t11 16t17 18l399 401l-399 399q-13 13 -17 17.5t-10.5 15.5t-4 20.5t12.5 20.5q10 9 19 11t19 -3.5t16.5 -11t17.5 -16.5l401 -400l400 400q13 13 17.5 17t15 10t20 3.5t20.5 -12.5q9 -10 11 -19t-3.5 -19t-11 -16.5t-16.5 -17.5l-399 -399l399 -401 q12 -12 16.5 -17.5t10.5 -16t3.5 -20t-12.5 -20.5q-10 -9 -19 -11t-19 3.5t-15.5 10.5t-17.5 17l-400 400l-401 -400q-12 -12 -17.5 -16.5t-16 -10.5t-20 -3.5t-20.5 12.5q-9 10 -11 19z" />
<glyph unicode="&#xd8;" horiz-adv-x="1560" d="M111 694q0 154 53.5 293.5t143.5 238.5t213 157.5t259 58.5q124 0 223.5 -42.5t161.5 -94.5l142 206l34 -24l-141 -213q17 -14 37 -34.5t61 -76t71.5 -116.5t54.5 -156.5t24 -196.5q0 -202 -90.5 -372t-244.5 -267.5t-335 -97.5q-208 0 -387 135l-139 -205l-35 25 l141 211q-121 107 -184 257.5t-63 313.5zM276 696q0 -165 31 -285.5t101 -215.5l712 1048q-29 29 -50.5 47t-66.5 48.5t-102.5 46.5t-122.5 16q-23 0 -51 -3t-79.5 -19t-98 -42.5t-98 -80t-89 -125t-62 -184t-24.5 -251.5zM436 156q18 -21 44.5 -43.5t70 -50.5t104 -46 t125.5 -18q27 0 58.5 4t82.5 20.5t97 44t96 81t86 124t59 180.5t23 244q0 323 -131 508z" />
<glyph unicode="&#xd9;" horiz-adv-x="1503" d="M84 1339v60q31 -4 278 -4q244 0 277 4v-60h-41q-56 0 -86 -3.5t-46 -16.5t-19 -28t-3 -48v-786q0 -102 23.5 -182.5t59 -128t82.5 -78t88.5 -41.5t82.5 -11q72 0 141 31.5t124 88t88.5 144t33.5 191.5v717q0 17 -0.5 26t-4 27.5t-10.5 29.5t-21 25.5t-34 22.5t-52 14 t-72 6v60q35 -4 223 -4q186 0 221 4v-60q-194 0 -194 -125v-774q0 -62 -18.5 -128.5t-57 -130t-90.5 -113.5t-125.5 -80.5t-155.5 -30.5q-130 0 -243.5 65t-183.5 184t-70 263v774q0 33 -3 48t-19 28t-46 16.5t-86 3.5h-41zM522 1774q-4 32 17.5 55.5t52.5 23.5q6 0 11 -1.5 t8 -2t8.5 -4.5t7 -5t8.5 -7.5t8 -7.5l293 -264q-5 -8 -15 -21t-12 -16l-344 196q-37 22 -43 54z" />
<glyph unicode="&#xda;" horiz-adv-x="1503" d="M84 1339v60q31 -4 278 -4q244 0 277 4v-60h-41q-56 0 -86 -3.5t-46 -16.5t-19 -28t-3 -48v-786q0 -102 23.5 -182.5t59 -128t82.5 -78t88.5 -41.5t82.5 -11q72 0 141 31.5t124 88t88.5 144t33.5 191.5v717q0 17 -0.5 26t-4 27.5t-10.5 29.5t-21 25.5t-34 22.5t-52 14 t-72 6v60q35 -4 223 -4q186 0 221 4v-60q-194 0 -194 -125v-774q0 -62 -18.5 -128.5t-57 -130t-90.5 -113.5t-125.5 -80.5t-155.5 -30.5q-130 0 -243.5 65t-183.5 184t-70 263v774q0 33 -3 48t-19 28t-46 16.5t-86 3.5h-41zM657 1561l293 264l4.5 4.5l4.5 4.5l4 4t4.5 4 l4.5 3t4.5 2.5t4.5 2t5.5 2t6 1t6.5 0.5q33 0 54.5 -23.5t17.5 -55.5q-6 -32 -43 -54l-344 -196q-2 3 -12 16t-15 21z" />
<glyph unicode="&#xdb;" horiz-adv-x="1503" d="M84 1339v60q31 -4 278 -4q244 0 277 4v-60h-41q-56 0 -86 -3.5t-46 -16.5t-19 -28t-3 -48v-786q0 -102 23.5 -182.5t59 -128t82.5 -78t88.5 -41.5t82.5 -11q72 0 141 31.5t124 88t88.5 144t33.5 191.5v717q0 17 -0.5 26t-4 27.5t-10.5 29.5t-21 25.5t-34 22.5t-52 14 t-72 6v60q35 -4 223 -4q186 0 221 4v-60q-194 0 -194 -125v-774q0 -62 -18.5 -128.5t-57 -130t-90.5 -113.5t-125.5 -80.5t-155.5 -30.5q-130 0 -243.5 65t-183.5 184t-70 263v774q0 33 -3 48t-19 28t-46 16.5t-86 3.5h-41zM487 1536l310 240l309 -240l-25 -33l-286 135 l-287 -135z" />
<glyph unicode="&#xdc;" horiz-adv-x="1503" d="M84 1339v60q31 -4 278 -4q244 0 277 4v-60h-41q-56 0 -86 -3.5t-46 -16.5t-19 -28t-3 -48v-786q0 -102 23.5 -182.5t59 -128t82.5 -78t88.5 -41.5t82.5 -11q72 0 141 31.5t124 88t88.5 144t33.5 191.5v717q0 17 -0.5 26t-4 27.5t-10.5 29.5t-21 25.5t-34 22.5t-52 14 t-72 6v60q35 -4 223 -4q186 0 221 4v-60q-194 0 -194 -125v-774q0 -62 -18.5 -128.5t-57 -130t-90.5 -113.5t-125.5 -80.5t-155.5 -30.5q-130 0 -243.5 65t-183.5 184t-70 263v774q0 33 -3 48t-19 28t-46 16.5t-86 3.5h-41zM516 1591q0 37 26 63.5t64 26.5q36 0 62 -25 t26 -65q0 -34 -25.5 -61t-64.5 -27q-35 0 -61.5 26.5t-26.5 61.5zM901 1591q0 37 26 63.5t64 26.5q36 0 62 -25t26 -65q0 -34 -25.5 -61t-64.5 -27q-35 0 -61.5 26.5t-26.5 61.5z" />
<glyph unicode="&#xdd;" horiz-adv-x="1503" d="M20 1339v60q34 -4 252 -4q240 0 271 4v-60q-64 0 -95.5 -9.5t-31.5 -39.5q0 -13 16 -39l381 -616l346 563q17 25 21 35.5t4 30.5q0 36 -28.5 55.5t-74.5 19.5v60q34 -4 209 -4l191 4v-60q-167 0 -250 -133l-400 -645v-409q0 -41 7 -57.5t39.5 -26t107.5 -9.5h41v-59 q-33 4 -276 4q-244 0 -275 -4v59h41q73 0 105.5 9.5t40.5 27t8 60.5v403l-432 701q-33 54 -69.5 66.5t-148.5 12.5zM612 1561l293 264l4.5 4.5l4.5 4.5l4 4t4.5 4l4.5 3t4.5 2.5t4.5 2t5.5 2t6 1t6.5 0.5q33 0 54.5 -23.5t17.5 -55.5q-6 -32 -43 -54l-344 -196q-2 3 -12 16 t-15 21z" />
<glyph unicode="&#xde;" horiz-adv-x="1253" d="M86 -2v61q133 0 164 14.5t31 86.5v1079q0 26 -1.5 41.5t-11.5 28t-19 17.5t-36.5 8.5t-51.5 4t-75 0.5v62l272 -6l273 6v-62q-51 0 -75 -0.5t-51.5 -4t-36.5 -8.5t-19 -17.5t-11.5 -28t-1.5 -41.5v-109h264q107 0 194 -35t138.5 -92t79 -122.5t27.5 -132.5 q0 -155 -119 -269t-299 -114h-285v-205q0 -72 31 -86.5t164 -14.5v-61l-273 6zM436 424h219q134 0 215.5 96.5t81.5 229.5t-80 231q-80 90 -206 90h-230v-647z" />
<glyph unicode="&#xdf;" d="M57 0v59q40 0 58.5 0.5t40.5 3.5t29.5 8t16 16t10 26t1.5 39v671h-156v60h156v258q0 139 101.5 220t234.5 81q145 0 243.5 -85.5t98.5 -203.5q0 -103 -80.5 -184t-200.5 -111q151 -49 243.5 -190t92.5 -312q0 -162 -107 -269t-247 -107q-85 0 -139 43t-54 102 q0 33 20 51.5t48 18.5q27 0 46 -17.5t19 -50.5q0 -22 -14 -41.5t-43 -24.5q43 -41 113 -41q25 0 51.5 8.5t56.5 32.5t53 60t38.5 97t15.5 138q0 125 -35 228.5t-110.5 175t-180.5 82.5q-10 1 -13 2t-7 5.5t-4 12.5t2 10q3 8 12 11q98 12 152 40q129 67 129 232 q0 64 -19 113.5t-49.5 77.5t-63.5 41.5t-67 13.5q-14 0 -32.5 -3t-51.5 -18t-58.5 -40.5t-45 -77.5t-19.5 -121v-1141q-21 4 -113 4q-135 0 -172 -4z" />
<glyph unicode="&#xe0;" d="M70 193q0 61 31.5 117.5t96 105.5t178 79.5t261.5 32.5v82q0 66 -20.5 118t-53 82.5t-69 46t-72.5 15.5q-68 0 -131 -30t-96 -92q18 0 30.5 -1.5t32 -8.5t30.5 -26t11 -48q0 -37 -23.5 -60.5t-60.5 -23.5t-61.5 23t-24.5 65q0 101 85.5 172t211.5 71q151 0 254 -94 q42 -40 62.5 -85.5t24 -81.5t3.5 -105v-359q0 -139 78 -139q12 0 23.5 5t25 17.5t21.5 41t8 69.5v115h45v-115q0 -47 -13 -83t-31.5 -56t-42 -32.5t-41.5 -16.5t-34 -4q-65 0 -109.5 48.5t-50.5 121.5q-31 -79 -100 -129.5t-166 -50.5q-51 0 -101.5 11t-100 33.5t-80.5 66.5 t-31 102zM215 193q0 -73 54 -123t130 -50q36 0 74.5 14t76.5 43.5t62.5 84.5t24.5 127v203l-34.5 -3t-48 -6t-60.5 -11t-63 -18t-65 -27t-57 -38t-50 -50t-31.5 -64.5t-12.5 -81.5zM256 1360q0 28 21.5 47.5t48.5 19.5q15 0 25.5 -5t16 -11t15.5 -20l244 -312 q-12 -15 -33 -32l-305 253q-33 27 -33 60z" />
<glyph unicode="&#xe1;" d="M70 193q0 61 31.5 117.5t96 105.5t178 79.5t261.5 32.5v82q0 66 -20.5 118t-53 82.5t-69 46t-72.5 15.5q-68 0 -131 -30t-96 -92q18 0 30.5 -1.5t32 -8.5t30.5 -26t11 -48q0 -37 -23.5 -60.5t-60.5 -23.5t-61.5 23t-24.5 65q0 101 85.5 172t211.5 71q151 0 254 -94 q42 -40 62.5 -85.5t24 -81.5t3.5 -105v-359q0 -139 78 -139q12 0 23.5 5t25 17.5t21.5 41t8 69.5v115h45v-115q0 -47 -13 -83t-31.5 -56t-42 -32.5t-41.5 -16.5t-34 -4q-65 0 -109.5 48.5t-50.5 121.5q-31 -79 -100 -129.5t-166 -50.5q-51 0 -101.5 11t-100 33.5t-80.5 66.5 t-31 102zM215 193q0 -73 54 -123t130 -50q36 0 74.5 14t76.5 43.5t62.5 84.5t24.5 127v203l-34.5 -3t-48 -6t-60.5 -11t-63 -18t-65 -27t-57 -38t-50 -50t-31.5 -64.5t-12.5 -81.5zM377 1079l244 312q10 14 15.5 20t16 11t25.5 5q27 0 48.5 -19.5t21.5 -47.5q0 -33 -33 -60 l-305 -253q-21 17 -33 32z" />
<glyph unicode="&#xe2;" d="M70 193q0 61 31.5 117.5t96 105.5t178 79.5t261.5 32.5v82q0 66 -20.5 118t-53 82.5t-69 46t-72.5 15.5q-68 0 -131 -30t-96 -92q18 0 30.5 -1.5t32 -8.5t30.5 -26t11 -48q0 -37 -23.5 -60.5t-60.5 -23.5t-61.5 23t-24.5 65q0 101 85.5 172t211.5 71q151 0 254 -94 q42 -40 62.5 -85.5t24 -81.5t3.5 -105v-359q0 -139 78 -139q12 0 23.5 5t25 17.5t21.5 41t8 69.5v115h45v-115q0 -47 -13 -83t-31.5 -56t-42 -32.5t-41.5 -16.5t-34 -4q-65 0 -109.5 48.5t-50.5 121.5q-31 -79 -100 -129.5t-166 -50.5q-51 0 -101.5 11t-100 33.5t-80.5 66.5 t-31 102zM190 1085l312 332l311 -332l-27 -28l-284 221l-285 -221zM215 193q0 -73 54 -123t130 -50q36 0 74.5 14t76.5 43.5t62.5 84.5t24.5 127v203l-34.5 -3t-48 -6t-60.5 -11t-63 -18t-65 -27t-57 -38t-50 -50t-31.5 -64.5t-12.5 -81.5z" />
<glyph unicode="&#xe3;" d="M70 193q0 61 31.5 117.5t96 105.5t178 79.5t261.5 32.5v82q0 66 -20.5 118t-53 82.5t-69 46t-72.5 15.5q-68 0 -131 -30t-96 -92q18 0 30.5 -1.5t32 -8.5t30.5 -26t11 -48q0 -37 -23.5 -60.5t-60.5 -23.5t-61.5 23t-24.5 65q0 101 85.5 172t211.5 71q151 0 254 -94 q42 -40 62.5 -85.5t24 -81.5t3.5 -105v-359q0 -139 78 -139q12 0 23.5 5t25 17.5t21.5 41t8 69.5v115h45v-115q0 -47 -13 -83t-31.5 -56t-42 -32.5t-41.5 -16.5t-34 -4q-65 0 -109.5 48.5t-50.5 121.5q-31 -79 -100 -129.5t-166 -50.5q-51 0 -101.5 11t-100 33.5t-80.5 66.5 t-31 102zM168 1174q12 12 38.5 40.5t35 37t28.5 27t29.5 24t25 14.5t29.5 11.5t31 2.5q22 0 47 -9t39 -16.5t43 -25.5q72 -49 123 -49q45 0 80 23.5t88 76.5l29 -28q-60 -66 -85.5 -91.5t-60.5 -46t-72 -20.5q-22 0 -47 9t-39 16.5t-43 25.5q-72 49 -122 49q-45 0 -80 -23.5 t-88 -76.5zM215 193q0 -73 54 -123t130 -50q36 0 74.5 14t76.5 43.5t62.5 84.5t24.5 127v203l-34.5 -3t-48 -6t-60.5 -11t-63 -18t-65 -27t-57 -38t-50 -50t-31.5 -64.5t-12.5 -81.5z" />
<glyph unicode="&#xe4;" d="M70 193q0 61 31.5 117.5t96 105.5t178 79.5t261.5 32.5v82q0 66 -20.5 118t-53 82.5t-69 46t-72.5 15.5q-68 0 -131 -30t-96 -92q18 0 30.5 -1.5t32 -8.5t30.5 -26t11 -48q0 -37 -23.5 -60.5t-60.5 -23.5t-61.5 23t-24.5 65q0 101 85.5 172t211.5 71q151 0 254 -94 q42 -40 62.5 -85.5t24 -81.5t3.5 -105v-359q0 -139 78 -139q12 0 23.5 5t25 17.5t21.5 41t8 69.5v115h45v-115q0 -47 -13 -83t-31.5 -56t-42 -32.5t-41.5 -16.5t-34 -4q-65 0 -109.5 48.5t-50.5 121.5q-31 -79 -100 -129.5t-166 -50.5q-51 0 -101.5 11t-100 33.5t-80.5 66.5 t-31 102zM215 193q0 -73 54 -123t130 -50q36 0 74.5 14t76.5 43.5t62.5 84.5t24.5 127v203l-34.5 -3t-48 -6t-60.5 -11t-63 -18t-65 -27t-57 -38t-50 -50t-31.5 -64.5t-12.5 -81.5zM250 1237q0 37 26 63.5t64 26.5q36 0 62 -25t26 -65q0 -34 -25.5 -61t-64.5 -27 q-35 0 -61.5 26.5t-26.5 61.5zM578 1237q0 37 26 63.5t64 26.5q36 0 62 -25t26 -65q0 -34 -25.5 -61t-64.5 -27q-35 0 -61.5 26.5t-26.5 61.5z" />
<glyph unicode="&#xe5;" d="M70 193q0 61 31.5 117.5t96 105.5t178 79.5t261.5 32.5v82q0 66 -20.5 118t-53 82.5t-69 46t-72.5 15.5q-68 0 -131 -30t-96 -92q18 0 30.5 -1.5t32 -8.5t30.5 -26t11 -48q0 -37 -23.5 -60.5t-60.5 -23.5t-61.5 23t-24.5 65q0 101 85.5 172t211.5 71q151 0 254 -94 q42 -40 62.5 -85.5t24 -81.5t3.5 -105v-359q0 -139 78 -139q12 0 23.5 5t25 17.5t21.5 41t8 69.5v115h45v-115q0 -47 -13 -83t-31.5 -56t-42 -32.5t-41.5 -16.5t-34 -4q-65 0 -109.5 48.5t-50.5 121.5q-31 -79 -100 -129.5t-166 -50.5q-51 0 -101.5 11t-100 33.5t-80.5 66.5 t-31 102zM215 193q0 -73 54 -123t130 -50q36 0 74.5 14t76.5 43.5t62.5 84.5t24.5 127v203l-34.5 -3t-48 -6t-60.5 -11t-63 -18t-65 -27t-57 -38t-50 -50t-31.5 -64.5t-12.5 -81.5zM311 1262q0 72 54.5 125t138.5 53q75 0 131.5 -52.5t56.5 -130.5q0 -72 -54 -125t-138 -53 q-76 0 -132.5 52.5t-56.5 130.5zM373 1260q0 -55 31 -89t98 -34q58 0 93.5 29.5t35.5 93.5q0 54 -30.5 88t-98.5 34q-59 0 -94 -29t-35 -93z" />
<glyph unicode="&#xe6;" horiz-adv-x="1447" d="M94 184q0 23 4 46.5t19 55.5t38.5 60t67 57.5t100.5 51t143 37t191 18.5v100q0 127 -66 194.5t-149 67.5q-66 0 -129.5 -30.5t-97.5 -91.5q18 0 30.5 -1.5t32 -8.5t30.5 -26t11 -48q0 -37 -23 -60.5t-60 -23.5t-61.5 23t-24.5 65q0 100 86 171.5t213 71.5q28 0 56.5 -4 t75 -17.5t93 -49t82.5 -88.5q56 77 135 118t166 41q107 0 184 -54.5t113.5 -143t36.5 -201.5q0 -29 -7 -34t-43 -5h-550q0 -201 63 -303q42 -71 104.5 -109t131.5 -38q48 0 94 18t92.5 70t69.5 133q6 18 22 18q23 0 23 -20q0 -14 -10.5 -43t-35.5 -67.5t-59 -72.5 t-88.5 -57.5t-116.5 -23.5q-31 0 -64 6t-81.5 23t-99.5 57t-93 98q-41 -86 -131 -135t-206 -49q-56 0 -109 11.5t-99.5 35t-75 64t-28.5 93.5zM240 186q0 -72 53 -119t127 -47q102 0 181 71.5t79 180.5q0 23 -8 58q-15 59 -15 141q-57 -5 -87 -8.5t-89.5 -19.5t-105.5 -42 q-71 -40 -103 -102t-32 -113zM793 514h471q0 24 -2 51t-8 71.5t-20.5 82.5t-36.5 74.5t-58.5 57.5t-83.5 21q-14 0 -32 -3.5t-48 -14.5t-57.5 -36t-54.5 -62t-46 -100t-24 -142z" />
<glyph unicode="&#xe7;" horiz-adv-x="890" d="M72 442q0 194 126 332.5t304 138.5q127 0 218 -67t91 -168q0 -42 -24.5 -65t-61.5 -23t-60.5 23.5t-23.5 60.5q0 84 100 84q-32 55 -100 82.5t-137 27.5q-34 0 -69 -11t-73.5 -41t-67.5 -76t-48 -122.5t-19 -173.5q0 -111 27.5 -196t72 -131.5t93 -69t98.5 -22.5 q91 0 161.5 50.5t104.5 155.5q5 20 9.5 25.5t17.5 5.5q20 0 20 -18q0 -9 -7 -32.5t-28 -61t-52 -71.5t-86 -62.5t-123 -34.5v-111q90 0 156.5 -36t66.5 -103q0 -26 -11 -46.5t-35.5 -35t-50 -25.5t-67.5 -17t-74 -10t-84 -5.5t-83 -2t-85 -0.5h-45v45h23q198 0 269 19 q87 22 87 78q0 46 -46 70t-112 24v158q-157 21 -264.5 150.5t-107.5 307.5z" />
<glyph unicode="&#xe8;" horiz-adv-x="890" d="M61 449q0 192 119.5 328t294.5 136q89 0 159.5 -33t113 -90t64.5 -127t22 -149q0 -29 -7 -34t-43 -5h-567v-39q0 -101 22.5 -178.5t55.5 -120t75.5 -69.5t75.5 -35t64 -8q36 0 73.5 10.5t77 34t73 68.5t52.5 106q1 1 3 4.5t3 5t3 4t4 3.5t5 2t7 1q23 0 23 -20 q0 -15 -11 -44t-37.5 -67.5t-63.5 -72t-96 -57t-128 -23.5q-85 0 -164.5 35.5t-140 97t-96.5 149.5t-36 187zM201 1360q0 28 21 47.5t48 19.5q21 0 32.5 -8t25.5 -28l243 -312q-15 -17 -32 -32l-306 253q-32 26 -32 60zM219 514h488q0 24 -2.5 52t-9.5 72t-23.5 82.5t-41 74 t-65 56.5t-92.5 21q-17 0 -37.5 -4.5t-49.5 -17t-55.5 -38.5t-51 -63t-40.5 -98t-20 -137z" />
<glyph unicode="&#xe9;" horiz-adv-x="890" d="M61 449q0 192 119.5 328t294.5 136q89 0 159.5 -33t113 -90t64.5 -127t22 -149q0 -29 -7 -34t-43 -5h-567v-39q0 -101 22.5 -178.5t55.5 -120t75.5 -69.5t75.5 -35t64 -8q36 0 73.5 10.5t77 34t73 68.5t52.5 106q1 1 3 4.5t3 5t3 4t4 3.5t5 2t7 1q23 0 23 -20 q0 -15 -11 -44t-37.5 -67.5t-63.5 -72t-96 -57t-128 -23.5q-85 0 -164.5 35.5t-140 97t-96.5 149.5t-36 187zM219 514h488q0 24 -2.5 52t-9.5 72t-23.5 82.5t-41 74t-65 56.5t-92.5 21q-17 0 -37.5 -4.5t-49.5 -17t-55.5 -38.5t-51 -63t-40.5 -98t-20 -137zM322 1079 l243 312q14 20 25.5 28t32.5 8q27 0 48 -19.5t21 -47.5q0 -33 -33 -60l-305 -253q-17 15 -32 32z" />
<glyph unicode="&#xea;" horiz-adv-x="890" d="M61 449q0 192 119.5 328t294.5 136q89 0 159.5 -33t113 -90t64.5 -127t22 -149q0 -29 -7 -34t-43 -5h-567v-39q0 -101 22.5 -178.5t55.5 -120t75.5 -69.5t75.5 -35t64 -8q36 0 73.5 10.5t77 34t73 68.5t52.5 106q1 1 3 4.5t3 5t3 4t4 3.5t5 2t7 1q23 0 23 -20 q0 -15 -11 -44t-37.5 -67.5t-63.5 -72t-96 -57t-128 -23.5q-85 0 -164.5 35.5t-140 97t-96.5 149.5t-36 187zM135 1085l311 332l312 -332l-27 -28l-285 221l-284 -221zM219 514h488q0 24 -2.5 52t-9.5 72t-23.5 82.5t-41 74t-65 56.5t-92.5 21q-17 0 -37.5 -4.5t-49.5 -17 t-55.5 -38.5t-51 -63t-40.5 -98t-20 -137z" />
<glyph unicode="&#xeb;" horiz-adv-x="890" d="M61 449q0 192 119.5 328t294.5 136q89 0 159.5 -33t113 -90t64.5 -127t22 -149q0 -29 -7 -34t-43 -5h-567v-39q0 -101 22.5 -178.5t55.5 -120t75.5 -69.5t75.5 -35t64 -8q36 0 73.5 10.5t77 34t73 68.5t52.5 106q1 1 3 4.5t3 5t3 4t4 3.5t5 2t7 1q23 0 23 -20 q0 -15 -11 -44t-37.5 -67.5t-63.5 -72t-96 -57t-128 -23.5q-85 0 -164.5 35.5t-140 97t-96.5 149.5t-36 187zM195 1237q0 37 26 63.5t64 26.5q36 0 62 -25t26 -65q0 -34 -25.5 -61t-64.5 -27q-35 0 -61.5 26.5t-26.5 61.5zM219 514h488q0 24 -2.5 52t-9.5 72t-23.5 82.5 t-41 74t-65 56.5t-92.5 21q-17 0 -37.5 -4.5t-49.5 -17t-55.5 -38.5t-51 -63t-40.5 -98t-20 -137zM522 1237q0 37 26 63.5t64 26.5q36 0 62 -25t26 -65q0 -34 -25.5 -61t-64.5 -27q-35 0 -61.5 26.5t-26.5 61.5z" />
<glyph unicode="&#xec;" horiz-adv-x="557" d="M33 1360q0 28 21 47.5t48 19.5q21 0 32.5 -8t25.5 -28l243 -312q-15 -17 -32 -32l-305 253q-33 27 -33 60zM68 0v59h45.5t34.5 1.5t28 3.5t19 7t14.5 11t7.5 16.5t5 23t1 30.5v557q0 75 -25 93.5t-124 18.5v60l278 22v-753q0 -44 8.5 -60.5t36.5 -23.5t97 -7v-59 q-47 4 -211 4q-177 0 -215 -4z" />
<glyph unicode="&#xed;" horiz-adv-x="557" d="M68 0v59h45.5t34.5 1.5t28 3.5t19 7t14.5 11t7.5 16.5t5 23t1 30.5v557q0 75 -25 93.5t-124 18.5v60l278 22v-753q0 -44 8.5 -60.5t36.5 -23.5t97 -7v-59q-47 4 -211 4q-177 0 -215 -4zM154 1079l243 312q14 20 25.5 28t32.5 8q27 0 48 -19.5t21 -47.5q0 -34 -32 -60 l-306 -253q-17 15 -32 32z" />
<glyph unicode="&#xee;" horiz-adv-x="557" d="M-33 1085l312 332l311 -332l-27 -28l-284 221l-285 -221zM68 0v59h45.5t34.5 1.5t28 3.5t19 7t14.5 11t7.5 16.5t5 23t1 30.5v557q0 75 -25 93.5t-124 18.5v60l278 22v-753q0 -44 8.5 -60.5t36.5 -23.5t97 -7v-59q-47 4 -211 4q-177 0 -215 -4z" />
<glyph unicode="&#xef;" horiz-adv-x="557" d="M27 1237q0 37 26 63.5t64 26.5q36 0 62 -25t26 -65q0 -34 -25.5 -61t-64.5 -27q-35 0 -61.5 26.5t-26.5 61.5zM68 0v59h45.5t34.5 1.5t28 3.5t19 7t14.5 11t7.5 16.5t5 23t1 30.5v557q0 75 -25 93.5t-124 18.5v60l278 22v-753q0 -44 8.5 -60.5t36.5 -23.5t97 -7v-59 q-47 4 -211 4q-177 0 -215 -4zM354 1237q0 37 26 63.5t64 26.5q36 0 62 -25t26 -65q0 -34 -25.5 -61t-64.5 -27q-35 0 -61.5 26.5t-26.5 61.5z" />
<glyph unicode="&#xf0;" d="M59 436q0 99 37 188.5t97.5 151.5t140 98.5t162.5 36.5q151 0 249 -159q-75 285 -319 475l-174 -101l-31 52l152 88q-107 68 -238 114l12 43q164 -35 306 -110l182 104l31 -51l-156 -90q199 -129 319 -340q111 -201 111 -453q0 -48 -2 -78.5t-12 -81.5t-36 -100t-67 -96 q-61 -69 -144.5 -108t-178.5 -39q-181 0 -311 133.5t-130 322.5zM217 455q0 -183 51 -279q40 -75 101.5 -113t130.5 -38q11 0 22 1t41.5 8.5t55.5 21.5t57 45t54 73t37 110.5t15 153.5q0 185 -82.5 308.5t-201.5 123.5q-54 0 -118 -32t-108 -107q-55 -97 -55 -276z" />
<glyph unicode="&#xf1;" horiz-adv-x="1114" d="M66 0v59h45.5t34.5 1.5t28 3.5t19 7t14.5 11t7.5 16.5t5 23t1 30.5v555q0 40 -4 60t-21.5 33.5t-46 17t-83.5 3.5v60l278 22v-211h2q7 18 17.5 38t35.5 53.5t55.5 58t79.5 43t105 18.5q157 0 225 -92q34 -44 40.5 -98t6.5 -215v-377q1 -45 43 -55q25 -7 113 -7v-59 q-35 4 -223 4q-184 0 -221 -4v59h45.5t34.5 1.5t28 3.5t19 7t14.5 11t7.5 16.5t5 23t1 30.5v481q0 51 -6.5 89.5t-23 71.5t-48 50.5t-77.5 17.5q-49 0 -96 -22t-86 -62t-63 -104.5t-24 -141.5v-380q0 -66 26 -79.5t130 -13.5v-59q-35 4 -223 4q-184 0 -221 -4zM223 1174 q12 12 38.5 40.5t35 37t28.5 27t29.5 24t25 14.5t29.5 11.5t31 2.5q22 0 47 -9t39 -16.5t43 -25.5q72 -49 123 -49q45 0 80 23.5t88 76.5l29 -28q-39 -43 -53.5 -58.5t-41.5 -41.5t-42 -34.5t-36.5 -16t-43.5 -7.5t-47 9t-39 16.5t-43 25.5q-72 49 -123 49q-45 0 -80 -23.5 t-88 -76.5z" />
<glyph unicode="&#xf2;" d="M61 438q0 195 129 335t312 140q179 0 308.5 -139t129.5 -336q0 -191 -129.5 -324.5t-310.5 -133.5q-178 0 -308.5 132.5t-130.5 325.5zM217 457q0 -59 2.5 -99t16 -98.5t38.5 -101.5q41 -70 102.5 -101.5t125.5 -31.5q65 0 127 34t102 103q53 96 53 295q0 47 -1 68.5 t-5.5 70.5t-19 88.5t-37.5 71.5q-40 58 -99 87t-122 29q-60 0 -119.5 -29.5t-99.5 -90.5q-29 -42 -44 -102.5t-17.5 -98t-2.5 -94.5zM256 1360q0 28 21.5 47.5t48.5 19.5q15 0 25.5 -5t16 -11t15.5 -20l244 -312q-12 -15 -33 -32l-305 253q-33 27 -33 60z" />
<glyph unicode="&#xf3;" d="M61 438q0 195 129 335t312 140q179 0 308.5 -139t129.5 -336q0 -191 -129.5 -324.5t-310.5 -133.5q-178 0 -308.5 132.5t-130.5 325.5zM217 457q0 -59 2.5 -99t16 -98.5t38.5 -101.5q41 -70 102.5 -101.5t125.5 -31.5q65 0 127 34t102 103q53 96 53 295q0 47 -1 68.5 t-5.5 70.5t-19 88.5t-37.5 71.5q-40 58 -99 87t-122 29q-60 0 -119.5 -29.5t-99.5 -90.5q-29 -42 -44 -102.5t-17.5 -98t-2.5 -94.5zM377 1079l244 312q10 14 15.5 20t16 11t25.5 5q27 0 48.5 -19.5t21.5 -47.5q0 -33 -33 -60l-305 -253q-21 17 -33 32z" />
<glyph unicode="&#xf4;" d="M61 438q0 195 129 335t312 140q179 0 308.5 -139t129.5 -336q0 -191 -129.5 -324.5t-310.5 -133.5q-178 0 -308.5 132.5t-130.5 325.5zM190 1085l312 332l311 -332l-27 -28l-284 221l-285 -221zM217 457q0 -59 2.5 -99t16 -98.5t38.5 -101.5q41 -70 102.5 -101.5 t125.5 -31.5q65 0 127 34t102 103q53 96 53 295q0 47 -1 68.5t-5.5 70.5t-19 88.5t-37.5 71.5q-40 58 -99 87t-122 29q-60 0 -119.5 -29.5t-99.5 -90.5q-29 -42 -44 -102.5t-17.5 -98t-2.5 -94.5z" />
<glyph unicode="&#xf5;" d="M61 438q0 195 129 335t312 140q179 0 308.5 -139t129.5 -336q0 -191 -129.5 -324.5t-310.5 -133.5q-178 0 -308.5 132.5t-130.5 325.5zM168 1174q12 12 38.5 40.5t35 37t28.5 27t29.5 24t25 14.5t29.5 11.5t31 2.5q22 0 47 -9t39 -16.5t43 -25.5q72 -49 123 -49 q45 0 80 23.5t88 76.5l29 -28q-60 -66 -85.5 -91.5t-60.5 -46t-72 -20.5q-22 0 -47 9t-39 16.5t-43 25.5q-72 49 -122 49q-45 0 -80 -23.5t-88 -76.5zM217 457q0 -59 2.5 -99t16 -98.5t38.5 -101.5q41 -70 102.5 -101.5t125.5 -31.5q65 0 127 34t102 103q53 96 53 295 q0 47 -1 68.5t-5.5 70.5t-19 88.5t-37.5 71.5q-40 58 -99 87t-122 29q-60 0 -119.5 -29.5t-99.5 -90.5q-29 -42 -44 -102.5t-17.5 -98t-2.5 -94.5z" />
<glyph unicode="&#xf6;" d="M61 438q0 195 129 335t312 140q179 0 308.5 -139t129.5 -336q0 -191 -129.5 -324.5t-310.5 -133.5q-178 0 -308.5 132.5t-130.5 325.5zM217 457q0 -59 2.5 -99t16 -98.5t38.5 -101.5q41 -70 102.5 -101.5t125.5 -31.5q65 0 127 34t102 103q53 96 53 295q0 47 -1 68.5 t-5.5 70.5t-19 88.5t-37.5 71.5q-40 58 -99 87t-122 29q-60 0 -119.5 -29.5t-99.5 -90.5q-29 -42 -44 -102.5t-17.5 -98t-2.5 -94.5zM250 1237q0 37 26 63.5t64 26.5q36 0 62 -25t26 -65q0 -34 -25.5 -61t-64.5 -27q-35 0 -61.5 26.5t-26.5 61.5zM578 1237q0 37 26 63.5 t64 26.5q36 0 62 -25t26 -65q0 -34 -25.5 -61t-64.5 -27q-35 0 -61.5 26.5t-26.5 61.5z" />
<glyph unicode="&#xf7;" horiz-adv-x="1560" d="M111 514q0 11 4.5 18.5t8.5 11t16 5.5t16.5 2h19.5h1206q16 0 24 -0.5t19.5 -4t17 -12t5.5 -22.5t-5 -22t-17.5 -11t-19 -3.5t-24.5 -0.5h-1206q-16 0 -24 0.5t-19.5 4t-16.5 12t-5 22.5zM680 221q0 39 28.5 68.5t71.5 29.5q39 0 69 -29t30 -69q0 -42 -29.5 -71 t-71.5 -29q-38 0 -68 27.5t-30 72.5zM680 807q0 39 28.5 68.5t71.5 29.5q39 0 69 -29t30 -69q0 -42 -29.5 -71t-71.5 -29q-38 0 -68 27.5t-30 72.5z" />
<glyph unicode="&#xf8;" d="M72 438q0 128 57.5 237.5t156.5 173.5t216 64q115 0 209 -61l135 240l35 -23l-136 -240q85 -69 135 -170.5t50 -220.5q0 -194 -126.5 -326t-303.5 -132q-108 0 -207 55l-137 -244l-35 21l139 247q-95 69 -141.5 169t-46.5 210zM205 438q0 -60 3.5 -104t24.5 -109t60 -108 l387 686q-82 69 -180 69q-65 0 -128.5 -35t-105.5 -104q-61 -103 -61 -295zM324 84q7 -7 26 -19.5t62.5 -28.5t87.5 -16q75 0 137.5 37t99.5 97q60 101 60 284q0 107 -18 188t-68 142z" />
<glyph unicode="&#xf9;" horiz-adv-x="1114" d="M66 821v60l288 22v-678q0 -40 2 -64t12 -54t28 -47t52.5 -28.5t83.5 -11.5q113 0 179.5 92t66.5 228v367q0 40 -4 60t-21.5 33.5t-46 17t-83.5 3.5v60l288 22v-729q0 -75 26.5 -95t129.5 -20v-59l-285 -20v184q-12 -28 -24 -45q-36 -56 -68 -80q-72 -59 -170 -59 q-168 0 -237 77q-41 45 -51.5 102t-10.5 167v307v49.5t-1.5 39t-2.5 32t-6 23t-9 18.5t-14 11t-19.5 8.5t-27 3.5t-33 3h-42.5zM311 1360q0 28 21.5 47.5t48.5 19.5q15 0 25.5 -5t16 -11t15.5 -20l244 -312q-12 -15 -33 -32l-305 253q-33 27 -33 60z" />
<glyph unicode="&#xfa;" horiz-adv-x="1114" d="M66 821v60l288 22v-678q0 -40 2 -64t12 -54t28 -47t52.5 -28.5t83.5 -11.5q113 0 179.5 92t66.5 228v367q0 40 -4 60t-21.5 33.5t-46 17t-83.5 3.5v60l288 22v-729q0 -75 26.5 -95t129.5 -20v-59l-285 -20v184q-12 -28 -24 -45q-36 -56 -68 -80q-72 -59 -170 -59 q-168 0 -237 77q-41 45 -51.5 102t-10.5 167v307v49.5t-1.5 39t-2.5 32t-6 23t-9 18.5t-14 11t-19.5 8.5t-27 3.5t-33 3h-42.5zM432 1079l244 312q10 14 15.5 20t16 11t25.5 5q27 0 48.5 -19.5t21.5 -47.5q0 -33 -33 -60l-305 -253q-21 17 -33 32z" />
<glyph unicode="&#xfb;" horiz-adv-x="1114" d="M66 821v60l288 22v-678q0 -40 2 -64t12 -54t28 -47t52.5 -28.5t83.5 -11.5q113 0 179.5 92t66.5 228v367q0 40 -4 60t-21.5 33.5t-46 17t-83.5 3.5v60l288 22v-729q0 -75 26.5 -95t129.5 -20v-59l-285 -20v184q-12 -28 -24 -45q-36 -56 -68 -80q-72 -59 -170 -59 q-168 0 -237 77q-41 45 -51.5 102t-10.5 167v307v49.5t-1.5 39t-2.5 32t-6 23t-9 18.5t-14 11t-19.5 8.5t-27 3.5t-33 3h-42.5zM246 1085l311 332l311 -332l-26 -28l-285 221l-285 -221z" />
<glyph unicode="&#xfc;" horiz-adv-x="1114" d="M66 821v60l288 22v-678q0 -40 2 -64t12 -54t28 -47t52.5 -28.5t83.5 -11.5q113 0 179.5 92t66.5 228v367q0 40 -4 60t-21.5 33.5t-46 17t-83.5 3.5v60l288 22v-729q0 -75 26.5 -95t129.5 -20v-59l-285 -20v184q-12 -28 -24 -45q-36 -56 -68 -80q-72 -59 -170 -59 q-168 0 -237 77q-41 45 -51.5 102t-10.5 167v307v49.5t-1.5 39t-2.5 32t-6 23t-9 18.5t-14 11t-19.5 8.5t-27 3.5t-33 3h-42.5zM305 1237q0 37 26 63.5t64 26.5q36 0 62 -25t26 -65q0 -34 -25.5 -61t-64.5 -27q-35 0 -61.5 26.5t-26.5 61.5zM633 1237q0 37 26 63.5t64 26.5 q36 0 62 -25t26 -65q0 -34 -25.5 -61t-64.5 -27q-35 0 -61.5 26.5t-26.5 61.5z" />
<glyph unicode="&#xfd;" horiz-adv-x="1058" d="M37 823v60l199 -4q173 0 210 4v-60q-22 0 -36 -1t-34.5 -5.5t-31 -16t-10.5 -30.5q0 -6 2 -10q6 -23 10 -33l227 -557l209 516q13 37 13 49q0 81 -95 88v60l166 -4q115 0 154 4v-60q-135 0 -191 -139l-354 -872q-97 -230 -252 -230q-79 0 -131.5 46t-52.5 108 q0 41 23.5 60.5t54.5 19.5t53.5 -20.5t22.5 -55.5q0 -47 -37 -68q-14 -9 -35 -12q6 -6 26 -18q34 -19 76 -19q105 0 183 139q22 59 98 238l-305 750q-14 34 -28.5 48t-43 19.5t-90.5 5.5zM406 1079l243 312q14 20 25.5 28t32.5 8q27 0 48 -19.5t21 -47.5q0 -33 -33 -60 l-305 -253q-17 15 -32 32z" />
<glyph unicode="&#xfe;" horiz-adv-x="1114" d="M57 -338q41 0 58.5 0.5t40.5 3t30 7.5t15.5 16t10 26t1.5 39v1471q0 52 -10.5 74t-42 31t-103.5 9v60l285 22v-655l7 8q7 8 15 17t23 22t31 24.5t39.5 24t48 21.5t55.5 14.5t64 5.5q169 0 292 -134t123 -327q0 -97 -36 -183.5t-96.5 -147t-141.5 -96t-168 -35.5 q-152 0 -252 131v-357q0 -24 1.5 -39t10.5 -26t16 -16t30 -7.5t40 -3t58 -0.5v-59q-35 4 -223 4q-185 0 -222 -4v59zM346 231q0 -40 19.5 -73t58.5 -72q69 -66 164 -66q120 0 208.5 121.5t88.5 300.5q0 172 -81 294t-196 122q-65 0 -129.5 -33t-109.5 -98q-17 -24 -20 -34 t-3 -40v-422z" />
<glyph unicode="&#xff;" horiz-adv-x="1058" d="M37 823v60l199 -4q173 0 210 4v-60q-22 0 -36 -1t-34.5 -5.5t-31 -16t-10.5 -30.5q0 -6 2 -10q6 -23 10 -33l227 -557l209 516q13 37 13 49q0 81 -95 88v60l166 -4q115 0 154 4v-60q-135 0 -191 -139l-354 -872q-97 -230 -252 -230q-79 0 -131.5 46t-52.5 108 q0 41 23.5 60.5t54.5 19.5t53.5 -20.5t22.5 -55.5q0 -47 -37 -68q-14 -9 -35 -12q6 -6 26 -18q34 -19 76 -19q105 0 183 139q22 59 98 238l-305 750q-14 34 -28.5 48t-43 19.5t-90.5 5.5zM279 1237q0 37 26 63.5t64 26.5q36 0 62 -25t26 -65q0 -34 -25.5 -61t-64.5 -27 q-35 0 -61.5 26.5t-26.5 61.5zM606 1237q0 37 26 63.5t64 26.5q36 0 62 -25t26 -65q0 -34 -25.5 -61t-64.5 -27q-35 0 -61.5 26.5t-26.5 61.5z" />
<glyph unicode="&#x152;" horiz-adv-x="2033" d="M137 694q0 157 55 297.5t146 238.5t212.5 155t252.5 57q52 0 166 -25q80 -18 141 -18h758l53 -457h-45q-9 92 -22 153t-38 111t-65 77t-99.5 41.5t-144.5 14.5h-241q-65 0 -80 -14.5t-15 -67.5v-501h226q76 0 122 11.5t70.5 42.5t32.5 72.5t8 112.5h45v-538h-45 q0 72 -8 113.5t-32.5 72t-70 42t-122.5 11.5h-226v-555q0 -53 15 -67.5t80 -14.5h237q63 0 113 6.5t89.5 22t68.5 34t51.5 51t37.5 63.5t28 81.5t21 94.5t19 112h45l-82 -524h-784q-59 0 -147 -18q-113 -25 -160 -25q-131 0 -252.5 56.5t-212.5 153.5t-146 235t-55 292z M324 725q0 -201 66 -368.5t177 -263t242 -95.5q53 0 90.5 12.5t58.5 31t34 50t18.5 58.5t10.5 69v3.5t0.5 3t0.5 3.5q8 99 8 471q0 408 -10 486q-4 51 -13 84t-30 66t-63.5 49t-106.5 16q-126 0 -236 -85t-178.5 -241.5t-68.5 -349.5z" />
<glyph unicode="&#x153;" horiz-adv-x="1560" d="M61 446q0 130 58.5 238t155 168.5t208.5 60.5q96 0 189 -50t162 -158q50 92 137.5 150t197.5 58q155 0 244.5 -110.5t89.5 -288.5q0 -29 -6.5 -34t-42.5 -5h-553q0 -60 2.5 -99.5t21 -107t54.5 -118.5q40 -55 97.5 -90t125.5 -35q29 0 60.5 9t70.5 30.5t72.5 68.5 t52.5 113q6 18 23 18q22 0 22 -20q0 -14 -10 -42.5t-34 -67t-58 -72.5t-89 -58t-120 -24q-36 0 -74 8t-88 28t-101.5 65.5t-94.5 111.5q-43 -74 -104 -123t-122 -69.5t-125 -20.5q-112 0 -209 61t-155 169t-58 236zM207 457q0 -87 14 -157.5t34.5 -115t49.5 -77.5t54.5 -49 t54.5 -25.5t43.5 -11t27.5 -1.5t29 2t45 12.5t55 27t55 50t50 77.5t35 113.5t14 154.5t-15.5 154t-37.5 111.5t-54.5 73.5t-58 45t-56 21.5t-41 8.5t-20.5 1q-14 0 -29.5 -1.5t-44.5 -10.5t-54 -24.5t-53.5 -47t-49 -73.5t-34 -109t-13.5 -149zM903 514h473q0 21 -1 44 t-6.5 60t-13.5 69.5t-24 67.5t-37.5 60t-55 41t-73.5 16q-23 0 -49.5 -7t-63 -30t-66 -60t-53 -105t-30.5 -156z" />
<glyph unicode="&#x178;" horiz-adv-x="1503" d="M20 1339v60q34 -4 252 -4q240 0 271 4v-60q-64 0 -95.5 -9.5t-31.5 -39.5q0 -13 16 -39l381 -616l346 563q17 25 21 35.5t4 30.5q0 36 -28.5 55.5t-74.5 19.5v60q34 -4 209 -4l191 4v-60q-167 0 -250 -133l-400 -645v-409q0 -41 7 -57.5t39.5 -26t107.5 -9.5h41v-59 q-33 4 -276 4q-244 0 -275 -4v59h41q73 0 105.5 9.5t40.5 27t8 60.5v403l-432 701q-33 54 -69.5 66.5t-148.5 12.5zM471 1591q0 37 26 63.5t64 26.5q36 0 62 -25t26 -65q0 -34 -25.5 -61t-64.5 -27q-35 0 -61.5 26.5t-26.5 61.5zM856 1591q0 37 26 63.5t64 26.5q36 0 62 -25 t26 -65q0 -34 -25.5 -61t-64.5 -27q-35 0 -61.5 26.5t-26.5 61.5z" />
<glyph unicode="&#x2c6;" d="M190 1085l312 332l311 -332l-27 -28l-284 221l-285 -221z" />
<glyph unicode="&#x2dc;" d="M168 1174q12 12 38.5 40.5t35 37t28.5 27t29.5 24t25 14.5t29.5 11.5t31 2.5q22 0 47 -9t39 -16.5t43 -25.5q72 -49 123 -49q45 0 80 23.5t88 76.5l29 -28q-60 -66 -85.5 -91.5t-60.5 -46t-72 -20.5q-22 0 -47 9t-39 16.5t-43 25.5q-72 49 -122 49q-45 0 -80 -23.5 t-88 -76.5z" />
<glyph unicode="&#x2000;" horiz-adv-x="926" />
<glyph unicode="&#x2001;" horiz-adv-x="1853" />
<glyph unicode="&#x2002;" horiz-adv-x="926" />
<glyph unicode="&#x2003;" horiz-adv-x="1853" />
<glyph unicode="&#x2004;" horiz-adv-x="617" />
<glyph unicode="&#x2005;" horiz-adv-x="463" />
<glyph unicode="&#x2006;" horiz-adv-x="308" />
<glyph unicode="&#x2007;" horiz-adv-x="308" />
<glyph unicode="&#x2008;" horiz-adv-x="231" />
<glyph unicode="&#x2009;" horiz-adv-x="370" />
<glyph unicode="&#x200a;" horiz-adv-x="102" />
<glyph unicode="&#x2010;" horiz-adv-x="667" d="M23 387v111h532v-111h-532z" />
<glyph unicode="&#x2011;" horiz-adv-x="667" d="M23 387v111h532v-111h-532z" />
<glyph unicode="&#x2012;" horiz-adv-x="667" d="M23 387v111h532v-111h-532z" />
<glyph unicode="&#x2013;" d="M0 524v41h1001v-41h-1001z" />
<glyph unicode="&#x2014;" horiz-adv-x="2004" d="M0 524v41h2003v-41h-2003z" />
<glyph unicode="&#x2018;" horiz-adv-x="557" d="M150 1034q0 66 17 129t41.5 107.5t50.5 79.5t45.5 52t25.5 17q20 0 20 -20q0 -11 -18 -29q-49 -49 -81 -105.5t-43.5 -107.5t-14.5 -76t-3 -47q0 -16 5 -51q10 14 20 21q28 20 61 20q46 0 73.5 -28.5t27.5 -71.5q0 -42 -27.5 -70.5t-70.5 -28.5q-61 0 -95 56t-34 153z " />
<glyph unicode="&#x2019;" horiz-adv-x="557" d="M178 1323q0 42 27 70t71 28q61 0 95.5 -56t34.5 -153q0 -66 -17 -129t-41.5 -107.5t-51 -79.5t-46 -52t-25.5 -17q-20 0 -20 21q0 11 18 29q49 49 81 105.5t43.5 107.5t14.5 75.5t3 46.5q0 17 -5 52q-10 -14 -20 -21q-28 -20 -61 -20q-46 0 -73.5 28.5t-27.5 71.5z" />
<glyph unicode="&#x201a;" horiz-adv-x="557" d="M166 94q0 42 27.5 70.5t70.5 28.5q61 0 95 -56t34 -153q0 -66 -17 -129t-41.5 -107.5t-50.5 -79.5t-45.5 -52t-25.5 -17q-20 0 -20 20q0 11 18 29q49 49 81 105.5t43 108t14 76t3 46.5q0 23 -4 51q-10 -14 -20 -21q-28 -20 -62 -20q-46 0 -73 28.5t-27 71.5z" />
<glyph unicode="&#x201c;" horiz-adv-x="946" d="M150 1034q0 66 17 129t41.5 107.5t50.5 79.5t45.5 52t25.5 17q20 0 20 -20q0 -11 -18 -29q-49 -49 -81 -105.5t-43.5 -107.5t-14.5 -76t-3 -47q0 -16 5 -51q10 14 20 21q28 20 61 20q46 0 73.5 -28.5t27.5 -71.5q0 -42 -27.5 -70.5t-70.5 -28.5q-61 0 -95 56t-34 153z M539 1034q0 66 17 129t41.5 107.5t50.5 79.5t45.5 52t25.5 17q20 0 20 -20q0 -11 -18 -29q-49 -49 -81 -105.5t-43 -108t-14 -76t-3 -46.5q0 -23 4 -51q10 14 20 21q28 20 62 20q46 0 73 -28.5t27 -71.5q0 -42 -27.5 -70.5t-70.5 -28.5q-61 0 -95 56t-34 153z" />
<glyph unicode="&#x201d;" horiz-adv-x="946" d="M180 1323q0 42 27.5 70t71.5 28q61 0 95 -56t34 -153q0 -66 -17 -129t-41.5 -107.5t-51 -79.5t-46 -52t-25.5 -17q-20 0 -20 21q0 11 18 29q49 49 81 105.5t43.5 107.5t14.5 75.5t3 46.5q0 17 -5 52q-10 -14 -20 -21q-28 -20 -61 -20q-46 0 -73.5 28.5t-27.5 71.5z M569 1323q0 42 27.5 70t71.5 28q61 0 95 -56t34 -153q0 -66 -17 -129t-41.5 -107.5t-51 -79.5t-46 -52t-25.5 -17q-20 0 -20 21q0 11 18 29q49 49 81 105.5t43.5 107.5t14.5 75.5t3 46.5q0 24 -4 52q-9 -12 -21 -21q-28 -20 -61 -20q-46 0 -73.5 28.5t-27.5 71.5z" />
<glyph unicode="&#x201e;" horiz-adv-x="946" d="M180 94q0 42 27.5 70.5t71.5 28.5q61 0 95 -56t34 -153q0 -66 -17 -129t-41.5 -107.5t-51 -79.5t-46 -52t-25.5 -17q-20 0 -20 20q0 11 18 29q49 49 81 105.5t43.5 107.5t14.5 76t3 47q0 16 -5 51q-10 -14 -20 -21q-28 -20 -61 -20q-46 0 -73.5 28.5t-27.5 71.5zM569 94 q0 42 27.5 70.5t71.5 28.5q61 0 95 -56t34 -153q0 -66 -17 -129t-41.5 -107.5t-51 -79.5t-46 -52t-25.5 -17q-20 0 -20 20q0 11 18 29q49 49 81 105.5t43.5 107.5t14.5 76t3 47q0 23 -4 51q-9 -12 -21 -21q-28 -20 -61 -20q-46 0 -73.5 28.5t-27.5 71.5z" />
<glyph unicode="&#x2022;" horiz-adv-x="1560" d="M504 496q0 111 79 192.5t199 81.5q109 0 192 -80t83 -194q0 -118 -81 -198.5t-198 -80.5q-105 0 -189.5 79t-84.5 200z" />
<glyph unicode="&#x2026;" horiz-adv-x="1318" d="M180 100q0 39 29 69t72 30q39 0 68.5 -29t29.5 -70q0 -42 -29 -71t-71 -29q-38 0 -68.5 27.5t-30.5 72.5zM561 100q0 39 29 69t72 30q39 0 68.5 -29t29.5 -70q0 -42 -29.5 -71t-71.5 -29q-38 0 -68 27.5t-30 72.5zM942 100q0 40 28.5 69.5t71.5 29.5q39 0 69 -29t30 -70 q0 -42 -29.5 -71t-71.5 -29q-38 0 -68 27.5t-30 72.5z" />
<glyph unicode="&#x202f;" horiz-adv-x="370" />
<glyph unicode="&#x2039;" horiz-adv-x="780" d="M223 496q0 6 4 10q207 216 291 473q7 10 17 10h6q16 0 16 -16v-4q-63 -262 -201 -473q137 -209 201 -476v-4q0 -16 -16 -16h-6q-10 0 -17 10q-87 266 -291 473q-4 12 -4 13z" />
<glyph unicode="&#x203a;" horiz-adv-x="780" d="M223 16v4q64 267 201 476q-138 211 -201 473v4q0 16 17 16h6q9 0 16 -10q84 -257 291 -473q4 -4 4 -10q0 -1 -4 -13q-204 -207 -291 -473q-7 -10 -16 -10h-6q-17 0 -17 16z" />
<glyph unicode="&#x205f;" horiz-adv-x="463" />
<glyph unicode="&#x20ac;" horiz-adv-x="1255" d="M109 582l6 24q3 12 16 12h94q-4 54 -4 82q0 20 4 82h-102q-8 0 -13 7t-1 14l6 24q3 13 16 13h100q38 229 158 383q77 101 183.5 160t226.5 59q134 0 233 -99l76 93q3 6 12 6h6q17 0 17 -17v-323q0 -17 -17 -17h-20q-16 0 -16 15q-12 120 -86.5 202t-182.5 82 q-95 0 -174.5 -52t-132.5 -142q-82 -132 -100 -350h606q19 0 16 -17l-8 -30q-4 -11 -14 -11h-602l-2 -82l2 -82h544q10 0 14.5 -4t2.5 -12l-6 -31q-3 -10 -17 -10h-536q18 -220 100 -352q53 -89 132.5 -142t174.5 -53q107 0 182 83.5t87 201.5q0 14 16 14h20q17 0 17 -16 v-324q0 -16 -17 -16h-6q-9 0 -12 6l-76 92q-105 -98 -233 -98q-120 0 -226.5 59t-183.5 160q-120 157 -158 385h-108q-8 0 -13 7t-1 14z" />
<glyph unicode="&#x2122;" horiz-adv-x="1972" d="M43 1126l23 273h737l22 -273h-28q-5 56 -8.5 84.5t-13 60.5t-22.5 46t-37.5 27t-57.5 16.5t-83 3.5q-59 0 -69 -2q-14 -5 -18.5 -14.5t-4.5 -32.5v-653q0 -26 4.5 -36t31 -17t85.5 -7h45v-35l-215 2l-215 -2v35h45q59 0 85.5 7t31 17t4.5 36v653q0 25 -4.5 34t-22.5 13 q-10 2 -65 2q-49 0 -82.5 -3.5t-57.5 -16.5t-37.5 -27t-23 -45.5t-13.5 -61.5t-9 -84h-27zM879 567v35q41 0 67 8.5t35.5 25t11.5 27.5t2 29v621q0 35 -15 46t-77 11h-24v35h190q23 0 27 -2.5t12 -20.5l266 -700l268 698q7 18 12.5 21.5t26.5 3.5h191v-35h-25q-62 0 -77 -11 t-15 -46v-654q0 -35 15 -46t77 -11h25v-35q-12 0 -78 1t-84 1q-21 0 -86.5 -1t-77.5 -1v35h25q44 0 64 6t24 16t4 35v711l-299 -778q-9 -25 -21 -25q-13 0 -20 23l-297 774h-2v-672q0 -18 2.5 -29t12 -27.5t35.5 -25t67 -8.5v-35q-31 2 -131 2q-98 0 -131 -2z" />
<glyph unicode="&#xe000;" horiz-adv-x="880" d="M0 0v881h881v-881h-881z" />
<glyph unicode="&#xfb01;" horiz-adv-x="1114" d="M53 823v60h160v235q0 79 40.5 143t104.5 102.5t137 58.5t146 20q114 0 184 -58t70 -139q0 -44 -26 -66t-60 -22q-31 0 -57.5 22.5t-26.5 63.5q0 86 92 86q-61 72 -180 72q-49 0 -98.5 -16t-96 -48.5t-75.5 -90.5t-29 -132v-231h240q30 0 36 2q12 4 37 4l248 16v-753 q0 -66 26 -79.5t130 -13.5v-59q-38 4 -221 4q-106 0 -220 -4v59q40 0 58.5 0.5t40.5 3.5t29.5 8t16 16t10 26t1.5 39v561q0 66 -19.5 88t-86.5 22h-322v-671q0 -66 26 -79.5t130 -13.5v-59q-38 4 -222 4q-105 0 -219 -4v59q40 0 58.5 0.5t40.5 3.5t29.5 8t16 16t10 26 t1.5 39v671h-160z" />
<glyph unicode="&#xfb02;" horiz-adv-x="1114" d="M53 823v60h160v235q0 102 64.5 177.5t161 111t206.5 35.5q94 0 166 -27q6 -6 12 -6h6q8 0 38 6t32 6v-1269q0 -66 26 -79.5t130 -13.5v-59q-38 4 -221 4q-106 0 -220 -4v59q40 0 58.5 0.5t40.5 3.5t29.5 8t16 16t10 26t1.5 39v671h-428v-671q0 -66 26 -79.5t130 -13.5 v-59q-38 4 -222 4q-105 0 -219 -4v59q40 0 58.5 0.5t40.5 3.5t29.5 8t16 16t10 26t1.5 39v671h-160zM338 883h432v352q-41 21 -41 70q0 40 39 71v10q-33 11 -50 13t-75 2q-123 0 -214 -75t-91 -212v-231z" />
<glyph unicode="&#xfb03;" horiz-adv-x="1671" d="M53 823v60h160v235q0 79 39.5 143t103 102.5t136.5 58.5t147 20q78 0 138 -29.5t91 -83.5q56 48 141 80.5t189 32.5q114 0 184 -58t70 -139q0 -44 -26 -66t-60 -22q-31 0 -57.5 22.5t-26.5 63.5q0 86 92 86q-61 72 -180 72q-49 0 -98.5 -16t-96 -48.5t-75.5 -90.5 t-29 -132v-231h240q30 0 36 2q12 4 37 4l248 16v-753q0 -66 26 -79.5t130 -13.5v-59q-38 4 -221 4q-106 0 -220 -4v59q40 0 58.5 0.5t40.5 3.5t29.5 8t16 16t10 26t1.5 39v561q0 66 -19.5 88t-86.5 22h-322v-671q0 -66 26 -79.5t130 -13.5v-59q-38 4 -221 4q-106 0 -220 -4 v59q40 0 58.5 0.5t40.5 3.5t29.5 8t16 16t10 26t1.5 39v671h-428v-671q0 -66 26 -79.5t130 -13.5v-59q-38 4 -222 4q-105 0 -219 -4v59q40 0 58.5 0.5t40.5 3.5t29.5 8t16 16t10 26t1.5 39v671h-160zM338 883h432v235q0 31 2 45q-25 10 -39 32t-14 48q0 10 2.5 21t10.5 27.5 t29 27t52 10.5q-29 36 -78.5 54t-101.5 18q-35 0 -73 -9.5t-78 -31.5t-71.5 -53.5t-52 -82t-20.5 -110.5v-231z" />
<glyph unicode="&#xfb04;" horiz-adv-x="1671" d="M53 823v60h160v235q0 78 38.5 141.5t101 102.5t137 59.5t151.5 20.5q89 0 151 -29.5t87 -75.5q125 105 323 105q94 0 166 -27q6 -6 12 -6h6q8 0 38 6t32 6v-1269q0 -66 26 -79.5t130 -13.5v-59q-38 4 -221 4q-106 0 -220 -4v59q40 0 58.5 0.5t40.5 3.5t29.5 8t16 16 t10 26t1.5 39v671h-428v-671q0 -66 26 -79.5t130 -13.5v-59q-38 4 -221 4q-106 0 -220 -4v59q40 0 58.5 0.5t40.5 3.5t29.5 8t16 16t10 26t1.5 39v671h-428v-671q0 -66 26 -79.5t130 -13.5v-59q-38 4 -222 4q-105 0 -219 -4v59q40 0 58.5 0.5t40.5 3.5t29.5 8t16 16t10 26 t1.5 39v671h-160zM338 883h432v235q0 55 10 84q-51 17 -51 76q0 13 4 27t21.5 31t46.5 22q-59 43 -164 43q-50 0 -100.5 -16.5t-96 -49t-74 -90t-28.5 -131.5v-231zM895 883h432v352q-41 21 -41 70q0 40 39 71v10q-33 11 -50 13t-75 2q-123 0 -214 -75t-91 -212v-231z" />
</font>
</defs>
</svg>
