<?xml version="1.0" standalone="no"?>
<!DOCTYPE svg PUBLIC "-//W3C//DTD SVG 1.1//EN" "http://www.w3.org/Graphics/SVG/1.1/DTD/svg11.dtd" >
<svg xmlns="http://www.w3.org/2000/svg">
<metadata></metadata>
<defs>
<font id="legal_modern_footnotebold" horiz-adv-x="1212" >
<font-face units-per-em="2048" ascent="1651" descent="-397" />
<missing-glyph horiz-adv-x="806" />
<glyph horiz-adv-x="2048" />
<glyph horiz-adv-x="2048" />
<glyph unicode="&#xd;" horiz-adv-x="2048" />
<glyph unicode=" "  horiz-adv-x="806" />
<glyph unicode="&#x09;" horiz-adv-x="806" />
<glyph unicode="&#xa0;" horiz-adv-x="806" />
<glyph unicode="!" horiz-adv-x="737" d="M207 162q0 64 47 112t115 48q65 0 112 -46t47 -116q0 -64 -46.5 -112t-114.5 -48q-65 0 -112.5 46t-47.5 116zM207 1298q0 66 49 107t113 41q60 0 109.5 -40t49.5 -108q0 -12 -6 -55l-100 -729q-3 -20 -4.5 -26t-7 -14t-15 -9.5t-28.5 -1.5q-31 0 -41.5 8.5t-14.5 42.5 l-98 729q-6 43 -6 55z" />
<glyph unicode="&#x22;" horiz-adv-x="1021" d="M215 1309q-6 49 30.5 85t90.5 36q55 0 91.5 -36t29.5 -85l-68 -451h-106zM563 1309q-6 49 30.5 85t90.5 36q55 0 91.5 -36t29.5 -85l-68 -451h-106z" />
<glyph unicode="#" horiz-adv-x="2019" d="M135 274q0 66 92 66h389l107 344h-496q-92 0 -92 66q0 23 9 37.5t26.5 20t28 6.5t26.5 1h543l174 547q4 13 7.5 20.5t10.5 18t19 15.5t29 5q27 0 46 -18t19 -47q0 -18 -8 -39l-160 -502h404l174 547q6 18 10 27.5t18.5 20.5t36.5 11q27 0 46.5 -18.5t19.5 -46.5 q0 -18 -8 -39l-160 -502h346q16 0 26.5 -1t28 -6.5t26.5 -20t9 -37.5t-9.5 -38t-26.5 -20t-28 -6.5t-28 -1.5h-389l-107 -344h496q92 0 92 -66q0 -23 -9 -37.5t-26.5 -20t-28 -6.5t-26.5 -1h-543l-174 -547q-6 -18 -10 -27.5t-18.5 -20.5t-36.5 -11q-27 0 -46.5 18.5 t-19.5 46.5q0 18 8 39l160 502h-403l-174 -547q-4 -13 -7.5 -20.5t-10.5 -18t-19 -15.5t-29 -5q-27 0 -46.5 18.5t-19.5 46.5q0 15 9 39l159 502h-346q-16 0 -26.5 1t-28 6.5t-26.5 20t-9 37.5zM754 340h403l107 344h-404z" />
<glyph unicode="$" d="M135 381q0 34 10.5 60.5t25 41.5t34 24t34.5 12t29 3q56 0 94.5 -36.5t38.5 -96.5q0 -50 -31 -89.5t-102 -43.5q21 -46 57 -79t78.5 -50.5t78.5 -25.5t73 -11v508q-86 15 -154.5 42t-138.5 89q-127 127 -127 289q0 78 25.5 147.5t75.5 126.5t132 94.5t187 45.5v104h100 v-104q106 -6 188.5 -38t132 -82.5t74.5 -112t25 -130.5q0 -44 -16.5 -75t-41.5 -43.5t-43 -17.5t-32 -5q-52 0 -92.5 35.5t-40.5 97.5q0 50 30.5 89t96.5 44q-12 20 -27 36.5t-33 29t-34.5 22.5t-38 17t-36 12t-36 9t-31 5.5t-27 3.5t-18.5 2v-450q50 -11 78.5 -19t70.5 -25 t79.5 -44t74.5 -66q11 -11 24.5 -28t37.5 -56t39.5 -94.5t15.5 -116.5q0 -56 -12 -110.5t-42 -112t-76 -102.5t-121 -77t-169 -40v-105h-100v105q-113 8 -197.5 46.5t-131.5 95.5t-69 119.5t-22 129.5zM305 1118q0 -70 57.5 -130t192.5 -87v430q-70 -6 -121.5 -28.5t-78 -55 t-38.5 -65t-12 -64.5zM655 90q122 13 186 81t64 161q0 95 -69.5 161t-180.5 85v-488z" />
<glyph unicode="%" horiz-adv-x="2019" d="M135 1124q0 101 30.5 181.5t82 129.5t115 75t133.5 26q97 0 176 -61q228 -158 467 -158q73 0 139.5 16.5t109 36.5t84 52.5t57 48.5t36.5 40q22 25 51 25q27 0 46 -18.5t19 -47.5q0 -16 -4.5 -25t-19.5 -28l-1194 -1497q-27 -35 -62 -35q-27 0 -46 18.5t-19 47.5 q0 24 26 57l1012 1268q-116 -39 -233 -39q-193 0 -365 84q31 -82 31 -199q0 -200 -89.5 -305.5t-221.5 -105.5q-68 0 -130.5 24.5t-115 72.5t-84 129.5t-31.5 186.5zM352 1122q0 -37 0.5 -58.5t3 -61t8 -63.5t16.5 -55t26.5 -48.5t40 -30t55.5 -12.5q24 0 48.5 8t52.5 30.5 t49.5 58t35.5 96t14 138.5q0 91 -20 159t-52 103t-64 51.5t-64 16.5q-31 0 -55.5 -12.5t-40 -29.5t-26.5 -48t-16.5 -55.5t-8 -64.5t-3 -61.5t-0.5 -60.5zM1210 299q0 101 30.5 181.5t82 129.5t115 75t133.5 26q61 0 115.5 -24t99 -72.5t70.5 -130t26 -187.5 q0 -200 -89.5 -306t-221.5 -106q-68 0 -130.5 24.5t-115 72.5t-84 130t-31.5 187zM1427 297q0 -37 0.5 -58.5t3 -61t8 -64t16.5 -55.5t26.5 -48.5t40 -30t55.5 -12.5t62.5 14.5t64.5 48.5t53.5 103.5t20.5 165.5q0 91 -20 159t-52.5 103t-64.5 51.5t-64 16.5 q-31 0 -55.5 -12.5t-40 -29.5t-26.5 -48t-16.5 -55.5t-8 -64.5t-3 -61.5t-0.5 -60.5z" />
<glyph unicode="&#x26;" horiz-adv-x="1884" d="M100 285q0 25 3.5 47.5t14.5 43.5t17 34t24.5 32.5t23 25t27 25.5t23.5 21q52 42 109 87.5t107 86.5q-87 224 -87 389q0 89 36 161.5t92.5 116.5t121.5 67.5t129 23.5q59 0 106.5 -26.5t75 -68.5t42 -88.5t14.5 -91.5q0 -78 -71.5 -171t-231.5 -230q50 -99 116 -189 t171 -204q9 -12 41 -45t40 -43q60 57 99.5 98.5t124 149t180.5 251.5q-7 3 -14.5 6t-13 5t-14 3.5t-12.5 2.5t-13.5 2t-12.5 1.5t-14 0.5h-14h-15.5h-15.5v100l245 -6q135 0 207 6v-100q-59 0 -88.5 -1t-62.5 -9.5t-45 -24.5l-62 -86q-154 -215 -213.5 -287t-173.5 -180 q160 -145 299 -145q23 0 50.5 4.5t70.5 19t73 51t33 89.5h105q-3 -83 -53.5 -145t-125.5 -91t-163 -29q-221 0 -449 127q-207 -127 -415 -127q-187 0 -314 85.5t-127 224.5zM373 354q0 -38 8 -80t26.5 -89.5t58.5 -78t95 -30.5q151 0 307 86q-132 95 -231 223t-150 229 q-114 -82 -114 -260zM582 1155q0 -27 2.5 -56t6 -53t8.5 -49.5t10 -44t11 -38t9.5 -30.5t7.5 -22l4 -12q1 1 22.5 20t45.5 40.5t54.5 55t54 66t40 70t16.5 69.5q0 26 -6.5 56t-20 62t-40.5 53.5t-64 21.5q-24 0 -50 -11t-51.5 -33.5t-42.5 -65.5t-17 -99z" />
<glyph unicode="'" horiz-adv-x="673" d="M215 1309q-6 49 30.5 85t90.5 36q55 0 91.5 -36t29.5 -85l-68 -451h-106z" />
<glyph unicode="(" horiz-adv-x="942" d="M225 512q0 280 100.5 514.5t264.5 384.5q35 35 91.5 80t82.5 45q41 0 41 -31q0 -11 -5 -17t-34 -32q-334 -318 -334 -944t342 -948l7 -7l6 -6l5 -5l4 -4t3 -3.5t2.5 -3.5l1.5 -3t1.5 -3.5t0.5 -3.5v-4q0 -33 -41 -33q-29 0 -90 49t-92 80q-39 35 -80 83.5t-92.5 132.5 t-91 179t-66.5 227.5t-27 272.5z" />
<glyph unicode=")" horiz-adv-x="942" d="M135 -479q0 8 5.5 15t33.5 32q334 329 334 944q0 302 -81 538t-263 412l-7 7l-6 6l-5 5l-4 4t-2.5 3.5t-2 4t-1.5 3.5t-1 4v4q0 33 41 33q29 0 90 -49t92 -80q39 -37 78.5 -84t92 -132t92 -179t67 -227t27.5 -273q0 -278 -101 -511t-264 -388q-35 -35 -91.5 -80 t-82.5 -45q-41 0 -41 33z" />
<glyph unicode="*" d="M156 901q0 22 6.5 38t19.5 25.5t20 12.5t21 8l285 96l-287 97q-65 23 -65 84q0 37 27.5 68.5t66.5 31.5q18 0 25 -3.5t32 -21.5l254 -184l-45 272l-4 29q0 39 28 60.5t64 21.5q38 0 66 -23t28 -59v-8q0 -3 -4 -23l-45 -270l254 186q31 23 58 23q41 0 67.5 -31t26.5 -69 q0 -22 -6.5 -38t-20 -25.5t-20 -12.5t-21.5 -8l-285 -97l287 -96q66 -23 66 -84q0 -37 -27.5 -68.5t-66.5 -31.5q-19 0 -27 3.5t-31 20.5l-254 185l45 -273l4 -28q0 -39 -28 -60.5t-64 -21.5q-38 0 -66 23t-28 59v8q0 2 4 22l45 271l-254 -187q-30 -22 -57 -22 q-41 0 -67.5 31t-26.5 69z" />
<glyph unicode="+" horiz-adv-x="1884" d="M135 512q0 66 90 66h652v651q0 16 1 26.5t6.5 28t20 26.5t37.5 9q66 0 66 -90v-651h649q90 0 90 -66t-90 -66h-649v-651q0 -90 -66 -90q-23 0 -37.5 9t-20 26.5t-6.5 28t-1 26.5v651h-652q-90 0 -90 66z" />
<glyph unicode="," horiz-adv-x="673" d="M176 162q0 66 43 113t117 47q84 0 136 -75t52 -184q0 -80 -23 -156.5t-55.5 -129.5t-68.5 -93.5t-63 -60.5t-38 -20q-17 0 -31 14t-14 31q0 4 1 7.5t2 5.5t4 5l4 4t5 4t5 4q175 143 188 357q-45 -35 -102 -35q-75 0 -118.5 48t-43.5 114z" />
<glyph unicode="-" horiz-adv-x="806" d="M27 352v205h643v-205h-643z" />
<glyph unicode="." horiz-adv-x="673" d="M176 162q0 65 46 112.5t116 47.5q65 0 112.5 -46t47.5 -116q0 -65 -46 -112.5t-116 -47.5q-65 0 -112.5 46t-47.5 116z" />
<glyph unicode="/" d="M135 -446q0 6 2 12q6 23 10 33l795 1878q8 17 11 23.5t11.5 17t19.5 14.5t26 4q27 0 46 -18.5t19 -47.5q0 -6 -2 -12q-6 -23 -10 -33l-795 -1878q-18 -40 -32 -49.5t-35 -9.5q-27 0 -46.5 18.5t-19.5 47.5z" />
<glyph unicode="0" d="M94 653q0 48 1 83.5t6 94t14.5 102.5t27.5 100t43.5 97t64.5 83.5t88.5 69t117.5 43.5t149 17q82 0 150.5 -17.5t117.5 -45t88 -71t64 -85t43 -99t27 -100.5t13.5 -102t5.5 -91t1 -79q0 -49 -1 -84t-6 -92.5t-14.5 -100.5t-27.5 -98.5t-43.5 -95.5t-64.5 -81t-88.5 -67 t-117.5 -42.5t-149 -16.5q-104 0 -186.5 28t-135 68t-90.5 105t-56.5 119t-28.5 131.5t-11.5 120.5t-1.5 106zM367 678q0 -297 16 -408q8 -53 29 -94t45.5 -62.5t54.5 -35t52 -17.5t42 -4q58 0 115 34t90 104q33 85 33 483q0 287 -17 391q-8 46 -27.5 81.5t-43 56 t-52.5 33.5t-53 17.5t-47 4.5q-20 0 -41.5 -3.5t-51 -15.5t-53 -31t-45 -54.5t-30.5 -82.5q-16 -98 -16 -397z" />
<glyph unicode="1" d="M180 1112v100h41q30 0 63.5 2.5t98 12t133 36t123.5 66.5q13 10 20 12t27 2q41 0 50 -13.5t9 -53.5v-1176h297v-100q-82 6 -421 6q-340 0 -418 -6v100h293v1053q-135 -41 -275 -41h-41z" />
<glyph unicode="2" d="M121 0v39q0 32 2.5 40t19.5 25l457 451q197 204 197 393q0 129 -75.5 212t-199.5 83q-118 0 -205 -65q61 -20 85 -60.5t24 -85.5q0 -73 -47.5 -113t-104.5 -40q-60 0 -106.5 40.5t-46.5 114.5q0 92 60 163t162.5 108.5t229.5 37.5q148 0 265 -47.5t184.5 -137.5 t67.5 -208q0 -42 -10.5 -81.5t-24 -70t-42.5 -65.5t-50 -57t-63.5 -55.5t-66 -50.5t-73.5 -52q-119 -82 -334 -256h293q186 0 213 10q11 6 21 33.5t15.5 55t10.5 62t6 38.5h105l-64 -461h-905z" />
<glyph unicode="3" d="M100 291q0 75 46.5 119.5t115.5 44.5q72 0 117 -45t45 -117q0 -28 -9 -56t-36 -56.5t-70 -41.5q42 -30 104.5 -47.5t96.5 -20.5t59 -3q36 0 66 8t51 19t38 31t27.5 37t18 43t11 43.5t5.5 45t2 39.5v35q0 31 -0.5 50.5t-5 54.5t-13 58.5t-25.5 52.5t-40.5 46t-60.5 29 t-84 12h-96q-24 0 -34 1.5t-18 10.5t-8 29q0 35 33 41l96 6q50 3 90 24.5t63.5 53t39.5 72.5t21.5 78t5.5 75q0 20 -0.5 32.5t-4 35.5t-10 38.5t-19.5 34.5t-31.5 30.5t-47.5 19.5t-66 8q-83 0 -146.5 -27.5t-84.5 -48.5q59 -13 90 -53t31 -93q0 -64 -41.5 -105.5 t-106.5 -41.5q-63 0 -105 41t-42 108q0 127 115.5 214t300.5 87q220 0 339 -80.5t119 -203.5q0 -102 -70.5 -194.5t-215.5 -143.5q169 -36 261.5 -131t92.5 -221q0 -58 -18.5 -113t-60 -106.5t-101.5 -90t-150.5 -61.5t-199.5 -23q-208 0 -344 87.5t-136 228.5z" />
<glyph unicode="4" d="M68 317v101l729 899q11 13 14.5 16.5t12 8.5t18 5.5t28.5 0.5q46 0 57 -12t11 -58v-860h205v-101h-205v-217h205v-100q-76 6 -342 6q-289 0 -361 -6v100h236v217h-608zM184 418h516v637z" />
<glyph unicode="5" d="M121 324q0 73 44 110t99 37q56 0 99 -36.5t43 -106.5q0 -58 -34 -97t-98 -45q40 -52 110 -85t153 -33q42 0 76.5 7.5t59.5 19t44.5 32t32 38.5t21 47t13 49t6.5 54t2.5 52t0.5 51q0 40 -0.5 62t-2.5 59t-7.5 58.5t-14 50.5t-22.5 46t-33.5 33t-47.5 23.5t-63 7.5 q-182 0 -276 -113q-17 -20 -25.5 -24.5t-28.5 -4.5q-23 0 -34.5 9.5t-13 20.5t-1.5 36v604q0 20 1 29.5t8 18.5t22 9q4 0 8 -2l10 -2q9 -2 17 -6q156 -55 319 -55q177 0 324 55q4 3 8.5 4.5t9 2t6.5 1.5q2 2 7 2q32 0 32 -40q0 -35 -59.5 -95t-104.5 -88 q-152 -102 -342 -102q-83 0 -145 12v-260q112 70 268 70q225 0 351.5 -121.5t126.5 -306.5q0 -189 -145.5 -313t-399.5 -124q-186 0 -305 104.5t-119 244.5z" />
<glyph unicode="6" d="M100 649q0 147 38 266.5t100 197.5t145.5 131t171 76t180.5 23q82 0 145 -22.5t98.5 -60.5t53 -82.5t17.5 -94.5q0 -69 -42 -103t-92 -34q-55 0 -94 35t-39 98q0 44 26 81.5t83 49.5q-54 52 -152 52q-86 0 -160 -39.5t-118 -110.5q-72 -110 -72 -373v-34 q33 60 93.5 107.5t148.5 47.5q106 0 185.5 -23.5t152.5 -86.5q83 -73 112 -153t29 -177q0 -204 -138 -324.5t-358 -120.5q-287 0 -419 228q-95 162 -95 446zM393 430q0 -169 27 -235q62 -127 190 -127q31 0 57 4t46 14t35.5 19.5t27 29t19.5 33.5t12.5 42t7.5 45.5t4.5 52.5 t1.5 55v61v3v66.5t-2 59t-5.5 56t-10 47t-16 42.5t-24.5 32t-34.5 26t-45.5 14t-58 6q-108 0 -170 -93t-62 -253z" />
<glyph unicode="7" d="M135 858l72 526h104q0 -2 1.5 -6.5l2 -6t1.5 -5.5t2 -5.5l3 -4.5t4.5 -4.5t5.5 -4t7 -4t9 -3.5t11 -3q16 -4 164 -11t189 -7h467v-59q0 -14 -21 -41l-328 -369q-63 -71 -99.5 -182.5t-47 -221t-10.5 -258.5q0 -93 -3.5 -116t-27.5 -54q-43 -43 -102 -43q-11 0 -23 1.5 t-33 10t-37 23t-28 44t-12 69.5q0 320 204 627q34 50 68.5 92t183.5 215h-340q-184 0 -227 -13q-10 -7 -19 -28q-25 -63 -36 -158h-105z" />
<glyph unicode="8" d="M100 330q0 43 9.5 81.5t22.5 67t38 56.5t42.5 45t51 38.5t49 30.5t49.5 27q-98 54 -146 134.5t-48 170.5q0 158 114.5 260t327.5 102q199 0 315.5 -78t116.5 -223q0 -182 -208 -284q42 -22 72 -41t71.5 -54.5t68 -72t45.5 -91t19 -116.5q0 -183 -133 -295.5t-375 -112.5 q-84 0 -157 12.5t-137 39.5t-110 68t-72 101t-26 134zM285 332q0 -130 89.5 -197t233.5 -67q32 0 63.5 2.5t80.5 14.5t85 31.5t62.5 59.5t26.5 94q0 35 -12 62.5t-41 52t-55.5 41t-76.5 43.5l-272 147q-184 -104 -184 -284zM328 1104q0 -68 88 -121l317 -170q150 84 150 227 q0 104 -74 163t-209 59q-49 0 -91.5 -6t-86 -22t-69 -49t-25.5 -81z" />
<glyph unicode="9" d="M100 901q0 205 141 323.5t367 118.5q254 0 391 -190q111 -171 111 -479q0 -149 -35.5 -270t-94.5 -199.5t-139 -131.5t-163.5 -75.5t-173.5 -22.5q-169 0 -255.5 74.5t-86.5 186.5q0 69 41.5 103t91.5 34q55 0 94 -35t39 -98q0 -98 -96 -129q63 -43 168 -43 q56 0 104.5 17t80.5 44t51.5 51t31.5 49q53 120 53 351v36q-86 -155 -241 -155q-224 0 -352 122t-128 318zM389 837.5q0 -19.5 1.5 -54.5t4 -52.5t7 -45t12 -41.5t18 -33t25 -28.5t33 -19.5t43 -14t53.5 -4q56 0 99.5 26t68 64t40 86.5t20.5 86.5t5 71q0 184 -24 249 q-4 12 -14 29.5t-31 43.5t-57.5 43.5t-80.5 17.5q-37 0 -66.5 -6.5t-51.5 -16t-39 -28.5t-28 -35t-18.5 -45.5t-11.5 -49.5t-5.5 -58.5t-2 -60t-0.5 -65.5v-59.5z" />
<glyph unicode=":" horiz-adv-x="673" d="M176 162q0 65 46 112.5t116 47.5q65 0 112.5 -46t47.5 -116q0 -65 -46 -112.5t-116 -47.5q-65 0 -112.5 46t-47.5 116zM176 750q0 65 46 112t116 47q65 0 112.5 -45.5t47.5 -115.5q0 -66 -47 -113t-113 -47q-68 0 -115 47t-47 115z" />
<glyph unicode=";" horiz-adv-x="673" d="M176 162q0 66 43 113t117 47q82 0 125 -71t43 -185q0 -79 -20.5 -155t-50.5 -129.5t-62.5 -95.5t-58 -62.5t-36.5 -20.5q-17 0 -31 14t-14 31q0 11 13 24q62 62 93 108q72 109 83 240q-33 -20 -82 -20q-75 0 -118.5 48t-43.5 114zM176 750q0 65 46 112t116 47 q65 0 112.5 -45.5t47.5 -115.5q0 -66 -47 -113t-113 -47q-68 0 -115 47t-47 115z" />
<glyph unicode="&#x3c;" horiz-adv-x="1830" d="M197 514q0 42 51 64l1282 612q21 12 39 12q28 0 45.5 -18.5t17.5 -42.5q0 -43 -51 -66l-1178 -563l1178 -561q51 -23 51 -66q0 -24 -17.5 -42.5t-45.5 -18.5q-7 0 -13 2q-20 5 -32 12l-1276 611q-18 9 -26.5 14.5t-16.5 19t-8 31.5z" />
<glyph unicode="=" horiz-adv-x="1884" d="M135 274q0 66 92 66h1428q92 0 92 -66q0 -23 -9 -37.5t-26.5 -20t-28 -6.5t-26.5 -1h-1432q-16 0 -26.5 1t-28 6.5t-26.5 20t-9 37.5zM135 750q0 23 9 37.5t26.5 20t28 6.5t26.5 1h1432q16 0 26.5 -1t28 -6.5t26.5 -20t9 -37.5t-9.5 -38t-26.5 -20t-28 -6.5t-28 -1.5 h-1428q-92 0 -92 66z" />
<glyph unicode="&#x3e;" horiz-adv-x="1830" d="M197 -115q0 43 51 66l1177 563l-1177 561q-26 13 -38.5 27.5t-12.5 38.5q0 25 18 43t43 18q16 0 47 -14l1276 -610q51 -22 51 -64q0 -27 -12 -40t-39 -25l-1282 -613q-21 -12 -39 -12q-28 0 -45.5 18.5t-17.5 42.5z" />
<glyph unicode="?" horiz-adv-x="1144" d="M135 1171q0 51 24.5 96.5t73 83.5t131.5 60.5t189 22.5q28 0 50.5 -0.5t73 -6t89.5 -14.5t86.5 -29t79.5 -47.5t54 -71t22 -98.5q0 -56 -30.5 -110t-98.5 -92q-150 -85 -219.5 -179t-69.5 -215v-47q0 -39 -7.5 -50t-43.5 -11q-39 0 -46.5 12.5t-7.5 79.5q0 272 185 457 q37 37 51 68.5t14 101.5q0 30 -1.5 47t-7 40t-18 35.5t-33.5 24.5t-54.5 17.5t-79.5 5.5q-140 0 -226 -58q86 -34 86 -127q0 -62 -40.5 -97.5t-92.5 -35.5q-47 0 -90 33.5t-43 103.5zM377 162q0 64 47 112t115 48q65 0 112 -46t47 -116q0 -64 -46.5 -112t-114.5 -48 q-65 0 -112.5 46t-47.5 116z" />
<glyph unicode="@" horiz-adv-x="1884" d="M135 711q0 150 52.5 280.5t152 229.5t254.5 156t348 57q185 0 337 -54t254.5 -150.5t158 -230.5t55.5 -292q0 -25 -1 -50t-7 -72t-16.5 -87t-31.5 -86t-49.5 -77.5t-73.5 -53t-100 -21.5q-184 0 -256 92q-113 -92 -274 -92q-216 0 -347.5 124.5t-131.5 326.5t131.5 326 t347.5 124q222 0 342 -172h78q46 0 55.5 -9.5t9.5 -51.5v-469q0 -117 66 -117q153 0 153 356q0 157 -53 282t-147 206t-222 123.5t-280 42.5q-164 0 -297 -48t-221 -134t-135 -203t-47 -256q0 -102 25.5 -195t81.5 -175t137.5 -142t200.5 -94.5t263 -34.5q309 0 604 108 q32 13 44 16t36 3h56q20 0 30 -1t19.5 -9t9.5 -23q0 -13 -12 -25q-13 -8 -82 -30q-345 -121 -703 -121q-167 0 -304.5 40t-230.5 108.5t-157.5 161.5t-93.5 196.5t-29 216.5zM698 711q0 -181 71 -275t175 -94q33 0 67.5 6.5t86 35.5t86.5 79v495q-28 38 -63.5 64.5 t-70.5 37.5t-59.5 15t-46.5 4q-104 0 -175 -92.5t-71 -275.5z" />
<glyph unicode="A" horiz-adv-x="1828" d="M88 0v100h43q57 0 109 6q37 4 45.5 10t19.5 31l518 1231q11 26 26 39t27.5 15t36.5 2t36.5 -2t28 -15t26.5 -39l536 -1278h199v-100q-80 6 -338 6q-293 0 -363 -6v100h193l-123 293h-567l-113 -270q57 -23 182 -23v-100q-127 6 -272 6q-137 0 -250 -6zM584 494h481 l-240 573z" />
<glyph unicode="B" horiz-adv-x="1722" d="M86 0v100h221v1205h-221v100h909q243 0 383 -102t140 -250q0 -117 -94.5 -203t-262.5 -115q200 -24 312 -120t112 -234q0 -76 -33.5 -144t-97.5 -121t-166 -84.5t-229 -31.5h-973zM580 100h393q80 0 140 24.5t94.5 65.5t51.5 90.5t17 104.5q0 133 -72 223q-72 82 -211 82 h-413v-590zM580 772h335q147 0 226.5 80.5t79.5 200.5q0 21 -2.5 43t-16.5 62.5t-38.5 70.5t-75 53t-119.5 23h-389v-533z" />
<glyph unicode="C" horiz-adv-x="1751" d="M135 702q0 156 58 289.5t164.5 230.5t266.5 152.5t355 55.5q245 0 416 -140l135 119q2 2 6.5 6t6 5t4.5 3.5t5 3t5.5 2t7 1.5h8.5q28 0 34.5 -13t6.5 -47v-442q0 -41 -10 -50.5t-52 -9.5q-20 0 -29 1t-18 7t-12 19q-20 117 -70.5 204.5t-118.5 135.5t-138.5 71t-143.5 23 q-133 0 -247.5 -42t-184.5 -122q-67 -75 -100 -180.5t-33 -282.5q0 -318 123 -452q155 -174 446 -174q61 0 123.5 13t126 43.5t113 75.5t82.5 115t38 156q1 15 10 23t17.5 9t24.5 1q17 0 23 -0.5t15 -4.5t12 -13.5t3 -26.5q0 -92 -45.5 -180.5t-126 -158t-201 -111.5 t-260.5 -42q-198 0 -359.5 56.5t-267 155t-162.5 230.5t-57 285z" />
<glyph unicode="D" horiz-adv-x="1857" d="M86 0v100h221v1205h-221v100h903q214 0 379.5 -87t258.5 -249.5t93 -376.5q0 -162 -56 -294t-154.5 -218.5t-231.5 -133t-287 -46.5h-905zM592 100h313q105 0 187.5 24t134.5 57.5t89.5 90.5t55 102t27.5 115t11 106t1 97q0 160 -21 264.5t-83 184.5q-65 83 -170 123.5 t-234 40.5h-311v-1205z" />
<glyph unicode="E" horiz-adv-x="1591" d="M86 0v100h221v1192h-221v101h1305l63 -498h-104q-9 70 -20.5 119t-31 97t-49.5 79t-74 55.5t-105 35.5t-142 11h-324v-520h119q60 0 101 11.5t64.5 29t36 51t16 65.5t3.5 83h105v-580h-105q0 51 -3.5 83t-16 65.5t-36 51t-64.5 29t-101 11.5h-119v-572h326q65 0 120 8 t97 20t76.5 34.5t59 44.5t44.5 57t32.5 63.5t24.5 73.5t18 78.5t15 85.5h105l-97 -565h-1339z" />
<glyph unicode="F" horiz-adv-x="1523" d="M86 0v100h221v1192h-221v101h1272l63 -498h-104q-8 59 -16 99.5t-22.5 85.5t-33.5 74.5t-49.5 57.5t-70.5 44.5t-95 26t-125 9.5h-301v-544h111q49 0 85 6.5t59.5 22t38.5 33.5t22 48t9.5 58t2.5 71h104v-579h-104q0 43 -2.5 71t-9.5 58t-22 48t-38.5 33.5t-59.5 22 t-85 6.5h-111v-547h277v-100q-84 6 -414 6q-309 0 -381 -6z" />
<glyph unicode="G" horiz-adv-x="1904" d="M135 702q0 156 58 289.5t164.5 230.5t266.5 152.5t355 55.5q245 0 416 -140l135 119q2 2 6.5 6t6 5t4.5 3.5t5 3t5.5 2t7 1.5h8.5q28 0 34.5 -13t6.5 -47v-442q0 -41 -10 -50.5t-52 -9.5q-20 0 -29 1t-18 7t-12 19q-20 117 -70.5 204.5t-118.5 135.5t-138.5 71t-143.5 23 q-42 0 -86 -5t-105.5 -19.5t-123 -47.5t-109.5 -81q-141 -141 -141 -471q0 -312 123 -451q159 -178 458 -178q112 0 191 39q32 16 51.5 34.5t26.5 41t8.5 35t1.5 36.5v205h-303v100q90 -6 422 -6q266 0 346 6v-100h-168v-408q0 -20 -1 -30t-8 -19.5t-22 -9.5 q-13 0 -87.5 35.5t-111.5 64.5q-114 -125 -401 -125q-202 0 -365 57.5t-267.5 157t-160 230.5t-55.5 282z" />
<glyph unicode="H" horiz-adv-x="1892" d="M86 0v100h221v1205h-221v100q70 -6 371 -6q296 0 368 6v-100h-221v-525h682v525h-221v100q70 -6 371 -6q296 0 368 6v-100h-221v-1205h221v-100q-70 6 -370 6q-297 0 -369 -6v100h221v580h-682v-580h221v-100q-70 6 -370 6q-297 0 -369 -6z" />
<glyph unicode="I" horiz-adv-x="913" d="M76 0v100h231v1205h-231v100q72 -6 381 -6q307 0 379 6v-100h-232v-1205h232v-100q-72 6 -381 6q-307 0 -379 -6z" />
<glyph unicode="J" horiz-adv-x="1251" d="M47 231q0 76 47.5 120t114.5 44q68 0 115 -44.5t47 -117.5q0 -41 -20.5 -81t-67.5 -64q77 -31 166 -31q100 0 154 61t54 187v1000h-286v100q78 -6 403 -6q250 0 334 6v-100h-166v-998q0 -154 -132 -243t-353 -89q-190 0 -300 69.5t-110 186.5z" />
<glyph unicode="K" horiz-adv-x="1896" d="M86 0v100h221v1205h-221v100q70 -6 371 -6q296 0 368 6v-100h-221v-650l776 627q-2 1 -2.5 1t-0.5 0.5t-1 1.5t-4 2t-8 3q-45 15 -121 15v100q76 -6 295 -6q141 0 221 6v-100h-35q-51 0 -73 -1t-59.5 -9.5t-59.5 -26.5l-508 -410l571 -719q14 -18 23 -24t36 -10.5 t81 -4.5h59v-100q-131 6 -309 6q-279 0 -357 -6v100q120 0 138 14q6 4 6 9l-15 18l-438 553l-215 -174v-420h221v-100q-70 6 -370 6q-297 0 -369 -6z" />
<glyph unicode="L" horiz-adv-x="1456" d="M86 0v100h221v1205h-221v100q72 -6 383 -6q328 0 412 6v-100h-277v-1205h219q61 0 113.5 12t90.5 30t70.5 48.5t53 56.5t38 67.5t26.5 67.5t17 69t10.5 60.5t6.5 53.5h105l-64 -565h-1204z" />
<glyph unicode="M" horiz-adv-x="2297" d="M92 0v100h53q62 0 109 6q43 5 51 12t8 42v1145h-221v100h459q22 0 30.5 -0.5t23 -5t24 -16t18.5 -31.5l502 -1084l504 1086q9 19 18.5 29.5t22.5 15t23 5.5t30 1h457v-100h-222v-1205h222v-100q-72 6 -353 6q-278 0 -350 -6v100h221v1203h-2l-579 -1250q-7 -15 -13 -24.5 t-21.5 -19t-37.5 -9.5q-17 0 -29.5 5t-20.5 15t-11.5 16.5t-8.5 16.5l-567 1223h-2v-1116q0 -35 8 -42t51 -12q47 -6 109 -6h53v-100q-133 6 -280 6q-146 0 -279 -6z" />
<glyph unicode="N" horiz-adv-x="1892" d="M86 0v100h53q62 0 109 6q43 5 51 12t8 42v1145h-221v100h473q33 0 43 -3.5t27 -23.5l837 -956v823q0 35 -8 41.5t-51 11.5q-55 7 -109 7h-53v100q135 -6 281 -6q145 0 278 6v-100h-53q-54 0 -109 -7q-43 -5 -51 -11.5t-8 -41.5v-1177q0 -22 -1 -31t-6.5 -19.5t-17.5 -14 t-34 -3.5q-25 0 -34.5 4t-25.5 23l-1040 1187v-1054q0 -35 8 -42t51 -12q47 -6 109 -6h53v-100q-133 6 -280 6q-146 0 -279 -6z" />
<glyph unicode="O" horiz-adv-x="1820" d="M135 694q0 160 53 295t151 233t244.5 153t325.5 55q238 0 414.5 -95t268 -261t91.5 -380q0 -156 -52.5 -288t-150.5 -227.5t-244.5 -149.5t-326.5 -54t-326.5 54t-244 150t-150.5 228t-53 287zM457 725q0 -301 92 -455q60 -102 158 -151t202 -49q115 0 215 57t156 160 q46 90 64 193t18 245q0 139 -21 251.5t-88 201.5q-59 80 -149 121.5t-195 41.5q-112 0 -198 -44.5t-136 -104.5q-69 -91 -93.5 -202t-24.5 -265z" />
<glyph unicode="P" horiz-adv-x="1654" d="M86 0v100h221v1205h-221v100h875q256 0 406.5 -113.5t150.5 -287.5q0 -118 -73.5 -208.5t-195 -137t-268.5 -46.5h-377v-512h221v-100q-70 6 -370 6q-297 0 -369 -6zM592 702h289q51 0 93.5 6t73.5 15t55 26t39.5 31.5t26 39.5t16 42t8 47t3 46.5t0.5 48.5q0 49 -1.5 74 t-9.5 67t-28 65t-53.5 48t-89 36t-131.5 11h-291v-603z" />
<glyph unicode="Q" horiz-adv-x="1820" d="M135 694q0 160 53 295t151 233t244.5 153t325.5 55q238 0 414.5 -95t268 -261t91.5 -380q0 -142 -44.5 -267.5t-143 -230.5t-242.5 -161q56 -72 95 -91.5t94 -19.5q161 0 174 74q9 43 41 43q41 0 41 -55q0 -47 -10 -97.5t-33 -102t-56 -92t-83 -66t-109 -25.5 q-32 0 -60 6.5t-49.5 16t-41.5 28.5t-34.5 36t-29 47.5t-24 53t-21.5 62.5t-19.5 67t-19.5 74q-101 -19 -199 -19q-180 0 -326.5 54t-244 150t-150.5 228t-53 287zM444 696q0 -55 2.5 -99.5t10.5 -105.5t26 -112t45.5 -103t72.5 -94t104 -71q-5 25 -5 39q0 78 63 125t146 47 q40 0 77.5 -14t62 -29.5t53.5 -46.5t39.5 -44t32.5 -43q42 28 75 69t53.5 80t35.5 92t21.5 89.5t10 89t4 73t0.5 58.5q0 148 -22 258.5t-80 198.5q-58 91 -155.5 139.5t-207.5 48.5q-106 0 -194.5 -43t-145.5 -114q-70 -94 -97.5 -209.5t-27.5 -278.5zM782 150q0 -29 29 -58 t98 -29q86 0 168 31q-49 146 -168 146q-50 0 -88.5 -24.5t-38.5 -65.5z" />
<glyph unicode="R" horiz-adv-x="1816" d="M86 0v100h221v1205h-221v100h797q284 0 456 -108.5t172 -272.5q0 -82 -50.5 -150.5t-124.5 -111t-167 -68.5q43 -16 76 -35.5t56 -37t40.5 -45t27 -45.5t18.5 -54.5t12 -56t10 -64.5q7 -55 11.5 -84.5t13.5 -70.5t19.5 -62t27 -42.5t39.5 -30.5t53 -9q48 0 86 36t45 106 q1 12 2.5 18t6 14.5t15 12.5t27.5 4q15 0 24.5 -2t19 -13.5t9.5 -33.5q0 -17 -5 -40.5t-22 -57t-43 -60.5t-74 -46.5t-110 -19.5q-215 0 -331 66q-23 13 -41 27t-31 31.5t-22 31.5t-14.5 37.5t-8.5 37t-4.5 42.5t-1.5 42.5v47.5q0 113 -9.5 156.5t-48.5 87.5 q-43 46 -87.5 63t-110.5 17h-252v-562h221v-100q-74 6 -364 6q-289 0 -363 -6zM592 743h254q70 0 125.5 10t91 24.5t60.5 39.5t38 46.5t20 54.5t8 53t1 53q0 34 -1 55t-8 54t-19.5 54t-37.5 45.5t-60.5 39t-90 24t-123.5 9.5h-258v-562z" />
<glyph unicode="S" horiz-adv-x="1345" d="M135 35v371q0 20 0.5 26t2.5 16t7.5 12t15.5 4.5t27 2.5q35 0 42.5 -8.5t9.5 -40.5q3 -66 26 -119.5t56 -88t79 -60.5t88.5 -40t92 -22t82 -10t65.5 -2q74 0 129.5 21.5t82.5 49.5t43 65.5t19 59.5t3 41q0 25 -6 49.5t-14 42t-16 30.5t-14 21l-6 7q-13 14 -25 24.5 t-21 18t-24 14t-22 10t-27 9t-28 7.5t-36 8t-40 9q-47 12 -96 21q-174 35 -243.5 63.5t-149.5 108.5q-1 2 -13 17t-21.5 28t-23 38t-22.5 49.5t-16 59t-7 70.5q0 79 28 151t83.5 131.5t148.5 94.5t211 35q215 0 359 -113l90 88q19 18 25.5 21.5t19.5 3.5q28 0 34.5 -13 t6.5 -47v-373q0 -38 -8.5 -48.5t-45.5 -10.5q-33 0 -40.5 7.5t-12.5 35.5q-8 47 -22 89.5t-45.5 93.5t-75.5 87t-117.5 61t-165.5 25q-74 0 -129 -19.5t-84.5 -52.5t-43 -68.5t-13.5 -74.5q0 -14 2 -29t14 -44.5t32.5 -53.5t63.5 -48t101 -36l297 -63q153 -33 256.5 -151.5 t103.5 -280.5q0 -66 -16 -127.5t-52.5 -119t-90.5 -100t-136 -68.5t-182 -26q-269 0 -420 111q-16 -14 -37.5 -35.5t-37 -37.5t-21.5 -19q-13 -13 -19.5 -16t-19.5 -3q-28 0 -34.5 12.5t-6.5 47.5z" />
<glyph unicode="T" horiz-adv-x="1685" d="M88 883l45 497h1417l45 -497h-104q-16 159 -35 217q-37 117 -142 156q-64 24 -161 24h-162v-1180h314v-100q-90 6 -461 6q-373 0 -463 -6v100h313v1180h-162q-63 0 -112 -11t-82 -25t-57.5 -47.5t-38 -56t-24 -75t-14 -80t-10.5 -93.5q-1 -6 -1 -9h-105z" />
<glyph unicode="U" horiz-adv-x="1861" d="M86 1305v100q70 -6 371 -6q296 0 368 6v-100h-221v-846q0 -34 1 -57t8.5 -66.5t21 -74.5t41 -68.5t66 -61t99 -39.5t136.5 -16q97 0 178 23.5t144 70.5t98 125t35 180v770q0 35 -8 41.5t-52 11.5q-55 7 -108 7h-54v100q135 -6 283 -6q154 0 281 6v-100h-54q-53 0 -108 -7 q-44 -5 -52 -11.5t-8 -41.5v-774q0 -99 -35.5 -186.5t-104.5 -157.5t-183.5 -111t-259.5 -41q-159 0 -286.5 39.5t-208.5 108.5t-124 158.5t-43 191.5v832h-221z" />
<glyph unicode="V" horiz-adv-x="1828" d="M57 1305v100q82 -6 330 -6q289 0 361 6v-100h-189l445 -979l434 956q-55 23 -178 23v100l270 -6q128 0 239 6v-100h-36q-72 0 -110 -6.5t-47 -14t-15 -24.5l-555 -1223q-9 -20 -19 -31.5t-23 -16.5t-22.5 -6t-28.5 -1q-25 0 -37 2t-27.5 14.5t-27.5 38.5l-575 1268h-189z " />
<glyph unicode="W" horiz-adv-x="2502" d="M53 1305v100q92 -6 320 -6q286 0 356 6v-100h-194l368 -936l291 735l-80 201h-174v100q92 -6 320 -6q286 0 356 6v-100h-195l369 -936l360 913q-59 23 -206 23v100q90 -6 276 -6q127 0 227 6v-100q-79 0 -112 -5q-47 -4 -58 -10.5t-22 -32.5l-494 -1247q-17 -28 -67 -28 q-26 0 -42 8.5t-21.5 17.5t-14.5 31l-367 924l-364 -924q-9 -22 -14.5 -31t-21.5 -17.5t-42 -8.5t-42 8t-21.5 17.5t-14.5 31.5l-502 1266h-174z" />
<glyph unicode="X" horiz-adv-x="1828" d="M76 0v100h59q20 0 48.5 1.5t50.5 3t24 1.5q56 7 70 15q10 6 20 18l424 547l-463 619h-200v100q76 -6 337 -6q297 0 369 6v-100h-166l297 -398l275 353q8 8 11 14t5 8q-68 23 -182 23v100q78 -6 311 -6l283 6v-100h-58q-61 0 -118 -7q-39 -3 -55 -7t-22 -8t-20 -21 l-354 -455l530 -707h201v-100q-76 6 -340 6q-297 0 -369 -6v100h166l-362 486l-342 -441q-14 -15 -17 -22q66 -23 183 -23v-100q-76 6 -314 6z" />
<glyph unicode="Y" horiz-adv-x="1828" d="M45 1305v100q74 -6 344 -6q301 0 375 6v-100h-170l420 -594l389 546l14 27q-8 3 -16.5 6t-15.5 5t-16 3.5t-14.5 2.5t-15.5 2t-14 1.5t-15 0.5h-14.5h-15.5h-14v100l272 -6q144 0 244 6v-100h-43q-46 0 -107 -7q-6 -1 -16 -2t-13.5 -1.5t-10 -1.5t-9.5 -2.5t-7.5 -3.5 t-8 -5.5l-7.5 -7.5t-8 -10l-497 -703v-461h221v-100q-74 6 -365 6q-288 0 -362 -6v100h221v461l-526 744h-199z" />
<glyph unicode="Z" horiz-adv-x="1480" d="M135 57q0 30 17 54l841 1194h-270q-72 0 -131.5 -9.5t-118.5 -36.5t-100 -70t-68.5 -115t-32.5 -167h-104l27 498h1079q22 0 30 -0.5t19.5 -5t15.5 -16t4 -31.5q0 -29 -18 -56l-838 -1187h291q117 0 202 26t134 66.5t80 106.5t42.5 128t16.5 150h105l-39 -586h-1114 q-22 0 -31.5 1t-20.5 6t-14.5 17t-3.5 33z" />
<glyph unicode="[" horiz-adv-x="673" d="M268 -512v2048h350v-131h-219v-1786h219v-131h-350z" />
<glyph unicode="\" horiz-adv-x="1177" d="M131 1473q0 29 18.5 46t43.5 17q20 0 33.5 -9t19 -19t14.5 -33l772 -1883q12 -32 12 -41q0 -29 -18 -46t-43 -17q-15 0 -26 4t-19.5 16t-11.5 17.5t-11 23.5l-772 1883q-12 32 -12 41z" />
<glyph unicode="]" horiz-adv-x="673" d="M53 -381h219v1786h-219v131h350v-2048h-350v131z" />
<glyph unicode="^" horiz-adv-x="1138" d="M-10 1196l579 328l580 -328l-25 -45l-557 252l-555 -252z" />
<glyph unicode="_" horiz-adv-x="1828" d="M0 -203h1829v-106h-1829v106z" />
<glyph unicode="`" d="M297 1311q0 53 38.5 92t86.5 39q34 0 56.5 -16.5t70.5 -69.5l211 -234l-64 -84l-321 164q-78 35 -78 109z" />
<glyph unicode="a" horiz-adv-x="1177" d="M57 229q0 82 58.5 144.5t157.5 99t217.5 54.5t250.5 18v65q0 236 -231 236q-99 0 -145 -12q41 -41 41 -101q0 -61 -39 -97t-95 -36q-52 0 -92.5 35.5t-40.5 99.5q0 193 379 193q228 0 345.5 -88t117.5 -230v-438q0 -22 2 -32t14 -21t39.5 -15t75.5 -4q16 0 25 -1.5 t18.5 -13t9.5 -34.5q0 -18 -4.5 -29t-15.5 -15.5t-19.5 -5.5t-27.5 -1h-101q-46 0 -82 6t-58.5 14.5t-38.5 23t-23.5 26t-11.5 30t-4.5 27t-0.5 25.5q-43 -76 -123.5 -120t-193.5 -44q-65 0 -127 10t-128.5 34t-107.5 74.5t-41 122.5zM305 229q0 -67 56 -113t135 -46 q7 0 16.5 0.5t35 4.5t48.5 11.5t50.5 23.5t47.5 38t33.5 57.5t13.5 79.5v190q-82 -3 -149.5 -15t-111.5 -29t-77.5 -39t-51.5 -43t-29 -45t-14 -41t-3 -34z" />
<glyph unicode="b" horiz-adv-x="1345" d="M84 1305v100l367 16v-598q140 99 311 99q227 0 364.5 -128.5t137.5 -338.5q0 -206 -146 -336.5t-383 -130.5q-182 0 -311 129l-96 -117h-105v1225q0 58 -21.5 69t-117.5 11zM463 213q39 -60 102 -101.5t150 -41.5q22 0 46 3.5t60 14.5t70 38t57 67q20 34 30 85.5t11.5 86 t1.5 94.5q0 41 -0.5 64.5t-5.5 69t-14 74t-27.5 65t-45 57.5t-67.5 36t-94 15q-87 0 -159 -38t-115 -93v-496z" />
<glyph unicode="c" horiz-adv-x="1077" d="M80 455q0 69 17.5 134t58 127.5t100.5 109t152 74.5t206 28q25 0 46 -0.5t61 -4.5t71.5 -11t68.5 -21.5t61.5 -34t41.5 -51t17 -70.5q0 -64 -40.5 -99.5t-92.5 -35.5q-56 0 -94.5 36t-38.5 97q0 51 26 84l7 10q0 6 -49 9.5t-76 3.5q-56 0 -100 -15.5t-72 -37t-48 -58 t-29.5 -65.5t-15 -73t-6 -67.5t-0.5 -60.5q0 -387 291 -387q92 0 157.5 40.5t96.5 114.5q12 29 19 34t38 5q13 0 19 -0.5t16 -3t14.5 -9.5t4.5 -19q0 -3 -3.5 -14.5t-13.5 -32.5t-25 -43.5t-41.5 -48.5t-58.5 -46q-104 -65 -262 -65q-124 0 -224.5 37t-165.5 101t-99.5 148 t-34.5 181z" />
<glyph unicode="d" horiz-adv-x="1345" d="M80 455q0 204 142 335.5t386 131.5q158 0 285 -93v396q0 58 -21.5 69t-117.5 11v100l366 16v-1241q0 -58 22 -69t118 -11v-100l-379 -12v102q-122 -102 -297 -102q-230 0 -367 130t-137 337zM352 451q0 -41 0.5 -64.5t5.5 -69t14 -74t27.5 -65t45 -57.5t67.5 -36t94 -15 q91 0 164.5 46t110.5 107v492q-98 125 -250 125q-63 0 -125 -25.5t-98 -81.5q-26 -36 -39 -83t-15 -85.5t-2 -113.5z" />
<glyph unicode="e" horiz-adv-x="1112" d="M68 461q0 93 33 176t96 148.5t164.5 104t228.5 38.5q201 0 315 -94q37 -31 64.5 -73.5t40.5 -79t21 -78.5t9.5 -63.5t1.5 -41.5q0 -21 -4 -33t-14 -17.5t-19.5 -6.5t-29.5 -1h-635q0 -30 1 -52t7 -63t16.5 -71t32.5 -65.5t52 -58.5t78 -38.5t108 -15.5q101 0 184 42.5 t117 119.5q1 3 4.5 10.5t4.5 9t3.5 7t4.5 6t5.5 3.5t7.5 3.5t10 1t13 0.5q53 0 53 -41q0 -13 -11 -39t-41.5 -63t-75.5 -69.5t-123 -55.5t-173 -23q-256 0 -403 132.5t-147 340.5zM340 514h502q-8 110 -25 162q-53 170 -227 170q-222 0 -247 -285q-1 -11 -3 -47z" />
<glyph unicode="f" horiz-adv-x="741" d="M90 809v100h158v203q0 83 37.5 146.5t100.5 101t138.5 56t159.5 18.5q112 0 176 -54.5t64 -128.5q0 -59 -38.5 -95t-92.5 -36q-49 0 -89 35t-40 96q0 50 32 88q4 4 4 7v2q-6 0 -10 2q-4 0 -10 1l-6 1q-21 0 -42 -3t-53.5 -17.5t-56.5 -38.5t-41.5 -71t-17.5 -110v-203 h256v-100h-244v-709h174v-100q-109 6 -278 6l-262 -6v100h139v709h-158z" />
<glyph unicode="g" d="M68 -150q0 20 6 40.5t22 47t54 50.5t94 39q-36 33 -61 84t-25 112q0 105 67 178q-106 90 -106 217q0 42 13 83t45 81.5t78.5 71t120 49.5t163.5 19q164 0 278 -66q37 30 97.5 54t127.5 24q64 0 100 -39.5t36 -85.5q0 -45 -27.5 -69.5t-65.5 -24.5t-65 26t-27 66 q0 17 6 41l-27 -4q-27 -5 -48.5 -12t-46.5 -21q81 -81 81 -195q0 -53 -22.5 -104t-69 -97t-131 -74t-196.5 -28q-151 0 -256 54q-1 -3 -4.5 -8.5t-4.5 -8.5q-8 -19 -8 -47q0 -61 47 -102q24 -19 48.5 -23t80.5 -4h103q125 0 181 -2t124 -14t125 -37q50 -23 85.5 -57.5 t52 -72.5t23.5 -70t7 -64q0 -121 -138.5 -195t-400.5 -74q-141 0 -248.5 23t-168 62t-90 83.5t-29.5 93.5zM250 -147q0 -32 18.5 -62.5t57.5 -58.5t111.5 -45t168.5 -17q99 0 172.5 18t111 46.5t54.5 57t17 56.5q0 123 -302 123h-247q-162 0 -162 -118zM354 616 q0 -26 0.5 -41t4 -41.5t10 -43t20.5 -36.5t33 -31.5t49 -19.5t68 -8t68 8t49 19.5t32.5 32t20 36.5t10 43t4 42t0.5 42q0 38 -1 59t-11 56.5t-28 55.5t-54.5 35.5t-89.5 15.5q-38 0 -68 -8t-49 -19.5t-33 -32t-20.5 -37t-10 -43.5t-4 -42t-0.5 -42z" />
<glyph unicode="h" horiz-adv-x="1345" d="M102 0v100h140v1125q0 58 -22 69t-118 11v100l367 16v-694q128 195 356 195q72 0 127 -12.5t102 -44t72 -92t25 -148.5v-525h139v-100l-260 6l-258 -6v100h139v543q0 110 -29 153.5t-89 43.5q-49 0 -101 -18.5t-100.5 -55t-79.5 -101t-31 -145.5v-420h140v-100l-261 6z " />
<glyph unicode="i" horiz-adv-x="673" d="M106 0v100h140v625q0 58 -20 69t-113 11v100l360 17v-822h125v-100q-113 6 -242 6q-113 0 -250 -6zM176 1241q0 67 47 113.5t113 46.5q64 0 112 -46t48 -116q0 -67 -47 -113.5t-113 -46.5q-64 0 -112 46t-48 116z" />
<glyph unicode="j" horiz-adv-x="741" d="M-119 -217q0 59 38 96t95 37t95 -37t38 -96q0 -58 -36 -94l-5 -6q0 -4 28.5 -7.5t43.5 -3.5q43 0 75 22t49 59t25.5 78.5t8.5 86.5v805q0 59 -23.5 70.5t-130.5 11.5v100l381 17v-1002q0 -81 -34.5 -146t-91 -104t-122 -59.5t-133.5 -20.5q-128 0 -214.5 50t-86.5 143z M244 1241q0 67 46.5 113.5t112.5 46.5q64 0 112 -46t48 -116q0 -67 -47 -113.5t-113 -46.5q-64 0 -111.5 46t-47.5 116z" />
<glyph unicode="k" horiz-adv-x="1280" d="M84 0v100h139v1125q0 58 -21.5 69t-117.5 11v100l367 16v-934l393 299q-9 10 -13 13.5t-15 6.5t-30 3v100l230 -6q102 0 168 6v-100q-28 0 -50 -1t-39.5 -3.5l-28 -4t-22 -6.5t-15 -6t-14 -7.5t-11.5 -6.5l-279 -209l360 -426q14 -18 25 -25.5t33 -11.5q23 -2 96 -2v-100 q-82 6 -217 6l-246 -6v100q55 0 55 19q0 6 -128.5 158t-139.5 163l-125 -92v-248h140v-100q-137 6 -248 6z" />
<glyph unicode="l" horiz-adv-x="673" d="M106 0v100h140v1125q0 58 -22 69t-118 11v100l367 16v-1321h139v-100l-254 6z" />
<glyph unicode="m" horiz-adv-x="2019" d="M102 0v100h140v625q0 58 -22 69t-118 11v100l355 17v-215h2q9 18 20 35.5t43.5 53t70 60.5t100 45.5t134.5 20.5q25 0 44 -1t50 -5t55 -11.5t52.5 -21.5t49 -34t38.5 -51t27 -69q17 29 42.5 57.5t68 61.5t106.5 53.5t139 20.5q58 0 103.5 -7.5t88.5 -27.5t71.5 -52.5 t45.5 -85.5t17 -124v-525h139v-100l-260 6l-258 -6v100h139v543q0 112 -29 154.5t-92 42.5q-49 0 -101 -19t-100 -55.5t-79 -100.5t-31 -145v-420h139v-100l-260 6l-258 -6v100h139v543q0 112 -28.5 154.5t-91.5 42.5q-49 0 -101 -19t-100.5 -55.5t-79.5 -100.5t-31 -145 v-420h140v-100l-261 6z" />
<glyph unicode="n" horiz-adv-x="1345" d="M102 0v100h140v625q0 58 -22 69t-118 11v100l355 17v-215h2q9 18 20 35.5t43 53t69.5 60.5t100 45.5t133.5 20.5q72 0 127 -12.5t102 -44t72 -92t25 -148.5v-525h139v-100l-260 6l-258 -6v100h139v543q0 110 -29 153.5t-89 43.5q-49 0 -101 -18.5t-100.5 -55t-79.5 -101 t-31 -145.5v-420h140v-100l-261 6z" />
<glyph unicode="o" d="M68 446q0 98 34 184t99 153t169.5 106t235.5 39q128 0 231 -37.5t169.5 -103t101.5 -153t35 -188.5q0 -93 -33.5 -174.5t-98 -145.5t-169.5 -101t-238 -37q-129 0 -232.5 35.5t-169 98t-100 145.5t-34.5 179zM340 469q0 -155 18 -223q42 -152 205 -168q20 -2 43 -2 q43 0 78.5 8.5t61.5 20.5t46 35t33 42t22 52t13.5 55t6.5 60.5t2.5 59.5t0.5 60q0 148 -18 212q-41 147 -203 163q-21 2 -45 2q-43 0 -78.5 -8t-61.5 -19.5t-46 -33t-33 -39.5t-22 -49.5t-13.5 -52.5t-6.5 -58.5t-2.5 -57.5t-0.5 -59z" />
<glyph unicode="p" horiz-adv-x="1345" d="M84 -297h139v1024q0 26 -1.5 37.5t-10 21.5t-27.5 13q-27 6 -100 6v100l367 17v-99q140 99 317 99q228 0 362 -130.5t134 -336.5t-145 -336.5t-384 -130.5q-151 0 -272 92v-377h139v-100l-260 6l-258 -6v100zM463 213q43 -65 107.5 -104t140.5 -39q54 0 102 21t89 65 t65 121t24 180q0 182 -71 279.5t-185 97.5q-93 0 -161.5 -39.5t-110.5 -87.5v-494z" />
<glyph unicode="q" horiz-adv-x="1280" d="M80 455q0 207 143.5 337t382.5 130q189 0 320 -160l104 160h92v-1219h140v-100l-261 6l-258 -6v100h140v397q-124 -112 -297 -112q-229 0 -367.5 130.5t-138.5 336.5zM352 453q0 -186 73 -284.5t183 -98.5q164 0 262 153q18 29 21.5 39.5t3.5 40.5v266q0 38 -18.5 83 t-51 86t-84.5 68.5t-110 27.5q-136 0 -213 -117q-66 -101 -66 -264z" />
<glyph unicode="r" horiz-adv-x="999" d="M84 0v100h139v625q0 58 -21.5 69t-117.5 11v100l342 17v-224h2q35 97 106.5 160.5t170.5 63.5q94 0 160.5 -48t66.5 -124q0 -62 -39 -97t-92 -35q-49 0 -89 35t-40 97q0 57 33 90q-70 -2 -122.5 -42.5t-79.5 -103t-39.5 -125t-12.5 -123.5v-346h174v-100q-109 6 -279 6z " />
<glyph unicode="s" horiz-adv-x="956" d="M80 47v217q0 24 0.5 31.5t5.5 17t15.5 11.5t31.5 2q31 0 39 -6.5t16 -34.5q67 -215 297 -215q16 0 28 0.5t38.5 3t46.5 8t45 16t41 26t27.5 39.5t11.5 54q0 28 -10 50.5t-32 38.5t-45 27.5t-62.5 21.5t-71 16t-82.5 14q-21 3 -42 7t-56.5 14t-66 23t-64 34.5t-57 48 t-39 64t-15.5 81.5q0 55 19 99.5t46.5 72.5t68.5 48t74.5 29.5t76.5 15t62 6t42 0.5q134 0 213 -37q63 37 90 37q28 0 34.5 -13t6.5 -47v-159q0 -39 -8 -49.5t-45 -10.5t-45 11q-5 7 -6 18q-2 18 -2.5 21.5t-4 23t-7.5 27t-13.5 25t-20.5 25.5t-29.5 20.5t-41.5 18.5 t-54.5 10.5t-68.5 4.5q-23 0 -42 -1t-58.5 -7.5t-66 -18t-48 -36.5t-21.5 -60q0 -22 9 -40t29 -31t38 -22t50 -16.5t50 -10.5t52 -9q138 -23 196 -42t123 -73q96 -76 96 -200q0 -48 -12 -89t-30 -70t-46 -52t-54 -37.5t-60.5 -25t-58.5 -15t-55 -7t-43 -3t-30 -0.5 q-149 0 -245 63l-56 -35q-32 -20 -41 -24t-22 -4q-28 0 -34.5 12.5t-6.5 46.5z" />
<glyph unicode="t" horiz-adv-x="942" d="M45 809v82q74 2 134 39t97 96t56.5 129.5t19.5 144.5h105v-391h309v-100h-309v-561q0 -24 0.5 -38.5t7 -43t17.5 -45.5t35 -31t58 -14q48 0 86.5 42t38.5 140v102h105v-108q0 -115 -69.5 -189.5t-188.5 -74.5q-330 0 -330 264v557h-172z" />
<glyph unicode="u" horiz-adv-x="1345" d="M102 805v100l379 17v-699q0 -46 4 -70t20.5 -45.5t50 -29.5t91.5 -8q119 0 191.5 72t72.5 194v389q0 58 -21.5 69t-117.5 11v100l379 17v-742q0 -58 21.5 -69t117.5 -11v-100l-366 -12v153q-25 -37 -53.5 -65t-59.5 -44t-55 -26t-56 -13.5t-45.5 -4t-38.5 -0.5 q-65 0 -116 6t-101 23.5t-83 46t-53.5 76.5t-20.5 112v473q0 58 -22 69t-118 11z" />
<glyph unicode="v" horiz-adv-x="1280" d="M57 809v100q119 -6 236 -6l252 6v-100h-107l269 -557l245 510q10 15 13 29q-40 18 -95 18v100q59 -6 185 -6q109 0 166 6v-100q-62 0 -94 -6t-38.5 -12.5t-17.5 -24.5l-346 -719q-14 -31 -32 -44t-54 -13t-54 13t-32 44l-367 762h-129z" />
<glyph unicode="w" horiz-adv-x="1751" d="M53 809v100q104 -6 228 -6l249 6v-100h-110l219 -524l178 430q-10 30 -39 94h-119v100q88 -6 209 -6l230 6v-100h-111l238 -571l217 520q3 7 5 16t5 17q-41 18 -115 18v100q99 -6 195 -6q107 0 164 6v-100q-59 0 -86.5 -5.5t-34 -12t-16.5 -27.5l-302 -721 q-8 -19 -17.5 -31t-22 -16.5t-19 -5t-20.5 -0.5q-15 0 -21.5 0.5t-19 5t-22 16t-17.5 31.5l-224 537l-223 -533q-12 -31 -27 -44t-53 -13q-14 0 -20.5 0.5t-19 5t-22 16.5t-17.5 31l-320 766h-119z" />
<glyph unicode="x" horiz-adv-x="1280" d="M53 0v100q61 0 89.5 1.5t62 10.5t51.5 27l276 299l-325 371h-144v100q104 -6 226 -6l246 6v-100h-74l203 -229l190 206q-9 9 -14.5 12.5t-19.5 7t-36 3.5v100q92 -6 209 -6q119 0 191 6v-100q-79 0 -121.5 -6t-53.5 -12t-26 -21l-250 -268l352 -402h144v-100 q-104 6 -228 6l-243 -6v100h71l-227 260l-201 -215l-8 -8q-6 -6 -6 -14q0 -10 20.5 -16.5t45.5 -6.5v-100q-92 6 -209 6q-119 0 -191 -6z" />
<glyph unicode="y" horiz-adv-x="1280" d="M47 -215q0 58 35.5 90.5t87.5 32.5t87.5 -32.5t35.5 -90.5q0 -76 -60 -107q14 -6 39 -6q56 0 103 26t84.5 77t63.5 101t57 124l-394 809h-129v100q119 -6 236 -6l252 6v-100h-105l267 -549l243 500q3 5 8 20l3 4q0 4 -2.5 7t-7.5 5t-9.5 3t-13 3t-13.5 3l-45 4v100 q89 -6 185 -6q109 0 166 6v-100q-63 0 -94.5 -5.5t-39.5 -13t-18 -26.5l-448 -922q-54 -109 -145.5 -180.5t-205.5 -71.5q-93 0 -158 56t-65 139z" />
<glyph unicode="z" horiz-adv-x="1077" d="M68 49v14.5t2.5 10t6.5 12.5t13 16l580 725h-172q-86 0 -140 -15t-86.5 -52.5t-46.5 -86.5t-20 -130h-105l27 366h770q15 0 22.5 -0.5t18.5 -2.5t16 -7t9 -14t4 -23q0 -11 -1 -16t-6 -14t-16 -21l-577 -723h178q57 0 101.5 7.5t77 21t56.5 36t39.5 47.5t26 62t15.5 73 t9 85h105l-39 -420h-799q-25 0 -36.5 1.5t-22 13t-10.5 34.5z" />
<glyph unicode="{" horiz-adv-x="1177" d="M160 512q0 13 2 20t9.5 10.5t13 4.5t20.5 2q130 9 203 76q48 43 57.5 82t9.5 147v422q2 119 130 189.5t347 70.5h25.5t16.5 -1.5t14 -5.5t5 -11t3 -19q0 -13 -2 -20t-9.5 -10.5t-13 -4.5t-20.5 -2q-105 -6 -189 -57q-37 -27 -56 -60t-21.5 -52t-2.5 -52v-430 q0 -28 -0.5 -43t-5 -44.5t-13 -48.5t-26.5 -46t-43 -45.5t-64.5 -38t-90.5 -33.5q122 -34 182.5 -100.5t60.5 -137.5v-485q0 -45 7 -72q21 -63 86.5 -105.5t185.5 -49.5q35 -3 35 -37q0 -12 -3 -19t-5 -11t-14 -5.5t-16.5 -1.5h-25.5q-35 0 -70 2t-84.5 9t-91.5 18.5 t-86 33.5t-75 51t-50.5 73t-19.5 98v430v32v23v15t-0.5 11.5l-1 7t-2.5 7.5q-14 66 -82 117.5t-194 58.5q-35 3 -35 37z" />
<glyph unicode="|" horiz-adv-x="653" d="M264 -422v1868q0 17 1.5 28t6.5 27.5t19.5 25.5t36.5 9q61 0 61 -90v-1868q0 -17 -1 -28t-6.5 -27.5t-19.5 -25.5t-36 -9q-62 0 -62 90z" />
<glyph unicode="}" horiz-adv-x="1177" d="M160 -475q0 13 2 20t9.5 10.5t13 4.5t20.5 2q103 5 194 61q35 27 53 58.5t20.5 50.5t2.5 51v430q0 27 0.5 42.5t5 45t13.5 48.5t27 46t43 45.5t64.5 38t90.5 33.5q-124 34 -183 99t-61 139v485q0 49 -6 72q-20 65 -88 107t-186 48q-35 3 -35 37q0 12 3 19t6 11t14.5 5.5 t16 1.5h23.5q49 0 95 -4t104 -14t105 -30.5t88 -50.5t64 -78t23 -108v-430q0 -81 7 -100q25 -83 96.5 -125t175.5 -47q35 -3 35 -37q0 -13 -2 -20t-9.5 -10.5t-13 -4.5t-20.5 -2q-72 -4 -123.5 -27t-75.5 -47q-51 -46 -60.5 -83.5t-9.5 -147.5v-422q-2 -116 -127.5 -188 t-351.5 -72h-23.5t-16 1.5t-14.5 5.5t-6 11t-3 19z" />
<glyph unicode="~" horiz-adv-x="1138" d="M0 430l111 90q12 11 28 21.5t27 17t31.5 17.5t29.5 16q76 37 150 37q38 0 77.5 -11.5t65 -24t62.5 -34.5q49 -28 72 -39.5t63 -24t78 -12.5q139 0 313 146l29 -35l-111 -90q-12 -11 -28 -21.5t-27.5 -17t-31.5 -17.5t-30 -16q-76 -37 -149 -37q-38 0 -77.5 11.5t-65 24 t-62.5 34.5q-49 28 -72 39.5t-63 24t-78 12.5q-139 0 -313 -146z" />
<glyph unicode="&#xa0;" />
<glyph unicode="&#xa1;" horiz-adv-x="737" d="M207 -274q0 12 6 55l100 729q5 33 13 42t43 9q31 0 41 -8.5t14 -42.5l98 -729q6 -43 6 -55q0 -66 -48.5 -107t-112.5 -41q-60 0 -110 40t-50 108zM207 864q0 64 47 112t115 48q65 0 112 -46t47 -116q0 -64 -46.5 -112t-114.5 -48q-65 0 -112.5 46t-47.5 116z" />
<glyph unicode="&#xa2;" horiz-adv-x="1077" d="M80 455q0 65 15 126t50 120t87 105t131.5 78t177.5 42v86q0 23 14 37t37 14t37 -14t14 -37v-84q38 0 75.5 -3.5t87.5 -15.5t86.5 -31.5t62.5 -56.5t26 -86q0 -64 -40.5 -99.5t-92.5 -35.5q-56 0 -94.5 36t-38.5 97q0 51 26 84l7 10q0 4 -37.5 8.5t-67.5 4.5v-764 q92 0 157.5 40.5t96.5 114.5q12 29 19 34t38 5q13 0 19 -0.5t16 -3t14.5 -9.5t4.5 -19q0 -3 -3.5 -14.5t-13.5 -32.5t-25 -43.5t-41.5 -48.5t-58.5 -46q-78 -51 -223 -63v-92q0 -23 -14 -37.5t-37 -14.5t-37 14.5t-14 37.5v92q-218 17 -339.5 147t-121.5 318zM352 463 q0 -314 189 -373v739q-38 -9 -68.5 -29t-50 -43t-33.5 -56.5t-21 -60.5t-11 -65t-4.5 -59.5t-0.5 -52.5z" />
<glyph unicode="&#xa3;" horiz-adv-x="1828" d="M129 166q0 188 375 188q108 0 196 -32q-5 40 -17.5 86.5t-23.5 78t-31.5 86t-29.5 78.5h-309v103h276q-22 83 -22 155q0 102 41.5 194.5t112 158.5t166 104.5t200.5 38.5q118 0 220.5 -42t167.5 -124t65 -188q0 -55 -39 -94t-95 -39t-94.5 39t-38.5 94q0 50 32.5 86.5 t80.5 44.5q-46 56 -126 86t-173 30q-86 0 -150.5 -56.5t-96.5 -143.5t-32 -189q0 -74 19 -155h401v-103h-373q10 -33 33.5 -103t36 -111.5t25 -101.5t14.5 -112q107 -49 193 -74.5t176 -25.5q74 0 136.5 18t105 60t42.5 102h107q0 -96 -30 -178.5t-92 -136.5t-144 -54 q-27 0 -56 3.5t-51.5 6.5t-55 13.5t-49.5 15t-53 20.5t-48 21t-52 25.5t-47.5 24t-51.5 27.5t-48 26q-16 -33 -45.5 -58t-73.5 -40t-86.5 -24.5t-104.5 -13.5t-106 -5t-111 -1q-107 0 -186.5 51.5t-79.5 139.5zM236 166q0 -45 46 -64.5t113 -19.5q114 0 200 32.5t105 100.5 q-90 33 -196 33h-47.5t-46 -1t-46 -3.5t-40 -6t-36.5 -9.5t-26.5 -14.5t-19.5 -20.5t-6 -27z" />
<glyph unicode="&#xa4;" horiz-adv-x="1884" d="M371 -57q-45 45 18 108l150 152q-105 140 -105 309q0 171 107 309l-152 152q-61 61 -18 110q17 17 34.5 20.5t32.5 -3.5t25.5 -16t17.5 -19l152 -150q140 105 309 105t309 -105l150 150q63 63 110 16q45 -45 -18 -108l-150 -150q107 -138 107 -311q0 -170 -104 -309 l149 -152q65 -65 16 -108q-43 -49 -108 16l-150 150q-140 -105 -311 -105q-173 0 -311 107l-150 -152q-63 -63 -110 -16zM565 512q0 -155 111 -266t266 -111t266 111t111 266t-111 266t-266 111t-266 -111t-111 -266z" />
<glyph unicode="&#xa5;" horiz-adv-x="1828" d="M45 1305v100q74 -6 344 -6q301 0 375 6v-100h-170l397 -562h45l367 514l14 27q-8 3 -16.5 6t-15.5 5t-16 3.5t-14.5 2.5t-15.5 2t-14 1.5t-15 0.5h-14.5h-15.5h-14v100l272 -6q144 0 244 6v-100h-43q-46 0 -107 -7q-6 -1 -16 -2t-13.5 -1.5t-10 -1.5t-9.5 -2.5t-7.5 -3.5 t-8 -5.5l-7.5 -7.5t-8 -10l-368 -521h278v-102h-350l-57 -80v-178h407v-102h-407v-181h221v-100q-74 6 -365 6q-288 0 -362 -6v100h221v181h-403v102h403v178l-57 80h-346v102h274l-397 562h-199z" />
<glyph unicode="&#xa6;" horiz-adv-x="653" d="M264 326q0 22 19 36.5t45 14.5q24 0 42.5 -14.5t18.5 -36.5v-748q0 -17 -1 -28t-6.5 -27.5t-19.5 -25.5t-36 -9q-62 0 -62 90v748zM264 698v748q0 17 1.5 28t6.5 27.5t19.5 25.5t36.5 9q61 0 61 -90v-748q0 -22 -18.5 -36.5t-42.5 -14.5q-26 0 -45 14.5t-19 36.5z" />
<glyph unicode="&#xa7;" horiz-adv-x="1462" d="M129 614q0 89 55 159.5t144 107.5q-66 95 -66 204t66.5 196t173 133t229.5 46q110 0 205.5 -45.5t154 -128.5t58.5 -186q0 -56 -38.5 -94.5t-94.5 -38.5t-94.5 38.5t-38.5 94.5q0 44 26.5 79.5t67.5 47.5q-87 65 -246 65q-106 0 -183 -58t-77 -149q0 -31 14.5 -56.5 t33.5 -42t54 -33t60 -25t67 -21.5l252 -73q163 -49 272 -161.5t109 -262.5q0 -91 -54 -160.5t-144 -106.5q65 -94 65 -204q0 -109 -66.5 -196t-173 -133t-229.5 -46q-110 0 -205.5 45.5t-154 128.5t-58.5 186q0 56 38.5 94.5t94.5 38.5t95 -39t39 -94q0 -44 -26.5 -79.5 t-68.5 -47.5q87 -65 246 -65q106 0 183 58t77 149q0 31 -14.5 56.5t-33.5 42t-54 33t-60 25t-67 21.5l-252 73q-162 47 -271.5 161t-109.5 263zM362 614q0 -126 218 -192l251 -74q124 -39 211 -108q58 58 58 170q0 123 -217 192l-252 74q-124 36 -211 108q-58 -58 -58 -170z " />
<glyph unicode="&#xa8;" d="M199 1241q0 60 42.5 101.5t102.5 41.5q58 0 100.5 -40.5t42.5 -104.5q0 -60 -42.5 -101.5t-100.5 -41.5t-101.5 40.5t-43.5 104.5zM727 1241q0 60 42.5 101.5t102.5 41.5q58 0 101 -40.5t43 -104.5q0 -60 -43 -101.5t-101 -41.5t-101.5 40.5t-43.5 104.5z" />
<glyph unicode="&#xa9;" horiz-adv-x="1404" d="M0 702q0 190 94 352t256 256.5t352 94.5t352 -94.5t256.5 -256.5t94.5 -352t-94.5 -352t-256.5 -256t-352 -94q-114 0 -221 35.5t-193.5 100.5t-151.5 151.5t-100.5 193.5t-35.5 221zM131 702q0 -155 76.5 -286.5t208 -208t286.5 -76.5q116 0 222 45.5t182.5 121.5 t122 182t45.5 222t-45.5 222t-122 182.5t-182.5 122t-222 45.5t-222 -45.5t-182 -122t-121.5 -182.5t-45.5 -222zM350 702q0 134 97.5 221t259.5 87q102 0 174 -60l57 51q9 9 18 9t13 -3.5t5 -8.5t1 -13v-186q0 -18 -4.5 -22.5t-22.5 -4.5h-5.5h-5.5t-4 0.5t-4 1t-2.5 2 t-2 3.5t-0.5 5q-16 94 -75 138.5t-126 44.5q-123 0 -182 -68q-56 -66 -56 -197q0 -134 52 -190q66 -74 188 -74q33 0 66 9.5t64.5 28.5t52 53t22.5 79q0 15 22 15h3q8 0 11 -0.5t6 -5.5t3 -15q0 -82 -75.5 -144.5t-192.5 -62.5q-167 0 -262 86.5t-95 220.5z" />
<glyph unicode="&#xaa;" horiz-adv-x="1044" d="M57 940q0 57 48.5 101t131.5 69.5t182.5 38t211.5 12.5v47q0 164 -195 164q-57 0 -121 -8q35 -35 35 -70q0 -42 -33.5 -68t-78.5 -26t-79 25t-34 69q0 32 16 56t46 38.5t60 23.5t72 12.5t66.5 4.5t58.5 1q190 0 290 -61.5t100 -160.5v-307q0 -21 4.5 -29.5t28.5 -15 t75 -6.5q13 0 20.5 -1t16 -9t8.5 -23q0 -11 -3.5 -18.5t-6.5 -11.5t-13.5 -5.5t-14.5 -1.5h-19h-84q-53 0 -90 8t-54.5 18t-27.5 27t-11 27t-1 27q-79 -115 -267 -115q-42 0 -83 3.5t-88.5 15t-83 29t-59.5 49t-24 71.5zM109 674q0 17 14 27t37 10h725q23 0 37 -10t14 -27 q0 -14 -14.5 -24.5t-36.5 -10.5h-725q-22 0 -36.5 10.5t-14.5 24.5zM264 940q0 -47 47 -79t113 -32q11 0 25.5 1t50 9t62 22t48 45t21.5 73v133q-96 -3 -167 -17.5t-108 -33t-59 -43t-27.5 -42t-5.5 -36.5z" />
<glyph unicode="&#xab;" horiz-adv-x="1345" d="M262 481q0 13 10 23q214 184 316 438q10 19 28 19h19q13 0 22 -10t9 -27q-46 -230 -158 -443q111 -212 158 -444q0 -17 -9 -27t-22 -10h-19q-19 0 -28 18q-103 259 -316 439q-10 10 -10 24zM674 481q0 13 10 23q213 183 315 438q9 19 29 19h19q12 0 21 -10t9 -27 q-47 -233 -157 -443q110 -209 157 -444q0 -17 -9 -27t-21 -10h-19q-20 0 -29 18q-103 261 -315 439q-10 10 -10 24z" />
<glyph unicode="&#xac;" horiz-adv-x="1884" d="M135 750q0 29 18.5 47t47.5 18h1480q29 0 47.5 -18t18.5 -47v-476q0 -29 -18.5 -47t-47.5 -18t-47 18t-18 47v410h-1415q-29 0 -47.5 18.5t-18.5 47.5z" />
<glyph unicode="&#xad;" horiz-adv-x="806" d="M27 352v205h643v-205h-643z" />
<glyph unicode="&#xae;" horiz-adv-x="1404" d="M0 702q0 190 94 352t256 256.5t352 94.5t352 -94.5t256.5 -256.5t94.5 -352t-94.5 -352t-256.5 -256t-352 -94q-114 0 -221 35.5t-193.5 100.5t-151.5 151.5t-100.5 193.5t-35.5 221zM131 702q0 -155 76.5 -286.5t208 -208t286.5 -76.5q116 0 222 45.5t182.5 121.5 t122 182t45.5 222t-45.5 222t-122 182.5t-182.5 122t-222 45.5t-222 -45.5t-182 -122t-121.5 -182.5t-45.5 -222zM369 412v41h94v510h-94v41h338q120 0 192 -45.5t72 -114.5q0 -94 -144 -139q30 -12 49.5 -26.5t29.5 -35t14 -37t8 -45.5q5 -34 8.5 -51.5t10.5 -37.5 t19.5 -28t30.5 -8q21 0 36.5 15t19.5 45l1 6q1 6 2 7.5t6 4t13 2.5q23 0 23 -20q0 -10 -4.5 -23.5t-15 -31t-34 -29t-55.5 -11.5q-93 0 -139 27q-18 11 -29 23.5t-15.5 31t-5.5 31t-1 39.5q0 49 -4 68t-21 36q-36 33 -84 33h-106v-237h92v-41q-14 0 -74 1t-80 1 q-18 0 -77.5 -1t-75.5 -1zM584 725h106q40 0 69 8t43.5 19t22.5 29.5t9.5 31t1.5 31.5q0 26 -3 41.5t-15.5 36t-44 31t-81.5 10.5h-108v-238z" />
<glyph unicode="&#xaf;" d="M168 1184v112h874v-112h-874z" />
<glyph unicode="&#xb0;" horiz-adv-x="909" d="M119 1069q0 139 98.5 237.5t237.5 98.5t237.5 -98.5t98.5 -237.5q0 -140 -98.5 -239t-237.5 -99t-237.5 99t-98.5 239zM250 1069q0 -87 59 -147t146 -60q85 0 144.5 60.5t59.5 146.5t-59 145.5t-145 59.5q-87 0 -146 -60t-59 -145z" />
<glyph unicode="&#xb1;" horiz-adv-x="1884" d="M135 66q0 23 9 37.5t26.5 20t28 6.5t26.5 1h652v514h-652q-90 0 -90 66q0 23 9 37.5t26.5 20t28 6.5t26.5 1h652v555q0 16 1 26.5t6.5 28t20 26.5t37.5 9q66 0 66 -90v-555h649q16 0 26.5 -1t28 -6.5t26.5 -20t9 -37.5q0 -66 -90 -66h-649v-514h649q16 0 26.5 -1t28 -6.5 t26.5 -20t9 -37.5q0 -66 -90 -66h-1432q-90 0 -90 66z" />
<glyph unicode="&#xb2;" horiz-adv-x="872" d="M86 625v22q0 19 2 24t14 15l330 270q141 120 141 236q0 79 -52.5 128.5t-143.5 49.5q-88 0 -148 -39q42 -11 60 -36.5t18 -51.5q0 -44 -34 -68t-76 -24q-43 0 -77 24t-34 70q0 83 93.5 134t234.5 51q162 0 266 -65t104 -171q0 -35 -13.5 -66.5t-32.5 -55t-54.5 -50.5 t-63 -44t-73.5 -44q-103 -60 -240 -154h211q134 0 154 6q13 7 25 52t12 63h75l-45 -276h-653z" />
<glyph unicode="&#xb3;" horiz-adv-x="872" d="M72 799q0 46 33.5 72t82.5 26q51 0 84 -27t33 -71q0 -27 -18.5 -54t-63.5 -38q31 -18 76 -28.5t70 -12.5t41 -2q33 0 58.5 7.5t41.5 18.5t28 29t17 32t8 35.5t3.5 31.5t0.5 28q0 21 -1 35t-5.5 38t-15 40.5t-27.5 33t-46.5 25t-68.5 8.5h-69q-17 0 -24 1t-13 6.5t-6 17.5 q0 7 0.5 10.5t5.5 8t16 5.5l70 4q36 2 64.5 15t45.5 32t28 43.5t15.5 47t4.5 45.5q0 21 -3 36t-13.5 36.5t-38.5 33.5t-72 12q-89 0 -168 -45q43 -7 65.5 -31.5t22.5 -56.5q0 -37 -30 -62.5t-77 -25.5q-45 0 -75.5 25t-30.5 65q0 77 83.5 129t215.5 52q158 0 244 -48.5 t86 -121.5q0 -62 -50.5 -117.5t-154.5 -85.5q122 -23 188 -80t66 -131q0 -46 -22 -87t-66.5 -75.5t-120 -55t-172.5 -20.5q-150 0 -248 52.5t-98 138.5z" />
<glyph unicode="&#xb4;" d="M453 1122l211 234q48 53 70.5 69.5t56.5 16.5q48 0 86 -39t38 -92q0 -74 -77 -109l-322 -164z" />
<glyph unicode="&#xb5;" horiz-adv-x="1345" d="M100 -295h140v1014q0 61 -21 72.5t-119 11.5v102l379 17v-695q0 -33 1 -50t6 -38.5t15.5 -31.5t29 -20t47 -13.5t69.5 -3.5q118 0 192 70t74 200v379q0 61 -21 72.5t-118 11.5v102l379 17v-736q0 -61 21 -72.5t118 -11.5v-102q-70 -4 -121 -4q-42 0 -120 -4l-125 -4v153 q-98 -153 -310 -153q-88 0 -137 8v-291h139v-102l-260 6l-258 -6v102z" />
<glyph unicode="&#xb6;" horiz-adv-x="1439" d="M131 936q0 138 82 250.5t216.5 173.5t289.5 61h561q18 0 29 -1t28 -6.5t26 -19.5t9 -36q0 -62 -92 -62h-104v-1603q0 -17 -1.5 -28t-6.5 -27.5t-19.5 -25.5t-36.5 -9q-61 0 -61 90v1603h-164v-1603q0 -17 -1.5 -28t-6.5 -27.5t-19.5 -25.5t-36.5 -9q-61 0 -61 90v758 q-283 17 -457 149.5t-174 335.5z" />
<glyph unicode="&#xb7;" horiz-adv-x="1884" d="M782 705q0 65 46 112t116 47q65 0 112.5 -46t47.5 -116q0 -65 -46 -112t-116 -47q-65 0 -112.5 46t-47.5 116z" />
<glyph unicode="&#xb8;" horiz-adv-x="1077" d="M215 -303h53q44 0 73 0.5t71.5 2t70.5 6t55 10.5t40.5 17t13.5 25q0 21 -13.5 34.5t-40 19t-49 7t-57.5 1.5v190h213v-84q88 0 152.5 -47t64.5 -121q0 -25 -8 -45.5t-25.5 -36.5t-36 -28.5t-51 -21.5t-57.5 -15t-67 -10t-70 -6.5t-76 -3.5t-74 -1h-75h-107v107z" />
<glyph unicode="&#xb9;" horiz-adv-x="880" d="M129 1290v62h31q191 0 301 69q16 9 33 9q30 0 36.5 -7.5t6.5 -33.5v-705h213v-59l-304 2l-301 -2v59h211v631q-89 -25 -196 -25h-31z" />
<glyph unicode="&#xba;" horiz-adv-x="1015" d="M57 1094q0 142 118 239t335 97q210 0 330.5 -95.5t120.5 -240.5q0 -137 -117.5 -229.5t-335.5 -92.5q-215 0 -333 91t-118 231zM109 674q0 17 14 27t37 10h698q23 0 37 -10t14 -27q0 -14 -14.5 -24.5t-36.5 -10.5h-698q-22 0 -36.5 10.5t-14.5 24.5zM285 1108 q0 -25 0.5 -38t1.5 -37.5t4 -38.5t8 -35.5t14 -34t20.5 -29t28.5 -26t38 -18.5t49 -13t61 -4q36 0 65.5 6t51.5 14t38.5 24t27.5 29.5t18.5 36t11.5 38t5.5 42.5t2 41.5t0.5 42.5q0 35 -0.5 53.5t-4.5 51t-12 51t-24.5 42t-39.5 36t-59.5 21.5t-82.5 9t-82.5 -9t-59.5 -21.5 t-39.5 -36t-24.5 -42t-12 -51t-4.5 -51t-0.5 -53.5z" />
<glyph unicode="&#xbb;" horiz-adv-x="1345" d="M270 37q45 227 156 444q-108 207 -156 443q-1 16 7.5 26.5t21.5 10.5h18q19 0 29 -19q102 -254 316 -438q10 -10 10 -23q0 -14 -10 -24q-213 -180 -316 -439q-9 -18 -29 -18h-18q-13 0 -21.5 10.5t-7.5 26.5zM682 37q45 227 156 444q-108 207 -156 443q-1 16 7.5 26.5 t21.5 10.5h18q19 0 29 -19q99 -250 315 -438q10 -10 10 -23q0 -14 -10 -24q-212 -178 -315 -439q-9 -18 -29 -18h-18q-13 0 -21.5 10.5t-7.5 26.5z" />
<glyph unicode="&#xbc;" horiz-adv-x="2066" d="M129 1290v62h31q191 0 301 69q16 9 33 9q30 0 36.5 -7.5t6.5 -33.5v-705h213v-59l-304 2l-301 -2v59h211v631q-89 -25 -196 -25h-31zM588 41q0 24 12 39l969 1323q21 27 53 27q29 0 47.5 -18.5t18.5 -47.5q0 -20 -13 -39l-970 -1323q-15 -27 -52 -27q-29 0 -47 18.5 t-18 47.5zM1163 190v60l527 541q11 13 18 15.5t35 2.5q32 0 39.5 -7t7.5 -36v-516h147v-60h-147v-131h147v-59q-35 4 -245 4q-223 0 -260 -4v59h170v131h-439zM1247 250h373v383z" />
<glyph unicode="&#xbd;" horiz-adv-x="2066" d="M129 1290v62h31q191 0 301 69q16 9 33 9q30 0 36.5 -7.5t6.5 -33.5v-705h213v-59l-304 2l-301 -2v59h211v631q-89 -25 -196 -25h-31zM483 41q0 23 13 39l970 1323q15 27 52 27q29 0 47 -18.5t18 -47.5q0 -21 -12 -39l-969 -1323q-21 -27 -53 -27q-29 0 -47.5 18.5 t-18.5 47.5zM1241 0v23q0 19 2 24.5t14 15.5l328 271q141 116 141 235q0 79 -52.5 127.5t-143.5 48.5q-93 0 -148 -38q78 -17 78 -89q0 -44 -34 -68t-74 -24q-42 0 -76.5 25.5t-34.5 69.5q0 83 94 134.5t232 51.5q163 0 266.5 -65t103.5 -173q0 -29 -7.5 -55t-27.5 -50.5 t-35.5 -41t-51 -40.5t-52.5 -34.5t-61 -36.5q-126 -73 -242 -153h211q138 0 154 6q9 2 16.5 18.5t11 34t7 37t4.5 22.5h73l-45 -276h-651z" />
<glyph unicode="&#xbe;" horiz-adv-x="2066" d="M145 799q0 46 33 72t82 26q54 0 85.5 -27t31.5 -71q0 -27 -18.5 -54t-63.5 -38q31 -18 75.5 -28.5t69.5 -12.5t41 -2q45 0 77 14.5t47 32.5t23.5 48t9.5 46t1 41q0 21 -1 35t-5.5 38t-15 40.5t-27.5 33t-46.5 25t-68.5 8.5h-69q-17 0 -24.5 1t-13.5 6.5t-6 17.5 q0 7 1 10.5t6.5 8t17.5 5.5l68 4q44 2 77 20.5t50 47.5t24.5 57.5t7.5 57.5q0 17 -1 28t-7.5 30t-19 30.5t-38.5 20.5t-63 9q-43 0 -83 -10.5t-57.5 -19t-25.5 -15.5q41 -7 64 -31.5t23 -56.5q0 -37 -30 -62.5t-77 -25.5q-45 0 -75.5 25t-30.5 65q0 77 83.5 129t215.5 52 q159 0 245 -48.5t86 -121.5q0 -63 -50.5 -118t-156.5 -85q122 -23 189 -80t67 -131q0 -98 -97 -168t-286 -70q-151 0 -247.5 52t-96.5 139zM588 41q0 24 12 39l969 1323q21 27 53 27q29 0 47.5 -18.5t18.5 -47.5q0 -20 -13 -39l-970 -1323q-15 -27 -52 -27q-29 0 -47 18.5 t-18 47.5zM1163 190v60l527 541q11 13 18 15.5t35 2.5q32 0 39.5 -7t7.5 -36v-516h147v-60h-147v-131h147v-59q-35 4 -245 4q-223 0 -260 -4v59h170v131h-439zM1247 250h373v383z" />
<glyph unicode="&#xbf;" horiz-adv-x="1144" d="M135 -143q0 130 113 202q237 159 237 392v49q0 38 8 49.5t44 11.5q39 0 46 -13.5t7 -82.5q0 -257 -137 -455q-27 -35 -36 -65t-9 -107q0 -37 1 -55t5 -41t12.5 -33t24 -20.5t39.5 -13.5t59 -3q176 0 276 58q-27 7 -55.5 39t-28.5 88q0 62 40.5 97.5t92.5 35.5 q47 0 90.5 -33.5t43.5 -103.5q0 -124 -122 -193.5t-349 -69.5q-28 0 -48 0.5t-65.5 5.5t-79 14.5t-75.5 29t-69 47t-46 71.5t-19 99zM377 864q0 64 47 112t115 48q65 0 112 -46t47 -116q0 -64 -46.5 -112t-114.5 -48q-65 0 -112.5 46t-47.5 116z" />
<glyph unicode="&#xc0;" horiz-adv-x="1828" d="M88 0v100h43q57 0 109 6q37 4 45.5 10t19.5 31l518 1231q11 26 26 39t27.5 15t36.5 2t36.5 -2t28 -15t26.5 -39l536 -1278h199v-100q-80 6 -338 6q-293 0 -363 -6v100h193l-123 293h-567l-113 -270q57 -23 182 -23v-100q-127 6 -272 6q-137 0 -250 -6zM584 494h481 l-240 573zM590 1714q-12 59 25.5 105.5t97.5 46.5q5 0 10.5 -1t9.5 -1.5t10 -3t9.5 -4.5l10.5 -6t10.5 -6.5t12 -9t12.5 -9.5t15 -11t16 -12l250 -194l-49 -92l-344 104q-18 6 -27.5 10t-27 14.5t-27.5 28t-14 41.5z" />
<glyph unicode="&#xc1;" horiz-adv-x="1828" d="M88 0v100h43q57 0 109 6q37 4 45.5 10t19.5 31l518 1231q11 26 26 39t27.5 15t36.5 2t36.5 -2t28 -15t26.5 -39l536 -1278h199v-100q-80 6 -338 6q-293 0 -363 -6v100h193l-123 293h-567l-113 -270q57 -23 182 -23v-100q-127 6 -272 6q-137 0 -250 -6zM584 494h481 l-240 573zM752 1608l249 194q33 26 48.5 37t33.5 19t35 8q60 0 97.5 -46.5t25.5 -105.5q-4 -24 -14 -41.5t-27.5 -28t-27 -14.5t-27.5 -10l-344 -104z" />
<glyph unicode="&#xc2;" horiz-adv-x="1828" d="M88 0v100h43q57 0 109 6q37 4 45.5 10t19.5 31l518 1231q11 26 26 39t27.5 15t36.5 2t36.5 -2t28 -15t26.5 -39l536 -1278h199v-100q-80 6 -338 6q-293 0 -363 -6v100h193l-123 293h-567l-113 -270q57 -23 182 -23v-100q-127 6 -272 6q-137 0 -250 -6zM557 1544l358 289 l359 -289l-33 -49l-328 119l-327 -119zM584 494h481l-240 573z" />
<glyph unicode="&#xc3;" horiz-adv-x="1828" d="M88 0v100h43q57 0 109 6q37 4 45.5 10t19.5 31l518 1231q11 26 26 39t27.5 15t36.5 2t36.5 -2t28 -15t26.5 -39l536 -1278h199v-100q-80 6 -338 6q-293 0 -363 -6v100h193l-123 293h-567l-113 -270q57 -23 182 -23v-100q-127 6 -272 6q-137 0 -250 -6zM512 1552l55 60 q50 50 73.5 70t57.5 35.5t76 15.5q60 0 150 -35q106 -41 172 -41q93 0 161 76l60 -58l-55 -59q-50 -50 -73.5 -70t-57.5 -35.5t-76 -15.5q-60 0 -150 35q-106 41 -172 41q-94 0 -162 -76zM584 494h481l-240 573z" />
<glyph unicode="&#xc4;" horiz-adv-x="1828" d="M88 0v100h43q57 0 109 6q37 4 45.5 10t19.5 31l518 1231q11 26 26 39t27.5 15t36.5 2t36.5 -2t28 -15t26.5 -39l536 -1278h199v-100q-80 6 -338 6q-293 0 -363 -6v100h193l-123 293h-567l-113 -270q57 -23 182 -23v-100q-127 6 -272 6q-137 0 -250 -6zM459 1640 q0 60 42.5 102t102.5 42q58 0 101 -41t43 -105q0 -60 -43 -101.5t-101 -41.5t-101.5 40.5t-43.5 104.5zM584 494h481l-240 573zM1085 1640q0 60 43 102t103 42q58 0 100.5 -41t42.5 -105q0 -60 -42.5 -101.5t-100.5 -41.5t-102 40.5t-44 104.5z" />
<glyph unicode="&#xc5;" horiz-adv-x="1828" d="M88 0v100h43q57 0 109 6q37 4 45.5 10t19.5 31l518 1231q11 26 26 39t27.5 15t36.5 2t36.5 -2t28 -15t26.5 -39l536 -1278h199v-100q-80 6 -338 6q-293 0 -363 -6v100h193l-123 293h-567l-113 -270q57 -23 182 -23v-100q-127 6 -272 6q-137 0 -250 -6zM584 494h481 l-240 573zM659 1608q0 30 13 58t41 54t79.5 42t120.5 16q129 0 191.5 -50.5t62.5 -123.5q0 -30 -13 -58t-41 -54t-79.5 -42t-120.5 -16q-129 0 -191.5 50.5t-62.5 123.5zM778 1606q0 -52 31 -66t104 -14q75 0 105.5 14.5t30.5 65.5q0 52 -31.5 66t-104.5 14 q-75 0 -105 -14.5t-30 -65.5z" />
<glyph unicode="&#xc6;" horiz-adv-x="2193" d="M88 0v100h43q60 0 109 6q38 4 48 10t19 29l504 1160h-154v100h1336l63 -498h-104q-7 48 -11.5 75t-13.5 67.5t-18.5 64t-25.5 54t-35.5 48t-48 37t-63.5 29.5t-81 16.5t-101 6.5h-262v-578h131q60 0 101 10.5t65.5 28t38 49.5t17.5 66t4 86h104v-580h-104q0 65 -7.5 105 t-30.5 73t-69 47.5t-119 14.5h-131v-527h271q108 0 186.5 26t122.5 61t75.5 105.5t43.5 122.5t28 150h105l-96 -565h-1180v100h166v527h-367l-217 -504q57 -23 182 -23v-100l-274 6q-137 0 -250 -6zM692 727h322v578h-72z" />
<glyph unicode="&#xc7;" horiz-adv-x="1751" d="M135 702q0 156 58 289.5t164.5 230.5t266.5 152.5t355 55.5q245 0 416 -140l135 119q2 2 6.5 6t6 5t4.5 3.5t5 3t5.5 2t7 1.5h8.5q28 0 34.5 -13t6.5 -47v-442q0 -41 -10 -50.5t-52 -9.5q-20 0 -29 1t-18 7t-12 19q-20 117 -70.5 204.5t-118.5 135.5t-138.5 71t-143.5 23 q-133 0 -247.5 -42t-184.5 -122q-67 -75 -100 -180.5t-33 -282.5q0 -318 123 -452q155 -174 446 -174q61 0 123.5 13t126 43.5t113 75.5t82.5 115t38 156q1 15 10 23t17.5 9t24.5 1q17 0 23 -0.5t15 -4.5t12 -13.5t3 -26.5q0 -85 -38.5 -167t-107.5 -149t-173 -113t-226 -58 v-54q88 0 152.5 -47t64.5 -121q0 -25 -8 -45.5t-25.5 -36.5t-36 -28.5t-50.5 -21.5t-57.5 -15t-67.5 -10t-70 -6.5t-76 -3.5t-74 -1h-76h-106v107h53q44 0 73 0.5t71.5 2t70.5 6t55 10.5t40.5 17t13.5 25q0 21 -13.5 34.5t-40 19t-49 7t-57.5 1.5v162q-171 16 -308.5 78.5 t-227 158.5t-137.5 219.5t-48 263.5z" />
<glyph unicode="&#xc8;" horiz-adv-x="1591" d="M86 0v100h221v1192h-221v101h1305l63 -498h-104q-9 70 -20.5 119t-31 97t-49.5 79t-74 55.5t-105 35.5t-142 11h-324v-520h119q60 0 101 11.5t64.5 29t36 51t16 65.5t3.5 83h105v-580h-105q0 51 -3.5 83t-16 65.5t-36 51t-64.5 29t-101 11.5h-119v-572h326q65 0 120 8 t97 20t76.5 34.5t59 44.5t44.5 57t32.5 63.5t24.5 73.5t18 78.5t15 85.5h105l-97 -565h-1339zM469 1714q-12 59 25.5 105.5t97.5 46.5q17 0 36 -9t30.5 -17t50.5 -38l249 -194l-49 -92l-344 104q-18 6 -27.5 10t-27 14.5t-27.5 28t-14 41.5z" />
<glyph unicode="&#xc9;" horiz-adv-x="1591" d="M86 0v100h221v1192h-221v101h1305l63 -498h-104q-9 70 -20.5 119t-31 97t-49.5 79t-74 55.5t-105 35.5t-142 11h-324v-520h119q60 0 101 11.5t64.5 29t36 51t16 65.5t3.5 83h105v-580h-105q0 51 -3.5 83t-16 65.5t-36 51t-64.5 29t-101 11.5h-119v-572h326q65 0 120 8 t97 20t76.5 34.5t59 44.5t44.5 57t32.5 63.5t24.5 73.5t18 78.5t15 85.5h105l-97 -565h-1339zM631 1608l250 194q35 27 48.5 37t32 18.5t35.5 8.5q60 0 97.5 -46.5t25.5 -105.5q-4 -24 -14 -41.5t-27.5 -28t-27 -14.5t-27.5 -10l-344 -104z" />
<glyph unicode="&#xca;" horiz-adv-x="1591" d="M86 0v100h221v1192h-221v101h1305l63 -498h-104q-9 70 -20.5 119t-31 97t-49.5 79t-74 55.5t-105 35.5t-142 11h-324v-520h119q60 0 101 11.5t64.5 29t36 51t16 65.5t3.5 83h105v-580h-105q0 51 -3.5 83t-16 65.5t-36 51t-64.5 29t-101 11.5h-119v-572h326q65 0 120 8 t97 20t76.5 34.5t59 44.5t44.5 57t32.5 63.5t24.5 73.5t18 78.5t15 85.5h105l-97 -565h-1339zM436 1544l359 289l358 -289l-33 -49l-327 119l-328 -119z" />
<glyph unicode="&#xcb;" horiz-adv-x="1591" d="M86 0v100h221v1192h-221v101h1305l63 -498h-104q-9 70 -20.5 119t-31 97t-49.5 79t-74 55.5t-105 35.5t-142 11h-324v-520h119q60 0 101 11.5t64.5 29t36 51t16 65.5t3.5 83h105v-580h-105q0 51 -3.5 83t-16 65.5t-36 51t-64.5 29t-101 11.5h-119v-572h326q65 0 120 8 t97 20t76.5 34.5t59 44.5t44.5 57t32.5 63.5t24.5 73.5t18 78.5t15 85.5h105l-97 -565h-1339zM338 1640q0 60 42.5 102t102.5 42q58 0 101 -41t43 -105q0 -60 -43 -101.5t-101 -41.5t-101.5 40.5t-43.5 104.5zM965 1640q0 60 42.5 102t102.5 42q58 0 100.5 -41t42.5 -105 q0 -60 -42.5 -101.5t-100.5 -41.5t-101.5 40.5t-43.5 104.5z" />
<glyph unicode="&#xcc;" horiz-adv-x="913" d="M76 0v100h231v1205h-231v100q72 -6 381 -6q307 0 379 6v-100h-232v-1205h232v-100q-72 6 -381 6q-307 0 -379 -6zM131 1714q-12 59 25.5 105.5t97.5 46.5q17 0 36 -9t30.5 -17t50.5 -38l250 -194l-50 -92l-344 104q-18 6 -27.5 10t-27 14.5t-27.5 28t-14 41.5z" />
<glyph unicode="&#xcd;" horiz-adv-x="913" d="M76 0v100h231v1205h-231v100q72 -6 381 -6q307 0 379 6v-100h-232v-1205h232v-100q-72 6 -381 6q-307 0 -379 -6zM293 1608l250 194q35 27 48.5 37t32 18.5t35.5 8.5q60 0 97.5 -46.5t25.5 -105.5q-4 -24 -14 -41.5t-27.5 -28t-27 -14.5t-27.5 -10l-344 -104z" />
<glyph unicode="&#xce;" horiz-adv-x="913" d="M76 0v100h231v1205h-231v100q72 -6 381 -6q307 0 379 6v-100h-232v-1205h232v-100q-72 6 -381 6q-307 0 -379 -6zM98 1544l359 289l358 -289l-33 -49l-327 119l-328 -119z" />
<glyph unicode="&#xcf;" horiz-adv-x="913" d="M0 1640q0 60 42.5 102t102.5 42q58 0 101 -41t43 -105q0 -60 -43 -101.5t-101 -41.5t-101.5 40.5t-43.5 104.5zM76 0v100h231v1205h-231v100q72 -6 381 -6q307 0 379 6v-100h-232v-1205h232v-100q-72 6 -381 6q-307 0 -379 -6zM627 1640q0 60 42.5 102t102.5 42 q58 0 100.5 -41t42.5 -105q0 -60 -42.5 -101.5t-100.5 -41.5t-101.5 40.5t-43.5 104.5z" />
<glyph unicode="&#xd0;" horiz-adv-x="1857" d="M86 0v100h221v551h-221v103h221v551h-221v100h903q214 0 379.5 -87t258.5 -249.5t93 -376.5q0 -162 -56 -294t-154.5 -218.5t-231.5 -133t-287 -46.5h-905zM592 100h313q105 0 187.5 24t134.5 57.5t89.5 90.5t55 102t27.5 115t11 106t1 97q0 160 -21 264.5t-83 184.5 q-65 83 -170 123.5t-234 40.5h-311v-551h336v-103h-336v-551z" />
<glyph unicode="&#xd1;" horiz-adv-x="1892" d="M86 0v100h53q62 0 109 6q43 5 51 12t8 42v1145h-221v100h473q33 0 43 -3.5t27 -23.5l837 -956v823q0 35 -8 41.5t-51 11.5q-55 7 -109 7h-53v100q135 -6 281 -6q145 0 278 6v-100h-53q-54 0 -109 -7q-43 -5 -51 -11.5t-8 -41.5v-1177q0 -22 -1 -31t-6.5 -19.5t-17.5 -14 t-34 -3.5q-25 0 -34.5 4t-25.5 23l-1040 1187v-1054q0 -35 8 -42t51 -12q47 -6 109 -6h53v-100q-133 6 -280 6q-146 0 -279 -6zM543 1552l55 60q50 50 73.5 70t57.5 35.5t76 15.5q59 0 149 -35q106 -41 172 -41q94 0 162 76l60 -58l-56 -59q-50 -50 -73.5 -70t-57.5 -35.5 t-76 -15.5q-59 0 -149 35q-106 41 -172 41q-94 0 -162 -76z" />
<glyph unicode="&#xd2;" horiz-adv-x="1820" d="M135 694q0 160 53 295t151 233t244.5 153t325.5 55q238 0 414.5 -95t268 -261t91.5 -380q0 -156 -52.5 -288t-150.5 -227.5t-244.5 -149.5t-326.5 -54t-326.5 54t-244 150t-150.5 228t-53 287zM457 725q0 -301 92 -455q60 -102 158 -151t202 -49q115 0 215 57t156 160 q46 90 64 193t18 245q0 139 -21 251.5t-88 201.5q-59 80 -149 121.5t-195 41.5q-112 0 -198 -44.5t-136 -104.5q-69 -91 -93.5 -202t-24.5 -265zM586 1714q-12 59 25.5 105.5t97.5 46.5q5 0 10.5 -1t9.5 -1.5t10 -3t9.5 -4.5l10.5 -6t10.5 -6.5t12 -9t12.5 -9.5t15 -11 t16 -12l250 -194l-49 -92l-344 104q-18 6 -27.5 10t-27 14.5t-27.5 28t-14 41.5z" />
<glyph unicode="&#xd3;" horiz-adv-x="1820" d="M135 694q0 160 53 295t151 233t244.5 153t325.5 55q238 0 414.5 -95t268 -261t91.5 -380q0 -156 -52.5 -288t-150.5 -227.5t-244.5 -149.5t-326.5 -54t-326.5 54t-244 150t-150.5 228t-53 287zM457 725q0 -301 92 -455q60 -102 158 -151t202 -49q115 0 215 57t156 160 q46 90 64 193t18 245q0 139 -21 251.5t-88 201.5q-59 80 -149 121.5t-195 41.5q-112 0 -198 -44.5t-136 -104.5q-69 -91 -93.5 -202t-24.5 -265zM748 1608l249 194q33 26 48.5 37t33.5 19t35 8q60 0 97.5 -46.5t25.5 -105.5q-4 -24 -14 -41.5t-27.5 -28t-27 -14.5t-27.5 -10 l-344 -104z" />
<glyph unicode="&#xd4;" horiz-adv-x="1820" d="M135 694q0 160 53 295t151 233t244.5 153t325.5 55q238 0 414.5 -95t268 -261t91.5 -380q0 -156 -52.5 -288t-150.5 -227.5t-244.5 -149.5t-326.5 -54t-326.5 54t-244 150t-150.5 228t-53 287zM457 725q0 -301 92 -455q60 -102 158 -151t202 -49q115 0 215 57t156 160 q46 90 64 193t18 245q0 139 -21 251.5t-88 201.5q-59 80 -149 121.5t-195 41.5q-112 0 -198 -44.5t-136 -104.5q-69 -91 -93.5 -202t-24.5 -265zM553 1544l358 289l359 -289l-33 -49l-328 119l-327 -119z" />
<glyph unicode="&#xd5;" horiz-adv-x="1820" d="M135 694q0 160 53 295t151 233t244.5 153t325.5 55q238 0 414.5 -95t268 -261t91.5 -380q0 -156 -52.5 -288t-150.5 -227.5t-244.5 -149.5t-326.5 -54t-326.5 54t-244 150t-150.5 228t-53 287zM457 725q0 -301 92 -455q60 -102 158 -151t202 -49q115 0 215 57t156 160 q46 90 64 193t18 245q0 139 -21 251.5t-88 201.5q-59 80 -149 121.5t-195 41.5q-112 0 -198 -44.5t-136 -104.5q-69 -91 -93.5 -202t-24.5 -265zM508 1552l55 60q50 50 73.5 70t57.5 35.5t76 15.5q60 0 150 -35q106 -41 172 -41q93 0 161 76l60 -58l-56 -59q-39 -39 -56 -55 t-44 -35t-50.5 -25t-55.5 -6q-60 0 -150 35q-106 41 -172 41q-94 0 -162 -76z" />
<glyph unicode="&#xd6;" horiz-adv-x="1820" d="M135 694q0 160 53 295t151 233t244.5 153t325.5 55q238 0 414.5 -95t268 -261t91.5 -380q0 -156 -52.5 -288t-150.5 -227.5t-244.5 -149.5t-326.5 -54t-326.5 54t-244 150t-150.5 228t-53 287zM455 1640q0 60 42.5 102t102.5 42q58 0 100.5 -41t42.5 -105 q0 -60 -42.5 -101.5t-100.5 -41.5t-101.5 40.5t-43.5 104.5zM457 725q0 -301 92 -455q60 -102 158 -151t202 -49q115 0 215 57t156 160q46 90 64 193t18 245q0 139 -21 251.5t-88 201.5q-59 80 -149 121.5t-195 41.5q-112 0 -198 -44.5t-136 -104.5q-69 -91 -93.5 -202 t-24.5 -265zM1081 1640q0 60 43 102t103 42q58 0 100.5 -41t42.5 -105q0 -60 -42.5 -101.5t-100.5 -41.5t-102 40.5t-44 104.5z" />
<glyph unicode="&#xd7;" horiz-adv-x="1884" d="M371 -57q-45 45 18 108l461 461l-461 461q-61 61 -18 110q17 17 34.5 20.5t32.5 -3.5t25.5 -16t17.5 -19l461 -459l459 459q63 63 110 16q45 -45 -18 -108l-459 -461l461 -461q65 -65 16 -108q-43 -49 -108 16l-461 461l-461 -461q-63 -63 -110 -16z" />
<glyph unicode="&#xd8;" horiz-adv-x="1884" d="M135 694q0 153 52 285.5t151 233.5t254.5 159t349.5 58q221 0 408 -82l131 182l71 -51l-125 -174q97 -63 165 -147t99.5 -171t43.5 -156t12 -137q0 -151 -52.5 -281t-152 -228t-254.5 -154t-348 -56q-221 0 -410 80l-129 -180l-71 51l123 172q-110 67 -183.5 169.5 t-104 208.5t-30.5 218zM432 696q0 -164 21 -273.5t90 -199.5l731 1020q-132 105 -334 105q-117 0 -227 -44t-178 -139q-35 -48 -57 -105.5t-31.5 -124.5t-12 -117t-2.5 -122zM606 160q50 -39 135 -71t201 -32q132 0 248.5 53t179.5 158q36 61 54.5 140t22 137.5t3.5 150.5 q0 166 -18 258q-19 109 -58 168q-18 29 -37 52q-1 -1 -3 -2.5t-3 -2.5q-6 -6 -10 -12z" />
<glyph unicode="&#xd9;" horiz-adv-x="1861" d="M86 1305v100q70 -6 371 -6q296 0 368 6v-100h-221v-846q0 -34 1 -57t8.5 -66.5t21 -74.5t41 -68.5t66 -61t99 -39.5t136.5 -16q97 0 178 23.5t144 70.5t98 125t35 180v770q0 35 -8 41.5t-52 11.5q-55 7 -108 7h-54v100q135 -6 283 -6q154 0 281 6v-100h-54q-53 0 -108 -7 q-44 -5 -52 -11.5t-8 -41.5v-774q0 -99 -35.5 -186.5t-104.5 -157.5t-183.5 -111t-259.5 -41q-159 0 -286.5 39.5t-208.5 108.5t-124 158.5t-43 191.5v832h-221zM662 1714q-12 59 25 105.5t97 46.5q17 0 36 -9t30.5 -17t50.5 -38l250 -194l-49 -92l-344 104q-18 6 -27.5 10 t-27 14.5t-27.5 28t-14 41.5z" />
<glyph unicode="&#xda;" horiz-adv-x="1861" d="M86 1305v100q70 -6 371 -6q296 0 368 6v-100h-221v-846q0 -34 1 -57t8.5 -66.5t21 -74.5t41 -68.5t66 -61t99 -39.5t136.5 -16q97 0 178 23.5t144 70.5t98 125t35 180v770q0 35 -8 41.5t-52 11.5q-55 7 -108 7h-54v100q135 -6 283 -6q154 0 281 6v-100h-54q-53 0 -108 -7 q-44 -5 -52 -11.5t-8 -41.5v-774q0 -99 -35.5 -186.5t-104.5 -157.5t-183.5 -111t-259.5 -41q-159 0 -286.5 39.5t-208.5 108.5t-124 158.5t-43 191.5v832h-221zM823 1608l250 194q33 26 48.5 37t33.5 19t35 8q60 0 97.5 -46.5t25.5 -105.5q-4 -24 -14 -41.5t-27.5 -28 t-27 -14.5t-27.5 -10l-345 -104z" />
<glyph unicode="&#xdb;" horiz-adv-x="1861" d="M86 1305v100q70 -6 371 -6q296 0 368 6v-100h-221v-846q0 -34 1 -57t8.5 -66.5t21 -74.5t41 -68.5t66 -61t99 -39.5t136.5 -16q97 0 178 23.5t144 70.5t98 125t35 180v770q0 35 -8 41.5t-52 11.5q-55 7 -108 7h-54v100q135 -6 283 -6q154 0 281 6v-100h-54q-53 0 -108 -7 q-44 -5 -52 -11.5t-8 -41.5v-774q0 -99 -35.5 -186.5t-104.5 -157.5t-183.5 -111t-259.5 -41q-159 0 -286.5 39.5t-208.5 108.5t-124 158.5t-43 191.5v832h-221zM629 1544l358 289l359 -289l-33 -49l-328 119l-328 -119z" />
<glyph unicode="&#xdc;" horiz-adv-x="1861" d="M86 1305v100q70 -6 371 -6q296 0 368 6v-100h-221v-846q0 -34 1 -57t8.5 -66.5t21 -74.5t41 -68.5t66 -61t99 -39.5t136.5 -16q97 0 178 23.5t144 70.5t98 125t35 180v770q0 35 -8 41.5t-52 11.5q-55 7 -108 7h-54v100q135 -6 283 -6q154 0 281 6v-100h-54q-53 0 -108 -7 q-44 -5 -52 -11.5t-8 -41.5v-774q0 -99 -35.5 -186.5t-104.5 -157.5t-183.5 -111t-259.5 -41q-159 0 -286.5 39.5t-208.5 108.5t-124 158.5t-43 191.5v832h-221zM530 1640q0 60 43 102t103 42q58 0 100.5 -41t42.5 -105q0 -60 -42.5 -101.5t-100.5 -41.5t-102 40.5 t-44 104.5zM1157 1640q0 60 43 102t103 42q58 0 100.5 -41t42.5 -105q0 -60 -42.5 -101.5t-100.5 -41.5t-102 40.5t-44 104.5z" />
<glyph unicode="&#xdd;" horiz-adv-x="1828" d="M45 1305v100q74 -6 344 -6q301 0 375 6v-100h-170l420 -594l389 546l14 27q-8 3 -16.5 6t-15.5 5t-16 3.5t-14.5 2.5t-15.5 2t-14 1.5t-15 0.5h-14.5h-15.5h-14v100l272 -6q144 0 244 6v-100h-43q-46 0 -107 -7q-6 -1 -16 -2t-13.5 -1.5t-10 -1.5t-9.5 -2.5t-7.5 -3.5 t-8 -5.5l-7.5 -7.5t-8 -10l-497 -703v-461h221v-100q-74 6 -365 6q-288 0 -362 -6v100h221v461l-526 744h-199zM752 1608l249 194q33 26 48.5 37t33.5 19t35 8q60 0 97.5 -46.5t25.5 -105.5q-4 -24 -14 -41.5t-27.5 -28t-27 -14.5t-27.5 -10l-344 -104z" />
<glyph unicode="&#xde;" horiz-adv-x="1523" d="M86 0v102h221v1201h-221v102l358 -6l357 6v-102h-221v-146h305q121 0 218 -32.5t156.5 -88t91 -125.5t31.5 -149q0 -51 -12.5 -100.5t-48.5 -104.5t-91.5 -96.5t-150.5 -68.5t-217 -27h-282v-263h221v-102l-359 6zM580 467h204q17 0 31.5 1t46 6.5t56.5 16t55 33t50 52.5 t34 78.5t14 109.5q0 124 -57 205q-17 25 -39.5 42.5t-40 26t-42.5 12.5t-35.5 4.5t-29.5 0.5h-247v-588z" />
<glyph unicode="&#xdf;" horiz-adv-x="1263" d="M84 0v100h139v709h-139v100h139v228q0 144 122 220.5t325 76.5q101 0 181.5 -18t130.5 -46.5t83.5 -67t47 -76.5t13.5 -77q0 -21 -3.5 -43.5t-19 -57.5t-40.5 -66t-73.5 -64t-112.5 -56q84 -37 146 -93t93.5 -109t50.5 -115t23 -100.5t4 -75.5q0 -178 -126 -279.5 t-318 -101.5q-111 0 -170.5 55.5t-59.5 124.5q0 51 31.5 79.5t75.5 28.5q46 0 76 -29t30 -77q0 -59 -45 -88q28 -12 55 -12q201 0 201 297q0 442 -326 460q-32 2 -32 41t30 41q28 2 42 3.5t46.5 7.5t51.5 15t45 27.5t40.5 42.5t25 61.5t10.5 84.5q0 26 -2.5 47.5t-14.5 52 t-33 51t-62 35.5t-97 15q-45 0 -81 -9.5t-58 -22.5t-38 -34.5t-23.5 -38t-11.5 -42t-4.5 -36.5t-0.5 -30v-1139q-59 6 -144 6z" />
<glyph unicode="&#xe0;" horiz-adv-x="1177" d="M57 229q0 82 58.5 144.5t157.5 99t217.5 54.5t250.5 18v65q0 236 -231 236q-99 0 -145 -12q41 -41 41 -101q0 -61 -39 -97t-95 -36q-52 0 -92.5 35.5t-40.5 99.5q0 193 379 193q228 0 345.5 -88t117.5 -230v-438q0 -22 2 -32t14 -21t39.5 -15t75.5 -4q16 0 25 -1.5 t18.5 -13t9.5 -34.5q0 -18 -4.5 -29t-15.5 -15.5t-19.5 -5.5t-27.5 -1h-101q-46 0 -82 6t-58.5 14.5t-38.5 23t-23.5 26t-11.5 30t-4.5 27t-0.5 25.5q-43 -76 -123.5 -120t-193.5 -44q-65 0 -127 10t-128.5 34t-107.5 74.5t-41 122.5zM281 1311q0 53 38.5 92t86.5 39 q34 0 56 -16.5t70 -69.5l211 -234l-63 -84l-322 164q-77 35 -77 109zM305 229q0 -67 56 -113t135 -46q7 0 16.5 0.5t35 4.5t48.5 11.5t50.5 23.5t47.5 38t33.5 57.5t13.5 79.5v190q-82 -3 -149.5 -15t-111.5 -29t-77.5 -39t-51.5 -43t-29 -45t-14 -41t-3 -34z" />
<glyph unicode="&#xe1;" horiz-adv-x="1177" d="M57 229q0 82 58.5 144.5t157.5 99t217.5 54.5t250.5 18v65q0 236 -231 236q-99 0 -145 -12q41 -41 41 -101q0 -61 -39 -97t-95 -36q-52 0 -92.5 35.5t-40.5 99.5q0 193 379 193q228 0 345.5 -88t117.5 -230v-438q0 -22 2 -32t14 -21t39.5 -15t75.5 -4q16 0 25 -1.5 t18.5 -13t9.5 -34.5q0 -18 -4.5 -29t-15.5 -15.5t-19.5 -5.5t-27.5 -1h-101q-46 0 -82 6t-58.5 14.5t-38.5 23t-23.5 26t-11.5 30t-4.5 27t-0.5 25.5q-43 -76 -123.5 -120t-193.5 -44q-65 0 -127 10t-128.5 34t-107.5 74.5t-41 122.5zM305 229q0 -67 56 -113t135 -46 q7 0 16.5 0.5t35 4.5t48.5 11.5t50.5 23.5t47.5 38t33.5 57.5t13.5 79.5v190q-82 -3 -149.5 -15t-111.5 -29t-77.5 -39t-51.5 -43t-29 -45t-14 -41t-3 -34zM436 1122l211 234q48 53 70.5 69.5t56.5 16.5q48 0 86.5 -39t38.5 -92q0 -74 -78 -109l-321 -164z" />
<glyph unicode="&#xe2;" horiz-adv-x="1177" d="M57 229q0 82 58.5 144.5t157.5 99t217.5 54.5t250.5 18v65q0 236 -231 236q-99 0 -145 -12q41 -41 41 -101q0 -61 -39 -97t-95 -36q-52 0 -92.5 35.5t-40.5 99.5q0 193 379 193q228 0 345.5 -88t117.5 -230v-438q0 -22 2 -32t14 -21t39.5 -15t75.5 -4q16 0 25 -1.5 t18.5 -13t9.5 -34.5q0 -18 -4.5 -29t-15.5 -15.5t-19.5 -5.5t-27.5 -1h-101q-46 0 -82 6t-58.5 14.5t-38.5 23t-23.5 26t-11.5 30t-4.5 27t-0.5 25.5q-43 -76 -123.5 -120t-193.5 -44q-65 0 -127 10t-128.5 34t-107.5 74.5t-41 122.5zM227 1073l363 379l362 -379l-41 -45 l-323 203l-324 -203zM305 229q0 -67 56 -113t135 -46q7 0 16.5 0.5t35 4.5t48.5 11.5t50.5 23.5t47.5 38t33.5 57.5t13.5 79.5v190q-82 -3 -149.5 -15t-111.5 -29t-77.5 -39t-51.5 -43t-29 -45t-14 -41t-3 -34z" />
<glyph unicode="&#xe3;" horiz-adv-x="1177" d="M57 229q0 82 58.5 144.5t157.5 99t217.5 54.5t250.5 18v65q0 236 -231 236q-99 0 -145 -12q41 -41 41 -101q0 -61 -39 -97t-95 -36q-52 0 -92.5 35.5t-40.5 99.5q0 193 379 193q228 0 345.5 -88t117.5 -230v-438q0 -22 2 -32t14 -21t39.5 -15t75.5 -4q16 0 25 -1.5 t18.5 -13t9.5 -34.5q0 -18 -4.5 -29t-15.5 -15.5t-19.5 -5.5t-27.5 -1h-101q-46 0 -82 6t-58.5 14.5t-38.5 23t-23.5 26t-11.5 30t-4.5 27t-0.5 25.5q-43 -76 -123.5 -120t-193.5 -44q-65 0 -127 10t-128.5 34t-107.5 74.5t-41 122.5zM186 1180l56 59q50 50 73.5 70 t57.5 35.5t76 15.5q59 0 149 -35q106 -41 172 -41q94 0 162 76l59 -57l-55 -60q-50 -50 -73.5 -70t-57.5 -35.5t-76 -15.5q-59 0 -149 35q-106 41 -172 41q-94 0 -162 -76zM305 229q0 -67 56 -113t135 -46q7 0 16.5 0.5t35 4.5t48.5 11.5t50.5 23.5t47.5 38t33.5 57.5 t13.5 79.5v190q-82 -3 -149.5 -15t-111.5 -29t-77.5 -39t-51.5 -43t-29 -45t-14 -41t-3 -34z" />
<glyph unicode="&#xe4;" horiz-adv-x="1177" d="M57 229q0 82 58.5 144.5t157.5 99t217.5 54.5t250.5 18v65q0 236 -231 236q-99 0 -145 -12q41 -41 41 -101q0 -61 -39 -97t-95 -36q-52 0 -92.5 35.5t-40.5 99.5q0 193 379 193q228 0 345.5 -88t117.5 -230v-438q0 -22 2 -32t14 -21t39.5 -15t75.5 -4q16 0 25 -1.5 t18.5 -13t9.5 -34.5q0 -18 -4.5 -29t-15.5 -15.5t-19.5 -5.5t-27.5 -1h-101q-46 0 -82 6t-58.5 14.5t-38.5 23t-23.5 26t-11.5 30t-4.5 27t-0.5 25.5q-43 -76 -123.5 -120t-193.5 -44q-65 0 -127 10t-128.5 34t-107.5 74.5t-41 122.5zM182 1241q0 60 43 101.5t103 41.5 q58 0 100.5 -40.5t42.5 -104.5q0 -60 -42.5 -101.5t-100.5 -41.5t-102 40.5t-44 104.5zM305 229q0 -67 56 -113t135 -46q7 0 16.5 0.5t35 4.5t48.5 11.5t50.5 23.5t47.5 38t33.5 57.5t13.5 79.5v190q-82 -3 -149.5 -15t-111.5 -29t-77.5 -39t-51.5 -43t-29 -45t-14 -41 t-3 -34zM711 1241q0 60 42.5 101.5t102.5 41.5q58 0 100.5 -40.5t42.5 -104.5q0 -60 -42.5 -101.5t-100.5 -41.5t-101.5 40.5t-43.5 104.5z" />
<glyph unicode="&#xe5;" horiz-adv-x="1177" d="M57 229q0 82 58.5 144.5t157.5 99t217.5 54.5t250.5 18v65q0 236 -231 236q-99 0 -145 -12q41 -41 41 -101q0 -61 -39 -97t-95 -36q-52 0 -92.5 35.5t-40.5 99.5q0 193 379 193q228 0 345.5 -88t117.5 -230v-438q0 -22 2 -32t14 -21t39.5 -15t75.5 -4q16 0 25 -1.5 t18.5 -13t9.5 -34.5q0 -18 -4.5 -29t-15.5 -15.5t-19.5 -5.5t-27.5 -1h-101q-46 0 -82 6t-58.5 14.5t-38.5 23t-23.5 26t-11.5 30t-4.5 27t-0.5 25.5q-43 -76 -123.5 -120t-193.5 -44q-65 0 -127 10t-128.5 34t-107.5 74.5t-41 122.5zM305 229q0 -67 56 -113t135 -46 q7 0 16.5 0.5t35 4.5t48.5 11.5t50.5 23.5t47.5 38t33.5 57.5t13.5 79.5v190q-82 -3 -149.5 -15t-111.5 -29t-77.5 -39t-51.5 -43t-29 -45t-14 -41t-3 -34zM334 1245q0 30 13 58t41 54t79.5 42t120.5 16q129 0 191.5 -50.5t62.5 -123.5q0 -30 -13 -58t-41 -54t-79.5 -42 t-120.5 -16q-129 0 -191.5 50.5t-62.5 123.5zM453 1243q0 -52 31 -66t104 -14q75 0 105 14.5t30 65.5q0 52 -31 66t-104 14q-75 0 -105 -14.5t-30 -65.5z" />
<glyph unicode="&#xe6;" horiz-adv-x="1751" d="M78 215q0 53 28 97t72.5 74t106 52.5t123 35.5t130 21t119.5 10.5t99 2.5v102q0 236 -234 236q-111 0 -147 -12q41 -41 41 -101q0 -61 -38.5 -97t-94.5 -36q-52 0 -92.5 35.5t-40.5 99.5q0 193 378 193q252 0 383 -115q140 115 351 115q220 0 323 -125q96 -122 96 -303 q0 -41 -13.5 -50.5t-53.5 -9.5h-619q0 -24 1.5 -47t8.5 -61.5t19 -70.5t35.5 -67.5t55 -60.5t80.5 -41t110 -16q100 0 171 45.5t99 116.5q8 26 17 33.5t36 7.5q53 0 53 -41q0 -15 -11.5 -42.5t-41 -64t-71.5 -68t-112 -53.5t-153 -22q-245 0 -391 131q-121 -131 -422 -131 q-195 0 -298 60t-103 167zM326 217q0 -63 52.5 -105t131.5 -42q113 0 199 54t86 132q0 13 -7 29q-21 55 -32 147q-100 -3 -177.5 -18t-124 -37t-76.5 -50.5t-41 -55t-11 -54.5zM995 514h486q-9 122 -28 181q-51 150 -191 151q-61 0 -109 -20.5t-75.5 -55t-45.5 -70.5 t-25.5 -78t-9.5 -65t-2 -43z" />
<glyph unicode="&#xe7;" horiz-adv-x="1077" d="M80 455q0 69 17.5 134t58 127.5t100.5 109t152 74.5t206 28q25 0 46 -0.5t61 -4.5t71.5 -11t68.5 -21.5t61.5 -34t41.5 -51t17 -70.5q0 -64 -40.5 -99.5t-92.5 -35.5q-56 0 -94.5 36t-38.5 97q0 51 26 84l7 10q0 6 -49 9.5t-76 3.5q-56 0 -100 -15.5t-72 -37t-48 -58 t-29.5 -65.5t-15 -73t-6 -67.5t-0.5 -60.5q0 -387 291 -387q92 0 157.5 40.5t96.5 114.5q12 29 19 34t38 5q13 0 19 -0.5t16 -3t14.5 -9.5t4.5 -19q0 -3 -3.5 -14.5t-13.5 -32.5t-25 -43.5t-41.5 -48.5t-58.5 -46q-76 -46 -168 -59v-68q88 0 152.5 -47t64.5 -121 q0 -25 -8 -45.5t-25.5 -36.5t-36 -28.5t-50.5 -21.5t-57 -15t-67.5 -10t-70 -6.5t-75.5 -3.5t-74 -1h-76h-107v107h54q44 0 73.5 0.5t72 2t70 5.5t54.5 10.5t40 17.5t13 25q0 21 -13.5 34.5t-40 19t-49 7t-57.5 1.5v176q-192 31 -298.5 157.5t-106.5 301.5z" />
<glyph unicode="&#xe8;" horiz-adv-x="1112" d="M68 461q0 93 33 176t96 148.5t164.5 104t228.5 38.5q201 0 315 -94q37 -31 64.5 -73.5t40.5 -79t21 -78.5t9.5 -63.5t1.5 -41.5q0 -21 -4 -33t-14 -17.5t-19.5 -6.5t-29.5 -1h-635q0 -30 1 -52t7 -63t16.5 -71t32.5 -65.5t52 -58.5t78 -38.5t108 -15.5q101 0 184 42.5 t117 119.5q1 3 4.5 10.5t4.5 9t3.5 7t4.5 6t5.5 3.5t7.5 3.5t10 1t13 0.5q53 0 53 -41q0 -13 -11 -39t-41.5 -63t-75.5 -69.5t-123 -55.5t-173 -23q-256 0 -403 132.5t-147 340.5zM248 1311q0 53 38.5 92t86.5 39q34 0 56.5 -16.5t70.5 -69.5l211 -234l-64 -84l-321 164 q-78 35 -78 109zM340 514h502q-8 110 -25 162q-53 170 -227 170q-222 0 -247 -285q-1 -11 -3 -47z" />
<glyph unicode="&#xe9;" horiz-adv-x="1112" d="M68 461q0 93 33 176t96 148.5t164.5 104t228.5 38.5q201 0 315 -94q37 -31 64.5 -73.5t40.5 -79t21 -78.5t9.5 -63.5t1.5 -41.5q0 -21 -4 -33t-14 -17.5t-19.5 -6.5t-29.5 -1h-635q0 -30 1 -52t7 -63t16.5 -71t32.5 -65.5t52 -58.5t78 -38.5t108 -15.5q101 0 184 42.5 t117 119.5q1 3 4.5 10.5t4.5 9t3.5 7t4.5 6t5.5 3.5t7.5 3.5t10 1t13 0.5q53 0 53 -41q0 -13 -11 -39t-41.5 -63t-75.5 -69.5t-123 -55.5t-173 -23q-256 0 -403 132.5t-147 340.5zM340 514h502q-8 110 -25 162q-53 170 -227 170q-222 0 -247 -285q-1 -11 -3 -47zM403 1122 l211 234q48 53 70.5 69.5t56.5 16.5q48 0 86.5 -39t38.5 -92q0 -74 -78 -109l-321 -164z" />
<glyph unicode="&#xea;" horiz-adv-x="1112" d="M68 461q0 93 33 176t96 148.5t164.5 104t228.5 38.5q201 0 315 -94q37 -31 64.5 -73.5t40.5 -79t21 -78.5t9.5 -63.5t1.5 -41.5q0 -21 -4 -33t-14 -17.5t-19.5 -6.5t-29.5 -1h-635q0 -30 1 -52t7 -63t16.5 -71t32.5 -65.5t52 -58.5t78 -38.5t108 -15.5q101 0 184 42.5 t117 119.5q1 3 4.5 10.5t4.5 9t3.5 7t4.5 6t5.5 3.5t7.5 3.5t10 1t13 0.5q53 0 53 -41q0 -13 -11 -39t-41.5 -63t-75.5 -69.5t-123 -55.5t-173 -23q-256 0 -403 132.5t-147 340.5zM195 1073l362 379l363 -379l-41 -45l-324 203l-324 -203zM340 514h502q-8 110 -25 162 q-53 170 -227 170q-222 0 -247 -285q-1 -11 -3 -47z" />
<glyph unicode="&#xeb;" horiz-adv-x="1112" d="M68 461q0 93 33 176t96 148.5t164.5 104t228.5 38.5q201 0 315 -94q37 -31 64.5 -73.5t40.5 -79t21 -78.5t9.5 -63.5t1.5 -41.5q0 -21 -4 -33t-14 -17.5t-19.5 -6.5t-29.5 -1h-635q0 -30 1 -52t7 -63t16.5 -71t32.5 -65.5t52 -58.5t78 -38.5t108 -15.5q101 0 184 42.5 t117 119.5q1 3 4.5 10.5t4.5 9t3.5 7t4.5 6t5.5 3.5t7.5 3.5t10 1t13 0.5q53 0 53 -41q0 -13 -11 -39t-41.5 -63t-75.5 -69.5t-123 -55.5t-173 -23q-256 0 -403 132.5t-147 340.5zM150 1241q0 60 42.5 101.5t102.5 41.5q58 0 100.5 -40.5t42.5 -104.5q0 -60 -42.5 -101.5 t-100.5 -41.5t-101.5 40.5t-43.5 104.5zM340 514h502q-8 110 -25 162q-53 170 -227 170q-222 0 -247 -285q-1 -11 -3 -47zM678 1241q0 60 42.5 101.5t102.5 41.5q58 0 101 -40.5t43 -104.5q0 -60 -43 -101.5t-101 -41.5t-101.5 40.5t-43.5 104.5z" />
<glyph unicode="&#xec;" horiz-adv-x="673" d="M29 1311q0 53 38.5 92t86.5 39q34 0 56.5 -16.5t70.5 -69.5l211 -234l-64 -84l-322 164q-77 35 -77 109zM106 0v100h140v625q0 58 -20 69t-113 11v100l360 17v-822h125v-100q-113 6 -242 6q-113 0 -250 -6z" />
<glyph unicode="&#xed;" horiz-adv-x="673" d="M106 0v100h140v625q0 58 -20 69t-113 11v100l360 17v-822h125v-100q-113 6 -242 6q-113 0 -250 -6zM184 1122l211 234q48 53 70.5 69.5t56.5 16.5q48 0 86.5 -39t38.5 -92q0 -74 -78 -109l-321 -164z" />
<glyph unicode="&#xee;" horiz-adv-x="673" d="M-25 1073l363 379l362 -379l-41 -45l-323 203l-324 -203zM106 0v100h140v625q0 58 -20 69t-113 11v100l360 17v-822h125v-100q-113 6 -242 6q-113 0 -250 -6z" />
<glyph unicode="&#xef;" horiz-adv-x="673" d="M-70 1241q0 60 43 101.5t103 41.5q58 0 100.5 -40.5t42.5 -104.5q0 -60 -42.5 -101.5t-100.5 -41.5t-102 40.5t-44 104.5zM106 0v100h140v625q0 58 -20 69t-113 11v100l360 17v-822h125v-100q-113 6 -242 6q-113 0 -250 -6zM459 1241q0 60 42.5 101.5t102.5 41.5 q58 0 101 -40.5t43 -104.5q0 -60 -43 -101.5t-101 -41.5t-101.5 40.5t-43.5 104.5z" />
<glyph unicode="&#xf0;" d="M68 446q0 213 145.5 347.5t384.5 134.5q138 0 233 -86q-69 204 -247 340l-234 -105l-41 90l174 78q-139 77 -303 105l13 80q262 12 485 -97l244 107l39 -90l-175 -78q180 -119 273 -303q56 -113 70 -201t14 -227q0 -111 -3.5 -150t-19.5 -90q-44 -138 -177 -225.5 t-339 -87.5q-129 0 -232.5 36.5t-169 99.5t-100 145.5t-34.5 176.5zM340 467q0 -66 1.5 -103.5t14 -93t37.5 -92.5q75 -104 211 -104q43 0 79.5 9.5t62.5 24t46 38.5t33 45.5t22 53.5t13.5 53t7 53.5t2.5 46.5v40q0 182 -57 281q-75 125 -211 125q-56 0 -115 -23t-96 -82 q-24 -36 -35.5 -83.5t-13.5 -83t-2 -105.5z" />
<glyph unicode="&#xf1;" horiz-adv-x="1345" d="M102 0v100h140v625q0 58 -22 69t-118 11v100l355 17v-215h2q9 18 20 35.5t43 53t69.5 60.5t100 45.5t133.5 20.5q72 0 127 -12.5t102 -44t72 -92t25 -148.5v-525h139v-100l-260 6l-258 -6v100h139v543q0 110 -29 153.5t-89 43.5q-49 0 -101 -18.5t-100.5 -55t-79.5 -101 t-31 -145.5v-420h140v-100l-261 6zM270 1180l56 59q39 39 56 55t44 35t50.5 25t55.5 6q60 0 150 -35q106 -41 172 -41q94 0 162 76l59 -57l-55 -60q-50 -50 -73.5 -70t-57.5 -35.5t-76 -15.5q-59 0 -149 35q-106 41 -172 41q-94 0 -162 -76z" />
<glyph unicode="&#xf2;" d="M68 446q0 98 34 184t99 153t169.5 106t235.5 39q128 0 231 -37.5t169.5 -103t101.5 -153t35 -188.5q0 -93 -33.5 -174.5t-98 -145.5t-169.5 -101t-238 -37q-129 0 -232.5 35.5t-169 98t-100 145.5t-34.5 179zM297 1311q0 53 38.5 92t86.5 39q34 0 56.5 -16.5t70.5 -69.5 l211 -234l-64 -84l-321 164q-78 35 -78 109zM340 469q0 -155 18 -223q42 -152 205 -168q20 -2 43 -2q43 0 78.5 8.5t61.5 20.5t46 35t33 42t22 52t13.5 55t6.5 60.5t2.5 59.5t0.5 60q0 148 -18 212q-41 147 -203 163q-21 2 -45 2q-43 0 -78.5 -8t-61.5 -19.5t-46 -33 t-33 -39.5t-22 -49.5t-13.5 -52.5t-6.5 -58.5t-2.5 -57.5t-0.5 -59z" />
<glyph unicode="&#xf3;" d="M68 446q0 98 34 184t99 153t169.5 106t235.5 39q128 0 231 -37.5t169.5 -103t101.5 -153t35 -188.5q0 -93 -33.5 -174.5t-98 -145.5t-169.5 -101t-238 -37q-129 0 -232.5 35.5t-169 98t-100 145.5t-34.5 179zM340 469q0 -155 18 -223q42 -152 205 -168q20 -2 43 -2 q43 0 78.5 8.5t61.5 20.5t46 35t33 42t22 52t13.5 55t6.5 60.5t2.5 59.5t0.5 60q0 148 -18 212q-41 147 -203 163q-21 2 -45 2q-43 0 -78.5 -8t-61.5 -19.5t-46 -33t-33 -39.5t-22 -49.5t-13.5 -52.5t-6.5 -58.5t-2.5 -57.5t-0.5 -59zM453 1122l211 234q48 53 70.5 69.5 t56.5 16.5q48 0 86 -39t38 -92q0 -74 -77 -109l-322 -164z" />
<glyph unicode="&#xf4;" d="M68 446q0 98 34 184t99 153t169.5 106t235.5 39q128 0 231 -37.5t169.5 -103t101.5 -153t35 -188.5q0 -93 -33.5 -174.5t-98 -145.5t-169.5 -101t-238 -37q-129 0 -232.5 35.5t-169 98t-100 145.5t-34.5 179zM244 1073l362 379l363 -379l-41 -45l-324 203l-323 -203z M340 469q0 -155 18 -223q42 -152 205 -168q20 -2 43 -2q43 0 78.5 8.5t61.5 20.5t46 35t33 42t22 52t13.5 55t6.5 60.5t2.5 59.5t0.5 60q0 148 -18 212q-41 147 -203 163q-21 2 -45 2q-43 0 -78.5 -8t-61.5 -19.5t-46 -33t-33 -39.5t-22 -49.5t-13.5 -52.5t-6.5 -58.5 t-2.5 -57.5t-0.5 -59z" />
<glyph unicode="&#xf5;" d="M68 446q0 98 34 184t99 153t169.5 106t235.5 39q128 0 231 -37.5t169.5 -103t101.5 -153t35 -188.5q0 -93 -33.5 -174.5t-98 -145.5t-169.5 -101t-238 -37q-129 0 -232.5 35.5t-169 98t-100 145.5t-34.5 179zM203 1180l55 59q50 50 73.5 70t57.5 35.5t76 15.5 q59 0 149 -35q106 -41 172 -41q94 0 162 76l60 -57l-56 -60q-50 -50 -73.5 -70t-57.5 -35.5t-76 -15.5q-59 0 -149 35q-106 41 -172 41q-94 0 -162 -76zM340 469q0 -155 18 -223q42 -152 205 -168q20 -2 43 -2q43 0 78.5 8.5t61.5 20.5t46 35t33 42t22 52t13.5 55t6.5 60.5 t2.5 59.5t0.5 60q0 148 -18 212q-41 147 -203 163q-21 2 -45 2q-43 0 -78.5 -8t-61.5 -19.5t-46 -33t-33 -39.5t-22 -49.5t-13.5 -52.5t-6.5 -58.5t-2.5 -57.5t-0.5 -59z" />
<glyph unicode="&#xf6;" d="M68 446q0 98 34 184t99 153t169.5 106t235.5 39q128 0 231 -37.5t169.5 -103t101.5 -153t35 -188.5q0 -93 -33.5 -174.5t-98 -145.5t-169.5 -101t-238 -37q-129 0 -232.5 35.5t-169 98t-100 145.5t-34.5 179zM199 1241q0 60 42.5 101.5t102.5 41.5q58 0 100.5 -40.5 t42.5 -104.5q0 -60 -42.5 -101.5t-100.5 -41.5t-101.5 40.5t-43.5 104.5zM340 469q0 -155 18 -223q42 -152 205 -168q20 -2 43 -2q43 0 78.5 8.5t61.5 20.5t46 35t33 42t22 52t13.5 55t6.5 60.5t2.5 59.5t0.5 60q0 148 -18 212q-41 147 -203 163q-21 2 -45 2q-43 0 -78.5 -8 t-61.5 -19.5t-46 -33t-33 -39.5t-22 -49.5t-13.5 -52.5t-6.5 -58.5t-2.5 -57.5t-0.5 -59zM727 1241q0 60 42.5 101.5t102.5 41.5q58 0 101 -40.5t43 -104.5q0 -60 -43 -101.5t-101 -41.5t-101.5 40.5t-43.5 104.5z" />
<glyph unicode="&#xf7;" horiz-adv-x="1884" d="M135 512q0 66 90 66h1432q90 0 90 -66q0 -23 -9.5 -38t-26.5 -20t-28 -6.5t-28 -1.5h-1428q-92 0 -92 66zM780 -12q0 65 46 112t116 47q65 0 112.5 -45.5t47.5 -115.5q0 -65 -46 -112.5t-116 -47.5q-65 0 -112.5 46t-47.5 116zM780 1036q0 65 46 112.5t116 47.5 q65 0 112.5 -46t47.5 -116q0 -65 -46 -112.5t-116 -47.5q-65 0 -112.5 46t-47.5 116z" />
<glyph unicode="&#xf8;" d="M68 446q0 98 34 184t99 153t169.5 106t235.5 39q115 0 230 -37l153 242l68 -46l-148 -231q74 -40 124.5 -97.5t72.5 -119t29.5 -106t7.5 -87.5q0 -93 -33.5 -174.5t-98 -145.5t-169.5 -101t-238 -37q-123 0 -227 35l-156 -244l-67 45l147 231q-60 31 -105 75t-68.5 85 t-38 88.5t-18 79.5t-3.5 63zM307 449q0 -108 11 -170.5t51 -114.5l409 639q-72 43 -172 43q-62 0 -110.5 -15t-79.5 -36t-53 -58t-32.5 -66t-16.5 -77t-6.5 -73.5t-0.5 -71.5zM432 109q70 -39 172 -39q62 0 110.5 14t79.5 33.5t53 54.5t32.5 62.5t16.5 73t6.5 71t0.5 70.5 q0 66 -2.5 107.5t-17 98t-41.5 93.5z" />
<glyph unicode="&#xf9;" horiz-adv-x="1345" d="M102 805v100l379 17v-699q0 -46 4 -70t20.5 -45.5t50 -29.5t91.5 -8q119 0 191.5 72t72.5 194v389q0 58 -21.5 69t-117.5 11v100l379 17v-742q0 -58 21.5 -69t117.5 -11v-100l-366 -12v153q-25 -37 -53.5 -65t-59.5 -44t-55 -26t-56 -13.5t-45.5 -4t-38.5 -0.5 q-65 0 -116 6t-101 23.5t-83 46t-53.5 76.5t-20.5 112v473q0 58 -22 69t-118 11zM365 1311q0 53 38 92t86 39q34 0 56.5 -16.5t70.5 -69.5l211 -234l-63 -84l-322 164q-77 35 -77 109z" />
<glyph unicode="&#xfa;" horiz-adv-x="1345" d="M102 805v100l379 17v-699q0 -46 4 -70t20.5 -45.5t50 -29.5t91.5 -8q119 0 191.5 72t72.5 194v389q0 58 -21.5 69t-117.5 11v100l379 17v-742q0 -58 21.5 -69t117.5 -11v-100l-366 -12v153q-25 -37 -53.5 -65t-59.5 -44t-55 -26t-56 -13.5t-45.5 -4t-38.5 -0.5 q-65 0 -116 6t-101 23.5t-83 46t-53.5 76.5t-20.5 112v473q0 58 -22 69t-118 11zM520 1122l211 234q48 53 70.5 69.5t56.5 16.5q48 0 86.5 -39t38.5 -92q0 -74 -78 -109l-321 -164z" />
<glyph unicode="&#xfb;" horiz-adv-x="1345" d="M102 805v100l379 17v-699q0 -46 4 -70t20.5 -45.5t50 -29.5t91.5 -8q119 0 191.5 72t72.5 194v389q0 58 -21.5 69t-117.5 11v100l379 17v-742q0 -58 21.5 -69t117.5 -11v-100l-366 -12v153q-25 -37 -53.5 -65t-59.5 -44t-55 -26t-56 -13.5t-45.5 -4t-38.5 -0.5 q-65 0 -116 6t-101 23.5t-83 46t-53.5 76.5t-20.5 112v473q0 58 -22 69t-118 11zM311 1073l363 379l362 -379l-41 -45l-323 203l-324 -203z" />
<glyph unicode="&#xfc;" horiz-adv-x="1345" d="M102 805v100l379 17v-699q0 -46 4 -70t20.5 -45.5t50 -29.5t91.5 -8q119 0 191.5 72t72.5 194v389q0 58 -21.5 69t-117.5 11v100l379 17v-742q0 -58 21.5 -69t117.5 -11v-100l-366 -12v153q-25 -37 -53.5 -65t-59.5 -44t-55 -26t-56 -13.5t-45.5 -4t-38.5 -0.5 q-65 0 -116 6t-101 23.5t-83 46t-53.5 76.5t-20.5 112v473q0 58 -22 69t-118 11zM266 1241q0 60 43 101.5t103 41.5q58 0 100.5 -40.5t42.5 -104.5q0 -60 -42.5 -101.5t-100.5 -41.5t-102 40.5t-44 104.5zM795 1241q0 60 42.5 101.5t102.5 41.5q58 0 100.5 -40.5 t42.5 -104.5q0 -60 -42.5 -101.5t-100.5 -41.5t-101.5 40.5t-43.5 104.5z" />
<glyph unicode="&#xfd;" horiz-adv-x="1280" d="M47 -215q0 58 35.5 90.5t87.5 32.5t87.5 -32.5t35.5 -90.5q0 -76 -60 -107q14 -6 39 -6q56 0 103 26t84.5 77t63.5 101t57 124l-394 809h-129v100q119 -6 236 -6l252 6v-100h-105l267 -549l243 500q3 5 8 20l3 4q0 4 -2.5 7t-7.5 5t-9.5 3t-13 3t-13.5 3l-45 4v100 q89 -6 185 -6q109 0 166 6v-100q-63 0 -94.5 -5.5t-39.5 -13t-18 -26.5l-448 -922q-54 -109 -145.5 -180.5t-205.5 -71.5q-93 0 -158 56t-65 139zM485 1122l211 234q48 53 70.5 69.5t56.5 16.5q48 0 86.5 -39t38.5 -92q0 -74 -78 -109l-321 -164z" />
<glyph unicode="&#xfe;" horiz-adv-x="1345" d="M84 -297h139v1024v498q0 58 -21.5 69t-117.5 11v100l367 16v-598q140 99 317 99q228 0 362 -130.5t134 -336.5t-145 -336.5t-384 -130.5q-151 0 -272 92v-377h139v-100l-260 6l-258 -6v100zM463 213q43 -65 107.5 -104t140.5 -39q54 0 102 21t89 65t65 121t24 180 q0 182 -71 279.5t-185 97.5q-93 0 -161.5 -39.5t-110.5 -87.5v-494z" />
<glyph unicode="&#xff;" horiz-adv-x="1280" d="M47 -215q0 58 35.5 90.5t87.5 32.5t87.5 -32.5t35.5 -90.5q0 -76 -60 -107q14 -6 39 -6q56 0 103 26t84.5 77t63.5 101t57 124l-394 809h-129v100q119 -6 236 -6l252 6v-100h-105l267 -549l243 500q3 5 8 20l3 4q0 4 -2.5 7t-7.5 5t-9.5 3t-13 3t-13.5 3l-45 4v100 q89 -6 185 -6q109 0 166 6v-100q-63 0 -94.5 -5.5t-39.5 -13t-18 -26.5l-448 -922q-54 -109 -145.5 -180.5t-205.5 -71.5q-93 0 -158 56t-65 139zM231 1241q0 60 43 101.5t103 41.5q58 0 100.5 -40.5t42.5 -104.5q0 -60 -42.5 -101.5t-100.5 -41.5t-102 40.5t-44 104.5z M760 1241q0 60 42.5 101.5t102.5 41.5q58 0 101 -40.5t43 -104.5q0 -60 -43 -101.5t-101 -41.5t-101.5 40.5t-43.5 104.5z" />
<glyph unicode="&#x152;" horiz-adv-x="2461" d="M174 694q0 155 53 288.5t153 233.5t254 157t345 57q28 0 201 -13q162 -12 186 -12h895l63 -498h-104q-8 59 -15.5 97.5t-21.5 85t-32.5 75t-48 58t-69 46t-95.5 26.5t-126 10h-305v-527h191q142 0 197 50.5t55 189.5h104v-580h-104q0 139 -55 189.5t-197 50.5h-191v-578 h308q81 0 145.5 13t109 31t79 56t54.5 68t38 89t25.5 96t21.5 112h104l-96 -565h-930q-102 0 -188 -12q-122 -13 -199 -13q-189 0 -342.5 55t-254 152t-154.5 228t-54 284zM483 727q0 -307 138 -488.5t370 -181.5q76 0 120 11.5t78 48t47 104.5t13 182v598q0 77 -6 132 t-20.5 93.5t-33.5 62.5t-50.5 37t-65.5 17.5t-84 4.5q-225 0 -365.5 -163.5t-140.5 -457.5z" />
<glyph unicode="&#x153;" horiz-adv-x="1884" d="M68 459q0 96 34 180.5t99 149t168 102t231 37.5q258 0 408 -150q63 69 162 109.5t225 40.5q220 0 323 -125q56 -71 76.5 -154.5t20.5 -148.5q0 -41 -14 -50.5t-54 -9.5h-619q0 -24 1.5 -47t8.5 -61.5t19 -70.5t35.5 -67.5t55 -60.5t80.5 -41t110 -16q100 0 171 45.5 t99 116.5q8 26 17 33.5t36 7.5q54 0 54 -41q0 -15 -11.5 -42.5t-41.5 -64t-72 -68t-112 -53.5t-153 -22q-71 0 -136.5 13t-105.5 28.5t-81.5 42t-55.5 38t-36 31.5q-20 -22 -50 -44.5t-80 -49t-123.5 -43t-156.5 -16.5q-126 0 -228 37t-167.5 101.5t-101 150t-35.5 182.5z M315 424q0 -16 2.5 -52t7.5 -59t14.5 -58t23.5 -58t36 -49t49.5 -41.5t66.5 -26t85 -10.5q67 0 130 27.5t101 86.5q58 91 58 285q0 35 -0.5 57t-6 66t-16 73.5t-31.5 66.5t-51 59.5t-77 38.5t-107 16q-59 0 -105.5 -15.5t-76 -37.5t-50.5 -58.5t-31 -65.5t-15.5 -72.5 t-6 -66t-0.5 -59.5v-2v-45zM1128 514h486q-9 122 -28 181q-51 150 -191 151q-61 0 -109 -20.5t-75.5 -55t-45.5 -70.5t-25.5 -78t-9.5 -65t-2 -43z" />
<glyph unicode="&#x178;" horiz-adv-x="1828" d="M45 1305v100q74 -6 344 -6q301 0 375 6v-100h-170l420 -594l389 546l14 27q-8 3 -16.5 6t-15.5 5t-16 3.5t-14.5 2.5t-15.5 2t-14 1.5t-15 0.5h-14.5h-15.5h-14v100l272 -6q144 0 244 6v-100h-43q-46 0 -107 -7q-6 -1 -16 -2t-13.5 -1.5t-10 -1.5t-9.5 -2.5t-7.5 -3.5 t-8 -5.5l-7.5 -7.5t-8 -10l-497 -703v-461h221v-100q-74 6 -365 6q-288 0 -362 -6v100h221v461l-526 744h-199zM459 1640q0 60 42.5 102t102.5 42q58 0 101 -41t43 -105q0 -60 -43 -101.5t-101 -41.5t-101.5 40.5t-43.5 104.5zM1085 1640q0 60 43 102t103 42q58 0 100.5 -41 t42.5 -105q0 -60 -42.5 -101.5t-100.5 -41.5t-102 40.5t-44 104.5z" />
<glyph unicode="&#x2c6;" d="M244 1073l362 379l363 -379l-41 -45l-324 203l-323 -203z" />
<glyph unicode="&#x2dc;" d="M203 1180l55 59q50 50 73.5 70t57.5 35.5t76 15.5q59 0 149 -35q106 -41 172 -41q94 0 162 76l60 -57l-56 -60q-50 -50 -73.5 -70t-57.5 -35.5t-76 -15.5q-59 0 -149 35q-106 41 -172 41q-94 0 -162 -76z" />
<glyph unicode="&#x2000;" horiz-adv-x="933" />
<glyph unicode="&#x2001;" horiz-adv-x="1866" />
<glyph unicode="&#x2002;" horiz-adv-x="933" />
<glyph unicode="&#x2003;" horiz-adv-x="1866" />
<glyph unicode="&#x2004;" horiz-adv-x="622" />
<glyph unicode="&#x2005;" horiz-adv-x="466" />
<glyph unicode="&#x2006;" horiz-adv-x="311" />
<glyph unicode="&#x2007;" horiz-adv-x="311" />
<glyph unicode="&#x2008;" horiz-adv-x="233" />
<glyph unicode="&#x2009;" horiz-adv-x="373" />
<glyph unicode="&#x200a;" horiz-adv-x="103" />
<glyph unicode="&#x2010;" horiz-adv-x="806" d="M27 352v205h643v-205h-643z" />
<glyph unicode="&#x2011;" horiz-adv-x="806" d="M27 352v205h643v-205h-643z" />
<glyph unicode="&#x2012;" horiz-adv-x="806" d="M27 352v205h643v-205h-643z" />
<glyph unicode="&#x2013;" d="M0 520v82h1210v-82h-1210z" />
<glyph unicode="&#x2014;" horiz-adv-x="2422" d="M0 520v82h2421v-82h-2421z" />
<glyph unicode="&#x2018;" horiz-adv-x="673" d="M143 961q0 81 23.5 157.5t57 129t70.5 93.5t64.5 60.5t38.5 19.5q17 0 31 -14t14 -31q0 -14 -20 -30q-184 -141 -195 -361q39 39 109 39q75 0 118.5 -48t43.5 -114q0 -64 -44 -112t-116 -48q-85 0 -140 74t-55 185z" />
<glyph unicode="&#x2019;" horiz-adv-x="673" d="M176 1262q0 65 43 112t117 47q85 0 139.5 -73.5t54.5 -184.5q0 -81 -23.5 -157.5t-57 -129.5t-70.5 -94t-64.5 -60.5t-38.5 -19.5q-17 0 -31 14.5t-14 31.5q0 4 1 7.5t2 5.5t4 5l4 4t5 4t5 4q183 140 194 361q-39 -39 -108 -39q-75 0 -118.5 48t-43.5 114z" />
<glyph unicode="&#x201a;" horiz-adv-x="673" d="M160 156q0 66 42.5 112.5t116.5 46.5q86 0 140.5 -73.5t54.5 -184.5q0 -81 -23.5 -157.5t-57 -129t-70.5 -93.5t-64.5 -60.5t-38.5 -19.5q-17 0 -31 14t-14 31q0 4 1 7.5t2 5.5t4 5l4 4t5 4t5 4q183 140 194 361q-39 -39 -108 -39q-75 0 -118.5 48t-43.5 114z" />
<glyph unicode="&#x201c;" horiz-adv-x="1198" d="M143 961q0 81 23.5 157.5t57 129t70.5 93.5t64.5 60.5t38.5 19.5q17 0 31 -14t14 -31q0 -14 -20 -30q-184 -141 -195 -361q39 39 109 39q75 0 118.5 -48t43.5 -114q0 -64 -44 -112t-116 -48q-85 0 -140 74t-55 185zM668 961q0 81 23.5 157.5t57 129t70.5 93.5t64.5 60.5 t38.5 19.5q17 0 31 -14t14 -31q0 -4 -1 -7.5t-2 -5.5t-4 -5l-4 -4t-5 -4t-5 -4q-183 -140 -194 -361q39 39 108 39q75 0 118.5 -48t43.5 -114q0 -64 -44 -112t-116 -48q-85 0 -139.5 74t-54.5 185z" />
<glyph unicode="&#x201d;" horiz-adv-x="1198" d="M176 1262q0 65 43 112t117 47q85 0 139.5 -73.5t54.5 -184.5q0 -81 -23.5 -157.5t-57 -129.5t-70.5 -94t-64.5 -60.5t-38.5 -19.5q-17 0 -31 14.5t-14 31.5q0 4 1 7.5t2 5.5t4 5l4 4t5 4t5 4q183 140 194 361q-39 -39 -108 -39q-75 0 -118.5 48t-43.5 114zM700 1262 q0 65 43 112t117 47q86 0 140.5 -73.5t54.5 -184.5q0 -81 -23.5 -157.5t-57 -129.5t-70.5 -94t-64.5 -60.5t-38.5 -19.5q-17 0 -31 14.5t-14 31.5q0 14 20 30q184 141 195 361q-39 -39 -109 -39q-75 0 -118.5 48t-43.5 114z" />
<glyph unicode="&#x201e;" horiz-adv-x="1198" d="M176 156q0 65 43 112t117 47q85 0 139.5 -73.5t54.5 -184.5q0 -81 -23.5 -157.5t-57 -129t-70.5 -93.5t-64.5 -60.5t-38.5 -19.5q-17 0 -31 14t-14 31q0 4 1 7.5t2 5.5t4 5l4 4t5 4t5 4q183 140 194 361q-39 -39 -108 -39q-75 0 -118.5 48t-43.5 114zM700 156 q0 65 43 112t117 47q86 0 140.5 -73.5t54.5 -184.5q0 -81 -23.5 -157.5t-57 -129t-70.5 -93.5t-64.5 -60.5t-38.5 -19.5q-17 0 -31 14t-14 31q0 14 20 30q184 141 195 361q-39 -39 -109 -39q-75 0 -118.5 48t-43.5 114z" />
<glyph unicode="&#x2022;" horiz-adv-x="1884" d="M629 465q0 126 90 218.5t225 92.5q126 0 218.5 -90t92.5 -225q0 -126 -90 -218.5t-225 -92.5q-126 0 -218.5 90t-92.5 225z" />
<glyph unicode="&#x2026;" horiz-adv-x="1753" d="M176 162q0 65 46 112.5t116 47.5q65 0 112.5 -46t47.5 -116q0 -65 -46 -112.5t-116 -47.5q-65 0 -112.5 46t-47.5 116zM717 162q0 65 46 112.5t116 47.5q65 0 112 -46t47 -116q0 -65 -45.5 -112.5t-115.5 -47.5q-65 0 -112.5 46t-47.5 116zM1257 162q0 65 46 112.5 t116 47.5q65 0 112.5 -46t47.5 -116q0 -65 -46 -112.5t-116 -47.5q-65 0 -112.5 46t-47.5 116z" />
<glyph unicode="&#x202f;" horiz-adv-x="373" />
<glyph unicode="&#x2039;" horiz-adv-x="933" d="M262 481q0 13 10 23q214 184 316 438q10 19 28 19h19q13 0 22 -10t9 -27q-46 -230 -158 -443q111 -212 158 -444q0 -17 -9 -27t-22 -10h-19q-19 0 -28 18q-103 259 -316 439q-10 10 -10 24z" />
<glyph unicode="&#x203a;" horiz-adv-x="933" d="M270 37q45 227 156 444q-108 207 -156 443q-1 16 7.5 26.5t21.5 10.5h18q19 0 29 -19q102 -254 316 -438q10 -10 10 -23q0 -14 -10 -24q-213 -180 -316 -439q-9 -18 -29 -18h-18q-13 0 -21.5 10.5t-7.5 26.5z" />
<glyph unicode="&#x205f;" horiz-adv-x="466" />
<glyph unicode="&#x20ac;" horiz-adv-x="1517" d="M129 557l14 41q6 20 29 20h102q-4 62 -4 84t4 84h-114q-17 0 -26 12t-5 29l14 41q6 21 29 21h117q43 204 172 342q95 100 227.5 149.5t280.5 49.5q146 0 250 -68l100 63q15 5 16 5h17q12 0 21 -9.5t9 -21.5v-279q0 -12 -9 -21t-21 -9h-58q-27 0 -30 26q-12 92 -83 151.5 t-165 59.5q-100 0 -188 -42t-142 -120q-72 -108 -86 -276h608q14 0 24.5 -9.5t6.5 -21.5l-16 -51q-3 -21 -29 -21h-600v-84v-84h526q14 0 24.5 -9.5t6.5 -20.5l-14 -51q-6 -21 -31 -21h-506q14 -168 86 -276q54 -78 142 -120t188 -42q94 0 165 60t83 151q3 26 30 26h58 q12 0 21 -9t9 -21v-279q0 -12 -9 -21.5t-21 -9.5h-17q-1 0 -16 5l-100 63q-114 -68 -250 -68q-148 0 -280.5 49.5t-227.5 149.5q-129 138 -172 342h-129q-17 0 -26 12t-5 29z" />
<glyph unicode="&#x2122;" horiz-adv-x="2390" d="M53 1106l27 299h850l26 -299h-61q-4 49 -8 78t-16.5 64t-33 53.5t-57 31.5t-88.5 13h-98v-709h188v-59q-37 4 -276 4q-240 0 -277 -4v59h187v709h-97q-38 0 -67.5 -6.5t-50 -16.5t-35.5 -29t-23.5 -36t-14.5 -45t-8 -50t-5 -57h-62zM1012 578v59h32q45 0 66 4 q4 1 9.5 1.5t7.5 1t5.5 1t5 1.5t3.5 2t2 3t1 3.5t1 5v6v8.5v686h-133v59h276q17 0 24 -1t17 -7.5t17 -21.5l301 -652l303 652q7 15 16 21.5t16 7.5t23 1h274v-59h-133v-723h133v-59q-29 4 -211 4q-181 0 -210 -4v59h133v721h-2l-347 -750q-13 -30 -43 -30q-7 0 -13.5 1.5 t-10 3.5t-7.5 6t-5 6.5t-3.5 7t-3.5 5.5l-339 735h-3v-669v-9t0.5 -6.5t1 -5.5t2.5 -3.5t3 -2.5t5 -2t6 -1t8.5 -1t10.5 -2q21 -4 66 -4h31v-59q-53 4 -168 4t-168 -4z" />
<glyph unicode="&#xe000;" horiz-adv-x="911" d="M0 0v911h911v-911h-911z" />
<glyph unicode="&#xfb01;" horiz-adv-x="1345" d="M66 809v100h157v201q0 87 50 152t134 101t179.5 53.5t201.5 17.5q83 0 147.5 -22.5t101 -59t55 -77.5t18.5 -83q0 -64 -39 -101.5t-98 -37.5q-60 0 -98.5 38.5t-38.5 98.5q0 95 82 129q-59 33 -146 33q-68 0 -126 -13.5t-105.5 -41.5t-75 -77t-27.5 -114v-197h316v11 l366 10v-830h140v-100l-254 6l-252 -6v100h139v637q0 51 -9.5 61.5t-47.5 10.5h-385v-709h139v-100l-254 6l-252 -6v100h139v709h-157z" />
<glyph unicode="&#xfb02;" horiz-adv-x="1345" d="M66 809v100h157v201q0 85 47 149.5t128.5 101.5t178.5 55t209 18q86 0 162 -19q9 -4 29 -4q12 0 16 2q4 0 61 4t66 4v-1321h140v-100l-254 6l-252 -6v100h139v709h-442v-709h139v-100l-254 6l-252 -6v100h139v709h-157zM438 909h455v236q-53 31 -53 106q0 49 28 84l2 6 q0 5 -40 8t-58 3q-134 0 -231 -54q-103 -67 -103 -192v-197z" />
<glyph unicode="&#xfb03;" horiz-adv-x="2019" d="M66 809v100h157v201q0 72 34.5 129t89.5 92.5t129.5 59.5t150 33.5t155.5 9.5q163 0 256 -93q171 93 424 93q82 0 146.5 -22t101 -58.5t55.5 -77.5t19 -84q0 -64 -39 -101.5t-98 -37.5q-60 0 -99 38.5t-39 98.5q0 95 82 129q-63 33 -145 33q-92 0 -165 -23t-122 -80 t-49 -143v-197h317v11l367 10v-830h139v-100l-254 6l-252 -6v100h140v637q0 51 -10 61.5t-48 10.5h-387v-709h140v-100l-254 6l-252 -6v100h139v709h-444v-709h139v-100l-254 6l-252 -6v100h139v709h-157zM438 909h457v160q-70 39 -70 121q0 55 26.5 87t57.5 42 q-59 33 -143 33q-65 0 -121.5 -13.5t-104 -41t-75 -76.5t-27.5 -115v-197z" />
<glyph unicode="&#xfb04;" horiz-adv-x="2019" d="M66 809v100h157v201q0 87 50.5 152.5t134.5 101.5t178.5 53t197.5 17q179 0 267 -84q165 84 407 84q88 0 164 -19q9 -4 29 -4q12 0 16 2q4 0 61 4t66 4v-1321h139v-100l-254 6l-252 -6v100h140v709h-445v-709h140v-100l-254 6l-252 -6v100h139v709h-444v-709h139v-100 l-254 6l-252 -6v100h139v709h-157zM438 909h457v209q-53 35 -53 107q0 75 53 106q-47 21 -125 21q-138 0 -233 -58q-35 -23 -57 -49.5t-30 -55.5t-10 -44t-2 -39v-197zM1110 909h457v236q-54 31 -54 106q0 48 29 84l2 6q0 5 -40 8t-58 3q-152 0 -238 -58q-35 -23 -57 -49.5 t-30 -55.5t-9.5 -44t-1.5 -39v-197z" />
</font>
</defs>
</svg>
