<?xml version="1.0" standalone="no"?>
<!DOCTYPE svg PUBLIC "-//W3C//DTD SVG 1.1//EN" "http://www.w3.org/Graphics/SVG/1.1/DTD/svg11.dtd" >
<svg xmlns="http://www.w3.org/2000/svg">
<metadata></metadata>
<defs>
<font id="legal_modern_footnoteregular" horiz-adv-x="1052" >
<font-face units-per-em="2048" ascent="1651" descent="-397" />
<missing-glyph horiz-adv-x="702" />
<glyph horiz-adv-x="2048" />
<glyph horiz-adv-x="2048" />
<glyph unicode="&#xd;" horiz-adv-x="2048" />
<glyph unicode=" "  horiz-adv-x="702" />
<glyph unicode="&#x09;" horiz-adv-x="702" />
<glyph unicode="&#xa0;" horiz-adv-x="702" />
<glyph unicode="!" horiz-adv-x="585" d="M180 111q0 47 32 78.5t79 31.5t78.5 -31.5t31.5 -78.5t-31.5 -79t-78.5 -32t-79 32t-32 79zM180 1360q0 50 34.5 78t76.5 28t76 -28t34 -78l-79 -930q-1 -18 -3 -25.5t-8.5 -12.5t-19.5 -5q-19 0 -24 8.5t-7 34.5z" />
<glyph unicode="&#x22;" horiz-adv-x="794" d="M217 1368q-4 31 19.5 53.5t56.5 22.5t56.5 -22.5t19.5 -53.5l-47 -502h-58zM426 1368q-4 31 19.5 53.5t56.5 22.5t56.5 -22.5t19.5 -53.5l-48 -502h-57z" />
<glyph unicode="#" horiz-adv-x="1753" d="M117 305q0 20 12.5 30t24 11.5t30.5 1.5h361l90 330h-451q-19 0 -30.5 1.5t-24 11.5t-12.5 30q0 13 5.5 22.5t11.5 14t19.5 6.5t19 2h20.5h466l170 606q4 15 7.5 24t13 17t24.5 8q46 0 46 -45q0 -9 -9 -37l-159 -573h389l170 606q4 15 7.5 24t13 17t24.5 8q45 0 45 -45 q0 -12 -8 -37l-160 -573h326q18 0 26 -0.5t22 -4t20.5 -13.5t6.5 -27q0 -20 -11.5 -30t-23 -11.5t-32.5 -1.5h-361l-90 -330h451q21 0 32.5 -1.5t23 -11.5t11.5 -30q0 -17 -6.5 -27t-20.5 -13.5t-22 -4t-26 -0.5h-467l-170 -608q-4 -15 -7.5 -24t-13 -17t-24.5 -8 q-46 0 -46 45q0 9 9 37l159 575h-389l-170 -608q-4 -15 -7.5 -24t-13 -17t-24.5 -8q-45 0 -45 45q0 12 8 37l160 575h-325h-20.5t-19 2t-19.5 6.5t-11.5 14t-5.5 22.5zM635 348h391l90 330h-391z" />
<glyph unicode="$" d="M117 365q0 59 29.5 81.5t66.5 22.5q41 0 67.5 -26.5t26.5 -67.5q0 -45 -28.5 -70.5t-67.5 -25.5q-12 0 -16 2q-9 0 -11 2q15 -65 48.5 -112.5t77.5 -73.5t89 -39t95 -15v608q-18 5 -58 16.5t-52.5 15.5t-39.5 14.5t-40 19t-31.5 23.5t-36.5 34q-119 114 -119 277 q0 93 44 178.5t132 145t201 67.5v94h63v-92q97 -6 171.5 -38.5t118 -83.5t65.5 -111t22 -126q0 -56 -28.5 -80t-67.5 -24q-41 0 -68 26.5t-27 67.5q0 45 29.5 70.5t67.5 25.5q8 0 24 -4q-19 68 -67 116t-108 70t-132 27v-555q88 -18 146.5 -45t121.5 -92q109 -129 109 -289 q0 -161 -104.5 -281.5t-272.5 -137.5v-95h-63v92q-94 6 -168 40.5t-118.5 89t-67.5 120.5t-23 138zM223 1112q0 -18 2.5 -38t18 -58t41.5 -69t80.5 -61t128.5 -44v536q-123 -11 -197 -91t-74 -175zM557 43q118 12 194 98.5t76 196.5q0 13 -1.5 27.5t-7.5 40.5t-16.5 50.5 t-31 53t-48 52t-70 44t-95.5 31.5v-594z" />
<glyph unicode="%" horiz-adv-x="1753" d="M117 1124q0 175 94 293.5t215 118.5q79 0 145 -59q176 -166 402 -166q253 0 397 194q1 1 4 5t4 5t3.5 4.5t3.5 4.5t4 3.5t4.5 3t4 2t5 2t6 1t6.5 0.5q16 0 29.5 -12t13.5 -33q0 -15 -16 -37l-1059 -1536q-2 -2 -9 -11t-10.5 -12t-10.5 -6.5t-15 -3.5q-19 0 -32 12.5 t-13 32.5q0 6 4 15t8.5 16.5t5.5 9.5l934 1354l-2 2q-125 -67 -270 -67q-160 0 -314 86q41 -100 41 -224q0 -173 -79 -292t-195 -119q-121 0 -215 116.5t-94 296.5zM252 1122q0 -80 10 -142.5t27 -99.5t35.5 -62.5t40.5 -36.5t36.5 -15t28.5 -4q82 0 147.5 102.5t65.5 259.5 q0 152 -65 256.5t-148 104.5q-18 0 -35.5 -4.5t-45 -26.5t-47.5 -58t-35 -107t-15 -167zM1051 299q0 175 94 293.5t215 118.5q114 0 194 -118t80 -296q0 -173 -79.5 -292.5t-194.5 -119.5q-121 0 -215 117t-94 297zM1186 297q0 -80 10 -142.5t27 -99.5t35.5 -62.5 t40.5 -36.5t36.5 -15t28.5 -4q82 0 147.5 102.5t65.5 259.5q0 152 -65 256t-148 104q-18 0 -35.5 -4.5t-45 -26t-47.5 -57.5t-35 -107t-15 -167z" />
<glyph unicode="&#x26;" horiz-adv-x="1636" d="M88 264q0 40 7.5 71t29.5 64t39 52t59 63q70 70 201 205q-84 218 -84 411q0 79 26.5 145t69.5 106.5t93.5 62.5t101.5 22q52 0 90.5 -28.5t57.5 -72.5t27.5 -85.5t8.5 -79.5q0 -86 -59.5 -176.5t-196.5 -239.5q26 -67 68.5 -144.5t88 -144t84 -119t69.5 -92t32 -40.5 q81 83 184 248l109 178q17 25 21 34.5t4 26.5q0 38 -36 63t-106 25v64l248 -6h76q90 0 129 6v-64q-88 -2 -151 -33.5t-109 -101.5l-84 -139q-137 -223 -246 -346q57 -60 93 -92.5t89.5 -60.5t104.5 -28q54 0 104.5 24t88 78t40.5 128h58q-4 -129 -90 -211t-207 -82 q-198 0 -371 154q-184 -154 -381 -154q-156 0 -268.5 89t-112.5 220zM264 324q0 -48 11 -97.5t34.5 -98t68 -79.5t103.5 -31q94 0 180.5 39.5t145.5 92.5q-67 66 -98 102.5t-86 114.5q-2 3 -15.5 22.5t-20 29t-21.5 31.5t-25 37.5t-24.5 40t-25.5 45t-23 46t-22 49.5 q-54 -52 -80 -81t-54 -71t-38 -87t-10 -105zM477 1188q0 -176 62 -348q26 26 49 51.5t69 82.5t73.5 117t27.5 109q0 19 -3 43t-13 69t-38.5 74t-70.5 29q-70 0 -113 -68t-43 -159z" />
<glyph unicode="'" horiz-adv-x="585" d="M217 1368q-4 31 19.5 53.5t56.5 22.5t56.5 -22.5t19.5 -53.5l-47 -502h-58z" />
<glyph unicode="(" horiz-adv-x="819" d="M207 514q0 356 147 651q31 64 72.5 124.5t80.5 103.5t75.5 76.5t60.5 50t31 16.5q24 0 24 -23q0 -12 -12 -24q-350 -329 -350 -977q0 -654 344 -969q18 -18 18 -30q0 -23 -24 -23q-8 0 -32.5 17t-62 52t-78 81t-85 113t-78.5 138q-131 273 -131 623z" />
<glyph unicode=")" horiz-adv-x="819" d="M119 -487q0 12 12 24q350 331 350 977q0 167 -25 315t-61 248t-86.5 186.5t-89.5 133.5t-82 86q-18 18 -18 30q0 23 24 23q8 0 32 -17t61.5 -52t78 -81t85.5 -113t79 -138q131 -283 131 -621q0 -357 -147 -653q-31 -63 -72.5 -123.5t-80.5 -104t-75.5 -77t-60.5 -50 t-31 -16.5q-24 0 -24 23z" />
<glyph unicode="*" d="M137 905q0 18 7.5 30.5t14.5 16.5t23 11l289 133l-289 131q-16 7 -23 11t-14.5 16t-7.5 30q0 25 16 43.5t44 18.5h4h3.5h3t3.5 -0.5t3.5 -1.5t4 -2t4.5 -2.5t5.5 -3.5t6 -5t7.5 -6l256 -182l-29 311l-4 27q0 20 16 37.5t45 17.5q25 0 42.5 -17t17.5 -38l-4 -27l-29 -313 l256 186q26 19 45 19q28 0 43.5 -18.5t15.5 -43.5q0 -18 -7.5 -30t-14.5 -16t-23 -11l-288 -133l288 -131q16 -7 23 -11t14.5 -16.5t7.5 -30.5q0 -25 -15.5 -43t-43.5 -18h-4.5h-4.5t-4 0.5t-4.5 1t-5 2t-6.5 3.5t-7 5.5t-9 7.5l-256 183l29 -312l4 -26q0 -20 -16.5 -38 t-45.5 -18q-25 0 -42 17.5t-17 38.5l4 26l29 314l-256 -187q-25 -18 -45 -18q-28 0 -44 18t-16 43z" />
<glyph unicode="+" horiz-adv-x="1636" d="M117 514q0 15 6 24.5t18.5 13t21.5 4.5t25 1h586v586q0 16 1 25t4.5 21.5t13 18.5t24.5 6q14 0 23 -5t13.5 -10t6.5 -17.5t2 -17.5v-21v-586h584h21t18 -2t18 -6.5t10 -13.5t5 -23q0 -15 -6 -24.5t-19 -13t-22 -4.5t-25 -1h-584v-586q0 -16 -1 -25t-4.5 -21.5t-13 -18.5 t-24.5 -6q-14 0 -23 5t-13.5 10t-6.5 17.5t-2 17.5v21v586h-586h-14.5t-13.5 0.5t-14 2t-11 5t-10.5 8t-5 12t-2.5 17.5z" />
<glyph unicode="," horiz-adv-x="585" d="M180 111q0 44 30 77t81 33q61 0 97 -56.5t36 -160.5q0 -68 -17.5 -133.5t-42.5 -111.5t-52 -82t-47.5 -54t-28.5 -18q-10 0 -18.5 8t-8.5 16q-3 3 0 6q0 4 8 15q54 53 88.5 110.5t47.5 113.5t16.5 88t3.5 71q-3 -3 -6.5 -5.5t-8.5 -6t-8 -5.5q-28 -16 -59 -16 q-51 0 -81 33.5t-30 77.5z" />
<glyph unicode="-" horiz-adv-x="702" d="M23 379v127h561v-127h-561z" />
<glyph unicode="." horiz-adv-x="585" d="M180 111q0 45 32 77.5t79 32.5t78.5 -32.5t31.5 -77.5q0 -47 -31.5 -79t-78.5 -32t-79 32t-32 79z" />
<glyph unicode="/" d="M117 -467q0 5 10 35l715 1921q5 16 9 24t14 15.5t26 7.5t29.5 -12t13.5 -33q0 -5 -10 -35l-715 -1921q-5 -16 -9 -24t-14 -15.5t-26 -7.5t-29.5 12t-13.5 33z" />
<glyph unicode="0" d="M82 655q0 301 76 463q40 92 107 149.5t130 77t131 19.5q49 0 95.5 -11t96 -37t94.5 -75.5t79 -118.5q48 -104 63 -217.5t15 -249.5q0 -141 -15 -249.5t-59 -204.5q-31 -68 -75 -117.5t-93.5 -76.5t-99.5 -39.5t-103 -12.5q-40 0 -81.5 8.5t-90.5 29.5t-96 64.5t-82 104.5 q-40 76 -61.5 174t-26 164.5t-4.5 154.5zM258 680q0 -304 21 -414q11 -66 35 -115.5t50.5 -76t59 -43t56 -21t46.5 -4.5q20 0 41.5 3.5t54.5 19t60 41t52.5 75t37.5 115.5q21 112 21 420q0 286 -23 401q-14 67 -43.5 115.5t-66.5 72.5t-70.5 34t-65.5 10q-30 0 -62 -9.5 t-68.5 -31.5t-66.5 -68t-44 -110q-25 -115 -25 -414z" />
<glyph unicode="1" d="M190 1169v64q254 0 379 131q38 0 46 -8.5t8 -46.5v-1145q0 -27 2.5 -40.5t12 -27.5t30.5 -20t57.5 -9.5t93.5 -3.5h66v-63q-76 6 -342 6q-268 0 -340 -6v63h65q57 0 93.5 3.5t58 9.5t31 20t12 27.5t2.5 40.5v1059q-111 -54 -275 -54z" />
<glyph unicode="2" d="M104 0q0 36 3 46.5t20 27.5l375 405q38 41 65 71.5t66.5 84t64 100.5t42.5 109t18 121q0 57 -15 112.5t-46.5 107t-88.5 83.5t-131 32q-91 0 -173.5 -54t-117.5 -156q6 2 25 2q47 0 76.5 -30t29.5 -77q0 -51 -33 -78.5t-73 -27.5q-8 0 -18 1.5t-26.5 8t-29.5 18t-23 33.5 t-10 51q0 95 49 179.5t141 139t206 54.5q191 0 318.5 -112t127.5 -287q0 -63 -19 -118.5t-43.5 -99.5t-94 -114t-124.5 -119.5t-180 -157.5l-202 -192h364q183 0 195 18q13 15 22.5 51t17 82t7.5 47h57l-57 -362h-785z" />
<glyph unicode="3" d="M88 279q0 60 34 88t79 28q46 0 78 -30.5t32 -79.5q0 -54 -38 -86t-93 -25q32 -53 83 -89t104 -50t85.5 -18.5t57.5 -4.5q43 0 83 16.5t77.5 52.5t60.5 105t23 162q0 154 -64 246t-192 92h-97q-30 0 -40.5 4t-10.5 23q0 11 6 16.5t11 7t18 2.5q38 0 72 4q25 2 32 3t29.5 5 t34.5 10.5t31 17t35 27t32 38.5q64 100 64 237q0 41 -8.5 77.5t-29 73.5t-63 59t-102.5 22q-82 0 -161 -32.5t-118 -94.5q119 0 119 -103q0 -44 -29 -73t-73 -29q-46 0 -75.5 28t-29.5 78q0 117 107 197t266 80q161 0 274 -81.5t113 -199.5q0 -112 -72.5 -212t-207.5 -150 q149 -32 243.5 -135.5t94.5 -237.5q0 -160 -129 -276.5t-318 -116.5q-179 0 -303.5 94t-124.5 230z" />
<glyph unicode="4" d="M59 338v63l639 955q13 22 19 26t26 4q19 0 27.5 -6t10 -15.5t1.5 -33.5v-930h209v-63h-209v-176q0 -33 3 -47.5t18.5 -29t47.5 -18.5t91 -4h45v-63q-131 6 -287 6q-157 0 -286 -6v63h45q59 0 91 4t47 18.5t18 29t3 47.5v176h-559zM125 401h506v758z" />
<glyph unicode="5" d="M104 330q0 56 31 81t70 25q43 0 71.5 -27t28.5 -73q0 -50 -31.5 -75t-68.5 -25q-17 0 -21 2q-6 0 -8 2q35 -108 122.5 -168t184.5 -60q64 0 123.5 31t98.5 94q57 97 57 283q0 26 -0.5 45.5t-4.5 63t-12 76.5t-24 73.5t-38.5 67t-58.5 45t-81 18.5q-80 0 -150 -35 t-117 -100q-2 -3 -5.5 -7t-5 -6t-4 -5t-4 -4t-4 -2.5t-5.5 -2t-6 -0.5q-15 0 -21.5 8.5t-7 17t-0.5 34.5v602q0 22 1 31t6.5 16.5t17.5 7.5q4 0 6 -2q15 -5 20 -8q138 -56 275 -56q138 0 276 56q2 2 21 8q2 2 6 2q8 0 15 -7t7 -20q0 -9 -16.5 -32t-51.5 -53.5t-80.5 -58 t-112 -46.5t-138.5 -19q-87 0 -189 29v-403q103 106 271 106q166 0 282.5 -132.5t116.5 -317.5q0 -94 -37 -179t-99 -145t-146.5 -95.5t-176.5 -35.5q-109 0 -198.5 55t-137 140.5t-47.5 179.5z" />
<glyph unicode="6" d="M88 647q0 133 32 249.5t86.5 201t125.5 145.5t150 91t159 30q133 0 200.5 -64.5t67.5 -158.5q0 -47 -26.5 -73t-69.5 -26q-42 0 -68 26.5t-26 68.5q0 43 26.5 68.5t81.5 25.5q-56 82 -182 82q-103 0 -180 -63t-113 -140q-42 -80 -60 -179t-18 -253q90 194 269 194 q175 0 297.5 -131.5t122.5 -324.5q0 -131 -61 -238t-160 -165t-212 -58q-52 0 -100.5 13t-99.5 42t-93.5 82.5t-76.5 127t-53 183t-19 244.5zM279 463q0 -199 40 -295q19 -55 75.5 -105.5t133.5 -50.5q133 0 209 131q18 35 27 86.5t10.5 87t1.5 101.5q0 65 -1.5 100.5 t-10.5 87t-27 88.5q-67 127 -198 127q-70 0 -123 -36t-81.5 -92.5t-42 -115t-13.5 -114.5z" />
<glyph unicode="7" d="M117 956l67 428h58q3 -18 9.5 -27t31 -19.5t80.5 -14.5t149 -4h510q0 -33 -2.5 -43t-15.5 -27l-287 -391q-154 -208 -154 -686v-100q0 -117 -96 -117q-94 0 -94 115q0 59 9 129t35.5 181.5t90 245t156.5 261.5l196 268h-430q-187 0 -205 -12q-32 -32 -51 -187h-57z" />
<glyph unicode="8" d="M88 309q0 232 301 379q-95 61 -118.5 78t-47.5 45q-78 94 -78 211q0 142 111.5 242t271.5 100q95 0 180 -35t141 -106.5t56 -163.5q0 -59 -24 -112t-64 -92t-80 -66t-84 -48q55 -31 107 -67q82 -56 122 -105q81 -99 81 -225q0 -164 -129.5 -276.5t-309.5 -112.5 q-112 0 -210.5 42t-162 124.5t-63.5 187.5zM199 309q0 -126 96 -211.5t231 -85.5q131 0 228.5 71.5t97.5 188.5q0 36 -12 68.5t-25.5 53.5t-39.5 44.5t-37.5 31.5t-35.5 24l-258 159q-112 -57 -178.5 -147t-66.5 -197zM244 1100q0 -103 108 -170l250 -156q205 122 205 285 q0 107 -83 180.5t-202 73.5q-108 0 -193 -59t-85 -154z" />
<glyph unicode="9" d="M88 905q0 197 131 328t313 131q50 0 97 -13t97 -42t91.5 -82.5t75 -126.5t52 -182.5t18.5 -243.5q0 -163 -45.5 -301t-120 -228t-169 -140t-194.5 -50q-138 0 -215.5 59.5t-77.5 163.5q0 46 26.5 72t70.5 26q42 0 68 -26t26 -68q0 -37 -21 -61t-43 -30.5t-32 -2.5h-9 q61 -76 205 -76q28 0 56 6t63 23.5t65.5 44.5t60.5 73t51.5 105.5t34.5 146t13 189.5v45q-87 -196 -268 -196q-175 0 -297.5 131.5t-122.5 324.5zM274 903q0 -65 1.5 -100.5t10.5 -87t27 -88.5q67 -127 199 -127q69 0 121.5 35t81.5 90.5t43 116t14 120.5q0 185 -37 289 l-5 11l-9 18t-12 22t-17 25t-21 25t-27 24t-31.5 19t-37.5 13.5t-43 4.5q-136 0 -215 -131q-20 -37 -30 -89.5t-11.5 -88t-1.5 -101.5z" />
<glyph unicode=":" horiz-adv-x="585" d="M180 111q0 45 32 77.5t79 32.5t78.5 -32.5t31.5 -77.5q0 -47 -31.5 -79t-78.5 -32t-79 32t-32 79zM180 772q0 47 32 79t79 32t78.5 -32t31.5 -79q0 -45 -31.5 -77.5t-78.5 -32.5t-79 32.5t-32 77.5z" />
<glyph unicode=";" horiz-adv-x="585" d="M180 111q0 47 31 78.5t78 31.5q119 0 119 -213q0 -69 -16.5 -135.5t-39.5 -113t-48.5 -83t-43.5 -54t-24 -17.5q-10 0 -18.5 8t-8.5 16q0 11 16 29q131 147 131 360q-25 -18 -65 -18q-51 0 -81 33.5t-30 77.5zM180 772q0 47 32 79t79 32t78.5 -32t31.5 -79 q0 -45 -31.5 -77.5t-78.5 -32.5t-79 32.5t-32 77.5z" />
<glyph unicode="&#x3c;" horiz-adv-x="1636" d="M176 514q0 29 41 47l1159 557q10 4 27 10q4 2 10 2q22 0 33.5 -13t11.5 -32q0 -29 -41 -47l-1095 -524l1099 -530q20 -9 28.5 -17.5t8.5 -27.5q0 -14 -11.5 -28.5t-33.5 -14.5q-6 0 -10 2q-24 8 -31 12l-1155 555q-15 6 -21.5 10.5t-13 14t-6.5 24.5z" />
<glyph unicode="=" horiz-adv-x="1636" d="M117 305q0 20 12.5 30t24 11.5t30.5 1.5h1266q16 0 24.5 -1t20.5 -4.5t17.5 -13t5.5 -24.5q0 -13 -5.5 -22.5t-11.5 -14t-19.5 -6.5t-19 -2h-20.5h-1249h-20.5t-19 2t-19.5 6.5t-11.5 14t-5.5 22.5zM117 721q0 13 5.5 22.5t11.5 14t19.5 6.5t19 2h20.5h1249h20.5t19 -2 t19.5 -6.5t11.5 -14t5.5 -22.5q0 -15 -5.5 -24.5t-17.5 -13t-20.5 -4.5t-24.5 -1h-1266q-19 0 -30.5 1.5t-24 11.5t-12.5 30z" />
<glyph unicode="&#x3e;" horiz-adv-x="1636" d="M176 -61q0 18 8.5 28t32.5 21l1096 526l-1096 524q-24 11 -32.5 21t-8.5 28t11.5 30.5t31.5 12.5q4 0 10 -2q23 -7 33 -12l1155 -555q41 -18 41 -47q0 -21 -9.5 -30.5t-31.5 -18.5l-1159 -557q-4 -1 -29 -10q-4 -2 -8 -2q-22 0 -33.5 14.5t-11.5 28.5z" />
<glyph unicode="?" horiz-adv-x="993" d="M117 1171q0 109 97.5 191t260.5 82q111 0 192.5 -25.5t124.5 -68t62.5 -88.5t19.5 -97q0 -125 -118 -213q-260 -177 -260 -452v-62q0 -39 -6 -45t-23 -6q-11 0 -17.5 2.5t-8.5 9.5t-2.5 9.5t-0.5 11.5v57q0 319 189 508q23 23 35 40t24 56.5t12 94.5q0 23 -1 38t-5.5 40 t-12.5 42t-25 37t-40.5 32t-60 20t-82.5 8q-42 0 -83 -7t-97.5 -38.5t-89.5 -85.5q59 0 82.5 -31t23.5 -66q0 -41 -26.5 -67.5t-67.5 -26.5q-40 0 -68 25t-28 75zM356 111q0 47 32 78.5t79 31.5t79 -31.5t32 -78.5t-32 -79t-79 -32t-79 32t-32 79z" />
<glyph unicode="@" horiz-adv-x="1636" d="M117 711q0 151 55.5 287t149.5 233.5t223.5 155t271.5 57.5q105 0 207 -32.5t191 -97.5t157 -154t107 -209.5t39 -256.5q0 -58 -3 -106.5t-11.5 -100.5t-24.5 -90.5t-39.5 -70.5t-59.5 -49t-82 -17q-26 0 -54 5.5t-61 19.5t-59.5 43.5t-36.5 70.5q-24 -31 -55 -58 t-91 -54t-126 -27q-82 0 -158.5 35t-133.5 95t-91.5 144t-34.5 177q0 124 58 228t154 163t206 59q95 0 172 -49.5t123 -122.5h70q42 0 49.5 -7t7.5 -46v-490q0 -135 72 -135q45 0 76 28t46.5 82t22 117t6.5 148q0 136 -38 253t-101.5 199t-147 140.5t-174 86.5t-182.5 28 q-129 0 -247.5 -53.5t-205.5 -144t-138.5 -217.5t-51.5 -267q0 -133 48.5 -257t133 -218t207.5 -150.5t264 -56.5q283 0 557 123q23 10 31.5 12t32.5 2h18q20 0 28.5 -1t15 -6t6.5 -16q0 -15 -23 -26q-1 -1 -2 -1.5t-2 -0.5q-326 -138 -660 -138q-155 0 -290 61t-226.5 163 t-143.5 235t-52 275zM549 711q0 -166 79.5 -283t190.5 -117q60 0 123.5 34t114.5 104q5 7 9 12.5t7 11.5t5 8.5t3.5 8.5t2 7t1 8t0.5 8v10v12v352q0 31 -3 41.5t-21 38.5q-50 74 -115.5 108.5t-126.5 34.5q-111 0 -190.5 -116.5t-79.5 -282.5z" />
<glyph unicode="A" horiz-adv-x="1579" d="M70 0v63q57 0 98.5 12t66.5 35t38.5 44t25.5 51l440 1216q1 2 4 9t3.5 8.5t3 6.5t3.5 6t3.5 4.5t4 4t4.5 2.5t6.5 2.5t7.5 1t9 0.5q23 0 32 -9.5t18 -33.5l465 -1284q11 -31 25.5 -46t48 -22.5t96.5 -7.5h34v-63l-268 6q-201 0 -293 -6v63q168 0 168 62q0 7 -10 37 l-111 309h-530l-96 -264q-9 -15 -9 -39q0 -38 37 -71.5t115 -33.5v-63l-231 6q-129 0 -209 -6zM485 535h484l-242 669z" />
<glyph unicode="B" horiz-adv-x="1490" d="M84 0v63h47q59 0 92 4t48.5 18.5t18.5 29t3 47.5v1075q0 33 -3 47.5t-18.5 28.5t-48.5 18t-92 4h-47v64h762q198 0 332.5 -103.5t134.5 -242.5q0 -112 -97 -202.5t-249 -119.5q173 -21 289 -121.5t116 -236.5q0 -70 -35 -137.5t-95.5 -119.5t-149.5 -84t-189 -32h-819z M465 147q0 -56 15 -70t85 -14h271q151 0 242 94t91 220q0 50 -17 103t-51.5 104.5t-99.5 84.5t-149 33h-387v-555zM465 754h321q140 0 235 89t95 210q0 48 -17 96t-49.5 90.5t-89.5 69t-129 26.5h-266q-70 0 -85 -14t-15 -70v-497z" />
<glyph unicode="C" horiz-adv-x="1519" d="M117 700q0 203 99.5 374.5t268 270.5t365.5 99q73 0 136.5 -17t113.5 -49t77 -54.5t62 -57.5l104 153q16 25 33 25t21 -11t4 -42v-480q0 -25 -1.5 -34t-8 -14t-23.5 -5q-23 0 -28 16q-1 3 -5 21q-18 120 -65 215t-111.5 152.5t-138.5 87.5t-152 30q-40 0 -83.5 -7.5 t-98 -28t-103.5 -52t-97 -85.5t-82.5 -122.5t-56 -167.5t-21.5 -217q0 -163 41 -290t100.5 -198.5t137.5 -117.5t141.5 -61t123.5 -15q64 0 128.5 18t124.5 56t107 91.5t77.5 130.5t35.5 167q1 10 1.5 13t3.5 9.5t8.5 8.5t15.5 2q15 0 21.5 -6t6.5 -11.5t1 -21.5 q0 -91 -39 -182.5t-108 -167t-175 -123t-229 -47.5q-145 0 -280 58t-234.5 156.5t-159 237.5t-59.5 293z" />
<glyph unicode="D" horiz-adv-x="1607" d="M82 0v63h47q59 0 92 4t48.5 18.5t18.5 29t3 47.5v1075q0 33 -3 47.5t-18.5 28.5t-48.5 18t-92 4h-47v64h762q176 0 325 -96.5t234.5 -260t85.5 -354.5q0 -189 -87 -347.5t-235 -249.5t-323 -91h-762zM469 147q0 -56 15 -70t85 -14h222q243 0 383 183q40 49 65.5 112.5 t34 135t10.5 106t2 88.5q0 158 -27.5 269.5t-93.5 199.5q-23 30 -55.5 58.5t-79 57t-109.5 45.5t-133 17h-219q-70 0 -85 -14t-15 -70v-1104z" />
<glyph unicode="E" horiz-adv-x="1431" d="M78 0v63h47q59 0 92 4t48.5 18.5t18.5 29t3 47.5v1069q0 33 -3 47.5t-18.5 28.5t-48.5 18t-92 4h-47v64h1177l58 -461h-58q-9 77 -19.5 129.5t-30 100.5t-47.5 76.5t-71.5 50.5t-102 31t-138.5 9h-275q-70 0 -85 -14t-15 -70v-489h191q76 0 120 11.5t67.5 43t30.5 72 t7 112.5h57v-542h-57q0 48 -2.5 79t-11 60.5t-23.5 46.5t-40.5 30t-61 18t-86.5 5h-191v-545q0 -56 15 -70t85 -14h287q87 0 151 11.5t111 39t77.5 61.5t53 91.5t35.5 115.5t27 146h57l-88 -528h-1204z" />
<glyph unicode="F" horiz-adv-x="1374" d="M78 0v63h47q59 0 92 4t48.5 18.5t18.5 29t3 47.5v1069q0 33 -3 47.5t-18.5 28.5t-48.5 18t-92 4h-47v64h1149l57 -461h-57q-9 77 -19.5 128.5t-29 100t-45.5 77t-69 51t-99.5 31.5t-135.5 9h-258q-70 0 -85 -14t-15 -70v-516h184q50 0 85.5 5.5t60.5 19t40 30.5t23 46.5 t10.5 60.5t2.5 78h57v-543h-57q0 47 -2.5 78t-10.5 60.5t-23 46.5t-40 30.5t-60.5 19t-85.5 5.5h-184v-502q0 -43 10 -61.5t51.5 -29t133.5 -10.5h65v-63q-72 6 -340 6q-221 0 -313 -6z" />
<glyph unicode="G" horiz-adv-x="1652" d="M117 700q0 203 99.5 374.5t268 270.5t365.5 99q73 0 136.5 -17t113.5 -49t77 -54.5t62 -57.5l104 153q16 25 33 25t21 -11t4 -42v-480q0 -25 -1.5 -34t-8 -14t-23.5 -5q-23 0 -28 16q-1 3 -5 21q-18 120 -65 215t-111.5 152.5t-138.5 87.5t-152 30q-40 0 -83.5 -7.5 t-98 -28t-103.5 -52t-97 -85.5t-82.5 -122.5t-56 -167.5t-21.5 -217q0 -120 22 -220.5t58 -169.5t85.5 -122.5t100 -84.5t105.5 -51t98.5 -27t83.5 -7q14 0 28 0.5t50 5.5t66.5 13.5t68 27.5t63.5 44t44 66.5t18 92.5v129q0 27 -2.5 40.5t-12 27.5t-31 20t-58 9.5t-93.5 3.5 h-66v63q70 -6 328 -6q131 0 264 6v-63q-37 0 -59 -1t-40 -5t-26 -9t-13 -17t-6 -24t-1 -36v-353q0 -20 -1 -28.5t-6 -15.5t-16 -7q-15 0 -60 43.5t-69 83.5q-44 -78 -149.5 -126t-247.5 -48q-148 0 -283.5 58t-234.5 157t-158 237.5t-59 292.5z" />
<glyph unicode="H" horiz-adv-x="1579" d="M78 0v63h47q59 0 92 4t48.5 18.5t18.5 29t3 47.5v1075q0 33 -3 47.5t-18.5 28.5t-48.5 18t-92 4h-47v64q92 -6 301 -6t301 6v-64h-47q-59 0 -92 -4t-48.5 -18t-18.5 -28.5t-3 -47.5v-477h635v477q0 33 -3 47.5t-18.5 28.5t-48.5 18t-92 4h-47v64q92 -6 301 -6t301 6v-64 h-47q-59 0 -92 -4t-48.5 -18t-18.5 -28.5t-3 -47.5v-1075q0 -33 3 -47.5t18.5 -29t48.5 -18.5t92 -4h47v-63q-92 6 -301 6t-301 -6v63h47q59 0 92 4t48.5 18.5t18.5 29t3 47.5v534h-635v-534q0 -33 3 -47.5t18.5 -29t48.5 -18.5t92 -4h47v-63q-92 6 -301 6t-301 -6z" />
<glyph unicode="I" horiz-adv-x="759" d="M68 0v63h51q62 0 95.5 4t50 18.5t19.5 29t3 47.5v1075q0 33 -3 47.5t-19.5 28.5t-50 18t-95.5 4h-51v64q84 -6 311 -6t311 6v-64h-51q-62 0 -95.5 -4t-50 -18t-19.5 -28.5t-3 -47.5v-1075q0 -33 3 -47.5t19.5 -29t50 -18.5t95.5 -4h51v-63q-84 6 -311 6t-311 -6z" />
<glyph unicode="J" horiz-adv-x="1081" d="M98 229q0 53 32 84t81 31t80 -31.5t31 -79.5q0 -50 -34 -83q-30 -28 -76 -28q-8 0 -17 1q36 -57 100.5 -87t130.5 -30q85 0 149 81.5t64 215.5v932q0 33 -4 48.5t-23.5 29.5t-60 18t-113.5 4h-69v64q72 -6 333 -6q136 0 271 6v-64q-101 0 -128.5 -12.5t-27.5 -71.5v-833 q0 -31 -1 -94t-1 -66q-13 -94 -73 -165t-141.5 -104.5t-170.5 -33.5q-140 0 -236 80.5t-96 193.5z" />
<glyph unicode="K" horiz-adv-x="1636" d="M78 0v63h47q59 0 92 4t48.5 18.5t18.5 29t3 47.5v1075q0 33 -3 47.5t-18.5 28.5t-48.5 18t-92 4h-47v64q92 -6 301 -6t301 6v-64h-47q-59 0 -92 -4t-48.5 -18t-18.5 -28.5t-3 -47.5v-647l682 631q16 22 16 47q0 64 -88 67v64l254 -6q122 0 183 6v-64q-155 0 -291 -125 l-383 -354l479 -680q37 -51 60.5 -72t59.5 -31t103 -10v-63q-104 6 -239 6q-195 0 -285 -6v63q117 0 117 60q0 26 -35 76l-383 544l-250 -231v-350q0 -33 3 -47.5t18.5 -29t48.5 -18.5t92 -4h47v-63q-92 6 -301 6t-301 -6z" />
<glyph unicode="L" horiz-adv-x="1314" d="M78 0v63h47q59 0 92 4t48.5 18.5t18.5 29t3 47.5v1075q0 33 -3 47.5t-18.5 28.5t-48.5 18t-92 4h-47v64q92 -6 313 -6q268 0 340 6v-64h-65q-70 0 -109 -4t-58.5 -18t-23.5 -29.5t-4 -48.5v-1088q0 -56 15 -70t85 -14h179q76 0 136.5 15t101.5 40.5t71.5 62t48.5 76.5 t29.5 87t18 90.5t11.5 89.5v4h58l-58 -528h-1089z" />
<glyph unicode="M" horiz-adv-x="1929" d="M88 0v63q60 0 102 11.5t62 26t31 39.5t12.5 39t1.5 38v1020q0 33 -3 47.5t-18.5 28.5t-48.5 18t-92 4h-47v64h344q40 0 51 -7t23 -38l459 -1153l458 1161q7 19 17 27t19 9t36 1h344v-64h-47q-59 0 -92 -4t-48.5 -18t-18.5 -28.5t-3 -47.5v-1075q0 -33 3 -47.5t18.5 -29 t48.5 -18.5t92 -4h47v-63q-131 6 -293 6q-170 0 -291 -6v63h48q48 0 77.5 4t47 9t25.5 19.5t9.5 27t1.5 39.5v1167l-2 2l-512 -1294q-16 -37 -41 -37q-17 0 -25.5 10.5t-17.5 34.5l-504 1270l-2 -2v-1096q0 -24 1.5 -38t12.5 -39t31 -39.5t62 -26t102 -11.5v-63 q-109 6 -239 6q-129 0 -242 -6z" />
<glyph unicode="N" horiz-adv-x="1579" d="M78 0v63q60 0 102 11.5t62 26t31 39.5t12.5 39t1.5 38v1104q-7 1 -39 6q-36 8 -113 8h-57v64h344q31 0 40 -3.5t21 -21.5l744 -1067v875q0 20 -1 31t-6.5 32.5t-19 34.5t-35 27t-59.5 21t-88 7v64q113 -6 242 -6q130 0 239 6v-64q-50 0 -88 -7t-59.5 -21t-35 -27 t-19 -34.5t-6.5 -32.5t-1 -31v-1127q0 -23 -1.5 -32.5t-8.5 -16t-23 -6.5q-20 0 -36 25l-871 1249v-1057q0 -24 1.5 -38t12.5 -39t31 -39.5t62 -26t102 -11.5v-63q-109 6 -240 6q-128 0 -241 -6z" />
<glyph unicode="O" horiz-adv-x="1636" d="M117 694q0 154 55.5 293t149.5 239t223.5 159t271.5 59q190 0 351 -99.5t255.5 -272.5t94.5 -378q0 -153 -56.5 -290.5t-151 -235.5t-223.5 -155.5t-270 -57.5t-270 57.5t-223.5 155.5t-150.5 235.5t-56 290.5zM326 725q0 -127 22 -235t60 -184t86.5 -133.5t104.5 -90.5 t110.5 -49.5t107.5 -16.5q65 0 130 22.5t131.5 76t117 132t82 202.5t31.5 276q0 144 -32.5 260t-83.5 189t-118 122.5t-131 69.5t-127 20q-44 0 -89.5 -10t-94 -33.5t-92.5 -59t-83.5 -89t-68.5 -119.5t-46 -156t-17 -194z" />
<glyph unicode="P" horiz-adv-x="1431" d="M82 0v63h47q59 0 92 4t48.5 18.5t18.5 29t3 47.5v1075q0 33 -3 47.5t-18.5 28.5t-48.5 18t-92 4h-47v64h735q211 0 353.5 -112.5t142.5 -268.5q0 -151 -142.5 -263t-353.5 -112h-342v-481q0 -33 3 -47.5t18.5 -29t48.5 -18.5t92 -4h47v-63q-92 6 -301 6t-301 -6zM469 700 h295q70 0 125.5 13.5t90.5 32.5t60 50.5t37 57t18.5 62t7.5 55t1 47.5t-1 47.5t-7.5 55t-18 61.5t-36.5 56.5t-60 50.5t-90 32.5t-125 13.5h-197q-70 0 -85 -14t-15 -70v-551z" />
<glyph unicode="Q" horiz-adv-x="1636" d="M117 694q0 154 55.5 293t149.5 239t223.5 159t271.5 59q190 0 351 -99.5t255.5 -272.5t94.5 -378q0 -122 -36 -235t-96.5 -199t-136 -149t-159.5 -97q18 -43 29 -66.5t30 -53.5t37 -45t45 -26t59 -11q15 0 31.5 2.5t44.5 13.5t49.5 30t40 56.5t23.5 87.5q5 23 24 23 q27 0 27 -43q0 -30 -4.5 -65t-14.5 -80t-29.5 -85t-46.5 -74t-68.5 -54.5t-92.5 -20.5q-39 0 -70.5 10t-54.5 26.5t-41.5 43.5t-30.5 55t-23 67.5t-18 74.5t-16 82l-1.5 7.5t-1 7t-1.5 7.5q-102 -29 -199 -29q-141 0 -270 57.5t-223.5 155.5t-150.5 235.5t-56 290.5z M319 694q0 -262 96 -426.5t255 -226.5q-11 22 -13 27q-12 32 -12 63q0 73 50 123.5t124 50.5q48 0 87 -18t67.5 -53.5t46.5 -67.5t37 -78q258 175 258 606q0 146 -31.5 266t-82 197.5t-117 130.5t-133.5 75.5t-134 22.5t-134 -22.5t-133.5 -75.5t-117 -130.5t-82 -197.5 t-31.5 -266zM696 131q0 -15 5.5 -33t18 -38.5t38 -34t59.5 -13.5q100 0 182 43q-23 97 -62.5 148t-115.5 51q-57 0 -91 -36.5t-34 -86.5z" />
<glyph unicode="R" horiz-adv-x="1548" d="M82 0v63h47q59 0 92 4t48.5 18.5t18.5 29t3 47.5v1075q0 33 -3 47.5t-18.5 28.5t-48.5 18t-92 4h-47v64h653q149 0 275.5 -49t200 -134t73.5 -186q0 -114 -99.5 -203.5t-254.5 -132.5q42 -13 76 -29t58.5 -36t43.5 -38.5t32 -44.5t21.5 -44.5t15 -48.5t9 -47t6.5 -48 q22 -199 49 -276q10 -22 19.5 -36t32 -27t53.5 -13q53 0 91.5 43t45.5 135q0 1 0.5 7t1 7t2 6t3 6.5t4.5 4t7 3.5t10 1q14 0 21 -7.5t7.5 -12.5t0.5 -17q0 -18 -4.5 -42.5t-18 -58t-34.5 -61t-59 -46.5t-87 -19q-143 0 -241 76q-24 19 -42 39t-28.5 46t-16.5 45t-8.5 54.5 t-3 55.5t-0.5 65q0 114 -9 155.5t-52 96.5q-1 0 -12 11t-27.5 22.5t-41 24t-61.5 20.5t-79 8h-246v-512q0 -33 3 -47.5t18.5 -29t48.5 -18.5t92 -4h47v-63q-98 6 -299 6t-297 -6zM469 725h238q368 0 368 305q0 49 -9.5 90t-24.5 70.5t-40.5 53t-48.5 38.5t-59 25.5t-62 16 t-66.5 8t-63.5 3t-62 0.5q-115 0 -127 -4q-28 -6 -35.5 -21.5t-7.5 -58.5v-526z" />
<glyph unicode="S" horiz-adv-x="1169" d="M117 12v396q0 43 6 50q7 7 22 7q19 0 23 -8t6 -35q5 -97 39.5 -171.5t83 -117t112 -70t117 -36.5t107.5 -9q131 0 209 89.5t78 203.5q0 74 -37 146q-15 29 -35 53q-47 50 -84.5 66t-167.5 47q-186 40 -246 65t-127 92q-10 10 -22 25.5t-34 51t-36 86.5t-14 106 q0 159 117.5 277t293.5 118q205 0 334 -144q22 35 36 57t17 28t7.5 12.5l13.5 19.5q10 18 15 22.5t16 4.5q9 0 14 -2.5t7 -12t2.5 -16t0.5 -27.5v-395v-10q0 -21 -1 -29t-7 -13t-20 -5q-18 0 -23 9t-10 40q-8 65 -26.5 122t-51 109.5t-76 89.5t-107 59.5t-139.5 22.5 q-125 0 -203.5 -80t-78.5 -188q0 -36 11.5 -73.5t35 -75.5t68 -68.5t102.5 -44.5l180 -43q129 -33 173 -52q82 -38 140 -114q93 -120 93 -268q0 -110 -50.5 -206.5t-147 -157t-218.5 -60.5q-246 0 -389 143q-44 -73 -74 -116q-10 -18 -15 -22.5t-16 -4.5q-9 0 -14 2.5 t-7 11.5t-2.5 16t-0.5 27z" />
<glyph unicode="T" horiz-adv-x="1519" d="M76 926l41 460h1284l41 -460h-58q-7 91 -15.5 147.5t-26.5 105t-41.5 73.5t-66 42.5t-94.5 23t-132 5.5q-98 0 -113 -4q-29 -6 -36 -21t-7 -59v-1075q0 -22 1 -32t7 -24.5t19 -20.5t36.5 -13t60.5 -9t91 -2h80v-63q-76 6 -387 6q-313 0 -387 -6v63h80q54 0 91 2t60.5 9 t36.5 13t19 20.5t7 24.5t1 32v1075q0 31 -1.5 43t-10 22.5t-27.5 14.5q-15 4 -119 4q-80 0 -132 -5.5t-94.5 -23t-66.5 -42.5t-42 -73.5t-26.5 -105t-15.5 -147.5h-57z" />
<glyph unicode="U" horiz-adv-x="1579" d="M78 1335v64q92 -6 301 -6t301 6v-64h-47q-59 0 -92 -4t-48.5 -18t-18.5 -28.5t-3 -47.5v-778q0 -89 17 -160.5t47 -118t65.5 -80t76.5 -50.5t75.5 -24.5t68.5 -7.5q77 0 150 32t130 89t91.5 144t34.5 188v711q0 20 -1 31t-6.5 32.5t-19 34.5t-35 27t-59.5 21t-88 7v64 q113 -6 242 -6q130 0 239 6v-64q-43 0 -77 -6t-56 -14.5t-37 -23t-22.5 -26.5t-11.5 -30.5t-4.5 -28.5t-0.5 -28v-738q0 -79 -32.5 -162.5t-90.5 -156.5t-150 -119.5t-200 -46.5q-142 0 -263 66t-194 185t-73 265v766q0 33 -3 47.5t-18.5 28.5t-48.5 18t-92 4h-47z" />
<glyph unicode="V" horiz-adv-x="1579" d="M41 1335v64l262 -6q199 0 291 6v-64q-164 0 -164 -61q0 -6 2 -10q0 -1 2 -11t6 -18l410 -1036l391 993q10 29 10 41q0 44 -36.5 72.5t-108.5 29.5v64l229 -6q129 0 201 6v-64q-80 0 -136.5 -30.5t-86.5 -106.5l-475 -1202q-8 -25 -17 -33t-33 -8q-28 0 -40 21 q-2 4 -11 24l-495 1255q-21 54 -54.5 67t-146.5 13z" />
<glyph unicode="W" horiz-adv-x="2162" d="M39 1335v64q125 -6 254 -6q195 0 287 6v-64q-31 0 -51.5 -1t-53 -6.5t-50 -19.5t-17.5 -36q0 -10 10 -37l334 -999l288 868q0 1 0.5 2.5t1.5 5t2 6.5l5 12q-3 11 -11.5 36t-11.5 38q-26 73 -37 92q-16 25 -49.5 32t-116.5 7v64q125 -6 254 -6q195 0 287 6v-64 q-31 0 -51.5 -1t-53 -6.5t-50 -19.5t-17.5 -36q0 -4 1.5 -9.5t3.5 -12t3 -9.5l336 -1005l319 956q9 21 9 33q0 41 -44 75.5t-132 34.5v64l241 -6q130 0 193 6v-64q-89 -1 -136 -36.5t-71 -108.5l-397 -1194q-8 -24 -17 -32.5t-28 -8.5q-7 0 -11.5 0.5t-8.5 3.5t-6.5 4 t-5.5 7t-4 8.5t-4.5 12t-5.5 13.5l-348 1036l-346 -1042q-15 -43 -45 -43q-19 0 -28 8.5t-17 32.5l-420 1261q-20 55 -53.5 66.5t-130.5 11.5z" />
<glyph unicode="X" horiz-adv-x="1579" d="M53 0v63q205 0 301 136l348 495l-387 557q-33 44 -49 56q-39 28 -149 28h-35v64l266 -6q215 0 297 6v-64q-63 -1 -96 -20.5t-33 -40.5q0 -14 16 -35l275 -395l244 344q22 31 22 55q0 34 -31 62.5t-92 29.5v64l258 -6q124 0 228 6v-64q-206 0 -299 -133l-291 -414 l450 -653q30 -45 71.5 -58.5t121.5 -13.5h35v-63l-267 6q-202 0 -294 -6v63q57 1 92 21t35 41q0 7 -17 31l-332 483l-305 -432q-20 -28 -20 -51q0 -31 30.5 -60t92.5 -33v-63l-256 6q-126 0 -230 -6z" />
<glyph unicode="Y" horiz-adv-x="1579" d="M27 1335v64l270 -6q215 0 297 6v-64q-30 0 -49.5 -1t-42.5 -5.5t-35 -16t-12 -28.5q0 -11 18 -41l385 -598l350 551q21 33 23 49v10q0 36 -29.5 58t-83.5 22v64l232 -6q128 0 200 6v-64q-183 0 -266 -141l-405 -635v-399q0 -42 7.5 -59.5t42 -27.5t111.5 -10h47v-63 q-98 6 -299 6q-200 0 -296 -6v63h47q48 0 77.5 4t47 9t25.5 19.5t9.5 27t1.5 39.5v397l-450 703q-31 44 -65.5 58.5t-123.5 14.5h-34z" />
<glyph unicode="Z" horiz-adv-x="1286" d="M117 37q0 18 16 43l821 1255h-331q-117 0 -196 -24.5t-126.5 -77t-69.5 -123t-28 -172.5h-58l23 461h944q23 0 32.5 -1.5t16 -9t6.5 -24.5q0 -16 -16 -41l-819 -1253h350q63 0 115.5 7.5t93 19.5t73 33.5t55.5 44t40 56.5t27.5 65.5t18 76t11 83t6.5 91.5h58l-35 -547 h-973q-21 0 -27 0.5t-15 3.5t-11 10.5t-2 22.5z" />
<glyph unicode="[" horiz-adv-x="585" d="M246 -512v2048h291v-88h-203v-1872h203v-88h-291z" />
<glyph unicode="\" d="M117 1491q0 21 13.5 33t29.5 12t26 -7.5t14 -15.5t9 -24l715 -1921q10 -30 10 -35q0 -21 -13.5 -33t-29.5 -12t-26 7.5t-14 15.5t-9 24l-715 1921q-10 30 -10 35z" />
<glyph unicode="]" horiz-adv-x="585" d="M45 -424h203v1872h-203v88h291v-2048h-291v88z" />
<glyph unicode="^" horiz-adv-x="1138" d="M-10 1196l579 328l580 -328l-25 -45l-557 252l-555 -252z" />
<glyph unicode="_" horiz-adv-x="1579" d="M0 -227h1579v-58h-1579v58z" />
<glyph unicode="`" d="M266 1350q0 34 24 57t54 23q24 0 36 -8t28 -29l249 -310l-39 -43l-309 242q-17 14 -24 21.5t-13 19.5t-6 27z" />
<glyph unicode="a" d="M68 201q0 71 45 140.5t147 119.5q64 30 145 48.5t129.5 23t127.5 8.5v67q0 126 -66.5 192t-155.5 66q-54 0 -115.5 -17.5t-97.5 -53.5q20 -2 45 -17q47 -29 47 -82q0 -41 -26.5 -67.5t-67.5 -26.5q-42 0 -69 26t-27 72q0 96 91 157t224 61q166 0 277 -99q33 -30 53 -58.5 t28 -66t9.5 -64t1.5 -81.5v-359q0 -131 74 -131t74 125v113h57v-115q0 -47 -14 -83t-34.5 -56.5t-46.5 -33.5t-46.5 -17t-38.5 -4q-64 0 -107 45.5t-51 113.5q-12 -26 -32 -51.5t-52.5 -54t-83 -46.5t-109.5 -18q-56 0 -111.5 11.5t-107.5 36t-84 70.5t-32 106zM231 201 q0 -75 56 -123.5t131 -48.5q37 0 76.5 13.5t78.5 41.5t64 81.5t25 123.5v203q-112 -4 -198 -30.5t-135 -68.5t-73.5 -90.5t-24.5 -101.5z" />
<glyph unicode="b" horiz-adv-x="1169" d="M61 1335v64l304 22v-643q113 127 284 127q121 0 224.5 -62t164 -168.5t60.5 -232.5q0 -130 -66.5 -238t-173.5 -167.5t-229 -59.5q-83 0 -156 39.5t-121 108.5l-76 -125h-57v1221q0 74 -27 94t-131 20zM371 238q0 -31 3 -41t25 -43q38 -58 94.5 -91.5t124.5 -33.5 q76 0 137 36.5t101 92.5q66 98 66 286q0 182 -58 275q-41 66 -99 100.5t-124 34.5q-153 0 -248 -127q-17 -24 -19.5 -33.5t-2.5 -40.5v-415z" />
<glyph unicode="c" horiz-adv-x="935" d="M70 442q0 127 59 236t165 174.5t234 65.5q138 0 231 -56.5t93 -148.5q0 -46 -27 -72.5t-69 -26.5q-41 0 -67.5 27t-26.5 68t23.5 65t59.5 31q-35 22 -84 35.5t-78 16.5t-51 3q-50 0 -97 -21t-91.5 -66.5t-71 -130t-26.5 -198.5q0 -108 28 -190.5t73 -128.5t95.5 -68 t102.5 -22q87 0 159 47.5t107 146.5q2 4 4 10.5t3 9t3 6t3 5t2.5 3.5t3 2.5l4.5 1.5t5.5 1h6.5q28 0 28 -24q0 -9 -8 -35t-33 -66.5t-61.5 -76.5t-101.5 -62.5t-146 -26.5q-120 0 -224 61t-167 168.5t-63 235.5z" />
<glyph unicode="d" horiz-adv-x="1169" d="M70 440q0 128 64.5 235.5t172.5 168.5t234 61q23 0 46 -3t42 -8.5t37.5 -13t33 -15t29 -17t24 -17.5t19.5 -16.5t15 -14t11 -10.5l5 -6v437q0 74 -27 94t-131 20v64l303 22v-1243q0 -74 27.5 -94.5t130.5 -20.5v-63l-309 -23v132q-114 -132 -279 -132q-120 0 -223.5 62 t-164 168.5t-60.5 232.5zM246 438q0 -183 57 -274q41 -66 99 -100.5t124 -34.5t130.5 33t109.5 98q23 30 27 42t4 44v413q0 30 -3.5 40t-21.5 34q-83 121 -223 121q-76 0 -137 -36.5t-101 -92.5q-65 -97 -65 -287z" />
<glyph unicode="e" horiz-adv-x="935" d="M59 451q0 192 128 329.5t311 137.5q94 0 168 -33.5t118.5 -91t67 -129t22.5 -152.5q0 -31 -9 -37t-46 -6h-583q0 -60 3 -99t19 -101.5t47 -108.5q37 -56 98 -90.5t132 -34.5q13 0 28 1.5t43.5 7.5t55.5 20.5t56.5 36t55.5 60t43 87.5q5 22 29 22q28 0 28 -26 q0 -16 -11.5 -46t-39.5 -68.5t-66.5 -72t-100 -57t-132.5 -23.5q-124 0 -230.5 61.5t-170.5 171t-64 241.5zM238 518h497q0 94 -20.5 164t-56 109t-75.5 57t-85 18q-22 0 -47 -5.5t-63 -27t-68 -56.5t-53.5 -102.5t-28.5 -156.5z" />
<glyph unicode="f" horiz-adv-x="643" d="M70 819v64h161v235q0 146 100 236t228 90q84 0 137.5 -42.5t53.5 -103.5q0 -41 -26 -66.5t-67 -25.5q-39 0 -64.5 24.5t-25.5 65.5q0 35 16.5 56t37.5 28q-32 13 -62 13q-73 0 -130.5 -74.5t-57.5 -204.5v-231h243v-64h-237v-657q0 -33 3 -47.5t18 -28.5t46.5 -18.5 t87.5 -4.5h41v-63l-260 6q-130 0 -239 -6v63q106 0 131.5 13.5t25.5 81.5v661h-161z" />
<glyph unicode="g" d="M59 -160q0 69 52.5 124t134.5 81q-41 29 -64.5 77.5t-23.5 102.5q0 42 15.5 84.5t27.5 61t18 24.5q-35 33 -64.5 86.5t-29.5 122.5q0 123 98 212t244 89q134 0 221 -74q49 51 110 74t113 23q56 0 83.5 -32.5t27.5 -70.5q0 -30 -18 -46.5t-43 -16.5q-32 0 -47 19.5 t-15 41.5q0 38 27 54q-117 0 -203 -74q84 -96 84 -199q0 -123 -98 -212t-244 -89q-110 0 -209 64q-29 -43 -29 -91q0 -49 27.5 -85.5t71.5 -47.5q11 -4 123 -4q95 0 137 -1t103.5 -7.5t103.5 -21.5t84 -41q55 -35 84.5 -96.5t29.5 -127.5q0 -77 -64 -138.5t-170.5 -94.5 t-232.5 -33q-196 0 -330.5 76.5t-134.5 185.5zM174 -158q0 -87 100.5 -148t251.5 -61q144 0 247.5 61t103.5 148q0 39 -18 69.5t-50.5 48t-64.5 28.5t-74 15.5t-63.5 5.5t-47.5 1h-188q-49 0 -87 -14.5t-58 -35t-32.5 -45.5t-16 -42.5t-3.5 -30.5zM283 604q0 -16 0.5 -28.5 t4 -39.5t10 -48t20 -47t32 -42.5t48.5 -28.5t67 -12q38 0 68 11.5t49 28.5t32.5 42.5t20 46.5t10 48.5t4 39.5t0.5 29t-0.5 29t-4 39.5t-10 48.5t-20 46.5t-32.5 42.5t-49 28.5t-68 11.5q-42 0 -80.5 -20t-62.5 -52q-39 -55 -39 -174z" />
<glyph unicode="h" horiz-adv-x="1169" d="M72 0v63q106 0 131.5 13.5t25.5 81.5v1063q0 39 -4.5 59.5t-22.5 34t-46.5 17t-83.5 3.5v64l303 22v-702h2q102 186 301 186q155 0 227 -84q39 -53 48.5 -108.5t9.5 -192.5v-393q1 -19 8 -31t17 -18.5t33 -10t42 -3.5t57 -1v-63q-109 6 -233 6q-138 0 -234 -6v63 q107 0 132.5 13.5t25.5 81.5v473q0 50 -6 87.5t-21.5 69.5t-45.5 49t-74 17q-51 0 -100 -20.5t-90.5 -59.5t-67 -102.5t-25.5 -141.5v-372q0 -68 25 -81.5t133 -13.5v-63q-109 6 -234 6q-137 0 -233 -6z" />
<glyph unicode="i" horiz-adv-x="585" d="M74 0v63q106 0 131.5 13.5t25.5 81.5v549q0 75 -25 93.5t-124 18.5v64l295 22v-751q0 -44 8 -60.5t36 -23.5t97 -7v-63q-100 6 -219 6q-133 0 -225 -6zM182 1235q0 47 32 79t79 32t78.5 -32t31.5 -79t-31.5 -79t-78.5 -32t-79 32t-32 79z" />
<glyph unicode="j" horiz-adv-x="643" d="M-80 -256q0 42 26 69t70 27q41 0 68 -26.5t27 -67.5q0 -67 -66 -90q49 -25 109 -25q39 0 68.5 22.5t44 53t23 71.5t10 67t1.5 51v809q0 40 -4.5 60t-24.5 33.5t-51.5 17t-93.5 3.5v64l319 22v-1003q0 -140 -83.5 -231t-206.5 -91q-94 0 -165 44.5t-71 119.5zM225 1235 q0 47 32 79t79 32t78.5 -32t31.5 -79t-31.5 -79t-78.5 -32t-79 32t-32 79z" />
<glyph unicode="k" horiz-adv-x="1110" d="M61 0v63q107 0 132.5 13.5t25.5 81.5v1063q0 74 -27 94t-131 20v64l304 22v-977l288 244l5 5q6 5 7.5 6t6.5 6t7 7.5t6.5 8t6.5 9t5 8.5t4.5 10t2.5 10.5t1 11.5q0 45 -56 49v64l225 -6q80 0 152 6v-64q-35 -1 -65 -7.5t-67 -25.5t-60 -32t-73 -53t-74.5 -61l-94.5 -81 l291 -395q49 -66 90 -83.5t100 -17.5v-63q-59 6 -184 6l-221 -6v63q43 0 56 12t13 34q0 15 -7 31t-13 25t-29 42l-199 268l-131 -110v-207q0 -68 25 -81.5t133 -13.5v-63l-227 6z" />
<glyph unicode="l" horiz-adv-x="585" d="M74 0v63q106 0 131.5 13.5t25.5 81.5v1063q0 39 -4.5 59.5t-22.5 34t-46.5 17t-83.5 3.5v64l303 22v-1263q0 -68 25 -81.5t133 -13.5v-63q-100 6 -232 6q-133 0 -229 -6z" />
<glyph unicode="m" horiz-adv-x="1753" d="M72 0v63q106 0 131.5 13.5t25.5 81.5v547q0 39 -4.5 59.5t-22.5 34t-46.5 17t-83.5 3.5v64l297 22v-200h2q38 82 116.5 141t190.5 59q239 0 278 -194q46 88 123.5 141t182.5 53q154 0 219 -74q48 -55 57.5 -108t9.5 -203v-393q0 -16 4.5 -27t15 -18t20.5 -11t31.5 -5.5 t38 -1.5t48.5 -1v-63q-109 6 -233 6q-138 0 -234 -6v63q107 0 132.5 13.5t25.5 81.5v473q0 114 -33.5 168.5t-116.5 54.5q-48 0 -96.5 -20t-90.5 -58.5t-68.5 -102.5t-26.5 -143v-372q0 -25 1.5 -40t9.5 -26.5t15.5 -16.5t30 -8t41 -3t59.5 -1v-63q-109 6 -233 6 q-138 0 -234 -6v63q107 0 132.5 13.5t25.5 81.5v473q0 114 -33 168.5t-116 54.5q-48 0 -96.5 -20t-91 -58.5t-69 -102.5t-26.5 -143v-372q0 -68 25 -81.5t133 -13.5v-63q-109 6 -234 6q-137 0 -233 -6z" />
<glyph unicode="n" horiz-adv-x="1169" d="M72 0v63q106 0 131.5 13.5t25.5 81.5v547q0 39 -4.5 59.5t-22.5 34t-46.5 17t-83.5 3.5v64l297 22v-198h2q104 198 307 198q155 0 227 -84q39 -53 48.5 -108.5t9.5 -192.5v-393q1 -19 8 -31t17 -18.5t33 -10t42 -3.5t57 -1v-63q-109 6 -233 6q-138 0 -234 -6v63 q107 0 132.5 13.5t25.5 81.5v473q0 50 -6 87.5t-21.5 69.5t-45.5 49t-74 17q-51 0 -100 -20.5t-90.5 -59.5t-67 -102.5t-25.5 -141.5v-372q0 -68 25 -81.5t133 -13.5v-63q-109 6 -234 6q-137 0 -233 -6z" />
<glyph unicode="o" d="M59 436q0 129 62 240t170 176.5t235 65.5q191 0 328 -141t137 -341q0 -125 -62 -230.5t-169.5 -167t-235.5 -61.5q-191 0 -328 134t-137 325zM236 455q0 -65 2 -101.5t14.5 -91.5t38.5 -96q36 -61 97 -96t138 -35q71 0 134 33.5t104 101.5q23 41 35.5 100t14 94.5 t1.5 90.5q0 57 -2 93.5t-13.5 89t-33.5 93.5q-33 59 -96 97t-146 38q-65 0 -129.5 -32t-107.5 -103q-23 -39 -35.5 -95.5t-14 -91t-1.5 -89.5z" />
<glyph unicode="p" horiz-adv-x="1169" d="M61 -334q107 0 132.5 13t25.5 81v959q0 36 -3.5 53t-21.5 29.5t-46.5 15t-86.5 2.5v64l304 22v-129q123 129 290 129q182 0 312.5 -135t130.5 -328q0 -130 -66.5 -238t-173.5 -167.5t-229 -59.5q-49 0 -89 10t-72.5 31t-50.5 36.5t-46 43.5v-338q0 -68 24.5 -81 t132.5 -13v-63q-109 6 -233 6q-138 0 -234 -6v63zM371 238q0 -31 3.5 -43t22.5 -41q39 -57 96 -91t123 -34q126 0 216 119t90 294q0 166 -82 286t-201 120q-75 0 -146.5 -38t-121.5 -122v-450z" />
<glyph unicode="q" horiz-adv-x="1110" d="M70 440q0 130 66 238t172.5 167.5t226.5 59.5q34 0 63 -5.5t68.5 -22.5t78.5 -55.5t74 -96.5l78 180h51v-1145q0 -19 0.5 -31.5t5 -23t7.5 -16.5t15 -11t19.5 -7t28.5 -3.5t35.5 -1.5h46.5v-63q-109 6 -234 6q-137 0 -233 -6v63q107 0 132.5 13t25.5 81v361 q-112 -144 -279 -144q-118 0 -221 61t-165 168t-62 234zM246 440q0 -172 82 -291.5t198 -119.5q79 0 142.5 42t103.5 111q16 27 22.5 44t7.5 25t1 32v282q0 59 -29.5 123t-90 112t-134.5 48q-121 0 -212 -117t-91 -291z" />
<glyph unicode="r" horiz-adv-x="823" d="M61 0v63q107 0 132.5 13.5t25.5 81.5v547q0 74 -27 94t-131 20v64l291 22v-213h2q36 100 101 156.5t155 56.5q67 0 110.5 -38t43.5 -89q0 -44 -27 -68t-63 -24q-37 0 -63.5 25t-26.5 65q0 22 8.5 40.5t16 26t12.5 9.5v2q-49 0 -88.5 -17.5t-65.5 -44t-45.5 -64t-30 -72.5 t-17 -74.5t-8 -64.5t-1.5 -48v-307q0 -33 3 -47.5t18 -28.5t46.5 -18.5t87.5 -4.5h41v-63l-260 6q-131 0 -240 -6z" />
<glyph unicode="s" horiz-adv-x="829" d="M70 31v262v9q0 19 1 26.5t7 12.5t20 5q17 0 22.5 -6.5t10.5 -26.5q8 -40 18.5 -73t33 -74.5t51.5 -69.5t77 -47.5t107 -19.5q11 0 21.5 0.5t36 4t46.5 9.5t46.5 19.5t43 32t29.5 48t12 66.5q0 84 -71 133q-10 8 -18.5 13.5t-20.5 10.5t-19 7.5t-25 7t-26.5 6.5t-35 7.5 t-40.5 8.5q-93 16 -148 35t-104 62q-75 75 -75 164q0 34 9 67t32.5 68t60.5 60.5t97.5 42t138.5 16.5q118 0 196 -58q7 5 35 33q27 25 41 25q17 0 21 -11.5t5 -42.5v-196q0 -41 -8 -48q-6 -6 -22 -6q-13 0 -19 5t-7.5 10.5t-2.5 21.5q-10 81 -35 123q-57 98 -204 98 q-126 0 -180 -45t-54 -106q0 -116 203 -154q126 -22 186 -43t109 -67q86 -86 86 -195q0 -54 -18 -102.5t-56 -90.5t-106.5 -67t-159.5 -25q-137 0 -232 91q-29 -29 -41 -50l-12.5 -12.5l-10 -10t-7 -7.5t-5.5 -5.5l-4 -3t-4 -2t-3.5 -0.5h-4.5q-12 0 -17.5 7.5t-6 15.5 t-0.5 31z" />
<glyph unicode="t" horiz-adv-x="819" d="M39 819v51q57 2 103.5 26.5t77.5 63.5t52 90t30 103.5t9 106.5h58v-377h297v-64h-297v-567q0 -14 0.5 -24.5t3 -35t7 -43t15 -41t24.5 -37.5t36.5 -25.5t50.5 -10.5q59 0 98 57.5t39 167.5v111h57v-117q0 -116 -55 -196.5t-153 -80.5q-36 0 -70.5 6.5t-73 25.5 t-66.5 48.5t-46.5 80t-18.5 116.5v565h-178z" />
<glyph unicode="u" horiz-adv-x="1169" d="M72 819v64l309 22v-678q0 -39 2.5 -63.5t12 -53t28.5 -44.5t53 -26.5t84 -10.5q110 0 180 88t70 225v363q0 74 -27 94t-131 20v64l310 22v-727q0 -52 11 -74.5t42.5 -31.5t103.5 -9v-63l-303 -23v170h-2q-82 -170 -266 -170q-144 0 -225 56q-64 49 -79.5 110t-15.5 181 v307v49.5t-1.5 39t-2.5 32t-6 23t-9 18.5t-14.5 11t-19.5 8.5t-27 3.5t-34 3h-43z" />
<glyph unicode="v" horiz-adv-x="1110" d="M41 819v64q74 -6 205 -6q137 0 225 6v-64q-22 0 -35.5 -1t-34.5 -5.5t-32 -16t-11 -30.5q0 -13 11 -39l233 -559l213 516q10 29 10 47q0 82 -94 88v64q57 -6 178 -6h56q71 0 102 6v-64q-62 -2 -109 -30.5t-77 -100.5l-279 -672q-16 -39 -49 -39q-30 0 -47 39l-299 727 q-23 53 -53.5 64.5t-112.5 11.5z" />
<glyph unicode="w" horiz-adv-x="1519" d="M41 819v64q72 -6 197 -6l223 6v-64q-119 0 -119 -55q0 -16 12 -43l195 -533l168 461l10 29q0 6 -17 50.5t-28 59.5q-16 21 -43 26t-86 5v64q66 -6 188 -6q115 0 211 6v-64q-116 0 -116 -57q0 -12 10 -39l207 -561l188 512q10 23 10 47q0 37 -28 67t-88 31v64 q82 -6 188 -6q72 0 154 6v-64q-126 0 -172 -135l-244 -666q-5 -15 -8.5 -21.5t-12.5 -13t-24 -6.5t-24.5 6.5t-13.5 14.5t-9 22l-211 574l-209 -574q-5 -14 -9 -22t-13.5 -14.5t-24.5 -6.5q-11 0 -18.5 2.5t-13.5 12t-7.5 13t-7.5 18.5l-265 722q-20 51 -45.5 62.5 t-103.5 11.5z" />
<glyph unicode="x" horiz-adv-x="1110" d="M29 0v63q156 0 262 127l198 240l-210 264q-27 36 -40 52.5t-33 34t-29.5 22.5t-34 10.5t-43 5.5h-60.5v64q39 -6 131 -6h70q143 0 223 6v-64q-33 -1 -51.5 -16t-18.5 -35q0 -13 19 -37l159 -203l131 162q1 1 5.5 7.5t6.5 9.5t6 10t6 12t3.5 13t1.5 16q0 50 -57 61v64 q82 -6 196 -6q115 0 174 6v-64q-88 -1 -147 -31.5t-111 -89.5q-12 -12 -94 -114q-67 -84 -82 -101l2 -4q2 -7 13 -18l268 -340q32 -39 72.5 -48.5t115.5 -9.5v-63q-123 6 -131 6h-69q-51 0 -127.5 -3t-96.5 -3v63q34 1 52 17t18 35q0 11 -5 18.5t-34 42.5l-162 207 q-18 -23 -71.5 -86.5t-81.5 -99.5q-31 -39 -31 -72q0 -55 57 -62v-63q-99 6 -196 6q-115 0 -174 -6z" />
<glyph unicode="y" horiz-adv-x="1110" d="M41 -252q0 41 24.5 64.5t63.5 23.5q37 0 61.5 -23t24.5 -63q0 -45 -26.5 -66.5t-47.5 -21.5q9 -9 34 -20t58 -11q38 0 72 16t57 39t45.5 59.5t35 65t28.5 68.5l51 121l-323 760q-18 39 -49 49t-107 10v64q80 -6 203 -6l227 6v-64q-23 0 -37 -1t-34.5 -5.5t-31 -16 t-10.5 -30.5q0 -6 2 -10q4 -18 11 -33l229 -537l207 488q16 32 16 59q0 6 -0.5 12t-5.5 20t-14 24t-28.5 19t-45.5 11v64q57 -6 178 -6q90 0 156 6v-64q-46 -2 -81 -15.5t-56 -37.5t-31.5 -42t-22.5 -46l-370 -866q-43 -99 -111.5 -165.5t-159.5 -66.5q-79 0 -135.5 49.5 t-56.5 118.5z" />
<glyph unicode="z" horiz-adv-x="935" d="M59 33q0 13 19 37l577 761h-229q-86 0 -139 -14.5t-83.5 -51t-42.5 -86t-16 -132.5h-57l23 336h673q22 0 31 -1t17 -8t8 -22q0 -11 -19 -35l-575 -760h239q55 0 96.5 7t71.5 18t51.5 34t35 45.5t23 62t14.5 74t11 91.5h58l-35 -389h-696q-15 0 -21.5 0.5t-15 2t-11.5 5 t-5.5 9.5t-2.5 16z" />
<glyph unicode="{" d="M150 512q0 27 26 27q131 7 205 71q51 47 61.5 92t10.5 177v401q0 109 118 182.5t287 73.5q16 0 23 -1t13.5 -7t6.5 -19q0 -21 -20 -24q-3 0 -21.5 -2t-25 -3t-24.5 -4t-28 -6t-27.5 -8.5t-30 -12.5t-28.5 -17.5t-30 -22.5q-49 -44 -58.5 -89.5t-9.5 -203.5v-307 q0 -32 -1.5 -50.5t-7.5 -51.5t-21 -56t-40 -50t-68 -49.5t-100 -39.5q205 -60 236 -213q0 -3 1 -73.5t1 -104.5v-307q0 -78 6 -103q23 -77 92.5 -121.5t169.5 -50.5q11 0 17.5 -1t12 -6.5t5.5 -16.5q0 -13 -6.5 -19t-13.5 -7t-23 -1q-58 0 -136.5 15t-143.5 55 q-36 22 -61 47.5t-37.5 46t-18.5 50t-7 47t-1 50.5v406v32v23v15t-0.5 11.5l-1 7t-2.5 7.5q-21 81 -92 130.5t-181 53.5q-26 0 -26 27z" />
<glyph unicode="|" horiz-adv-x="585" d="M248 -440v1904v21t2 18t6.5 18t13.5 10t23 5q15 0 24.5 -6t13 -19t4.5 -22t1 -25v-1904q0 -16 -1 -25t-4.5 -22t-13 -19t-24.5 -6q-14 0 -23 5t-13.5 10t-6.5 18t-2 18v21z" />
<glyph unicode="}" d="M150 -485q0 21 20 24q136 5 215 76q49 44 58.5 89.5t9.5 203.5v307v33t2 33.5t6 36.5t12 35.5t19.5 37t29.5 33.5t41 33t55.5 29t71.5 26q-204 60 -235 213q0 3 -1 73.5t-1 104.5v307q0 74 -7 103q-23 77 -92.5 121.5t-169.5 50.5q-2 0 -6 0.5t-5.5 0.5t-5 1t-5 1.5 t-4 1.5t-3.5 3t-2.5 4t-2 5t-0.5 7q0 13 7 19t14.5 7t23.5 1q29 0 66.5 -3.5t101.5 -20.5t110 -46q36 -22 61 -47.5t37.5 -46t18.5 -50t7 -47t1 -50.5v-406v-32v-23v-15t0.5 -11.5l1 -7t2.5 -7.5q21 -81 91.5 -130.5t180.5 -53.5q27 0 27 -27t-27 -27q-130 -7 -204 -71 q-51 -47 -61.5 -92t-10.5 -177v-401q0 -71 -56.5 -130.5t-149 -92.5t-197.5 -33q-16 0 -23.5 1t-14.5 7t-7 19z" />
<glyph unicode="~" horiz-adv-x="1138" d="M0 430l111 90q12 11 28 21.5t27 17t31.5 17.5t29.5 16q76 37 150 37q38 0 77.5 -11.5t65 -24t62.5 -34.5q49 -28 72 -39.5t63 -24t78 -12.5q139 0 313 146l29 -35l-111 -90q-12 -11 -28 -21.5t-27.5 -17t-31.5 -17.5t-30 -16q-76 -37 -149 -37q-38 0 -77.5 11.5t-65 24 t-62.5 34.5q-49 28 -72 39.5t-63 24t-78 12.5q-139 0 -313 -146z" />
<glyph unicode="&#xa0;" />
<glyph unicode="&#xa1;" horiz-adv-x="585" d="M180 -336l80 930q1 18 3 25.5t8.5 12.5t19.5 5q19 0 24 -8.5t7 -34.5l77 -907l2 -23q0 -50 -34 -78t-76 -28t-76.5 28t-34.5 78zM180 913q0 47 32 79t79 32t78.5 -32t31.5 -79t-31.5 -78.5t-78.5 -31.5t-79 31.5t-32 78.5z" />
<glyph unicode="&#xa2;" horiz-adv-x="935" d="M70 442q0 182 117.5 319t295.5 154v29q0 12 9.5 21.5t21.5 9.5q13 0 22 -9.5t9 -21.5v-26q134 -5 220.5 -59.5t86.5 -145.5q0 -46 -27 -72.5t-69 -26.5q-41 0 -67.5 27t-26.5 68t23.5 65t59.5 31q-70 49 -200 55v-825q87 0 159 47.5t107 146.5q2 4 4 10.5t3 9t3 6t3 5 t2.5 3.5t3 2.5l4.5 1.5t5.5 1h6.5q28 0 28 -24q0 -8 -7.5 -33t-31 -65t-57.5 -75.5t-95.5 -63t-137.5 -30.5v-38q0 -12 -9 -21.5t-22 -9.5q-12 0 -21.5 9.5t-9.5 21.5v41q-172 18 -292.5 147.5t-120.5 314.5zM246 444q0 -92 20 -166t55 -120.5t75.5 -75t86.5 -39.5v813 q-46 -11 -85.5 -37t-75 -72.5t-56 -124t-20.5 -178.5z" />
<glyph unicode="&#xa3;" horiz-adv-x="1579" d="M129 170q0 98 90.5 156.5t214.5 58.5q93 0 199 -59q-11 87 -62 344h-321v61h311q-12 74 -12 152q0 134 46.5 250.5t138.5 191t210 74.5q142 0 245 -91.5t103 -224.5q0 -38 -28 -66t-66 -28q-41 0 -67.5 27.5t-26.5 66.5t27 67t67 28q14 0 16 -2q-31 75 -104.5 120 t-165.5 45q-68 0 -117.5 -39.5t-76 -107.5t-38.5 -145t-12 -166q0 -62 11 -152h327v-61h-319q6 -39 25.5 -140.5t29 -173t10.5 -141.5q57 -45 85.5 -65.5t79 -51.5t96.5 -44t96 -13q104 0 178 74t74 180h57q0 -96 -22 -177t-74 -136.5t-127 -55.5q-33 0 -66.5 7t-58 13.5 t-60.5 27t-52.5 29.5t-56 39.5t-49.5 38t-54 45t-50 42.5q-10 -57 -50.5 -99.5t-103 -66.5t-133.5 -35.5t-151 -11.5q-91 0 -152 62t-61 153zM186 170q0 -66 45 -112t111 -46q120 0 207.5 62.5t87.5 163.5v32q-104 58 -203 58q-101 0 -174.5 -40.5t-73.5 -117.5z" />
<glyph unicode="&#xa4;" horiz-adv-x="1636" d="M308.5 40q-2.5 11 4 22.5t12 18.5t17.5 19l154 154q-90 110 -90 258q0 144 92 260l-156 156q-12 12 -17.5 19t-12 18.5t-4 22.5t13.5 22t22 13.5t22 -3.5t18.5 -12.5t18.5 -18.5l156 -155q116 92 260 92q140 0 258 -90l154 153q12 12 18.5 17.5t18.5 12.5t23 4t22 -15 q11 -11 13.5 -22t-4.5 -23t-12.5 -18.5t-17.5 -18.5l-153 -154q94 -115 94 -260q0 -142 -92 -258l153 -154q12 -12 17.5 -18.5t12.5 -18.5t4.5 -23t-13.5 -22q-12 -12 -23 -15t-23 4t-17.5 12t-18.5 18l-154 153q-116 -92 -260 -92q-146 0 -262 92l-154 -153 q-13 -13 -19 -18t-18 -12t-22.5 -4t-21.5 15q-11 11 -13.5 22zM492 512q0 -135 95.5 -231.5t231.5 -96.5q135 0 231.5 96.5t96.5 231.5t-96.5 231.5t-231.5 96.5q-136 0 -231.5 -96.5t-95.5 -231.5z" />
<glyph unicode="&#xa5;" horiz-adv-x="1579" d="M27 1335v64l270 -6q215 0 297 6v-64q-30 0 -49.5 -1t-42.5 -5.5t-35 -16t-12 -28.5q0 -11 18 -41l350 -545h70l315 498q21 33 23 49v10q0 36 -29.5 58t-83.5 22v64l232 -6q128 0 200 6v-64q-183 0 -266 -141l-317 -496h297v-61h-336l-49 -78v-172h385v-61h-385v-166 q0 -42 7.5 -59.5t42 -27.5t111.5 -10h47v-63q-98 6 -299 6q-200 0 -296 -6v63h47q48 0 77.5 4t47 9t25.5 19.5t9.5 27t1.5 39.5v164h-385v61h385v172l-49 78h-336v61h295l-360 564q-31 44 -65.5 58.5t-123.5 14.5h-34z" />
<glyph unicode="&#xa6;" horiz-adv-x="585" d="M248 322q0 30 45 30q43 0 43 -30v-762q0 -16 -1 -25t-4.5 -22t-13 -19t-24.5 -6q-14 0 -23 5t-13.5 10t-6.5 18t-2 18v21v762zM248 702v762v21t2 18t6.5 18t13.5 10t23 5q15 0 24.5 -6t13 -19t4.5 -22t1 -25v-762q0 -30 -43 -30q-45 0 -45 30z" />
<glyph unicode="&#xa7;" horiz-adv-x="1021" d="M78 627q0 141 168 237q-84 104 -84 240q0 149 100.5 254.5t247.5 105.5q90 0 162.5 -54t111.5 -140.5t39 -186.5q0 -38 -28 -66t-66 -28t-66 28t-28 66t28 66.5t66 28.5q19 0 23 -2q-25 84 -90.5 137t-151.5 53q-96 0 -158.5 -78t-62.5 -184q0 -78 54.5 -140.5 t139.5 -105.5l189 -100q120 -62 195 -155t75 -206q0 -141 -168 -237q84 -110 84 -240q0 -149 -100.5 -254.5t-247.5 -105.5q-90 0 -162.5 54t-111.5 140.5t-39 186.5q0 38 28 66t66 28t66 -28t28 -66t-28 -66.5t-66 -28.5q-19 0 -23 2q25 -84 90.5 -137t151.5 -53 q96 0 158.5 78t62.5 184q0 139 -194 246l-189 100q-120 62 -195 155t-75 206zM242 627q0 -136 176 -226l188 -100q78 -45 127 -94q45 54 45 190t-176 226l-188 100q-60 32 -127 92q-45 -54 -45 -188z" />
<glyph unicode="&#xa8;" d="M246 1237q0 41 29.5 69.5t70.5 28.5t69.5 -28.5t28.5 -69.5t-28.5 -70.5t-69.5 -29.5t-70.5 29.5t-29.5 70.5zM610 1237q0 41 29.5 69.5t71.5 28.5q41 0 69.5 -28.5t28.5 -69.5t-28.5 -70.5t-69.5 -29.5t-71 29.5t-30 70.5z" />
<glyph unicode="&#xa9;" horiz-adv-x="1398" d="M0 700q0 142 55.5 271.5t149.5 223t223.5 149t271.5 55.5t271.5 -55.5t223 -149t149 -223t55.5 -271.5t-55.5 -271.5t-149 -223.5t-223 -149.5t-271.5 -55.5t-271.5 55.5t-223.5 149.5t-149.5 223.5t-55.5 271.5zM86 700q0 -167 82 -308.5t223.5 -223.5t308.5 -82 q125 0 238 48.5t195.5 130.5t131 196t48.5 239q0 124 -48.5 238t-130.5 196t-196 130.5t-238 48.5q-125 0 -239 -48.5t-196 -131t-130.5 -195.5t-48.5 -238zM315 700q0 165 116.5 281.5t277.5 116.5q112 0 206 -94l58 81q10 13 16 13q10 0 12.5 -5.5t2.5 -23.5v-256 q0 -18 -3 -23.5t-16 -5.5q-5 0 -8 1.5t-4 3.5t-3 7.5t-3 8.5q-19 127 -89.5 193.5t-160.5 66.5q-31 0 -65 -8.5t-76 -33.5t-74 -63.5t-54 -106t-22 -153.5q0 -87 22 -155t54 -106t74.5 -62.5t76.5 -32.5t66 -8q59 0 113.5 26t95 84t45.5 138q0 16 14 16q17 0 17 -20 q0 -104 -83.5 -191.5t-211.5 -87.5q-160 0 -277 116t-117 283z" />
<glyph unicode="&#xaa;" horiz-adv-x="946" d="M74 942q0 49 38.5 98.5t123.5 83.5q50 20 112.5 33t103 16.5t103.5 7.5h6t5.5 0.5t6.5 0.5v47q0 87 -55.5 133.5t-130.5 46.5q-45 0 -95.5 -12.5t-82.5 -38.5q27 -4 37 -10q39 -22 39 -58q0 -29 -21.5 -47t-56.5 -18q-37 0 -59.5 16.5t-22.5 50.5q0 67 77 109.5t189 42.5 q141 0 232 -68q23 -18 38 -36t23 -32t11.5 -37.5t4 -37.5t0.5 -47v-250q0 -92 62 -92q27 0 42 20.5t17 36t2 31.5v78h49v-80q0 -40 -17 -69t-43 -42t-48.5 -18.5t-42.5 -5.5q-54 0 -90.5 32t-42.5 78q-11 -18 -27 -35.5t-43.5 -38t-69.5 -33t-92 -12.5q-64 0 -125 14 t-109 51t-48 91zM104 705q0 8 9.5 14t21.5 6h676q12 0 21.5 -6t9.5 -14q0 -10 -9 -16.5t-22 -6.5h-676q-13 0 -22 6.5t-9 16.5zM211 942q0 -52 47 -85.5t111 -33.5q24 0 50.5 5.5t54 19t49.5 33.5t36 52t14 71v143q-185 -7 -273.5 -65t-88.5 -140z" />
<glyph unicode="&#xab;" horiz-adv-x="1169" d="M233 496q0 9 7 16q201 198 297 463q3 14 20 14h6q23 0 23 -22v-4q-57 -241 -197 -467q141 -230 197 -467v-6q0 -23 -23 -23h-6q-17 0 -20 14q-94 265 -297 465q-7 7 -7 17zM584 496q0 10 6 16q201 198 297 463q3 14 20 14h6q23 0 23 -22v-4q-57 -241 -197 -467 q141 -230 197 -467v-6q0 -23 -23 -23h-6q-17 0 -20 14q-94 265 -297 465q-6 6 -6 17z" />
<glyph unicode="&#xac;" horiz-adv-x="1636" d="M117 723q0 19 12 31t31 12h1315q19 0 31 -12t12 -31v-420q0 -19 -12 -31t-31 -12t-31 12t-12 31v377h-1272q-19 0 -31 12t-12 31z" />
<glyph unicode="&#xad;" horiz-adv-x="702" d="M23 379v127h561v-127h-561z" />
<glyph unicode="&#xae;" horiz-adv-x="1398" d="M0 700q0 142 55.5 271.5t149.5 223t223.5 149t271.5 55.5t271.5 -55.5t223 -149t149 -223t55.5 -271.5t-55.5 -271.5t-149 -223.5t-223 -149.5t-271.5 -55.5t-271.5 55.5t-223.5 149.5t-149.5 223.5t-55.5 271.5zM86 700q0 -167 82 -308.5t223.5 -223.5t308.5 -82 q125 0 238 48.5t195.5 130.5t131 196t48.5 239q0 124 -48.5 238t-130.5 196t-196 130.5t-238 48.5q-125 0 -239 -48.5t-196 -131t-130.5 -195.5t-48.5 -238zM340 338v33h25q60 0 74 10t14 43v575q0 33 -14 43.5t-74 10.5h-25v32h350q123 0 208 -57t85 -139q0 -63 -52 -109 t-136 -71q35 -11 60.5 -28t38.5 -31t22 -40.5t11 -38t7 -43.5q22 -134 27 -147q18 -41 55 -41q66 0 74 96q4 15 9 18q3 1 7 1q14 0 14 -21q0 -13 -4.5 -30.5t-15 -39.5t-33.5 -36.5t-55 -14.5q-78 0 -129 41q-26 19 -38.5 46.5t-14 48t-1.5 67.5q0 65 -4.5 86t-27.5 49 q-47 47 -119 47h-131v-274q0 -24 4 -33.5t22.5 -14.5t61.5 -5h24v-33l-159 2zM547 725h127q198 0 198 164q0 46 -16.5 79t-38 49t-58 24.5t-59.5 10t-61 1.5q-60 0 -70 -2q-16 -4 -19 -11t-3 -32v-283z" />
<glyph unicode="&#xaf;" d="M145 1200v72h760v-72h-760z" />
<glyph unicode="&#xb0;" horiz-adv-x="788" d="M102 1108q0 120 85 205.5t208 85.5q121 0 206 -85.5t85 -205.5q0 -123 -84.5 -208t-206.5 -85q-123 0 -208 85t-85 208zM188 1108q0 -86 60.5 -146.5t146.5 -60.5q85 0 145 60.5t60 146.5t-59.5 145.5t-145.5 59.5t-146.5 -60t-60.5 -145z" />
<glyph unicode="&#xb1;" horiz-adv-x="1636" d="M117 45q0 15 6 24.5t18.5 13t21.5 4.5t25 1h586v569h-586h-14.5t-13.5 0.5t-14 2t-11 5t-10.5 8t-5 12t-2.5 17.5q0 15 6 24.5t18.5 13t21.5 4.5t25 1h586v586q0 16 1 25t4.5 22t13 19t24.5 6q14 0 23 -5t13.5 -10t6.5 -18t2 -18v-21v-586h584h21t18 -2t18 -6.5t10 -13.5 t5 -23q0 -15 -6 -24.5t-19 -13t-22 -4.5t-25 -1h-584v-569h584h21t18 -2t18 -6.5t10 -13.5t5 -23q0 -15 -6 -24.5t-19 -13t-22 -4.5t-25 -1h-1258h-14.5t-13.5 0.5t-14 2t-11 5t-10.5 8t-5 12t-2.5 17.5z" />
<glyph unicode="&#xb2;" horiz-adv-x="755" d="M76 627q0 23 2 27.5t14 15.5l268 243q2 2 22 21t25 24t24 23.5t25.5 27t22.5 27.5t22.5 31t17 30.5t15 34t8 34.5t3.5 38q0 35 -11 69t-33 65t-62.5 50t-94.5 19q-66 0 -125 -32.5t-84 -94.5q2 2 17 2q35 0 56 -18t21 -47q0 -30 -24.5 -47t-52.5 -17q-10 0 -25 4t-33 21 t-18 43q0 88 80.5 155.5t203.5 67.5q137 0 229.5 -67.5t92.5 -172.5q0 -46 -15 -82t-57 -77.5t-92 -80.5t-144 -107q-16 -11 -24 -17l-147 -115h264q129 0 139 10q11 16 22 55t11 54h43l-43 -217h-563z" />
<glyph unicode="&#xb3;" horiz-adv-x="755" d="M63 793q0 38 24 54.5t58 16.5q32 0 55 -18.5t23 -48.5q0 -31 -27 -50.5t-67 -15.5q30 -41 87 -65.5t91 -28.5t60 -4q69 0 122.5 48t53.5 155q0 93 -45.5 147.5t-139.5 54.5h-69q-21 0 -29 3t-8 14q0 7 3.5 10t7.5 3.5t13 0.5q28 0 54 4q28 1 45 4t44.5 17t49.5 39 q45 54 45 143q0 25 -6 46t-20 43t-44.5 35t-74.5 13q-58 0 -115.5 -20t-85.5 -56q86 0 86 -61q0 -26 -21 -44t-53 -18q-33 0 -54.5 17.5t-21.5 46.5q0 72 76 119t193 47q116 0 197 -49.5t81 -118.5q0 -68 -50.5 -127t-149.5 -90q106 -20 173.5 -82t67.5 -141 q0 -96 -92.5 -166t-228.5 -70q-128 0 -218 56t-90 137z" />
<glyph unicode="&#xb4;" d="M395 1083l250 310q11 14 17 20.5t18 11.5t29 5q30 0 53.5 -23t23.5 -57q0 -15 -6 -27t-13 -19.5t-24 -21.5l-309 -242z" />
<glyph unicode="&#xb5;" horiz-adv-x="1169" d="M72 -334q102 0 124 9q28 11 32 56q1 13 1 33v934q0 56 -10 78.5t-41 31.5t-106 9v64l309 22v-674q0 -39 2 -62.5t12 -53t28.5 -45.5t53 -27.5t84.5 -11.5q108 0 179 86t71 229v354q0 42 -4 63t-22 35t-46.5 17.5t-85.5 3.5v64l310 22v-721q0 -56 10 -78.5t41 -31.5 t106 -9v-63l-303 -23v170h-2q-86 -170 -266 -170q-97 0 -168 27v-240q0 -26 1.5 -41.5t9.5 -27.5t14.5 -17t28.5 -8t39 -3.5t57 -0.5h8v-63l-234 6q-147 0 -233 -6v63z" />
<glyph unicode="&#xb6;" horiz-adv-x="1286" d="M117 944q0 133 73.5 244t193.5 172t257 61h512h21t18 -2t18 -6.5t10 -13.5t5 -23q0 -15 -6 -24.5t-19 -13t-22 -4.5t-25 -1h-104v-1659q0 -16 -1 -25t-4.5 -21.5t-13 -18.5t-24.5 -6q-14 0 -23 5t-13.5 10t-6.5 17.5t-2 17.5v21v1659h-148v-1659q0 -16 -1 -25t-4.5 -21.5 t-13 -18.5t-24.5 -6q-14 0 -23 5t-13.5 10t-6.5 17.5t-2 17.5v21v793q-84 3 -167 22t-163.5 58t-141.5 92.5t-98.5 132.5t-37.5 172z" />
<glyph unicode="&#xb7;" horiz-adv-x="1636" d="M709 700q0 45 32 78t78 33q47 0 79 -33t32 -78q0 -47 -32 -78.5t-79 -31.5t-78.5 31.5t-31.5 78.5z" />
<glyph unicode="&#xb8;" horiz-adv-x="935" d="M186 -352h29q53 0 82 0.5t78.5 2.5t77.5 7t59 13.5t45 23t14 33.5q0 79 -161 79v203h114v-145q91 0 157.5 -35t66.5 -102q0 -20 -7.5 -37t-24 -30t-34.5 -23.5t-47.5 -17.5t-54 -12.5t-63 -8.5t-65.5 -5t-70.5 -3t-68.5 -1h-69h-58v58z" />
<glyph unicode="&#xb9;" horiz-adv-x="774" d="M137 1327v39q179 0 273 78q29 0 34 -4.5t5 -28.5v-686q0 -26 6.5 -36.5t37 -17.5t97.5 -7h47v-37q-37 4 -246 4q-211 0 -246 -4v37h48q67 0 97.5 7t37 17.5t6.5 36.5v635q-80 -33 -197 -33z" />
<glyph unicode="&#xba;" horiz-adv-x="882" d="M49 1108q0 137 115 236.5t278 99.5q160 0 276 -98t116 -238q0 -131 -115.5 -226.5t-278.5 -95.5q-160 0 -275.5 94t-115.5 228zM80 705q0 8 9.5 14t21.5 6h661q12 0 21.5 -6t9.5 -14q0 -10 -9 -16.5t-22 -6.5h-661q-13 0 -22 6.5t-9 16.5zM199 1120q0 -48 1 -70.5 t11.5 -62.5t32.5 -69q68 -91 198 -91q58 0 111.5 24t87.5 71q43 63 43 198q0 129 -41 195q-30 40 -82.5 67t-120.5 27q-55 0 -109 -22t-89 -72q-43 -59 -43 -195z" />
<glyph unicode="&#xbb;" horiz-adv-x="1169" d="M233 23v6q56 237 197 467q-140 226 -197 467v4q0 22 23 22h6q18 0 21 -14q96 -265 297 -463q6 -6 6 -16q0 -11 -6 -17q-203 -200 -297 -465q-3 -14 -21 -14h-6q-23 0 -23 23zM584 23v6q57 240 196 467q-139 224 -196 467v4q0 22 22 22h6q18 0 21 -14q96 -265 297 -463 q6 -6 6 -16q0 -11 -6 -17q-203 -200 -297 -465q-3 -14 -21 -14h-6q-22 0 -22 23z" />
<glyph unicode="&#xbc;" horiz-adv-x="1736" d="M137 1327v39q179 0 273 78q29 0 34 -4.5t5 -28.5v-686q0 -26 6.5 -36.5t37 -17.5t97.5 -7h47v-37q-37 4 -246 4q-211 0 -246 -4v37h48q67 0 97.5 7t37 17.5t6.5 36.5v635q-80 -33 -197 -33zM492 41q0 13 6 22l841 1319q16 19 37 19q18 0 30.5 -12.5t12.5 -30.5 q0 -14 -6 -23l-844 -1317q-9 -20 -34 -20q-19 0 -31 12t-12 31zM928 203v39l461 571q10 13 14.5 15.5t17.5 2.5q19 0 23 -5.5t4 -26.5v-557h151v-39h-151v-107q0 -35 19.5 -46t97.5 -11h30v-39l-204 4l-207 -4v39h33q55 0 79.5 6t29.5 16t5 35v107h-403zM975 242h364v454z " />
<glyph unicode="&#xbd;" horiz-adv-x="1736" d="M137 1327v39q179 0 273 78q29 0 34 -4.5t5 -28.5v-686q0 -26 6.5 -36.5t37 -17.5t97.5 -7h47v-37q-37 4 -246 4q-211 0 -246 -4v37h48q67 0 97.5 7t37 17.5t6.5 36.5v635q-80 -33 -197 -33zM403 41q0 10 9 22l841 1319q9 19 35 19q19 0 31 -12t12 -31q0 -14 -6 -23 l-842 -1317q-14 -20 -37 -20q-18 0 -30.5 12.5t-12.5 30.5zM993 0q0 23 2.5 28.5t14.5 16.5l270 242q37 34 60 57t56.5 63.5t50.5 84t17 88.5q0 34 -11 67t-33.5 64t-63.5 50t-94 19q-66 0 -125 -32.5t-84 -94.5q4 2 16 2q35 0 56.5 -17t21.5 -46q0 -32 -24.5 -49t-53.5 -17 q-10 0 -25 4t-33 21t-18 43q0 89 81 157t204 68q137 0 229 -67t92 -172q0 -21 -4 -40.5t-9 -36t-20 -36.5t-24.5 -33.5t-36.5 -37.5t-42.5 -37.5t-55.5 -43.5t-63 -46.5t-76 -55.5l-146 -115h262q129 0 140 11q8 10 15 32t13 47t7 29h40l-40 -217h-566z" />
<glyph unicode="&#xbe;" horiz-adv-x="1736" d="M127 793q0 38 24 54.5t58 16.5q32 0 55 -18.5t23 -48.5q0 -31 -27 -50.5t-67 -15.5q23 -32 60 -53.5t75.5 -30t61.5 -11.5t40 -3q69 0 122.5 48t53.5 155q0 93 -45 147.5t-139 54.5h-70q-21 0 -29 3t-8 14q0 14 25 14q27 0 53 4q28 1 45 4t44.5 17t49.5 39q46 55 46 143 q0 55 -32 96t-114 41q-58 0 -115.5 -20t-85.5 -56q86 0 86 -61q0 -27 -20.5 -44.5t-52.5 -17.5q-33 0 -54.5 17.5t-21.5 46.5q0 72 75.5 119t192.5 47q116 0 197.5 -49.5t81.5 -118.5q0 -67 -51 -126.5t-150 -90.5q107 -20 174.5 -82t67.5 -141q0 -95 -93 -165.5t-229 -70.5 q-128 0 -217.5 56t-89.5 137zM492 41q0 13 6 22l841 1319q16 19 37 19q18 0 30.5 -12.5t12.5 -30.5q0 -14 -6 -23l-844 -1317q-9 -20 -34 -20q-19 0 -31 12t-12 31zM928 203v39l461 571q10 13 14.5 15.5t17.5 2.5q19 0 23 -5.5t4 -26.5v-557h151v-39h-151v-107 q0 -35 19.5 -46t97.5 -11h30v-39l-204 4l-207 -4v39h33q55 0 79.5 6t29.5 16t5 35v107h-403zM975 242h364v454z" />
<glyph unicode="&#xbf;" horiz-adv-x="993" d="M117 -141q0 45 10 82t29.5 63t31.5 38t31 28q219 182 219 452v64q0 39 6 45t23 6q11 0 17.5 -2.5t8.5 -9.5t2.5 -9.5t0.5 -11.5v-61q0 -180 -39 -291t-121 -227q-43 -63 -43 -181q0 -27 0.5 -43t4 -41.5t10 -41t19.5 -34t31.5 -29t47 -17.5t65.5 -7q93 0 184.5 32.5 t132.5 96.5q-38 0 -71 24.5t-33 74.5q0 41 26.5 67.5t67.5 26.5q40 0 68 -25t28 -75q0 -119 -115 -196t-292 -77q-97 0 -168 24.5t-109 66t-55.5 88.5t-17.5 100zM356 913q0 47 32 79t79 32t79 -32t32 -79t-32 -78.5t-79 -31.5t-79 31.5t-32 78.5z" />
<glyph unicode="&#xc0;" horiz-adv-x="1579" d="M70 0v63q57 0 98.5 12t66.5 35t38.5 44t25.5 51l440 1216q1 2 4 9t3.5 8.5t3 6.5t3.5 6t3.5 4.5t4 4t4.5 2.5t6.5 2.5t7.5 1t9 0.5q23 0 32 -9.5t18 -33.5l465 -1284q11 -31 25.5 -46t48 -22.5t96.5 -7.5h34v-63l-268 6q-201 0 -293 -6v63q168 0 168 62q0 7 -10 37 l-111 309h-530l-96 -264q-9 -15 -9 -39q0 -38 37 -71.5t115 -33.5v-63l-231 6q-129 0 -209 -6zM485 535h484l-242 669zM502 1772q-7 36 17 65t61 29q7 0 12.5 -1t11.5 -4.5t8.5 -5.5t10.5 -8.5t10 -7.5l299 -262l-31 -49l-346 184q-25 13 -37 25.5t-16 34.5z" />
<glyph unicode="&#xc1;" horiz-adv-x="1579" d="M70 0v63q57 0 98.5 12t66.5 35t38.5 44t25.5 51l440 1216q1 2 4 9t3.5 8.5t3 6.5t3.5 6t3.5 4.5t4 4t4.5 2.5t6.5 2.5t7.5 1t9 0.5q23 0 32 -9.5t18 -33.5l465 -1284q11 -31 25.5 -46t48 -22.5t96.5 -7.5h34v-63l-268 6q-201 0 -293 -6v63q168 0 168 62q0 7 -10 37 l-111 309h-530l-96 -264q-9 -15 -9 -39q0 -38 37 -71.5t115 -33.5v-63l-231 6q-129 0 -209 -6zM485 535h484l-242 669zM645 1577l299 262q3 2 8.5 6.5t8 6.5t8 5.5t9 5t8.5 2.5t11 1q37 0 60.5 -28.5t17.5 -65.5q-4 -22 -16 -34.5t-37 -25.5l-346 -184z" />
<glyph unicode="&#xc2;" horiz-adv-x="1579" d="M70 0v63q57 0 98.5 12t66.5 35t38.5 44t25.5 51l440 1216q1 2 4 9t3.5 8.5t3 6.5t3.5 6t3.5 4.5t4 4t4.5 2.5t6.5 2.5t7.5 1t9 0.5q23 0 32 -9.5t18 -33.5l465 -1284q11 -31 25.5 -46t48 -22.5t96.5 -7.5h34v-63l-268 6q-201 0 -293 -6v63q168 0 168 62q0 7 -10 37 l-111 309h-530l-96 -264q-9 -15 -9 -39q0 -38 37 -71.5t115 -33.5v-63l-231 6q-129 0 -209 -6zM479 1540l309 240l310 -240l-25 -33l-287 135l-286 -135zM485 535h484l-242 669z" />
<glyph unicode="&#xc3;" horiz-adv-x="1579" d="M70 0v63q57 0 98.5 12t66.5 35t38.5 44t25.5 51l440 1216q1 2 4 9t3.5 8.5t3 6.5t3.5 6t3.5 4.5t4 4t4.5 2.5t6.5 2.5t7.5 1t9 0.5q23 0 32 -9.5t18 -33.5l465 -1284q11 -31 25.5 -46t48 -22.5t96.5 -7.5h34v-63l-268 6q-201 0 -293 -6v63q168 0 168 62q0 7 -10 37 l-111 309h-530l-96 -264q-9 -15 -9 -39q0 -38 37 -71.5t115 -33.5v-63l-231 6q-129 0 -209 -6zM438 1542q89 99 130.5 130.5t95.5 31.5q43 0 122 -41q52 -29 83.5 -41t64.5 -12q44 0 81.5 23.5t84.5 70.5l37 -35q-89 -99 -130.5 -130.5t-95.5 -31.5q-44 0 -123 41 q-54 30 -84 42t-63 12q-43 0 -80.5 -23.5t-85.5 -71.5zM485 535h484l-242 669z" />
<glyph unicode="&#xc4;" horiz-adv-x="1579" d="M70 0v63q57 0 98.5 12t66.5 35t38.5 44t25.5 51l440 1216q1 2 4 9t3.5 8.5t3 6.5t3.5 6t3.5 4.5t4 4t4.5 2.5t6.5 2.5t7.5 1t9 0.5q23 0 32 -9.5t18 -33.5l465 -1284q11 -31 25.5 -46t48 -22.5t96.5 -7.5h34v-63l-268 6q-201 0 -293 -6v63q168 0 168 62q0 7 -10 37 l-111 309h-530l-96 -264q-9 -15 -9 -39q0 -38 37 -71.5t115 -33.5v-63l-231 6q-129 0 -209 -6zM475 1608q0 41 29.5 69.5t70.5 28.5t70 -28.5t29 -69.5t-29 -71t-70 -30t-70.5 30t-29.5 71zM485 535h484l-242 669zM905 1608q0 41 29.5 69.5t71.5 28.5q41 0 69.5 -28.5 t28.5 -69.5q0 -42 -28.5 -71.5t-69.5 -29.5t-71 30t-30 71z" />
<glyph unicode="&#xc5;" horiz-adv-x="1579" d="M70 0v63q57 0 98.5 12t66.5 35t38.5 44t25.5 51l440 1216q1 2 4 9t3.5 8.5t3 6.5t3.5 6t3.5 4.5t4 4t4.5 2.5t6.5 2.5t7.5 1t9 0.5q23 0 32 -9.5t18 -33.5l465 -1284q11 -31 25.5 -46t48 -22.5t96.5 -7.5h34v-63l-268 6q-201 0 -293 -6v63q168 0 168 62q0 7 -10 37 l-111 309h-530l-96 -264q-9 -15 -9 -39q0 -38 37 -71.5t115 -33.5v-63l-231 6q-129 0 -209 -6zM485 535h484l-242 669zM584 1649q0 74 57.5 126t146.5 52q87 0 146 -52t59 -130q0 -74 -58 -126.5t-147 -52.5q-86 0 -145 52.5t-59 130.5zM655 1647q0 -37 14 -62t38 -35.5 t42.5 -14t38.5 -3.5q134 0 134 115q0 114 -134 114q-133 0 -133 -114z" />
<glyph unicode="&#xc6;" horiz-adv-x="1900" d="M70 0v63q57 0 99 11.5t68 34t40 45t26 53.5l424 1126q-13 0 -43 1t-41 1h-92v64h1173l58 -461h-58q-9 76 -18 124.5t-26 98.5t-41.5 78.5t-62.5 52.5t-91.5 33.5t-126.5 9.5h-209q-70 0 -85 -14t-15 -70v-546h180q59 0 97.5 9t62.5 25t36 47.5t15.5 66t3.5 91.5h57v-543 h-57q0 47 -2.5 77.5t-10 60.5t-22 47t-38.5 30.5t-58.5 19t-83.5 5.5h-180v-494q0 -56 15 -70t85 -14h205q63 0 112.5 6.5t88.5 22t68 34t52 51t38 63.5t28.5 81t22 95t18.5 112h57l-88 -528h-1030v63q105 0 130.5 13.5t25.5 81.5v483h-342l-162 -430q-11 -28 -11 -43 q0 -48 41.5 -75.5t106.5 -29.5v-63l-231 6q-121 0 -209 -6zM559 705h318v528q0 21 -1.5 32t-8.5 27t-25.5 24.5t-48.5 10.5z" />
<glyph unicode="&#xc7;" horiz-adv-x="1519" d="M117 700q0 203 99.5 374.5t268 270.5t365.5 99q73 0 136.5 -17t113.5 -49t77 -54.5t62 -57.5l104 153q16 25 33 25t21 -11t4 -42v-480q0 -25 -1.5 -34t-8 -14t-23.5 -5q-23 0 -28 16q-1 3 -5 21q-18 120 -65 215t-111.5 152.5t-138.5 87.5t-152 30q-40 0 -83.5 -7.5 t-98 -28t-103.5 -52t-97 -85.5t-82.5 -122.5t-56 -167.5t-21.5 -217q0 -163 41 -290t100.5 -198.5t137.5 -117.5t141.5 -61t123.5 -15q64 0 128.5 18t124.5 56t107 91.5t77.5 130.5t35.5 167q1 10 1.5 13t3.5 9.5t8.5 8.5t15.5 2q15 0 21.5 -6t7 -11.5t0.5 -21.5 q0 -86 -35.5 -173.5t-99 -161.5t-161.5 -124.5t-212 -58.5v-92q91 0 157 -35t66 -102q0 -20 -7.5 -37t-24 -30t-34.5 -23.5t-47.5 -17.5t-54 -12.5t-63 -8.5t-65.5 -5t-70.5 -3t-68.5 -1h-69h-57v58h29q53 0 82 0.5t78.5 2.5t77.5 7t59 13.5t45 23t14 33.5q0 79 -162 79v152 q-134 12 -255.5 75t-211 160t-142 229.5t-52.5 276.5z" />
<glyph unicode="&#xc8;" horiz-adv-x="1431" d="M78 0v63h47q59 0 92 4t48.5 18.5t18.5 29t3 47.5v1069q0 33 -3 47.5t-18.5 28.5t-48.5 18t-92 4h-47v64h1177l58 -461h-58q-9 77 -19.5 129.5t-30 100.5t-47.5 76.5t-71.5 50.5t-102 31t-138.5 9h-275q-70 0 -85 -14t-15 -70v-489h191q76 0 120 11.5t67.5 43t30.5 72 t7 112.5h57v-542h-57q0 48 -2.5 79t-11 60.5t-23.5 46.5t-40.5 30t-61 18t-86.5 5h-191v-545q0 -56 15 -70t85 -14h287q87 0 151 11.5t111 39t77.5 61.5t53 91.5t35.5 115.5t27 146h57l-88 -528h-1204zM430 1772q-7 36 17 65t61 29q7 0 12.5 -1t11.5 -4.5t8.5 -5.5 t10.5 -8.5t10 -7.5l299 -262l-31 -49l-346 184q-25 13 -37 25.5t-16 34.5z" />
<glyph unicode="&#xc9;" horiz-adv-x="1431" d="M78 0v63h47q59 0 92 4t48.5 18.5t18.5 29t3 47.5v1069q0 33 -3 47.5t-18.5 28.5t-48.5 18t-92 4h-47v64h1177l58 -461h-58q-9 77 -19.5 129.5t-30 100.5t-47.5 76.5t-71.5 50.5t-102 31t-138.5 9h-275q-70 0 -85 -14t-15 -70v-489h191q76 0 120 11.5t67.5 43t30.5 72 t7 112.5h57v-542h-57q0 48 -2.5 79t-11 60.5t-23.5 46.5t-40.5 30t-61 18t-86.5 5h-191v-545q0 -56 15 -70t85 -14h287q87 0 151 11.5t111 39t77.5 61.5t53 91.5t35.5 115.5t27 146h57l-88 -528h-1204zM573 1577l299 262q2 2 7 6t7.5 5.5t7 5t7.5 4.5t7.5 3t8.5 2.5t9 0.5 q37 0 60.5 -28.5t17.5 -65.5q-4 -22 -16.5 -34.5t-37.5 -25.5l-346 -184z" />
<glyph unicode="&#xca;" horiz-adv-x="1431" d="M78 0v63h47q59 0 92 4t48.5 18.5t18.5 29t3 47.5v1069q0 33 -3 47.5t-18.5 28.5t-48.5 18t-92 4h-47v64h1177l58 -461h-58q-9 77 -19.5 129.5t-30 100.5t-47.5 76.5t-71.5 50.5t-102 31t-138.5 9h-275q-70 0 -85 -14t-15 -70v-489h191q76 0 120 11.5t67.5 43t30.5 72 t7 112.5h57v-542h-57q0 48 -2.5 79t-11 60.5t-23.5 46.5t-40.5 30t-61 18t-86.5 5h-191v-545q0 -56 15 -70t85 -14h287q87 0 151 11.5t111 39t77.5 61.5t53 91.5t35.5 115.5t27 146h57l-88 -528h-1204zM408 1540l309 240l309 -240l-25 -33l-286 135l-287 -135z" />
<glyph unicode="&#xcb;" horiz-adv-x="1431" d="M78 0v63h47q59 0 92 4t48.5 18.5t18.5 29t3 47.5v1069q0 33 -3 47.5t-18.5 28.5t-48.5 18t-92 4h-47v64h1177l58 -461h-58q-9 77 -19.5 129.5t-30 100.5t-47.5 76.5t-71.5 50.5t-102 31t-138.5 9h-275q-70 0 -85 -14t-15 -70v-489h191q76 0 120 11.5t67.5 43t30.5 72 t7 112.5h57v-542h-57q0 48 -2.5 79t-11 60.5t-23.5 46.5t-40.5 30t-61 18t-86.5 5h-191v-545q0 -56 15 -70t85 -14h287q87 0 151 11.5t111 39t77.5 61.5t53 91.5t35.5 115.5t27 146h57l-88 -528h-1204zM403 1608q0 41 29.5 69.5t71.5 28.5q41 0 69.5 -28.5t28.5 -69.5 q0 -42 -28.5 -71.5t-69.5 -29.5t-71 30t-30 71zM834 1608q0 41 29.5 69.5t70.5 28.5t69.5 -28.5t28.5 -69.5q0 -42 -28.5 -71.5t-69.5 -29.5t-70.5 30t-29.5 71z" />
<glyph unicode="&#xcc;" horiz-adv-x="759" d="M68 0v63h51q62 0 95.5 4t50 18.5t19.5 29t3 47.5v1075q0 33 -3 47.5t-19.5 28.5t-50 18t-95.5 4h-51v64q84 -6 311 -6t311 6v-64h-51q-62 0 -95.5 -4t-50 -18t-19.5 -28.5t-3 -47.5v-1075q0 -33 3 -47.5t19.5 -29t50 -18.5t95.5 -4h51v-63q-84 6 -311 6t-311 -6zM94 1772 q-7 36 17 65t61 29q7 0 12.5 -1t11.5 -4.5t8.5 -5.5t10.5 -8.5t10 -7.5l299 -262l-30 -49l-347 184q-25 13 -37 25.5t-16 34.5z" />
<glyph unicode="&#xcd;" horiz-adv-x="759" d="M68 0v63h51q62 0 95.5 4t50 18.5t19.5 29t3 47.5v1075q0 33 -3 47.5t-19.5 28.5t-50 18t-95.5 4h-51v64q84 -6 311 -6t311 6v-64h-51q-62 0 -95.5 -4t-50 -18t-19.5 -28.5t-3 -47.5v-1075q0 -33 3 -47.5t19.5 -29t50 -18.5t95.5 -4h51v-63q-84 6 -311 6t-311 -6z M238 1577l299 262q3 2 8.5 6.5t8 6.5t8 5.5t9 5t8.5 2.5t11 1q37 0 60.5 -28.5t17.5 -65.5q-4 -22 -16.5 -34.5t-37.5 -25.5l-346 -184z" />
<glyph unicode="&#xce;" horiz-adv-x="759" d="M68 0v63h51q62 0 95.5 4t50 18.5t19.5 29t3 47.5v1075q0 33 -3 47.5t-19.5 28.5t-50 18t-95.5 4h-51v64q84 -6 311 -6t311 6v-64h-51q-62 0 -95.5 -4t-50 -18t-19.5 -28.5t-3 -47.5v-1075q0 -33 3 -47.5t19.5 -29t50 -18.5t95.5 -4h51v-63q-84 6 -311 6t-311 -6zM72 1540 l309 240l309 -240l-24 -33l-287 135l-287 -135z" />
<glyph unicode="&#xcf;" horiz-adv-x="759" d="M68 0v63h51q62 0 95.5 4t50 18.5t19.5 29t3 47.5v1075q0 33 -3 47.5t-19.5 28.5t-50 18t-95.5 4h-51v64q84 -6 311 -6t311 6v-64h-51q-62 0 -95.5 -4t-50 -18t-19.5 -28.5t-3 -47.5v-1075q0 -33 3 -47.5t19.5 -29t50 -18.5t95.5 -4h51v-63q-84 6 -311 6t-311 -6zM68 1608 q0 41 29.5 69.5t70.5 28.5t69.5 -28.5t28.5 -69.5q0 -42 -28.5 -71.5t-69.5 -29.5t-70.5 30t-29.5 71zM498 1608q0 41 29.5 69.5t70.5 28.5t69.5 -28.5t28.5 -69.5q0 -42 -28.5 -71.5t-69.5 -29.5t-70.5 30t-29.5 71z" />
<glyph unicode="&#xd0;" horiz-adv-x="1607" d="M82 0v63h47q59 0 92 4t48.5 18.5t18.5 29t3 47.5v508h-209v61h209v506q0 33 -3 47.5t-18.5 28.5t-48.5 18t-92 4h-47v64h762q176 0 325 -96.5t234.5 -260t85.5 -354.5q0 -189 -87 -347.5t-235 -249.5t-323 -91h-762zM469 147q0 -56 15 -70t85 -14h222q243 0 383 183 q40 49 65.5 112.5t34 135t10.5 106t2 88.5q0 158 -27.5 269.5t-93.5 199.5q-23 30 -55.5 58.5t-79 57t-109.5 45.5t-133 17h-219q-70 0 -85 -14t-15 -70v-520h336v-61h-336v-523z" />
<glyph unicode="&#xd1;" horiz-adv-x="1579" d="M78 0v63q60 0 102 11.5t62 26t31 39.5t12.5 39t1.5 38v1104q-7 1 -39 6q-36 8 -113 8h-57v64h344q31 0 40 -3.5t21 -21.5l744 -1067v875q0 20 -1 31t-6.5 32.5t-19 34.5t-35 27t-59.5 21t-88 7v64q113 -6 242 -6q130 0 239 6v-64q-50 0 -88 -7t-59.5 -21t-35 -27 t-19 -34.5t-6.5 -32.5t-1 -31v-1127q0 -23 -1.5 -32.5t-8.5 -16t-23 -6.5q-20 0 -36 25l-871 1249v-1057q0 -24 1.5 -38t12.5 -39t31 -39.5t62 -26t102 -11.5v-63q-109 6 -240 6q-128 0 -241 -6zM438 1542q89 99 130.5 130.5t95.5 31.5q43 0 122 -41q52 -29 83.5 -41 t64.5 -12q44 0 81.5 23.5t84.5 70.5l37 -35q-89 -99 -130.5 -130.5t-95.5 -31.5q-44 0 -123 41q-54 30 -84 42t-63 12q-43 0 -80.5 -23.5t-85.5 -71.5z" />
<glyph unicode="&#xd2;" horiz-adv-x="1636" d="M117 694q0 154 55.5 293t149.5 239t223.5 159t271.5 59q190 0 351 -99.5t255.5 -272.5t94.5 -378q0 -153 -56.5 -290.5t-151 -235.5t-223.5 -155.5t-270 -57.5t-270 57.5t-223.5 155.5t-150.5 235.5t-56 290.5zM326 725q0 -127 22 -235t60 -184t86.5 -133.5t104.5 -90.5 t110.5 -49.5t107.5 -16.5q65 0 130 22.5t131.5 76t117 132t82 202.5t31.5 276q0 144 -32.5 260t-83.5 189t-118 122.5t-131 69.5t-127 20q-44 0 -89.5 -10t-94 -33.5t-92.5 -59t-83.5 -89t-68.5 -119.5t-46 -156t-17 -194zM532 1772q-7 36 17 65t61 29q6 0 11 -1.5t8.5 -2.5 t9.5 -4.5t8 -5t9 -7t8 -6.5l299 -262l-31 -49l-346 184q-25 13 -37.5 25.5t-16.5 34.5z" />
<glyph unicode="&#xd3;" horiz-adv-x="1636" d="M117 694q0 154 55.5 293t149.5 239t223.5 159t271.5 59q190 0 351 -99.5t255.5 -272.5t94.5 -378q0 -153 -56.5 -290.5t-151 -235.5t-223.5 -155.5t-270 -57.5t-270 57.5t-223.5 155.5t-150.5 235.5t-56 290.5zM326 725q0 -127 22 -235t60 -184t86.5 -133.5t104.5 -90.5 t110.5 -49.5t107.5 -16.5q65 0 130 22.5t131.5 76t117 132t82 202.5t31.5 276q0 144 -32.5 260t-83.5 189t-118 122.5t-131 69.5t-127 20q-44 0 -89.5 -10t-94 -33.5t-92.5 -59t-83.5 -89t-68.5 -119.5t-46 -156t-17 -194zM676 1577l299 262q3 2 8.5 6.5t8 6.5t8 5.5t9 5 t8.5 2.5t11 1q37 0 60.5 -28.5t17.5 -65.5q-4 -22 -16 -34.5t-37 -25.5l-346 -184z" />
<glyph unicode="&#xd4;" horiz-adv-x="1636" d="M117 694q0 154 55.5 293t149.5 239t223.5 159t271.5 59q190 0 351 -99.5t255.5 -272.5t94.5 -378q0 -153 -56.5 -290.5t-151 -235.5t-223.5 -155.5t-270 -57.5t-270 57.5t-223.5 155.5t-150.5 235.5t-56 290.5zM326 725q0 -127 22 -235t60 -184t86.5 -133.5t104.5 -90.5 t110.5 -49.5t107.5 -16.5q65 0 130 22.5t131.5 76t117 132t82 202.5t31.5 276q0 144 -32.5 260t-83.5 189t-118 122.5t-131 69.5t-127 20q-44 0 -89.5 -10t-94 -33.5t-92.5 -59t-83.5 -89t-68.5 -119.5t-46 -156t-17 -194zM510 1540l309 240l309 -240l-24 -33l-287 135 l-287 -135z" />
<glyph unicode="&#xd5;" horiz-adv-x="1636" d="M117 694q0 154 55.5 293t149.5 239t223.5 159t271.5 59q190 0 351 -99.5t255.5 -272.5t94.5 -378q0 -153 -56.5 -290.5t-151 -235.5t-223.5 -155.5t-270 -57.5t-270 57.5t-223.5 155.5t-150.5 235.5t-56 290.5zM326 725q0 -127 22 -235t60 -184t86.5 -133.5t104.5 -90.5 t110.5 -49.5t107.5 -16.5q65 0 130 22.5t131.5 76t117 132t82 202.5t31.5 276q0 144 -32.5 260t-83.5 189t-118 122.5t-131 69.5t-127 20q-44 0 -89.5 -10t-94 -33.5t-92.5 -59t-83.5 -89t-68.5 -119.5t-46 -156t-17 -194zM469 1542q89 99 130 130.5t95 31.5q44 0 123 -41 q52 -29 83.5 -41t64.5 -12q43 0 80 23t85 71l37 -35q-89 -99 -130 -130.5t-95 -31.5q-44 0 -123 41q-54 30 -84 42t-63 12q-43 0 -80.5 -23.5t-85.5 -71.5z" />
<glyph unicode="&#xd6;" horiz-adv-x="1636" d="M117 694q0 154 55.5 293t149.5 239t223.5 159t271.5 59q190 0 351 -99.5t255.5 -272.5t94.5 -378q0 -153 -56.5 -290.5t-151 -235.5t-223.5 -155.5t-270 -57.5t-270 57.5t-223.5 155.5t-150.5 235.5t-56 290.5zM326 725q0 -127 22 -235t60 -184t86.5 -133.5t104.5 -90.5 t110.5 -49.5t107.5 -16.5q65 0 130 22.5t131.5 76t117 132t82 202.5t31.5 276q0 144 -32.5 260t-83.5 189t-118 122.5t-131 69.5t-127 20q-44 0 -89.5 -10t-94 -33.5t-92.5 -59t-83.5 -89t-68.5 -119.5t-46 -156t-17 -194zM506 1608q0 41 29.5 69.5t70.5 28.5t70 -28.5 t29 -69.5t-29 -71t-70 -30t-70.5 30t-29.5 71zM936 1608q0 41 29.5 69.5t70.5 28.5t70 -28.5t29 -69.5t-29 -71t-70 -30t-70.5 30t-29.5 71z" />
<glyph unicode="&#xd7;" horiz-adv-x="1636" d="M308.5 40q-2.5 11 4 22.5t12 18.5t17.5 19l414 414l-414 414q-12 12 -17.5 19t-12 18.5t-4 22.5t13.5 22t22 13.5t22 -3.5t18.5 -12.5t18.5 -18.5l414 -414l414 414q12 12 18.5 17.5t18.5 12.5t23 4t22 -15q11 -11 13.5 -22t-4.5 -23t-12.5 -18.5t-17.5 -18.5l-411 -412 l413 -414q12 -12 17.5 -18.5t12.5 -18.5t4.5 -23t-13.5 -22q-12 -12 -23 -15t-23 4t-17.5 12t-18.5 18l-416 414l-414 -414q-13 -13 -19 -18t-18 -12t-22.5 -4t-21.5 15q-11 11 -13.5 22z" />
<glyph unicode="&#xd8;" horiz-adv-x="1636" d="M117 694q0 154 55.5 293t149.5 239t223.5 159t271.5 59q203 0 395 -129l140 201l45 -33l-142 -205q124 -105 193.5 -258.5t69.5 -325.5q0 -153 -56.5 -290.5t-151 -235.5t-223.5 -155.5t-270 -57.5q-214 0 -395 129l-139 -201l-45 33l139 203q-116 94 -188 245t-72 330z M301 694q0 -174 32 -290.5t99 -204.5l729 1046q-55 59 -144 103.5t-200 44.5q-26 0 -55 -3t-82.5 -18.5t-100.5 -41.5t-100 -79t-90.5 -124t-62.5 -183t-25 -250zM473 154q47 -56 140 -102t204 -46q110 0 214 51t179 152q41 54 67.5 120t37.5 135.5t14.5 119t3.5 110.5 q0 170 -33 290.5t-100 213.5z" />
<glyph unicode="&#xd9;" horiz-adv-x="1579" d="M78 1335v64q92 -6 301 -6t301 6v-64h-47q-59 0 -92 -4t-48.5 -18t-18.5 -28.5t-3 -47.5v-778q0 -89 17 -160.5t47 -118t65.5 -80t76.5 -50.5t75.5 -24.5t68.5 -7.5q77 0 150 32t130 89t91.5 144t34.5 188v711q0 20 -1 31t-6.5 32.5t-19 34.5t-35 27t-59.5 21t-88 7v64 q113 -6 242 -6q130 0 239 6v-64q-43 0 -77 -6t-56 -14.5t-37 -23t-22.5 -26.5t-11.5 -30.5t-4.5 -28.5t-0.5 -28v-738q0 -79 -32.5 -162.5t-90.5 -156.5t-150 -119.5t-200 -46.5q-142 0 -263 66t-194 185t-73 265v766q0 33 -3 47.5t-18.5 28.5t-48.5 18t-92 4h-47zM549 1772 q-7 36 17 65t61 29q7 0 12.5 -1t11.5 -4.5t8.5 -5.5t10.5 -8.5t10 -7.5l299 -262l-31 -49l-346 184q-25 13 -37 25.5t-16 34.5z" />
<glyph unicode="&#xda;" horiz-adv-x="1579" d="M78 1335v64q92 -6 301 -6t301 6v-64h-47q-59 0 -92 -4t-48.5 -18t-18.5 -28.5t-3 -47.5v-778q0 -89 17 -160.5t47 -118t65.5 -80t76.5 -50.5t75.5 -24.5t68.5 -7.5q77 0 150 32t130 89t91.5 144t34.5 188v711q0 20 -1 31t-6.5 32.5t-19 34.5t-35 27t-59.5 21t-88 7v64 q113 -6 242 -6q130 0 239 6v-64q-43 0 -77 -6t-56 -14.5t-37 -23t-22.5 -26.5t-11.5 -30.5t-4.5 -28.5t-0.5 -28v-738q0 -79 -32.5 -162.5t-90.5 -156.5t-150 -119.5t-200 -46.5q-142 0 -263 66t-194 185t-73 265v766q0 33 -3 47.5t-18.5 28.5t-48.5 18t-92 4h-47zM692 1577 l299 262q3 2 8.5 6.5t8 6.5t8 5.5t9 5t8.5 2.5t11 1q37 0 60.5 -28.5t17.5 -65.5q-4 -22 -16 -34.5t-37 -25.5l-346 -184z" />
<glyph unicode="&#xdb;" horiz-adv-x="1579" d="M78 1335v64q92 -6 301 -6t301 6v-64h-47q-59 0 -92 -4t-48.5 -18t-18.5 -28.5t-3 -47.5v-778q0 -89 17 -160.5t47 -118t65.5 -80t76.5 -50.5t75.5 -24.5t68.5 -7.5q77 0 150 32t130 89t91.5 144t34.5 188v711q0 20 -1 31t-6.5 32.5t-19 34.5t-35 27t-59.5 21t-88 7v64 q113 -6 242 -6q130 0 239 6v-64q-43 0 -77 -6t-56 -14.5t-37 -23t-22.5 -26.5t-11.5 -30.5t-4.5 -28.5t-0.5 -28v-738q0 -79 -32.5 -162.5t-90.5 -156.5t-150 -119.5t-200 -46.5q-142 0 -263 66t-194 185t-73 265v766q0 33 -3 47.5t-18.5 28.5t-48.5 18t-92 4h-47zM526 1540 l310 240l309 -240l-25 -33l-286 135l-287 -135z" />
<glyph unicode="&#xdc;" horiz-adv-x="1579" d="M78 1335v64q92 -6 301 -6t301 6v-64h-47q-59 0 -92 -4t-48.5 -18t-18.5 -28.5t-3 -47.5v-778q0 -89 17 -160.5t47 -118t65.5 -80t76.5 -50.5t75.5 -24.5t68.5 -7.5q77 0 150 32t130 89t91.5 144t34.5 188v711q0 20 -1 31t-6.5 32.5t-19 34.5t-35 27t-59.5 21t-88 7v64 q113 -6 242 -6q130 0 239 6v-64q-43 0 -77 -6t-56 -14.5t-37 -23t-22.5 -26.5t-11.5 -30.5t-4.5 -28.5t-0.5 -28v-738q0 -79 -32.5 -162.5t-90.5 -156.5t-150 -119.5t-200 -46.5q-142 0 -263 66t-194 185t-73 265v766q0 33 -3 47.5t-18.5 28.5t-48.5 18t-92 4h-47zM522 1608 q0 41 29.5 69.5t71.5 28.5q41 0 69.5 -28.5t28.5 -69.5q0 -42 -28.5 -71.5t-69.5 -29.5t-71 30t-30 71zM952 1608q0 41 29.5 69.5t71.5 28.5q41 0 69.5 -28.5t28.5 -69.5q0 -42 -28.5 -71.5t-69.5 -29.5t-71 30t-30 71z" />
<glyph unicode="&#xdd;" horiz-adv-x="1579" d="M27 1335v64l270 -6q215 0 297 6v-64q-30 0 -49.5 -1t-42.5 -5.5t-35 -16t-12 -28.5q0 -11 18 -41l385 -598l350 551q21 33 23 49v10q0 36 -29.5 58t-83.5 22v64l232 -6q128 0 200 6v-64q-183 0 -266 -141l-405 -635v-399q0 -42 7.5 -59.5t42 -27.5t111.5 -10h47v-63 q-98 6 -299 6q-200 0 -296 -6v63h47q48 0 77.5 4t47 9t25.5 19.5t9.5 27t1.5 39.5v397l-450 703q-31 44 -65.5 58.5t-123.5 14.5h-34zM645 1577l299 262q3 2 8.5 6.5t8 6.5t8 5.5t9 5t8.5 2.5t11 1q37 0 60.5 -28.5t17.5 -65.5q-4 -22 -16 -34.5t-37 -25.5l-346 -184z" />
<glyph unicode="&#xde;" horiz-adv-x="1314" d="M82 0v63q100 0 145 7q41 7 52.5 25.5t11.5 70.5v1067q0 47 -10 67t-48 27q-39 8 -151 8v64l295 -6l295 6v-64q-107 0 -146 -6q-41 -7 -52 -25.5t-11 -70.5v-105h291q191 0 315.5 -114.5t124.5 -268.5t-125 -267t-309 -113h-297v-199q0 -25 1 -37.5t6.5 -26t17.5 -20 t32 -10.5q44 -9 152 -9v-63l-295 6zM463 428h225q140 0 221.5 97t81.5 223q0 51 -15.5 103t-46.5 101.5t-87.5 81t-130.5 31.5h-248v-637z" />
<glyph unicode="&#xdf;" d="M61 0v63q107 0 132.5 13.5t25.5 81.5v661h-158v64h158v256q0 94 53 165.5t132 105.5t169 34q151 0 256 -87.5t105 -205.5q0 -102 -77 -181.5t-191 -115.5q149 -61 237 -196.5t88 -301.5q0 -108 -52.5 -196t-136.5 -135.5t-179 -47.5q-89 0 -143 46.5t-54 109.5 q0 42 25 61t51 19q31 0 53.5 -22t22.5 -54q0 -21 -5.5 -35.5t-17.5 -23t-17.5 -11t-17.5 -6.5q38 -32 98 -32q23 0 48 7.5t55 30t53.5 57t39 95t15.5 137.5q0 211 -89.5 336.5t-215.5 138.5q-19 1 -26 2t-12 6.5t-5 16.5q0 12 5.5 18t11.5 7t22 2q120 10 186 83t66 187 q0 119 -61 179.5t-140 60.5q-9 0 -19.5 -1t-32 -6.5t-40.5 -15t-40.5 -28.5t-37 -45t-26 -67t-10.5 -91v-1139q-31 6 -109 6z" />
<glyph unicode="&#xe0;" d="M68 201q0 71 45 140.5t147 119.5q64 30 145 48.5t129.5 23t127.5 8.5v67q0 126 -66.5 192t-155.5 66q-54 0 -115.5 -17.5t-97.5 -53.5q20 -2 45 -17q47 -29 47 -82q0 -41 -26.5 -67.5t-67.5 -26.5q-42 0 -69 26t-27 72q0 96 91 157t224 61q166 0 277 -99q33 -30 53 -58.5 t28 -66t9.5 -64t1.5 -81.5v-359q0 -131 74 -131t74 125v113h57v-115q0 -47 -14 -83t-34.5 -56.5t-46.5 -33.5t-46.5 -17t-38.5 -4q-64 0 -107 45.5t-51 113.5q-12 -26 -32 -51.5t-52.5 -54t-83 -46.5t-109.5 -18q-56 0 -111.5 11.5t-107.5 36t-84 70.5t-32 106zM231 201 q0 -75 56 -123.5t131 -48.5q37 0 76.5 13.5t78.5 41.5t64 81.5t25 123.5v203q-112 -4 -198 -30.5t-135 -68.5t-73.5 -90.5t-24.5 -101.5zM266 1350q0 34 24 57t54 23q24 0 36 -8t28 -29l249 -310l-39 -43l-309 242q-17 14 -24 21.5t-13 19.5t-6 27z" />
<glyph unicode="&#xe1;" d="M68 201q0 71 45 140.5t147 119.5q64 30 145 48.5t129.5 23t127.5 8.5v67q0 126 -66.5 192t-155.5 66q-54 0 -115.5 -17.5t-97.5 -53.5q20 -2 45 -17q47 -29 47 -82q0 -41 -26.5 -67.5t-67.5 -26.5q-42 0 -69 26t-27 72q0 96 91 157t224 61q166 0 277 -99q33 -30 53 -58.5 t28 -66t9.5 -64t1.5 -81.5v-359q0 -131 74 -131t74 125v113h57v-115q0 -47 -14 -83t-34.5 -56.5t-46.5 -33.5t-46.5 -17t-38.5 -4q-64 0 -107 45.5t-51 113.5q-12 -26 -32 -51.5t-52.5 -54t-83 -46.5t-109.5 -18q-56 0 -111.5 11.5t-107.5 36t-84 70.5t-32 106zM231 201 q0 -75 56 -123.5t131 -48.5q37 0 76.5 13.5t78.5 41.5t64 81.5t25 123.5v203q-112 -4 -198 -30.5t-135 -68.5t-73.5 -90.5t-24.5 -101.5zM395 1083l250 310q11 14 17 20.5t18 11.5t29 5q30 0 53.5 -23t23.5 -57q0 -15 -6 -27t-13 -19.5t-24 -21.5l-309 -242z" />
<glyph unicode="&#xe2;" d="M68 201q0 71 45 140.5t147 119.5q64 30 145 48.5t129.5 23t127.5 8.5v67q0 126 -66.5 192t-155.5 66q-54 0 -115.5 -17.5t-97.5 -53.5q20 -2 45 -17q47 -29 47 -82q0 -41 -26.5 -67.5t-67.5 -26.5q-42 0 -69 26t-27 72q0 96 91 157t224 61q166 0 277 -99q33 -30 53 -58.5 t28 -66t9.5 -64t1.5 -81.5v-359q0 -131 74 -131t74 125v113h57v-115q0 -47 -14 -83t-34.5 -56.5t-46.5 -33.5t-46.5 -17t-38.5 -4q-64 0 -107 45.5t-51 113.5q-12 -26 -32 -51.5t-52.5 -54t-83 -46.5t-109.5 -18q-56 0 -111.5 11.5t-107.5 36t-84 70.5t-32 106zM215 1083 l311 332l312 -332l-27 -28l-285 221l-284 -221zM231 201q0 -75 56 -123.5t131 -48.5q37 0 76.5 13.5t78.5 41.5t64 81.5t25 123.5v203q-112 -4 -198 -30.5t-135 -68.5t-73.5 -90.5t-24.5 -101.5z" />
<glyph unicode="&#xe3;" d="M68 201q0 71 45 140.5t147 119.5q64 30 145 48.5t129.5 23t127.5 8.5v67q0 126 -66.5 192t-155.5 66q-54 0 -115.5 -17.5t-97.5 -53.5q20 -2 45 -17q47 -29 47 -82q0 -41 -26.5 -67.5t-67.5 -26.5q-42 0 -69 26t-27 72q0 96 91 157t224 61q166 0 277 -99q33 -30 53 -58.5 t28 -66t9.5 -64t1.5 -81.5v-359q0 -131 74 -131t74 125v113h57v-115q0 -47 -14 -83t-34.5 -56.5t-46.5 -33.5t-46.5 -17t-38.5 -4q-64 0 -107 45.5t-51 113.5q-12 -26 -32 -51.5t-52.5 -54t-83 -46.5t-109.5 -18q-56 0 -111.5 11.5t-107.5 36t-84 70.5t-32 106zM176 1171 q89 99 130 130.5t95 31.5q44 0 123 -41q52 -29 83.5 -41t64.5 -12q44 0 81.5 23.5t84.5 70.5l36 -35q-62 -69 -92 -98t-62.5 -46t-70.5 -17q-44 0 -123 41q-53 29 -83.5 41t-63.5 12q-44 0 -81.5 -23.5t-84.5 -70.5zM231 201q0 -75 56 -123.5t131 -48.5q37 0 76.5 13.5 t78.5 41.5t64 81.5t25 123.5v203q-112 -4 -198 -30.5t-135 -68.5t-73.5 -90.5t-24.5 -101.5z" />
<glyph unicode="&#xe4;" d="M68 201q0 71 45 140.5t147 119.5q64 30 145 48.5t129.5 23t127.5 8.5v67q0 126 -66.5 192t-155.5 66q-54 0 -115.5 -17.5t-97.5 -53.5q20 -2 45 -17q47 -29 47 -82q0 -41 -26.5 -67.5t-67.5 -26.5q-42 0 -69 26t-27 72q0 96 91 157t224 61q166 0 277 -99q33 -30 53 -58.5 t28 -66t9.5 -64t1.5 -81.5v-359q0 -131 74 -131t74 125v113h57v-115q0 -47 -14 -83t-34.5 -56.5t-46.5 -33.5t-46.5 -17t-38.5 -4q-64 0 -107 45.5t-51 113.5q-12 -26 -32 -51.5t-52.5 -54t-83 -46.5t-109.5 -18q-56 0 -111.5 11.5t-107.5 36t-84 70.5t-32 106zM231 201 q0 -75 56 -123.5t131 -48.5q37 0 76.5 13.5t78.5 41.5t64 81.5t25 123.5v203q-112 -4 -198 -30.5t-135 -68.5t-73.5 -90.5t-24.5 -101.5zM246 1237q0 41 29.5 69.5t70.5 28.5t69.5 -28.5t28.5 -69.5t-28.5 -70.5t-69.5 -29.5t-70.5 29.5t-29.5 70.5zM610 1237 q0 41 29.5 69.5t71.5 28.5q41 0 69.5 -28.5t28.5 -69.5t-28.5 -70.5t-69.5 -29.5t-71 29.5t-30 70.5z" />
<glyph unicode="&#xe5;" d="M68 201q0 71 45 140.5t147 119.5q64 30 145 48.5t129.5 23t127.5 8.5v67q0 126 -66.5 192t-155.5 66q-54 0 -115.5 -17.5t-97.5 -53.5q20 -2 45 -17q47 -29 47 -82q0 -41 -26.5 -67.5t-67.5 -26.5q-42 0 -69 26t-27 72q0 96 91 157t224 61q166 0 277 -99q33 -30 53 -58.5 t28 -66t9.5 -64t1.5 -81.5v-359q0 -131 74 -131t74 125v113h57v-115q0 -47 -14 -83t-34.5 -56.5t-46.5 -33.5t-46.5 -17t-38.5 -4q-64 0 -107 45.5t-51 113.5q-12 -26 -32 -51.5t-52.5 -54t-83 -46.5t-109.5 -18q-56 0 -111.5 11.5t-107.5 36t-84 70.5t-32 106zM231 201 q0 -75 56 -123.5t131 -48.5q37 0 76.5 13.5t78.5 41.5t64 81.5t25 123.5v203q-112 -4 -198 -30.5t-135 -68.5t-73.5 -90.5t-24.5 -101.5zM322 1266q0 74 57.5 126t146.5 52q87 0 146 -52t59 -130q0 -74 -58 -126.5t-147 -52.5q-86 0 -145 52.5t-59 130.5zM393 1264 q0 -37 14 -62t38 -35.5t42.5 -14t38.5 -3.5q133 0 133 115q0 114 -133 114t-133 -114z" />
<glyph unicode="&#xe6;" horiz-adv-x="1519" d="M94 193q0 147 166.5 234t423.5 87v94q0 126 -66 192t-155 66q-133 0 -215 -71q20 -2 45 -17q47 -29 47 -82q0 -41 -26.5 -67.5t-67.5 -26.5q-42 0 -69 26t-27 72q0 97 91 157.5t226 60.5q117 0 200 -46.5t128 -107.5q133 154 313 154q165 0 257.5 -115t92.5 -289 q0 -18 -1 -27t-9.5 -13t-15 -4.5t-29.5 -0.5h-567q0 -88 16 -159.5t40 -115.5t57.5 -76.5t61.5 -48t60.5 -24t46 -9.5t25.5 -1q13 0 26.5 1.5t40 7.5t51 20.5t51 36t50 60t39.5 87.5q5 22 29 22q28 0 28 -26q0 -15 -10.5 -44t-36 -68t-61 -73t-93 -58t-124.5 -24 q-97 0 -191 46t-158 131q-5 -11 -16.5 -28t-41.5 -44t-67.5 -49.5t-99 -39t-131.5 -16.5q-58 0 -114.5 12t-107 36.5t-81.5 68t-31 99.5zM258 193q0 -68 52.5 -116t131.5 -48q102 0 184.5 68.5t82.5 172.5q0 22 -7 41q-18 76 -18 154q-119 -4 -206.5 -31t-133 -68.5 t-66 -84.5t-20.5 -88zM838 518h483q-9 114 -22 165q-49 182 -193 183q-30 0 -62 -10t-67.5 -35.5t-64 -63t-49 -100t-25.5 -139.5z" />
<glyph unicode="&#xe7;" horiz-adv-x="935" d="M70 442q0 127 59 236t165 174.5t234 65.5q138 0 231 -56.5t93 -148.5q0 -46 -27 -72.5t-69 -26.5q-41 0 -67.5 27t-26.5 68t23.5 65t59.5 31q-35 22 -84 35.5t-78 16.5t-51 3q-50 0 -97 -21t-91.5 -66.5t-71 -130t-26.5 -198.5q0 -108 28 -190.5t73 -128.5t95.5 -68 t102.5 -22q87 0 159 47.5t107 146.5q2 4 4 10.5t3 9t3 6t3 5t2.5 3.5t3 2.5l4.5 1.5t5.5 1h6.5q28 0 28 -24q0 -8 -7.5 -31t-29.5 -60.5t-53.5 -72.5t-87.5 -63.5t-125 -36.5v-115q91 0 157.5 -35t66.5 -102q0 -20 -7.5 -37t-24 -30t-34.5 -23.5t-47.5 -17.5t-54 -12.5 t-63 -8.5t-65.5 -5t-70.5 -3t-68.5 -1h-69h-58v58h29q53 0 82 0.5t78.5 2.5t77.5 7t59 13.5t45 23t14 33.5q0 79 -161 79v177q-163 25 -275 154t-112 304z" />
<glyph unicode="&#xe8;" horiz-adv-x="935" d="M59 451q0 192 128 329.5t311 137.5q94 0 168 -33.5t118.5 -91t67 -129t22.5 -152.5q0 -31 -9 -37t-46 -6h-583q0 -60 2.5 -99t19 -101.5t47.5 -108.5q37 -56 98 -90.5t132 -34.5q13 0 28 1.5t43.5 7.5t55.5 20.5t56.5 36t55.5 60t43 87.5q5 22 29 22q28 0 28 -26 q0 -16 -11.5 -46t-39.5 -68.5t-66.5 -72t-100 -57t-132.5 -23.5q-124 0 -230.5 61.5t-170.5 171t-64 241.5zM209 1350q0 34 24 57t54 23q17 0 28.5 -5.5t17 -11t17.5 -20.5l250 -310l-39 -43l-309 242q-17 14 -24 21.5t-13 19.5t-6 27zM238 518h497q0 94 -20.5 164t-56 109 t-75.5 57t-85 18q-22 0 -47 -5.5t-63 -27t-68 -56.5t-53.5 -102.5t-28.5 -156.5z" />
<glyph unicode="&#xe9;" horiz-adv-x="935" d="M59 451q0 192 128 329.5t311 137.5q94 0 168 -33.5t118.5 -91t67 -129t22.5 -152.5q0 -31 -9 -37t-46 -6h-583q0 -60 2.5 -99t19 -101.5t47.5 -108.5q37 -56 98 -90.5t132 -34.5q13 0 28 1.5t43.5 7.5t55.5 20.5t56.5 36t55.5 60t43 87.5q5 22 29 22q28 0 28 -26 q0 -16 -11.5 -46t-39.5 -68.5t-66.5 -72t-100 -57t-132.5 -23.5q-124 0 -230.5 61.5t-170.5 171t-64 241.5zM238 518h497q0 94 -20.5 164t-56 109t-75.5 57t-85 18q-22 0 -47 -5.5t-63 -27t-68 -56.5t-53.5 -102.5t-28.5 -156.5zM338 1083l250 310q12 15 17.5 20.5t17 11 t28.5 5.5q30 0 54 -23t24 -57q0 -15 -6 -27t-13 -19.5t-24 -21.5l-309 -242z" />
<glyph unicode="&#xea;" horiz-adv-x="935" d="M59 451q0 192 128 329.5t311 137.5q94 0 168 -33.5t118.5 -91t67 -129t22.5 -152.5q0 -31 -9 -37t-46 -6h-583q0 -60 2.5 -99t19 -101.5t47.5 -108.5q37 -56 98 -90.5t132 -34.5q13 0 28 1.5t43.5 7.5t55.5 20.5t56.5 36t55.5 60t43 87.5q5 22 29 22q28 0 28 -26 q0 -16 -11.5 -46t-39.5 -68.5t-66.5 -72t-100 -57t-132.5 -23.5q-124 0 -230.5 61.5t-170.5 171t-64 241.5zM158 1083l311 332l311 -332l-26 -28l-285 221l-285 -221zM238 518h497q0 94 -20.5 164t-56 109t-75.5 57t-85 18q-22 0 -47 -5.5t-63 -27t-68 -56.5t-53.5 -102.5 t-28.5 -156.5z" />
<glyph unicode="&#xeb;" horiz-adv-x="935" d="M59 451q0 192 128 329.5t311 137.5q94 0 168 -33.5t118.5 -91t67 -129t22.5 -152.5q0 -31 -9 -37t-46 -6h-583q0 -60 2.5 -99t19 -101.5t47.5 -108.5q37 -56 98 -90.5t132 -34.5q13 0 28 1.5t43.5 7.5t55.5 20.5t56.5 36t55.5 60t43 87.5q5 22 29 22q28 0 28 -26 q0 -16 -11.5 -46t-39.5 -68.5t-66.5 -72t-100 -57t-132.5 -23.5q-124 0 -230.5 61.5t-170.5 171t-64 241.5zM188 1237q0 41 29.5 69.5t71.5 28.5q41 0 69.5 -28.5t28.5 -69.5t-28.5 -70.5t-69.5 -29.5t-71 29.5t-30 70.5zM238 518h497q0 94 -20.5 164t-56 109t-75.5 57 t-85 18q-22 0 -47 -5.5t-63 -27t-68 -56.5t-53.5 -102.5t-28.5 -156.5zM553 1237q0 41 29.5 69.5t70.5 28.5t70 -28.5t29 -69.5t-29 -70.5t-70 -29.5t-70.5 29.5t-29.5 70.5z" />
<glyph unicode="&#xec;" horiz-adv-x="585" d="M33 1350q0 34 24 57t54 23q17 0 28.5 -5.5t17 -11t17.5 -20.5l250 -310l-39 -43l-309 242q-17 14 -24 21.5t-13 19.5t-6 27zM74 0v63q106 0 131.5 13.5t25.5 81.5v549q0 75 -25 93.5t-124 18.5v64l295 22v-751q0 -44 8 -60.5t36 -23.5t97 -7v-63q-100 6 -219 6 q-133 0 -225 -6z" />
<glyph unicode="&#xed;" horiz-adv-x="585" d="M74 0v63q106 0 131.5 13.5t25.5 81.5v549q0 75 -25 93.5t-124 18.5v64l295 22v-751q0 -44 8 -60.5t36 -23.5t97 -7v-63q-100 6 -219 6q-133 0 -225 -6zM162 1083l250 310q12 15 17.5 20.5t17 11t28.5 5.5q30 0 54 -23t24 -57q0 -15 -6 -27t-13 -19.5t-24 -21.5l-309 -242 z" />
<glyph unicode="&#xee;" horiz-adv-x="585" d="M-18 1083l311 332l311 -332l-26 -28l-285 221l-285 -221zM74 0v63q106 0 131.5 13.5t25.5 81.5v549q0 75 -25 93.5t-124 18.5v64l295 22v-751q0 -44 8 -60.5t36 -23.5t97 -7v-63q-100 6 -219 6q-133 0 -225 -6z" />
<glyph unicode="&#xef;" horiz-adv-x="585" d="M12 1237q0 41 29.5 69.5t71.5 28.5q41 0 69.5 -28.5t28.5 -69.5t-28.5 -70.5t-69.5 -29.5t-71 29.5t-30 70.5zM74 0v63q106 0 131.5 13.5t25.5 81.5v549q0 75 -25 93.5t-124 18.5v64l295 22v-751q0 -44 8 -60.5t36 -23.5t97 -7v-63q-100 6 -219 6q-133 0 -225 -6z M377 1237q0 41 29.5 69.5t70.5 28.5t69.5 -28.5t28.5 -69.5t-28.5 -70.5t-69.5 -29.5t-70.5 29.5t-29.5 70.5z" />
<glyph unicode="&#xf0;" d="M59 436q0 99 38 188.5t101.5 152.5t147.5 100.5t174 37.5q150 0 258 -151q-86 284 -317 461l-172 -101l-31 56l145 84q-133 83 -274 108l8 49q185 -11 365 -102l196 115l31 -56l-166 -96q197 -124 312.5 -334t115.5 -452q0 -60 -2.5 -93t-14 -86t-40 -102t-76.5 -100 q-12 -12 -19.5 -19t-42.5 -32.5t-69 -41.5t-89.5 -30.5t-113.5 -14.5q-123 0 -229.5 59.5t-171 165.5t-64.5 234zM238 457q0 -179 55 -281q32 -56 92 -98.5t141 -42.5q24 0 51.5 5t72.5 29.5t78.5 64t59 119t25.5 185.5q0 181 -84.5 303.5t-204.5 122.5q-68 0 -126 -34.5 t-93 -86.5q-67 -100 -67 -286z" />
<glyph unicode="&#xf1;" horiz-adv-x="1169" d="M72 0v63q106 0 131.5 13.5t25.5 81.5v547q0 39 -4.5 59.5t-22.5 34t-46.5 17t-83.5 3.5v64l297 22v-198h2q104 198 307 198q155 0 227 -84q39 -53 48.5 -108.5t9.5 -192.5v-393q1 -19 8 -31t17 -18.5t33 -10t42 -4t57 -0.5v-63q-109 6 -233 6q-138 0 -234 -6v63 q107 0 132.5 13.5t25.5 81.5v473q0 50 -6 87.5t-21.5 69.5t-45.5 49t-74 17q-51 0 -100 -20.5t-90.5 -59.5t-67 -102.5t-25.5 -141.5v-372q0 -68 25 -81.5t133 -13.5v-63q-109 6 -234 6q-137 0 -233 -6zM236 1171q89 99 130 130.5t95 31.5q44 0 123 -41q53 -29 83.5 -41 t63.5 -12q44 0 81.5 23.5t84.5 70.5l37 -35q-62 -69 -92 -98t-62.5 -46t-70.5 -17q-44 0 -123 41q-52 29 -83.5 41t-64.5 12q-44 0 -81.5 -23.5t-84.5 -70.5z" />
<glyph unicode="&#xf2;" d="M59 436q0 129 62 240t170 176.5t235 65.5q191 0 328 -141t137 -341q0 -125 -62 -230.5t-169.5 -167t-235.5 -61.5q-191 0 -328 134t-137 325zM236 455q0 -65 2 -101.5t14.5 -91.5t38.5 -96q36 -61 97 -96t138 -35q71 0 134 33.5t104 101.5q23 41 35.5 100t14 94.5 t1.5 90.5q0 57 -2 93.5t-13.5 89t-33.5 93.5q-33 59 -96 97t-146 38q-65 0 -129.5 -32t-107.5 -103q-23 -39 -35.5 -95.5t-14 -91t-1.5 -89.5zM266 1350q0 34 24 57t54 23q24 0 36 -8t28 -29l249 -310l-39 -43l-309 242q-17 14 -24 21.5t-13 19.5t-6 27z" />
<glyph unicode="&#xf3;" d="M59 436q0 129 62 240t170 176.5t235 65.5q191 0 328 -141t137 -341q0 -125 -62 -230.5t-169.5 -167t-235.5 -61.5q-191 0 -328 134t-137 325zM236 455q0 -65 2 -101.5t14.5 -91.5t38.5 -96q36 -61 97 -96t138 -35q71 0 134 33.5t104 101.5q23 41 35.5 100t14 94.5 t1.5 90.5q0 57 -2 93.5t-13.5 89t-33.5 93.5q-33 59 -96 97t-146 38q-65 0 -129.5 -32t-107.5 -103q-23 -39 -35.5 -95.5t-14 -91t-1.5 -89.5zM395 1083l250 310q11 14 17 20.5t18 11.5t29 5q30 0 53.5 -23t23.5 -57q0 -15 -6 -27t-13 -19.5t-24 -21.5l-309 -242z" />
<glyph unicode="&#xf4;" d="M59 436q0 129 62 240t170 176.5t235 65.5q191 0 328 -141t137 -341q0 -125 -62 -230.5t-169.5 -167t-235.5 -61.5q-191 0 -328 134t-137 325zM215 1083l311 332l312 -332l-27 -28l-285 221l-284 -221zM236 455q0 -65 2 -101.5t14.5 -91.5t38.5 -96q36 -61 97 -96t138 -35 q71 0 134 33.5t104 101.5q23 41 35.5 100t14 94.5t1.5 90.5q0 57 -2 93.5t-13.5 89t-33.5 93.5q-33 59 -96 97t-146 38q-65 0 -129.5 -32t-107.5 -103q-23 -39 -35.5 -95.5t-14 -91t-1.5 -89.5z" />
<glyph unicode="&#xf5;" d="M59 436q0 129 62 240t170 176.5t235 65.5q191 0 328 -141t137 -341q0 -125 -62 -230.5t-169.5 -167t-235.5 -61.5q-191 0 -328 134t-137 325zM176 1171q89 99 130 130.5t95 31.5q44 0 123 -41q52 -29 83.5 -41t64.5 -12q44 0 81.5 23.5t84.5 70.5l36 -35q-62 -69 -92 -98 t-62.5 -46t-70.5 -17q-44 0 -123 41q-53 29 -83.5 41t-63.5 12q-44 0 -81.5 -23.5t-84.5 -70.5zM236 455q0 -65 2 -101.5t14.5 -91.5t38.5 -96q36 -61 97 -96t138 -35q71 0 134 33.5t104 101.5q23 41 35.5 100t14 94.5t1.5 90.5q0 57 -2 93.5t-13.5 89t-33.5 93.5 q-33 59 -96 97t-146 38q-65 0 -129.5 -32t-107.5 -103q-23 -39 -35.5 -95.5t-14 -91t-1.5 -89.5z" />
<glyph unicode="&#xf6;" d="M59 436q0 129 62 240t170 176.5t235 65.5q191 0 328 -141t137 -341q0 -125 -62 -230.5t-169.5 -167t-235.5 -61.5q-191 0 -328 134t-137 325zM236 455q0 -65 2 -101.5t14.5 -91.5t38.5 -96q36 -61 97 -96t138 -35q71 0 134 33.5t104 101.5q23 41 35.5 100t14 94.5 t1.5 90.5q0 57 -2 93.5t-13.5 89t-33.5 93.5q-33 59 -96 97t-146 38q-65 0 -129.5 -32t-107.5 -103q-23 -39 -35.5 -95.5t-14 -91t-1.5 -89.5zM246 1237q0 41 29.5 69.5t70.5 28.5t69.5 -28.5t28.5 -69.5t-28.5 -70.5t-69.5 -29.5t-70.5 29.5t-29.5 70.5zM610 1237 q0 41 29.5 69.5t71.5 28.5q41 0 69.5 -28.5t28.5 -69.5t-28.5 -70.5t-69.5 -29.5t-71 29.5t-30 70.5z" />
<glyph unicode="&#xf7;" horiz-adv-x="1636" d="M117 512q0 13 5.5 22.5t11.5 14t19.5 6.5t19 2h20.5h1249h20.5t19 -2t19.5 -6.5t11.5 -14t5.5 -22.5q0 -15 -5.5 -24.5t-17.5 -13t-20.5 -4.5t-24.5 -1h-1266q-19 0 -30.5 1.5t-24 11.5t-12.5 30zM707 184q0 45 32 78t78 33q47 0 79 -33t32 -78q0 -47 -32 -78.5 t-79 -31.5t-78.5 31.5t-31.5 78.5zM707 844q0 45 31.5 77.5t78.5 32.5t79 -32.5t32 -77.5q0 -47 -32 -79t-79 -32t-78.5 32t-31.5 79z" />
<glyph unicode="&#xf8;" d="M70 436q0 129 60.5 240t165.5 176.5t230 65.5q115 0 217 -60l140 236l45 -25l-142 -240q74 -48 134.5 -152.5t60.5 -240.5q0 -191 -133.5 -325t-323.5 -134q-103 0 -213 54l-145 -242l-43 27l143 241q-59 44 -100 96.5t-60.5 104.5t-27.5 94.5t-8 83.5zM221 438 q0 -105 17 -180.5t69 -132.5l402 676q-80 65 -185 65q-157 0 -243 -137q-60 -94 -60 -291zM346 86q82 -57 178 -57q151 0 236 114q31 42 47 100.5t19 98.5t3 96q0 111 -17 187t-67 137z" />
<glyph unicode="&#xf9;" horiz-adv-x="1169" d="M72 819v64l309 22v-678q0 -39 2.5 -63.5t12 -53t28.5 -44.5t53 -26.5t84 -10.5q110 0 180 88t70 225v363q0 74 -27 94t-131 20v64l310 22v-727q0 -52 11 -74.5t42.5 -31.5t103.5 -9v-63l-303 -23v170h-2q-82 -170 -266 -170q-144 0 -225 56q-64 49 -79.5 110t-15.5 181 v307v49.5t-1.5 39t-2.5 32t-6 23t-9 18.5t-14.5 11t-19.5 8.5t-27 3.5t-34 3h-43zM326 1350q0 34 23.5 57t53.5 23q24 0 36 -8t28 -29l250 -310l-39 -43l-309 242q-17 14 -24 21.5t-13 19.5t-6 27z" />
<glyph unicode="&#xfa;" horiz-adv-x="1169" d="M72 819v64l309 22v-678q0 -39 2.5 -63.5t12 -53t28.5 -44.5t53 -26.5t84 -10.5q110 0 180 88t70 225v363q0 74 -27 94t-131 20v64l310 22v-727q0 -52 11 -74.5t42.5 -31.5t103.5 -9v-63l-303 -23v170h-2q-82 -170 -266 -170q-144 0 -225 56q-64 49 -79.5 110t-15.5 181 v307v49.5t-1.5 39t-2.5 32t-6 23t-9 18.5t-14.5 11t-19.5 8.5t-27 3.5t-34 3h-43zM455 1083l250 310q12 15 17.5 20.5t17 11t28.5 5.5q30 0 54 -23t24 -57q0 -15 -6 -27t-13 -19.5t-24 -21.5l-309 -242z" />
<glyph unicode="&#xfb;" horiz-adv-x="1169" d="M72 819v64l309 22v-678q0 -39 2.5 -63.5t12 -53t28.5 -44.5t53 -26.5t84 -10.5q110 0 180 88t70 225v363q0 74 -27 94t-131 20v64l310 22v-727q0 -52 11 -74.5t42.5 -31.5t103.5 -9v-63l-303 -23v170h-2q-82 -170 -266 -170q-144 0 -225 56q-64 49 -79.5 110t-15.5 181 v307v49.5t-1.5 39t-2.5 32t-6 23t-9 18.5t-14.5 11t-19.5 8.5t-27 3.5t-34 3h-43zM274 1083l312 332l311 -332l-27 -28l-284 221l-285 -221z" />
<glyph unicode="&#xfc;" horiz-adv-x="1169" d="M72 819v64l309 22v-678q0 -39 2.5 -63.5t12 -53t28.5 -44.5t53 -26.5t84 -10.5q110 0 180 88t70 225v363q0 74 -27 94t-131 20v64l310 22v-727q0 -52 11 -74.5t42.5 -31.5t103.5 -9v-63l-303 -23v170h-2q-82 -170 -266 -170q-144 0 -225 56q-64 49 -79.5 110t-15.5 181 v307v49.5t-1.5 39t-2.5 32t-6 23t-9 18.5t-14.5 11t-19.5 8.5t-27 3.5t-34 3h-43zM305 1237q0 41 29.5 69.5t71.5 28.5q41 0 69.5 -28.5t28.5 -69.5t-28.5 -70.5t-69.5 -29.5t-71 29.5t-30 70.5zM670 1237q0 41 29.5 69.5t70.5 28.5t69.5 -28.5t28.5 -69.5t-28.5 -70.5 t-69.5 -29.5t-70.5 29.5t-29.5 70.5z" />
<glyph unicode="&#xfd;" horiz-adv-x="1110" d="M41 -252q0 41 24.5 64.5t63.5 23.5q37 0 61.5 -23t24.5 -63q0 -45 -26.5 -66.5t-47.5 -21.5q9 -9 34 -20t58 -11q38 0 72 16t57 39t45.5 59.5t35 65t28.5 68.5l51 121l-323 760q-18 39 -49 49t-107 10v64q80 -6 203 -6l227 6v-64q-23 0 -37 -1t-34.5 -5.5t-31 -16 t-10.5 -30.5q0 -6 2 -10q4 -18 11 -33l229 -537l207 488q16 32 16 59q0 6 -0.5 12t-5.5 20t-14 24t-28.5 19t-45.5 11v64q57 -6 178 -6q90 0 156 6v-64q-46 -2 -81 -15.5t-56 -37.5t-31.5 -42t-22.5 -46l-370 -866q-43 -99 -111.5 -165.5t-159.5 -66.5q-79 0 -135.5 49.5 t-56.5 118.5zM424 1083l250 310q12 15 17.5 20.5t17 11t28.5 5.5q30 0 54 -23t24 -57q0 -15 -6 -27t-13 -19.5t-24 -21.5l-309 -242z" />
<glyph unicode="&#xfe;" horiz-adv-x="1169" d="M61 -334q107 0 132.5 13t25.5 81v1461q0 74 -27 94t-131 20v64l304 22v-645q123 129 290 129q182 0 312.5 -135t130.5 -328q0 -130 -66.5 -238t-173.5 -167.5t-229 -59.5q-49 0 -89 10t-72.5 31t-50.5 36.5t-46 43.5v-338q0 -68 24.5 -81t132.5 -13v-63q-109 6 -233 6 q-138 0 -234 -6v63zM371 238q0 -31 3.5 -43t22.5 -41q39 -57 96 -91t123 -34q126 0 216 119t90 294q0 166 -82 286t-201 120q-75 0 -146.5 -38t-121.5 -122v-450z" />
<glyph unicode="&#xff;" horiz-adv-x="1110" d="M41 -252q0 41 24.5 64.5t63.5 23.5q37 0 61.5 -23t24.5 -63q0 -45 -26.5 -66.5t-47.5 -21.5q9 -9 34 -20t58 -11q38 0 72 16t57 39t45.5 59.5t35 65t28.5 68.5l51 121l-323 760q-18 39 -49 49t-107 10v64q80 -6 203 -6l227 6v-64q-23 0 -37 -1t-34.5 -5.5t-31 -16 t-10.5 -30.5q0 -6 2 -10q4 -18 11 -33l229 -537l207 488q16 32 16 59q0 6 -0.5 12t-5.5 20t-14 24t-28.5 19t-45.5 11v64q57 -6 178 -6q90 0 156 6v-64q-46 -2 -81 -15.5t-56 -37.5t-31.5 -42t-22.5 -46l-370 -866q-43 -99 -111.5 -165.5t-159.5 -66.5q-79 0 -135.5 49.5 t-56.5 118.5zM274 1237q0 41 29.5 69.5t71.5 28.5q41 0 69.5 -28.5t28.5 -69.5t-28.5 -70.5t-69.5 -29.5t-71 29.5t-30 70.5zM639 1237q0 41 29.5 69.5t70.5 28.5t70 -28.5t29 -69.5t-29 -70.5t-70 -29.5t-70.5 29.5t-29.5 70.5z" />
<glyph unicode="&#x152;" horiz-adv-x="2134" d="M145 694q0 156 57.5 296.5t152.5 239t222.5 156.5t264.5 58q51 0 139 -19q111 -26 188 -26h789l57 -461h-57q-7 57 -13.5 98t-17 82.5t-24.5 69t-34 54t-46.5 42.5t-62 28.5t-80 17.5t-101.5 5h-238q-70 0 -85 -14t-15 -70v-493h227q78 0 124.5 11.5t72 42.5t33.5 72.5 t8 112.5h57v-542h-57q0 72 -8 113.5t-33.5 72t-72 42t-124.5 11.5h-227v-547q0 -56 15 -70t85 -14h236q57 0 103 6t83.5 16t67.5 28.5t52.5 38t40.5 51.5t31 62.5t24 75.5t19 86.5t17 100.5h58l-88 -528h-816q-53 0 -188 -27q-83 -18 -139 -18q-136 0 -263.5 56t-223 153 t-153 235.5t-57.5 294.5zM348 725q0 -196 67.5 -361.5t183 -261.5t251.5 -96q56 0 96 13.5t61.5 28.5t36 53t18 59t10.5 74q1 4 1 6q8 74 8 460q0 390 -10 478q-7 55 -16 87t-31.5 65t-65 48t-108.5 15q-100 0 -192 -51t-160.5 -138.5t-109 -212.5t-40.5 -266z" />
<glyph unicode="&#x153;" horiz-adv-x="1636" d="M59 449q0 98 36.5 185.5t97 149.5t143 98t172.5 36q125 0 222.5 -64t143.5 -139q46 77 138 140t213 63q165 0 257.5 -115t92.5 -289q0 -18 -1 -27t-9.5 -13t-15 -4.5t-29.5 -0.5h-568q0 -88 16 -159.5t40 -115.5t58 -76.5t62 -48t60.5 -24t46 -9.5t25.5 -1q13 0 26.5 1.5 t40 7.5t51 20.5t51 36t50 60t39.5 87.5q6 22 28 22q29 0 29 -26q0 -15 -10.5 -44t-36 -68t-61.5 -73t-93.5 -58t-124.5 -24q-123 0 -221 63.5t-151 145.5q-61 -99 -159.5 -154t-209.5 -55q-120 0 -223.5 63t-164.5 172t-61 237zM223 457q0 -81 13 -147.5t33 -110t47.5 -76.5 t54 -50t55.5 -28t48 -13.5t36 -2.5q16 0 35 3t48.5 14t56 28.5t55 50.5t49.5 76t34 109.5t13 146.5q0 107 -25.5 187.5t-60 121t-79.5 65t-73.5 30t-52.5 5.5q-15 0 -31.5 -2t-46.5 -11t-56 -24.5t-55 -46.5t-50 -72.5t-34.5 -107t-13.5 -145.5zM954 518h484q-9 114 -22 165 q-49 182 -193 183q-30 0 -62 -10t-67.5 -35.5t-64.5 -63t-49.5 -100t-25.5 -139.5z" />
<glyph unicode="&#x178;" horiz-adv-x="1579" d="M27 1335v64l270 -6q215 0 297 6v-64q-30 0 -49.5 -1t-42.5 -5.5t-35 -16t-12 -28.5q0 -11 18 -41l385 -598l350 551q21 33 23 49v10q0 36 -29.5 58t-83.5 22v64l232 -6q128 0 200 6v-64q-183 0 -266 -141l-405 -635v-399q0 -42 7.5 -59.5t42 -27.5t111.5 -10h47v-63 q-98 6 -299 6q-200 0 -296 -6v63h47q48 0 77.5 4t47 9t25.5 19.5t9.5 27t1.5 39.5v397l-450 703q-31 44 -65.5 58.5t-123.5 14.5h-34zM475 1608q0 41 29.5 69.5t70.5 28.5t70 -28.5t29 -69.5t-29 -71t-70 -30t-70.5 30t-29.5 71zM905 1608q0 41 29.5 69.5t71.5 28.5 q41 0 69.5 -28.5t28.5 -69.5q0 -42 -28.5 -71.5t-69.5 -29.5t-71 30t-30 71z" />
<glyph unicode="&#x2c6;" d="M215 1083l311 332l312 -332l-27 -28l-285 221l-284 -221z" />
<glyph unicode="&#x2dc;" d="M176 1171q89 99 130 130.5t95 31.5q44 0 123 -41q52 -29 83.5 -41t64.5 -12q44 0 81.5 23.5t84.5 70.5l36 -35q-62 -69 -92 -98t-62.5 -46t-70.5 -17q-44 0 -123 41q-53 29 -83.5 41t-63.5 12q-44 0 -81.5 -23.5t-84.5 -70.5z" />
<glyph unicode="&#x2000;" horiz-adv-x="933" />
<glyph unicode="&#x2001;" horiz-adv-x="1866" />
<glyph unicode="&#x2002;" horiz-adv-x="933" />
<glyph unicode="&#x2003;" horiz-adv-x="1866" />
<glyph unicode="&#x2004;" horiz-adv-x="622" />
<glyph unicode="&#x2005;" horiz-adv-x="466" />
<glyph unicode="&#x2006;" horiz-adv-x="311" />
<glyph unicode="&#x2007;" horiz-adv-x="311" />
<glyph unicode="&#x2008;" horiz-adv-x="233" />
<glyph unicode="&#x2009;" horiz-adv-x="373" />
<glyph unicode="&#x200a;" horiz-adv-x="103" />
<glyph unicode="&#x2010;" horiz-adv-x="702" d="M23 379v127h561v-127h-561z" />
<glyph unicode="&#x2011;" horiz-adv-x="702" d="M23 379v127h561v-127h-561z" />
<glyph unicode="&#x2012;" horiz-adv-x="702" d="M23 379v127h561v-127h-561z" />
<glyph unicode="&#x2013;" d="M0 520v51h1051v-51h-1051z" />
<glyph unicode="&#x2014;" horiz-adv-x="2105" d="M0 520v51h2103v-51h-2103z" />
<glyph unicode="&#x2018;" horiz-adv-x="585" d="M152 1020q0 69 18 135t44.5 112t54.5 81.5t49 53t28 17.5q10 0 18.5 -8t8.5 -16q0 -10 -11 -21q-159 -149 -159 -352q0 -19 2 -23q0 -6 2 -8l2 2q2 0 6 4q34 27 76 27q51 0 80.5 -33t29.5 -78q0 -44 -29.5 -77t-80.5 -33q-65 0 -102 59t-37 158z" />
<glyph unicode="&#x2019;" horiz-adv-x="585" d="M180 1311q0 44 30 77t81 33q65 0 102 -59t37 -158q0 -69 -18 -135t-44.5 -112t-54.5 -81.5t-49 -53t-28 -17.5q-10 0 -18.5 8t-8.5 16q0 11 10 21q160 150 160 352q0 4 -1 12t-1 11q-2 4 -2 8q0 -2 -2 -2q-1 -1 -3 -2t-3 -2q-35 -27 -76 -27q-51 0 -81 33.5t-30 77.5z " />
<glyph unicode="&#x201a;" horiz-adv-x="585" d="M168 102q0 44 30 77.5t81 33.5q65 0 102 -59t37 -158q0 -69 -18.5 -135t-44.5 -112t-54.5 -81.5t-49.5 -53t-28 -17.5q-10 0 -18 8t-8 16q0 11 10 21q160 150 160 352q0 4 -1 11.5t-1 10.5q-3 6 -3 9q0 -2 -2 -2q-1 -1 -3 -2.5t-3 -2.5q-33 -26 -75 -26q-51 0 -81 33 t-30 77z" />
<glyph unicode="&#x201c;" horiz-adv-x="995" d="M152 1020q0 69 18 135t44.5 112t54.5 81.5t49 53t28 17.5q10 0 18.5 -8t8.5 -16q0 -10 -11 -21q-159 -149 -159 -352q0 -19 2 -23q0 -6 2 -8l2 2q2 0 6 4q34 27 76 27q51 0 80.5 -33t29.5 -78q0 -44 -29.5 -77t-80.5 -33q-65 0 -102 59t-37 158zM561 1020q0 69 18.5 135 t44.5 112t54.5 81.5t49.5 53t28 17.5q10 0 18 -8t8 -16q0 -11 -10 -21q-160 -150 -160 -352q0 -19 2 -23q0 -6 2 -8l2 2q3 0 7 4q35 27 75 27q51 0 81 -33.5t30 -77.5t-30 -77t-81 -33q-65 0 -102 59t-37 158z" />
<glyph unicode="&#x201d;" horiz-adv-x="995" d="M184 1311q0 44 30 77t81 33q65 0 102 -59t37 -158q0 -69 -18 -135t-44.5 -112t-54.5 -81.5t-49 -53t-28 -17.5q-10 0 -18.5 8t-8.5 16q0 11 10 21q160 150 160 352q0 4 -1 12t-1 11q-2 4 -2 8q0 -2 -2 -2q-1 -1 -3 -2t-3 -2q-35 -27 -76 -27q-51 0 -81 33.5t-30 77.5z M594 1311q0 44 30 77t81 33q65 0 102 -59t37 -158q0 -69 -18.5 -135t-44.5 -112t-54.5 -81.5t-49.5 -53t-28 -17.5q-10 0 -18 8t-8 16q0 11 10 21q160 150 160 352q0 4 -1 12t-1 11q-3 6 -3 8q0 -2 -2 -2q-1 -1 -3 -2t-3 -2q-35 -27 -75 -27q-51 0 -81 33.5t-30 77.5z" />
<glyph unicode="&#x201e;" horiz-adv-x="995" d="M184 102q0 44 30 77.5t81 33.5q65 0 102 -59t37 -158q0 -69 -18 -135t-44.5 -112t-54.5 -81.5t-49 -53t-28 -17.5q-10 0 -18.5 8t-8.5 16q0 11 10 21q160 150 160 352q0 4 -1 11.5t-1 10.5q-2 4 -2 9q0 -2 -2 -2q-1 -1 -3 -2.5t-3 -2.5q-33 -26 -76 -26q-51 0 -81 33 t-30 77zM594 102q0 44 30 77.5t81 33.5q65 0 102 -59t37 -158q0 -69 -18.5 -135t-44.5 -112t-54.5 -81.5t-49.5 -53t-28 -17.5q-10 0 -18 8t-8 16q0 11 10 21q160 150 160 352q0 4 -1 11.5t-1 10.5q-3 6 -3 9q0 -2 -2 -2q-1 -1 -3 -2.5t-3 -2.5q-33 -26 -75 -26 q-51 0 -81 33t-30 77z" />
<glyph unicode="&#x2022;" horiz-adv-x="1636" d="M520 465q0 120 88 209.5t211 89.5t211 -89.5t88 -209.5q0 -125 -87 -212t-212 -87t-212 87t-87 212z" />
<glyph unicode="&#x2026;" horiz-adv-x="1404" d="M182 111q0 45 32 77.5t79 32.5t78.5 -32.5t31.5 -77.5q0 -47 -31.5 -79t-78.5 -32t-79 32t-32 79zM592 111q0 45 31.5 77.5t78.5 32.5t79 -32.5t32 -77.5q0 -47 -32 -79t-79 -32t-78.5 32t-31.5 79zM1001 111q0 45 32 77.5t79 32.5t79 -32.5t32 -77.5q0 -47 -32 -79 t-79 -32t-79 32t-32 79z" />
<glyph unicode="&#x202f;" horiz-adv-x="373" />
<glyph unicode="&#x2039;" horiz-adv-x="819" d="M233 496q0 9 7 16q201 198 297 463q3 14 20 14h6q23 0 23 -22v-4q-57 -241 -197 -467q141 -230 197 -467v-6q0 -23 -23 -23h-6q-17 0 -20 14q-94 265 -297 465q-7 7 -7 17z" />
<glyph unicode="&#x203a;" horiz-adv-x="819" d="M233 23v6q56 237 197 467q-140 226 -197 467v4q0 22 23 22h6q18 0 21 -14q96 -265 297 -463q6 -6 6 -16q0 -11 -6 -17q-203 -200 -297 -465q-3 -14 -21 -14h-6q-23 0 -23 23z" />
<glyph unicode="&#x205f;" horiz-adv-x="466" />
<glyph unicode="&#x20ac;" horiz-adv-x="1316" d="M115 584l6 16q3 16 20 16h97q-5 67 -5 84q0 6 5 84h-101q-12 0 -19 9.5t-3 19.5l6 16q3 17 20 17h105q35 214 164 379q82 102 193.5 160.5t236.5 58.5q135 0 237 -92l80 86q6 6 17 6h4q22 0 22 -23v-313q0 -23 -22 -23h-17q-19 0 -22 21q-12 117 -92 196.5t-191 79.5 q-95 0 -175.5 -52t-133.5 -140q-84 -139 -101 -344h617q25 0 22 -23l-6 -22q-3 -17 -20 -17h-615l-2 -84l2 -84h551q13 0 19 -5.5t4 -16.5l-6 -23q-3 -16 -21 -16h-545q17 -205 101 -344q53 -89 133.5 -142t175.5 -53q111 0 191 80t92 199q3 18 22 18h17q22 0 22 -22v-314 q0 -22 -22 -22h-4q-12 0 -17 8l-80 84q-102 -92 -237 -92q-125 0 -236.5 58.5t-193.5 160.5q-128 165 -164 381h-109q-12 0 -19 9.5t-3 19.5z" />
<glyph unicode="&#x2122;" horiz-adv-x="2070" d="M45 1122l25 277h770l24 -277h-33q-6 81 -16 124t-36 71.5t-65 36.5t-110 8q-53 0 -67 -2q-18 -4 -21.5 -13t-3.5 -36v-645q0 -25 5 -35t33.5 -17.5t90.5 -7.5h47v-39q-30 4 -231 4q-203 0 -234 -4v39h49q62 0 90.5 7.5t33.5 17.5t5 35v645q0 26 -4 35.5t-20 13.5 q-14 2 -72 2q-48 0 -79.5 -3.5t-57 -14t-39.5 -25.5t-24.5 -44.5t-15.5 -63.5t-9 -89h-35zM918 567v39q36 0 61 7t37 15.5t18.5 23.5t7 23t0.5 23v613q0 35 -15.5 46t-80.5 11h-28v39h206q24 0 30.5 -4t14.5 -23l275 -692l274 696q7 16 14.5 19.5t28.5 3.5h207v-39h-29 q-65 0 -80.5 -11t-15.5 -46v-645q0 -38 15 -49t81 -11h29v-39q-52 4 -176 4q-125 0 -174 -4v39h29q66 0 81 11t15 49v700l-307 -776q0 -1 -3 -6t-4.5 -6.5t-4.5 -5t-6 -4.5t-7 -1q-15 0 -27 27l-301 762h-2v-658q0 -18 2.5 -29t12.5 -28t38 -26t72 -9v-39q-34 0 -74 2t-69 2 t-70 -2t-75 -2z" />
<glyph unicode="&#xe000;" horiz-adv-x="880" d="M0 0v881h881v-881h-881z" />
<glyph unicode="&#xfb01;" horiz-adv-x="1169" d="M57 819v64h162v231q0 79 41.5 143.5t107.5 104t144.5 61t157.5 21.5q121 0 198.5 -60t77.5 -149q0 -42 -28 -69t-70 -27q-38 0 -67 25.5t-29 70.5q0 17 5.5 34.5t27.5 37t59 24.5q-65 62 -176 62q-48 0 -98.5 -15.5t-99.5 -46.5t-80.5 -89.5t-31.5 -133.5v-225h250 q31 0 37 2q0 2 6 2q15 0 31 2l266 18v-749q0 -68 25 -81.5t133 -13.5v-63q-100 6 -232 6q-133 0 -229 -6v63q107 0 132.5 13.5t25.5 81.5v551q0 66 -20 88t-89 22h-329v-661q0 -25 1.5 -40t9.5 -26.5t15.5 -16.5t30 -8t41 -3.5t59.5 -0.5v-63q-100 6 -231 6q-134 0 -230 -6 v63q107 0 132.5 13.5t25.5 81.5v661h-162z" />
<glyph unicode="&#xfb02;" horiz-adv-x="1169" d="M57 819v64h162v231q0 100 65 176.5t167.5 115t222.5 38.5q106 0 174 -27q21 -8 24 -8l76 12v-1263q0 -68 25 -81.5t133 -13.5v-63q-100 6 -232 6q-133 0 -229 -6v63q107 0 132.5 13.5t25.5 81.5v661h-438v-661q0 -25 1.5 -40t9.5 -26.5t15.5 -16.5t30 -8t41 -3.5 t59.5 -0.5v-63q-100 6 -231 6q-134 0 -230 -6v63q107 0 132.5 13.5t25.5 81.5v661h-162zM358 883h445v334q-47 26 -47 79q0 26 12.5 48t34.5 32q-57 17 -131 17q-44 0 -87.5 -10t-84.5 -32.5t-72.5 -55t-50.5 -81t-19 -106.5v-225z" />
<glyph unicode="&#xfb03;" horiz-adv-x="1753" d="M57 819v64h162v231q0 78 40.5 142.5t106 104.5t143.5 61.5t157 21.5q171 0 243 -111q146 111 344 111q121 0 199 -60t78 -149q0 -42 -28 -69t-70 -27q-38 0 -67.5 25.5t-29.5 70.5q0 17 5.5 34.5t27.5 37t59 24.5q-65 62 -176 62q-37 0 -77 -9t-82 -30.5t-75 -53 t-54 -81.5t-21 -111v-225h250q31 0 37 2q0 2 6 2q15 0 31 2l266 18v-749q0 -68 25 -81.5t133 -13.5v-63q-100 6 -232 6q-133 0 -229 -6v63q106 0 131.5 13.5t25.5 81.5v551q0 66 -19.5 88t-88.5 22h-330v-661q0 -68 25 -81.5t133 -13.5v-63q-100 6 -232 6q-133 0 -229 -6v63 q107 0 132.5 13.5t25.5 81.5v661h-438v-661q0 -25 1.5 -40t9.5 -26.5t15.5 -16.5t30 -8t41 -3.5t59.5 -0.5v-63q-100 6 -231 6q-134 0 -230 -6v63q107 0 132.5 13.5t25.5 81.5v661h-162zM358 883h445v264q-28 11 -43 36t-15 52q0 8 2 18t9.5 28.5t28.5 32.5t53 17 q-69 62 -174 62q-36 0 -75 -8.5t-81 -29.5t-75 -52.5t-54 -82t-21 -112.5v-225z" />
<glyph unicode="&#xfb04;" horiz-adv-x="1753" d="M57 819v64h162v231q0 77 40 141.5t105 104.5t144 62t160 22q185 0 252 -105q137 105 337 105q107 0 175 -27q21 -8 24 -8l76 12v-1263q0 -68 25 -81.5t133 -13.5v-63q-100 6 -232 6q-133 0 -229 -6v63q106 0 131.5 13.5t25.5 81.5v661h-438v-661q0 -68 25 -81.5 t133 -13.5v-63q-100 6 -232 6q-133 0 -229 -6v63q107 0 132.5 13.5t25.5 81.5v661h-438v-661q0 -25 1.5 -40t9.5 -26.5t15.5 -16.5t30 -8t41 -3.5t59.5 -0.5v-63q-100 6 -231 6q-134 0 -230 -6v63q107 0 132.5 13.5t25.5 81.5v661h-162zM358 883h445v231q0 45 8 72 q-35 13 -47 49q-8 13 -8 33q0 38 22.5 60.5t44.5 29.5q-67 35 -155 35q-50 0 -101.5 -16t-99.5 -48t-78.5 -89.5t-30.5 -131.5v-225zM942 883h444v334q-47 26 -47 79q0 26 12.5 48t34.5 32q-57 17 -131 17q-56 0 -109.5 -17t-100 -50t-75 -89.5t-28.5 -128.5v-225z" />
</font>
</defs>
</svg>
